<?xml version="1.0" encoding="iso-8859-1"?>
<!-- Generator: Adobe Illustrator 19.0.0, SVG Export Plug-In . SVG Version: 6.00 Build 0)  -->
<svg version="1.1" id="Capa_1" xmlns="http://www.w3.org/2000/svg" xmlns:xlink="http://www.w3.org/1999/xlink" x="0px" y="0px"
	 viewBox="0 0 469.337 469.337" style="enable-background:new 0 0 469.337 469.337;" xml:space="preserve">
<g>
	<path style="fill:#F2EDF9;" d="M341.334,0h85.336c23.564,0,42.667,19.103,42.667,42.667v42.666
		c0,23.564-19.103,42.667-42.667,42.667h-85.336c-23.564,0-42.667-19.103-42.667-42.667V42.667C298.667,19.103,317.77,0,341.334,0z"
		/>
	<path style="fill:#F2EDF9;" d="M42.667,85.337h85.336c23.564,0,42.667,19.103,42.667,42.667V341.34
		c0,23.564-19.103,42.667-42.667,42.667H42.667C19.103,384.007,0,364.904,0,341.34V128.004C0,104.44,19.103,85.337,42.667,85.337z"
		/>
</g>
<path style="fill:#DDD0EF;" d="M160,128c-5.891,0-10.666,4.775-10.667,10.666c0,0,0,0,0,0.001v202.667
	c0,11.782-9.551,21.333-21.333,21.333H53.334c-5.891,0-10.667,4.776-10.667,10.667c0,5.891,4.776,10.667,10.667,10.667H128
	c23.564,0,42.666-19.103,42.667-42.667V138.667C170.667,132.776,165.892,128.001,160,128C160.001,128,160.001,128,160,128L160,128z"
	/>
<path style="fill:#F2EDF9;" d="M341.334,341.337h85.336c23.564,0,42.667,19.103,42.667,42.667v42.666
	c0,23.564-19.103,42.667-42.667,42.667h-85.336c-23.564,0-42.667-19.103-42.667-42.667v-42.666
	C298.667,360.44,317.77,341.337,341.334,341.337z"/>
<g>
	<path style="fill:#DDD0EF;" d="M458.667,42.667c-5.891,0-10.667,4.775-10.667,10.666c0,0,0,0,0,0.001v32
		c0,11.782-9.551,21.333-21.333,21.333H352c-5.891,0-10.667,4.776-10.667,10.667c0,5.891,4.776,10.667,10.667,10.667h74.667
		c23.564,0,42.666-19.103,42.667-42.667v-32C469.334,47.443,464.559,42.667,458.667,42.667
		C458.667,42.667,458.667,42.667,458.667,42.667L458.667,42.667z"/>
	<path style="fill:#DDD0EF;" d="M458.667,384c-5.891,0-10.667,4.775-10.667,10.666c0,0,0,0,0,0.001v32
		c0,11.782-9.551,21.333-21.333,21.333H352c-5.891,0-10.667,4.776-10.667,10.667c0,5.891,4.776,10.667,10.667,10.667h74.667
		c23.564,0,42.666-19.103,42.667-42.667v-32C469.334,388.776,464.559,384,458.667,384C458.667,384,458.667,384,458.667,384
		L458.667,384z"/>
</g>
<g>
	<path style="fill:#5628B4;" d="M42.667,106.667C54.449,106.667,64,116.218,64,128v0c0,11.782-9.551,21.333-21.333,21.333
		S21.334,139.782,21.334,128l0,0C21.334,116.218,30.885,106.667,42.667,106.667C42.667,106.667,42.667,106.667,42.667,106.667
		L42.667,106.667z"/>
	<path style="fill:#5628B4;" d="M96.004,106.667h42.666c5.891,0,10.667,4.776,10.667,10.667l0,0c0,5.891-4.776,10.666-10.667,10.666
		H96.004c-5.891,0-10.667-4.776-10.667-10.666l0,0C85.337,111.443,90.113,106.667,96.004,106.667z"/>
	<path style="fill:#5628B4;" d="M32.001,298.667h42.666c5.891,0,10.667,4.776,10.667,10.667l0,0c0,5.891-4.776,10.667-10.667,10.667
		H32.001c-5.891,0-10.667-4.776-10.667-10.667l0,0C21.334,303.443,26.11,298.667,32.001,298.667z"/>
	<path style="fill:#5628B4;" d="M117.334,298.667h21.333c5.891,0,10.667,4.776,10.667,10.667l0,0
		c0,5.891-4.776,10.667-10.667,10.667h-21.333c-5.891,0-10.667-4.776-10.667-10.667l0,0
		C106.667,303.443,111.443,298.667,117.334,298.667z"/>
	<path style="fill:#5628B4;" d="M96.004,341.337h42.666c5.891,0,10.667,4.776,10.667,10.667l0,0c0,5.891-4.776,10.667-10.667,10.667
		H96.004c-5.891,0-10.667-4.776-10.667-10.667l0,0C85.337,346.113,90.113,341.337,96.004,341.337z"/>
	<path style="fill:#5628B4;" d="M42.667,170.667h85.334c11.782,0,21.333,9.551,21.333,21.333v64.004
		c0,11.782-9.551,21.333-21.333,21.333H42.667c-11.782,0-21.333-9.551-21.333-21.333V192
		C21.334,180.218,30.885,170.667,42.667,170.667z"/>
	<path style="fill:#5628B4;" d="M341.334,170.667h85.336c23.564,0,42.667,19.103,42.667,42.667V256
		c0,23.564-19.103,42.667-42.667,42.667h-85.336c-23.564,0-42.667-19.103-42.667-42.667v-42.666
		C298.667,189.77,317.77,170.667,341.334,170.667z"/>
</g>
<g>
	<path style="fill:#F7B236;" d="M138.664,106.667H224c5.891,0,10.667,4.776,10.667,10.667l0,0c0,5.891-4.776,10.666-10.667,10.666
		h-85.336c-5.891,0-10.667-4.776-10.667-10.666l0,0C127.997,111.443,132.773,106.667,138.664,106.667z"/>
	<path style="fill:#F7B236;" d="M224.004,63.997L224.004,63.997c5.891,0,10.667,4.776,10.667,10.667v42.666
		c0,5.891-4.776,10.667-10.667,10.667l0,0c-5.891,0-10.667-4.776-10.667-10.667V74.664
		C213.337,68.773,218.113,63.997,224.004,63.997z"/>
	<path style="fill:#F7B236;" d="M224.004,63.997h42.666c5.891,0,10.667,4.776,10.667,10.667l0,0c0,5.891-4.776,10.666-10.667,10.666
		h-42.666c-5.891,0-10.667-4.776-10.667-10.666l0,0C213.337,68.773,218.113,63.997,224.004,63.997z"/>
	<path style="fill:#F7B236;" d="M74.664,213.337H266.66c5.891,0,10.667,4.776,10.667,10.667v0c0,5.891-4.776,10.667-10.667,10.667
		H74.664c-5.891,0-10.667-4.776-10.667-10.667v0C63.997,218.113,68.773,213.337,74.664,213.337z"/>
</g>
<g>
	<path style="fill:#F58F00;" d="M74.664,213.337h95.996c5.891,0,10.667,4.776,10.667,10.667v0c0,5.891-4.776,10.667-10.667,10.667
		H74.664c-5.891,0-10.667-4.776-10.667-10.667v0C63.997,218.113,68.773,213.337,74.664,213.337z"/>
	<path style="fill:#F58F00;" d="M138.664,106.667H192c5.891,0,10.667,4.776,10.667,10.667l0,0c0,5.891-4.776,10.666-10.667,10.666
		h-53.336c-5.891,0-10.667-4.776-10.667-10.666l0,0C127.997,111.443,132.773,106.667,138.664,106.667z"/>
</g>
<g>
	<path style="fill:#F7B236;" d="M224.004,341.337L224.004,341.337c5.891,0,10.667,4.776,10.667,10.667v42.666
		c0,5.891-4.776,10.667-10.667,10.667l0,0c-5.891,0-10.667-4.776-10.667-10.667v-42.666
		C213.337,346.113,218.113,341.337,224.004,341.337z"/>
	<path style="fill:#F7B236;" d="M224.004,383.997h42.666c5.891,0,10.667,4.776,10.667,10.667l0,0
		c0,5.891-4.776,10.667-10.667,10.667h-42.666c-5.891,0-10.667-4.776-10.667-10.667l0,0
		C213.337,388.773,218.113,383.997,224.004,383.997z"/>
	<path style="fill:#F7B236;" d="M138.664,341.337H224c5.891,0,10.667,4.776,10.667,10.667l0,0c0,5.891-4.776,10.667-10.667,10.667
		h-85.336c-5.891,0-10.667-4.776-10.667-10.667l0,0C127.997,346.113,132.773,341.337,138.664,341.337z"/>
</g>
<path style="fill:#F58F00;" d="M138.664,341.337h63.996c5.891,0,10.667,4.776,10.667,10.667l0,0c0,5.891-4.776,10.667-10.667,10.667
	h-63.996c-5.891,0-10.667-4.776-10.667-10.667l0,0C127.997,346.113,132.773,341.337,138.664,341.337z"/>
<g>
	<path style="fill:#5628B4;" d="M341.33,21.334h21.334c11.782,0,21.333,9.551,21.333,21.333v42.664
		c0,11.782-9.551,21.333-21.333,21.333H341.33c-11.782,0-21.333-9.551-21.333-21.333V42.667
		C319.997,30.885,329.548,21.334,341.33,21.334z"/>
	<path style="fill:#5628B4;" d="M416.004,21.334h21.333c5.891,0,10.667,4.776,10.667,10.667l0,0c0,5.891-4.776,10.667-10.667,10.667
		h-21.333c-5.891,0-10.667-4.776-10.667-10.667l0,0C405.337,26.11,410.113,21.334,416.004,21.334z"/>
	<path style="fill:#5628B4;" d="M416,85.334c-5.891,0-10.667-4.776-10.667-10.667v0C405.334,68.776,410.109,64,416,64
		c5.891,0,10.667,4.776,10.667,10.667c0,0,0,0,0,0C426.667,80.558,421.891,85.334,416,85.334L416,85.334L416,85.334z"/>
	<path style="fill:#5628B4;" d="M330.664,362.667h42.666c5.891,0,10.667,4.776,10.667,10.667l0,0
		c0,5.891-4.776,10.667-10.667,10.667h-42.666c-5.891,0-10.667-4.776-10.667-10.667l0,0
		C319.997,367.443,324.773,362.667,330.664,362.667z"/>
	<path style="fill:#5628B4;" d="M330.664,405.337h63.996c5.891,0,10.667,4.776,10.667,10.667l0,0
		c0,5.891-4.776,10.667-10.667,10.667h-63.996c-5.891,0-10.667-4.776-10.667-10.667l0,0
		C319.997,410.113,324.773,405.337,330.664,405.337z"/>
	<path style="fill:#5628B4;" d="M416.004,362.667h21.333c5.891,0,10.667,4.776,10.667,10.667l0,0
		c0,5.891-4.776,10.667-10.667,10.667h-21.333c-5.891,0-10.667-4.776-10.667-10.667l0,0
		C405.337,367.443,410.113,362.667,416.004,362.667z"/>
</g>
<path style="fill:#F2EDF9;" d="M330.664,255.997H437.33c5.891,0,10.667,4.776,10.667,10.667l0,0c0,5.891-4.776,10.667-10.667,10.667
	H330.664c-5.891,0-10.667-4.776-10.667-10.667l0,0C319.997,260.773,324.773,255.997,330.664,255.997z"/>
<circle style="fill:#E7455F;" cx="351.997" cy="266.667" r="10.667"/>
<path style="fill:#F7B236;" d="M362.667,192v42.667l42.667-21.333L362.667,192z"/>
<path style="fill:#3A0499;" d="M458.667,213.334c-5.891,0-10.667,4.775-10.667,10.666c0,0,0,0,0,0.001v32
	c0,11.782-9.551,21.333-21.333,21.333H352c-5.891,0-10.667,4.776-10.667,10.667c0,5.891,4.776,10.667,10.667,10.667h74.667
	c23.564,0,42.666-19.103,42.667-42.667v-32C469.334,218.109,464.559,213.334,458.667,213.334
	C458.667,213.334,458.667,213.334,458.667,213.334L458.667,213.334z"/>
<g>
</g>
<g>
</g>
<g>
</g>
<g>
</g>
<g>
</g>
<g>
</g>
<g>
</g>
<g>
</g>
<g>
</g>
<g>
</g>
<g>
</g>
<g>
</g>
<g>
</g>
<g>
</g>
<g>
</g>
</svg>
