<?xml version="1.0" encoding="iso-8859-1"?>
<!-- Generator: Adobe Illustrator 19.0.0, SVG Export Plug-In . SVG Version: 6.00 Build 0)  -->
<svg version="1.1" id="Capa_1" xmlns="http://www.w3.org/2000/svg" xmlns:xlink="http://www.w3.org/1999/xlink" x="0px" y="0px"
	 viewBox="0 0 469.337 469.337" style="enable-background:new 0 0 469.337 469.337;" xml:space="preserve">
<path style="fill:#F9CFD5;" d="M192,64h64c23.564,0,42.667,19.102,42.667,42.667c0,0,0,0,0,0l0,0H192l0,0V64L192,64z"/>
<path style="fill:#F7B7C1;" d="M298.67,85.337h85.334c11.782,0,21.333,9.551,21.333,21.333v0.001
	c0,11.782-9.551,21.333-21.333,21.333H298.67c-11.782,0-21.333-9.551-21.333-21.333v-0.001
	C277.337,94.888,286.888,85.337,298.67,85.337z"/>
<path style="fill:#FBDCE0;" d="M298.67,85.337h64.004c11.782,0,21.333,9.551,21.333,21.333v0.001
	c0,11.782-9.551,21.333-21.333,21.333H298.67c-11.782,0-21.333-9.551-21.333-21.333v-0.001
	C277.337,94.888,286.888,85.337,298.67,85.337z"/>
<g>
	<path style="fill:#F9CBD1;" d="M309.333,85.337L309.333,85.337c5.891,0,10.667,4.776,10.667,10.667v21.333
		c0,5.891-4.776,10.667-10.667,10.667l0,0c-5.891,0-10.667-4.776-10.667-10.667V96.004
		C298.667,90.113,303.443,85.337,309.333,85.337z"/>
	<path style="fill:#F9CBD1;" d="M352.004,85.337L352.004,85.337c5.891,0,10.667,4.776,10.667,10.667v21.333
		c0,5.891-4.776,10.667-10.667,10.667l0,0c-5.891,0-10.667-4.776-10.667-10.667V96.004
		C341.337,90.113,346.113,85.337,352.004,85.337z"/>
</g>
<path style="fill:#E01334;" d="M42.667,106.667h383.996c23.564,0,42.667,19.103,42.667,42.667V362.67
	c0,23.564-19.103,42.667-42.667,42.667H42.667C19.103,405.337,0,386.234,0,362.67V149.334C0,125.77,19.103,106.667,42.667,106.667z"
	/>
<path style="fill:#E7455F;" d="M42.667,106.667h298.666c23.564,0,42.667,19.103,42.667,42.667V362.67
	c0,23.564-19.103,42.667-42.667,42.667H42.667C19.103,405.337,0,386.234,0,362.67V149.334C0,125.77,19.103,106.667,42.667,106.667z"
	/>
<path style="fill:#F9CFD5;" d="M469.334,192H0v-85.333C0,83.103,19.103,64,42.667,64l0,0H192c23.564,0,42.667,19.102,42.667,42.667
	c0,0,0,0,0,0H320h106.667c23.564,0,42.667,19.103,42.667,42.667v0L469.334,192z"/>
<path style="fill:#FCE7EA;" d="M384,192H0v-85.333C0,83.103,19.103,64,42.667,64l0,0H192c23.564,0,42.667,19.102,42.667,42.667
	c0,0,0,0,0,0h106.667c23.564,0,42.667,19.103,42.667,42.667v0V192z"/>
<path style="fill:#F7B236;" d="M42.667,85.337h128.004c11.782,0,21.333,9.551,21.333,21.333v42.664
	c0,11.782-9.551,21.333-21.333,21.333H42.667c-11.782,0-21.333-9.551-21.333-21.333V106.67
	C21.334,94.888,30.885,85.337,42.667,85.337z"/>
<path style="fill:#F9CFD5;" d="M0,362.667h469.333l0,0c0,23.564-19.102,42.667-42.667,42.667c0,0,0,0,0,0h-384
	C19.103,405.334,0,386.231,0,362.667C0,362.667,0,362.667,0,362.667C0,362.667,0,362.667,0,362.667z"/>
<path style="fill:#FCE7EA;" d="M0,362.667h384l0,0c0,23.564-19.102,42.667-42.667,42.667c0,0,0,0,0,0H42.667
	C19.103,405.333,0,386.231,0,362.667C0,362.667,0,362.667,0,362.667C0,362.667,0,362.667,0,362.667z"/>
<circle style="fill:#5329B4;" cx="213.337" cy="255.997" r="128"/>
<circle style="fill:#3D068C;" cx="213.337" cy="255.997" r="106.67"/>
<path style="fill:#6742BD;" d="M170.667,362.667c58.91,0.025,106.687-47.711,106.712-106.621s-47.711-106.687-106.621-106.712
	c-0.03,0-0.061,0-0.091,0H128C69.09,149.334,21.334,197.09,21.334,256S69.09,362.667,128,362.667H170.667z"/>
<circle style="fill:#815EC7;" cx="127.997" cy="255.997" r="106.67"/>
<path style="fill:#A288D6;" d="M202.92,275.756c-7.792-0.01-14.978,4.203-18.775,11.008l-0.342,0.614
	c-5.729,10.311-2.069,23.312,8.197,29.121c10.141,5.743,23.016,2.216,28.815-7.893c0.048-0.085,0.098-0.174,0.146-0.258l0,0
	l0.064-0.113l0.02-0.035l0.05-0.089l0.028-0.049l0.041-0.074l0.029-0.051l0.044-0.079l0.02-0.036l0.056-0.1l0.011-0.02l0.06-0.108
	l0.014-0.025l0.056-0.101l0.022-0.04l0.03-0.054c0.058-0.106,0.117-0.213,0.175-0.319c5.545-10.349,1.651-23.233-8.698-28.779
	C209.886,276.618,206.43,275.752,202.92,275.756L202.92,275.756z M128,149.333h-0.118l-0.028,0l-0.117,0h-0.012l-0.107,0l-0.028,0
	l-0.114,0h-0.022l-0.102,0.001l-0.023,0l-0.116,0.001l-0.025,0l-0.101,0.001l-0.023,0l-0.115,0.001l-0.027,0l-0.103,0.001l-0.016,0
	l-0.118,0.001l-0.024,0l-0.114,0.001h-0.006l-0.117,0.002l-0.03,0l-0.111,0.002l-0.005,0l-0.115,0.002l-0.032,0.001l-0.113,0.002
	l-0.015,0l-0.103,0.002l-0.031,0l-0.112,0.002l-0.023,0l-0.097,0.002l-0.03,0.001l-0.113,0.002l-0.024,0.001l-0.099,0.002
	l-0.026,0.001l-0.116,0.003l-0.022,0l-0.101,0.003l-0.023,0.001l-0.114,0.003l-0.027,0.001l-0.1,0.003l-0.022,0.001l-0.113,0.003
	l-0.029,0.001l-0.114,0.004l-0.002,0l-0.117,0.004l-0.029,0.001l-0.114,0.004l-0.013,0l-0.106,0.004l-0.03,0.001l-0.113,0.004
	l-0.017,0.001l-0.102,0.004l-0.027,0.001l-0.113,0.004l-0.026,0.001l-0.095,0.004l-0.029,0.001l-0.113,0.005l-0.024,0.001
	l-0.102,0.004l-0.02,0.001l-0.114,0.005l-0.026,0.001l-0.104,0.005l-0.016,0.001L123,149.449l-0.027,0.001l-0.11,0.005l-0.007,0
	l-0.115,0.006l-0.03,0.001l-0.115,0.006h-0.001l-0.117,0.006l-0.026,0.001l-0.116,0.006l-0.013,0.001l-0.102,0.006l-0.031,0.002
	l-0.111,0.006l-0.025,0.001l-0.094,0.005l-0.03,0.002l-0.112,0.007l-0.024,0.001l-0.093,0.005l-0.032,0.002l-0.108,0.007
	l-0.031,0.002l-0.092,0.006l-0.027,0.002l-0.11,0.007l-0.031,0.002l-0.101,0.006l-0.015,0.001l-0.113,0.007l-0.03,0.002
	l-0.108,0.007l-0.012,0.001l-0.109,0.007l-0.032,0.002l-0.109,0.007l-0.023,0.002l-0.094,0.006l-0.031,0.002l-0.11,0.008
	l-0.028,0.002l-0.091,0.007l-0.032,0.002l-0.108,0.008l-0.028,0.002l-0.093,0.007l-0.026,0.002l-0.111,0.008l-0.029,0.002
	l-0.096,0.007l-0.023,0.002l-0.109,0.008l-0.036,0.003l-0.093,0.007l-0.02,0.001l-0.11,0.009l-0.033,0.003l-0.101,0.008
	l-0.016,0.001l-0.109,0.009l-0.033,0.003l-0.109,0.009l-0.019,0.002l-0.094,0.008l-0.036,0.003l-0.106,0.009l-0.029,0.002
	l-0.087,0.008l-0.035,0.003l-0.108,0.009l-0.027,0.002l-0.09,0.008l-0.031,0.003l-0.108,0.01l-0.029,0.003l-0.091,0.008
	l-0.029,0.003l-0.108,0.01l-0.03,0.003l-0.099,0.009l-0.017,0.002l-0.111,0.011l-0.031,0.003l-0.096,0.009l-0.022,0.002l-0.11,0.011
	l-0.029,0.003l-0.113,0.011l-0.009,0.001l-0.107,0.011l-0.026,0.003l-0.113,0.012l-0.017,0.002l-0.1,0.01l-0.028,0.003l-0.111,0.012
	l-0.023,0.002l-0.096,0.01l-0.027,0.003l-0.109,0.012l-0.028,0.003l-0.095,0.01l-0.023,0.002l-0.11,0.012l-0.031,0.003l-0.093,0.01
	l-0.022,0.002l-0.109,0.012l-0.034,0.004l-0.098,0.011l-0.016,0.002l-0.11,0.013l-0.033,0.004l-0.1,0.012l-0.026,0.003l-0.093,0.011
	l-0.041,0.005l-0.105,0.012l-0.023,0.003l-0.089,0.011l-0.037,0.004l-0.105,0.013l-0.026,0.003l-0.088,0.011l-0.034,0.004
	l-0.107,0.013l-0.028,0.003l-0.089,0.011l-0.032,0.004l-0.106,0.013l-0.032,0.004l-0.088,0.011l-0.027,0.003l-0.106,0.014
	l-0.034,0.004l-0.091,0.012l-0.022,0.003l-0.109,0.014l-0.031,0.004l-0.094,0.012l-0.032,0.004l-0.096,0.013l-0.033,0.004
	l-0.105,0.014l-0.026,0.003l-0.088,0.012l-0.036,0.005l-0.103,0.014l-0.034,0.005l-0.08,0.011l-0.037,0.005l-0.103,0.014
	l-0.032,0.004l-0.085,0.012l-0.033,0.005l-0.103,0.014l-0.038,0.005l-0.082,0.012l-0.03,0.004l-0.104,0.015l-0.036,0.005
	l-0.085,0.012l-0.028,0.004l-0.102,0.015l-0.041,0.006l-0.084,0.012l-0.032,0.005l-0.095,0.014l-0.039,0.006l-0.094,0.014
	l-0.034,0.005l-0.085,0.013l-0.04,0.006l-0.103,0.016l-0.028,0.004l-0.083,0.013l-0.038,0.006l-0.101,0.016l-0.038,0.006
	l-0.073,0.011l-0.044,0.007l-0.096,0.015l-0.043,0.007l-0.071,0.011l-0.039,0.006l-0.099,0.016l-0.042,0.007l-0.07,0.011
	l-0.046,0.007l-0.094,0.015l-0.042,0.007l-0.078,0.013l-0.041,0.007l-0.092,0.015l-0.04,0.007l-0.084,0.014l-0.047,0.008
	l-0.081,0.014l-0.039,0.007l-0.101,0.017l-0.032,0.005l-0.077,0.013l-0.042,0.007l-0.098,0.017l-0.038,0.007l-0.075,0.013
	l-0.04,0.007l-0.097,0.017l-0.044,0.008l-0.068,0.012l-0.041,0.007l-0.095,0.017l-0.047,0.008l-0.069,0.012l-0.039,0.007l-0.1,0.018
	l-0.039,0.007l-0.077,0.014l-0.04,0.007l-0.09,0.016l-0.045,0.008l-0.079,0.014l-0.046,0.008l-0.082,0.015l-0.042,0.008
	l-0.095,0.018l-0.035,0.007l-0.075,0.014l-0.045,0.008l-0.095,0.018l-0.04,0.007l-0.072,0.014l-0.04,0.008l-0.1,0.019l-0.034,0.007
	l-0.077,0.015l-0.037,0.007l-0.098,0.019l-0.04,0.008l-0.072,0.014l-0.039,0.008l-0.097,0.019l-0.042,0.008l-0.068,0.013
	l-0.055,0.011l-0.081,0.016l-0.044,0.009l-0.077,0.015l-0.048,0.009l-0.083,0.017l-0.041,0.008l-0.087,0.018l-0.042,0.008
	l-0.077,0.016l-0.04,0.008l-0.098,0.02l-0.035,0.007l-0.078,0.016l-0.038,0.008l-0.097,0.02l-0.04,0.008l-0.071,0.015l-0.039,0.008
	l-0.097,0.02l-0.042,0.009l-0.071,0.015l-0.039,0.008l-0.096,0.02l-0.044,0.009l-0.069,0.014l-0.038,0.008l-0.096,0.02l-0.043,0.009
	l-0.077,0.016l-0.046,0.01l-0.079,0.017l-0.049,0.011l-0.076,0.016l-0.051,0.011l-0.071,0.015l-0.047,0.01l-0.081,0.018
	l-0.054,0.012l-0.065,0.014l-0.048,0.011l-0.093,0.021l-0.04,0.009l-0.067,0.015l-0.044,0.01l-0.092,0.021l-0.047,0.011
	l-0.059,0.013l-0.049,0.011l-0.089,0.02l-0.05,0.012l-0.058,0.013l-0.046,0.01l-0.092,0.021l-0.046,0.011l-0.064,0.015l-0.07,0.016
	l-0.064,0.015l-0.052,0.012l-0.061,0.014l-0.075,0.018l-0.056,0.013l-0.055,0.013l-0.055,0.013l-0.085,0.02l-0.051,0.012
	l-0.055,0.013l-0.065,0.015l-0.074,0.018l-0.051,0.012l-0.052,0.013l-0.088,0.021l-0.052,0.013l-0.054,0.013l-0.051,0.012
	l-0.09,0.022l-0.048,0.012l-0.057,0.014l-0.061,0.015l-0.074,0.018l-0.056,0.014l-0.052,0.013l-0.08,0.02l-0.056,0.014l-0.056,0.014
	l-0.055,0.014l-0.075,0.019l-0.057,0.014l-0.056,0.014l-0.056,0.014l-0.08,0.02l-0.053,0.014l-0.055,0.014l-0.058,0.015l-0.08,0.021
	l-0.047,0.012l-0.055,0.014l-0.087,0.022l-0.05,0.013l-0.054,0.014l-0.052,0.013l-0.088,0.023l-0.049,0.013l-0.056,0.014
	l-0.055,0.014l-0.083,0.022l-0.049,0.013l-0.058,0.015l-0.069,0.018l-0.065,0.017l-0.054,0.014l-0.049,0.013l-0.092,0.025
	l-0.045,0.012l-0.057,0.015l-0.05,0.014l-0.086,0.023l-0.051,0.014l-0.056,0.015l-0.048,0.013l-0.091,0.025l-0.046,0.013
	l-0.056,0.015l-0.052,0.014l-0.09,0.025l-0.042,0.012l-0.06,0.017l-0.025,0.007l-0.116,0.032l-0.038,0.011l-0.099,0.027
	l-0.042,0.012l-0.058,0.016l-0.047,0.013l-0.089,0.025l-0.048,0.014l-0.057,0.016l-0.052,0.015l-0.071,0.02l-0.062,0.018
	l-0.055,0.016l-0.046,0.013l-0.097,0.028l-0.039,0.011l-0.063,0.018l-0.033,0.009l-0.106,0.031l-0.039,0.011l-0.06,0.017
	l-0.044,0.013l-0.1,0.029l-0.033,0.01c-0.069,0.02-0.137,0.04-0.206,0.06l-0.033,0.01l-0.124,0.037l-0.017,0.005l-0.062,0.018
	l-0.035,0.01l-0.128,0.038l-0.011,0.003l-0.067,0.02l-0.031,0.009l-0.114,0.034l-0.027,0.008l-0.065,0.02l-0.029,0.009l-0.109,0.033
	l-0.037,0.011l-0.061,0.019l-0.031,0.009l-0.111,0.034l-0.034,0.01l-0.062,0.019l-0.032,0.01l-0.109,0.034l-0.036,0.011
	l-0.061,0.019l-0.042,0.013l-0.096,0.03l-0.037,0.012l-0.203,0.064l-0.032,0.01l-0.122,0.039l-0.018,0.006l-0.066,0.021
	l-0.029,0.009l-0.134,0.043l-0.004,0.001l-0.073,0.023l-0.017,0.006l-0.129,0.041l-0.019,0.006l-0.071,0.023l-0.013,0.004
	l-0.129,0.042l-0.024,0.008l-0.067,0.022l-0.023,0.007l-0.119,0.039l-0.027,0.009c-0.071,0.023-0.144,0.047-0.216,0.071
	l-0.014,0.005c-0.071,0.023-0.143,0.047-0.214,0.071l-0.027,0.009l-0.209,0.07l-0.023,0.008c-0.045,0.015-0.084,0.028-0.129,0.043
	l-0.014,0.005l-0.068,0.023l-0.024,0.008l-0.116,0.039l-0.03,0.01l-0.065,0.022l-0.019,0.006l-0.129,0.044l-0.018,0.006
	l-0.069,0.023l-0.017,0.006l-0.126,0.043l-0.024,0.008l-0.21,0.072l-0.022,0.008c-0.071,0.024-0.139,0.048-0.21,0.073l-0.025,0.009
	l-0.211,0.074l-0.019,0.007l-0.14,0.049l-0.002,0.001l-0.07,0.025l-0.02,0.007l-0.132,0.047l-0.01,0.004l-0.072,0.026l-0.01,0.004
	l-0.137,0.049l-0.012,0.004l-0.071,0.026l-0.01,0.004l-0.141,0.051l-0.007,0.003c-0.074,0.027-0.149,0.054-0.222,0.081l-0.009,0.003
	c-0.073,0.027-0.141,0.051-0.214,0.078l-0.023,0.008c-0.07,0.026-0.14,0.051-0.21,0.077l-0.02,0.007l-0.214,0.079l-0.01,0.004
	l-0.139,0.052l-0.01,0.004l-0.072,0.027l-0.008,0.003l-0.144,0.054l-0.004,0.002l-0.074,0.028l-0.007,0.003l-0.141,0.053
	l-0.009,0.004c-0.076,0.029-0.145,0.055-0.221,0.084l-0.007,0.003c-0.076,0.029-0.145,0.055-0.221,0.084l-0.009,0.003
	c-0.076,0.029-0.143,0.055-0.219,0.084l-0.01,0.004c-0.073,0.028-0.146,0.056-0.219,0.085l-0.008,0.003
	c-0.073,0.028-0.149,0.058-0.222,0.087l-0.001,0c-0.076,0.03-0.15,0.059-0.226,0.089l-0.003,0.001l-0.145,0.057l-0.005,0.002
	c-0.076,0.03-0.149,0.059-0.224,0.089l-0.001,0c-0.072,0.029-0.149,0.059-0.221,0.089l-0.009,0.004
	c-0.151,0.061-0.296,0.119-0.446,0.18l-0.005,0.002c-0.075,0.031-0.147,0.06-0.223,0.091l-0.001,0
	c-0.075,0.031-0.148,0.061-0.223,0.092l-0.005,0.002l-0.146,0.061l0,0c-0.072,0.03-0.148,0.061-0.22,0.091l-0.008,0.003
	c-0.072,0.03-0.141,0.059-0.213,0.089l-0.017,0.007l-0.21,0.088l-0.015,0.006c-0.069,0.029-0.141,0.06-0.21,0.089l-0.015,0.007
	c-0.072,0.03-0.141,0.06-0.213,0.091l-0.007,0.003c-0.075,0.032-0.143,0.061-0.217,0.093l-0.007,0.003
	c-0.121,0.052-0.243,0.105-0.364,0.157l-0.005,0.002c-0.074,0.032-0.143,0.062-0.218,0.095l-0.006,0.003
	c-26.019,11.407-46.436,32.691-56.75,59.162c-4.242,10.992,1.231,23.341,12.223,27.583c10.973,4.234,23.303-1.212,27.564-12.175
	c9.487-24.676,33.242-40.916,59.678-40.8c18.932-0.013,36.896,8.369,49.05,22.885c7.577,9.023,21.033,10.195,30.056,2.619
	s10.195-21.033,2.619-30.056c-15.911-18.99-37.942-31.844-62.304-36.351l-0.001,0l-0.089-0.016l-0.004-0.001
	c-0.243-0.045-0.484-0.088-0.728-0.131l-0.003,0l-0.088-0.015l-0.004-0.001l-0.085-0.015l-0.007-0.001
	c-0.183-0.032-0.363-0.063-0.547-0.094l-0.002,0l-0.089-0.015l-0.003,0l-0.088-0.015l-0.004-0.001
	c-0.184-0.031-0.365-0.061-0.549-0.09l-0.001,0l-0.089-0.014l-0.004-0.001l-0.087-0.014l-0.006-0.001l-0.088-0.014l-0.003,0
	l-0.088-0.014l-0.004-0.001c-0.184-0.029-0.366-0.057-0.55-0.085l-0.003,0l-0.087-0.013l-0.006-0.001l-0.086-0.013l-0.005-0.001
	c-0.183-0.027-0.365-0.055-0.548-0.081l-0.01-0.001l-0.081-0.012l-0.01-0.001l-0.08-0.012l-0.012-0.002l-0.08-0.011l-0.012-0.002
	l-0.078-0.011l-0.014-0.002c-0.119-0.017-0.244-0.034-0.364-0.051l-0.012-0.002l-0.078-0.011l-0.017-0.002l-0.074-0.01l-0.017-0.002
	l-0.073-0.01l-0.019-0.002l-0.072-0.01l-0.019-0.002l-0.083-0.011l-0.005-0.001c-0.093-0.012-0.183-0.024-0.276-0.036l-0.007-0.001
	l-0.083-0.011l-0.016-0.002l-0.073-0.009l-0.021-0.003l-0.07-0.009l-0.021-0.003l-0.069-0.009l-0.022-0.003l-0.075-0.009
	l-0.014-0.002l-0.078-0.01l-0.013-0.002c-0.091-0.011-0.181-0.023-0.272-0.034l-0.018-0.002l-0.072-0.009l-0.024-0.003l-0.065-0.008
	l-0.026-0.003l-0.064-0.008l-0.028-0.003l-0.061-0.007l-0.028-0.003l-0.066-0.008l-0.023-0.003l-0.078-0.009l-0.011-0.001
	l-0.184-0.021l-0.005,0l-0.085-0.01l-0.017-0.002l-0.072-0.008l-0.025-0.003l-0.062-0.007l-0.033-0.004l-0.059-0.007l-0.03-0.003
	l-0.06-0.007l-0.031-0.003l-0.064-0.007l-0.026-0.003l-0.066-0.007l-0.024-0.003l-0.182-0.02l-0.006-0.001l-0.084-0.009
	l-0.019-0.002l-0.069-0.007l-0.026-0.003l-0.066-0.007l-0.023-0.002l-0.068-0.007l-0.023-0.002l-0.072-0.007l-0.017-0.002
	l-0.078-0.008l-0.013-0.001c-0.092-0.009-0.185-0.019-0.277-0.028l-0.006,0l-0.083-0.008l-0.021-0.002l-0.07-0.007l-0.023-0.002
	l-0.066-0.007l-0.027-0.003l-0.067-0.007l-0.022-0.002l-0.071-0.007l-0.02-0.002l-0.082-0.008l-0.008-0.001
	c-0.092-0.009-0.184-0.017-0.276-0.026l-0.02-0.002l-0.069-0.006l-0.029-0.003l-0.06-0.005l-0.032-0.003l-0.061-0.006l-0.027-0.002
	l-0.066-0.006l-0.026-0.002l-0.067-0.006l-0.022-0.002l-0.071-0.006l-0.02-0.002l-0.179-0.015l-0.032-0.003l-0.061-0.005
	l-0.026-0.002l-0.065-0.006l-0.027-0.002l-0.066-0.006l-0.027-0.002l-0.06-0.005l-0.034-0.003l-0.06-0.005l-0.029-0.002
	l-0.063-0.005l-0.028-0.002l-0.068-0.005l-0.023-0.002l-0.181-0.014l-0.017-0.001l-0.075-0.006l-0.023-0.002l-0.065-0.005
	l-0.032-0.002l-0.057-0.004l-0.036-0.003l-0.054-0.004l-0.036-0.003l-0.054-0.004l-0.039-0.003l-0.049-0.003l-0.04-0.003
	l-0.05-0.004l-0.042-0.003l-0.176-0.012l-0.034-0.002l-0.057-0.004l-0.037-0.002l-0.051-0.003l-0.042-0.003l-0.051-0.003
	l-0.037-0.002l-0.054-0.003l-0.036-0.002l-0.057-0.004l-0.034-0.002l-0.056-0.004l-0.035-0.002l-0.062-0.004l-0.029-0.002
	l-0.084-0.005l-0.035-0.002l-0.06-0.004l-0.034-0.002l-0.056-0.003l-0.04-0.002l-0.05-0.003l-0.041-0.002l-0.049-0.003l-0.042-0.002
	l-0.049-0.003l-0.04-0.002l-0.05-0.003l-0.042-0.002l-0.051-0.003l-0.038-0.002l-0.061-0.003l-0.03-0.002l-0.09-0.005l-0.02-0.001
	l-0.069-0.004l-0.032-0.002l-0.062-0.003l-0.027-0.001l-0.064-0.003l-0.029-0.001l-0.064-0.003l-0.03-0.002l-0.057-0.003
	l-0.036-0.002l-0.059-0.003l-0.031-0.001l-0.071-0.003l-0.018-0.001l-0.088-0.004l-0.005,0l-0.092-0.004l-0.019-0.001l-0.073-0.003
	l-0.025-0.001l-0.066-0.003l-0.032-0.001l-0.058-0.003l-0.035-0.001l-0.054-0.002l-0.039-0.002l-0.054-0.002l-0.035-0.001
	l-0.057-0.002l-0.035-0.001l-0.065-0.003l-0.024-0.001l-0.088-0.003l-0.004,0l-0.093-0.004l-0.014,0l-0.075-0.003l-0.033-0.001
	l-0.058-0.002l-0.037-0.001l-0.052-0.002l-0.04-0.001l-0.055-0.002l-0.035-0.001l-0.055-0.002l-0.036-0.001l-0.059-0.002
	l-0.031-0.001l-0.069-0.002l-0.021-0.001l-0.092-0.003l-0.013,0l-0.078-0.002l-0.033-0.001l-0.058-0.002l-0.037-0.001l-0.053-0.002
	l-0.043-0.001l-0.047-0.001l-0.043-0.001l-0.049-0.001l-0.041-0.001l-0.055-0.001l-0.033-0.001l-0.063-0.002l-0.03-0.001
	l-0.074-0.002l-0.016,0l-0.093-0.002l-0.012,0l-0.08-0.002l-0.029-0.001l-0.059-0.001l-0.042-0.001l-0.05-0.001l-0.04-0.001
	l-0.054-0.001l-0.035-0.001l-0.056-0.001l-0.038-0.001l-0.049-0.001l-0.043-0.001l-0.054-0.001l-0.035-0.001l-0.074-0.001l-0.017,0
	l-0.092-0.001l-0.024,0l-0.066-0.001l-0.037,0l-0.056-0.001l-0.032,0l-0.062-0.001l-0.033,0l-0.058-0.001l-0.036,0l-0.055-0.001
	l-0.039,0l-0.054,0l-0.036,0l-0.06-0.001l-0.032,0l-0.075-0.001l-0.016,0l-0.089-0.001l-0.035,0l-0.058,0l-0.035,0l-0.055,0
	l-0.039,0l-0.053,0l-0.04,0l-0.049,0l-0.043,0l-0.052,0l-0.038,0l-0.055,0h-0.094l-0.036,0L128,149.333z"/>
<circle style="fill:#3D068C;" cx="127.997" cy="255.997" r="64"/>
<path style="fill:#2B0071;" d="M128,192c-35.346,0-64,28.654-64,64l0,0.099l0,0.035l0,0.065l0,0.04l0,0.059l0,0.042l0,0.057l0,0.044
	l0,0.055l0,0.044l0,0.056l0,0.043l0.001,0.058l0,0.041l0.001,0.057l0.001,0.044l0.001,0.059l0.001,0.038l0.001,0.076l0,0.023
	l0.002,0.1l0,0.021l0.001,0.077l0.001,0.039l0.001,0.061l0.001,0.04l0.001,0.059l0.001,0.042l0.001,0.058l0.001,0.042l0.001,0.055
	l0.001,0.045l0.001,0.056l0.001,0.042l0.002,0.06l0.001,0.039l0.002,0.064l0.001,0.035l0.002,0.068l0.001,0.031
	c0.002,0.066,0.004,0.132,0.007,0.198l0.001,0.026l0.003,0.072l0.001,0.037l0.002,0.06l0.002,0.044l0.002,0.055l0.002,0.042
	l0.002,0.057l0.002,0.041l0.002,0.058l0.002,0.041l0.002,0.057l0.002,0.043l0.003,0.061l0.002,0.036l0.003,0.068l0.001,0.031
	l0.004,0.081l0.001,0.017l0.005,0.098l0.002,0.031l0.003,0.068l0.002,0.035l0.003,0.062l0.002,0.039l0.003,0.06l0.002,0.039
	l0.003,0.058l0.002,0.041l0.003,0.059l0.002,0.04l0.003,0.059l0.002,0.04l0.004,0.059l0.002,0.04l0.004,0.058l0.003,0.04
	l0.004,0.062l0.002,0.036c0.004,0.066,0.009,0.13,0.013,0.196l0.002,0.024l0.005,0.074l0.002,0.034l0.004,0.063l0.003,0.038
	l0.004,0.059l0.003,0.042l0.004,0.056l0.003,0.042l0.004,0.056l0.003,0.044l0.004,0.054l0.003,0.042l0.005,0.058l0.003,0.039
	l0.005,0.065l0.003,0.031l0.006,0.078l0.002,0.02l0.008,0.098l0.001,0.016l0.007,0.08l0.003,0.033l0.006,0.066l0.003,0.035
	l0.005,0.061l0.003,0.039l0.005,0.06l0.003,0.036l0.006,0.062l0.003,0.035l0.006,0.065l0.003,0.033l0.006,0.063l0.003,0.035
	l0.006,0.066l0.003,0.031l0.007,0.074l0.002,0.023l0.01,0.096l0.001,0.007l0.009,0.092l0.003,0.034l0.007,0.064l0.004,0.034
	l0.007,0.064l0.004,0.036l0.006,0.06l0.004,0.038l0.006,0.059l0.004,0.039l0.006,0.06l0.004,0.036l0.007,0.062l0.004,0.036
	l0.007,0.064l0.004,0.033l0.008,0.066l0.004,0.031l0.01,0.091l0.001,0.005l0.012,0.099l0.001,0.008l0.01,0.089l0.003,0.025
	l0.008,0.071l0.004,0.033l0.008,0.065l0.004,0.032l0.008,0.064l0.004,0.034l0.008,0.063l0.004,0.034l0.008,0.062l0.005,0.036
	l0.008,0.064l0.004,0.031l0.009,0.069l0.004,0.028l0.01,0.077l0.002,0.019c0.009,0.067,0.017,0.129,0.026,0.196l0.001,0.01
	l0.012,0.086l0.003,0.024l0.01,0.072l0.004,0.028l0.009,0.068l0.004,0.032l0.009,0.065l0.004,0.031l0.009,0.066l0.005,0.032
	l0.009,0.065l0.005,0.031l0.01,0.066l0.004,0.031l0.011,0.074l0.003,0.021c0.014,0.095,0.029,0.195,0.044,0.29l0.004,0.027
	l0.011,0.069l0.005,0.029l0.01,0.067l0.005,0.031l0.01,0.066l0.005,0.031l0.01,0.064l0.005,0.033l0.011,0.066l0.005,0.029
	l0.012,0.071l0.004,0.023l0.013,0.079l0.003,0.016l0.014,0.088l0.001,0.009c0.016,0.099,0.032,0.194,0.049,0.292l0.002,0.014
	l0.014,0.08l0.004,0.025l0.012,0.071l0.004,0.026l0.012,0.071l0.005,0.027l0.012,0.069l0.005,0.027l0.012,0.069l0.005,0.027
	l0.013,0.075l0.003,0.018l0.016,0.088l0.001,0.007c0.023,0.129,0.048,0.259,0.072,0.388l0.003,0.016l0.015,0.078l0.004,0.024
	l0.013,0.07l0.005,0.027l0.013,0.07l0.005,0.025l0.014,0.071l0.005,0.025l0.014,0.072l0.005,0.023l0.015,0.078l0.003,0.016
	c0.019,0.096,0.039,0.194,0.058,0.29l0.001,0.003l0.018,0.09l0.004,0.021l0.015,0.074l0.005,0.024l0.015,0.072l0.005,0.023
	l0.015,0.072l0.005,0.023l0.015,0.073l0.005,0.023l0.016,0.074l0.004,0.021l0.016,0.076l0.004,0.019l0.019,0.087l0.001,0.006
	c0.021,0.097,0.042,0.193,0.063,0.29l0.001,0.004l0.02,0.091l0.003,0.012l0.018,0.08l0.005,0.021l0.017,0.075l0.004,0.02
	l0.017,0.075l0.005,0.021l0.017,0.076l0.004,0.019l0.018,0.077l0.004,0.018l0.02,0.088l0.001,0.004
	c0.03,0.129,0.06,0.257,0.091,0.385l0,0.001l0.022,0.092l0.003,0.011l0.02,0.083l0.004,0.016l0.019,0.078l0.005,0.019l0.019,0.077
	l0.004,0.015l0.021,0.083l0.003,0.01l0.023,0.091l0,0.002c0.04,0.16,0.08,0.318,0.121,0.478L66.017,272l0.023,0.088l0.002,0.008
	l0.022,0.085l0.003,0.012l0.021,0.082l0.003,0.013l0.022,0.083l0.003,0.011l0.024,0.089l0.001,0.003
	c0.059,0.223,0.119,0.442,0.18,0.664l0.002,0.006l0.025,0.089l0.001,0.004l0.025,0.09l0.001,0.005
	c0.08,0.285,0.161,0.567,0.245,0.851l0,0l0.027,0.09l0.002,0.007l0.026,0.089l0.001,0.004c0.066,0.22,0.132,0.438,0.2,0.657
	l0.001,0.003l0.029,0.091l0,0.002l0.028,0.09l0.002,0.007l0.028,0.088l0.001,0.003l0.029,0.091l0.001,0.002
	c7.467,23.415,27.67,40.496,52.001,43.964c5.837,0.796,11.214-3.292,12.009-9.129c0.792-5.814-3.26-11.177-9.07-12.001
	c-23.327-3.352-39.52-24.979-36.169-48.306c3.018-21.005,21.012-36.6,42.233-36.602c5.891,0,10.667-4.776,10.667-10.667
	S133.891,192,128,192L128,192z"/>
<circle style="fill:#BAA7E1;" cx="127.997" cy="255.997" r="21.333"/>
<path style="fill:#B30025;" d="M448,191.997L448,191.997c11.783,0,21.334,9.551,21.334,21.333v128.004
	c0,11.782-9.551,21.333-21.333,21.333H448c-11.782,0-21.333-9.551-21.333-21.333V213.33
	C426.667,201.548,436.218,191.997,448,191.997z"/>
<path style="fill:#E4324E;" d="M394.663,213.337L394.663,213.337c5.891,0,10.667,4.776,10.667,10.667V330.67
	c0,5.891-4.776,10.667-10.667,10.667l0,0c-5.891,0-10.667-4.776-10.667-10.667V224.004
	C383.997,218.113,388.773,213.337,394.663,213.337z"/>
<path style="fill:#EB677C;" d="M373.333,191.997L373.333,191.997c5.891,0,10.667,4.776,10.667,10.667V352
	c0,5.891-4.776,10.667-10.667,10.667l0,0c-5.891,0-10.667-4.776-10.667-10.667V202.664
	C362.667,196.773,367.443,191.997,373.333,191.997z"/>
<path style="fill:#E4314E;" d="M10.667,191.997L10.667,191.997c5.891,0,10.667,4.776,10.667,10.667V352
	c0,5.891-4.776,10.667-10.667,10.667l0,0C4.776,362.667,0,357.891,0,352V202.664C0,196.773,4.776,191.997,10.667,191.997z"/>
<path style="fill:#2F056C;" d="M261.177,163.652l-0.09-0.09l-0.034-0.034l-0.054-0.053c-0.061-0.061-0.118-0.118-0.179-0.178
	l-0.018-0.018c-0.061-0.061-0.127-0.126-0.188-0.186l-0.04-0.04l-0.038-0.038c-0.065-0.064-0.129-0.127-0.194-0.19l-0.009-0.009
	l-0.059-0.058c-4.187-4.084-10.889-4.009-14.983,0.168c-4.115,4.197-4.084,10.924,0.067,15.084l0.035,0.035l0.699,0.692
	c32.76,32.62,40.708,82.662,19.667,123.827c-0.078,0.152-0.151,0.305-0.221,0.46c-0.078,0.134-0.153,0.269-0.226,0.408l-0.455,0.864
	c-2.753,5.219-0.767,11.681,4.442,14.453c5.149,2.75,11.552,0.823,14.328-4.312c0.149-0.279,0.294-0.553,0.441-0.832l0.003-0.006
	l0.04-0.076l0.052-0.099l0.007-0.013l0.063-0.121l0.001-0.001l0.049-0.094c0.078-0.151,0.151-0.303,0.221-0.456
	c0.088-0.153,0.173-0.309,0.254-0.468c0.472-0.926,0.93-1.853,1.378-2.788l0.004-0.008c0.042-0.088,0.082-0.172,0.124-0.26
	l0.003-0.006c0.068-0.144,0.136-0.286,0.204-0.429l0.008-0.017c0.04-0.085,0.08-0.17,0.12-0.255l0.005-0.01l0.076-0.161l0.006-0.013
	l0.04-0.085l0.002-0.005l0.072-0.155l0.016-0.035c0.038-0.081,0.075-0.163,0.113-0.244l0.009-0.019l0.072-0.156l0.006-0.013
	c0.039-0.085,0.075-0.163,0.114-0.248l0.014-0.03l0.071-0.156l0.003-0.007l0.037-0.082l0.011-0.025l0.062-0.136l0.016-0.034
	l0.035-0.077l0.006-0.012l0.066-0.147l0.019-0.043l0.057-0.127l0.015-0.034l0.034-0.075l0.017-0.037l0.056-0.125l0.018-0.04
	l0.033-0.074l0.006-0.012l0.065-0.147l0.022-0.049l0.049-0.111l0.021-0.048l0.031-0.071l0.022-0.05l0.048-0.109l0.021-0.048
	l0.036-0.083l0.035-0.08l0.028-0.064l0.026-0.06l0.041-0.095l0.027-0.062l0.027-0.063l0.033-0.078l0.035-0.081l0.025-0.058
	l0.027-0.062l0.042-0.097l0.026-0.062l0.028-0.065l0.04-0.094l0.025-0.059l0.028-0.066l0.041-0.097l0.024-0.057l0.028-0.067
	l0.026-0.062l0.04-0.096l0.024-0.056l0.032-0.077l0.033-0.079l0.029-0.07l0.024-0.057l0.042-0.101l0.024-0.058l0.027-0.065
	l0.031-0.076l0.033-0.08l0.025-0.06l0.033-0.081l0.029-0.071l0.031-0.075l0.022-0.053l0.044-0.108l0.019-0.046l0.035-0.086
	l0.019-0.047l0.043-0.106l0.017-0.042l0.047-0.115l0.014-0.036l0.038-0.093l0.017-0.041l0.045-0.113l0.018-0.044l0.038-0.096
	l0.014-0.035l0.044-0.111l0.016-0.041l0.047-0.117l0.013-0.033l0.038-0.095l0.016-0.041l0.045-0.115l0.016-0.039l0.041-0.104
	l0.015-0.038l0.041-0.105l0.015-0.038l0.046-0.117l0.015-0.04l0.037-0.095l0.014-0.035l0.046-0.119l0.014-0.037l0.047-0.123
	l0.006-0.015l0.044-0.113l0.013-0.034l0.047-0.123l0.011-0.029l0.042-0.11l0.009-0.024l0.047-0.124l0.013-0.034l0.047-0.123
	l0.009-0.023l0.042-0.111l0.011-0.028l0.047-0.125l0.011-0.029l0.044-0.117l0.006-0.015l0.047-0.126l0.013-0.035l0.046-0.123
	l0.008-0.021l0.042-0.114l0.01-0.026l0.046-0.124l0.012-0.032l0.041-0.112l0.009-0.025l0.044-0.121l0.012-0.033l0.046-0.125
	l0.008-0.023l0.043-0.118l0.007-0.02l0.046-0.128l0.01-0.029c0.031-0.086,0.064-0.177,0.095-0.263l0.01-0.027l0.046-0.129
	l0.007-0.02l0.043-0.121l0.007-0.019l0.046-0.13l0.009-0.026l0.047-0.132l0.001-0.004l0.047-0.134l0.006-0.018l0.047-0.134
	l0.006-0.017c0.032-0.092,0.064-0.184,0.096-0.276l0.006-0.017c0.032-0.092,0.063-0.182,0.095-0.275l0.007-0.019l0.046-0.134
	l0.005-0.016c0.032-0.092,0.063-0.184,0.095-0.276l0.006-0.018l0.046-0.136l0.003-0.01l0.045-0.134l0.004-0.011l0.046-0.137
	l0.006-0.017c0.031-0.092,0.061-0.181,0.092-0.274l0.008-0.022l0.045-0.135l0.003-0.008l0.044-0.134l0.004-0.013l0.045-0.136
	l0.006-0.018c0.031-0.093,0.06-0.183,0.091-0.276l0.006-0.018l0.045-0.136l0.004-0.013l0.043-0.133l0.003-0.009l0.044-0.136
	l0.007-0.022c0.03-0.093,0.06-0.185,0.09-0.277l0.004-0.013l0.045-0.14l0.003-0.009l0.045-0.142l0-0.001l0.045-0.142l0.004-0.013
	c0.029-0.093,0.061-0.192,0.09-0.285l0.003-0.009l0.044-0.142l0.003-0.009c0.03-0.096,0.06-0.193,0.09-0.289l0.001-0.005
	c0.046-0.149,0.091-0.295,0.137-0.444l0-0.001c0.03-0.099,0.06-0.196,0.09-0.296l0.001-0.003
	c5.576-18.387,6.961-37.789,4.053-56.782l0,0c-0.359-2.346-0.783-4.681-1.272-7.005l-0.002-0.008
	c-0.085-0.405-0.171-0.804-0.26-1.208l-0.001-0.003c-0.022-0.101-0.044-0.199-0.066-0.3l0-0.002c-0.034-0.151-0.067-0.3-0.102-0.452
	l-0.001-0.003c-0.023-0.101-0.045-0.197-0.068-0.298l-0.001-0.004c-0.035-0.151-0.069-0.299-0.104-0.45
	c-0.001-0.004,0,0.001-0.001-0.003c-0.023-0.101-0.046-0.197-0.07-0.298l-0.001-0.005c-0.095-0.403-0.191-0.802-0.29-1.204
	l-0.001-0.003c-0.062-0.251-0.124-0.5-0.187-0.751c-0.001-0.004,0,0.001-0.001-0.003c-0.038-0.151-0.076-0.3-0.115-0.45l0,0
	c-0.064-0.251-0.129-0.499-0.195-0.75l-0.001-0.004c-0.026-0.1-0.052-0.198-0.079-0.298l0,0c-0.04-0.15-0.08-0.299-0.12-0.449
	l-0.001-0.003c-0.026-0.097-0.053-0.195-0.079-0.292l-0.003-0.011l-0.039-0.145l-0.001-0.004c-0.027-0.1-0.053-0.194-0.081-0.294
	l-0.002-0.007c-0.041-0.15-0.082-0.296-0.124-0.445l-0.001-0.002c-0.028-0.1-0.055-0.195-0.083-0.295l-0.002-0.005
	c-0.113-0.399-0.225-0.791-0.342-1.189l-0.003-0.01c-0.028-0.096-0.057-0.196-0.086-0.292l-0.001-0.002
	c-0.044-0.149-0.087-0.293-0.132-0.442l-0.003-0.009c-0.029-0.096-0.058-0.195-0.088-0.291l-0.001-0.004l-0.043-0.142l-0.004-0.014
	l-0.086-0.282l-0.004-0.014l-0.044-0.142l0,0l-0.044-0.144l-0.002-0.006l-0.043-0.141l-0.004-0.014
	c-0.029-0.093-0.058-0.186-0.087-0.279l-0.006-0.019l-0.042-0.134l-0.005-0.017l-0.041-0.13l-0.003-0.009l-0.043-0.137l-0.006-0.02
	l-0.088-0.276l-0.005-0.016c-0.015-0.046-0.03-0.093-0.045-0.139l-0.002-0.008c-0.03-0.093-0.062-0.192-0.092-0.285l-0.005-0.015
	c-0.03-0.093-0.061-0.189-0.091-0.281l-0.004-0.012l-0.046-0.14l-0.003-0.009c-0.03-0.093-0.062-0.189-0.093-0.282l-0.006-0.018
	c-0.031-0.093-0.062-0.188-0.093-0.281l-0.003-0.01l-0.047-0.14l-0.004-0.011c-0.031-0.092-0.064-0.19-0.095-0.282l-0.004-0.012
	l-0.048-0.142l0-0.001l-0.049-0.145l-0.001-0.004l-0.048-0.141l-0.004-0.012c-0.032-0.092-0.065-0.191-0.097-0.283l-0.003-0.009
	c-0.034-0.098-0.066-0.191-0.1-0.29l-0.001-0.002l-0.05-0.144l-0.002-0.006c-0.034-0.098-0.066-0.189-0.1-0.287l-0.003-0.007
	l-0.05-0.142l-0.002-0.007c-0.033-0.095-0.066-0.187-0.1-0.282l-0.006-0.017c-0.033-0.092-0.065-0.182-0.098-0.274l-0.007-0.019
	l-0.048-0.134l-0.005-0.015l-0.049-0.136l-0.001-0.002l-0.05-0.139l-0.006-0.015c-0.033-0.092-0.068-0.188-0.102-0.279l-0.004-0.01
	l-0.05-0.137l-0.005-0.014c-0.034-0.092-0.067-0.183-0.101-0.275l-0.007-0.019c-0.034-0.092-0.069-0.186-0.103-0.277l-0.004-0.01
	l-0.051-0.136l-0.006-0.016c-0.034-0.092-0.069-0.185-0.104-0.276l-0.005-0.014l-0.053-0.14l0-0.001l-0.054-0.142l-0.002-0.005
	l-0.051-0.135l-0.008-0.02c-0.035-0.091-0.069-0.182-0.104-0.273l-0.006-0.015l-0.053-0.138l-0.002-0.005
	c-0.019-0.049-0.035-0.092-0.054-0.14l-0.001-0.003l-0.053-0.138l-0.006-0.014c-0.035-0.091-0.072-0.185-0.107-0.276l-0.005-0.014
	l-0.053-0.136l-0.005-0.012l-0.108-0.275l-0.006-0.016c-0.036-0.091-0.073-0.184-0.109-0.275l-0.006-0.014l-0.054-0.136l-0.004-0.01
	c-0.036-0.091-0.074-0.184-0.11-0.275l-0.007-0.017l-0.054-0.134l-0.005-0.011l-0.054-0.133l-0.003-0.007l-0.056-0.139l-0.004-0.009
	c-0.037-0.091-0.075-0.186-0.113-0.277l-0.006-0.015l-0.056-0.137l-0.002-0.006l-0.056-0.136l-0.003-0.008l-0.056-0.135
	l-0.008-0.018c-0.037-0.091-0.074-0.178-0.111-0.269l-0.008-0.018l-0.055-0.133l-0.006-0.013l-0.056-0.133l-0.002-0.004
	c-0.019-0.045-0.037-0.089-0.056-0.134l-0.008-0.019c-0.038-0.09-0.075-0.178-0.113-0.268l-0.007-0.018l-0.055-0.13l-0.008-0.02
	l-0.053-0.125l-0.004-0.01l-0.057-0.132l-0.008-0.019l-0.057-0.134l-0.001-0.003l-0.057-0.133l-0.006-0.013l-0.057-0.132
	l-0.008-0.018c-0.039-0.09-0.077-0.178-0.116-0.268l-0.007-0.017l-0.058-0.133l-0.004-0.01l-0.055-0.125l-0.008-0.018l-0.056-0.129
	l-0.01-0.022c-0.039-0.09-0.077-0.176-0.117-0.265l-0.008-0.018l-0.058-0.13l-0.008-0.018l-0.055-0.123l-0.005-0.011l-0.057-0.129
	l-0.011-0.025c-0.037-0.084-0.078-0.175-0.116-0.259l-0.011-0.025l-0.057-0.127l-0.008-0.017l-0.056-0.125l-0.005-0.01l-0.059-0.13
	l-0.01-0.022c-0.02-0.045-0.039-0.086-0.059-0.13l-0.003-0.007l-0.058-0.127l-0.008-0.017l-0.059-0.129l-0.009-0.019l-0.06-0.131
	l0-0.001l-0.06-0.131l-0.011-0.023l-0.061-0.131l0-0.001c-0.021-0.045-0.042-0.09-0.062-0.134l-0.006-0.013l-0.061-0.131
	l-0.008-0.017l-0.062-0.132l0-0.001l-0.06-0.129l-0.012-0.025l-0.059-0.126l-0.007-0.016l-0.056-0.119l-0.009-0.019l-0.058-0.124
	l-0.014-0.03l-0.059-0.125l0-0.001l-0.061-0.127l-0.012-0.026l-0.06-0.126l-0.008-0.017l-0.057-0.12l-0.008-0.016l-0.061-0.126
	l-0.012-0.025l-0.062-0.128l-0.002-0.003l-0.06-0.124l-0.012-0.026l-0.059-0.123l-0.012-0.025l-0.056-0.115l-0.007-0.015
	l-0.061-0.125l-0.013-0.027l-0.062-0.127l-0.003-0.006l-0.059-0.121l-0.013-0.026l-0.06-0.123l-0.011-0.023l-0.058-0.116
	l-0.007-0.015l-0.06-0.121l-0.016-0.032l-0.059-0.119l-0.012-0.024l-0.052-0.103l-0.015-0.031l-0.059-0.117l-0.016-0.031
	l-0.057-0.113l-0.007-0.013l-0.061-0.121l-0.017-0.033l-0.06-0.119l-0.012-0.023l-0.055-0.108l-0.012-0.025l-0.062-0.123
	l-0.012-0.024l-0.062-0.122l-0.005-0.01l-0.062-0.121l-0.013-0.026l-0.062-0.121l-0.013-0.025l-0.056-0.109l-0.011-0.02
	l-0.062-0.121l-0.015-0.029l-0.064-0.124l-0.003-0.007l-0.063-0.121l-0.013-0.025l-0.064-0.123l-0.01-0.02l-0.06-0.115l-0.009-0.016
	l-0.066-0.125l-0.011-0.021l-0.067-0.128l-0.004-0.007l-0.064-0.122l-0.011-0.021l-0.065-0.124l-0.012-0.023l-0.063-0.118
	l-0.005-0.009l-0.066-0.123l-0.014-0.027l-0.065-0.122l-0.011-0.02l-0.056-0.105l-0.017-0.032l-0.063-0.117l-0.015-0.028
	l-0.063-0.116l-0.004-0.008l-0.066-0.123l-0.015-0.027l-0.065-0.12l-0.013-0.025l-0.056-0.104l-0.015-0.027l-0.064-0.118
	l-0.016-0.029L283,192.73l-0.004-0.008l-0.064-0.116l-0.018-0.033l-0.064-0.116l-0.015-0.027l-0.057-0.103l-0.014-0.025
	l-0.065-0.117l-0.017-0.031l-0.066-0.119l-0.007-0.013l-0.063-0.113l-0.014-0.026l-0.067-0.119l-0.015-0.027l-0.059-0.105
	l-0.012-0.022l-0.066-0.117l-0.018-0.033l-0.066-0.116l-0.011-0.02l-0.06-0.106l-0.015-0.027l-0.067-0.118l-0.016-0.027L282,190.939
	l-0.011-0.019l-0.068-0.119l-0.016-0.028l-0.068-0.119l-0.011-0.019l-0.062-0.109l-0.013-0.023l-0.067-0.117l-0.019-0.033
	l-0.062-0.108l-0.008-0.013l-0.069-0.119l-0.017-0.03l-0.068-0.118l-0.011-0.018l-0.064-0.11l-0.012-0.021l-0.07-0.12l-0.015-0.025
	l-0.072-0.123l-0.001-0.002l-0.072-0.122l-0.014-0.024l-0.07-0.12l-0.013-0.021l-0.067-0.114l-0.007-0.013l-0.072-0.123
	l-0.014-0.023l-0.073-0.123l-0.005-0.008l-0.068-0.115l-0.016-0.027c-0.024-0.04-0.047-0.078-0.07-0.118l-0.013-0.023l-0.067-0.112
	l-0.008-0.014l-0.071-0.119l-0.017-0.029l-0.07-0.117l-0.012-0.02l-0.063-0.104l-0.017-0.028l-0.07-0.115l-0.016-0.027l-0.07-0.116
	l-0.003-0.005l-0.074-0.121l-0.017-0.027l-0.072-0.118l-0.01-0.017l-0.068-0.11l-0.013-0.021l-0.073-0.119l-0.015-0.024
	l-0.073-0.119l-0.002-0.004l-0.074-0.12l-0.016-0.027l-0.073-0.118l-0.012-0.019l-0.068-0.109l-0.012-0.019l-0.073-0.118
	l-0.016-0.026c-0.049-0.079-0.103-0.164-0.152-0.243l-0.014-0.023l-0.076-0.12l-0.01-0.016l-0.07-0.111l-0.012-0.019l-0.075-0.118
	l-0.015-0.024l-0.077-0.121l-0.002-0.004l-0.076-0.121l-0.012-0.019l-0.076-0.119l-0.014-0.022l-0.072-0.113l-0.007-0.01
	l-0.078-0.121l-0.014-0.022l-0.079-0.123l-0.002-0.003l-0.076-0.119l-0.014-0.022l-0.077-0.119l-0.012-0.019l-0.076-0.118
	l-0.004-0.006c-0.027-0.042-0.052-0.08-0.079-0.122l-0.014-0.021l-0.078-0.12l-0.009-0.013l-0.073-0.112l-0.012-0.018l-0.078-0.119
	l-0.014-0.022l-0.078-0.118l-0.002-0.004l-0.077-0.117l-0.019-0.029l-0.077-0.117l-0.01-0.015l-0.074-0.111l-0.012-0.018
	l-0.078-0.117l-0.016-0.024l-0.079-0.119l-0.004-0.006l-0.077-0.115l-0.016-0.024l-0.078-0.117l-0.013-0.019l-0.073-0.108
	l-0.011-0.017l-0.077-0.115l-0.019-0.028l-0.079-0.117l-0.005-0.007l-0.077-0.114l-0.015-0.023l-0.079-0.117l-0.013-0.019
	l-0.075-0.11l-0.009-0.014l-0.08-0.118l-0.016-0.023l-0.08-0.118l-0.01-0.014l-0.072-0.105l-0.019-0.028l-0.077-0.112l-0.019-0.028
	l-0.073-0.106l-0.008-0.012l-0.08-0.116l-0.018-0.026l-0.08-0.115l-0.012-0.018l-0.072-0.104l-0.016-0.023l-0.08-0.115l-0.016-0.022
	l-0.078-0.112l-0.006-0.009l-0.079-0.114l-0.021-0.029l-0.078-0.111l-0.018-0.025l-0.069-0.098l-0.017-0.024l-0.079-0.112
	l-0.019-0.027l-0.081-0.115l-0.005-0.007l-0.076-0.107l-0.022-0.031l-0.078-0.11l-0.018-0.026l-0.069-0.098l-0.017-0.024
	l-0.08-0.111l-0.021-0.029l-0.079-0.11l-0.016-0.022l-0.068-0.095l-0.022-0.03l-0.078-0.109l-0.021-0.03l-0.071-0.098l-0.014-0.02
	l-0.08-0.11l-0.023-0.031l-0.08-0.11l-0.012-0.016l-0.075-0.103l-0.018-0.024l-0.082-0.112l-0.019-0.025l-0.076-0.103l-0.011-0.016
	l-0.083-0.113l-0.019-0.026l-0.082-0.112l-0.016-0.021l-0.074-0.1l-0.017-0.022l-0.082-0.11l-0.022-0.029l-0.08-0.107l-0.006-0.007
	c-0.028-0.038-0.056-0.076-0.084-0.113l-0.02-0.028l-0.082-0.109l-0.019-0.025l-0.07-0.093l-0.02-0.027l-0.081-0.108l-0.022-0.029
	l-0.084-0.112l-0.006-0.007l-0.082-0.109l-0.019-0.026l-0.083-0.11l-0.018-0.024l-0.077-0.101l-0.012-0.016l-0.085-0.112
	l-0.02-0.027l-0.085-0.112l-0.01-0.013l-0.078-0.102l-0.021-0.027l-0.083-0.108l-0.02-0.026l-0.076-0.099l-0.013-0.017l-0.085-0.111
	l-0.021-0.027l-0.085-0.11l-0.013-0.017l-0.078-0.101l-0.018-0.024l-0.084-0.109l-0.022-0.028l-0.077-0.099l-0.012-0.015
	l-0.084-0.107l-0.025-0.032l-0.083-0.107l-0.017-0.022l-0.075-0.096l-0.02-0.025l-0.085-0.108l-0.021-0.027l-0.084-0.107
	l-0.005-0.007l-0.089-0.113l-0.019-0.024l-0.087-0.11l-0.016-0.021l-0.079-0.1l-0.016-0.02l-0.086-0.108l-0.023-0.029l-0.088-0.11
	l-0.004-0.005l-0.087-0.109l-0.02-0.025l-0.088-0.11l-0.015-0.019l-0.083-0.103l-0.014-0.017l-0.09-0.111l-0.018-0.023l-0.091-0.113
	l-0.006-0.008l-0.086-0.107l-0.018-0.022c-0.03-0.037-0.059-0.073-0.089-0.11l-0.017-0.022l-0.087-0.107l-0.007-0.008l-0.093-0.113
	l-0.018-0.022l-0.093-0.114l-0.004-0.005l-0.09-0.109l-0.017-0.02l-0.091-0.111l-0.017-0.02l-0.089-0.108l-0.007-0.008l-0.092-0.11
	l-0.021-0.026l-0.09-0.108l-0.016-0.02l-0.081-0.097l-0.018-0.021l-0.09-0.107l-0.021-0.025l-0.091-0.108l-0.003-0.004l-0.091-0.109
	l-0.024-0.028l-0.089-0.106l-0.018-0.022l-0.081-0.096l-0.017-0.021l-0.09-0.107l-0.023-0.026l-0.09-0.106l-0.013-0.015
	l-0.082-0.096l-0.026-0.03l-0.089-0.104l-0.02-0.024l-0.082-0.096l-0.015-0.018l-0.091-0.107l-0.022-0.026l-0.093-0.108
	l-0.012-0.014l-0.085-0.099l-0.021-0.025l-0.092-0.106l-0.019-0.022l-0.085-0.098l-0.014-0.016l-0.092-0.106l-0.022-0.026
	l-0.093-0.107l-0.014-0.016l-0.084-0.096l-0.021-0.024l-0.092-0.105l-0.022-0.025l-0.09-0.103l-0.006-0.007l-0.096-0.109
	l-0.02-0.023l-0.095-0.108l-0.014-0.016l-0.085-0.096l-0.021-0.023l-0.093-0.105l-0.02-0.023l-0.097-0.109l0,0
	c-0.032-0.036-0.067-0.075-0.099-0.111l-0.019-0.021l-0.096-0.107l-0.017-0.019l-0.087-0.097l-0.016-0.018l-0.095-0.106
	l-0.023-0.025l-0.097-0.108l-0.003-0.004l-0.096-0.106l-0.02-0.022l-0.097-0.107l-0.016-0.018l-0.09-0.099l-0.014-0.016
	l-0.097-0.107l-0.021-0.023l-0.098-0.107l-0.011-0.012l-0.091-0.1l-0.018-0.02l-0.096-0.105l-0.023-0.025l-0.087-0.095l-0.014-0.015
	l-0.095-0.103l-0.027-0.03l-0.094-0.102l-0.017-0.018l-0.085-0.092l-0.022-0.023c-0.033-0.035-0.062-0.067-0.095-0.102L264.5,167.1
	l-0.088-0.095l-0.012-0.013l-0.097-0.104l-0.025-0.027l-0.096-0.103l-0.017-0.019l-0.089-0.095l-0.017-0.018l-0.097-0.103
	l-0.025-0.027l-0.098-0.104l-0.001-0.002l-0.101-0.107l-0.022-0.023c-0.033-0.035-0.066-0.069-0.099-0.104l-0.017-0.018
	l-0.092-0.097l-0.015-0.015l-0.101-0.106l-0.02-0.021l-0.102-0.107l-0.008-0.008l-0.095-0.1l-0.023-0.024l-0.098-0.102l-0.022-0.023
	l-0.091-0.094l-0.013-0.014l-0.1-0.104l-0.023-0.024l-0.101-0.105l-0.01-0.01l-0.095-0.098l-0.022-0.023l-0.1-0.103l-0.02-0.021
	l-0.098-0.1l-0.007-0.007l-0.103-0.106l-0.022-0.022l-0.101-0.104l-0.015-0.015l-0.093-0.095l-0.019-0.02l-0.101-0.102l-0.022-0.022
	l-0.101-0.103l-0.003-0.003l-0.104-0.105l-0.023-0.023l-0.103-0.104l-0.014-0.014l-0.094-0.095l-0.02-0.02l-0.101-0.101
	l-0.023-0.023l-0.027-0.027l-0.004-0.004L261.177,163.652L261.177,163.652z"/>
<path style="fill:#714DC1;" d="M245.333,213.337L245.333,213.337c5.891,0,10.667,4.776,10.667,10.667v42.666
	c0,5.891-4.776,10.667-10.667,10.667l0,0c-5.891,0-10.667-4.776-10.667-10.667v-42.666
	C234.667,218.113,239.443,213.337,245.333,213.337z"/>
<path style="fill:#F7BDC5;" d="M437.337,106.667L437.337,106.667c17.673,0,32,14.327,32,32v21.33c0,17.673-14.327,32-32,32l0,0
	c-17.673,0-32-14.327-32-32v-21.33C405.337,120.994,419.664,106.667,437.337,106.667z"/>
<path style="fill:#FBDDE1;" d="M394.663,127.997L394.663,127.997c5.891,0,10.667,4.776,10.667,10.667v21.333
	c0,5.891-4.776,10.667-10.667,10.667l0,0c-5.891,0-10.667-4.776-10.667-10.667v-21.333
	C383.997,132.773,388.773,127.997,394.663,127.997z"/>
<path style="fill:#F59300;" d="M160,85.334H42.667c-11.782,0-21.333,9.55-21.333,21.332c0,0,0,0.001,0,0.001v32
	c-0.006,5.891,4.765,10.672,10.656,10.678c5.891,0.006,10.672-4.765,10.678-10.656c0-0.007,0-0.015,0-0.022v-21.333
	c0-5.891,4.775-10.667,10.666-10.667c0,0,0,0,0.001,0H160c5.891,0.006,10.672-4.765,10.678-10.656
	c0.006-5.891-4.765-10.672-10.656-10.678C160.015,85.333,160.008,85.333,160,85.334z"/>
<path style="fill:#FCE4B9;" d="M53.334,106.667h63.996c5.891,0,10.667,4.776,10.667,10.667v21.333
	c0,5.891-4.776,10.667-10.667,10.667H53.334c-5.891,0-10.667-4.776-10.667-10.667v-21.333
	C42.667,111.443,47.443,106.667,53.334,106.667z"/>
<path style="fill:#F6BBBC;" d="M5.918,384c7.558,13.166,21.567,21.299,36.749,21.333h384c15.181-0.034,29.191-8.167,36.749-21.333
	H5.918z"/>
<path style="fill:#F9D0D6;" d="M5.918,384c7.558,13.166,21.567,21.299,36.749,21.333h298.667
	c15.181-0.034,29.191-8.167,36.749-21.333H5.918z"/>
<g>
</g>
<g>
</g>
<g>
</g>
<g>
</g>
<g>
</g>
<g>
</g>
<g>
</g>
<g>
</g>
<g>
</g>
<g>
</g>
<g>
</g>
<g>
</g>
<g>
</g>
<g>
</g>
<g>
</g>
</svg>
