<?xml version="1.0" encoding="iso-8859-1"?>
<!-- Generator: Adobe Illustrator 19.0.0, SVG Export Plug-In . SVG Version: 6.00 Build 0)  -->
<svg version="1.1" id="Capa_1" xmlns="http://www.w3.org/2000/svg" xmlns:xlink="http://www.w3.org/1999/xlink" x="0px" y="0px"
	 viewBox="0 0 469.337 469.337" style="enable-background:new 0 0 469.337 469.337;" xml:space="preserve">
<path style="fill:#A491C8;" d="M42.669,106.667h383.996c23.564,0,42.667,19.103,42.667,42.667V426.67
	c0,23.564-19.103,42.667-42.667,42.667H42.669c-23.564,0-42.667-19.103-42.667-42.667V149.334
	C0.002,125.77,19.104,106.667,42.669,106.667z"/>
<path style="fill:#F2EDF9;" d="M42.669,106.667h341.336c23.564,0,42.667,19.103,42.667,42.667V426.67
	c0,23.564-19.103,42.667-42.667,42.667H42.669c-23.564,0-42.667-19.103-42.667-42.667V149.334
	C0.002,125.77,19.104,106.667,42.669,106.667z"/>
<g>
	<path style="fill:#C7AEE5;" d="M138.666,213.337h277.336c5.891,0,10.667,4.776,10.667,10.667v0c0,5.891-4.776,10.667-10.667,10.667
		H138.666c-5.891,0-10.667-4.776-10.667-10.667v0C127.999,218.113,132.774,213.337,138.666,213.337z"/>
	<path style="fill:#C7AEE5;" d="M128.002,256H21.335c-11.782,0-21.333-9.551-21.333-21.333c0,0,0,0,0,0v-21.333h149.333v21.333
		C149.335,246.449,139.784,256,128.002,256C128.002,256,128.002,256,128.002,256z"/>
</g>
<g>
	<path style="fill:#1D0077;" d="M42.669,106.667c-23.564,0-42.667,19.103-42.667,42.667l0,0v21.333
		c0,23.564,19.103,42.667,42.667,42.667l0,0h426.667v-64c0-23.564-19.103-42.667-42.667-42.667H42.669z"/>
	<path style="fill:#1D0077;" d="M42.669,0h383.996c23.564,0,42.667,19.103,42.667,42.667v21.336
		c0,23.564-19.103,42.667-42.667,42.667H42.669c-23.564,0-42.667-19.103-42.667-42.667V42.667C0.002,19.103,19.104,0,42.669,0z"/>
</g>
<path style="fill:#5628B4;" d="M42.669,0h341.336c23.564,0,42.667,19.103,42.667,42.667v21.336
	c0,23.564-19.103,42.667-42.667,42.667H42.669c-23.564,0-42.667-19.103-42.667-42.667V42.667C0.002,19.103,19.104,0,42.669,0z"/>
<path style="fill:#3D099E;" d="M416.005,21.334L416.005,21.334c5.891,0,10.667,4.776,10.667,10.667v42.666
	c0,5.891-4.776,10.667-10.667,10.667l0,0c-5.891,0-10.667-4.776-10.667-10.667V32.001C405.339,26.11,410.114,21.334,416.005,21.334z
	"/>
<path style="fill:#6A41BD;" d="M170.672,21.334h213.334c11.782,0,21.333,9.551,21.333,21.333v0.001
	c0,11.782-9.551,21.333-21.333,21.333H170.672c-11.782,0-21.333-9.551-21.333-21.333v-0.001
	C149.339,30.885,158.89,21.334,170.672,21.334z"/>
<path style="fill:#3D099E;" d="M160.006,85.337h234.666c5.891,0,10.667,4.776,10.667,10.667v0c0,5.891-4.776,10.667-10.667,10.667
	H160.006c-5.891,0-10.667-4.776-10.667-10.667v0C149.339,90.113,154.114,85.337,160.006,85.337z"/>
<path style="fill:#4F20B1;" d="M42.669,106.667c-23.564,0-42.667,19.103-42.667,42.667l0,0v21.333
	c0,23.564,19.103,42.667,42.667,42.667l0,0h384v-64c0-23.564-19.103-42.667-42.667-42.667c0,0,0,0,0,0H42.669z"/>
<path style="fill:#6A41BD;" d="M192.002,127.997h170.664c11.782,0,21.333,9.551,21.333,21.333v0.001
	c0,11.782-9.551,21.333-21.333,21.333H192.002c-11.782,0-21.333-9.551-21.333-21.333v-0.001
	C170.669,137.548,180.22,127.997,192.002,127.997z"/>
<path style="fill:#3D099E;" d="M160.006,191.997h255.996c5.891,0,10.667,4.776,10.667,10.667v0c0,5.891-4.776,10.667-10.667,10.667
	H160.006c-5.891,0-10.667-4.776-10.667-10.667v0C149.339,196.773,154.114,191.997,160.006,191.997z"/>
<path style="fill:#F7B236;" d="M192.001,0h-42.666l64,106.667h42.666L192.001,0z"/>
<path style="fill:#FBD694;" d="M163.057,22.87L187.735,64h42.667l-25.6-42.667h-34.133C168.058,21.37,165.477,21.891,163.057,22.87z
	"/>
<path style="fill:#D5C9ED;" d="M64.002,277.337h298.664c11.782,0,21.333,9.551,21.333,21.333v106.664
	c0,11.782-9.551,21.333-21.333,21.333H64.002c-11.782,0-21.333-9.551-21.333-21.333V298.67
	C42.669,286.888,52.22,277.337,64.002,277.337z"/>
<g>
	<path style="fill:#F7B236;" d="M106.669,0H64.002l64,106.667h42.667L106.669,0z"/>
	<path style="fill:#F7B236;" d="M277.336,0h-42.667l64,106.667h42.667L277.336,0z"/>
</g>
<path style="fill:#FBD694;" d="M273.069,64h42.666l-25.6-42.666h-42.667L273.069,64z"/>
<path style="fill:#F58D00;" d="M192.003,213.334h-42.667l64-106.667h42.667L192.003,213.334z"/>
<path style="fill:#F7B236;" d="M200.536,128l-22.361,37.267c3.799,3.421,8.715,5.34,13.827,5.4h25.6l25.6-42.667L200.536,128z"/>
<g>
	<path style="fill:#F58D00;" d="M106.669,213.334H64.003l64-106.667h42.666L106.669,213.334z"/>
	<path style="fill:#F58D00;" d="M277.336,213.334h-42.667l64-106.667h42.667L277.336,213.334z"/>
</g>
<path style="fill:#F7B236;" d="M260.269,170.667h42.667l25.6-42.667H285.87L260.269,170.667z"/>
<path style="fill:#F58D00;" d="M384.002,106.667l-64,106.667h42.667l54.397-90.663C409.047,112.591,396.882,106.703,384.002,106.667
	z"/>
<g>
	<path style="fill:#F7B236;" d="M362.669,170.667c11.739,0.043,21.29-9.438,21.333-21.177c0.033-8.861-5.435-16.813-13.721-19.954
		l-24.678,41.13H362.669z"/>
	<path style="fill:#F7B236;" d="M417.066,90.662L362.669,0h-42.667l64,106.667C396.882,106.631,409.047,100.742,417.066,90.662z"/>
</g>
<path style="fill:#FBD694;" d="M332.801,21.334L358.402,64h25.6c5.112-0.06,10.028-1.98,13.827-5.401l-22.361-37.266L332.801,21.334
	z"/>
<path style="fill:#8B6CCC;" d="M42.669,0h85.333c11.782,0,21.333,9.551,21.333,21.333V192c0,23.564-19.103,42.667-42.667,42.667
	H21.335c-11.782,0-21.333-9.551-21.333-21.333V42.667C0.002,19.103,19.104,0,42.669,0z"/>
<circle style="fill:#F2EDF9;" cx="53.339" cy="159.997" r="10.667"/>
<path style="fill:#B19CDD;" d="M42.669,21.334h64.004c11.782,0,21.333,9.551,21.333,21.333v0.001
	c0,11.782-9.551,21.333-21.333,21.333H42.669c-11.782,0-21.333-9.551-21.333-21.333v-0.001
	C21.336,30.885,30.887,21.334,42.669,21.334z"/>
<circle style="fill:#F2EDF9;" cx="95.999" cy="159.997" r="10.667"/>
<g>
	<path style="fill:#5628B4;" d="M96.006,362.667h42.666c5.891,0,10.667,4.776,10.667,10.667l0,0c0,5.891-4.776,10.667-10.667,10.667
		H96.006c-5.891,0-10.667-4.776-10.667-10.667l0,0C85.339,367.443,90.114,362.667,96.006,362.667z"/>
	<path style="fill:#5628B4;" d="M181.336,362.667h63.996c5.891,0,10.667,4.776,10.667,10.667l0,0
		c0,5.891-4.776,10.667-10.667,10.667h-63.996c-5.891,0-10.667-4.776-10.667-10.667l0,0
		C170.669,367.443,175.444,362.667,181.336,362.667z"/>
	<path style="fill:#5628B4;" d="M288.006,362.667h42.666c5.891,0,10.667,4.776,10.667,10.667l0,0
		c0,5.891-4.776,10.667-10.667,10.667h-42.666c-5.891,0-10.667-4.776-10.667-10.667l0,0
		C277.339,367.443,282.114,362.667,288.006,362.667z"/>
</g>
<circle style="fill:#704AC1;" cx="95.999" cy="95.997" r="32"/>
<g>
	<path style="fill:#5628B4;" d="M96.006,319.997h42.666c5.891,0,10.667,4.776,10.667,10.667l0,0c0,5.891-4.776,10.667-10.667,10.667
		H96.006c-5.891,0-10.667-4.776-10.667-10.667l0,0C85.339,324.773,90.114,319.997,96.006,319.997z"/>
	<path style="fill:#5628B4;" d="M181.336,319.997h63.996c5.891,0,10.667,4.776,10.667,10.667l0,0
		c0,5.891-4.776,10.667-10.667,10.667h-63.996c-5.891,0-10.667-4.776-10.667-10.667l0,0
		C170.669,324.773,175.444,319.997,181.336,319.997z"/>
	<path style="fill:#5628B4;" d="M288.006,319.997h42.666c5.891,0,10.667,4.776,10.667,10.667l0,0
		c0,5.891-4.776,10.667-10.667,10.667h-42.666c-5.891,0-10.667-4.776-10.667-10.667l0,0
		C277.339,324.773,282.114,319.997,288.006,319.997z"/>
</g>
<circle style="fill:#F2EDF9;" cx="74.669" cy="74.667" r="32"/>
<path style="fill:#957CC5;" d="M458.665,213.337L458.665,213.337c5.891,0,10.667,4.776,10.667,10.667V426.67
	c0,5.891-4.776,10.667-10.667,10.667l0,0c-5.891,0-10.667-4.776-10.667-10.667V224.004
	C447.999,218.113,452.774,213.337,458.665,213.337z"/>
<path style="fill:#E0D3F1;" d="M416.002,234.667c-5.891,0-10.667,4.775-10.667,10.666c0,0,0,0,0,0.001v181.333
	c0,11.782-9.551,21.333-21.333,21.333H53.335c-5.891,0-10.667,4.776-10.667,10.667c0,5.891,4.776,10.667,10.667,10.667h330.667
	c23.564,0,42.666-19.103,42.667-42.667V245.334C426.669,239.443,421.893,234.667,416.002,234.667
	C416.002,234.667,416.002,234.667,416.002,234.667L416.002,234.667z"/>
<path style="fill:#957CC5;" d="M437.336,213.337h21.333c5.891,0,10.667,4.776,10.667,10.667v0c0,5.891-4.776,10.667-10.667,10.667
	h-21.333c-5.891,0-10.667-4.776-10.667-10.667v0C426.669,218.113,431.444,213.337,437.336,213.337z"/>
<path style="fill:#704AC1;" d="M138.669,21.334c-5.891,0-10.667,4.775-10.667,10.666c0,0,0,0,0,0.001v160
	c0,11.782-9.551,21.333-21.333,21.333H32.002c-5.891,0.006-10.662,4.787-10.656,10.678c0.006,5.882,4.773,10.649,10.656,10.656
	h74.667c23.564,0,42.666-19.103,42.667-42.667V32C149.335,26.109,144.56,21.334,138.669,21.334
	C138.669,21.334,138.669,21.334,138.669,21.334z"/>
<path style="fill:#3D099E;" d="M416.005,149.337L416.005,149.337c5.891,0,10.667,4.776,10.667,10.667v42.666
	c0,5.891-4.776,10.667-10.667,10.667l0,0c-5.891,0-10.667-4.776-10.667-10.667v-42.666
	C405.339,154.113,410.114,149.337,416.005,149.337z"/>
<g>
</g>
<g>
</g>
<g>
</g>
<g>
</g>
<g>
</g>
<g>
</g>
<g>
</g>
<g>
</g>
<g>
</g>
<g>
</g>
<g>
</g>
<g>
</g>
<g>
</g>
<g>
</g>
<g>
</g>
</svg>
