<svg width="63" height="91" viewBox="0 0 63 91" fill="none" xmlns="http://www.w3.org/2000/svg">
<path d="M9.25818 79.0508H0L11.3947 90.4455V81.1873C11.3947 80.6206 11.1696 80.0772 10.7689 79.6765C10.3682 79.2759 9.82482 79.0508 9.25818 79.0508Z" fill="#009944"/>
<path d="M58.3978 14.9556H43.9764L42.6724 22.7796C42.5086 23.7786 41.9944 24.6865 41.222 25.3408C40.4495 25.9951 39.4694 26.353 38.4571 26.3503H24.2137C23.2015 26.353 22.2213 25.9951 21.449 25.3408C20.6766 24.6865 20.1625 23.7785 19.9987 22.7796L18.6944 14.9556H4.27301C3.13973 14.9556 2.05288 15.4058 1.25153 16.2071C0.45019 17.0084 0 18.0953 0 19.2286V76.9142H9.25818C10.391 76.9155 11.4771 77.3661 12.2782 78.1672C13.0793 78.9682 13.5299 80.0543 13.5312 81.1872V90.4454H58.3978C59.531 90.4454 60.6179 89.9952 61.4192 89.1938C62.2206 88.3925 62.6708 87.3056 62.6708 86.1724V19.2286C62.6708 18.0953 62.2206 17.0084 61.4192 16.2071C60.6179 15.4058 59.531 14.9556 58.3978 14.9556ZM25.638 67.656H8.54601C7.97938 67.656 7.43595 67.4309 7.03528 67.0302C6.63461 66.6296 6.40951 66.0861 6.40951 65.5195C6.40951 64.9528 6.63461 64.4094 7.03528 64.0087C7.43595 63.6081 7.97938 63.383 8.54601 63.383H25.638C26.2047 63.383 26.7481 63.6081 27.1488 64.0087C27.5494 64.4094 27.7745 64.9528 27.7745 65.5195C27.7745 66.0861 27.5494 66.6296 27.1488 67.0302C26.7481 67.4309 26.2047 67.656 25.638 67.656ZM25.638 57.3296H8.54601C7.97938 57.3296 7.43595 57.1045 7.03528 56.7038C6.63461 56.3031 6.40951 55.7597 6.40951 55.1931C6.40951 54.6264 6.63461 54.083 7.03528 53.6823C7.43595 53.2816 7.97938 53.0565 8.54601 53.0565H25.638C26.2047 53.0565 26.7481 53.2816 27.1488 53.6823C27.5494 54.083 27.7745 54.6264 27.7745 55.1931C27.7745 55.7597 27.5494 56.3031 27.1488 56.7038C26.7481 57.1045 26.2047 57.3296 25.638 57.3296ZM25.638 46.8251H8.54601C7.97938 46.8251 7.43595 46.6 7.03528 46.1993C6.63461 45.7986 6.40951 45.2552 6.40951 44.6886C6.40951 44.1219 6.63461 43.5785 7.03528 43.1778C7.43595 42.7772 7.97938 42.5521 8.54601 42.5521H25.638C26.2047 42.5521 26.7481 42.7772 27.1488 43.1778C27.5494 43.5785 27.7745 44.1219 27.7745 44.6886C27.7745 45.2552 27.5494 45.7986 27.1488 46.1993C26.7481 46.6 26.2047 46.8251 25.638 46.8251ZM36.4986 67.656C36.076 67.656 35.663 67.5307 35.3116 67.2959C34.9603 67.0612 34.6864 66.7275 34.5247 66.3371C34.363 65.9467 34.3207 65.5171 34.4032 65.1027C34.4856 64.6882 34.6891 64.3075 34.9879 64.0087C35.2867 63.7099 35.6673 63.5065 36.0818 63.424C36.4962 63.3416 36.9258 63.3839 37.3162 63.5456C37.7066 63.7073 38.0403 63.9812 38.275 64.3325C38.5098 64.6839 38.6351 65.0969 38.6351 65.5195C38.6351 66.0861 38.41 66.6296 38.0093 67.0302C37.6087 67.4309 37.0652 67.656 36.4986 67.656ZM36.4986 57.3296C36.076 57.3296 35.663 57.2043 35.3116 56.9695C34.9603 56.7347 34.6864 56.401 34.5247 56.0107C34.363 55.6203 34.3207 55.1907 34.4032 54.7762C34.4856 54.3618 34.6891 53.9811 34.9879 53.6823C35.2867 53.3835 35.6673 53.18 36.0818 53.0976C36.4962 53.0152 36.9258 53.0575 37.3162 53.2192C37.7066 53.3809 38.0403 53.6547 38.275 54.0061C38.5098 54.3574 38.6351 54.7705 38.6351 55.1931C38.6351 55.7597 38.41 56.3031 38.0093 56.7038C37.6087 57.1045 37.0652 57.3296 36.4986 57.3296ZM36.4986 46.8251C36.076 46.8251 35.663 46.6998 35.3116 46.465C34.9603 46.2302 34.6864 45.8966 34.5247 45.5062C34.363 45.1158 34.3207 44.6862 34.4032 44.2718C34.4856 43.8573 34.6891 43.4766 34.9879 43.1778C35.2867 42.879 35.6673 42.6756 36.0818 42.5931C36.4962 42.5107 36.9258 42.553 37.3162 42.7147C37.7066 42.8764 38.0403 43.1503 38.275 43.5016C38.5098 43.8529 38.6351 44.266 38.6351 44.6886C38.6351 45.2552 38.41 45.7986 38.0093 46.1993C37.6087 46.6 37.0652 46.8251 36.4986 46.8251ZM41.3057 36.6767H8.54601C7.97938 36.6767 7.43595 36.4516 7.03528 36.0509C6.63461 35.6502 6.40951 35.1068 6.40951 34.5402C6.40951 33.9735 6.63461 33.4301 7.03528 33.0294C7.43595 32.6288 7.97938 32.4037 8.54601 32.4037H41.3057C41.8724 32.4037 42.4158 32.6288 42.8165 33.0294C43.2171 33.4301 43.4422 33.9735 43.4422 34.5402C43.4422 35.1068 43.2171 35.6502 42.8165 36.0509C42.4158 36.4516 41.8724 36.6767 41.3057 36.6767ZM45.0446 67.656C44.6221 67.656 44.209 67.5307 43.8576 67.2959C43.5063 67.0612 43.2324 66.7275 43.0707 66.3371C42.909 65.9467 42.8667 65.5171 42.9492 65.1027C43.0316 64.6882 43.2351 64.3075 43.5339 64.0087C43.8327 63.7099 44.2134 63.5065 44.6278 63.424C45.0422 63.3416 45.4718 63.3839 45.8622 63.5456C46.2526 63.7073 46.5863 63.9812 46.821 64.3325C47.0558 64.6839 47.1811 65.0969 47.1811 65.5195C47.1811 66.0861 46.956 66.6296 46.5554 67.0302C46.1547 67.4309 45.6112 67.656 45.0446 67.656ZM45.0446 57.3296C44.6221 57.3296 44.209 57.2043 43.8576 56.9695C43.5063 56.7347 43.2324 56.401 43.0707 56.0107C42.909 55.6203 42.8667 55.1907 42.9492 54.7762C43.0316 54.3618 43.2351 53.9811 43.5339 53.6823C43.8327 53.3835 44.2134 53.18 44.6278 53.0976C45.0422 53.0152 45.4718 53.0575 45.8622 53.2192C46.2526 53.3809 46.5863 53.6547 46.821 54.0061C47.0558 54.3574 47.1811 54.7705 47.1811 55.1931C47.1811 55.7597 46.956 56.3031 46.5554 56.7038C46.1547 57.1045 45.6112 57.3296 45.0446 57.3296ZM45.0446 46.8251C44.6221 46.8251 44.209 46.6998 43.8576 46.465C43.5063 46.2302 43.2324 45.8966 43.0707 45.5062C42.909 45.1158 42.8667 44.6862 42.9492 44.2718C43.0316 43.8573 43.2351 43.4766 43.5339 43.1778C43.8327 42.879 44.2134 42.6756 44.6278 42.5931C45.0422 42.5107 45.4718 42.553 45.8622 42.7147C46.2526 42.8764 46.5863 43.1503 46.821 43.5016C47.0558 43.8529 47.1811 44.266 47.1811 44.6886C47.1811 45.2552 46.956 45.7986 46.5554 46.1993C46.1547 46.6 45.6112 46.8251 45.0446 46.8251ZM53.5906 67.656C53.1681 67.656 52.755 67.5307 52.4036 67.2959C52.0523 67.0612 51.7785 66.7275 51.6168 66.3371C51.455 65.9467 51.4127 65.5171 51.4952 65.1027C51.5776 64.6882 51.7811 64.3075 52.0799 64.0087C52.3787 63.7099 52.7594 63.5065 53.1738 63.424C53.5883 63.3416 54.0178 63.3839 54.4082 63.5456C54.7986 63.7073 55.1323 63.9812 55.3671 64.3325C55.6018 64.6839 55.7271 65.0969 55.7271 65.5195C55.7271 66.0861 55.502 66.6296 55.1014 67.0302C54.7007 67.4309 54.1573 67.656 53.5906 67.656ZM53.5906 57.3296C53.1681 57.3296 52.755 57.2043 52.4036 56.9695C52.0523 56.7347 51.7785 56.401 51.6168 56.0107C51.455 55.6203 51.4127 55.1907 51.4952 54.7762C51.5776 54.3618 51.7811 53.9811 52.0799 53.6823C52.3787 53.3835 52.7594 53.18 53.1738 53.0976C53.5883 53.0152 54.0178 53.0575 54.4082 53.2192C54.7986 53.3809 55.1323 53.6547 55.3671 54.0061C55.6018 54.3574 55.7271 54.7705 55.7271 55.1931C55.7271 55.7597 55.502 56.3031 55.1014 56.7038C54.7007 57.1045 54.1573 57.3296 53.5906 57.3296ZM53.5906 46.8251C53.1681 46.8251 52.755 46.6998 52.4036 46.465C52.0523 46.2302 51.7785 45.8966 51.6168 45.5062C51.455 45.1158 51.4127 44.6862 51.4952 44.2718C51.5776 43.8573 51.7811 43.4766 52.0799 43.1778C52.3787 42.879 52.7594 42.6756 53.1738 42.5931C53.5883 42.5107 54.0178 42.553 54.4082 42.7147C54.7986 42.8764 55.1323 43.1503 55.3671 43.5016C55.6018 43.8529 55.7271 44.266 55.7271 44.6886C55.7271 45.2552 55.502 45.7986 55.1014 46.1993C54.7007 46.6 54.1573 46.8251 53.5906 46.8251Z" fill="#009944"/>
<path d="M22.1062 22.4285C22.1894 22.9273 22.4468 23.3805 22.8327 23.7074C23.2186 24.0343 23.708 24.2137 24.2137 24.2137H38.4571C38.9628 24.2137 39.4522 24.0343 39.8381 23.7074C40.224 23.3805 40.4814 22.9273 40.5646 22.4285L41.9889 13.8825C42.0399 13.5764 42.0237 13.2629 41.9413 12.9637C41.8588 12.6646 41.7122 12.387 41.5117 12.1502C41.3111 11.9134 41.0614 11.7232 40.7798 11.5927C40.4983 11.4623 40.1917 11.3947 39.8814 11.3947H37.7449V7.05634L40.2347 3.32155C40.4492 2.9998 40.5723 2.62587 40.591 2.23964C40.6096 1.8534 40.5231 1.46934 40.3407 1.12841C40.1582 0.787474 39.8866 0.502449 39.5549 0.303725C39.2232 0.105001 38.8438 2.80906e-05 38.4571 0H24.2137C23.827 2.80906e-05 23.4476 0.105001 23.1159 0.303725C22.7842 0.502449 22.5126 0.787474 22.3302 1.12841C22.1477 1.46934 22.0612 1.8534 22.0799 2.23964C22.0985 2.62587 22.2217 2.9998 22.4362 3.32155L24.9259 7.05634V11.3947H22.7894C22.4791 11.3947 22.1725 11.4623 21.891 11.5927C21.6095 11.7232 21.3597 11.9134 21.1591 12.1502C20.9586 12.387 20.812 12.6646 20.7296 12.9637C20.6472 13.2629 20.6309 13.5764 20.6819 13.8825L22.1062 22.4285ZM34.465 4.27301L33.8308 5.22446C33.5968 5.57535 33.4719 5.98771 33.4719 6.40951V11.3947H29.1989V6.40951C29.1989 5.98771 29.074 5.57535 28.84 5.22446L28.2058 4.27301H34.465Z" fill="#009944"/>
</svg>
