<svg width="78" height="78" viewBox="0 0 78 78" fill="none" xmlns="http://www.w3.org/2000/svg">
<circle cx="38.9993" cy="39.0008" r="34.0213" fill="#009944"/>
<circle cx="39" cy="39" r="38.5" stroke="#009944" stroke-dasharray="3 3"/>
<path d="M46.1742 27.7374V25.2618C46.1742 25.1275 46.0609 25.016 45.9284 25.016H27.7502C27.6158 25.016 27.5044 25.1275 27.5044 25.2618V27.6855C27.5044 27.966 27.2777 28.1926 26.9974 28.1926C26.7169 28.1926 26.4884 27.9659 26.4884 27.6855V25.2618C26.4884 24.9143 26.6306 24.5992 26.8591 24.3707C27.0876 24.1421 27.4026 24 27.7502 24H45.9284C46.2761 24 46.591 24.1421 46.8195 24.3707C47.048 24.5992 47.1902 24.9143 47.1902 25.2618V27.7374H53.8603C54.6094 27.7374 55.3411 28.0697 55.8597 28.6037C56.3725 29.1279 56.6894 29.8462 56.6894 30.624V54.4872C56.6894 54.7676 56.4627 54.9962 56.1824 54.9962H36.4964C36.2161 54.9962 35.9894 54.7676 35.9894 54.4872V45.3836C35.9894 45.1014 36.2161 44.8747 36.4964 44.8747C36.7788 44.8747 37.0055 45.1014 37.0055 45.3836V53.9783H55.6734V30.624C55.6734 30.117 55.4679 29.6504 55.1337 29.3104C54.7976 28.9646 54.3444 28.761 53.8603 28.7534H36.3159C36.7615 29.2757 37.0055 29.9346 37.0055 30.624V43.0808C37.0055 43.3613 36.7788 43.5898 36.4964 43.5898C36.2161 43.5898 35.9894 43.3613 35.9894 43.0808V35.2987H29.375C28.628 35.2987 27.877 34.9896 27.3354 34.4498C26.8149 33.9332 26.4884 33.2226 26.4884 32.4391C26.4884 32.4084 26.4884 32.4007 26.4884 32.4026V29.9864C26.4884 29.706 26.7169 29.4795 26.9974 29.4795C27.2778 29.4795 27.5044 29.7061 27.5044 29.9864V32.4391C27.5044 32.9422 27.7156 33.3994 28.0498 33.7315C28.407 34.0868 28.868 34.2713 29.3308 34.2828C29.8205 34.2943 30.3122 34.1119 30.6906 33.7336C31.0248 33.3956 31.2341 32.9289 31.2341 32.4122V30.626C31.2341 29.8405 31.5414 29.1069 32.1061 28.5596C32.6477 28.0371 33.3775 27.7375 34.1303 27.7375H46.1742V27.7374ZM39.8017 47.0911C39.5213 47.0911 39.2948 46.8625 39.2948 46.5821C39.2948 46.3017 39.5214 46.075 39.8017 46.075H52.877C53.1574 46.075 53.386 46.3017 53.386 46.5821C53.386 46.8625 53.1574 47.0911 52.877 47.0911H39.8017ZM39.8017 51.6908C39.5213 51.6908 39.2948 51.4623 39.2948 51.1818C39.2948 50.9014 39.5214 50.6729 39.8017 50.6729H49.4123C49.6928 50.6729 49.9213 50.9014 49.9213 51.1818C49.9213 51.4623 49.6928 51.6908 49.4123 51.6908H39.8017ZM39.8017 49.39C39.5213 49.39 39.2948 49.1634 39.2948 48.8831C39.2948 48.6007 39.5214 48.3741 39.8017 48.3741H52.877C53.1574 48.3741 53.386 48.6007 53.386 48.8831C53.386 49.1635 53.1574 49.39 52.877 49.39H39.8017ZM46.3394 31.4077C44.6742 31.4077 43.1666 32.0817 42.0757 33.1727C40.9848 34.2636 40.3106 35.7713 40.3106 37.4364C40.3106 39.1015 40.9848 40.6092 42.0757 41.7001C43.1666 42.791 44.6742 43.467 46.3394 43.467C48.0046 43.467 49.5122 42.7909 50.6031 41.7001C51.694 40.6092 52.368 39.1015 52.368 37.4364C52.368 35.7713 51.694 34.2636 50.6031 33.1727C49.5122 32.0817 48.0046 31.4077 46.3394 31.4077ZM41.3574 32.4544C42.6327 31.1791 44.3939 30.3917 46.3394 30.3917C48.285 30.3917 50.0461 31.1791 51.3213 32.4544C52.5966 33.7296 53.386 35.4908 53.386 37.4364C53.386 39.3819 52.5966 41.1431 51.3213 42.4183C50.0461 43.6935 48.285 44.4829 46.3394 44.4829C44.3939 44.4829 42.6327 43.6935 41.3574 42.4183C40.0822 41.1431 39.2948 39.3819 39.2948 37.4364C39.2948 35.4909 40.0822 33.7296 41.3574 32.4544ZM47.2478 33.9966C47.3554 33.7373 47.6531 33.6164 47.9124 33.7239C48.1698 33.8334 48.2927 34.1311 48.1832 34.3884L45.5174 40.7416C45.4098 40.999 45.1123 41.1219 44.8529 41.0125C44.5955 40.9049 44.4727 40.6072 44.5821 40.3479L47.2478 33.9966ZM45.6902 35.2661C45.6902 35.7674 45.5116 36.2263 45.2216 36.5625C44.9144 36.9217 44.4841 37.1425 44.004 37.1425C43.5238 37.1425 43.0936 36.9217 42.7863 36.5625C42.4963 36.2263 42.3177 35.7674 42.3177 35.2661C42.3177 34.7629 42.4963 34.3038 42.7863 33.9678C43.0936 33.6105 43.5238 33.3878 44.004 33.3878C44.4841 33.3878 44.9144 33.6105 45.2216 33.9678C45.5117 34.3038 45.6902 34.7629 45.6902 35.2661ZM44.4515 35.9037C44.5898 35.7443 44.6742 35.5195 44.6742 35.2661C44.6742 35.0126 44.5898 34.7859 44.4515 34.6266C44.3344 34.4901 44.1749 34.4057 44.004 34.4057C43.8332 34.4057 43.6737 34.4901 43.5566 34.6266C43.4202 34.786 43.3338 35.0126 43.3338 35.2661C43.3338 35.5195 43.4202 35.7444 43.5566 35.9037C43.6737 36.0401 43.8332 36.1265 44.004 36.1265C44.1749 36.1265 44.3344 36.0401 44.4515 35.9037ZM50.3611 39.6085C50.3611 40.1097 50.1825 40.5688 49.8925 40.9049C49.5852 41.2641 49.155 41.4849 48.6748 41.4849C47.7433 41.4849 46.9885 40.6436 46.9885 39.6085C46.9885 39.1053 47.1671 38.6463 47.4571 38.3102C47.7644 37.9531 48.1947 37.7322 48.6748 37.7322C49.155 37.7322 49.5852 37.9531 49.8925 38.3102C50.1825 38.6463 50.3611 39.1053 50.3611 39.6085ZM49.1223 40.2461C49.2606 40.0867 49.3451 39.862 49.3451 39.6085C49.3451 39.3551 49.2606 39.1284 49.1223 38.9689C49.0052 38.8326 48.8458 38.7481 48.6749 38.7481C48.504 38.7481 48.3446 38.8326 48.2274 38.9689C48.091 39.1284 48.0046 39.3551 48.0046 39.6085C48.0046 40.0829 48.3061 40.4688 48.6749 40.4688C48.8458 40.4688 49.0052 40.3844 49.1223 40.2461ZM32.8609 46.3938V44.8824H26.1715V46.3939H32.8609V46.3938ZM25.1555 44.8824H22.509C22.2286 44.8824 22 44.6539 22 44.3734V41.844C22 41.5636 22.2286 41.337 22.509 41.337H25.2113C25.4917 41.337 25.7183 41.5637 25.7183 41.844C25.7183 42.1263 25.4916 42.353 25.2113 42.353H23.016V43.8645H29.7073V42.353H27.5121C27.2317 42.353 27.0051 42.1263 27.0051 41.844C27.0051 41.5636 27.2317 41.337 27.5121 41.337H30.2143C30.4948 41.337 30.7234 41.5637 30.7234 41.844V43.8645H33.3699C33.6503 43.8645 33.8789 44.093 33.8789 44.3734V49.4304C33.8789 49.7108 33.6503 49.9393 33.3699 49.9393H30.7234V51.4508H32.0082C32.2905 51.4508 32.5172 51.6775 32.5172 51.9579V54.4873C32.5172 54.7677 32.2905 54.9962 32.0082 54.9962H24.3027C24.0223 54.9962 23.7938 54.7677 23.7938 54.4873V52.4668H22.509C22.2286 52.4668 22 52.2401 22 51.9578V49.4303C22 49.1499 22.2286 48.9213 22.509 48.9213H25.1556V44.8824H25.1555ZM32.8609 48.9214V47.4098H26.1715V48.9214H32.8609ZM23.016 51.4507H29.7073V49.9392H23.016V51.4507ZM24.8117 53.9783H31.5011V52.4668H24.8117V53.9783ZM35.9894 34.2828V30.624C35.9894 30.1093 35.782 29.6426 35.4459 29.3027C35.0868 28.9416 34.6105 28.7611 34.1323 28.7592C33.656 28.7573 33.1777 28.9321 32.8128 29.2855C32.4364 29.6504 32.25 30.1055 32.25 30.6259V32.4122C32.25 33.1247 31.9907 33.7777 31.5605 34.2828H35.9894Z" fill="white"/>
</svg>
