<svg width="48" height="48" viewBox="0 0 48 48" fill="none" xmlns="http://www.w3.org/2000/svg">
<path d="M38.25 12.3107L44.0302 6.53047L42.9697 5.46997L38.25 10.1897L36.5302 8.46997L35.4697 9.53047L38.25 12.3107Z" fill="#5A8407"/>
<path d="M15.75 9.75H17.25V11.25H15.75V9.75Z" fill="#5A8407"/>
<path d="M12.75 9.75H14.25V11.25H12.75V9.75Z" fill="#5A8407"/>
<path d="M9.75 9.75H11.25V11.25H9.75V9.75Z" fill="#5A8407"/>
<path d="M21.75 9.75H23.25V11.25H21.75V9.75Z" fill="#5A8407"/>
<path d="M27.75 9.75H29.25V11.25H27.75V9.75Z" fill="#5A8407"/>
<path d="M6.75 9.75H8.25V11.25H6.75V9.75Z" fill="#5A8407"/>
<path d="M18.75 9.75H20.25V11.25H18.75V9.75Z" fill="#5A8407"/>
<path d="M24.75 9.75H26.25V11.25H24.75V9.75Z" fill="#5A8407"/>
<path d="M47.25 8.25C47.25 4.1145 43.8855 0.75 39.75 0.75C37.3035 0.75 35.1345 1.93275 33.7643 3.75H3C1.7595 3.75 0.75 4.7595 0.75 6V31.5C0.75 32.7405 1.7595 33.75 3 33.75H16.8015L16.8307 33.8085C17.1052 34.3568 17.25 34.9695 17.25 35.5815V38.6625C17.25 39.468 17.439 40.2757 17.7975 40.9972L19.5 44.4255V47.2163L33 47.2515V44.4997L34.2 42.9C34.8773 41.997 35.25 40.878 35.25 39.75V33.75H42C43.2405 33.75 44.25 32.7405 44.25 31.5V14.2358C46.0672 12.8655 47.25 10.6965 47.25 8.25ZM39.75 2.25C43.0583 2.25 45.75 4.94175 45.75 8.25C45.75 11.5582 43.0583 14.25 39.75 14.25C36.4417 14.25 33.75 11.5582 33.75 8.25C33.75 4.94175 36.4417 2.25 39.75 2.25ZM33.7643 12.75H5.25V8.25H32.25C32.25 9.93975 32.8185 11.4945 33.7643 12.75ZM33.75 39.75C33.75 40.5563 33.4837 41.355 33 42L31.5 44.0003V45.7485L21 45.72V44.0737L19.1408 40.3298C18.885 39.8145 18.75 39.2385 18.75 38.6625V35.5815C18.75 34.7378 18.5505 33.8925 18.1725 33.1372L17.2987 31.3898C17.2673 31.326 17.25 31.2533 17.25 31.182C17.25 30.9263 17.4585 30.7185 17.7855 30.7185C19.9718 30.7185 21.75 32.4975 21.75 34.6838V35.9685V37.4685H23.25V35.9685V34.6838V23.25C23.25 22.8368 23.5868 22.5 24 22.5C24.4132 22.5 24.75 22.8368 24.75 23.25V30V33H26.25V30C26.25 29.5868 26.5868 29.25 27 29.25C27.4132 29.25 27.75 29.5868 27.75 30V33H29.25V30C29.25 29.5868 29.5868 29.25 30 29.25C30.4132 29.25 30.75 29.5868 30.75 30V31.5V33H32.25V31.5C32.25 31.0868 32.5868 30.75 33 30.75C33.4132 30.75 33.75 31.0868 33.75 31.5V39.75ZM42.75 31.5C42.75 31.9132 42.4132 32.25 42 32.25H35.25V31.5C35.25 30.2595 34.2405 29.25 33 29.25C32.7038 29.25 32.4225 29.3108 32.163 29.415C31.9042 28.4588 31.0373 27.75 30 27.75C29.4217 27.75 28.899 27.9757 28.5 28.335C28.101 27.975 27.5783 27.75 27 27.75C26.736 27.75 26.4855 27.804 26.25 27.888V23.25C26.25 22.0095 25.2405 21 24 21C22.7595 21 21.75 22.0095 21.75 23.25V30.9427C20.7442 29.8845 19.3162 29.2185 17.7142 29.2185C16.632 29.2185 15.7507 30.099 15.75 31.182C15.75 31.485 15.822 31.7888 15.957 32.061L16.0522 32.25H3C2.58675 32.25 2.25 31.9132 2.25 31.5V6C2.25 5.58675 2.58675 5.25 3 5.25H32.8807C32.6715 5.727 32.508 6.228 32.4015 6.75H3.75V14.25H35.2688C36.5205 15.1875 38.0685 15.75 39.75 15.75C40.8165 15.75 41.8305 15.5227 42.75 15.1193V31.5Z" fill="#5A8407"/>
<path d="M8.25 15.75C5.76825 15.75 3.75 17.7682 3.75 20.25C3.75 22.7318 5.76825 24.75 8.25 24.75C10.7318 24.75 12.75 22.7318 12.75 20.25C12.75 17.7682 10.7318 15.75 8.25 15.75ZM8.25 23.25C6.5955 23.25 5.25 21.9045 5.25 20.25C5.25 18.5955 6.5955 17.25 8.25 17.25C9.9045 17.25 11.25 18.5955 11.25 20.25C11.25 21.9045 9.9045 23.25 8.25 23.25Z" fill="#5A8407"/>
<path d="M15.75 20.25H20.25V15.75H15.75V20.25ZM17.25 17.25H18.75V18.75H17.25V17.25Z" fill="#5A8407"/>
<path d="M15.75 26.25H20.25V21.75H15.75V26.25ZM17.25 23.25H18.75V24.75H17.25V23.25Z" fill="#5A8407"/>
<path d="M21.75 20.25H26.25V15.75H21.75V20.25ZM23.25 17.25H24.75V18.75H23.25V17.25Z" fill="#5A8407"/>
<path d="M27.75 20.25H32.25V15.75H27.75V20.25ZM29.25 17.25H30.75V18.75H29.25V17.25Z" fill="#5A8407"/>
<path d="M27.75 26.25H32.25V21.75H27.75V26.25ZM29.25 23.25H30.75V24.75H29.25V23.25Z" fill="#5A8407"/>
<path d="M33.75 27.75H41.25V17.25H33.75V27.75ZM35.25 18.75H39.75V26.25H35.25V18.75Z" fill="#5A8407"/>
<path d="M3.75 30.75H12.75V26.25H3.75V30.75ZM5.25 27.75H11.25V29.25H5.25V27.75Z" fill="#5A8407"/>
</svg>
