<svg width="28" height="25" viewBox="0 0 28 25" fill="none" xmlns="http://www.w3.org/2000/svg">
<path d="M23.8334 11.4585H7.11469L10.1147 8.45849C10.3095 8.26372 10.4189 7.99955 10.4189 7.72411C10.4189 7.44867 10.3095 7.1845 10.1147 6.98974C9.91992 6.79497 9.65576 6.68555 9.38031 6.68555C9.10487 6.68555 8.84071 6.79497 8.64594 6.98974L3.86469 11.771C3.76812 11.8674 3.69151 11.9818 3.63924 12.1078C3.58696 12.2338 3.56006 12.3689 3.56006 12.5054C3.56006 12.6418 3.58696 12.7769 3.63924 12.9029C3.69151 13.0289 3.76812 13.1434 3.86469 13.2397L8.64594 18.021C8.74238 18.1174 8.85687 18.1939 8.98287 18.2461C9.10888 18.2983 9.24393 18.3252 9.38031 18.3252C9.5167 18.3252 9.65175 18.2983 9.77775 18.2461C9.90376 18.1939 10.0182 18.1174 10.1147 18.021C10.2111 17.9245 10.2876 17.8101 10.3398 17.6841C10.392 17.558 10.4189 17.423 10.4189 17.2866C10.4189 17.1502 10.392 17.0152 10.3398 16.8892C10.2876 16.7632 10.2111 16.6487 10.1147 16.5522L7.11469 13.5418H23.8334C24.4064 13.5418 24.8751 13.0731 24.8751 12.5002C24.8751 11.9272 24.4064 11.4585 23.8334 11.4585Z" fill="#009944"/>
</svg>
