<svg width="15" height="9" viewBox="0 0 15 9" fill="none" xmlns="http://www.w3.org/2000/svg">
<path d="M10.9373 1.0398C10.7091 1.26917 10.7099 1.64015 10.9393 1.86844L12.9948 3.91406L0.585937 3.91406C0.262324 3.91406 -1.72941e-07 4.17639 -1.58795e-07 4.5C-1.4465e-07 4.82361 0.262324 5.08594 0.585937 5.08594L12.9949 5.08594L10.9393 7.13156C10.7099 7.35985 10.709 7.73083 10.9373 7.9602C11.1656 8.18959 11.5366 8.19044 11.766 7.96219L14.8276 4.91531C14.8278 4.91514 14.828 4.91493 14.8281 4.91476C15.0569 4.68647 15.0577 4.31429 14.8282 4.08524C14.828 4.08507 14.8278 4.08486 14.8276 4.08469L11.766 1.03781C11.5367 0.809588 11.1657 0.810379 10.9373 1.0398Z" fill="black"/>
</svg>
