<svg width="15" height="15" viewBox="0 0 15 15" fill="none" xmlns="http://www.w3.org/2000/svg">
<g clip-path="url(#clip0_5960_8295)">
<path d="M10.9373 4.0398C10.7091 4.26917 10.7099 4.64015 10.9393 4.86844L12.9948 6.91406L0.585937 6.91406C0.262324 6.91406 -1.72941e-07 7.17639 -1.58795e-07 7.5C-1.4465e-07 7.82361 0.262324 8.08594 0.585937 8.08594L12.9949 8.08594L10.9393 10.1316C10.7099 10.3598 10.709 10.7308 10.9373 10.9602C11.1656 11.1896 11.5366 11.1904 11.766 10.9622L14.8276 7.91531C14.8278 7.91514 14.828 7.91493 14.8281 7.91476C15.0569 7.68647 15.0577 7.31429 14.8282 7.08524C14.828 7.08507 14.8278 7.08486 14.8276 7.08469L11.766 4.03781C11.5367 3.80959 11.1657 3.81038 10.9373 4.0398Z" fill="black"/>
</g>
<defs>
<clipPath id="clip0_5960_8295">
<rect width="15" height="15" fill="white" transform="translate(0 15) rotate(-90)"/>
</clipPath>
</defs>
</svg>
