<svg width="17" height="9" viewBox="0 0 17 9" fill="none" xmlns="http://www.w3.org/2000/svg">
<path d="M12.3957 0.57844C12.1369 0.838387 12.1379 1.25884 12.3979 1.51756L14.7275 3.83593L0.664062 3.83594C0.297301 3.83594 -1.96e-07 4.13324 -1.79968e-07 4.5C-1.63936e-07 4.86676 0.297301 5.16406 0.664062 5.16406L14.7275 5.16406L12.3978 7.48244C12.1379 7.74116 12.1369 8.16161 12.3956 8.42156C12.6544 8.68154 13.0748 8.6825 13.3348 8.42381L16.8046 4.97069C16.8049 4.97049 16.805 4.97025 16.8052 4.97005C17.0645 4.71134 17.0653 4.28952 16.8053 4.02994C16.805 4.02974 16.8049 4.02951 16.8047 4.02931L13.3348 0.576183C13.0749 0.31753 12.6544 0.318427 12.3957 0.57844Z" fill="white"/>
</svg>
