<svg width="107" height="107" viewBox="0 0 107 107" fill="none" xmlns="http://www.w3.org/2000/svg">
<path d="M92.4671 72.5201C92.7285 71.9026 92.873 71.225 92.873 70.5147V68.7948H94.5929C97.4375 68.7948 99.7525 66.4799 99.7525 63.6352V60.1955V56.852C99.7525 50.2649 96.4125 44.4139 91.2632 40.9673C93.3735 38.7504 94.5929 35.8025 94.5929 32.6775V17.1987C94.5929 7.71534 86.8775 0 77.3942 0C67.9108 0 60.1955 7.71534 60.1955 17.1987V32.6775C60.1955 35.8025 61.4149 38.7504 63.5234 40.9673C58.3759 44.4139 55.0359 50.2649 55.0359 56.852V60.1955V63.6352C55.0359 66.4799 57.3508 68.7948 60.1955 68.7948H61.9153V70.5147C61.9153 71.1201 62.0392 71.6945 62.2318 72.2346H44.4002C44.5928 71.6945 44.7166 71.1201 44.7166 70.5147V68.7948H46.4365C49.2812 68.7948 51.5961 66.4799 51.5961 63.6352V60.1955V56.852C51.5961 47.5011 44.88 39.6086 35.7853 38.0195L35.5738 37.1767C37.9197 36.0777 39.557 33.7129 39.557 30.9577H39.6379C43.3872 30.9577 46.4365 27.8722 46.4365 24.0782C46.4365 23.0445 46.194 22.0728 45.7881 21.1922C46.2095 19.8783 46.4365 18.5178 46.4365 17.1299V16.5211C46.4365 12.1767 44.3331 8.13499 40.7953 5.6429C38.3032 2.1034 34.2615 0 29.9171 0H27.6727C19.0527 0 12.0391 7.01363 12.0391 15.6336C12.0391 17.3896 12.347 19.106 12.9197 20.7554C12.3762 21.7443 12.0391 22.8674 12.0391 24.0782C12.0391 27.8722 15.0833 30.9577 18.824 30.9577H18.9186C18.9186 33.7129 20.5559 36.0777 22.9018 37.175L22.6903 38.0177C13.5956 39.6069 6.87948 47.5011 6.87948 56.852V60.1955V63.6352C6.87948 66.4799 9.19443 68.7948 12.0391 68.7948H13.759V70.5147C13.759 71.225 13.9034 71.9026 14.1649 72.5201C6.12618 73.9596 0 80.987 0 89.4333C0 98.9166 7.71534 106.632 17.1987 106.632H89.4333C98.9166 106.632 106.632 98.9166 106.632 89.4333C106.632 80.987 100.506 73.9596 92.4671 72.5201ZM94.5929 65.3551H92.873V58.4756H94.5929C95.5423 58.4756 96.3128 59.2461 96.3128 60.1955V63.6352C96.3128 64.5846 95.5423 65.3551 94.5929 65.3551ZM83.9434 38.0177L83.7319 37.175C86.0761 36.0777 87.7134 33.7129 87.7134 30.9577H87.7942C89.0222 30.9577 90.1591 30.6017 91.1531 30.0238V32.6775C91.1531 35.2333 90.0163 37.6273 88.0832 39.2543C86.7726 38.7005 85.3916 38.2723 83.9434 38.0177ZM67.075 27.5179H66.9804C65.1367 27.5179 63.6352 25.9752 63.6352 24.0782C63.6352 22.1812 65.1367 20.6384 66.9804 20.6384H67.075V27.5179ZM70.5147 20.6384H84.2737V30.9577C84.2737 32.8547 82.7309 34.3974 80.8339 34.3974H73.9544C72.0574 34.3974 70.5147 32.8547 70.5147 30.9577V20.6384ZM87.7134 20.6384H87.7942C89.6465 20.6384 91.1531 22.1812 91.1531 24.0782C91.1531 25.9752 89.6465 27.5179 87.7942 27.5179H87.7134V20.6384ZM74.436 37.8372H80.3524L80.7204 39.3145C80.0393 40.5219 78.7924 41.2769 77.3942 41.2769C75.9959 41.2769 74.749 40.5219 74.0679 39.3145L74.436 37.8372ZM77.3942 3.43974C84.9805 3.43974 91.1531 9.61236 91.1531 17.1987V18.1326C90.1573 17.5547 89.0222 17.1987 87.7942 17.1987H87.7134H86.1002H85.9935C84.953 17.1987 84.2788 14.1425 84.2737 12.0374L80.8339 12.0391C80.8339 13.7796 81.0953 15.6491 81.7093 17.1987H79.114C78.0735 17.1987 77.3993 14.1425 77.3942 12.0374L73.9544 12.0391C73.9544 13.7796 74.2159 15.6491 74.8298 17.1987H72.2346C71.194 17.1987 70.5199 14.1425 70.5147 12.0374L67.075 12.0391C67.075 13.7796 67.3364 15.6491 67.9504 17.1987H67.075H66.9804C65.7575 17.1987 64.6259 17.553 63.6352 18.1292V17.1987C63.6352 9.61236 69.8078 3.43974 77.3942 3.43974ZM63.6352 32.6775V30.0272C64.6276 30.6034 65.7593 30.9577 66.9804 30.9577H67.075C67.075 33.7129 68.7123 36.0777 71.0564 37.175L70.8449 38.0177C69.3951 38.2706 68.0157 38.7005 66.7052 39.2543C64.7703 37.6273 63.6352 35.235 63.6352 32.6775ZM71.3213 41.442C72.6594 43.4783 74.9107 44.7166 77.3942 44.7166C79.8777 44.7166 82.129 43.4783 83.467 41.442C90.3637 42.7044 95.5698 48.3817 96.2388 55.33C95.7177 55.1528 95.1708 55.0359 94.5929 55.0359H92.873V53.316C92.873 50.4713 90.5581 48.1564 87.7134 48.1564H67.075C64.2303 48.1564 61.9153 50.4713 61.9153 53.316V55.0359H60.1955C59.6176 55.0359 59.0707 55.1528 58.5496 55.33C59.2186 48.3817 64.4229 42.7044 71.3213 41.442ZM75.6743 51.5961H79.114V55.0359H75.6743V51.5961ZM60.1955 65.3551C59.2461 65.3551 58.4756 64.5846 58.4756 63.6352V60.1955C58.4756 59.2461 59.2461 58.4756 60.1955 58.4756H61.9153V65.3551H60.1955ZM65.3551 70.5147V53.316C65.3551 52.3666 66.1256 51.5961 67.075 51.5961H72.2346V58.4756H82.5538V51.5961H87.7134C88.6628 51.5961 89.4333 52.3666 89.4333 53.316V70.5147C89.4333 71.4641 88.6628 72.2346 87.7134 72.2346H67.075C66.1256 72.2346 65.3551 71.4641 65.3551 70.5147ZM17.1987 70.5147V53.316C17.1987 52.3666 17.9692 51.5961 18.9186 51.5961H24.0782V58.4756H34.3974V51.5961H39.557C40.5064 51.5961 41.2769 52.3666 41.2769 53.316V70.5147C41.2769 71.4641 40.5064 72.2346 39.557 72.2346H18.9186C17.9692 72.2346 17.1987 71.4641 17.1987 70.5147ZM27.5179 51.5961H30.9577V55.0359H27.5179V51.5961ZM46.4365 65.3551H44.7166V58.4756H46.4365C47.3859 58.4756 48.1564 59.2461 48.1564 60.1955V63.6352C48.1564 64.5846 47.3859 65.3551 46.4365 65.3551ZM32.1943 37.8372L32.4918 39.0307L29.2378 42.2847L25.9838 39.0307L26.2813 37.8372H32.1943ZM39.6379 27.5179H39.557V20.6384H39.6379C41.4902 20.6384 42.9968 22.1812 42.9968 24.0782C42.9968 25.9752 41.4902 27.5179 39.6379 27.5179ZM18.824 27.5179C16.9803 27.5179 15.4788 25.9752 15.4788 24.0782C15.4788 22.1812 16.9803 20.6384 18.824 20.6384H18.9186V27.5179H18.824ZM20.1173 17.1987H18.824C17.6957 17.1987 16.6466 17.5066 15.7093 18.0019C15.5562 17.2262 15.4788 16.4334 15.4788 15.6336C15.4788 8.91065 20.9497 3.43974 27.6727 3.43974H29.9171C33.2245 3.43974 36.2927 5.08222 38.1261 7.83401L38.317 8.11951L38.6025 8.31041C41.3543 10.1438 42.9968 13.2138 42.9968 16.5194V17.1282C42.9968 17.4515 42.94 17.7645 42.909 18.0827C41.9339 17.5375 40.8297 17.1987 39.6379 17.1987H38.0762L25.5057 13.6059L20.1173 17.1987ZM22.3583 19.8387L26.0904 17.3518L36.1173 20.2154V30.9577C36.1173 32.8547 34.5746 34.3974 32.6775 34.3974H25.7981C23.901 34.3974 22.3583 32.8547 22.3583 30.9577V19.8387ZM23.4814 41.3921L29.2378 47.1485L34.9942 41.3921C42.0474 42.5376 47.4014 48.2768 48.0807 55.33C47.5613 55.1528 47.0144 55.0359 46.4365 55.0359H44.7166V53.316C44.7166 50.4713 42.4017 48.1564 39.557 48.1564H18.9186C16.0739 48.1564 13.759 50.4713 13.759 53.316V55.0359H12.0391C11.4612 55.0359 10.9143 55.1528 10.3932 55.33C11.0725 48.2768 16.4282 42.5358 23.4814 41.3921ZM12.0391 65.3551C11.0897 65.3551 10.3192 64.5846 10.3192 63.6352V60.1955C10.3192 59.2461 11.0897 58.4756 12.0391 58.4756H13.759V65.3551H12.0391ZM89.4333 103.192H17.1987C9.61236 103.192 3.43974 97.0196 3.43974 89.4333C3.43974 81.8469 9.61236 75.6743 17.1987 75.6743H18.9186H39.557H67.075H87.7134H89.4333C97.0196 75.6743 103.192 81.8469 103.192 89.4333C103.192 97.0196 97.0196 103.192 89.4333 103.192Z" fill="#878787"/>
</svg>
