<svg width="107" height="107" viewBox="0 0 107 107" fill="none" xmlns="http://www.w3.org/2000/svg">
<path d="M84.5646 84.5645C81.7101 84.5645 79.3872 86.8874 79.3872 89.7419C79.3872 92.5964 81.7101 94.9193 84.5646 94.9193C87.4191 94.9193 89.742 92.5964 89.742 89.7419C89.742 86.8874 87.4191 84.5645 84.5646 84.5645ZM84.5646 91.4677C83.612 91.4677 82.8388 90.6945 82.8388 89.7419C82.8388 88.7892 83.612 88.0161 84.5646 88.0161C85.5173 88.0161 86.2904 88.7892 86.2904 89.7419C86.2904 90.6945 85.5173 91.4677 84.5646 91.4677Z" fill="#009944"/>
<path d="M84.5645 77.6611C77.9046 77.6611 72.4839 83.0819 72.4839 89.7418C72.4839 96.4017 77.9046 101.822 84.5645 101.822C91.2244 101.822 96.6452 96.4017 96.6452 89.7418C96.6452 83.0819 91.2244 77.6611 84.5645 77.6611ZM84.5645 98.3708C79.8065 98.3708 75.9355 94.4998 75.9355 89.7418C75.9355 84.9837 79.8065 81.1127 84.5645 81.1127C89.3226 81.1127 93.1936 84.9837 93.1936 89.7418C93.1936 94.4998 89.3226 98.3708 84.5645 98.3708Z" fill="#009944"/>
<path d="M53.4999 84.5645C50.6454 84.5645 48.3225 86.8874 48.3225 89.7419C48.3225 92.5964 50.6454 94.9193 53.4999 94.9193C56.3544 94.9193 58.6773 92.5964 58.6773 89.7419C58.6773 86.8874 56.3544 84.5645 53.4999 84.5645ZM53.4999 91.4677C52.5473 91.4677 51.7741 90.6945 51.7741 89.7419C51.7741 88.7892 52.5473 88.0161 53.4999 88.0161C54.4526 88.0161 55.2257 88.7892 55.2257 89.7419C55.2257 90.6945 54.4526 91.4677 53.4999 91.4677Z" fill="#009944"/>
<path d="M53.5001 77.6611C46.8402 77.6611 41.4194 83.0819 41.4194 89.7418C41.4194 96.4017 46.8402 101.822 53.5001 101.822C60.16 101.822 65.5807 96.4017 65.5807 89.7418C65.5807 83.0819 60.16 77.6611 53.5001 77.6611ZM53.5001 98.3708C48.742 98.3708 44.871 94.4998 44.871 89.7418C44.871 84.9837 48.742 81.1127 53.5001 81.1127C58.2581 81.1127 62.1291 84.9837 62.1291 89.7418C62.1291 94.4998 58.2581 98.3708 53.5001 98.3708Z" fill="#009944"/>
<path d="M22.4355 84.5645C19.581 84.5645 17.2581 86.8874 17.2581 89.7419C17.2581 92.5964 19.581 94.9193 22.4355 94.9193C25.29 94.9193 27.6129 92.5964 27.6129 89.7419C27.6129 86.8874 25.29 84.5645 22.4355 84.5645ZM22.4355 91.4677C21.4828 91.4677 20.7097 90.6945 20.7097 89.7419C20.7097 88.7892 21.4828 88.0161 22.4355 88.0161C23.3881 88.0161 24.1613 88.7892 24.1613 89.7419C24.1613 90.6945 23.3881 91.4677 22.4355 91.4677Z" fill="#009944"/>
<path d="M22.4354 77.6611C15.7755 77.6611 10.3547 83.0819 10.3547 89.7418C10.3547 96.4017 15.7755 101.822 22.4354 101.822C29.0953 101.822 34.516 96.4017 34.516 89.7418C34.516 83.0819 29.0953 77.6611 22.4354 77.6611ZM22.4354 98.3708C17.6773 98.3708 13.8063 94.4998 13.8063 89.7418C13.8063 84.9837 17.6773 81.1127 22.4354 81.1127C27.1934 81.1127 31.0644 84.9837 31.0644 89.7418C31.0644 94.4998 27.1934 98.3708 22.4354 98.3708Z" fill="#009944"/>
<path d="M92.7863 72.7704C93.0486 72.1508 93.1936 71.4708 93.1936 70.7581V69.0323H94.9194C97.7738 69.0323 100.097 66.7093 100.097 63.8548V60.4032V57.0483C100.097 50.4384 96.7453 44.5672 91.5782 41.1087C93.6958 38.8841 94.9194 35.9261 94.9194 32.7903V17.2581C94.9194 7.74197 87.1774 0 77.6613 0C68.1452 0 60.4032 7.74197 60.4032 17.2581V32.7903C60.4032 35.9261 61.6268 38.8841 63.7427 41.1087C58.5773 44.5672 55.2258 50.4384 55.2258 57.0483V60.4032V63.8548C55.2258 66.7093 57.5487 69.0323 60.4032 69.0323H62.129V70.7581C62.129 71.3655 62.2533 71.942 62.4466 72.4839H44.5534C44.7467 71.942 44.871 71.3655 44.871 70.7581V69.0323H46.5968C49.4513 69.0323 51.7742 66.7093 51.7742 63.8548V60.4032V57.0483C51.7742 47.6651 45.0349 39.7453 35.9089 38.1507L35.6966 37.305C38.0506 36.2022 39.6936 33.8293 39.6936 31.0645H39.7747C43.5369 31.0645 46.5968 27.9684 46.5968 24.1613C46.5968 23.1241 46.3534 22.149 45.9461 21.2654C46.369 19.9469 46.5968 18.5818 46.5968 17.189V16.5781C46.5968 12.2187 44.4861 8.16306 40.9361 5.66237C38.4354 2.11066 34.3798 0 30.0204 0H27.7682C19.1185 0 12.0806 7.03784 12.0806 15.6876C12.0806 17.4496 12.3896 19.172 12.9643 20.827C12.4189 21.8194 12.0806 22.9463 12.0806 24.1613C12.0806 27.9684 15.1353 31.0645 18.889 31.0645H18.9839C18.9839 33.8293 20.6268 36.2022 22.9808 37.3033L22.7686 38.149C13.6425 39.7436 6.90323 47.6651 6.90323 57.0483V60.4032V63.8548C6.90323 66.7093 9.22616 69.0323 12.0806 69.0323H13.8065V70.7581C13.8065 71.4708 13.9514 72.1508 14.2137 72.7704C6.14732 74.2149 0 81.2665 0 89.7419C0 99.258 7.74197 107 17.2581 107H89.7419C99.258 107 107 99.258 107 89.7419C107 81.2665 100.853 74.2149 92.7863 72.7704ZM94.9194 65.5806H93.1936V58.6774H94.9194C95.872 58.6774 96.6452 59.4506 96.6452 60.4032V63.8548C96.6452 64.8075 95.872 65.5806 94.9194 65.5806ZM84.2332 38.149L84.0209 37.3033C86.3732 36.2022 88.0161 33.8293 88.0161 31.0645H88.0972C89.3295 31.0645 90.4702 30.7073 91.4677 30.1274V32.7903C91.4677 35.3549 90.327 37.7572 88.3872 39.3898C87.0721 38.8341 85.6863 38.4044 84.2332 38.149ZM67.3064 27.6129H67.2115C65.3615 27.6129 63.8548 26.0649 63.8548 24.1613C63.8548 22.2577 65.3615 20.7097 67.2115 20.7097H67.3064V27.6129ZM70.7581 20.7097H84.5645V31.0645C84.5645 32.9681 83.0165 34.5161 81.1129 34.5161H74.2097C72.3061 34.5161 70.7581 32.9681 70.7581 31.0645V20.7097ZM88.0161 20.7097H88.0972C89.9559 20.7097 91.4677 22.2577 91.4677 24.1613C91.4677 26.0649 89.9559 27.6129 88.0972 27.6129H88.0161V20.7097ZM74.6929 37.9677H80.6297L80.999 39.4502C80.3156 40.6617 79.0644 41.4194 77.6613 41.4194C76.2582 41.4194 75.007 40.6617 74.3236 39.4502L74.6929 37.9677ZM77.6613 3.45161C85.2738 3.45161 91.4677 9.64553 91.4677 17.2581V18.1952C90.4685 17.6153 89.3295 17.2581 88.0972 17.2581H88.0161H86.3973H86.2903C85.2462 17.2581 84.5697 14.1913 84.5645 12.0789L81.1129 12.0806C81.1129 13.8272 81.3752 15.7031 81.9913 17.2581H79.3871C78.343 17.2581 77.6665 14.1913 77.6613 12.0789L74.2097 12.0806C74.2097 13.8272 74.472 15.7031 75.0881 17.2581H72.4839C71.4398 17.2581 70.7632 14.1913 70.7581 12.0789L67.3064 12.0806C67.3064 13.8272 67.5688 15.7031 68.1849 17.2581H67.3064H67.2115C65.9845 17.2581 64.8489 17.6136 63.8548 18.1917V17.2581C63.8548 9.64553 70.0488 3.45161 77.6613 3.45161ZM63.8548 32.7903V30.1309C64.8506 30.709 65.9862 31.0645 67.2115 31.0645H67.3064C67.3064 33.8293 68.9494 36.2022 71.3017 37.3033L71.0894 38.149C69.6346 38.4026 68.2505 38.8341 66.9354 39.3898C64.9939 37.7572 63.8548 35.3566 63.8548 32.7903ZM71.5675 41.585C72.9101 43.6284 75.1692 44.871 77.6613 44.871C80.1534 44.871 82.4124 43.6284 83.7551 41.585C90.6756 42.8518 95.8996 48.5487 96.571 55.5209C96.048 55.3432 95.4992 55.2258 94.9194 55.2258H93.1936V53.5C93.1936 50.6455 90.8706 48.3226 88.0161 48.3226H67.3064C64.452 48.3226 62.129 50.6455 62.129 53.5V55.2258H60.4032C59.8234 55.2258 59.2745 55.3432 58.7516 55.5209C59.423 48.5487 64.6453 42.8518 71.5675 41.585ZM75.9355 51.7742H79.3871V55.2258H75.9355V51.7742ZM60.4032 65.5806C59.4506 65.5806 58.6774 64.8075 58.6774 63.8548V60.4032C58.6774 59.4506 59.4506 58.6774 60.4032 58.6774H62.129V65.5806H60.4032ZM65.5806 70.7581V53.5C65.5806 52.5474 66.3538 51.7742 67.3064 51.7742H72.4839V58.6774H82.8387V51.7742H88.0161C88.9688 51.7742 89.7419 52.5474 89.7419 53.5V70.7581C89.7419 71.7107 88.9688 72.4839 88.0161 72.4839H67.3064C66.3538 72.4839 65.5806 71.7107 65.5806 70.7581ZM17.2581 70.7581V53.5C17.2581 52.5474 18.0312 51.7742 18.9839 51.7742H24.1613V58.6774H34.5161V51.7742H39.6936C40.6462 51.7742 41.4194 52.5474 41.4194 53.5V70.7581C41.4194 71.7107 40.6462 72.4839 39.6936 72.4839H18.9839C18.0312 72.4839 17.2581 71.7107 17.2581 70.7581ZM27.6129 51.7742H31.0645V55.2258H27.6129V51.7742ZM46.5968 65.5806H44.871V58.6774H46.5968C47.5494 58.6774 48.3226 59.4506 48.3226 60.4032V63.8548C48.3226 64.8075 47.5494 65.5806 46.5968 65.5806ZM32.3054 37.9677L32.6039 39.1655L29.3387 42.4307L26.0735 39.1655L26.372 37.9677H32.3054ZM39.7747 27.6129H39.6936V20.7097H39.7747C41.6334 20.7097 43.1452 22.2577 43.1452 24.1613C43.1452 26.0649 41.6334 27.6129 39.7747 27.6129ZM18.889 27.6129C17.0389 27.6129 15.5323 26.0649 15.5323 24.1613C15.5323 22.2577 17.0389 20.7097 18.889 20.7097H18.9839V27.6129H18.889ZM20.1868 17.2581H18.889C17.7568 17.2581 16.7041 17.567 15.7635 18.064C15.6099 17.2857 15.5323 16.4901 15.5323 15.6876C15.5323 8.9414 21.022 3.45161 27.7682 3.45161H30.0204C33.3391 3.45161 36.418 5.09976 38.2577 7.86105L38.4492 8.14753L38.7357 8.3391C41.497 10.1788 43.1452 13.2594 43.1452 16.5764V17.1873C43.1452 17.5118 43.0882 17.8259 43.0571 18.1451C42.0786 17.598 40.9706 17.2581 39.7747 17.2581H38.2076L25.5937 13.6529L20.1868 17.2581ZM22.4355 19.9072L26.1805 17.4117L36.2419 20.2851V31.0645C36.2419 32.9681 34.6939 34.5161 32.7903 34.5161H25.8871C23.9835 34.5161 22.4355 32.9681 22.4355 31.0645V19.9072ZM23.5624 41.535L29.3387 47.3113L35.115 41.535C42.1925 42.6844 47.565 48.4434 48.2466 55.5209C47.7255 55.3432 47.1766 55.2258 46.5968 55.2258H44.871V53.5C44.871 50.6455 42.548 48.3226 39.6936 48.3226H18.9839C16.1294 48.3226 13.8065 50.6455 13.8065 53.5V55.2258H12.0806C11.5008 55.2258 10.952 55.3432 10.429 55.5209C11.1107 48.4434 16.4849 42.6826 23.5624 41.535ZM12.0806 65.5806C11.128 65.5806 10.3548 64.8075 10.3548 63.8548V60.4032C10.3548 59.4506 11.128 58.6774 12.0806 58.6774H13.8065V65.5806H12.0806ZM89.7419 103.548H17.2581C9.64553 103.548 3.45161 97.3545 3.45161 89.7419C3.45161 82.1294 9.64553 75.9355 17.2581 75.9355H18.9839H39.6936H67.3064H88.0161H89.7419C97.3545 75.9355 103.548 82.1294 103.548 89.7419C103.548 97.3545 97.3545 103.548 89.7419 103.548Z" fill="#009944"/>
</svg>
