<svg width="78" height="78" viewBox="0 0 78 78" fill="none" xmlns="http://www.w3.org/2000/svg">
<circle cx="38.9998" cy="39.0008" r="34.0213" fill="#009944"/>
<circle cx="39" cy="39" r="38.5" stroke="#009944" stroke-dasharray="3 3"/>
<path d="M37.584 46.5208H27.3757C27.1823 46.5208 26.9968 46.5976 26.8601 46.7343C26.7233 46.8711 26.6465 47.0565 26.6465 47.2499C26.6465 47.4433 26.7233 47.6288 26.8601 47.7655C26.9968 47.9023 27.1823 47.9791 27.3757 47.9791H37.584C37.7774 47.9791 37.9628 47.9023 38.0996 47.7655C38.2363 47.6288 38.3132 47.4433 38.3132 47.2499C38.3132 47.0565 38.2363 46.8711 38.0996 46.7343C37.9628 46.5976 37.7774 46.5208 37.584 46.5208Z" fill="white"/>
<path d="M37.584 50.1667H27.3757C27.1823 50.1667 26.9968 50.2436 26.8601 50.3803C26.7233 50.5171 26.6465 50.7025 26.6465 50.8959C26.6465 51.0893 26.7233 51.2748 26.8601 51.4115C26.9968 51.5483 27.1823 51.6251 27.3757 51.6251H37.584C37.7774 51.6251 37.9628 51.5483 38.0996 51.4115C38.2363 51.2748 38.3132 51.0893 38.3132 50.8959C38.3132 50.7025 38.2363 50.5171 38.0996 50.3803C37.9628 50.2436 37.7774 50.1667 37.584 50.1667Z" fill="white"/>
<path d="M37.584 42.875H27.3757C27.1823 42.875 26.9968 42.9518 26.8601 43.0886C26.7233 43.2253 26.6465 43.4108 26.6465 43.6042C26.6465 43.7976 26.7233 43.983 26.8601 44.1198C26.9968 44.2565 27.1823 44.3333 27.3757 44.3333H37.584C37.7774 44.3333 37.9628 44.2565 38.0996 44.1198C38.2363 43.983 38.3132 43.7976 38.3132 43.6042C38.3132 43.4108 38.2363 43.2253 38.0996 43.0886C37.9628 42.9518 37.7774 42.875 37.584 42.875Z" fill="white"/>
<path d="M27.3757 40.6876H33.209C33.4024 40.6876 33.5878 40.6108 33.7246 40.474C33.8613 40.3373 33.9382 40.1518 33.9382 39.9584C33.9382 39.765 33.8613 39.5796 33.7246 39.4428C33.5878 39.3061 33.4024 39.2292 33.209 39.2292H27.3757C27.1823 39.2292 26.9968 39.3061 26.8601 39.4428C26.7233 39.5796 26.6465 39.765 26.6465 39.9584C26.6465 40.1518 26.7233 40.3373 26.8601 40.474C26.9968 40.6108 27.1823 40.6876 27.3757 40.6876Z" fill="white"/>
<path d="M55.0833 45.7917C55.0834 43.984 54.4119 42.2408 53.1993 40.9002C51.9867 39.5596 50.3194 38.7172 48.5208 38.5365V28.2917H53.625C53.8184 28.2917 54.0039 28.2148 54.1406 28.0781C54.2773 27.9414 54.3542 27.7559 54.3542 27.5625V24.6458C54.3542 23.6789 53.9701 22.7516 53.2863 22.0678C52.6026 21.3841 51.6753 21 50.7083 21H26.6458C25.6789 21 24.7516 21.3841 24.0678 22.0678C23.3841 22.7516 23 23.6789 23 24.6458V55.2708C23 55.4642 23.0768 55.6497 23.2136 55.7864C23.3503 55.9232 23.5358 56 23.7292 56H47.7917C47.9851 56 48.1705 55.9232 48.3073 55.7864C48.444 55.6497 48.5208 55.4642 48.5208 55.2708V53.0833C50.3257 52.902 51.9981 52.0544 53.2116 50.7061C54.4251 49.3578 55.0924 47.6056 55.0833 45.7917ZM52.8958 24.6458V26.8333H48.5208V24.6458C48.5208 24.0657 48.7513 23.5093 49.1615 23.099C49.5718 22.6888 50.1282 22.4583 50.7083 22.4583C51.2885 22.4583 51.8449 22.6888 52.2551 23.099C52.6654 23.5093 52.8958 24.0657 52.8958 24.6458ZM24.4583 54.5417V24.6458C24.4583 24.0657 24.6888 23.5093 25.099 23.099C25.5093 22.6888 26.0657 22.4583 26.6458 22.4583H47.7917C46.7927 23.7781 47.0625 23.1875 47.0625 38.5365C45.2224 38.6668 43.5002 39.4897 42.2427 40.8394C40.9853 42.1891 40.2861 43.9652 40.2861 45.8099C40.2861 47.6546 40.9853 49.4307 42.2427 50.7804C43.5002 52.1301 45.2224 52.953 47.0625 53.0833V54.5417H24.4583ZM47.7917 51.625C46.6379 51.625 45.5101 51.2829 44.5508 50.6419C43.5916 50.0009 42.8439 49.0899 42.4024 48.024C41.9609 46.9581 41.8453 45.7852 42.0704 44.6536C42.2955 43.5221 42.8511 42.4827 43.6669 41.6669C44.4827 40.8511 45.5221 40.2955 46.6536 40.0704C47.7852 39.8453 48.9581 39.9609 50.024 40.4024C51.0899 40.8439 52.0009 41.5916 52.6419 42.5508C53.2829 43.5101 53.625 44.6379 53.625 45.7917C53.625 47.3388 53.0104 48.8225 51.9165 49.9165C50.8225 51.0104 49.3388 51.625 47.7917 51.625Z" fill="white"/>
<path d="M28.1042 29.0208H29.5625V34.125C29.5625 34.3184 29.6393 34.5039 29.7761 34.6406C29.9128 34.7773 30.0983 34.8542 30.2917 34.8542C30.4851 34.8542 30.6705 34.7773 30.8073 34.6406C30.944 34.5039 31.0208 34.3184 31.0208 34.125V29.0208H32.4792C32.6726 29.0208 32.858 28.944 32.9948 28.8073C33.1315 28.6705 33.2083 28.4851 33.2083 28.2917C33.2083 28.0983 33.1315 27.9128 32.9948 27.7761C32.858 27.6393 32.6726 27.5625 32.4792 27.5625H28.1042C27.9108 27.5625 27.7253 27.6393 27.5886 27.7761C27.4518 27.9128 27.375 28.0983 27.375 28.2917C27.375 28.4851 27.4518 28.6705 27.5886 28.8073C27.7253 28.944 27.9108 29.0208 28.1042 29.0208Z" fill="white"/>
<path d="M36.8094 28.0365C36.7583 27.8958 36.6651 27.7742 36.5425 27.6882C36.4198 27.6023 36.2737 27.5562 36.124 27.5562C35.9742 27.5562 35.8281 27.6023 35.7055 27.6882C35.5828 27.7742 35.4896 27.8958 35.4385 28.0365L33.251 33.8699C33.1834 34.0517 33.1907 34.2529 33.2713 34.4293C33.352 34.6057 33.4995 34.7428 33.6813 34.8105C33.863 34.8782 34.0643 34.8709 34.2407 34.7902C34.4171 34.7095 34.5542 34.5621 34.6219 34.3803L34.9865 33.3959H37.2615L37.626 34.3803C37.6937 34.5621 37.8309 34.7095 38.0073 34.7902C38.1837 34.8709 38.3849 34.8782 38.5667 34.8105C38.7485 34.7428 38.8959 34.6057 38.9766 34.4293C39.0573 34.2529 39.0646 34.0517 38.9969 33.8699L36.8094 28.0365ZM35.5333 31.9376L36.124 30.3699L36.7146 31.9376H35.5333Z" fill="white"/>
<path d="M41.1489 34.4532L41.9582 32.8417L42.7676 34.4532C42.8625 34.6109 43.0136 34.7269 43.1905 34.7779C43.3675 34.8289 43.5571 34.811 43.7214 34.7279C43.8857 34.6449 44.0125 34.5027 44.0763 34.33C44.1402 34.1573 44.1363 33.9669 44.0655 33.7969L42.7749 31.2084L44.0655 28.6198C44.1363 28.4499 44.1402 28.2594 44.0763 28.0867C44.0125 27.914 43.8857 27.7719 43.7214 27.6888C43.5571 27.6057 43.3675 27.5879 43.1905 27.6388C43.0136 27.6898 42.8625 27.8058 42.7676 27.9636L41.9582 29.575L41.1489 27.9636C41.0539 27.8058 40.9029 27.6898 40.7259 27.6388C40.549 27.5879 40.3594 27.6057 40.1951 27.6888C40.0308 27.7719 39.904 27.914 39.8401 28.0867C39.7763 28.2594 39.7802 28.4499 39.851 28.6198L41.1416 31.2084L39.851 33.7969C39.7802 33.9669 39.7763 34.1573 39.8401 34.33C39.904 34.5027 40.0308 34.6449 40.1951 34.7279C40.3594 34.811 40.549 34.8289 40.7259 34.7779C40.9029 34.7269 41.0539 34.6109 41.1489 34.4532Z" fill="white"/>
<path d="M45.6048 45.0624C46.4102 45.0624 47.0632 44.4095 47.0632 43.6041C47.0632 42.7987 46.4102 42.1458 45.6048 42.1458C44.7994 42.1458 44.1465 42.7987 44.1465 43.6041C44.1465 44.4095 44.7994 45.0624 45.6048 45.0624Z" fill="white"/>
<path d="M49.9798 49.4374C50.7852 49.4374 51.4382 48.7845 51.4382 47.9791C51.4382 47.1737 50.7852 46.5208 49.9798 46.5208C49.1744 46.5208 48.5215 47.1737 48.5215 47.9791C48.5215 48.7845 49.1744 49.4374 49.9798 49.4374Z" fill="white"/>
<path d="M49.5562 42.4229L44.8895 48.2562C44.8047 48.3635 44.7518 48.4924 44.7368 48.6283C44.7218 48.7641 44.7453 48.9015 44.8046 49.0247C44.8639 49.1478 44.9566 49.2518 45.0722 49.3248C45.1878 49.3978 45.3215 49.4369 45.4582 49.4375C45.9614 49.4375 45.7207 49.5542 50.6937 43.3344C50.8074 43.1829 50.8578 42.9931 50.8341 42.8051C50.8104 42.6172 50.7145 42.4458 50.5666 42.3274C50.4188 42.2089 50.2306 42.1526 50.042 42.1705C49.8534 42.1883 49.6792 42.2788 49.5562 42.4229Z" fill="white"/>
</svg>
