<svg width="78" height="78" viewBox="0 0 78 78" fill="none" xmlns="http://www.w3.org/2000/svg">
<circle cx="38.9998" cy="39.0008" r="34.0213" fill="#009944"/>
<circle cx="39" cy="39" r="38.5" stroke="#009944" stroke-dasharray="3 3"/>
<g clip-path="url(#clip0_774_1634)">
<path d="M29.2687 53.4868C29.121 53.4868 28.8257 53.3391 28.678 53.1914C28.3827 52.8961 28.3827 52.4531 28.678 52.1578C29.2687 51.5671 29.564 50.9764 29.564 50.2381C29.564 49.4998 29.2687 48.7614 28.678 48.3184C28.3827 48.0231 28.3827 47.5801 28.678 47.2848L31.6314 43.4454C31.9267 43.0024 32.0744 42.4118 31.779 41.8211C31.779 41.6734 31.779 41.6734 31.6314 41.6734C31.6314 41.6734 31.4837 41.6734 31.336 41.8211L25.8724 47.1371C25.577 47.4324 25.134 47.4324 24.8387 47.1371C24.5434 46.8418 24.5434 46.3988 24.8387 46.1034L30.3024 40.7874C30.7454 40.3444 31.336 40.1968 31.9267 40.1968C32.5174 40.3444 32.9604 40.6398 33.2557 41.0828C33.8464 42.1164 33.6987 43.2978 32.9604 44.1838L30.3024 47.5801C30.893 48.3184 31.1884 49.2044 31.1884 50.0904C31.1884 51.2718 30.7454 52.3054 29.8594 53.1914C29.7117 53.4868 29.564 53.4868 29.2687 53.4868Z" fill="white"/>
<path d="M33.5517 56.4401H21.7383C21.2953 56.4401 21 56.1447 21 55.7017V48.4661C21 45.9557 22.0337 43.5931 23.8057 41.6734L26.6113 38.8677C26.9067 38.5724 27.3497 38.5724 27.645 38.8677C27.9403 39.1631 27.9403 39.6061 27.645 39.9014L24.8393 42.7071C23.3627 44.1837 22.4767 46.2511 22.4767 48.4661V54.9634H32.8133V53.6344C32.8133 53.3391 32.961 53.1914 33.1087 53.0437C34.29 52.3054 34.8807 51.1241 35.0283 49.7951C35.0283 49.3521 35.3237 49.0567 35.7667 49.0567C36.2097 49.0567 36.505 49.3521 36.505 49.7951C36.505 51.4194 35.619 53.0437 34.29 54.0774V55.7017C34.29 56.1447 33.9947 56.4401 33.5517 56.4401Z" fill="white"/>
<path d="M45.8072 37.2433C45.6595 37.2433 45.6595 37.2433 45.5118 37.2433C44.9212 37.0956 44.4782 36.8003 44.1828 36.3573C43.5922 35.3236 43.7398 34.1423 44.4782 33.2563L47.1362 29.8599C46.5455 29.1216 46.2502 28.2356 46.2502 27.3496C46.2502 26.1683 46.6932 25.1346 47.5792 24.2486C47.8745 23.9533 48.3175 23.9533 48.6128 24.2486C48.9082 24.5439 48.9082 24.9869 48.6128 25.2823C48.0222 25.8729 47.7268 26.4636 47.7268 27.2019C47.7268 27.9403 48.0222 28.6786 48.6128 29.1216C48.9082 29.4169 48.9082 29.8599 48.6128 30.1553L45.6595 33.9946C45.3642 34.4376 45.2165 35.0283 45.5118 35.6189C45.5118 35.7666 45.6595 35.7666 45.8072 35.7666C45.8072 35.7666 45.9548 35.7666 46.1025 35.6189L51.5662 30.3029C51.8615 30.0076 52.3045 30.0076 52.5998 30.3029C52.8952 30.5983 52.8952 31.0413 52.5998 31.3366L47.1362 36.6526C46.6932 37.0956 46.2502 37.2433 45.8072 37.2433Z" fill="white"/>
<path d="M50.3862 38.72C50.2385 38.72 49.9432 38.72 49.9432 38.5723C49.6479 38.277 49.6479 37.834 49.9432 37.5387L52.7489 34.733C54.2255 33.2563 55.1115 31.189 55.1115 28.974V22.4767H44.7749V23.8057C44.7749 24.101 44.6272 24.2487 44.4795 24.3963C43.2982 25.1347 42.7075 26.316 42.5599 27.645C42.4122 28.088 42.1169 28.3833 41.6739 28.3833C41.2309 28.3833 40.9355 28.088 40.9355 27.645C40.9355 26.0207 41.8215 24.3963 43.1505 23.3627V21.7383C43.1505 21.2953 43.4459 21 43.8889 21H55.7022C56.1452 21 56.4405 21.2953 56.4405 21.7383V28.974C56.4405 31.4843 55.4069 33.847 53.6349 35.7667L50.8292 38.5723C50.8292 38.5723 50.5339 38.72 50.3862 38.72Z" fill="white"/>
<path d="M27.6446 45.0697C27.2016 45.0697 26.9062 44.7744 26.9062 44.3314V27.6451C26.9062 27.2021 27.2016 26.9067 27.6446 26.9067H46.9889C47.4319 26.9067 47.7272 27.2021 47.7272 27.6451C47.7272 28.0881 47.4319 28.3834 46.9889 28.3834H28.3829V44.3314C28.3829 44.7744 28.0876 45.0697 27.6446 45.0697Z" fill="white"/>
<path d="M49.7948 50.5334H30.5981C30.4505 50.5334 30.3028 50.5334 30.1551 50.5334C29.7121 50.3857 29.5645 50.0904 29.5645 49.6474C29.5645 49.2044 30.0075 49.0567 30.4505 49.0567H49.0565V33.1087C49.0565 32.6657 49.3518 32.3704 49.7948 32.3704C50.2378 32.3704 50.5331 32.6657 50.5331 33.1087V49.795C50.5331 50.238 50.2378 50.5334 49.7948 50.5334Z" fill="white"/>
</g>
<defs>
<clipPath id="clip0_774_1634">
<rect width="35.44" height="35.44" fill="white" transform="translate(21 21)"/>
</clipPath>
</defs>
</svg>
