<svg width="78" height="78" viewBox="0 0 78 78" fill="none" xmlns="http://www.w3.org/2000/svg">
<circle cx="39.0213" cy="39.0213" r="34.0213" fill="#009944"/>
<circle cx="39" cy="39" r="38.5" stroke="#009944" stroke-dasharray="3 3"/>
<path d="M52.0364 29.5053L44.7447 22.2136C44.608 22.0769 44.4228 22 44.2291 22H28.9166C27.3088 22 26 23.3081 26 24.9167V54.0834C26 55.6919 27.3088 57 28.9167 57H49.3334C50.9412 57 52.25 55.6919 52.25 54.0833V30.0208C52.25 29.8271 52.1731 29.642 52.0364 29.5053ZM44.9583 24.4894L49.7606 29.2917H46.4166C45.612 29.2917 44.9583 28.6373 44.9583 27.8334V24.4894ZM50.7917 54.0833C50.7917 54.8872 50.138 55.5416 49.3334 55.5416H28.9167C28.112 55.5416 27.4584 54.8872 27.4584 54.0833V24.9167C27.4584 24.1128 28.1121 23.4584 28.9167 23.4584H43.5V27.8334C43.5 29.4419 44.8088 30.75 46.4167 30.75H50.7917V54.0833Z" fill="white"/>
<path d="M47.1458 42.4165H31.1042C30.7011 42.4165 30.375 42.7426 30.375 43.1457C30.375 43.5487 30.7011 43.8749 31.1042 43.8749H47.1459C47.5489 43.8749 47.8751 43.5487 47.8751 43.1457C47.875 42.7426 47.5489 42.4165 47.1458 42.4165Z" fill="white"/>
<path d="M47.1458 38.0415H31.1042C30.7011 38.0415 30.375 38.3676 30.375 38.7707C30.375 39.1737 30.7011 39.4999 31.1042 39.4999H47.1459C47.5489 39.4999 47.8751 39.1737 47.8751 38.7707C47.875 38.3676 47.5489 38.0415 47.1458 38.0415Z" fill="white"/>
<path d="M47.1458 46.7915H31.1042C30.7011 46.7915 30.375 47.1176 30.375 47.5207C30.375 47.9237 30.7011 48.2499 31.1042 48.2499H47.1459C47.5489 48.2499 47.8751 47.9237 47.8751 47.5207C47.875 47.1176 47.5489 46.7915 47.1458 46.7915Z" fill="white"/>
<path d="M39.8542 51.1665H31.1042C30.7011 51.1665 30.375 51.4926 30.375 51.8957C30.375 52.2987 30.7011 52.6249 31.1042 52.6249H39.8542C40.2572 52.6249 40.5834 52.2987 40.5834 51.8957C40.5833 51.4926 40.2572 51.1665 39.8542 51.1665Z" fill="white"/>
<path d="M37.668 34.3957C37.668 34.7987 37.9941 35.1249 38.3972 35.1249H47.1472C47.5502 35.1249 47.8763 34.7987 47.8763 34.3957C47.8763 33.9926 47.5502 33.6665 47.1472 33.6665H38.3972C37.9941 33.6666 37.668 33.9927 37.668 34.3957Z" fill="white"/>
<path d="M32.5625 33.6666H31.1042C30.7011 33.6666 30.375 33.9928 30.375 34.3958C30.375 34.7989 30.7011 35.125 31.1042 35.125H31.8334C31.8334 35.5281 32.1595 35.8542 32.5626 35.8542C32.9656 35.8542 33.2918 35.5281 33.2918 35.125V34.9907C34.1386 34.6886 34.75 33.8868 34.75 32.9375C34.75 31.7312 33.7688 30.75 32.5625 30.75C32.1609 30.75 31.8333 30.4231 31.8333 30.0208C31.8333 29.6185 32.1609 29.2916 32.5625 29.2916H34.0208C34.4239 29.2916 34.75 28.9654 34.75 28.5624C34.75 28.1593 34.4239 27.8332 34.0208 27.8332H33.2916C33.2916 27.4301 32.9655 27.104 32.5624 27.104C32.1594 27.104 31.8332 27.4301 31.8332 27.8332V27.9675C30.9864 28.2696 30.375 29.0714 30.375 30.0208C30.375 31.227 31.3562 32.2083 32.5625 32.2083C32.9641 32.2083 33.2917 32.5351 33.2917 32.9375C33.2917 33.3398 32.9641 33.6666 32.5625 33.6666Z" fill="white"/>
</svg>
