<svg width="78" height="78" viewBox="0 0 78 78" fill="none" xmlns="http://www.w3.org/2000/svg">
<circle cx="38.9998" cy="39.0008" r="34.0213" fill="#009944"/>
<circle cx="39" cy="39" r="38.5" stroke="#009944" stroke-dasharray="3 3"/>
<g clip-path="url(#clip0_412_1097)">
<path d="M31.6651 24.9856C31.5377 24.801 31.3051 24.7208 31.0906 24.7875C30.8764 24.8543 30.7305 25.0526 30.7305 25.277V28.1594C30.7305 28.4426 30.96 28.6721 31.2432 28.6721C31.5264 28.6721 31.7559 28.4426 31.7559 28.1594V26.9215L32.7703 28.3905C32.9127 28.5965 33.1624 28.6866 33.3911 28.6151C33.627 28.5415 33.7795 28.3243 33.7795 28.0571L33.7525 25.2666C33.7498 24.9851 33.5208 24.7588 33.2399 24.7588C33.2383 24.7588 33.2365 24.7588 33.2349 24.7588C32.9517 24.7615 32.7244 24.9933 32.7271 25.2764L32.7394 26.5413L31.6651 24.9856Z" fill="white"/>
<path d="M29.8086 28.1594V25.2715C29.8086 24.9883 29.5791 24.7588 29.2959 24.7588C29.0127 24.7588 28.7832 24.9883 28.7832 25.2715V28.1593C28.7832 28.4425 29.0127 28.672 29.2959 28.672C29.5791 28.672 29.8086 28.4425 29.8086 28.1594Z" fill="white"/>
<path d="M42.5674 24.7588C42.2842 24.7588 42.0547 24.9883 42.0547 25.2715V28.1593C42.0547 28.4425 42.2842 28.672 42.5674 28.672C42.8506 28.672 43.0801 28.4425 43.0801 28.1593V25.2715C43.0801 24.9883 42.8506 24.7588 42.5674 24.7588Z" fill="white"/>
<path d="M49.7028 25.7976C49.986 25.7976 50.2155 25.5681 50.2155 25.2849C50.2155 25.0017 49.986 24.7722 49.7028 24.7722H48.4971C48.2139 24.7722 47.9844 25.0017 47.9844 25.2849V28.1463C47.9844 28.4295 48.2139 28.659 48.4971 28.659H49.7028C49.986 28.659 50.2155 28.4295 50.2155 28.1463C50.2155 27.8631 49.986 27.6336 49.7028 27.6336H49.0098V27.2283H49.6139C49.8971 27.2283 50.1266 26.9988 50.1266 26.7156C50.1266 26.4324 49.8971 26.2029 49.6139 26.2029H49.0098V25.7975H49.7028V25.7976Z" fill="white"/>
<path d="M45.863 25.7842C46.0496 25.7842 46.2295 25.8391 46.3833 25.943C46.6179 26.1014 46.9366 26.0398 47.0951 25.8051C47.2535 25.5704 47.1919 25.2517 46.9572 25.0933C46.6333 24.8745 46.2549 24.7588 45.8629 24.7588C44.784 24.7588 43.9062 25.6365 43.9062 26.7154C43.9062 27.7943 44.784 28.672 45.8629 28.672C46.2986 28.672 46.6905 28.528 46.9962 28.2556C47.0563 28.2021 47.1133 28.1433 47.1656 28.081C47.3474 27.8639 47.3189 27.5406 47.1018 27.3587C46.8847 27.1769 46.5615 27.2055 46.3796 27.4224C46.3593 27.4466 46.3375 27.4692 46.3143 27.4898C46.1975 27.5939 46.0456 27.6466 45.8629 27.6466C45.3494 27.6466 44.9316 27.229 44.9316 26.7154C44.9316 26.2019 45.3495 25.7842 45.863 25.7842Z" fill="white"/>
<path d="M35.7822 28.6722H35.786C36.0319 28.6706 36.2501 28.5132 36.3305 28.277L37.2734 25.4386C37.3627 25.1699 37.2173 24.8797 36.9485 24.7905C36.68 24.7013 36.3896 24.8467 36.3004 25.1154L35.773 26.7029L35.2178 25.1036C35.125 24.8361 34.8327 24.6943 34.5654 24.7874C34.2979 24.8802 34.1564 25.1723 34.2492 25.4398L35.2377 28.2877C35.3194 28.5182 35.538 28.6722 35.7822 28.6722Z" fill="white"/>
<path d="M41.2237 26.7154C41.2237 25.6365 40.346 24.7588 39.2671 24.7588C38.1883 24.7588 37.3105 25.6365 37.3105 26.7154C37.3105 27.7943 38.1883 28.672 39.2671 28.672C40.346 28.672 41.2237 27.7944 41.2237 26.7154ZM38.3359 26.7154C38.3359 26.2019 38.7536 25.7842 39.2671 25.7842C39.7806 25.7842 40.1983 26.2019 40.1983 26.7154C40.1983 27.229 39.7806 27.6466 39.2671 27.6466C38.7536 27.6466 38.3359 27.229 38.3359 26.7154Z" fill="white"/>
<path d="M43.0234 31.3105C43.0234 31.5938 43.2529 31.8232 43.5361 31.8232H49.7041C49.9873 31.8232 50.2168 31.5938 50.2168 31.3105C50.2168 31.0273 49.9873 30.7979 49.7041 30.7979H43.5361C43.2529 30.7979 43.0234 31.0274 43.0234 31.3105Z" fill="white"/>
<path d="M49.7034 33.0632H47.0693C46.7861 33.0632 46.5566 33.2927 46.5566 33.5759C46.5566 33.8591 46.7861 34.0886 47.0693 34.0886H49.7034C49.9867 34.0886 50.2161 33.8591 50.2161 33.5759C50.2161 33.2927 49.9867 33.0632 49.7034 33.0632Z" fill="white"/>
<path d="M49.0196 53.0195C48.8669 53.0195 48.7711 52.9118 48.542 52.5656C48.3012 52.202 47.9374 51.6523 47.2094 51.6523C46.4814 51.6523 46.1176 52.202 45.8768 52.5656C45.6477 52.9117 45.5519 53.0195 45.3992 53.0195C45.2465 53.0195 45.1506 52.9117 44.9214 52.5656C44.6807 52.2019 44.3168 51.6523 43.5887 51.6523C42.8607 51.6523 42.4968 52.202 42.256 52.5656C42.0268 52.9117 41.931 53.0195 41.7783 53.0195C41.4951 53.0195 41.2656 53.249 41.2656 53.5322C41.2656 53.8154 41.4951 54.0449 41.7783 54.0449C42.5063 54.0449 42.8703 53.4953 43.1111 53.1317C43.3403 52.7856 43.436 52.6777 43.5887 52.6777C43.7415 52.6777 43.8373 52.7855 44.0664 53.1317C44.3073 53.4953 44.6712 54.0449 45.3992 54.0449C46.1272 54.0449 46.4911 53.4953 46.7318 53.1316C46.961 52.7855 47.0568 52.6777 47.2094 52.6777C47.3621 52.6777 47.4579 52.7855 47.687 53.1316C47.9277 53.4953 48.2916 54.0449 49.0196 54.0449C49.3028 54.0449 49.5323 53.8154 49.5323 53.5322C49.5323 53.249 49.3028 53.0195 49.0196 53.0195Z" fill="white"/>
<path d="M52.7756 47.978C52.4924 47.978 52.2629 48.2075 52.2629 48.4907V54.7968C52.2629 55.4463 51.7346 55.9746 51.0852 55.9746H27.9141C27.2647 55.9746 26.7363 55.4463 26.7363 54.7968V24.2032C26.7363 23.5537 27.2647 23.0254 27.9141 23.0254H31.4907C31.7739 23.0254 32.0034 22.7959 32.0034 22.5127C32.0034 22.2295 31.7739 22 31.4907 22H27.9141C26.6993 22 25.7109 22.9883 25.7109 24.2032V54.7969C25.7109 56.0117 26.6993 57 27.9141 57H51.0852C52.3 57 53.2883 56.0117 53.2883 54.7968V48.4907C53.2883 48.2075 53.0588 47.978 52.7756 47.978Z" fill="white"/>
<path d="M51.0846 22H33.54C33.2568 22 33.0273 22.2295 33.0273 22.5127C33.0273 22.7959 33.2568 23.0254 33.54 23.0254H51.0846C51.734 23.0254 52.2624 23.5537 52.2624 24.2032V46.4409C52.2624 46.7241 52.4919 46.9536 52.7751 46.9536C53.0583 46.9536 53.2878 46.7241 53.2878 46.4409V24.2032C53.2878 22.9883 52.2994 22 51.0846 22V22Z" fill="white"/>
<path d="M29.5137 37.1317V47.7806C29.5137 48.4446 30.0538 48.9848 30.7179 48.9848H35.7632C36.0464 48.9848 36.2759 48.7553 36.2759 48.4721C36.2759 48.1889 36.0464 47.9594 35.7632 47.9594H30.7179C30.6193 47.9594 30.5391 47.8792 30.5391 47.7806V45.1258H43.4938V47.9594H37.8131C37.5298 47.9594 37.3004 48.1889 37.3004 48.4721C37.3004 48.7553 37.5298 48.9848 37.8131 48.9848H48.283C48.947 48.9848 49.4872 48.4446 49.4872 47.7806V37.1317C49.4872 36.4677 48.947 35.9275 48.283 35.9275H30.7179C30.0539 35.9275 29.5137 36.4677 29.5137 37.1317ZM30.7179 36.9529H43.4938V39.7866H30.5391V37.1317C30.5391 37.0331 30.6193 36.9529 30.7179 36.9529ZM30.5391 44.1005V40.812H43.4938V44.1005H30.5391ZM48.4619 44.1005H44.5192V40.812H48.4619V44.1005ZM48.283 47.9595H44.5192V45.1259H48.4619V47.7807C48.4619 47.8792 48.3816 47.9595 48.283 47.9595ZM48.4619 37.1317V39.7866H44.5192V36.9529H48.283C48.3816 36.9529 48.4619 37.0331 48.4619 37.1317Z" fill="white"/>
</g>
<defs>
<clipPath id="clip0_412_1097">
<rect width="35" height="35" fill="white" transform="translate(22 22)"/>
</clipPath>
</defs>
</svg>
