<svg width="80" height="80" viewBox="0 0 80 80" fill="none" xmlns="http://www.w3.org/2000/svg">
<path d="M73.8931 34.9996H70.0011C69.7794 34.197 69.3024 33.4885 68.6423 32.9811C67.9822 32.4736 67.1748 32.1949 66.3422 32.1871H62.1875V22.0271C62.1922 21.837 62.1462 21.6491 62.0544 21.4827C61.9625 21.3163 61.828 21.1772 61.6647 21.0799L32.3558 4.15147C32.1906 4.05546 32.0029 4.00488 31.8119 4.00488C31.6208 4.00488 31.4332 4.05546 31.268 4.15147L1.95001 21.0799C1.78412 21.1761 1.64651 21.3143 1.55105 21.4805C1.45558 21.6468 1.40564 21.8354 1.40626 22.0271V55.8841C1.40626 56.0761 1.4568 56.2647 1.5528 56.431C1.64879 56.5973 1.78686 56.7353 1.95313 56.8313L31.2741 73.7598C31.4403 73.8558 31.6289 73.9063 31.8209 73.9063C32.0179 73.9064 32.2116 73.856 32.3834 73.7598L47.8125 64.8602V71.2937C47.8109 71.9062 47.9308 72.5129 48.1653 73.0788C48.3998 73.6446 48.7442 74.1583 49.1786 74.5902C49.6129 75.0221 50.1286 75.3635 50.6958 75.5947C51.2631 75.8259 51.8705 75.9422 52.483 75.9371H73.8931C74.5072 75.9428 75.1163 75.827 75.6855 75.5964C76.2546 75.3658 76.7726 75.0249 77.2095 74.5933C77.6463 74.1617 77.9936 73.648 78.2311 73.0817C78.4687 72.5154 78.5919 71.9078 78.5938 71.2937V39.7155C78.593 38.4677 78.098 37.2709 77.2171 36.3871C76.3361 35.5033 75.141 35.0044 73.8931 34.9996ZM66.3811 34.3746C66.8022 34.3746 67.206 34.5419 67.5037 34.8396C67.8015 35.1374 67.9688 35.5412 67.9688 35.9623V36.0682C67.9688 36.4893 67.8015 36.8931 67.5037 37.1908C67.206 37.4886 66.8022 37.6558 66.3811 37.6558H60.0252C59.6041 37.6558 59.2003 37.4886 58.9025 37.1908C58.6048 36.8931 58.4375 36.4893 58.4375 36.0682V35.9623C58.4375 35.5412 58.6048 35.1374 58.9025 34.8396C59.2003 34.5419 59.6041 34.3746 60.0252 34.3746H66.3811ZM31.8209 6.36163L44.0044 13.3957L16.8728 29.0601L4.68954 22.026L31.8209 6.36163ZM30.7813 70.918L3.59376 55.2526V23.9191L30.7813 39.5846V70.918ZM31.8209 37.6902L19.0603 30.3229L46.1919 14.6587L58.9531 22.026L31.8209 37.6902ZM47.8125 39.7155V62.3344L32.9688 70.918V39.5846L60 23.9191V32.1871H60.0339C59.2013 32.1949 58.3939 32.4736 57.7338 32.981C57.0737 33.4885 56.5967 34.197 56.375 34.9996H52.483C51.2383 35.0056 50.0469 35.5059 49.171 36.3903C48.2952 37.2747 47.8065 38.4708 47.8125 39.7155ZM76.4063 71.2937C76.4048 71.6206 76.3383 71.944 76.2108 72.245C76.0832 72.546 75.8971 72.8187 75.6633 73.0472C75.4295 73.2757 75.1526 73.4555 74.8487 73.5761C74.5448 73.6966 74.22 73.7556 73.8931 73.7496H52.483C52.1577 73.7551 51.8346 73.6955 51.5326 73.5744C51.2307 73.4532 50.956 73.2729 50.7246 73.0442C50.4933 72.8154 50.3101 72.5427 50.1856 72.2421C50.0612 71.9414 49.9981 71.619 50 71.2937V39.7155C49.9967 39.3864 50.0583 39.0598 50.1814 38.7546C50.3045 38.4493 50.4865 38.1712 50.7171 37.9364C50.9478 37.7015 51.2224 37.5145 51.5254 37.3859C51.8284 37.2573 52.1538 37.1898 52.483 37.1871H56.4177C56.6522 37.9613 57.1314 38.6386 57.7834 39.1175C58.4354 39.5964 59.225 39.8511 60.0339 39.8433H66.3422C67.1511 39.8511 67.9407 39.5964 68.5927 39.1175C69.2446 38.6386 69.7238 37.9613 69.9583 37.1871H73.8931C74.561 37.1913 75.2001 37.4595 75.6709 37.9332C76.1418 38.4069 76.4061 39.0476 76.4063 39.7155V71.2937Z" fill="#009944"/>
<path d="M53.7421 50.7812H54.8869C55.177 50.7812 55.4552 50.666 55.6603 50.4609C55.8654 50.2558 55.9807 49.9776 55.9807 49.6875C55.9807 49.3974 55.8654 49.1192 55.6603 48.9141C55.4552 48.709 55.177 48.5938 54.8869 48.5938H54.8438V45.625H57.8605C57.9292 45.8449 58.068 46.0362 58.2559 46.1697C58.4437 46.3031 58.6701 46.3712 58.9003 46.3636C59.1908 46.3644 59.4697 46.2499 59.6758 46.0454C59.882 45.8408 59.9986 45.5628 60 45.2723V44.5364C59.9976 44.2446 59.8801 43.9655 59.6731 43.7597C59.4661 43.554 59.1863 43.4382 58.8944 43.4375H53.7421C53.5986 43.4382 53.4566 43.4673 53.3244 43.5229C53.1921 43.5786 53.0721 43.6597 52.9713 43.7618C52.8704 43.8639 52.7907 43.9848 52.7367 44.1177C52.6826 44.2507 52.6553 44.3929 52.6563 44.5364V49.6887C52.6554 49.8319 52.6829 49.9738 52.737 50.1063C52.7912 50.2388 52.871 50.3593 52.972 50.4608C53.0729 50.5623 53.1928 50.6429 53.325 50.6979C53.4572 50.7529 53.5989 50.7812 53.7421 50.7812Z" fill="#009944"/>
<path d="M53.75 60.7812H58.9062C59.1963 60.7812 59.4745 60.666 59.6796 60.4609C59.8848 60.2558 60 59.9776 60 59.6875V54.5312C60 54.2412 59.8848 53.963 59.6796 53.7579C59.4745 53.5527 59.1963 53.4375 58.9062 53.4375H53.75C53.4599 53.4375 53.1817 53.5527 52.9766 53.7579C52.7715 53.963 52.6562 54.2412 52.6562 54.5312V59.6875C52.6562 59.9776 52.7715 60.2558 52.9766 60.4609C53.1817 60.666 53.4599 60.7812 53.75 60.7812ZM54.8438 55.625H57.8125V58.5938H54.8438V55.625Z" fill="#009944"/>
<path d="M54.8871 68.5938H54.8438V65.625H57.8015C57.8071 65.9126 57.9253 66.1866 58.1306 66.3881C58.3359 66.5896 58.612 66.7027 58.8997 66.703C59.1874 66.7032 59.4637 66.5908 59.6695 66.3896C59.8752 66.1885 59.9939 65.9148 60.0001 65.6272V64.5733C59.999 64.2776 59.8831 63.9939 59.6768 63.782C59.4705 63.5701 59.19 63.4466 58.8945 63.4375H53.7421C53.4486 63.4474 53.1706 63.5718 52.9677 63.784C52.7647 63.9963 52.653 64.2796 52.6563 64.5733V69.7256C52.6562 69.8669 52.6844 70.0067 52.7393 70.1368C52.7942 70.2669 52.8746 70.3847 52.9759 70.4831C53.0772 70.5816 53.1972 70.6587 53.3288 70.7099C53.4604 70.7611 53.6009 70.7854 53.7421 70.7813H54.8871C55.1772 70.7813 55.4554 70.666 55.6605 70.4609C55.8656 70.2558 55.9809 69.9776 55.9809 69.6875C55.9809 69.3974 55.8656 69.1192 55.6605 68.9141C55.4554 68.709 55.1772 68.5938 54.8871 68.5938Z" fill="#009944"/>
<path d="M61.4129 44.7798L58.2098 47.9829L57.2354 47.0084C57.1338 46.9068 57.0133 46.8263 56.8806 46.7713C56.7478 46.7163 56.6056 46.6881 56.462 46.6881C56.3183 46.6881 56.1761 46.7163 56.0434 46.7713C55.9107 46.8263 55.7901 46.9068 55.6885 47.0084C55.587 47.11 55.5064 47.2306 55.4514 47.3633C55.3965 47.496 55.3682 47.6382 55.3682 47.7819C55.3682 47.9255 55.3965 48.0677 55.4514 48.2004C55.5064 48.3331 55.587 48.4537 55.6885 48.5553L57.4365 50.3031C57.5381 50.4047 57.6586 50.4853 57.7913 50.5402C57.9241 50.5952 58.0663 50.6235 58.2099 50.6235C58.3536 50.6235 58.4958 50.5952 58.6285 50.5402C58.7612 50.4853 58.8818 50.4047 58.9834 50.3031L62.9602 46.3262C63.1654 46.1211 63.2806 45.8429 63.2806 45.5528C63.2806 45.2627 63.1654 44.9845 62.9602 44.7794C62.7551 44.5742 62.4769 44.459 62.1868 44.459C61.8967 44.459 61.6185 44.5742 61.4134 44.7794L61.4129 44.7798Z" fill="#009944"/>
<path d="M61.4129 64.9751L58.2098 68.1783L57.2354 67.2037C57.1338 67.1022 57.0133 67.0216 56.8806 66.9666C56.7478 66.9117 56.6056 66.8834 56.462 66.8834C56.3183 66.8834 56.1761 66.9117 56.0434 66.9666C55.9107 67.0216 55.7901 67.1022 55.6885 67.2037C55.587 67.3053 55.5064 67.4259 55.4514 67.5586C55.3965 67.6913 55.3682 67.8335 55.3682 67.9772C55.3682 68.1208 55.3965 68.263 55.4514 68.3957C55.5064 68.5285 55.587 68.649 55.6885 68.7506L57.4365 70.4984C57.5381 70.6 57.6586 70.6806 57.7913 70.7355C57.9241 70.7905 58.0663 70.8188 58.2099 70.8188C58.3536 70.8188 58.4958 70.7905 58.6285 70.7355C58.7612 70.6806 58.8818 70.6 58.9834 70.4984L62.9602 66.5215C63.1654 66.3164 63.2806 66.0382 63.2806 65.7481C63.2806 65.458 63.1654 65.1798 62.9602 64.9747C62.7551 64.7695 62.4769 64.6543 62.1868 64.6543C61.8967 64.6543 61.6185 64.7695 61.4134 64.9747L61.4129 64.9751Z" fill="#009944"/>
<path d="M72.6334 46.0938H65.7637C65.4736 46.0938 65.1954 46.209 64.9903 46.4141C64.7852 46.6192 64.6699 46.8974 64.6699 47.1875C64.6699 47.4776 64.7852 47.7558 64.9903 47.9609C65.1954 48.166 65.4736 48.2812 65.7637 48.2812H72.6334C72.9234 48.2812 73.2016 48.166 73.4068 47.9609C73.6119 47.7558 73.7271 47.4776 73.7271 47.1875C73.7271 46.8974 73.6119 46.6192 73.4068 46.4141C73.2016 46.209 72.9234 46.0938 72.6334 46.0938Z" fill="#009944"/>
<path d="M72.6334 56.0938H65.7637C65.4736 56.0938 65.1954 56.209 64.9903 56.4141C64.7852 56.6192 64.6699 56.8974 64.6699 57.1875C64.6699 57.4776 64.7852 57.7558 64.9903 57.9609C65.1954 58.166 65.4736 58.2812 65.7637 58.2812H72.6334C72.9234 58.2812 73.2016 58.166 73.4068 57.9609C73.6119 57.7558 73.7271 57.4776 73.7271 57.1875C73.7271 56.8974 73.6119 56.6192 73.4068 56.4141C73.2016 56.209 72.9234 56.0938 72.6334 56.0938Z" fill="#009944"/>
<path d="M72.6334 66.0938H65.7637C65.4736 66.0938 65.1954 66.209 64.9903 66.4141C64.7852 66.6192 64.6699 66.8974 64.6699 67.1875C64.6699 67.4776 64.7852 67.7558 64.9903 67.9609C65.1954 68.166 65.4736 68.2812 65.7637 68.2812H72.6334C72.9234 68.2812 73.2016 68.166 73.4068 67.9609C73.6119 67.7558 73.7271 67.4776 73.7271 67.1875C73.7271 66.8974 73.6119 66.6192 73.4068 66.4141C73.2016 66.209 72.9234 66.0938 72.6334 66.0938Z" fill="#009944"/>
</svg>
