<svg width="48" height="48" viewBox="0 0 48 48" fill="none" xmlns="http://www.w3.org/2000/svg">
<path d="M45.6774 15.4839H44.9032V6.19355H7.74194V0H3.87097C1.73664 0 0 1.73664 0 3.87097V33.2903C0 35.4246 1.73664 37.1613 3.87097 37.1613H24.7742V45.6774C24.7742 46.9578 25.8164 48 27.0968 48H45.6774C46.9578 48 48 46.9578 48 45.6774V17.8065C48 16.5261 46.9578 15.4839 45.6774 15.4839ZM1.54839 3.87097C1.54839 2.5906 2.5906 1.54839 3.87097 1.54839H6.19355V29.4194H3.87097C3 29.4194 2.19556 29.7089 1.54839 30.1951V3.87097ZM3.87097 35.6129C2.5906 35.6129 1.54839 34.5707 1.54839 33.2903C1.54839 32.01 2.5906 30.9677 3.87097 30.9677H7.74194V7.74194H43.3548V15.4839H27.3368C26.0368 11.8087 22.5246 9.29032 18.5806 9.29032C13.4577 9.29032 9.29032 13.4577 9.29032 18.5806C9.29032 23.7036 13.4577 27.871 18.5806 27.871C20.8877 27.871 23.0863 27.0045 24.7742 25.4951V35.6129H3.87097ZM24.7742 17.8065H19.3548V10.8822C22.2728 11.177 24.8014 13.1148 25.8319 15.8634C25.1961 16.2781 24.7742 16.9929 24.7742 17.8065ZM17.8065 26.2833C13.8999 25.8935 10.8387 22.5877 10.8387 18.5806C10.8387 14.5736 13.8999 11.2678 17.8065 10.878V26.2833ZM19.3548 19.3548H24.7742V23.2088C23.4704 24.95 21.5009 26.0587 19.3548 26.2753V19.3548ZM46.4516 45.6774C46.4516 46.1038 46.1038 46.4516 45.6774 46.4516H27.0968C26.6704 46.4516 26.3226 46.1038 26.3226 45.6774V17.8065C26.3226 17.38 26.6704 17.0323 27.0968 17.0323H45.6774C46.1038 17.0323 46.4516 17.38 46.4516 17.8065V45.6774Z" fill="#5A8407"/>
<path d="M27.8708 26.3226H44.9031V18.5807H27.8708V26.3226ZM29.4192 20.129H43.3547V24.7742H29.4192V20.129Z" fill="#5A8407"/>
<path d="M40.2581 44.9032H44.9032V40.2581H40.2581V44.9032ZM41.8064 41.8064H43.3548V43.3548H41.8064V41.8064Z" fill="#5A8407"/>
<path d="M34.0645 44.9032H38.7096V40.2581H34.0645V44.9032ZM35.6128 41.8064H37.1612V43.3548H35.6128V41.8064Z" fill="#5A8407"/>
<path d="M27.8708 44.9032H32.516V40.2581H27.8708V44.9032ZM29.4192 41.8064H30.9676V43.3548H29.4192V41.8064Z" fill="#5A8407"/>
<path d="M40.2581 38.7097H44.9032V34.0645H40.2581V38.7097ZM41.8064 35.6129H43.3548V37.1613H41.8064V35.6129Z" fill="#5A8407"/>
<path d="M34.0645 38.7097H38.7096V34.0645H34.0645V38.7097ZM35.6128 35.6129H37.1612V37.1613H35.6128V35.6129Z" fill="#5A8407"/>
<path d="M27.8708 38.7097H32.516V34.0645H27.8708V38.7097ZM29.4192 35.6129H30.9676V37.1613H29.4192V35.6129Z" fill="#5A8407"/>
<path d="M40.2581 32.5161H44.9032V27.871H40.2581V32.5161ZM41.8064 29.4194H43.3548V30.9677H41.8064V29.4194Z" fill="#5A8407"/>
<path d="M34.0645 32.5161H38.7096V27.871H34.0645V32.5161ZM35.6128 29.4194H37.1612V30.9677H35.6128V29.4194Z" fill="#5A8407"/>
<path d="M27.8708 32.5161H32.516V27.871H27.8708V32.5161ZM29.4192 29.4194H30.9676V30.9677H29.4192V29.4194Z" fill="#5A8407"/>
<path d="M30.9678 9.29031H41.8065V10.8387H30.9678V9.29031Z" fill="#5A8407"/>
<path d="M29.4194 12.3871H41.8065V13.9355H29.4194V12.3871Z" fill="#5A8407"/>
</svg>
