<svg width="107" height="107" viewBox="0 0 107 107" fill="none" xmlns="http://www.w3.org/2000/svg">
<path d="M101.823 0H96.6452H62.129H37.003C34.7715 0 32.7972 1.42206 32.0896 3.53963L31.546 5.17742H25.8871C23.0326 5.17742 20.7097 7.50035 20.7097 10.3548V12.5898C15.7273 14.0791 12.0806 18.7008 12.0806 24.1613C12.0806 27.7665 13.677 30.9989 16.1898 33.2149C12.3292 36.1505 9.68695 40.4891 8.90861 45.3093C3.78469 46.7055 0 51.3893 0 56.9516C0 63.6115 5.42076 69.0323 12.0806 69.0323V79.3871H19.8554C20.4974 81.8809 21.488 84.266 22.8134 86.5026L17.3098 92.0079L27.0727 101.771L32.578 96.2672C34.8147 97.5926 37.1998 98.5832 39.6936 99.2252V107H53.5V99.2252C55.9938 98.5832 58.3789 97.5926 60.6155 96.2672L66.1208 101.771L75.8837 92.0079L70.3801 86.5026C71.7055 84.266 72.6961 81.8809 73.3381 79.3871H81.1129V65.5806H73.3381C72.6961 63.0869 71.7055 60.7018 70.3801 58.4651L75.3435 53.5H96.6452V31.0645V27.6129H101.823C104.677 27.6129 107 25.29 107 22.4355V5.17742C107 2.32294 104.677 0 101.823 0ZM77.6613 3.45161C80.5158 3.45161 82.8387 5.77455 82.8387 8.62903C82.8387 11.4835 80.5158 13.8065 77.6613 13.8065C74.8068 13.8065 72.4839 11.4835 72.4839 8.62903C72.4839 5.77455 74.8068 3.45161 77.6613 3.45161ZM65.5806 3.45161H70.8029C69.7071 4.89784 69.0323 6.67887 69.0323 8.62903C69.0323 13.3871 72.9032 17.2581 77.6613 17.2581C79.6115 17.2581 81.3925 16.5833 82.8387 15.4874V27.6129H65.5806V3.45161ZM51.4566 3.45161C50.7422 5.45527 48.8438 6.90323 46.5968 6.90323C44.3498 6.90323 42.4514 5.45527 41.7369 3.45161H51.4566ZM15.5323 24.1613C15.5323 19.4032 19.4032 15.5323 24.1613 15.5323C28.9193 15.5323 32.7903 19.4032 32.7903 24.1613C32.7903 28.9193 28.9193 32.7903 24.1613 32.7903C22.3923 32.7903 20.7459 32.2519 19.3756 31.3337L19.329 31.2388C19.3118 31.2475 19.298 31.2578 19.2807 31.2664C17.0216 29.708 15.5323 27.1072 15.5323 24.1613ZM19.3049 35.2151C19.7588 35.4153 20.2282 35.5896 20.7097 35.7345V48.5159C18.5507 46.3155 15.6013 45.0004 12.469 44.8986C13.375 40.9189 15.8515 37.4138 19.3049 35.2151ZM12.0806 65.5806C7.3226 65.5806 3.45161 61.7097 3.45161 56.9516C3.45161 52.1936 7.3226 48.3226 12.0806 48.3226C14.6849 48.3226 17.1338 49.522 18.7595 51.5084L17.3081 52.9598L22.8117 58.4651C21.4863 60.7018 20.4957 63.0869 19.8537 65.5806H13.8065H12.0806ZM70.7581 53.2049L65.9707 57.9923L66.749 59.1675C68.4748 61.7752 69.6622 64.628 70.2731 67.6499L70.5544 69.0323H77.6613V75.9355H70.5544L70.2731 77.3179C69.6622 80.3397 68.4748 83.1925 66.749 85.8002L65.9707 86.9755L71.0049 92.0096L66.1226 96.892L61.0884 91.8578L59.9131 92.6361C57.3054 94.3619 54.4526 95.5493 51.4308 96.1602L50.0484 96.4415V103.548H43.1452V96.4415L41.7628 96.1602C38.7409 95.5493 35.8881 94.3619 33.2805 92.6361L32.1052 91.8578L27.071 96.892L22.1887 92.0096L27.2229 86.9755L26.4445 85.8002C24.7187 83.1925 23.5314 80.3397 22.9204 77.3179L22.6391 75.9355H15.5323V69.0323H22.6391L22.9204 67.6499C23.5314 64.628 24.7187 61.7752 26.4445 59.1675L27.2229 57.9923L22.1887 52.9581L27.071 48.0758L32.1052 53.11L33.2805 52.3316C35.8881 50.6058 38.7409 49.4185 41.7628 48.8075L43.1452 48.5262V41.4194H50.0484V48.5262L51.4308 48.8075C54.4526 49.4185 57.3054 50.6058 59.9131 52.3316L61.0884 53.11L66.1226 48.0758L70.7581 52.713V53.2049ZM93.1936 50.0484H72.974L66.1208 43.1952L60.6155 48.6988C58.3789 47.3734 55.9938 46.3828 53.5 45.7408V37.9677H39.6936V45.7425C37.1998 46.3845 34.8147 47.3751 32.578 48.7005L27.0727 43.1969L24.1613 46.1066V36.2419C30.8212 36.2419 36.2419 30.8212 36.2419 24.1613C36.2419 17.5014 30.8212 12.0806 24.1613 12.0806V10.3548C24.1613 9.40219 24.9345 8.62903 25.8871 8.62903H34.0346L35.3652 4.63206C35.6017 3.92448 36.2609 3.45161 37.003 3.45161H38.142C38.9445 7.38473 42.4307 10.3548 46.5968 10.3548C50.7629 10.3548 54.249 7.38473 55.0515 3.45161H62.129V22.4804C60.6828 21.3845 58.9018 20.7097 56.9516 20.7097C52.1936 20.7097 48.3226 24.5807 48.3226 29.3387C48.3226 34.0968 52.1936 37.9677 56.9516 37.9677C61.1177 37.9677 64.6038 34.9976 65.4063 31.0645H93.1936V50.0484ZM62.129 29.3387C62.129 32.1932 59.8061 34.5161 56.9516 34.5161C54.0971 34.5161 51.7742 32.1932 51.7742 29.3387C51.7742 26.4842 54.0971 24.1613 56.9516 24.1613C59.8061 24.1613 62.129 26.4842 62.129 29.3387ZM103.548 22.4355C103.548 23.3881 102.775 24.1613 101.823 24.1613H96.6452V20.7097H93.1936V24.1613V27.6129H86.2903V8.62903C86.2903 6.67887 85.6155 4.89784 84.5196 3.45161H93.1936V17.2581H96.6452V3.45161H101.823C102.775 3.45161 103.548 4.22477 103.548 5.17742V22.4355Z" fill="#009944"/>
<path d="M12.0807 51.7744C9.22626 51.7744 6.90332 54.0973 6.90332 56.9518C6.90332 59.8063 9.22626 62.1293 12.0807 62.1293C14.9352 62.1293 17.2582 59.8063 17.2582 56.9518C17.2582 54.0973 14.9352 51.7744 12.0807 51.7744ZM12.0807 58.6776C11.1281 58.6776 10.3549 57.9045 10.3549 56.9518C10.3549 55.9992 11.1281 55.226 12.0807 55.226C13.0334 55.226 13.8065 55.9992 13.8065 56.9518C13.8065 57.9045 13.0334 58.6776 12.0807 58.6776Z" fill="#009944"/>
<path d="M24.1613 29.3382C27.0158 29.3382 29.3387 27.0153 29.3387 24.1608C29.3387 21.3063 27.0158 18.9834 24.1613 18.9834C21.3068 18.9834 18.9839 21.3063 18.9839 24.1608C18.9839 27.0153 21.3068 29.3382 24.1613 29.3382ZM24.1613 22.435C25.114 22.435 25.8871 23.2082 25.8871 24.1608C25.8871 25.1135 25.114 25.8866 24.1613 25.8866C23.2087 25.8866 22.4355 25.1135 22.4355 24.1608C22.4355 23.2082 23.2087 22.435 24.1613 22.435Z" fill="#009944"/>
<path d="M46.5967 55.2256C37.0806 55.2256 29.3386 62.9676 29.3386 72.4837C29.3386 81.9998 37.0806 89.7417 46.5967 89.7417C49.8688 89.7417 53.0564 88.8201 55.8142 87.0753L53.9676 84.1605C51.7638 85.5532 49.2165 86.2901 46.5967 86.2901C38.9842 86.2901 32.7902 80.0962 32.7902 72.4837C32.7902 64.8711 38.9842 58.6772 46.5967 58.6772C54.2092 58.6772 60.4031 64.8711 60.4031 72.4837C60.4031 76.1527 58.9793 79.6061 56.3941 82.212L58.8447 84.642C62.0754 81.3871 63.8548 77.0691 63.8548 72.4837C63.8548 62.9676 56.1128 55.2256 46.5967 55.2256Z" fill="#009944"/>
<path d="M46.5968 62.1289C40.8861 62.1289 36.2419 66.7731 36.2419 72.4837C36.2419 78.1944 40.8861 82.8386 46.5968 82.8386C52.3075 82.8386 56.9516 78.1944 56.9516 72.4837C56.9516 66.7731 52.3075 62.1289 46.5968 62.1289ZM46.5968 79.387C42.7897 79.387 39.6936 76.2909 39.6936 72.4837C39.6936 68.6766 42.7897 65.5805 46.5968 65.5805C50.4039 65.5805 53.5 68.6766 53.5 72.4837C53.5 76.2909 50.4039 79.387 46.5968 79.387Z" fill="#009944"/>
</svg>
