<svg width="102" height="102" viewBox="0 0 102 102" fill="none" xmlns="http://www.w3.org/2000/svg">
<path d="M97.0645 0H92.129H59.2258H35.2739C33.1467 0 31.2646 1.35561 30.5901 3.37423L30.0719 4.93548H24.6774C21.9563 4.93548 19.7419 7.14987 19.7419 9.87097V12.0015C14.9924 13.4212 11.5161 17.827 11.5161 23.0323C11.5161 26.469 13.0379 29.5504 15.4333 31.6628C11.753 34.4612 9.23429 38.5971 8.49232 43.1921C3.60784 44.523 0 48.988 0 54.2903C0 60.639 5.16745 65.8064 11.5161 65.8064V75.6774H18.9276C19.5396 78.0547 20.4839 80.3283 21.7474 82.4604L16.501 87.7085L25.8076 97.0152L31.0557 91.7687C33.1878 93.0322 35.4615 93.9765 37.8387 94.5885V102H51V94.5885C53.3773 93.9765 55.6509 93.0322 57.783 91.7687L63.0311 97.0152L72.3377 87.7085L67.0913 82.4604C68.3548 80.3283 69.2991 78.0547 69.9111 75.6774H77.3226V62.5161H69.9111C69.2991 60.1389 68.3548 57.8653 67.0913 55.7331L71.8228 51H92.129V29.6129V26.3226H97.0645C99.7856 26.3226 102 24.1082 102 21.3871V4.93548C102 2.21439 99.7856 0 97.0645 0ZM74.0323 3.29032C76.7534 3.29032 78.9677 5.50471 78.9677 8.22581C78.9677 10.9469 76.7534 13.1613 74.0323 13.1613C71.3112 13.1613 69.0968 10.9469 69.0968 8.22581C69.0968 5.50471 71.3112 3.29032 74.0323 3.29032ZM62.5161 3.29032H67.4944C66.4497 4.66897 65.8064 6.36677 65.8064 8.22581C65.8064 12.7615 69.4965 16.4516 74.0323 16.4516C75.8913 16.4516 77.5891 15.8084 78.9677 14.7637V26.3226H62.5161V3.29032ZM49.0521 3.29032C48.371 5.20035 46.5614 6.58065 44.4194 6.58065C42.2774 6.58065 40.4677 5.20035 39.7866 3.29032H49.0521ZM14.8065 23.0323C14.8065 18.4965 18.4965 14.8065 23.0323 14.8065C27.568 14.8065 31.2581 18.4965 31.2581 23.0323C31.2581 27.568 27.568 31.2581 23.0323 31.2581C21.346 31.2581 19.7765 30.7448 18.4702 29.8695L18.4258 29.7791C18.4094 29.7873 18.3962 29.7972 18.3797 29.8054C16.2262 28.3198 14.8065 25.8405 14.8065 23.0323ZM18.4028 33.5695C18.8355 33.7604 19.2829 33.9265 19.7419 34.0647V46.2488C17.6838 44.1512 14.8723 42.8976 11.8863 42.8005C12.75 39.0068 15.1108 35.6655 18.4028 33.5695ZM11.5161 62.5161C6.98042 62.5161 3.29032 58.826 3.29032 54.2903C3.29032 49.7546 6.98042 46.0645 11.5161 46.0645C13.9987 46.0645 16.3332 47.2079 17.8829 49.1015L16.4993 50.4851L21.7457 55.7331C20.4823 57.8653 19.5379 60.1389 18.9259 62.5161H13.1613H11.5161ZM67.4516 50.7187L62.8879 55.2824L63.6299 56.4027C65.2751 58.8885 66.4069 61.608 66.9893 64.4887L67.2575 65.8064H74.0323V72.3871H67.2575L66.9893 73.7049C66.4069 76.5855 65.2751 79.305 63.6299 81.7908L62.8879 82.9112L67.6869 87.7101L63.0327 92.3643L58.2338 87.5654L57.1134 88.3073C54.6276 89.9525 51.9081 91.0844 49.0275 91.6667L47.7097 91.9349V98.7097H41.129V91.9349L39.8113 91.6667C36.9306 91.0844 34.2111 89.9525 31.7253 88.3073L30.6049 87.5654L25.806 92.3643L21.1518 87.7101L25.9508 82.9112L25.2088 81.7908C23.5636 79.305 22.4318 76.5855 21.8494 73.7049L21.5812 72.3871H14.8065V65.8064H21.5812L21.8494 64.4887C22.4318 61.608 23.5636 58.8885 25.2088 56.4027L25.9508 55.2824L21.1518 50.4834L25.806 45.8293L30.6049 50.6282L31.7253 49.8862C34.2111 48.2411 36.9306 47.1092 39.8113 46.5268L41.129 46.2586V39.4839H47.7097V46.2586L49.0275 46.5268C51.9081 47.1092 54.6276 48.2411 57.1134 49.8862L58.2338 50.6282L63.0327 45.8293L67.4516 50.2498V50.7187ZM88.8387 47.7097H69.564L63.0311 41.1767L57.783 46.4232C55.6509 45.1597 53.3773 44.2154 51 43.6034V36.1935H37.8387V43.605C35.4615 44.217 33.1878 45.1613 31.0557 46.4248L25.8076 41.1784L23.0323 43.9521V34.5484C29.3809 34.5484 34.5484 29.3809 34.5484 23.0323C34.5484 16.6836 29.3809 11.5161 23.0323 11.5161V9.87097C23.0323 8.96284 23.7693 8.22581 24.6774 8.22581H32.4442L33.7126 4.41561C33.938 3.7411 34.5665 3.29032 35.2739 3.29032H36.3597C37.1247 7.03965 40.4479 9.87097 44.4194 9.87097C48.3908 9.87097 51.714 7.03965 52.479 3.29032H59.2258V21.4299C57.8472 20.3852 56.1494 19.7419 54.2903 19.7419C49.7546 19.7419 46.0645 23.432 46.0645 27.9677C46.0645 32.5035 49.7546 36.1935 54.2903 36.1935C58.2617 36.1935 61.585 33.3622 62.35 29.6129H88.8387V47.7097ZM59.2258 27.9677C59.2258 30.6888 57.0114 32.9032 54.2903 32.9032C51.5692 32.9032 49.3548 30.6888 49.3548 27.9677C49.3548 25.2466 51.5692 23.0323 54.2903 23.0323C57.0114 23.0323 59.2258 25.2466 59.2258 27.9677ZM98.7097 21.3871C98.7097 22.2952 97.9726 23.0323 97.0645 23.0323H92.129V19.7419H88.8387V23.0323V26.3226H82.2581V8.22581C82.2581 6.36677 81.6148 4.66897 80.5701 3.29032H88.8387V16.4516H92.129V3.29032H97.0645C97.9726 3.29032 98.7097 4.02735 98.7097 4.93548V21.3871Z" fill="#878787"/>
<path d="M11.5161 49.3549C8.79503 49.3549 6.58064 51.5692 6.58064 54.2903C6.58064 57.0114 8.79503 59.2258 11.5161 59.2258C14.2372 59.2258 16.4516 57.0114 16.4516 54.2903C16.4516 51.5692 14.2372 49.3549 11.5161 49.3549ZM11.5161 55.9355C10.608 55.9355 9.87097 55.1985 9.87097 54.2903C9.87097 53.3822 10.608 52.6452 11.5161 52.6452C12.4243 52.6452 13.1613 53.3822 13.1613 54.2903C13.1613 55.1985 12.4243 55.9355 11.5161 55.9355Z" fill="#878787"/>
<path d="M23.0323 27.9678C25.7534 27.9678 27.9677 25.7534 27.9677 23.0323C27.9677 20.3112 25.7534 18.0968 23.0323 18.0968C20.3112 18.0968 18.0968 20.3112 18.0968 23.0323C18.0968 25.7534 20.3112 27.9678 23.0323 27.9678ZM23.0323 21.3871C23.9404 21.3871 24.6774 22.1242 24.6774 23.0323C24.6774 23.9404 23.9404 24.6774 23.0323 24.6774C22.1241 24.6774 21.3871 23.9404 21.3871 23.0323C21.3871 22.1242 22.1241 21.3871 23.0323 21.3871Z" fill="#878787"/>
<path d="M44.4194 52.6451C35.3479 52.6451 27.9677 60.0253 27.9677 69.0968C27.9677 78.1682 35.3479 85.5484 44.4194 85.5484C47.5386 85.5484 50.5772 84.6699 53.2062 83.0066L51.4458 80.2279C49.345 81.5556 46.9167 82.2581 44.4194 82.2581C37.1625 82.2581 31.2581 76.3536 31.2581 69.0968C31.2581 61.84 37.1625 55.9355 44.4194 55.9355C51.6762 55.9355 57.5806 61.84 57.5806 69.0968C57.5806 72.5944 56.2234 75.8863 53.7589 78.3705L56.0951 80.6869C59.1748 77.5841 60.871 73.468 60.871 69.0968C60.871 60.0253 53.4908 52.6451 44.4194 52.6451Z" fill="#878787"/>
<path d="M44.4194 59.2258C38.9755 59.2258 34.5484 63.653 34.5484 69.0968C34.5484 74.5406 38.9755 78.9678 44.4194 78.9678C49.8632 78.9678 54.2903 74.5406 54.2903 69.0968C54.2903 63.653 49.8632 59.2258 44.4194 59.2258ZM44.4194 75.6774C40.7901 75.6774 37.8387 72.726 37.8387 69.0968C37.8387 65.4676 40.7901 62.5162 44.4194 62.5162C48.0486 62.5162 51 65.4676 51 69.0968C51 72.726 48.0486 75.6774 44.4194 75.6774Z" fill="#878787"/>
</svg>
