<svg width="24" height="24" viewBox="0 0 24 24" fill="none" xmlns="http://www.w3.org/2000/svg">
<path d="M14.1225 12.0007L23.5602 2.56305C24.1466 1.97719 24.1466 1.02662 23.5602 0.440765C22.9739 -0.145589 22.0243 -0.145589 21.438 0.440765L12.0002 9.87847L2.56205 0.440765C1.97569 -0.145589 1.02612 -0.145589 0.439766 0.440765C-0.146589 1.02662 -0.146589 1.97719 0.439766 2.56305L9.87797 12.0007L0.439766 21.4384C-0.146589 22.0243 -0.146589 22.9749 0.439766 23.5607C0.732943 23.8534 1.11717 24 1.50091 24C1.88464 24 2.26887 23.8534 2.56205 23.5602L12.0002 14.1225L21.438 23.5602C21.7311 23.8534 22.1154 24 22.4991 24C22.8828 24 23.2671 23.8534 23.5602 23.5602C24.1466 22.9744 24.1466 22.0238 23.5602 21.4379L14.1225 12.0007Z" fill="#AFAFAF"/>
</svg>
