<svg width="56" height="56" viewBox="0 0 56 56" fill="none" xmlns="http://www.w3.org/2000/svg">
<path d="M5.41895 18.0646H9.03185V19.871H5.41895V18.0646Z" fill="#009944"/>
<path d="M53.2903 14.4516C54.7841 14.4516 56 13.2357 56 11.7419V2.70968C56 1.21591 54.7841 0 53.2903 0H40.6452C39.1514 0 37.9355 1.21591 37.9355 2.70968V11.7419C37.9355 13.2357 39.1514 14.4516 40.6452 14.4516H43.3548V16.2581H41.5484V18.0645H46.0645V27.0968H42.3369C41.6163 26.3933 40.729 25.8548 39.7358 25.5585C39.7402 25.4672 39.7419 25.379 39.7419 25.2903C39.7419 21.3061 36.5004 18.0645 32.5161 18.0645C30.0442 18.0645 27.7464 19.3506 26.4304 21.4075C25.5033 20.9912 24.5009 20.7742 23.4839 20.7742C20.4862 20.7742 17.7871 22.6636 16.7313 25.435C16.045 25.5823 15.4056 25.846 14.8247 26.1935H8.12903V23.4839H11.7419C13.2357 23.4839 14.4516 22.268 14.4516 20.7742V2.70968C14.4516 1.21591 13.2357 0 11.7419 0H2.70968C1.21591 0 0 1.21591 0 2.70968V20.7742C0 22.268 1.21591 23.4839 2.70968 23.4839H6.32258V28H12.9036C12.5195 28.5482 12.2213 29.1533 12.0255 29.8064H8.12903V39.7419H4.51613C3.02237 39.7419 1.80645 40.9578 1.80645 42.4516V50.5806H0V53.2903C0 54.7841 1.21591 56 2.70968 56H17.1613C18.6551 56 19.871 54.7841 19.871 53.2903V50.5806H18.0645V42.4516C18.0645 40.9578 16.8486 39.7419 15.3548 39.7419H9.93548V31.6129H11.7419C11.7419 35.0983 14.5791 37.9355 18.0645 37.9355H37.9355C41.114 37.9355 43.7451 35.5747 44.1857 32.5161H47.871V39.7419H41.5484V56H56V39.7419H49.6774V30.7097H44.1822C44.0883 30.0737 43.8933 29.4686 43.6203 28.9032H47.871V18.0645H52.3871V16.2581H50.5806V14.4516H53.2903ZM12.6452 14.4516H1.80645V5.41935H12.6452V14.4516ZM2.70968 1.80645H11.7419C12.2403 1.80645 12.6452 2.21132 12.6452 2.70968V3.6129H1.80645V2.70968C1.80645 2.21132 2.21132 1.80645 2.70968 1.80645ZM1.80645 20.7742V16.2581H12.6452V20.7742C12.6452 21.2726 12.2403 21.6774 11.7419 21.6774H2.70968C2.21132 21.6774 1.80645 21.2726 1.80645 20.7742ZM18.0645 53.2903C18.0645 53.7887 17.6597 54.1935 17.1613 54.1935H2.70968C2.21132 54.1935 1.80645 53.7887 1.80645 53.2903V52.3871H18.0645V53.2903ZM16.2581 42.4516V50.5806H3.6129V42.4516C3.6129 41.9533 4.01777 41.5484 4.51613 41.5484H15.3548C15.8532 41.5484 16.2581 41.9533 16.2581 42.4516ZM43.3548 54.1935V48.7742H54.1935V54.1935H43.3548ZM54.1935 46.9677H43.3548V41.5484H54.1935V46.9677ZM37.9355 36.129H18.0645C15.5745 36.129 13.5484 34.1029 13.5484 31.6129C13.5484 29.3297 15.2574 27.4037 17.5225 27.1329L18.1152 27.0615L18.2824 26.4882C18.9505 24.1873 21.0904 22.5806 23.4839 22.5806C24.481 22.5806 25.4601 22.8607 26.3184 23.389L27.1806 23.9209L27.6106 23.0023C28.4997 21.0992 30.4252 19.871 32.5161 19.871C35.505 19.871 37.9355 22.3015 37.9355 25.2903C37.9355 25.5395 37.913 25.805 37.864 26.1256L37.7278 27.0192L38.6208 27.1545C40.8048 27.488 42.4516 29.4047 42.4516 31.6129C42.4516 34.1029 40.4255 36.129 37.9355 36.129ZM40.6452 1.80645H53.2903C53.7887 1.80645 54.1935 2.21132 54.1935 2.70968V9.03226H39.7419V2.70968C39.7419 2.21132 40.1468 1.80645 40.6452 1.80645ZM39.7419 11.7419V10.8387H54.1935V11.7419C54.1935 12.2403 53.7887 12.6452 53.2903 12.6452H40.6452C40.1468 12.6452 39.7419 12.2403 39.7419 11.7419ZM48.7742 16.2581H45.1613V14.4516H48.7742V16.2581Z" fill="#009944"/>
<path d="M45.1611 43.3549H46.9676V45.1613H45.1611V43.3549Z" fill="#009944"/>
<path d="M50.5811 50.5807H52.3875V52.3871H50.5811V50.5807Z" fill="#009944"/>
<path d="M48.7744 43.3549H52.3873V45.1613H48.7744V43.3549Z" fill="#009944"/>
<path d="M45.1611 50.5807H48.774V52.3871H45.1611V50.5807Z" fill="#009944"/>
</svg>
