<svg width="67" height="67" viewBox="0 0 67 67" fill="none" xmlns="http://www.w3.org/2000/svg">
<path d="M45.8315 41.5492C45.7765 41.2967 45.6236 41.0762 45.4064 40.9361C45.1891 40.7961 44.9252 40.7478 44.6724 40.8019L42.8925 41.1859C42.7659 41.2115 42.6456 41.2619 42.5387 41.3344C42.4318 41.4068 42.3403 41.4997 42.2696 41.6078C42.1988 41.7158 42.1503 41.8369 42.1267 41.9639C42.1032 42.0908 42.105 42.2212 42.1323 42.3475C42.1595 42.4737 42.2116 42.5933 42.2854 42.6993C42.3592 42.8052 42.4533 42.8955 42.5623 42.9648C42.6713 43.0341 42.793 43.081 42.9202 43.1029C43.0475 43.1248 43.1779 43.1212 43.3037 43.0923L45.0842 42.7084C45.337 42.6538 45.5578 42.501 45.6979 42.2836C45.8381 42.0662 45.8861 41.8021 45.8315 41.5492Z" fill="#D14F16"/>
<path d="M39.499 41.9173L34.5643 42.9817C34.4378 43.0072 34.3175 43.0577 34.2106 43.1301C34.1036 43.2025 34.0122 43.2955 33.9414 43.4035C33.8707 43.5116 33.8222 43.6326 33.7986 43.7596C33.775 43.8866 33.7769 44.017 33.8042 44.1432C33.8314 44.2695 33.8834 44.389 33.9572 44.495C34.0311 44.601 34.1252 44.6912 34.2342 44.7605C34.3432 44.8298 34.4648 44.8768 34.5921 44.8987C34.7194 44.9206 34.8497 44.917 34.9756 44.8881L39.9103 43.8237C40.1602 43.7663 40.3775 43.6128 40.5151 43.3965C40.6527 43.1801 40.6995 42.9182 40.6454 42.6675C40.5913 42.4169 40.4407 42.1976 40.2262 42.0572C40.0116 41.9168 39.7504 41.8665 39.499 41.9173Z" fill="#D14F16"/>
<path d="M24.0674 48.6003C22.8793 48.8562 21.7938 49.4587 20.9482 50.3316C20.1025 51.2045 19.5347 52.3086 19.3166 53.5042C19.0984 54.6998 19.2398 55.9332 19.7227 57.0485C20.2056 58.1638 21.0084 59.1108 22.0295 59.7698C23.0507 60.4288 24.2444 60.7702 25.4595 60.7507C26.6747 60.7313 27.8568 60.3519 28.8564 59.6606C29.856 58.9693 30.6281 57.9971 31.0751 56.867C31.5221 55.7368 31.6239 54.4995 31.3677 53.3115C31.0227 51.7196 30.0603 50.3296 28.6917 49.4464C27.3231 48.5631 25.66 48.2589 24.0674 48.6003ZM26.2469 58.7053C25.436 58.8803 24.5915 58.8109 23.8201 58.506C23.0487 58.201 22.385 57.6741 21.9131 56.9919C21.4411 56.3098 21.182 55.503 21.1686 54.6736C21.1552 53.8442 21.388 53.0294 21.8376 52.3323C22.2873 51.6353 22.9335 51.0872 23.6946 50.7574C24.4558 50.4276 25.2976 50.3309 26.1137 50.4795C26.9298 50.6282 27.6834 51.0155 28.2794 51.5925C28.8754 52.1695 29.2868 52.9102 29.4618 53.7211C29.6949 54.8082 29.4873 55.9434 28.8847 56.8778C28.282 57.8121 27.3334 58.4693 26.2469 58.7053Z" fill="#D14F16"/>
<path d="M66.2282 45.7923L65.3961 41.9338C65.3692 41.8086 65.3178 41.6899 65.2449 41.5845C65.1721 41.4791 65.0791 41.3892 64.9715 41.3197C64.8639 41.2503 64.7436 41.2027 64.6176 41.1798C64.4915 41.1568 64.3622 41.1589 64.237 41.1859L60.5629 41.9784L53.9921 11.5038C53.9373 11.2512 53.7846 11.0306 53.5674 10.8905C53.3502 10.7504 53.0862 10.7022 52.8335 10.7565L33.2932 14.9695L22.3584 17.3279L18.7874 0.769596C18.7403 0.551694 18.62 0.356493 18.4465 0.216474C18.273 0.076454 18.0568 5.89387e-05 17.8339 1.59418e-07H0.97523C0.847141 -7.30975e-05 0.720292 0.025102 0.601939 0.074086C0.483586 0.12307 0.376048 0.194902 0.285475 0.285475C0.194902 0.376048 0.12307 0.483586 0.074086 0.601939C0.025102 0.720292 -7.30975e-05 0.847141 1.59418e-07 0.97523V4.9224C1.59418e-07 5.18105 0.102747 5.4291 0.285638 5.612C0.468529 5.79489 0.716583 5.89763 0.97523 5.89763H13.86L21.9644 43.478C19.8412 44.1248 17.9471 45.3652 16.5056 47.0529C15.064 48.7407 14.1351 50.8054 13.8283 53.0037C13.5215 55.202 13.8496 57.4421 14.774 59.4601C15.6983 61.478 17.1804 63.1896 19.0454 64.393C20.9104 65.5965 23.0806 66.2416 25.3002 66.2523C27.5198 66.263 29.6961 65.6388 31.5726 64.4534C33.4492 63.2681 34.9477 61.5708 35.8915 59.5619C36.8352 57.553 37.185 55.3161 36.8994 53.1149L65.4803 46.9509C65.7331 46.8964 65.9539 46.7438 66.0941 46.5265C66.2344 46.3092 66.2826 46.0452 66.2282 45.7923ZM27.9529 43.2685L24.4883 27.2111L34.4702 25.0584L35.9353 31.8443C35.9753 32.0311 36.0694 32.202 36.2059 32.3356C36.3423 32.4693 36.5151 32.5599 36.7026 32.5961C36.7638 32.608 36.8259 32.614 36.8882 32.6139C37.0477 32.6139 37.2048 32.5748 37.3456 32.4999C37.4865 32.4251 37.6069 32.3169 37.6963 32.1848L40.3188 28.3062L43.9929 30.7939C44.154 30.9029 44.3441 30.9612 44.5386 30.9614C44.7331 30.9615 44.9233 30.9035 45.0846 30.7947C45.2458 30.686 45.3709 30.5315 45.4437 30.3511C45.5165 30.1707 45.5337 29.9727 45.4931 29.7824L44.0297 22.9965L54.0116 20.8437L58.6587 42.3896L34.6251 47.5723C32.9705 45.404 30.6105 43.8817 27.9529 43.2685ZM40.4029 15.4315L41.9176 22.4531L43.074 27.8141L40.6041 26.1423C40.3898 25.9974 40.1267 25.9435 39.8726 25.9925C39.6186 26.0415 39.3944 26.1894 39.2494 26.4037L37.3613 29.1984L34.658 16.6703L40.4029 15.4315ZM53.6003 18.9373L43.6184 21.0889L42.3094 15.0202L52.2913 12.8675L53.6003 18.9373ZM32.7516 17.0816L34.0606 23.1508L24.0787 25.3047L22.7697 19.2343L32.7516 17.0816ZM14.6468 3.94717H1.95046V1.95046H17.0465L20.657 18.6927L25.8954 42.9854C25.219 42.9526 24.541 42.9793 23.8692 43.065L15.6003 4.71677C15.5533 4.49882 15.433 4.30356 15.2595 4.16352C15.0861 4.02349 14.8698 3.94713 14.6468 3.94717ZM27.4084 64.0821C25.5336 64.4875 23.5807 64.3278 21.7967 63.6232C20.0127 62.9185 18.4777 61.7006 17.386 60.1234C16.2943 58.5463 15.6949 56.6808 15.6636 54.7629C15.6323 52.845 16.1705 50.9609 17.2101 49.349C18.2498 47.737 19.7441 46.4696 21.5042 45.7071C23.2643 44.9446 25.2109 44.7212 27.098 45.0653C28.985 45.4093 30.7276 46.3052 32.1054 47.6398C33.4831 48.9743 34.4341 50.6875 34.838 52.5627C35.3766 55.0755 34.8966 57.6994 33.5033 59.8589C32.11 62.0184 29.9171 63.5371 27.4056 64.0821H27.4084ZM36.492 51.2091C36.2932 50.5617 36.0379 49.9331 35.7291 49.3305L63.6981 43.2985L64.1194 45.249L36.492 51.2091Z" fill="#D14F16"/>
</svg>
