<svg width="90" height="90" viewBox="0 0 90 90" fill="none" xmlns="http://www.w3.org/2000/svg">
<g clip-path="url(#clip0_544_5752)">
<path d="M72.494 77.8034L69.1585 67.7956C67.9929 64.3016 65.0191 61.7226 61.394 61.0627L51.7651 59.3107V58.5644C53.4407 57.5918 54.8988 56.2908 56.0601 54.7505H58.9691C61.3522 54.7505 63.2915 52.8112 63.2915 50.4281V33.1384C63.2915 22.8107 54.8887 14.408 44.561 14.408C34.2333 14.408 25.8306 22.8107 25.8306 33.1384V43.2241C25.8306 46.002 27.8059 48.326 30.4253 48.8677C31.2336 53.0086 33.8213 56.5126 37.357 58.5644V59.3107L27.7267 61.0627C24.103 61.7226 21.1278 64.3016 19.9636 67.7956L19.3873 69.526L14.4799 64.6186C13.918 64.0567 13.918 63.1418 14.4799 62.5799L20.1711 56.8901L9.48893 46.208L3.05717 52.6398C1.15242 54.5445 0.103516 57.0774 0.103516 59.7718C0.103516 62.4661 1.15242 64.9976 3.05717 66.9023L22.5297 86.3748C24.4344 88.2795 26.9674 89.3299 29.6617 89.3299C32.356 89.3299 34.8875 88.2795 36.7476 86.418L43.7657 79.9877L41.5771 77.8034H72.494ZM60.4099 50.4281C60.4099 51.2234 59.763 51.8689 58.9691 51.8689H57.7574C58.1752 50.9166 58.4922 49.9123 58.6968 48.8677C59.3135 48.7395 59.8811 48.4946 60.4099 48.1862V50.4281ZM58.9691 45.7052V40.743C59.8264 41.243 60.4099 42.1622 60.4099 43.2241C60.4099 44.286 59.8264 45.2052 58.9691 45.7052ZM30.153 45.7052C29.2957 45.2052 28.7122 44.286 28.7122 43.2241C28.7122 42.1622 29.2957 41.243 30.153 40.743V45.7052ZM30.153 36.0201V37.6655C29.6401 37.7995 29.1588 38.0012 28.7122 38.262V33.1384C28.7122 24.4 35.8226 17.2896 44.561 17.2896C53.2995 17.2896 60.4099 24.4 60.4099 33.1384V38.262C59.9633 38.0012 59.482 37.798 58.9691 37.6655V36.0201H57.5283C53.2678 36.0201 49.2624 34.3602 46.2482 31.3475L44.561 29.6603L42.8739 31.3475C39.8597 34.3602 35.8542 36.0201 31.5938 36.0201H30.153ZM33.0346 46.1057V38.8469C37.3613 38.5213 41.3956 36.7361 44.561 33.7263C47.7265 36.7361 51.7608 38.5227 56.0875 38.8469V46.1057C56.0875 48.2064 55.5141 50.1717 54.5285 51.8689H44.561V54.7505H52.1599C50.1283 56.5386 47.4729 57.6322 44.561 57.6322C38.2056 57.6322 33.0346 52.4611 33.0346 46.1057ZM48.8835 59.8496V59.9173L44.561 64.2397L40.2386 59.9173V59.8496C41.6045 60.2789 43.0554 60.5138 44.561 60.5138C46.0667 60.5138 47.5176 60.2789 48.8835 59.8496ZM22.6954 68.7062C23.5267 66.2107 25.6519 64.3679 28.241 63.8953L38.3123 62.0655L44.561 68.3143L50.8084 62.067L60.8782 63.8968C63.4673 64.3694 65.5925 66.2107 66.4239 68.7076L68.4972 74.9218H38.6955L33.0836 69.3099L26.8478 74.9506C26.3046 75.4967 25.3551 75.4967 24.8105 74.9506L21.6637 71.8039L22.6954 68.7062ZM9.48749 50.2826L16.095 56.8901L14.5303 58.4549L7.92277 51.8473L9.48749 50.2826ZM34.752 84.3404C33.3919 85.6976 31.5823 86.4483 29.6588 86.4483C27.7353 86.4483 25.9257 85.6976 24.5641 84.3375L5.09159 64.8664C3.73147 63.5063 2.98225 61.6967 2.98225 59.7732C2.98225 57.8483 3.73147 56.0386 5.09159 54.6785L5.88403 53.8861L12.4916 60.4936L12.4397 60.5455C10.7554 62.2312 10.7554 64.9731 12.4397 66.6588L22.7717 76.9908C23.5887 77.8063 24.6736 78.2573 25.8291 78.2573C26.9846 78.2573 28.0696 77.8078 28.8332 77.0413L28.9413 76.9447L35.5791 83.5825L34.752 84.3404ZM37.7057 81.6317L31.0823 75.0083L32.9856 73.288L39.5975 79.8998L37.7057 81.6317Z" fill="#009944"/>
<path d="M84.9039 0H64.7326C62.3495 0 60.4102 1.93933 60.4102 4.32242V15.8489C60.4102 18.232 62.3495 20.1713 64.7326 20.1713H68.581L67.0912 28.8608L80.995 20.1713H84.9039C87.287 20.1713 89.2263 18.232 89.2263 15.8489V4.32242C89.2263 1.93933 87.287 0 84.9039 0ZM86.3447 15.8489C86.3447 16.6428 85.6978 17.2897 84.9039 17.2897H80.1679L71.0174 23.0082L71.9986 17.2897H64.7326C63.9387 17.2897 63.2918 16.6428 63.2918 15.8489V4.32242C63.2918 3.52854 63.9387 2.88161 64.7326 2.88161H84.9039C85.6978 2.88161 86.3447 3.52854 86.3447 4.32242V15.8489Z" fill="#009944"/>
<path d="M83.4635 5.76318H66.1738V8.6448H83.4635V5.76318Z" fill="#009944"/>
<path d="M77.7003 11.5264H66.1738V14.408H77.7003V11.5264Z" fill="#009944"/>
<path d="M83.4636 11.5264H80.582V14.408H83.4636V11.5264Z" fill="#009944"/>
<path d="M44.5625 4.32251C25.7369 4.32251 9.52062 17.3445 5.30483 35.5088L2.5745 30.9573L0.103516 32.4398L5.16795 40.8787L13.6067 35.8142L12.1242 33.3432L8.21958 35.686C12.3028 19.0692 27.2454 7.20412 44.5625 7.20412C48.3475 7.20412 52.082 7.76604 55.6624 8.87546L56.5154 6.12352C52.6584 4.92765 48.6371 4.32251 44.5625 4.32251Z" fill="#009944"/>
<path d="M88.527 31.9023L80.0882 26.8379L75.0252 35.2781L77.4962 36.7607L80.0176 32.5579C81.3446 36.4409 82.0232 40.5025 82.0232 44.665C82.0232 53.2335 79.0551 61.6103 73.668 68.251L75.9055 70.0664C81.7091 62.9142 84.9048 53.8919 84.9048 44.665C84.9048 40.2576 84.1945 35.9539 82.8099 31.8332L87.0444 34.3733L88.527 31.9023Z" fill="#009944"/>
</g>
<defs>
<clipPath id="clip0_544_5752">
<rect width="89.33" height="89.33" fill="white"/>
</clipPath>
</defs>
</svg>
