<svg width="120" height="120" viewBox="0 0 120 120" fill="none" xmlns="http://www.w3.org/2000/svg">
<g clip-path="url(#clip0_290_3160)">
<path d="M50 120C22.5 120 0 97.5 0 70C0 42.5 22.5 20 50 20C77.5 20 100 42.5 100 70C100 97.5 77.5 120 50 120ZM50 25C25 25 5 45 5 70C5 95 25 115 50 115C75 115 95 95 95 70C95 45 75 25 50 25Z" fill="#009944"/>
<path d="M50 102.5C32 102.5 17.5 88 17.5 70C17.5 52 32 37.5 50 37.5C68 37.5 82.5 52 82.5 70C82.5 88 68 102.5 50 102.5ZM50 42.5C35 42.5 22.5 55 22.5 70C22.5 85 35 97.5 50 97.5C65 97.5 77.5 85 77.5 70C77.5 55 65 42.5 50 42.5Z" fill="#009944"/>
<path d="M50 85C41.5 85 35 78.5 35 70C35 61.5 41.5 55 50 55C58.5 55 65 61.5 65 70C65 78.5 58.5 85 50 85ZM50 60C44.5 60 40 64.5 40 70C40 75.5 44.5 80 50 80C55.5 80 60 75.5 60 70C60 64.5 55.5 60 50 60Z" fill="#009944"/>
<path d="M50 72.5C49.5 72.5 48.5 72.5 48 72C47 71 47 69.5 48 68.5L85.5 31C86.5 30 88 30 89 31C90 32 90 33.5 89 34.5L51.5 72C51.5 72.5 50.5 72.5 50 72.5Z" fill="#009944"/>
<path d="M100 35H87.5C86 35 85 34 85 32.5V20C85 19.5 85.5 18.5 85.5 18L103 0.5C104 0 105 0 106 0C107 0.5 107.5 1.5 107.5 2.5V12.5H117.5C118.5 12.5 119.5 13 120 14C120 15 120 16 119.5 17L102 34.5C101.5 34.5 100.5 35 100 35ZM90 30H99L111.5 17.5H105C103.5 17.5 102.5 16.5 102.5 15V8.5L90 21V30Z" fill="#009944"/>
</g>
<defs>
<clipPath id="clip0_290_3160">
<rect width="120" height="120" fill="white"/>
</clipPath>
</defs>
</svg>
