<svg width="90" height="90" viewBox="0 0 90 90" fill="none" xmlns="http://www.w3.org/2000/svg">
<path d="M81.3375 71.6075L77.7315 70.3555C79.7502 68.7566 81.0486 66.2867 81.0486 63.5177V60.8747C81.0486 56.0658 77.1359 52.1531 72.327 52.1531C67.5181 52.1531 63.6054 56.0658 63.6054 60.8747V63.5177C63.6054 66.2867 64.9044 68.7566 66.9231 70.3555L63.3164 71.6075C61.0033 72.411 59.0589 73.8845 57.6665 75.7634H47.9247V71.9189C47.9247 66.8585 44.7126 62.3434 39.9324 60.6838L36.3257 59.4319C38.3444 57.833 39.6434 55.3631 39.6434 52.5941V49.9511C39.6434 45.1415 35.7307 41.2295 30.9218 41.2295C26.1129 41.2295 22.2003 45.1422 22.2003 49.9511V52.5941C22.2003 55.3631 23.4993 57.833 25.5173 59.4319L21.9113 60.6838C17.131 62.3434 13.9189 66.8585 13.9189 71.9189V75.7634H1.32149C0.59157 75.7634 0 76.355 0 77.0849V88.0085C0 88.7385 0.59157 89.33 1.32149 89.33H56.2939C56.3532 89.33 56.4118 89.3246 56.4698 89.3171C56.5277 89.3246 56.5863 89.33 56.6463 89.33H88.0084C88.7383 89.33 89.3299 88.7385 89.3299 88.0085V82.8425C89.3299 77.7828 86.1185 73.2677 81.3375 71.6075ZM66.2484 60.8747C66.2484 57.5229 68.9752 54.7961 72.327 54.7961C75.6788 54.7961 78.4056 57.5229 78.4056 60.8747V63.5177C78.4056 66.8694 75.6788 69.5963 72.327 69.5963C68.9752 69.5963 66.2484 66.8694 66.2484 63.5177V60.8747ZM24.8432 49.9511C24.8432 46.5993 27.57 43.8725 30.9218 43.8725C34.2736 43.8725 37.0004 46.5993 37.0004 49.9511V52.5941C37.0004 55.9458 34.2736 58.6726 30.9218 58.6726C27.57 58.6726 24.8432 55.9458 24.8432 52.5941V49.9511ZM33.6943 61.3156L34.9783 61.7614L30.9218 68.7995L26.8653 61.7614L28.1494 61.3156H33.6943ZM16.5619 71.9189C16.5619 67.9831 19.0604 64.4711 22.7782 63.1803L24.3239 62.6439L29.7769 72.1063C30.0127 72.5159 30.4495 72.7681 30.9218 72.7681C31.3941 72.7681 31.831 72.5159 32.0668 72.1063L37.5197 62.6439L39.0655 63.1803C42.7832 64.4711 45.281 67.9831 45.281 71.9189V75.7634H16.5619V71.9189ZM2.64298 78.4064H56.1856C55.6281 79.7893 55.3248 81.29 55.3248 82.8425V86.687H2.64298V78.4064ZM86.6869 86.687H57.9678V82.8425C57.9678 78.9067 60.4656 75.3954 64.1834 74.1039L69.5545 72.2392H75.0995L80.4706 74.1039C84.1891 75.3954 86.6869 78.9067 86.6869 82.8425V86.687Z" fill="#009944"/>
<path d="M80.9606 9.5142H67.5372C66.8073 9.5142 66.2157 10.1065 66.2157 10.8357C66.2157 11.5656 66.8073 12.1572 67.5372 12.1572H80.9606C84.1182 12.1572 86.6869 14.7259 86.6869 17.8841V36.2078C86.6869 39.3653 84.1182 41.934 80.9606 41.934H62.8128C62.0829 41.934 61.4913 42.5256 61.4913 43.2555V48.8754L54.9377 42.3211C54.6896 42.0731 54.3536 41.934 54.0033 41.934H43.2555C40.098 41.934 37.5286 39.3653 37.5286 36.2078V17.8834C37.5286 14.7259 40.0973 12.1572 43.2555 12.1572H61.3591C62.089 12.1572 62.6806 11.5656 62.6806 10.8357C62.6806 10.1058 62.089 9.5142 61.3591 9.5142H54.4436V8.36922C54.4436 3.75456 50.689 0 46.0743 0H8.36922C3.75456 0 0 3.75456 0 8.36922V11.291C0 12.0209 0.59157 12.6124 1.32149 12.6124C2.05141 12.6124 2.64298 12.0209 2.64298 11.291V8.36922C2.64298 5.21168 5.21168 2.64298 8.36922 2.64298H46.0743C49.2319 2.64298 51.8006 5.21168 51.8006 8.36922V9.5142H43.2555C38.6409 9.5142 34.8863 13.2688 34.8863 17.8834V32.4192H21.0553C20.3254 32.4192 19.7338 33.0107 19.7338 33.7406V39.3606L13.1802 32.8063C12.9321 32.5582 12.5961 32.4192 12.2458 32.4192H8.36922C5.21168 32.4192 2.64298 29.8505 2.64298 26.6929V17.4357C2.64298 16.7057 2.05141 16.1142 1.32149 16.1142C0.59157 16.1142 0 16.7057 0 17.4357V26.6929C0 31.3083 3.75456 35.0621 8.36922 35.0621H11.6978L20.1209 43.4852C20.3737 43.7381 20.7118 43.8723 21.0553 43.8716C21.2257 43.8716 21.3974 43.8389 21.561 43.7714C22.0544 43.567 22.3768 43.0851 22.3768 42.5508V35.0621H34.8863V36.2078C34.8863 40.8225 38.6409 44.5763 43.2555 44.5763H53.456L61.8784 52.9994C62.1313 53.2523 62.4693 53.3865 62.8128 53.3865C62.9832 53.3865 63.1549 53.3538 63.3185 53.2856C63.8119 53.0812 64.1343 52.5993 64.1343 52.065V44.5763H80.9606C85.5753 44.5763 89.3299 40.8225 89.3299 36.2078V17.8834C89.3299 13.2688 85.5753 9.5142 80.9606 9.5142Z" fill="#009944"/>
</svg>
