<svg width="20" height="20" viewBox="0 0 20 20" fill="none" xmlns="http://www.w3.org/2000/svg">
<g clip-path="url(#clip0)">
<path d="M14.5831 5.38642C14.2788 5.69224 14.2799 6.18689 14.5857 6.49126L17.3265 9.21876L0.78125 9.21876C0.349766 9.21876 -2.30587e-07 9.56853 -2.11727e-07 10C-1.92866e-07 10.4315 0.349766 10.7813 0.78125 10.7813L17.3265 10.7813L14.5857 13.5088C14.2799 13.8131 14.2787 14.3078 14.5831 14.6136C14.8875 14.9195 15.3822 14.9206 15.688 14.6163L19.7702 10.5538C19.7704 10.5535 19.7706 10.5533 19.7709 10.553C20.0759 10.2486 20.0769 9.75239 19.7709 9.447C19.7706 9.44677 19.7704 9.4465 19.7702 9.44626L15.688 5.38377C15.3822 5.07947 14.8875 5.08052 14.5831 5.38642Z" fill="#009944"/>
</g>
<defs>
<clipPath id="clip0">
<rect width="20" height="20" fill="white" transform="translate(0 20) rotate(-90)"/>
</clipPath>
</defs>
</svg>
