<svg width="94" height="94" viewBox="0 0 94 94" fill="none" xmlns="http://www.w3.org/2000/svg">
<path d="M47 0C21.0426 0 0 21.0426 0 47C0 72.9574 21.0426 94 47 94C72.9574 94 94 72.9574 94 47C94 21.0426 72.9574 0 47 0ZM47 88.125C24.2873 88.125 5.875 69.7128 5.875 47C5.875 24.2873 24.2873 5.875 47 5.875C69.7128 5.875 88.125 24.2873 88.125 47C88.125 69.7128 69.7128 88.125 47 88.125Z" fill="#009944"/>
<path d="M47 52.875C50.2447 52.875 52.875 50.2447 52.875 47C52.875 43.7553 50.2447 41.125 47 41.125C43.7553 41.125 41.125 43.7553 41.125 47C41.125 50.2447 43.7553 52.875 47 52.875Z" fill="#009944"/>
<path d="M67.5625 52.875C70.8072 52.875 73.4375 50.2447 73.4375 47C73.4375 43.7553 70.8072 41.125 67.5625 41.125C64.3178 41.125 61.6875 43.7553 61.6875 47C61.6875 50.2447 64.3178 52.875 67.5625 52.875Z" fill="#009944"/>
<path d="M26.4375 52.875C29.6822 52.875 32.3125 50.2447 32.3125 47C32.3125 43.7553 29.6822 41.125 26.4375 41.125C23.1928 41.125 20.5625 43.7553 20.5625 47C20.5625 50.2447 23.1928 52.875 26.4375 52.875Z" fill="#009944"/>
</svg>
