<svg width="81" height="62" viewBox="0 0 81 62" fill="none" xmlns="http://www.w3.org/2000/svg">
<path d="M12.3906 0.000488281C12.3885 0.000488281 12.386 0.000488281 12.3838 0.000488281C11.6177 0.000488281 10.8972 0.299125 10.3531 0.841854C9.803 1.39058 9.5 2.12122 9.5 2.89904V46.3624C9.5 47.9562 10.8017 49.256 12.4021 49.2601C19.1489 49.2762 30.4524 50.6824 38.2502 58.8427V13.3571C38.2502 12.8168 38.1122 12.3093 37.8517 11.8893C31.4516 1.58231 19.1527 0.0163065 12.3906 0.000488281Z" fill="#009944"/>
<path d="M71.5004 46.3622V2.89855C71.5004 2.12073 71.1974 1.3901 70.6473 0.841366C70.1032 0.298637 69.3821 0 68.6168 0C68.6144 0 68.6119 0 68.6098 0C61.848 0.016091 49.5491 1.5821 43.1487 11.889C42.8882 12.309 42.7505 12.8166 42.7505 13.3569V58.8422C50.5483 50.6819 61.8518 49.2757 68.5986 49.2596C70.1987 49.2555 71.5004 47.9557 71.5004 46.3622Z" fill="#009944"/>
<path d="M78.1021 10.0234H76.0004V46.362C76.0004 50.4314 72.6849 53.7497 68.6092 53.7598C62.8866 53.7734 53.4507 54.8924 46.7681 61.2172C58.3257 58.3874 70.5096 60.227 77.4533 61.8093C78.3203 62.0068 79.2162 61.8028 79.9108 61.2492C80.603 60.6969 81.0001 59.8713 81.0001 58.9852V12.9214C81.0004 11.3235 79.7 10.0234 78.1021 10.0234Z" fill="#009944"/>
<path d="M4.99965 46.362V10.0234H2.89801C1.30037 10.0234 0 11.3235 0 12.9214V58.9844C0 59.8708 0.397092 60.6961 1.08928 61.2483C1.78337 61.8017 2.67846 62.0065 3.54683 61.8085C10.4905 60.2259 22.6746 58.3866 34.2318 61.2164C27.5494 54.8919 18.1135 53.7731 12.3909 53.7595C8.31548 53.7497 4.99965 50.4314 4.99965 46.362Z" fill="#009944"/>
</svg>
