<svg width="56" height="56" viewBox="0 0 56 56" fill="none" xmlns="http://www.w3.org/2000/svg">
<g clip-path="url(#clip0)">
<path d="M8.85147 16.3355L7.2653 15.3616C6.879 15.992 6.51913 16.6453 6.19434 17.3008L7.86706 18.1276C8.16088 17.5213 8.49387 16.9186 8.85147 16.3355Z" fill="#009944"/>
<path d="M5.33531 19.2413C3.64755 23.5639 3.24759 28.2828 4.1828 32.8276L6.01041 32.4546C5.14763 28.2609 5.51661 23.9074 7.07317 19.9187L5.33531 19.2413Z" fill="#009944"/>
<path d="M47.4997 1.87088C47.1466 1.71281 46.7321 1.78889 46.4583 2.06221L43.7046 4.81637C33.5863 -2.02758 20.2022 -1.53742 10.6123 6.029L11.773 7.49036C20.9384 0.260115 33.7844 -0.0268717 43.2632 6.78747C43.6335 7.05669 44.1446 7.01751 44.4694 6.69454L46.0424 5.11976L45.4698 14.8518L35.7373 15.4239L37.0433 14.1179C37.2483 13.9129 37.3467 13.6241 37.3089 13.3367C37.2715 13.0492 37.1021 12.7955 36.8511 12.6502C31.0038 9.28835 23.759 9.51612 18.1345 13.2387L19.1723 14.7894C23.8378 11.7013 29.7807 11.2831 34.8331 13.6874L32.6829 15.8335C32.416 16.1004 32.3363 16.5013 32.4807 16.8498C32.6251 17.1987 32.9649 17.426 33.3426 17.426C33.3608 17.4269 33.379 17.4269 33.3972 17.426L46.4073 16.6607C46.8792 16.6334 47.2559 16.2571 47.2842 15.7847L48.049 2.77421C48.0704 2.38837 47.8522 2.02941 47.4997 1.87088Z" fill="#009944"/>
<path d="M44.3935 50.6582L43.2983 49.1476C34.1817 55.7775 21.8336 55.7852 12.7083 49.1672C12.338 48.898 11.8268 48.9376 11.5021 49.2606L9.92909 50.8336L10.5008 41.1011L20.2342 40.5289L18.9282 41.8354C18.7232 42.0404 18.6252 42.3287 18.663 42.6157C18.7009 42.9032 18.8699 43.1564 19.1204 43.3018C24.9522 46.6527 32.1733 46.4363 37.7941 42.7419L36.7555 41.1935C32.0949 44.2561 26.173 44.6624 21.1375 42.2654L23.2831 40.1194C23.5532 39.8452 23.627 39.4329 23.4689 39.0821C23.3104 38.7309 22.9528 38.5132 22.5683 38.5337L9.55874 39.2985C9.08681 39.3263 8.70963 39.7026 8.68184 40.1745L7.91654 53.1855C7.89467 53.5718 8.11333 53.9317 8.46637 54.0902C8.81941 54.2487 9.23349 54.1726 9.50727 53.8989L12.2614 51.1452C21.9957 57.79 34.8559 57.5983 44.388 50.6664L44.3935 50.6582Z" fill="#009944"/>
<path d="M5.78873 45.0332L7.26649 43.8944C0.271756 34.729 0.0804313 22.0715 6.79455 12.6989C7.06377 12.3281 7.02414 11.817 6.70117 11.4927L5.12821 9.91971L14.8607 10.4923L15.4324 20.2248L14.1264 18.9188C13.9214 18.7133 13.6326 18.6154 13.3451 18.6528C13.0577 18.6906 12.804 18.86 12.6586 19.1106C9.29726 24.9569 9.52411 32.1999 13.2449 37.8244L14.7951 36.7871C11.7079 32.1215 11.2907 26.1796 13.6964 21.1286L15.8419 23.2746C16.1161 23.5479 16.5307 23.624 16.8837 23.4655C17.2368 23.307 17.4554 22.9462 17.4326 22.5599L16.6678 9.55027C16.64 9.07788 16.2637 8.70115 15.7918 8.67291L2.78084 7.90807C2.395 7.88757 2.03604 8.10577 1.87615 8.45744C1.7158 8.81321 1.7937 9.23048 2.07112 9.50426L4.82482 12.2584C-1.91526 22.2597 -1.5276 35.4451 5.78873 45.0332Z" fill="#009944"/>
<path d="M40.5408 35.728L41.8469 37.0345C42.0518 37.2395 42.3407 37.3374 42.6281 37.3001C42.9155 37.2622 43.1693 37.0932 43.3146 36.8422C46.4833 31.3599 46.4928 24.6052 43.3406 19.1138L41.7248 20.0467C44.3295 24.5815 44.5354 30.1081 42.2751 34.8242L40.1295 32.6737C39.8548 32.4035 39.443 32.3302 39.0918 32.4882C38.7406 32.6463 38.5228 33.0039 38.5433 33.3884L39.3086 46.398C39.336 46.8704 39.7122 47.2471 40.1846 47.2753L53.1951 48.0402H53.2502C53.6274 48.0397 53.9672 47.8124 54.1112 47.4639C54.2551 47.1155 54.1754 46.7141 53.9089 46.4476L51.1548 43.6935C57.8949 33.6922 57.5072 20.5059 50.1909 10.9178L48.7131 12.0571C55.7078 21.222 55.8996 33.8799 49.1855 43.2525C48.9163 43.6229 48.9559 44.134 49.2789 44.4588L50.8423 46.0336L41.1098 45.4605L40.5408 35.728Z" fill="#009944"/>
<path d="M27.985 32.6413C30.561 32.6413 32.6497 30.5527 32.6497 27.9766C32.6497 25.4001 30.561 23.312 27.985 23.312C25.4089 23.312 23.3203 25.4001 23.3203 27.9766C23.3235 30.5513 25.4099 32.6381 27.985 32.6413ZM27.985 25.1778C29.5306 25.1778 30.7838 26.4305 30.7838 27.9766C30.7838 29.5223 29.5306 30.7754 27.985 30.7754C26.4394 30.7754 25.1862 29.5223 25.1862 27.9766C25.1862 26.4305 26.4394 25.1778 27.985 25.1778Z" fill="#009944"/>
<path d="M17.723 25.1778C17.2078 25.1778 16.79 25.5956 16.79 26.1108V29.8425C16.79 30.3577 17.2078 30.7754 17.723 30.7754H19.0905C19.2549 31.2961 19.4645 31.8018 19.7178 32.2855L18.7493 33.254C18.3849 33.6184 18.3849 34.2088 18.7493 34.5732L21.3887 37.2126C21.7526 37.5766 22.3435 37.5766 22.7074 37.2126L23.6759 36.245C24.1601 36.4979 24.6653 36.7074 25.1864 36.8709V38.2389C25.1864 38.7541 25.6042 39.1718 26.1194 39.1718H29.8511C30.3663 39.1718 30.784 38.7541 30.784 38.2389V36.8709C31.3052 36.7069 31.8104 36.4969 32.2946 36.2441L33.2631 37.2126C33.627 37.5766 34.2179 37.5766 34.5818 37.2126L37.2212 34.5732C37.5856 34.2088 37.5856 33.6184 37.2212 33.254L36.2527 32.2855C36.506 31.8018 36.7156 31.2961 36.88 30.7754H38.2475C38.7627 30.7754 39.1804 30.3577 39.1804 29.8425V26.1108C39.1804 25.5956 38.7627 25.1778 38.2475 25.1778H36.88C36.7156 24.6567 36.5056 24.1511 36.2518 23.6673L37.2212 22.6988C37.5856 22.3344 37.5856 21.744 37.2212 21.3796L34.5818 18.7402C34.2179 18.3763 33.627 18.3763 33.2631 18.7402L32.2946 19.7078C31.8104 19.455 31.3052 19.2459 30.784 19.0819V17.7144C30.784 17.1992 30.3663 16.7814 29.8511 16.7814H26.1194C25.6042 16.7814 25.1864 17.1992 25.1864 17.7144V19.0819C24.6653 19.2459 24.1601 19.4559 23.6759 19.7087L22.7074 18.7402C22.3435 18.3763 21.7526 18.3763 21.3887 18.7402L18.7493 21.3796C18.3849 21.744 18.3849 22.3344 18.7493 22.6988L19.7168 23.6673C19.464 24.1515 19.2545 24.6567 19.0905 25.1778H17.723ZM19.8034 27.0437C20.2393 27.0442 20.617 26.7426 20.714 26.3176C20.8999 25.4999 21.2242 24.7196 21.672 24.0108C21.9048 23.6418 21.851 23.1612 21.5422 22.8528L20.729 22.0392L22.0483 20.72L22.8614 21.5336C23.1698 21.842 23.6504 21.8962 24.0194 21.6634C24.7282 21.2151 25.5085 20.8913 26.3266 20.7054C26.7512 20.6084 27.0528 20.2303 27.0523 19.7948V18.6473H28.9182V19.7948C28.9177 20.2303 29.2193 20.6084 29.6438 20.7054C30.462 20.8913 31.2419 21.2151 31.9511 21.6634C32.3201 21.8962 32.8007 21.842 33.1091 21.5336L33.9222 20.72L35.2414 22.0392L34.4279 22.8528C34.1199 23.1607 34.0662 23.6409 34.2985 24.0098C34.7463 24.7187 35.0702 25.499 35.2565 26.3167C35.3526 26.7417 35.7302 27.0432 36.1662 27.0437H37.3146V28.9096H36.1662C35.7302 28.9096 35.3526 29.2111 35.2565 29.6361C35.0702 30.4538 34.7463 31.2342 34.2985 31.9434C34.0662 32.312 34.1199 32.7921 34.4279 33.1L35.2414 33.9136L33.9222 35.2328L33.1091 34.4193C32.8007 34.1109 32.3201 34.0571 31.9511 34.2894C31.2419 34.7377 30.462 35.0616 29.6438 35.2479C29.2193 35.3444 28.9177 35.7225 28.9182 36.1585V37.306H27.0523V36.1585C27.0528 35.7225 26.7512 35.3444 26.3266 35.2479C25.5085 35.0616 24.7282 34.7377 24.0194 34.2894C23.6504 34.0571 23.1698 34.1109 22.8614 34.4193L22.0483 35.2328L20.729 33.9136L21.5422 33.1C21.851 32.7921 21.9048 32.311 21.672 31.9425C21.2242 31.2333 20.8999 30.4529 20.714 29.6352C20.617 29.2102 20.2393 28.9091 19.8034 28.9096H18.6559V27.0437H19.8034Z" fill="#009944"/>
</g>
<defs>
<clipPath id="clip0">
<rect width="56" height="56" fill="white"/>
</clipPath>
</defs>
</svg>
