<svg width="78" height="78" viewBox="0 0 78 78" fill="none" xmlns="http://www.w3.org/2000/svg">
<circle cx="38.9993" cy="39.0008" r="34.0213" fill="#009944"/>
<path d="M36.1289 30.4443C38.5973 30.4443 40.954 31.4989 42.5954 33.3388L43.521 32.5125C41.6444 30.4096 38.9503 29.2036 36.1289 29.2036C30.6562 29.2036 26.2034 33.6565 26.2034 39.1292C26.2034 44.6019 30.6562 49.0547 36.1289 49.0547C38.9503 49.0547 41.6444 47.8488 43.521 45.7458L42.5954 44.9195C40.954 46.7594 38.5973 47.814 36.1289 47.814C31.3398 47.814 27.4441 43.9183 27.4441 39.1292C27.4441 34.3401 31.3398 30.4443 36.1289 30.4443Z" fill="white"/>
<path d="M22.2035 42.2308C22.2909 42.6259 22.3952 43.018 22.5155 43.4051L21.1458 44.201C20.8499 44.3722 20.7494 44.7519 20.9206 45.0471L23.402 49.3399C23.5726 49.6365 23.951 49.7376 24.2481 49.5676L25.621 48.7779C25.8952 49.0763 26.1824 49.3635 26.4801 49.6371L25.6904 51.0099C25.5199 51.3071 25.6216 51.6855 25.9175 51.8567L30.2103 54.3381C30.5062 54.5081 30.8852 54.4076 31.0571 54.1123L31.8524 52.7432C32.2395 52.8635 32.6321 52.9677 33.0273 53.0552V54.6377C33.0273 54.9808 33.3052 55.2581 33.6476 55.2581H38.6104C38.9529 55.2581 39.2308 54.9808 39.2308 54.6377V53.0546C39.6259 52.9671 40.0186 52.8629 40.4057 52.7426L41.201 54.1117C41.3728 54.4082 41.7525 54.5093 42.0478 54.3375L46.3406 51.8561C46.6371 51.6849 46.7382 51.3058 46.5676 51.0093L45.7779 49.6365C46.0757 49.3635 46.3629 49.0763 46.6371 48.7773L48.0099 49.567L48.6284 48.4913L46.817 47.4491C46.5583 47.3002 46.2295 47.3573 46.0354 47.585C45.5918 48.1055 45.1042 48.5931 44.5856 49.0354C44.3579 49.2289 44.3015 49.5577 44.4504 49.817L45.1836 51.0918L41.9634 52.9535L41.2258 51.6836C41.0757 51.4256 40.7636 51.312 40.4833 51.41C39.8375 51.6371 39.17 51.8145 38.4994 51.9373C38.2047 51.9907 37.9907 52.2475 37.9907 52.5471V54.0174H34.2686V52.5471C34.2686 52.2475 34.0546 51.9907 33.7599 51.9373C33.0893 51.8151 32.4218 51.6377 31.7761 51.41C31.495 51.312 31.183 51.4256 31.0335 51.6836L30.2959 52.9535L27.0757 51.0918L27.8089 49.817C27.9578 49.5577 27.9007 49.2295 27.6737 49.0354C27.1551 48.5931 26.6669 48.1055 26.2239 47.585C26.0298 47.3579 25.7022 47.3002 25.4423 47.4491L24.1675 48.183L22.3058 44.9622L23.5757 44.2246C23.8331 44.0751 23.9479 43.7636 23.8493 43.4826C23.6203 42.8362 23.4435 42.1687 23.3213 41.4988C23.2674 41.2047 23.0105 40.9901 22.7109 40.9901H21.2407V37.268H22.7109C23.0105 37.268 23.2674 37.0533 23.3213 36.7593C23.4435 36.0893 23.6203 35.4225 23.848 34.7761C23.9467 34.495 23.8319 34.1836 23.5744 34.0341L22.3046 33.2965L24.1663 30.0757L25.4411 30.8096C25.7004 30.9584 26.0285 30.9014 26.2227 30.6737C26.6663 30.1532 27.1538 29.6656 27.6725 29.2233C27.9001 29.0298 27.9566 28.701 27.8077 28.4417L27.0744 27.1669L30.2947 25.3052L31.0323 26.5751C31.1818 26.8331 31.4938 26.9467 31.7748 26.8486C32.4206 26.6216 33.0881 26.4442 33.7587 26.3213C34.0534 26.268 34.2674 26.0112 34.2674 25.7115V24.2407H37.9895V25.7109C37.9895 26.0105 38.2035 26.2674 38.4981 26.3207C39.1687 26.4429 39.8362 26.6203 40.482 26.848C40.7618 26.9454 41.0744 26.8325 41.2246 26.5744L41.9622 25.3046L45.1824 27.1663L44.4491 28.4411C44.3002 28.7004 44.3573 29.0285 44.5844 29.2227C45.103 29.665 45.5912 30.1526 46.0341 30.6731C46.2283 30.9007 46.5571 30.9578 46.8158 30.8089L48.6272 29.7667L48.0087 28.6911L46.6359 29.4808C46.3617 29.1824 46.0744 28.8952 45.7767 28.6216L46.5664 27.2488C46.737 26.9516 46.6352 26.5732 46.3393 26.402L42.0465 23.9206C41.75 23.75 41.3716 23.8505 41.1998 24.1464L40.4045 25.5155C40.0186 25.3945 39.6259 25.2903 39.2308 25.2035V23.6203C39.2308 23.2773 38.9529 23 38.6104 23H33.6476C33.3052 23 33.0273 23.2773 33.0273 23.6203V25.2035C32.6321 25.2909 32.2395 25.3952 31.8524 25.5155L31.0571 24.1464C30.8852 23.8505 30.5068 23.75 30.2103 23.9206L25.9175 26.402C25.621 26.5732 25.5199 26.9522 25.6904 27.2488L26.4801 28.6216C26.1824 28.8945 25.8952 29.1818 25.621 29.4808L24.2481 28.6911C23.9516 28.5199 23.5732 28.6216 23.402 28.9181L20.9206 33.2109C20.7494 33.5068 20.8505 33.8859 21.1458 34.0571L22.5155 34.853C22.3945 35.2401 22.2903 35.6321 22.2035 36.0273H20.6203C20.2779 36.0273 20 36.3046 20 36.6476V41.6104C20 41.9535 20.2779 42.2308 20.6203 42.2308H22.2035Z" fill="white"/>
<path d="M58.2016 35.5231L53.8592 32.4213C53.67 32.2861 53.4212 32.2694 53.2146 32.3742C53.0081 32.4803 52.8784 32.6931 52.8784 32.9257V34.1664H44.8139C44.6849 34.1664 44.5583 34.2067 44.4528 34.2824L40.6576 36.9958L37.7308 34.9027C37.6253 34.8271 37.4988 34.7867 37.3697 34.7867H31.1662C30.8238 34.7867 30.5459 35.064 30.5459 35.4071V37.8885C30.5459 38.2315 30.8238 38.5088 31.1662 38.5088H35.9305L37.2332 39.4393L35.9305 40.3699H31.1662C30.8238 40.3699 30.5459 40.6472 30.5459 40.9902V43.4716C30.5459 43.8146 30.8238 44.0919 31.1662 44.0919H37.3697C37.4988 44.0919 37.6253 44.0516 37.7308 43.9759L40.6576 41.8829L44.4535 44.5963C44.5583 44.672 44.6849 44.7123 44.8139 44.7123H49.1563V45.953C49.1563 46.1856 49.286 46.3984 49.4925 46.5051C49.5825 46.551 49.6799 46.5733 49.7767 46.5733C49.9038 46.5733 50.0298 46.5349 50.1371 46.4573L54.4795 43.3556C54.6427 43.2396 54.7394 43.0516 54.7394 42.8512C54.7394 42.6509 54.6427 42.4629 54.4795 42.3469L50.1371 39.2452C49.9479 39.1093 49.6991 39.0932 49.4925 39.198C49.286 39.3041 49.1563 39.5169 49.1563 39.7495V40.9902H46.2531L44.0819 39.4393L46.2531 37.8885H52.8784V39.1292C52.8784 39.3618 53.0081 39.5746 53.2146 39.6813C53.4212 39.788 53.67 39.77 53.8592 39.6341L58.2016 36.5324C58.3648 36.4158 58.4615 36.2278 58.4615 36.0274C58.4615 35.8271 58.3648 35.6391 58.2016 35.5231ZM37.1706 42.8512H31.7866V41.6106H36.129C36.2581 41.6106 36.3846 41.5702 36.4894 41.4945L38.3002 40.2011L39.5899 41.1205L37.1706 42.8512ZM46.0546 42.2309H49.7767C50.1191 42.2309 50.397 41.9536 50.397 41.6106V40.9548L53.0515 42.8512L50.397 44.7477V44.0919C50.397 43.7489 50.1191 43.4716 49.7767 43.4716H45.013L41.0186 40.6161C41.018 40.6161 41.018 40.6155 41.018 40.6155L38.6607 38.9344C38.66 38.9338 38.6594 38.9338 38.6588 38.9338L36.4894 37.3841C36.3846 37.3084 36.2581 37.2681 36.129 37.2681H31.7866V36.0274H37.1706L40.2965 38.2625C40.2971 38.2625 40.2971 38.2632 40.2971 38.2632L42.6545 39.9443C42.6551 39.9449 42.6557 39.9449 42.6563 39.9449L45.6935 42.1149C45.799 42.1906 45.9256 42.2309 46.0546 42.2309ZM54.1191 37.9238V37.2681C54.1191 36.9251 53.8412 36.6478 53.4988 36.6478H46.0546C45.9256 36.6478 45.799 36.6881 45.6942 36.7638L43.0149 38.6769L41.7252 37.7576L45.013 35.4071H53.4988C53.8412 35.4071 54.1191 35.1298 54.1191 34.7867V34.131L56.7736 36.0274L54.1191 37.9238Z" fill="white"/>
<circle cx="39" cy="39" r="38.5" stroke="#009944" stroke-dasharray="3 3"/>
</svg>
