<svg width="20" height="19" viewBox="0 0 20 19" fill="none" xmlns="http://www.w3.org/2000/svg">
<path d="M0.417454 3.49847C3.16238 5.68637 7.97886 9.53556 9.39449 10.7357C9.58453 10.8977 9.78835 10.9801 9.99996 10.9801C10.2111 10.9801 10.4146 10.8985 10.6042 10.7373C12.021 9.53593 16.8375 5.68637 19.5825 3.49847C19.7534 3.36251 19.7794 3.12354 19.6411 2.95733C19.3212 2.57325 18.8444 2.35303 18.3333 2.35303H1.66663C1.15558 2.35303 0.678665 2.57325 0.35886 2.95737C0.220501 3.12354 0.246556 3.36251 0.417454 3.49847Z" fill="#009944"/>
<path d="M19.7583 4.68402C19.6106 4.61932 19.4369 4.64189 19.314 4.74071C16.2699 7.16946 12.3848 10.2826 11.1625 11.3193C10.4764 11.9021 9.5243 11.9021 8.83664 11.3185C7.53375 10.2137 3.17094 6.72292 0.686016 4.74068C0.562305 4.64185 0.388164 4.62005 0.24168 4.68398C0.0944141 4.74836 0 4.887 0 5.03979V14.9019C0 15.7671 0.747461 16.4706 1.66668 16.4706H18.3334C19.2525 16.4706 20 15.7671 20 14.9019V5.03979C20 4.887 19.9056 4.74799 19.7583 4.68402Z" fill="#009944"/>
</svg>
