<svg width="15" height="15" viewBox="0 0 15 15" fill="none" xmlns="http://www.w3.org/2000/svg">
<path d="M0.313167 2.78777C2.37186 4.53126 5.98422 7.59858 7.04594 8.55498C7.18847 8.68406 7.34134 8.74969 7.50004 8.74969C7.65842 8.74969 7.81103 8.68468 7.95324 8.55621C9.01586 7.59888 12.6282 4.53126 14.6869 2.78777C14.8151 2.67943 14.8347 2.489 14.7309 2.35655C14.491 2.05049 14.1334 1.875 13.75 1.875H1.25005C0.866761 1.875 0.509075 2.05049 0.269221 2.35658C0.165452 2.489 0.184993 2.67943 0.313167 2.78777Z" fill="#009944"/>
<path d="M14.8187 3.73275C14.708 3.68118 14.5777 3.69917 14.4855 3.77792C12.2024 5.71333 9.28863 8.19413 8.37188 9.02022C7.85733 9.48469 7.14322 9.48469 6.62748 9.0196C5.65031 8.13917 2.3782 5.35749 0.514512 3.77789C0.421729 3.69914 0.291123 3.68177 0.18126 3.73272C0.0708105 3.78402 0 3.8945 0 4.01625V11.8751C0 12.5646 0.560596 13.1252 1.25001 13.1252H13.75C14.4394 13.1252 15 12.5646 15 11.8751V4.01625C15 3.8945 14.9292 3.78372 14.8187 3.73275Z" fill="#009944"/>
</svg>
