<svg width="35" height="34" viewBox="0 0 35 34" fill="none" xmlns="http://www.w3.org/2000/svg">
<circle cx="17.2069" cy="17" r="17" fill="#009944"/>
<path fill-rule="evenodd" clip-rule="evenodd" d="M8.37193 9.67532C8.37193 8.84132 9.0481 8.16522 9.88203 8.16522H25.7042C26.5382 8.16522 27.2143 8.84139 27.2143 9.67532V25.4975C27.2143 26.3315 26.5381 27.0076 25.7042 27.0076H9.88203C9.04803 27.0076 8.37193 26.3314 8.37193 25.4975V9.67532ZM21.2902 26.2539V19.0342H23.7345L24.1005 16.2205H21.2902V14.4241C21.2902 13.6095 21.5183 13.0544 22.6967 13.0544L24.1995 13.0537V10.5372C23.9395 10.5029 23.0475 10.4263 22.0096 10.4263C19.8429 10.4263 18.3595 11.7375 18.3595 14.1456V16.2205H15.9089V19.0342H18.3595V26.2539H21.2902Z" fill="white"/>
</svg>
