<svg width="56" height="56" viewBox="0 0 56 56" fill="none" xmlns="http://www.w3.org/2000/svg">
<path d="M32.5168 35.2258C34.5093 35.2258 36.1297 33.6055 36.1297 31.6129C36.1297 29.6203 34.5093 28 32.5168 28C30.5242 28 28.9039 29.6203 28.9039 31.6129C28.9039 31.9326 28.959 32.2378 29.0375 32.5333L23.9767 35.3793C23.0788 34.7182 21.9735 34.3226 20.7748 34.3226C17.786 34.3226 15.3555 36.7531 15.3555 39.7419C15.3555 42.7308 17.786 45.1613 20.7748 45.1613C21.9735 45.1613 23.0788 44.7657 23.9767 44.1046L29.0375 46.9505C28.959 47.246 28.9039 47.5512 28.9039 47.871C28.9039 49.8635 30.5242 51.4839 32.5168 51.4839C34.5093 51.4839 36.1297 49.8635 36.1297 47.871C36.1297 45.8784 34.5093 44.2581 32.5168 44.2581C31.4953 44.2581 30.5758 44.6881 29.9182 45.3717L25.2737 42.7595C25.8546 41.8972 26.1942 40.8582 26.1942 39.7419C26.1942 38.6257 25.8546 37.5866 25.2737 36.7244L29.9182 34.1122C30.5758 34.7958 31.4953 35.2258 32.5168 35.2258ZM32.5168 46.0645C33.513 46.0645 34.3232 46.8747 34.3232 47.871C34.3232 48.8673 33.513 49.6774 32.5168 49.6774C31.5205 49.6774 30.7103 48.8673 30.7103 47.871C30.7103 46.8747 31.5205 46.0645 32.5168 46.0645ZM20.7748 43.3548C18.7823 43.3548 17.1619 41.7345 17.1619 39.7419C17.1619 37.7494 18.7823 36.129 20.7748 36.129C22.7674 36.129 24.3877 37.7494 24.3877 39.7419C24.3877 41.7345 22.7674 43.3548 20.7748 43.3548ZM32.5168 29.8065C33.513 29.8065 34.3232 30.6166 34.3232 31.6129C34.3232 32.6092 33.513 33.4194 32.5168 33.4194C31.5205 33.4194 30.7103 32.6092 30.7103 31.6129C30.7103 30.6166 31.5205 29.8065 32.5168 29.8065Z" fill="#009944"/>
<path d="M51.4841 16.2581H50.5808V0H19.8712V5.41935H5.41954V12.6452H4.51632C3.02256 12.6452 1.80664 13.8611 1.80664 15.3548V44.2581C1.80664 45.7518 3.02256 46.9677 4.51632 46.9677H13.4582C16.1246 52.3121 21.6335 56 28.0002 56C34.3669 56 39.8758 52.3121 42.5422 46.9677H51.4841C52.9778 46.9677 54.1937 45.7518 54.1937 44.2581V18.9677C54.1937 17.474 52.9778 16.2581 51.4841 16.2581ZM21.6776 1.80645H48.7744V16.2581H36.1292V5.41935H21.6776V1.80645ZM7.226 7.22581H34.3228V16.2581H24.7613L21.9422 13.439C21.4311 12.927 20.7501 12.6452 20.0264 12.6452H7.226V7.22581ZM4.51632 14.4516H20.0264C20.2641 14.4516 20.497 14.5473 20.665 14.7162L24.0133 18.0645H51.4841C51.9824 18.0645 52.3873 18.4694 52.3873 18.9677V19.871H3.61309V15.3548C3.61309 14.8565 4.01796 14.4516 4.51632 14.4516ZM28.0002 54.1935C20.0321 54.1935 13.5486 47.71 13.5486 39.7419C13.5486 31.7739 20.0321 25.2903 28.0002 25.2903C35.9682 25.2903 42.4518 31.7739 42.4518 39.7419C42.4518 47.71 35.9682 54.1935 28.0002 54.1935ZM51.4841 45.1613H43.31C43.9134 43.4633 44.2583 41.6441 44.2583 39.7419C44.2583 30.7776 36.9645 23.4839 28.0002 23.4839C19.0359 23.4839 11.7421 30.7776 11.7421 39.7419C11.7421 41.6441 12.0879 43.4633 12.6903 45.1613H4.51632C4.01796 45.1613 3.61309 44.7564 3.61309 44.2581V21.6774H52.3873V44.2581C52.3873 44.7564 51.9824 45.1613 51.4841 45.1613Z" fill="#009944"/>
<path d="M7.22559 16.2581H19.8707V18.0645H7.22559V16.2581Z" fill="#009944"/>
<path d="M9.03223 9.03223H32.5161V10.8387H9.03223V9.03223Z" fill="#009944"/>
<path d="M25.29 12.6451H32.5158V14.4516H25.29V12.6451Z" fill="#009944"/>
<path d="M37.9355 3.61292H46.9678V5.41937H37.9355V3.61292Z" fill="#009944"/>
<path d="M37.9355 7.22583H46.9678V9.03228H37.9355V7.22583Z" fill="#009944"/>
<path d="M37.9355 10.8387H46.9678V12.6452H37.9355V10.8387Z" fill="#009944"/>
</svg>
