<svg width="98" height="97" viewBox="0 0 98 97" fill="none" xmlns="http://www.w3.org/2000/svg">
<circle cx="49.2478" cy="48.5" r="48.5" fill="#7DB015"/>
<g clip-path="url(#clip0_437_1317)">
<path d="M44.3813 53.6C40.147 53.6 36.7146 57.0324 36.7146 61.2666C36.7146 65.5009 40.147 68.9333 44.3813 68.9333C48.6155 68.9333 52.0479 65.5009 52.0479 61.2666C52.0434 57.0343 48.6137 53.6045 44.3813 53.6ZM44.3813 67.4C40.9938 67.4 38.2479 64.6541 38.2479 61.2666C38.2479 57.8792 40.9938 55.1333 44.3813 55.1333C47.7688 55.1333 50.5146 57.8792 50.5146 61.2666C50.5109 64.6523 47.7669 67.3962 44.3813 67.4Z" fill="white"/>
<path d="M44.3811 58.9665C45.3174 58.9665 45.9145 59.4202 45.9145 59.7332H47.4478C47.4478 58.6438 46.4827 57.7615 45.1478 57.5099V56.6665H43.6145V57.5099C42.2795 57.7596 41.3145 58.6423 41.3145 59.7332C41.3145 61.0236 42.6614 62.0332 44.3811 62.0332C45.3174 62.0332 45.9145 62.4869 45.9145 62.7998C45.9145 63.1128 45.3174 63.5665 44.3811 63.5665C43.4449 63.5665 42.8478 63.1128 42.8478 62.7998H41.3145C41.3145 63.8892 42.2795 64.7715 43.6145 65.0231V65.8665H45.1478V65.0231C46.4827 64.7734 47.4478 63.8907 47.4478 62.7998C47.4478 61.5095 46.1009 60.4998 44.3811 60.4998C43.4449 60.4998 42.8478 60.0461 42.8478 59.7332C42.8478 59.4202 43.4449 58.9665 44.3811 58.9665Z" fill="white"/>
<path d="M65.8478 70.4667H33.6478V52.0667H45.9145C47.1846 52.0667 48.2145 51.0368 48.2145 49.7667V30.6H56.6478V39.8H65.8478V50.5333H67.3811V38.7159L57.7319 29.0667H48.2145V28.3C48.2145 27.0298 47.1846 26 45.9145 26H29.0478C27.7776 26 26.7478 27.0298 26.7478 28.3V49.7667C26.7478 51.0368 27.7776 52.0667 29.0478 52.0667H32.1145V72H67.3811V61.2667H65.8478V70.4667ZM58.1811 31.6841L64.7637 38.2667H58.1811V31.6841ZM28.2811 49.7667V28.3C28.2811 27.8766 28.6244 27.5333 29.0478 27.5333H45.9145C46.3379 27.5333 46.6811 27.8766 46.6811 28.3V49.7667C46.6811 50.1901 46.3379 50.5333 45.9145 50.5333H29.0478C28.6244 50.5333 28.2811 50.1901 28.2811 49.7667Z" fill="white"/>
<path d="M51.281 45.1665H52.8143V46.6998H51.281V45.1665Z" fill="white"/>
<path d="M54.3479 45.1665H63.5479V46.6998H54.3479V45.1665Z" fill="white"/>
<path d="M51.281 42.1H52.8143V43.6333H51.281V42.1Z" fill="white"/>
<path d="M54.3479 42.1001H63.5479V43.6334H54.3479V42.1001Z" fill="white"/>
<path d="M51.281 48.2333H52.8143V49.7667H51.281V48.2333Z" fill="white"/>
<path d="M54.3479 48.2334H63.5479V49.7667H54.3479V48.2334Z" fill="white"/>
<path d="M51.281 51.2998H52.8143V52.8331H51.281V51.2998Z" fill="white"/>
<path d="M54.3479 51.2998H63.5479V52.8331H54.3479V51.2998Z" fill="white"/>
<path d="M45.9145 28.2998H29.0479V33.6665H45.9145V28.2998ZM44.3812 32.1331H30.5812V29.8331H44.3812V32.1331Z" fill="white"/>
<path d="M32.8811 34.4331H31.3478C30.501 34.4331 29.8145 35.1197 29.8145 35.9664V37.4998C29.8145 38.3465 30.501 39.0331 31.3478 39.0331H32.8811C33.7279 39.0331 34.4145 38.3465 34.4145 37.4998V35.9664C34.4145 35.1197 33.7279 34.4331 32.8811 34.4331ZM31.3478 37.4998V35.9664H32.8811V37.4998H31.3478Z" fill="white"/>
<path d="M38.2478 34.4331H36.7145C35.8677 34.4331 35.1812 35.1197 35.1812 35.9664V37.4998C35.1812 38.3465 35.8677 39.0331 36.7145 39.0331H38.2478C39.0946 39.0331 39.7812 38.3465 39.7812 37.4998V35.9664C39.7812 35.1197 39.0946 34.4331 38.2478 34.4331ZM36.7145 37.4998V35.9664H38.2478V37.4998H36.7145Z" fill="white"/>
<path d="M43.6145 34.4331H42.0812C41.2344 34.4331 40.5479 35.1197 40.5479 35.9664V37.4998C40.5479 38.3465 41.2344 39.0331 42.0812 39.0331H43.6145C44.4613 39.0331 45.1479 38.3465 45.1479 37.4998V35.9664C45.1479 35.1197 44.4613 34.4331 43.6145 34.4331ZM42.0812 37.4998V35.9664H43.6145V37.4998H42.0812Z" fill="white"/>
<path d="M32.8811 39.7998H31.3478C30.501 39.7998 29.8145 40.4864 29.8145 41.3331V42.8665C29.8145 43.7133 30.501 44.3998 31.3478 44.3998H32.8811C33.7279 44.3998 34.4145 43.7133 34.4145 42.8665V41.3331C34.4145 40.4864 33.7279 39.7998 32.8811 39.7998ZM31.3478 42.8665V41.3331H32.8811V42.8665H31.3478Z" fill="white"/>
<path d="M38.2478 39.7998H36.7145C35.8677 39.7998 35.1812 40.4864 35.1812 41.3331V42.8665C35.1812 43.7133 35.8677 44.3998 36.7145 44.3998H38.2478C39.0946 44.3998 39.7812 43.7133 39.7812 42.8665V41.3331C39.7812 40.4864 39.0946 39.7998 38.2478 39.7998ZM36.7145 42.8665V41.3331H38.2478V42.8665H36.7145Z" fill="white"/>
<path d="M43.6145 39.7998H42.0812C41.2344 39.7998 40.5479 40.4864 40.5479 41.3331V42.8665C40.5479 43.7133 41.2344 44.3998 42.0812 44.3998H43.6145C44.4613 44.3998 45.1479 43.7133 45.1479 42.8665V41.3331C45.1479 40.4864 44.4613 39.7998 43.6145 39.7998ZM42.0812 42.8665V41.3331H43.6145V42.8665H42.0812Z" fill="white"/>
<path d="M32.8811 45.1665H31.3478C30.501 45.1665 29.8145 45.8531 29.8145 46.6998V48.2332C29.8145 49.0799 30.501 49.7665 31.3478 49.7665H32.8811C33.7279 49.7665 34.4145 49.0799 34.4145 48.2332V46.6998C34.4145 45.8531 33.7279 45.1665 32.8811 45.1665ZM31.3478 48.2332V46.6998H32.8811V48.2332H31.3478Z" fill="white"/>
<path d="M38.2478 45.1665H36.7145C35.8677 45.1665 35.1812 45.8531 35.1812 46.6998V48.2332C35.1812 49.0799 35.8677 49.7665 36.7145 49.7665H38.2478C39.0946 49.7665 39.7812 49.0799 39.7812 48.2332V46.6998C39.7812 45.8531 39.0946 45.1665 38.2478 45.1665ZM36.7145 48.2332V46.6998H38.2478V48.2332H36.7145Z" fill="white"/>
<path d="M43.6145 45.1665H42.0812C41.2344 45.1665 40.5479 45.8531 40.5479 46.6998V48.2332C40.5479 49.0799 41.2344 49.7665 42.0812 49.7665H43.6145C44.4613 49.7665 45.1479 49.0799 45.1479 48.2332V46.6998C45.1479 45.8531 44.4613 45.1665 43.6145 45.1665ZM42.0812 48.2332V46.6998H43.6145V48.2332H42.0812Z" fill="white"/>
<path d="M72.0513 50.4632C71.1413 49.5943 69.7094 49.5943 68.7994 50.4632L55.6564 63.6058C55.5927 63.6702 55.5407 63.7451 55.5029 63.8274L53.6521 67.8464C53.5184 68.1377 53.5802 68.4817 53.8071 68.7082C54.0335 68.935 54.3776 68.9968 54.6688 68.8632L58.6878 67.0124C58.7702 66.9746 58.8451 66.9229 58.9094 66.8589L72.0513 53.7159C72.9498 52.8178 72.9498 51.3612 72.0513 50.4632ZM57.9212 65.6767L55.9124 66.6021L56.8378 64.5933L66.6371 54.7933L67.7212 55.8774L57.9212 65.6767ZM68.8076 54.7899L67.7235 53.7062L68.2603 53.1693L69.3444 54.2535L68.8076 54.7899ZM70.9698 52.628L70.4278 53.1701L69.3437 52.086L69.8865 51.5439C70.1893 51.2542 70.6666 51.2542 70.9698 51.5439C71.269 51.8434 71.269 52.3286 70.9698 52.628Z" fill="white"/>
</g>
<defs>
<clipPath id="clip0_437_1317">
<rect width="46" height="46" fill="white" transform="translate(26.7478 26)"/>
</clipPath>
</defs>
</svg>
