<svg width="501" height="3140" viewBox="0 0 501 3140" fill="none" xmlns="http://www.w3.org/2000/svg">
<path d="M1.2105 0.270022L1.21051 63.8326C-0.401797 79.0876 6.53111 109.598 47.1612 109.598C87.7912 109.598 294.65 109.598 393 109.598" stroke="#009944" stroke-width="2"/>
<path d="M499.789 218.925L499.789 155.363C501.402 140.108 494.469 109.598 453.839 109.598C413.209 109.598 206.35 109.598 108 109.598" stroke="#009944" stroke-width="2"/>
<path d="M1.2105 777.127L1.21051 840.69C-0.401797 855.945 6.53111 886.455 47.1612 886.455C87.7912 886.455 294.65 886.455 393 886.455" stroke="#009944" stroke-width="2"/>
<path d="M499.789 995.783L499.789 932.22C501.402 916.965 494.469 886.455 453.839 886.455C413.209 886.455 206.35 886.455 108 886.455" stroke="#009944" stroke-width="2"/>
<path d="M1.2105 1577.11L1.21051 1640.67C-0.401797 1655.93 6.53111 1686.44 47.1612 1686.44C87.7912 1686.44 294.65 1686.44 393 1686.44" stroke="#009944" stroke-width="2"/>
<path d="M499.789 1795.77L499.789 1732.2C501.402 1716.95 494.469 1686.44 453.839 1686.44C413.209 1686.44 206.35 1686.44 108 1686.44" stroke="#009944" stroke-width="2"/>
<path d="M1.2105 2442L1.21051 2505.56C-0.401797 2520.82 6.53111 2551.33 47.1612 2551.33C87.7912 2551.33 294.65 2551.33 393 2551.33" stroke="#009944" stroke-width="2"/>
<path d="M499.789 2660.66L499.789 2597.09C501.402 2581.84 494.469 2551.33 453.839 2551.33C413.209 2551.33 206.35 2551.33 108 2551.33" stroke="#009944" stroke-width="2"/>
<path d="M1.21051 590.008L1.21051 526.446C-0.401795 511.191 6.53111 480.681 47.1612 480.681C87.7912 480.681 294.65 480.681 393 480.681" stroke="#009944" stroke-width="2"/>
<path d="M499.789 371.353L499.789 434.916C501.402 450.171 494.469 480.681 453.839 480.681C413.209 480.681 206.35 480.681 108 480.681" stroke="#009944" stroke-width="2"/>
<path d="M1.21051 1389.99L1.21051 1326.43C-0.401795 1311.17 6.53111 1280.66 47.1612 1280.66C87.7912 1280.66 294.65 1280.66 393 1280.66" stroke="#009944" stroke-width="2"/>
<path d="M499.789 1171.34L499.789 1234.9C501.402 1250.15 494.469 1280.66 453.839 1280.66C413.209 1280.66 206.35 1280.66 108 1280.66" stroke="#009944" stroke-width="2"/>
<path d="M1.21051 2179.46L1.21051 2115.9C-0.401795 2100.65 6.53111 2070.14 47.1612 2070.14C87.7912 2070.14 294.65 2070.14 393 2070.14" stroke="#009944" stroke-width="2"/>
<path d="M499.789 1960.81L499.789 2024.37C501.402 2039.63 494.469 2070.14 453.839 2070.14C413.209 2070.14 206.35 2070.14 108 2070.14" stroke="#009944" stroke-width="2"/>
<path d="M1.21051 3139.65L1.21051 3076.09C-0.401795 3060.84 6.53111 3030.33 47.1612 3030.33C87.7912 3030.33 294.65 3030.33 393 3030.33" stroke="#009944" stroke-width="2"/>
<path d="M499.789 2921L499.789 2984.56C501.402 2999.82 494.469 3030.33 453.839 3030.33C413.209 3030.33 206.35 3030.33 108 3030.33" stroke="#009944" stroke-width="2"/>
</svg>
