<svg width="94" height="94" viewBox="0 0 94 94" fill="none" xmlns="http://www.w3.org/2000/svg">
<circle cx="47" cy="47" r="41" fill="#009944"/>
<circle cx="47" cy="47" r="46.5" stroke="#009944" stroke-dasharray="3 3"/>
<path d="M26.671 44.1324H30.3934C30.6135 44.9432 30.9307 45.7233 31.3385 46.4544L28.7038 49.1441C28.578 49.2726 28.5073 49.4469 28.5073 49.6289C28.5073 49.811 28.578 49.9852 28.7038 50.1137L31.5503 53.0217C31.8124 53.2888 32.237 53.2888 32.4991 53.0217L35.134 50.3303C35.8498 50.7466 36.6128 51.0707 37.4067 51.2953V55.0971C37.4067 55.4756 37.7071 55.7824 38.0777 55.7824H42.1036C42.4742 55.7824 42.7746 55.4756 42.7746 55.0971V51.2953C43.5685 51.0707 44.3314 50.7466 45.0472 50.3303L47.6822 53.0217C47.9485 53.2787 48.3649 53.2787 48.631 53.0217L51.4779 50.1137C51.6037 49.9852 51.6745 49.811 51.6745 49.6289C51.6745 49.4469 51.6037 49.2726 51.4779 49.1441L48.8428 46.4544C49.2506 45.7233 49.5677 44.9432 49.7879 44.1324H53.5103C53.8809 44.1324 54.1813 43.8256 54.1813 43.4471V39.3353C54.1813 38.9571 53.8809 38.65 53.5103 38.65H49.7879C49.5677 37.8394 49.2506 37.0594 48.8428 36.3283L51.4774 33.6385C51.6032 33.51 51.674 33.3358 51.674 33.1537C51.674 32.9717 51.6032 32.7974 51.4774 32.6689L48.631 29.761C48.3689 29.4936 47.9443 29.4936 47.6822 29.761L45.0472 32.4524C44.3314 32.0364 43.5682 31.7122 42.7746 31.4873V27.6853C42.7746 27.307 42.4742 27 42.1036 27H38.0777C37.7071 27 37.4067 27.307 37.4067 27.6853V31.4873C36.6131 31.7122 35.8498 32.0364 35.134 32.4524L32.4991 29.761C32.2328 29.504 31.8163 29.504 31.5503 29.761L28.7033 32.6689C28.5775 32.7974 28.5067 32.9717 28.5067 33.1537C28.5067 33.3358 28.5775 33.51 28.7033 33.6385L31.3385 36.3283C30.9307 37.0594 30.6135 37.8394 30.3934 38.65H26.671C26.3004 38.65 26 38.9571 26 39.3353V43.4471C26 43.8256 26.3004 44.1324 26.671 44.1324ZM27.342 40.0206H30.9184C31.2337 40.0206 31.5065 39.7966 31.5739 39.482C31.794 38.4557 32.1922 37.4775 32.7494 36.5941C32.9195 36.3232 32.8818 35.9675 32.6587 35.7397L30.1265 33.1535L32.0247 31.2146L34.5563 33.8008C34.7794 34.0291 35.128 34.0676 35.3938 33.8936C36.259 33.3248 37.2164 32.9182 38.2213 32.693C38.529 32.624 38.7487 32.3453 38.7487 32.0233V28.3706H41.4326V32.0233C41.4326 32.3453 41.6522 32.624 41.9599 32.693C42.9648 32.9182 43.9223 33.3248 44.7875 33.8936C45.0533 34.0676 45.4019 34.0291 45.6249 33.8008L48.1566 31.2146L50.0542 33.1535L47.5225 35.7389C47.299 35.9669 47.2615 36.323 47.4319 36.5941C47.9891 37.4781 48.3867 38.4559 48.6066 39.4825C48.6742 39.7971 48.9471 40.0214 49.2621 40.0214H52.8393V42.7626H49.2621C48.9471 42.7626 48.6742 42.9867 48.6066 43.3012C48.3867 44.3275 47.9888 45.3054 47.4319 46.1883C47.2618 46.4594 47.2995 46.8152 47.5225 47.043L50.0547 49.6287L48.1566 51.5681L45.6249 48.9817C45.4019 48.7536 45.0533 48.715 44.7875 48.889C43.9228 49.4581 42.9656 49.8648 41.9607 50.0896C41.6525 50.1582 41.4326 50.4371 41.4326 50.7591V54.4118H38.7487V50.7591C38.7487 50.4371 38.5288 50.1582 38.2205 50.0896C37.2156 49.8648 36.2584 49.4581 35.3938 48.889C35.128 48.715 34.7794 48.7536 34.5563 48.9817L32.0247 51.5681L30.1271 49.6292L32.6587 47.0436C32.8823 46.8157 32.9198 46.4597 32.7494 46.1883C32.1922 45.3046 31.794 44.3265 31.5739 43.2999C31.5062 42.9853 31.2337 42.7618 30.9184 42.7618H27.342V40.0206Z" fill="white"/>
<path d="M40.0905 46.8734C43.0551 46.8734 45.4583 44.4192 45.4583 41.3911C45.4583 38.3632 43.0551 35.9087 40.0905 35.9087C37.1259 35.9087 34.7227 38.3632 34.7227 41.3911C34.7258 44.4173 37.1274 46.8702 40.0905 46.8734ZM40.0905 37.2793C42.3136 37.2793 44.1163 39.1205 44.1163 41.3911C44.1163 43.6619 42.3136 45.5028 40.0905 45.5028C37.8673 45.5028 36.0646 43.6619 36.0646 41.3911C36.067 39.121 37.8679 37.2817 40.0905 37.2793Z" fill="white"/>
<path d="M40.0907 48.9296C44.1669 48.9296 47.4715 45.5548 47.4715 41.3913C47.4715 37.2281 44.1669 33.853 40.0907 33.853C36.0145 33.853 32.71 37.2281 32.71 41.3913C32.7149 45.5526 36.0164 48.9248 40.0907 48.9296ZM40.0907 35.2236C43.426 35.2236 46.1295 37.9849 46.1295 41.3913C46.1295 44.7977 43.426 47.559 40.0907 47.559C36.7555 47.559 34.0519 44.7977 34.0519 41.3913C34.0556 37.9868 36.7571 35.2274 40.0907 35.2236Z" fill="white"/>
<path d="M64.246 58.5232V53.0409C64.246 52.6627 63.9456 52.3556 63.575 52.3556H62.233V46.8733C62.233 46.495 61.9326 46.188 61.562 46.188H55.5232C55.1526 46.188 54.8522 46.495 54.8522 46.8733V52.3556H51.4973C51.1267 52.3556 50.8263 52.6627 50.8263 53.0409V58.5232H29.3549C27.5029 58.5256 26.0024 60.0582 26 61.9497V63.3203C26.0024 65.2121 27.5029 66.7446 29.3549 66.7467H64.246C66.098 66.7446 67.5985 65.2121 67.6009 63.3203V61.9497C67.5985 60.0582 66.098 58.5256 64.246 58.5232ZM62.904 58.5232H58.2071V53.7262H62.904V58.5232ZM56.1942 47.5586H60.891V52.3556H56.1942V47.5586ZM52.1683 53.7262H56.8652V58.5232H52.1683V53.7262ZM66.2589 63.3203C66.2589 64.4558 65.3575 65.3762 64.246 65.3762H29.3549C28.2433 65.3762 27.342 64.4558 27.342 63.3203V61.9497C27.342 60.8144 28.2433 59.8938 29.3549 59.8938H64.246C65.3575 59.8938 66.2589 60.8144 66.2589 61.9497V63.3203Z" fill="white"/>
<path d="M46.8005 60.5796C45.689 60.5796 44.7876 61.5002 44.7876 62.6355C44.7876 63.7711 45.689 64.6914 46.8005 64.6914C47.9121 64.6914 48.8134 63.7711 48.8134 62.6355C48.8134 61.5002 47.9121 60.5796 46.8005 60.5796ZM46.8005 63.3208C46.4299 63.3208 46.1295 63.014 46.1295 62.6355C46.1295 62.2572 46.4299 61.9502 46.8005 61.9502C47.1711 61.9502 47.4715 62.2572 47.4715 62.6355C47.4715 63.014 47.1711 63.3208 46.8005 63.3208Z" fill="white"/>
<path d="M40.0906 60.5796C38.979 60.5796 38.0776 61.5002 38.0776 62.6355C38.0776 63.7711 38.979 64.6914 40.0906 64.6914C41.2022 64.6914 42.1036 63.7711 42.1036 62.6355C42.1036 61.5002 41.2022 60.5796 40.0906 60.5796ZM40.0906 63.3208C39.72 63.3208 39.4196 63.014 39.4196 62.6355C39.4196 62.2572 39.72 61.9502 40.0906 61.9502C40.4612 61.9502 40.7616 62.2572 40.7616 62.6355C40.7616 63.014 40.4612 63.3208 40.0906 63.3208Z" fill="white"/>
<path d="M53.51 60.5796C52.3984 60.5796 51.4971 61.5002 51.4971 62.6355C51.4971 63.7711 52.3984 64.6914 53.51 64.6914C54.6216 64.6914 55.523 63.7711 55.523 62.6355C55.523 61.5002 54.6216 60.5796 53.51 60.5796ZM53.51 63.3208C53.1394 63.3208 52.839 63.014 52.839 62.6355C52.839 62.2572 53.1394 61.9502 53.51 61.9502C53.8806 61.9502 54.181 62.2572 54.181 62.6355C54.181 63.014 53.8806 63.3208 53.51 63.3208Z" fill="white"/>
<path d="M33.3811 60.5796C32.2695 60.5796 31.3682 61.5002 31.3682 62.6355C31.3682 63.7711 32.2695 64.6914 33.3811 64.6914C34.4927 64.6914 35.3941 63.7711 35.3941 62.6355C35.3941 61.5002 34.4927 60.5796 33.3811 60.5796ZM33.3811 63.3208C33.0105 63.3208 32.7101 63.014 32.7101 62.6355C32.7101 62.2572 33.0105 61.9502 33.3811 61.9502C33.7517 61.9502 34.0521 62.2572 34.0521 62.6355C34.0521 63.014 33.7517 63.3208 33.3811 63.3208Z" fill="white"/>
<path d="M60.22 60.5796C59.1084 60.5796 58.207 61.5002 58.207 62.6355C58.207 63.7711 59.1084 64.6914 60.22 64.6914C61.3316 64.6914 62.233 63.7711 62.233 62.6355C62.233 61.5002 61.3316 60.5796 60.22 60.5796ZM60.22 63.3208C59.8494 63.3208 59.549 63.014 59.549 62.6355C59.549 62.2572 59.8494 61.9502 60.22 61.9502C60.5906 61.9502 60.891 62.2572 60.891 62.6355C60.891 63.014 60.5906 63.3208 60.22 63.3208Z" fill="white"/>
</svg>
