<svg width="67" height="66" viewBox="0 0 67 66" fill="none" xmlns="http://www.w3.org/2000/svg">
<path d="M51.2872 14.1425L65.4297 7.07126L51.2872 0V2.7973H30.9859V4.93428H53.4242V3.45763L60.6514 7.07126L53.4242 10.6849V9.20824H22.438V11.3452H51.2872V14.1425Z" fill="#2D73C3"/>
<path d="M26.7124 2.79688H28.8494V4.93385H26.7124V2.79688Z" fill="#2D73C3"/>
<path d="M22.438 2.79688H24.575V4.93385H22.438V2.79688Z" fill="#2D73C3"/>
<path d="M37.3969 51.2881L23.2544 58.3593L37.3969 65.4306V62.6333H57.6982V60.4963H35.2599V61.973L28.0327 58.3593L35.2599 54.7457V56.2224H66.2461V54.0854H37.3969V51.2881Z" fill="#2D73C3"/>
<path d="M59.8354 60.4951H61.9724V62.6321H59.8354V60.4951Z" fill="#2D73C3"/>
<path d="M64.1094 60.4951H66.2464V62.6321H64.1094V60.4951Z" fill="#2D73C3"/>
<path d="M59.8354 41.2627H61.9724V43.3997H59.8354V41.2627Z" fill="#2D73C3"/>
<path d="M55.5615 41.2627H57.6985V43.3997H55.5615V41.2627Z" fill="#2D73C3"/>
<path d="M51.2876 41.2627H53.4246V43.3997H51.2876V41.2627Z" fill="#2D73C3"/>
<path d="M51.2876 36.9893H61.9725V39.1262H51.2876V36.9893Z" fill="#2D73C3"/>
<path d="M63.0409 19.8925H55.5614H44.8765H37.5905C33.5164 15.1356 27.6397 12.4131 21.3698 12.4131C9.58648 12.4131 0 21.9996 0 33.7829C0 45.5662 9.58648 55.1527 21.3698 55.1527C27.6397 55.1527 33.5164 52.4301 37.5905 47.6732H63.0409C64.8081 47.6732 66.2463 46.235 66.2463 44.4678V23.098C66.2463 21.3307 64.8081 19.8925 63.0409 19.8925ZM53.4245 22.0295V26.3034H47.0135V22.0295H53.4245ZM35.382 20.6255C34.9332 20.992 34.587 21.4728 34.3883 22.0295H28.5671C27.8566 19.1948 26.8714 16.7426 25.6245 15.0234C29.3418 15.8632 32.7321 17.8004 35.382 20.6255ZM34.1917 43.3993H29.0394C29.5565 40.7013 29.8482 37.7673 29.9059 34.8514H34.1917V43.3993ZM21.3698 53.0157C19.564 53.0157 17.6397 50.1981 16.3757 45.5363H26.365C25.0999 50.1981 23.1755 53.0157 21.3698 53.0157ZM15.8649 43.3993C15.3585 40.914 15.0401 38.0258 14.9791 34.8514H27.7615C27.7006 38.0258 27.3811 40.914 26.8757 43.3993H15.8649ZM2.19147 34.8514H12.8336C12.8913 37.7673 13.183 40.7013 13.7002 43.3993H4.73982C3.26423 40.8584 2.36243 37.9532 2.19147 34.8514ZM21.3698 14.5501C23.1755 14.5501 25.0999 17.3677 26.3639 22.0295H16.3746C17.6397 17.3677 19.564 14.5501 21.3698 14.5501ZM26.8746 24.1665C27.3811 26.6518 27.6995 29.5399 27.7604 32.7144H14.9791C15.0401 29.5399 15.3595 26.6518 15.8649 24.1665H26.8746ZM12.8336 32.7144H2.19147C2.3635 29.6126 3.26423 26.7073 4.73982 24.1665H13.7002C13.183 26.8644 12.8913 29.7985 12.8336 32.7144ZM34.1917 32.7144H29.9059C29.8482 29.7985 29.5565 26.8644 29.0394 24.1665H34.1917V32.7144ZM17.1001 15.0437C15.8607 16.7618 14.8798 19.2055 14.1724 22.0295H6.18014C8.86419 18.5687 12.6915 16.0492 17.1001 15.0437ZM6.18014 45.5363H14.1724C14.8798 48.3603 15.8596 50.8039 17.1001 52.521C12.6915 51.5166 8.86419 48.9971 6.18014 45.5363ZM25.6245 52.5423C26.8714 50.8231 27.8566 48.371 28.5671 45.5363H34.3883C34.587 46.0929 34.9321 46.5738 35.382 46.9402C32.7321 49.7653 29.3418 51.7025 25.6245 52.5423ZM64.1094 44.4678C64.1094 45.0576 63.6296 45.5363 63.0409 45.5363H37.3971C36.8084 45.5363 36.3286 45.0576 36.3286 44.4678V23.098C36.3286 22.5092 36.8084 22.0295 37.3971 22.0295H44.8765V28.4404H55.5614V22.0295H63.0409C63.6296 22.0295 64.1094 22.5092 64.1094 23.098V44.4678Z" fill="#2D73C3"/>
<path d="M17.0957 36.9893H19.2327V39.1262H17.0957V36.9893Z" fill="#2D73C3"/>
<path d="M21.3696 36.9893H23.5066V39.1262H21.3696V36.9893Z" fill="#2D73C3"/>
<path d="M23.5068 28.4404H25.6438V30.5774H23.5068V28.4404Z" fill="#2D73C3"/>
<path d="M19.2329 28.4404H21.3699V30.5774H19.2329V28.4404Z" fill="#2D73C3"/>
</svg>
