<svg width="17" height="20" viewBox="0 0 17 20" fill="none" xmlns="http://www.w3.org/2000/svg">
<path fill-rule="evenodd" clip-rule="evenodd" d="M0 0H10V19.5833H0V0ZM1.66667 2.08333H4.16667V4.58333H1.66667V2.08333ZM4.16667 6.25H1.66667V8.75H4.16667V6.25ZM1.66667 10.4167H4.16667V12.9167H1.66667V10.4167ZM4.16667 14.5833H1.66667V17.0833H4.16667V14.5833ZM5.83333 2.08333H8.33333V4.58333H5.83333V2.08333ZM8.33333 6.25H5.83333V8.75H8.33333V6.25ZM5.83333 10.4167H8.33333V12.9167H5.83333V10.4167ZM8.33333 14.5833H5.83333V17.0833H8.33333V14.5833Z" fill="#C46EFF"/>
<path fill-rule="evenodd" clip-rule="evenodd" d="M10 5.875H17V19.5833H10V5.875ZM11.1666 7.33332H12.9166V9.08332H11.1666V7.33332ZM12.9166 10.25H11.1666V12H12.9166V10.25ZM11.1666 13.1667H12.9166V14.9167H11.1666V13.1667ZM12.9166 16.0833H11.1666V17.8333H12.9166V16.0833ZM14.0834 7.33332H15.8334V9.08332H14.0834V7.33332ZM15.8334 10.25H14.0834V12H15.8334V10.25ZM14.0834 13.1667H15.8334V14.9167H14.0834V13.1667ZM15.8334 16.0833H14.0834V17.8333H15.8334V16.0833Z" fill="#C46EFF"/>
</svg>
