<svg width="94" height="94" viewBox="0 0 94 94" fill="none" xmlns="http://www.w3.org/2000/svg">
<circle cx="47" cy="47" r="41" fill="#009944"/>
<circle cx="47" cy="47" r="46.5" stroke="#009944" stroke-dasharray="3 3"/>
<path d="M59.7899 54.6667C58.6903 54.6667 57.6457 55.1019 56.8577 55.8889C56.0696 56.6852 55.6298 57.7222 55.6298 58.8333C55.6298 59.9444 56.0605 60.9815 56.8577 61.7778C57.6549 62.5648 58.6903 63 59.7899 63C62.044 63 63.8766 61.1296 63.8766 58.8333C63.8766 56.537 62.044 54.6667 59.7899 54.6667ZM59.7899 61.1481C58.5254 61.1481 57.4624 60.0926 57.4624 58.8333C57.4624 57.5741 58.5254 56.5185 59.7899 56.5185C61.036 56.5185 62.044 57.5556 62.044 58.8333C62.044 60.1111 61.036 61.1481 59.7899 61.1481ZM60.8528 40.787C60.6878 40.6296 60.4679 40.5463 60.2388 40.5463H55.5382C55.0342 40.5463 54.6219 40.963 54.6219 41.4722V49.0648C54.6219 49.5741 55.0342 49.9907 55.5382 49.9907H62.9969C63.5009 49.9907 63.9133 49.5741 63.9133 49.0648V43.9815C63.9133 43.7222 63.8033 43.4722 63.6109 43.2963L60.8528 40.787ZM62.0806 48.1389H56.4545V42.3889H59.8815L62.0806 44.3889V48.1389ZM37.4136 54.6667C36.314 54.6667 35.2694 55.1019 34.4814 55.8889C33.6933 56.6852 33.2535 57.7222 33.2535 58.8333C33.2535 59.9444 33.6842 60.9815 34.4814 61.7778C35.2786 62.5648 36.314 63 37.4136 63C39.6677 63 41.5003 61.1296 41.5003 58.8333C41.5003 56.537 39.6677 54.6667 37.4136 54.6667ZM37.4136 61.1481C36.1491 61.1481 35.0861 60.0926 35.0861 58.8333C35.0861 57.5741 36.1491 56.5185 37.4136 56.5185C38.6597 56.5185 39.6677 57.5556 39.6677 58.8333C39.6677 60.1111 38.6597 61.1481 37.4136 61.1481ZM31.3018 55.8056H29.46V53.3426C29.46 52.8333 29.0476 52.4167 28.5437 52.4167C28.0397 52.4167 27.6274 52.8333 27.6274 53.3426V56.7315C27.6274 57.2407 28.0397 57.6574 28.5437 57.6574H31.3018C31.8057 57.6574 32.2181 57.2407 32.2181 56.7315C32.2181 56.2222 31.8057 55.8056 31.3018 55.8056ZM35.9475 50.7593C35.9475 50.25 35.5351 49.8333 35.0312 49.8333H23.9163C23.4123 49.8333 23 50.25 23 50.7593C23 51.2685 23.4123 51.6852 23.9163 51.6852H35.0312C35.5351 51.6852 35.9475 51.2778 35.9475 50.7593ZM25.7764 47.4167L36.8913 47.4815C37.3952 47.4815 37.8076 47.0741 37.8167 46.5648C37.8259 46.0463 37.4136 45.6296 36.9096 45.6296L25.7947 45.5648C25.7856 45.5648 25.7856 45.5648 25.7856 45.5648C25.2816 45.5648 24.8693 45.9722 24.8693 46.4815C24.8601 47 25.2724 47.4167 25.7764 47.4167ZM27.6457 43.213H38.7605C39.2645 43.213 39.6768 42.7963 39.6768 42.287C39.6768 41.7778 39.2645 41.3611 38.7605 41.3611H27.6457C27.1417 41.3611 26.7294 41.7778 26.7294 42.287C26.7294 42.7963 27.1417 43.213 27.6457 43.213ZM67.661 41.963L61.1002 36.4722C60.9352 36.3333 60.7337 36.2593 60.5137 36.2593H52.7984V32.9259C52.7984 32.4167 52.3861 32 51.8821 32H28.5437C28.0397 32 27.6274 32.4167 27.6274 32.9259V39.7037C27.6274 40.213 28.0397 40.6296 28.5437 40.6296C29.0476 40.6296 29.46 40.213 29.46 39.7037V33.8519H50.975V55.8056H43.4612C42.9572 55.8056 42.5449 56.2222 42.5449 56.7315C42.5449 57.2407 42.9572 57.6574 43.4612 57.6574H54.6494C55.1533 57.6574 55.5657 57.2407 55.5657 56.7315C55.5657 56.2222 55.1533 55.8056 54.6494 55.8056H52.8076V38.1111H60.193L66.1674 43.1111L66.1032 55.787H65.1503C64.6463 55.787 64.234 56.2037 64.234 56.713C64.234 57.2222 64.6463 57.6389 65.1503 57.6389H67.0104C67.5144 57.6389 67.9267 57.2315 67.9267 56.7222L68 42.6852C67.9908 42.4074 67.8717 42.1389 67.661 41.963Z" fill="white"/>
</svg>
