<svg width="67" height="67" viewBox="0 0 67 67" fill="none" xmlns="http://www.w3.org/2000/svg">
<path d="M16.537 26.5582H40.7912V49.71H42.9961V25.4557C42.9961 25.1633 42.88 24.8829 42.6732 24.6762C42.4664 24.4694 42.186 24.3533 41.8936 24.3533H15.4345C15.1421 24.3533 14.8617 24.4694 14.6549 24.6762C14.4482 24.8829 14.332 25.1633 14.332 25.4557V44.1976H16.537V26.5582Z" fill="#D14F16"/>
<path d="M36.3815 38.6859H34.1766V35.3785C34.1766 35.0861 34.0604 34.8057 33.8537 34.599C33.6469 34.3922 33.3665 34.2761 33.0741 34.2761H29.7667V30.9687C29.7667 30.6763 29.6506 30.3959 29.4438 30.1891C29.2371 29.9824 28.9567 29.8662 28.6643 29.8662H24.2544C23.962 29.8662 23.6816 29.9824 23.4749 30.1891C23.2681 30.3959 23.152 30.6763 23.152 30.9687V38.6859H20.947V40.8909H36.3815V38.6859ZM31.9717 36.481V38.6859H29.7667V36.481H31.9717ZM25.3569 32.0711H27.5618V38.6859H25.3569V32.0711Z" fill="#D14F16"/>
<path d="M47.1321 50.9339C46.6429 50.7266 46.1168 50.6202 45.5855 50.6211C45.0541 50.622 44.5284 50.7301 44.0399 50.9391L36.9123 53.9655C36.9676 53.4282 36.9095 52.8853 36.7417 52.3719C36.574 51.8585 36.3005 51.386 35.9387 50.9849C35.5769 50.5838 35.135 50.2632 34.6416 50.0436C34.1481 49.824 33.614 49.7104 33.0739 49.7101H24.5221C23.6572 49.7091 22.8043 49.5077 22.0303 49.1218C18.4522 47.3382 14.5097 46.4075 10.5117 46.4028H7.71725C7.71725 46.1104 7.6011 45.8299 7.39435 45.6232C7.18759 45.4164 6.90718 45.3003 6.61479 45.3003H0V47.5052H5.51232V60.7348H0V62.9397H6.61479C6.90718 62.9397 7.18759 62.8236 7.39435 62.6168C7.6011 62.4101 7.71725 62.1296 7.71725 61.8373V61.4169L15.9482 64.8346C20.4353 66.6665 25.4515 66.722 29.9779 64.9896L47.0085 58.4957C47.5078 58.306 47.9642 58.0185 48.3509 57.65C48.7375 57.2815 49.0467 56.8395 49.2602 56.3499C49.4812 55.8533 49.6008 55.3176 49.6119 54.7742C49.623 54.2308 49.5254 53.6906 49.3249 53.1854C49.1298 52.6818 48.835 52.2229 48.4582 51.836C48.0814 51.4491 47.6304 51.1423 47.1321 50.9339ZM47.2431 55.4595C47.1467 55.682 47.0068 55.8829 46.8317 56.0506C46.6566 56.2183 46.4497 56.3493 46.2233 56.436L29.1923 62.9299C25.19 64.4623 20.7546 64.4143 16.7864 62.7956L7.71725 59.0293V48.6077H10.5117C14.1674 48.612 17.7724 49.463 21.0441 51.094C22.1245 51.6325 23.3149 51.9136 24.5221 51.9151H33.0739C33.5062 51.9157 33.9211 52.0856 34.2296 52.3885C34.538 52.6913 34.7156 53.103 34.7241 53.5352C34.7326 53.9674 34.5715 54.3858 34.2752 54.7006C33.9789 55.0154 33.571 55.2015 33.1391 55.2192C33.0947 55.2204 33.0505 55.2225 33.006 55.2225H19.8444V57.4274H33.006C33.0287 57.4274 33.0512 57.4259 33.0739 57.4257V57.4274C33.1508 57.4274 33.227 57.4245 33.3028 57.4201C34.1226 57.3859 34.9295 57.2038 35.6846 56.8826L44.9008 52.9689C45.1184 52.8759 45.3526 52.8277 45.5892 52.8273C45.8259 52.827 46.0602 52.8744 46.2781 52.9668C46.5045 53.0621 46.7093 53.2021 46.8803 53.3784C47.0513 53.5547 47.1849 53.7637 47.2731 53.9929C47.366 54.2271 47.4112 54.4774 47.4061 54.7293C47.4009 54.9811 47.3455 55.2294 47.2431 55.4595Z" fill="#D14F16"/>
<path d="M64.7099 25.0119L57.3283 13.017V9.28664L60.4152 5.17072C60.5583 4.97989 60.6357 4.74778 60.6357 4.50924C60.6357 3.74061 60.4392 2.98475 60.0649 2.31341C59.6906 1.64208 59.1509 1.07756 58.4971 0.673469C57.8432 0.269376 57.0969 0.0391188 56.3291 0.0045607C55.5612 -0.0299974 54.7973 0.132291 54.1098 0.476016L50.7135 2.17422L47.3173 0.476016C46.6298 0.132291 45.8658 -0.0299974 45.098 0.0045607C44.3301 0.0391188 43.5838 0.269376 42.93 0.673469C42.2762 1.07756 41.7365 1.64208 41.3622 2.31341C40.9879 2.98475 40.7914 3.74061 40.7913 4.50924C40.7913 4.74778 40.8687 4.97989 41.0118 5.17072L44.0987 9.28664V13.017L38.75 21.7088L40.6278 22.8642L45.8172 14.4314H55.6098L62.8321 26.1674C63.5305 27.3024 63.9134 28.6031 63.9414 29.9354C63.9695 31.2677 63.6415 32.5834 62.9915 33.7467C62.3414 34.91 61.3928 35.8788 60.2434 36.5532C59.094 37.2276 57.7856 37.5831 56.453 37.5832H45.2012V39.7881H56.453C58.1779 39.7881 59.8715 39.3279 61.3592 38.455C62.847 37.5821 64.0749 36.3281 64.9163 34.8223C65.7577 33.3166 66.1822 31.6136 66.1459 29.8891C66.1096 28.1646 65.6139 26.4809 64.7099 25.0119ZM44.0892 2.5492C44.4228 2.34139 44.8043 2.22294 45.197 2.20528C45.5896 2.18761 45.9802 2.27131 46.3311 2.44832L50.2205 4.39293C50.3735 4.46949 50.5424 4.50934 50.7135 4.50934C50.8847 4.50934 51.0535 4.46949 51.2066 4.39293L55.0958 2.44819C55.4217 2.28534 55.7816 2.20205 56.1458 2.20514C56.5101 2.20824 56.8685 2.29764 57.1916 2.46602C57.5147 2.63439 57.7932 2.87693 58.0044 3.17377C58.2156 3.4706 58.3535 3.81327 58.4067 4.17368L55.6746 7.81664H45.7524L43.0203 4.17368C43.0681 3.84098 43.1887 3.52292 43.3735 3.24212C43.5583 2.96133 43.8026 2.72469 44.0892 2.54906V2.5492ZM55.1234 12.2265H46.3037V10.0216H55.1234V12.2265Z" fill="#D14F16"/>
<path d="M47.4058 28.7628V28.9237C47.4066 29.5935 47.6208 30.2456 48.0173 30.7854C48.4138 31.3253 48.9719 31.7249 49.6107 31.9262V33.1727H51.8156V31.9262C52.414 31.7385 52.9426 31.3763 53.3337 30.8861C53.7248 30.3959 53.9605 29.8 54.0105 29.1748C54.0606 28.5497 53.9227 27.9239 53.6146 27.3777C53.3064 26.8315 52.8422 26.3898 52.2813 26.1093L50.1315 25.0344C49.9417 24.9396 49.7896 24.7835 49.6996 24.5914C49.6097 24.3992 49.5873 24.1824 49.636 23.9759C49.6847 23.7695 49.8017 23.5855 49.968 23.4539C50.1343 23.3222 50.3402 23.2505 50.5523 23.2505H50.874C51.1236 23.2508 51.363 23.3501 51.5395 23.5266C51.7161 23.7031 51.8154 23.9425 51.8156 24.1921V24.353H54.0205V24.1921C54.0197 23.5223 53.8055 22.8702 53.409 22.3304C53.0126 21.7905 52.4545 21.3909 51.8156 21.1896V19.9431H49.6107V21.1896C49.0123 21.3773 48.4837 21.7395 48.0926 22.2297C47.7015 22.7199 47.4658 23.3158 47.4158 23.941C47.3658 24.5661 47.5036 25.1919 47.8118 25.7381C48.1199 26.2843 48.5841 26.726 49.145 27.0065L51.2948 28.0814C51.4846 28.1762 51.6367 28.3323 51.7267 28.5244C51.8166 28.7166 51.839 28.9334 51.7903 29.1399C51.7416 29.3463 51.6246 29.5303 51.4583 29.6619C51.292 29.7936 51.0861 29.8653 50.874 29.8653H50.5523C50.3027 29.865 50.0633 29.7657 49.8868 29.5892C49.7102 29.4127 49.6109 29.1733 49.6107 28.9237V28.7628H47.4058Z" fill="#D14F16"/>
<path d="M58.431 25.4563H56.2261V27.6612H58.431V25.4563Z" fill="#D14F16"/>
<path d="M22.0494 44.1982H19.8445V46.4032H22.0494V44.1982Z" fill="#D14F16"/>
<path d="M37.484 44.1982H24.2544V46.4032H37.484V44.1982Z" fill="#D14F16"/>
<path d="M35.6987 6.26448L34.346 10.3227L36.4379 11.0197L38.5297 4.74432C38.5755 4.60697 38.5937 4.46194 38.5835 4.31752C38.5732 4.1731 38.5346 4.03212 38.4698 3.90263C38.405 3.77314 38.3154 3.65768 38.206 3.56283C38.0966 3.46798 37.9696 3.39561 37.8323 3.34984L31.5569 1.25806L30.8599 3.34998L34.2787 4.48952C28.8022 7.07484 24.5446 11.6871 22.4048 17.3527L24.4703 18.1244C25.4609 15.5012 26.964 13.1015 28.8918 11.0652C30.8196 9.029 33.1336 7.39703 35.6987 6.26448Z" fill="#D14F16"/>
<path d="M23.8117 20.2193L21.6765 19.6694C21.4801 20.4329 21.3229 21.2059 21.2056 21.9854L23.386 22.3131C23.4922 21.6084 23.6343 20.9095 23.8117 20.2193Z" fill="#D14F16"/>
<path d="M44.9819 45.984L45.4207 48.1449C49.387 47.3355 53.0714 45.4994 56.1057 42.82L54.6466 41.1663C51.9022 43.5903 48.5696 45.2516 44.9819 45.984Z" fill="#D14F16"/>
</svg>
