<svg width="67" height="67" viewBox="0 0 67 67" fill="none" xmlns="http://www.w3.org/2000/svg">
<path d="M12.9434 51.4883C10.3901 51.4883 8.31274 53.5656 8.31274 56.1189C8.31274 58.6723 10.3901 60.7496 12.9434 60.7496C15.4969 60.7496 17.574 58.6723 17.574 56.1189C17.574 53.5656 15.4969 51.4883 12.9434 51.4883ZM12.9434 58.8095C11.4599 58.8095 10.253 57.6025 10.253 56.1191C10.253 54.6356 11.4599 53.4286 12.9434 53.4286C14.427 53.4286 15.6338 54.6356 15.6338 56.1191C15.6338 57.6025 14.427 58.8095 12.9434 58.8095Z" fill="#2D73C3"/>
<path d="M31.0396 56.1189C31.0396 53.5655 28.9623 51.4883 26.409 51.4883C23.8556 51.4883 21.7783 53.5656 21.7783 56.1189C21.7783 58.6723 23.8556 60.7496 26.409 60.7496C28.9623 60.7496 31.0396 58.6723 31.0396 56.1189ZM23.7185 56.1189C23.7185 54.6354 24.9255 53.4285 26.409 53.4285C27.8926 53.4285 29.0994 54.6354 29.0994 56.1189C29.0994 57.6024 27.8924 58.8094 26.409 58.8094C24.9254 58.8094 23.7185 57.6024 23.7185 56.1189Z" fill="#2D73C3"/>
<path d="M44.5054 56.1189C44.5054 53.5655 42.4281 51.4883 39.8748 51.4883C37.3214 51.4883 35.2441 53.5656 35.2441 56.1189C35.2441 58.6723 37.3214 60.7496 39.8748 60.7496C42.4281 60.7496 44.5054 58.6723 44.5054 56.1189ZM37.1842 56.1189C37.1842 54.6354 38.3912 53.4285 39.8747 53.4285C41.3581 53.4285 42.5651 54.6354 42.5651 56.1189C42.5651 57.6024 41.3581 58.8094 39.8747 58.8094C38.3912 58.8094 37.1842 57.6024 37.1842 56.1189Z" fill="#2D73C3"/>
<path d="M57.971 56.1189C57.971 53.5655 55.8937 51.4883 53.3404 51.4883C50.7869 51.4883 48.7097 53.5656 48.7097 56.1189C48.7097 58.6723 50.787 60.7496 53.3404 60.7496C55.8937 60.7496 57.971 58.6723 57.971 56.1189ZM50.6499 56.1189C50.6499 54.6354 51.8569 53.4285 53.3404 53.4285C54.8238 53.4285 56.0308 54.6354 56.0308 56.1189C56.0308 57.6024 54.8238 58.8094 53.3404 58.8094C51.8568 58.8094 50.6499 57.6024 50.6499 56.1189Z" fill="#2D73C3"/>
<path d="M56.1525 45.988H46.9503V42.1416C46.9503 41.6058 46.5159 41.1714 45.9801 41.1714C45.4443 41.1714 45.0099 41.6058 45.0099 42.1416V45.988H18.3057V19.3273C18.3057 19.3034 18.3253 19.2837 18.3494 19.2837H27.2681V25.9202C27.2681 26.4725 27.5494 26.974 28.0207 27.2619C28.2735 27.4163 28.5561 27.4941 28.8398 27.4941C29.0847 27.4941 29.3303 27.4361 29.558 27.3194L31.658 26.243L33.7578 27.3194C34.2492 27.5716 34.8239 27.5499 35.2953 27.2619C35.7665 26.974 36.0478 26.4725 36.0478 25.9202V19.2837H44.9666C44.9905 19.2837 45.0102 19.3032 45.0102 19.3273V37.6541C45.0102 38.19 45.4445 38.6243 45.9804 38.6243C46.5162 38.6243 46.9505 38.19 46.9505 37.6541V35.1811H48.7489C49.9181 35.1811 50.8695 34.2298 50.8695 33.0604V30.6615C50.8695 30.5868 50.9147 30.5187 50.9793 30.4959C51.4283 30.3373 51.8735 30.153 52.3028 29.9482C52.3663 29.9182 52.4448 29.9338 52.4983 29.9873L54.1943 31.6833C55.0212 32.5099 56.3665 32.5099 57.1934 31.6833L60.5019 28.3749C61.3287 27.548 61.3287 26.2025 60.5019 25.3757L58.8058 23.6797C58.7522 23.6261 58.7365 23.5474 58.7668 23.4841C58.9716 23.0548 59.1559 22.6096 59.3146 22.1608C59.3375 22.0961 59.4056 22.0509 59.4802 22.0509H61.8791C63.0483 22.0509 63.9997 21.0995 63.9997 19.9301V15.2511C63.9997 14.0819 63.0485 13.1305 61.8791 13.1305H59.4802C59.4055 13.1305 59.3374 13.0853 59.3146 13.0207C59.1559 12.5717 58.9716 12.1265 58.767 11.6973C58.7367 11.6338 58.7522 11.5552 58.8058 11.5017L60.5019 9.80567C61.3287 8.97881 61.3287 7.63334 60.5019 6.80648L57.1934 3.498C56.3665 2.6714 55.0212 2.6714 54.1943 3.498L52.498 5.19406C52.4444 5.24765 52.3657 5.26358 52.3023 5.23302C51.8735 5.02848 51.4284 4.84438 50.9789 4.68528C50.9143 4.66236 50.8691 4.59427 50.8691 4.5197V2.12081C50.8691 0.951529 49.9177 0 48.7485 0H44.0695C42.9002 0 41.9488 0.9514 41.9488 2.12081V4.51957C41.9488 4.59427 41.9037 4.66236 41.8387 4.68528C41.3895 4.84413 40.9444 5.02848 40.5156 5.23302C40.4522 5.26306 40.3736 5.24752 40.32 5.19393L38.6239 3.49787C37.7971 2.67127 36.4517 2.67127 35.6249 3.49787L32.3164 6.80635C31.4895 7.63321 31.4895 8.97868 32.3164 9.80554L34.0126 11.5016C34.066 11.5552 34.0817 11.6338 34.0514 11.6971C33.8469 12.1258 33.6626 12.5709 33.5037 13.0204C33.4808 13.0851 33.4127 13.1303 33.3381 13.1303H30.9392C29.7699 13.1303 28.8185 14.0816 28.8185 15.251V17.3433H18.3494C17.2554 17.3433 16.3655 18.2332 16.3655 19.3272V45.9879H10.131C4.54468 45.988 0 50.5327 0 56.119C0 61.7053 4.54468 66.25 10.131 66.25H14.5646C15.1004 66.25 15.5348 65.8157 15.5348 65.2798C15.5348 64.744 15.1004 64.3097 14.5646 64.3097H10.131C5.61467 64.3097 1.94021 60.6353 1.94021 56.119C1.94021 51.6027 5.61454 47.9282 10.131 47.9282H56.1525C60.6689 47.9282 64.3432 51.6025 64.3432 56.119C64.3432 60.6353 60.6689 64.3097 56.1525 64.3097H19.0672C18.5314 64.3097 18.0971 64.744 18.0971 65.2798C18.0971 65.8157 18.5314 66.25 19.0672 66.25H56.1525C61.7387 66.25 66.2834 61.7053 66.2834 56.119C66.2834 50.5327 61.7387 45.988 56.1525 45.988ZM44.9664 17.3435H39.2245C39.3555 13.4926 42.5269 10.3998 46.4091 10.3998C50.3742 10.3998 53.6 13.6255 53.6 17.5907C53.6 21.3736 50.6633 24.4812 46.9503 24.7592V19.3273C46.9503 18.2334 46.0604 17.3435 44.9664 17.3435ZM30.7587 15.2511C30.7587 15.1517 30.8396 15.0708 30.9392 15.0708H33.3381C34.2346 15.0708 35.0362 14.5067 35.3329 13.6675C35.4693 13.2821 35.6272 12.9003 35.8025 12.5329C36.1859 11.7291 36.018 10.7633 35.3843 10.1298L33.6883 8.43379C33.618 8.36362 33.618 8.24905 33.6883 8.17875L36.9968 4.87028C37.0672 4.79998 37.1816 4.79972 37.2519 4.87028L38.9481 6.56633C39.5817 7.1999 40.5473 7.36781 41.351 6.98448C41.7187 6.8092 42.1004 6.65112 42.4856 6.5148C43.3251 6.21821 43.8892 5.41647 43.8892 4.51983V2.12081C43.8892 2.02126 43.9701 1.94034 44.0695 1.94034H48.7485C48.8479 1.94034 48.9289 2.02126 48.9289 2.12081V4.51957C48.9289 5.41621 49.493 6.21795 50.3321 6.51442C50.7175 6.65087 51.0995 6.80881 51.4669 6.9841C52.2705 7.36756 53.2362 7.19965 53.8699 6.56607L55.5659 4.87002C55.6362 4.79946 55.7507 4.79972 55.8211 4.87002L59.1296 8.17849C59.2 8.24879 59.2 8.36336 59.1296 8.43353L57.4335 10.1296C56.8 10.763 56.6318 11.7288 57.0154 12.5326C57.1909 12.9005 57.3489 13.2823 57.4849 13.6672C57.7816 14.5066 58.5834 15.0705 59.4799 15.0705H61.8788C61.9782 15.0705 62.0591 15.1515 62.0591 15.2509V19.9298C62.0591 20.0294 61.9782 20.1103 61.8788 20.1103H59.4799C58.5834 20.1103 57.7818 20.6743 57.4849 21.5138C57.3489 21.8985 57.1909 22.2803 57.0154 22.6482C56.6319 23.4519 56.8 24.4175 57.4335 25.0512L59.1296 26.7473C59.2 26.8175 59.2 26.932 59.1296 27.0023L55.8211 30.3108C55.7508 30.3812 55.6364 30.3814 55.5659 30.3108L53.8699 28.6149C53.2364 27.9812 52.2707 27.8131 51.467 28.1966C51.0991 28.372 50.7173 28.5301 50.3321 28.6661C49.4927 28.963 48.9288 29.7647 48.9288 30.6611V33.06C48.9288 33.1594 48.8479 33.2403 48.7483 33.2403H46.95V26.7039C51.7338 26.4227 55.5399 22.4433 55.5399 17.5902C55.5399 12.5553 51.4437 8.45903 46.4089 8.45903C41.4569 8.45903 37.4158 12.4222 37.284 17.3429H30.7586V15.2511H30.7587ZM29.2083 19.2837H34.1073V25.3184L32.3752 24.4306C31.9262 24.2003 31.3899 24.2002 30.9405 24.4306L29.2083 25.3184V19.2837Z" fill="#2D73C3"/>
<path d="M26.8327 35.8701C25.9777 35.8701 25.282 36.5657 25.282 37.4208V41.5617C25.282 42.4166 25.9776 43.1122 26.8327 43.1122H36.4827C37.3377 43.1122 38.0334 42.4166 38.0334 41.5617V37.4208C38.0334 36.5657 37.3378 35.8701 36.4827 35.8701H26.8327ZM36.093 41.1719H27.2223V37.8103H36.093V41.1719Z" fill="#2D73C3"/>
</svg>
