<svg width="67" height="66" viewBox="0 0 67 66" fill="none" xmlns="http://www.w3.org/2000/svg">
<path d="M51.2872 14.1425L65.4297 7.07126L51.2872 0V2.7973H30.9859V4.93428H53.4242V3.45763L60.6514 7.07126L53.4242 10.6849V9.20824H22.438V11.3452H51.2872V14.1425Z" fill="#D14F16"/>
<path d="M26.7124 2.79712H28.8494V4.9341H26.7124V2.79712Z" fill="#D14F16"/>
<path d="M22.438 2.79712H24.575V4.9341H22.438V2.79712Z" fill="#D14F16"/>
<path d="M37.3969 51.2876L23.2544 58.3589L37.3969 65.4301V62.6328H57.6982V60.4958H35.2599V61.9725L28.0327 58.3589L35.2599 54.7452V56.2219H66.2461V54.0849H37.3969V51.2876Z" fill="#D14F16"/>
<path d="M59.8354 60.4954H61.9724V62.6323H59.8354V60.4954Z" fill="#D14F16"/>
<path d="M64.1094 60.4954H66.2464V62.6323H64.1094V60.4954Z" fill="#D14F16"/>
<path d="M59.8354 41.2629H61.9724V43.3999H59.8354V41.2629Z" fill="#D14F16"/>
<path d="M55.5615 41.2629H57.6985V43.3999H55.5615V41.2629Z" fill="#D14F16"/>
<path d="M51.2876 41.2629H53.4246V43.3999H51.2876V41.2629Z" fill="#D14F16"/>
<path d="M51.2876 36.989H61.9725V39.126H51.2876V36.989Z" fill="#D14F16"/>
<path d="M63.0409 19.8928H55.5614H44.8765H37.5905C33.5164 15.1358 27.6397 12.4133 21.3698 12.4133C9.58648 12.4133 0 21.9998 0 33.7831C0 45.5664 9.58648 55.1529 21.3698 55.1529C27.6397 55.1529 33.5164 52.4304 37.5905 47.6735H63.0409C64.8081 47.6735 66.2463 46.2353 66.2463 44.468V23.0982C66.2463 21.3309 64.8081 19.8928 63.0409 19.8928ZM53.4245 22.0297V26.3037H47.0135V22.0297H53.4245ZM35.382 20.6257C34.9332 20.9922 34.587 21.4731 34.3883 22.0297H28.5671C27.8566 19.195 26.8714 16.7428 25.6245 15.0236C29.3418 15.8635 32.7321 17.8007 35.382 20.6257ZM34.1917 43.3995H29.0394C29.5565 40.7016 29.8482 37.7675 29.9059 34.8516H34.1917V43.3995ZM21.3698 53.0159C19.564 53.0159 17.6397 50.1983 16.3757 45.5365H26.365C25.0999 50.1983 23.1755 53.0159 21.3698 53.0159ZM15.8649 43.3995C15.3585 40.9142 15.0401 38.0261 14.9791 34.8516H27.7615C27.7006 38.0261 27.3811 40.9142 26.8757 43.3995H15.8649ZM2.19147 34.8516H12.8336C12.8913 37.7675 13.183 40.7016 13.7002 43.3995H4.73982C3.26423 40.8587 2.36243 37.9534 2.19147 34.8516ZM21.3698 14.5503C23.1755 14.5503 25.0999 17.3679 26.3639 22.0297H16.3746C17.6397 17.3679 19.564 14.5503 21.3698 14.5503ZM26.8746 24.1667C27.3811 26.652 27.6995 29.5401 27.7604 32.7146H14.9791C15.0401 29.5401 15.3595 26.652 15.8649 24.1667H26.8746ZM12.8336 32.7146H2.19147C2.3635 29.6128 3.26423 26.7076 4.73982 24.1667H13.7002C13.183 26.8646 12.8913 29.7987 12.8336 32.7146ZM34.1917 32.7146H29.9059C29.8482 29.7987 29.5565 26.8646 29.0394 24.1667H34.1917V32.7146ZM17.1001 15.044C15.8607 16.7621 14.8798 19.2057 14.1724 22.0297H6.18014C8.86419 18.5689 12.6915 16.0494 17.1001 15.044ZM6.18014 45.5365H14.1724C14.8798 48.3605 15.8596 50.8041 17.1001 52.5212C12.6915 51.5168 8.86419 48.9973 6.18014 45.5365ZM25.6245 52.5426C26.8714 50.8234 27.8566 48.3712 28.5671 45.5365H34.3883C34.587 46.0932 34.9321 46.574 35.382 46.9405C32.7321 49.7656 29.3418 51.7027 25.6245 52.5426ZM64.1094 44.468C64.1094 45.0578 63.6296 45.5365 63.0409 45.5365H37.3971C36.8084 45.5365 36.3286 45.0578 36.3286 44.468V23.0982C36.3286 22.5095 36.8084 22.0297 37.3971 22.0297H44.8765V28.4407H55.5614V22.0297H63.0409C63.6296 22.0297 64.1094 22.5095 64.1094 23.0982V44.468Z" fill="#D14F16"/>
<path d="M17.0957 36.989H19.2327V39.126H17.0957V36.989Z" fill="#D14F16"/>
<path d="M21.3696 36.989H23.5066V39.126H21.3696V36.989Z" fill="#D14F16"/>
<path d="M23.5068 28.4407H25.6438V30.5777H23.5068V28.4407Z" fill="#D14F16"/>
<path d="M19.2329 28.4407H21.3699V30.5777H19.2329V28.4407Z" fill="#D14F16"/>
</svg>
