<svg width="94" height="94" viewBox="0 0 94 94" fill="none" xmlns="http://www.w3.org/2000/svg">
<circle cx="47" cy="46" r="41" fill="#009944"/>
<circle cx="47" cy="47" r="46.5" stroke="#009944" stroke-dasharray="3 3"/>
<path d="M68.6774 37.4839H67.9032V28.1935H30.7419V22H26.871C24.7366 22 23 23.7366 23 25.871V55.2903C23 57.4246 24.7366 59.1613 26.871 59.1613H47.7742V67.6774C47.7742 68.9578 48.8164 70 50.0968 70H68.6774C69.9578 70 71 68.9578 71 67.6774V39.8065C71 38.5261 69.9578 37.4839 68.6774 37.4839ZM24.5484 25.871C24.5484 24.5906 25.5906 23.5484 26.871 23.5484H29.1935V51.4194H26.871C26 51.4194 25.1956 51.7089 24.5484 52.1951V25.871ZM26.871 57.6129C25.5906 57.6129 24.5484 56.5707 24.5484 55.2903C24.5484 54.01 25.5906 52.9677 26.871 52.9677H30.7419V29.7419H66.3548V37.4839H50.3368C49.0368 33.8087 45.5246 31.2903 41.5806 31.2903C36.4577 31.2903 32.2903 35.4577 32.2903 40.5806C32.2903 45.7036 36.4577 49.871 41.5806 49.871C43.8877 49.871 46.0863 49.0045 47.7742 47.4951V57.6129H26.871ZM47.7742 39.8065H42.3548V32.8822C45.2728 33.177 47.8014 35.1148 48.8319 37.8634C48.1961 38.2781 47.7742 38.9929 47.7742 39.8065ZM40.8065 48.2833C36.8999 47.8935 33.8387 44.5877 33.8387 40.5806C33.8387 36.5736 36.8999 33.2678 40.8065 32.878V48.2833ZM42.3548 41.3548H47.7742V45.2088C46.4704 46.95 44.5009 48.0587 42.3548 48.2753V41.3548ZM69.4516 67.6774C69.4516 68.1038 69.1038 68.4516 68.6774 68.4516H50.0968C49.6704 68.4516 49.3226 68.1038 49.3226 67.6774V39.8065C49.3226 39.38 49.6704 39.0323 50.0968 39.0323H68.6774C69.1038 39.0323 69.4516 39.38 69.4516 39.8065V67.6774Z" fill="white"/>
<path d="M50.8708 48.3225H67.9031V40.5806H50.8708V48.3225ZM52.4192 42.129H66.3547V46.7741H52.4192V42.129Z" fill="white"/>
<path d="M63.2581 66.9032H67.9032V62.2581H63.2581V66.9032ZM64.8064 63.8064H66.3548V65.3548H64.8064V63.8064Z" fill="white"/>
<path d="M57.0645 66.9032H61.7096V62.2581H57.0645V66.9032ZM58.6128 63.8064H60.1612V65.3548H58.6128V63.8064Z" fill="white"/>
<path d="M50.8708 66.9032H55.516V62.2581H50.8708V66.9032ZM52.4192 63.8064H53.9676V65.3548H52.4192V63.8064Z" fill="white"/>
<path d="M63.2581 60.7096H67.9032V56.0645H63.2581V60.7096ZM64.8064 57.6128H66.3548V59.1612H64.8064V57.6128Z" fill="white"/>
<path d="M57.0645 60.7096H61.7096V56.0645H57.0645V60.7096ZM58.6128 57.6128H60.1612V59.1612H58.6128V57.6128Z" fill="white"/>
<path d="M50.8708 60.7096H55.516V56.0645H50.8708V60.7096ZM52.4192 57.6128H53.9676V59.1612H52.4192V57.6128Z" fill="white"/>
<path d="M63.2581 54.516H67.9032V49.8708H63.2581V54.516ZM64.8064 51.4192H66.3548V52.9676H64.8064V51.4192Z" fill="white"/>
<path d="M57.0645 54.516H61.7096V49.8708H57.0645V54.516ZM58.6128 51.4192H60.1612V52.9676H58.6128V51.4192Z" fill="white"/>
<path d="M50.8708 54.516H55.516V49.8708H50.8708V54.516ZM52.4192 51.4192H53.9676V52.9676H52.4192V51.4192Z" fill="white"/>
<path d="M53.9678 31.2903H64.8065V32.8387H53.9678V31.2903Z" fill="white"/>
<path d="M52.4194 34.3872H64.8065V35.9356H52.4194V34.3872Z" fill="white"/>
</svg>
