<svg width="67" height="67" viewBox="0 0 67 67" fill="none" xmlns="http://www.w3.org/2000/svg">
<mask id="path-1-inside-1" fill="white">
<path d="M10.8017 23.0443C10.8017 22.6468 10.4791 22.3242 10.0816 22.3242H4.32069C3.92319 22.3242 3.60059 22.6468 3.60059 23.0443V28.8052C3.60059 29.2027 3.92319 29.5253 4.32069 29.5253H10.0816C10.4791 29.5253 10.8017 29.2027 10.8017 28.8052V23.0443ZM9.36146 28.0851H5.0408V23.7644H9.36146V28.0851Z"/>
</mask>
<path d="M10.8017 23.0443C10.8017 22.6468 10.4791 22.3242 10.0816 22.3242H4.32069C3.92319 22.3242 3.60059 22.6468 3.60059 23.0443V28.8052C3.60059 29.2027 3.92319 29.5253 4.32069 29.5253H10.0816C10.4791 29.5253 10.8017 29.2027 10.8017 28.8052V23.0443ZM9.36146 28.0851H5.0408V23.7644H9.36146V28.0851Z" fill="#2D73C3"/>
<path d="M9.36146 28.0851V30.0851H11.3615V28.0851H9.36146ZM5.0408 28.0851H3.0408V30.0851H5.0408V28.0851ZM5.0408 23.7644V21.7644H3.0408V23.7644H5.0408ZM9.36146 23.7644H11.3615V21.7644H9.36146V23.7644ZM12.8017 23.0443C12.8017 21.5423 11.5836 20.3242 10.0816 20.3242V24.3242C9.37449 24.3242 8.80167 23.7514 8.80167 23.0443H12.8017ZM10.0816 20.3242H4.32069V24.3242H10.0816V20.3242ZM4.32069 20.3242C2.81863 20.3242 1.60059 21.5423 1.60059 23.0443H5.60059C5.60059 23.7514 5.02776 24.3242 4.32069 24.3242V20.3242ZM1.60059 23.0443V28.8052H5.60059V23.0443H1.60059ZM1.60059 28.8052C1.60059 30.3073 2.81863 31.5253 4.32069 31.5253V27.5253C5.02776 27.5253 5.60059 28.0981 5.60059 28.8052H1.60059ZM4.32069 31.5253H10.0816V27.5253H4.32069V31.5253ZM10.0816 31.5253C11.5836 31.5253 12.8017 30.3073 12.8017 28.8052H8.80167C8.80167 28.0981 9.37449 27.5253 10.0816 27.5253V31.5253ZM12.8017 28.8052V23.0443H8.80167V28.8052H12.8017ZM9.36146 26.0851H5.0408V30.0851H9.36146V26.0851ZM7.0408 28.0851V23.7644H3.0408V28.0851H7.0408ZM5.0408 25.7644H9.36146V21.7644H5.0408V25.7644ZM7.36146 23.7644V28.0851H11.3615V23.7644H7.36146Z" fill="#2D73C3" mask="url(#path-1-inside-1)"/>
<mask id="path-3-inside-2" fill="white">
<path d="M20.163 23.0443C20.163 22.6468 19.8404 22.3242 19.4429 22.3242H13.682C13.2845 22.3242 12.9619 22.6468 12.9619 23.0443V28.8052C12.9619 29.2027 13.2845 29.5253 13.682 29.5253H19.4429C19.8404 29.5253 20.163 29.2027 20.163 28.8052V23.0443ZM18.7228 28.0851H14.4021V23.7644H18.7228V28.0851Z"/>
</mask>
<path d="M20.163 23.0443C20.163 22.6468 19.8404 22.3242 19.4429 22.3242H13.682C13.2845 22.3242 12.9619 22.6468 12.9619 23.0443V28.8052C12.9619 29.2027 13.2845 29.5253 13.682 29.5253H19.4429C19.8404 29.5253 20.163 29.2027 20.163 28.8052V23.0443ZM18.7228 28.0851H14.4021V23.7644H18.7228V28.0851Z" fill="#2D73C3"/>
<path d="M18.7228 28.0851V30.0851H20.7228V28.0851H18.7228ZM14.4021 28.0851H12.4021V30.0851H14.4021V28.0851ZM14.4021 23.7644V21.7644H12.4021V23.7644H14.4021ZM18.7228 23.7644H20.7228V21.7644H18.7228V23.7644ZM22.163 23.0443C22.163 21.5423 20.945 20.3242 19.4429 20.3242V24.3242C18.7358 24.3242 18.163 23.7514 18.163 23.0443H22.163ZM19.4429 20.3242H13.682V24.3242H19.4429V20.3242ZM13.682 20.3242C12.18 20.3242 10.9619 21.5423 10.9619 23.0443H14.9619C14.9619 23.7514 14.3891 24.3242 13.682 24.3242V20.3242ZM10.9619 23.0443V28.8052H14.9619V23.0443H10.9619ZM10.9619 28.8052C10.9619 30.3073 12.18 31.5253 13.682 31.5253V27.5253C14.3891 27.5253 14.9619 28.0981 14.9619 28.8052H10.9619ZM13.682 31.5253H19.4429V27.5253H13.682V31.5253ZM19.4429 31.5253C20.945 31.5253 22.163 30.3073 22.163 28.8052H18.163C18.163 28.0981 18.7358 27.5253 19.4429 27.5253V31.5253ZM22.163 28.8052V23.0443H18.163V28.8052H22.163ZM18.7228 26.0851H14.4021V30.0851H18.7228V26.0851ZM16.4021 28.0851V23.7644H12.4021V28.0851H16.4021ZM14.4021 25.7644H18.7228V21.7644H14.4021V25.7644ZM16.7228 23.7644V28.0851H20.7228V23.7644H16.7228Z" fill="#2D73C3" mask="url(#path-3-inside-2)"/>
<mask id="path-5-inside-3" fill="white">
<path d="M10.8017 32.4057C10.8017 32.0082 10.4791 31.6855 10.0816 31.6855H4.32069C3.92319 31.6855 3.60059 32.0082 3.60059 32.4057V38.1665C3.60059 38.564 3.92319 38.8866 4.32069 38.8866H10.0816C10.4791 38.8866 10.8017 38.564 10.8017 38.1665V32.4057ZM9.36146 37.4464H5.0408V33.1258H9.36146V37.4464Z"/>
</mask>
<path d="M10.8017 32.4057C10.8017 32.0082 10.4791 31.6855 10.0816 31.6855H4.32069C3.92319 31.6855 3.60059 32.0082 3.60059 32.4057V38.1665C3.60059 38.564 3.92319 38.8866 4.32069 38.8866H10.0816C10.4791 38.8866 10.8017 38.564 10.8017 38.1665V32.4057ZM9.36146 37.4464H5.0408V33.1258H9.36146V37.4464Z" fill="#2D73C3"/>
<path d="M9.36146 37.4464V39.4464H11.3615V37.4464H9.36146ZM5.0408 37.4464H3.0408V39.4464H5.0408V37.4464ZM5.0408 33.1258V31.1258H3.0408V33.1258H5.0408ZM9.36146 33.1258H11.3615V31.1258H9.36146V33.1258ZM12.8017 32.4057C12.8017 30.9036 11.5836 29.6855 10.0816 29.6855V33.6855C9.37449 33.6855 8.80167 33.1127 8.80167 32.4057H12.8017ZM10.0816 29.6855H4.32069V33.6855H10.0816V29.6855ZM4.32069 29.6855C2.81863 29.6855 1.60059 30.9036 1.60059 32.4057H5.60059C5.60059 33.1127 5.02776 33.6855 4.32069 33.6855V29.6855ZM1.60059 32.4057V38.1665H5.60059V32.4057H1.60059ZM1.60059 38.1665C1.60059 39.6686 2.81863 40.8866 4.32069 40.8866V36.8866C5.02776 36.8866 5.60059 37.4595 5.60059 38.1665H1.60059ZM4.32069 40.8866H10.0816V36.8866H4.32069V40.8866ZM10.0816 40.8866C11.5836 40.8866 12.8017 39.6686 12.8017 38.1665H8.80167C8.80167 37.4595 9.37449 36.8866 10.0816 36.8866V40.8866ZM12.8017 38.1665V32.4057H8.80167V38.1665H12.8017ZM9.36146 35.4464H5.0408V39.4464H9.36146V35.4464ZM7.0408 37.4464V33.1258H3.0408V37.4464H7.0408ZM5.0408 35.1258H9.36146V31.1258H5.0408V35.1258ZM7.36146 33.1258V37.4464H11.3615V33.1258H7.36146Z" fill="#2D73C3" mask="url(#path-5-inside-3)"/>
<mask id="path-7-inside-4" fill="white">
<path d="M20.163 32.4057C20.163 32.0082 19.8404 31.6855 19.4429 31.6855H13.682C13.2845 31.6855 12.9619 32.0082 12.9619 32.4057V38.1665C12.9619 38.564 13.2845 38.8866 13.682 38.8866H19.4429C19.8404 38.8866 20.163 38.564 20.163 38.1665V32.4057ZM18.7228 37.4464H14.4021V33.1258H18.7228V37.4464Z"/>
</mask>
<path d="M20.163 32.4057C20.163 32.0082 19.8404 31.6855 19.4429 31.6855H13.682C13.2845 31.6855 12.9619 32.0082 12.9619 32.4057V38.1665C12.9619 38.564 13.2845 38.8866 13.682 38.8866H19.4429C19.8404 38.8866 20.163 38.564 20.163 38.1665V32.4057ZM18.7228 37.4464H14.4021V33.1258H18.7228V37.4464Z" fill="#2D73C3"/>
<path d="M18.7228 37.4464V39.4464H20.7228V37.4464H18.7228ZM14.4021 37.4464H12.4021V39.4464H14.4021V37.4464ZM14.4021 33.1258V31.1258H12.4021V33.1258H14.4021ZM18.7228 33.1258H20.7228V31.1258H18.7228V33.1258ZM22.163 32.4057C22.163 30.9036 20.945 29.6855 19.4429 29.6855V33.6855C18.7358 33.6855 18.163 33.1127 18.163 32.4057H22.163ZM19.4429 29.6855H13.682V33.6855H19.4429V29.6855ZM13.682 29.6855C12.18 29.6855 10.9619 30.9036 10.9619 32.4057H14.9619C14.9619 33.1127 14.3891 33.6855 13.682 33.6855V29.6855ZM10.9619 32.4057V38.1665H14.9619V32.4057H10.9619ZM10.9619 38.1665C10.9619 39.6686 12.18 40.8866 13.682 40.8866V36.8866C14.3891 36.8866 14.9619 37.4595 14.9619 38.1665H10.9619ZM13.682 40.8866H19.4429V36.8866H13.682V40.8866ZM19.4429 40.8866C20.945 40.8866 22.163 39.6686 22.163 38.1665H18.163C18.163 37.4595 18.7358 36.8866 19.4429 36.8866V40.8866ZM22.163 38.1665V32.4057H18.163V38.1665H22.163ZM18.7228 35.4464H14.4021V39.4464H18.7228V35.4464ZM16.4021 37.4464V33.1258H12.4021V37.4464H16.4021ZM14.4021 35.1258H18.7228V31.1258H14.4021V35.1258ZM16.7228 33.1258V37.4464H20.7228V33.1258H16.7228Z" fill="#2D73C3" mask="url(#path-7-inside-4)"/>
<mask id="path-9-inside-5" fill="white">
<path d="M10.0816 41.0459H4.32069C3.92319 41.0459 3.60059 41.3685 3.60059 41.766V47.5269C3.60059 47.9244 3.92319 48.247 4.32069 48.247H10.0816C10.4791 48.247 10.8017 47.9244 10.8017 47.5269V41.766C10.8017 41.3685 10.4791 41.0459 10.0816 41.0459ZM9.36146 46.8068H5.0408V42.4861H9.36146V46.8068Z"/>
</mask>
<path d="M10.0816 41.0459H4.32069C3.92319 41.0459 3.60059 41.3685 3.60059 41.766V47.5269C3.60059 47.9244 3.92319 48.247 4.32069 48.247H10.0816C10.4791 48.247 10.8017 47.9244 10.8017 47.5269V41.766C10.8017 41.3685 10.4791 41.0459 10.0816 41.0459ZM9.36146 46.8068H5.0408V42.4861H9.36146V46.8068Z" fill="#2D73C3"/>
<path d="M9.36146 46.8068V48.8068H11.3615V46.8068H9.36146ZM5.0408 46.8068H3.0408V48.8068H5.0408V46.8068ZM5.0408 42.4861V40.4861H3.0408V42.4861H5.0408ZM9.36146 42.4861H11.3615V40.4861H9.36146V42.4861ZM10.0816 39.0459H4.32069V43.0459H10.0816V39.0459ZM4.32069 39.0459C2.81863 39.0459 1.60059 40.2639 1.60059 41.766H5.60059C5.60059 42.4731 5.02776 43.0459 4.32069 43.0459V39.0459ZM1.60059 41.766V47.5269H5.60059V41.766H1.60059ZM1.60059 47.5269C1.60059 49.0289 2.81863 50.247 4.32069 50.247V46.247C5.02776 46.247 5.60059 46.8198 5.60059 47.5269H1.60059ZM4.32069 50.247H10.0816V46.247H4.32069V50.247ZM10.0816 50.247C11.5836 50.247 12.8017 49.0289 12.8017 47.5269H8.80167C8.80167 46.8198 9.37449 46.247 10.0816 46.247V50.247ZM12.8017 47.5269V41.766H8.80167V47.5269H12.8017ZM12.8017 41.766C12.8017 40.2639 11.5836 39.0459 10.0816 39.0459V43.0459C9.37449 43.0459 8.80167 42.4731 8.80167 41.766H12.8017ZM9.36146 44.8068H5.0408V48.8068H9.36146V44.8068ZM7.0408 46.8068V42.4861H3.0408V46.8068H7.0408ZM5.0408 44.4861H9.36146V40.4861H5.0408V44.4861ZM7.36146 42.4861V46.8068H11.3615V42.4861H7.36146Z" fill="#2D73C3" mask="url(#path-9-inside-5)"/>
<mask id="path-11-inside-6" fill="white">
<path d="M19.4429 41.0459H13.682C13.2845 41.0459 12.9619 41.3685 12.9619 41.766V47.5269C12.9619 47.9244 13.2845 48.247 13.682 48.247H19.4429C19.8404 48.247 20.163 47.9244 20.163 47.5269V41.766C20.163 41.3685 19.8404 41.0459 19.4429 41.0459ZM18.7228 46.8068H14.4021V42.4861H18.7228V46.8068Z"/>
</mask>
<path d="M19.4429 41.0459H13.682C13.2845 41.0459 12.9619 41.3685 12.9619 41.766V47.5269C12.9619 47.9244 13.2845 48.247 13.682 48.247H19.4429C19.8404 48.247 20.163 47.9244 20.163 47.5269V41.766C20.163 41.3685 19.8404 41.0459 19.4429 41.0459ZM18.7228 46.8068H14.4021V42.4861H18.7228V46.8068Z" fill="#2D73C3"/>
<path d="M18.7228 46.8068V48.8068H20.7228V46.8068H18.7228ZM14.4021 46.8068H12.4021V48.8068H14.4021V46.8068ZM14.4021 42.4861V40.4861H12.4021V42.4861H14.4021ZM18.7228 42.4861H20.7228V40.4861H18.7228V42.4861ZM19.4429 39.0459H13.682V43.0459H19.4429V39.0459ZM13.682 39.0459C12.18 39.0459 10.9619 40.2639 10.9619 41.766H14.9619C14.9619 42.4731 14.3891 43.0459 13.682 43.0459V39.0459ZM10.9619 41.766V47.5269H14.9619V41.766H10.9619ZM10.9619 47.5269C10.9619 49.0289 12.18 50.247 13.682 50.247V46.247C14.3891 46.247 14.9619 46.8198 14.9619 47.5269H10.9619ZM13.682 50.247H19.4429V46.247H13.682V50.247ZM19.4429 50.247C20.945 50.247 22.163 49.0289 22.163 47.5269H18.163C18.163 46.8198 18.7358 46.247 19.4429 46.247V50.247ZM22.163 47.5269V41.766H18.163V47.5269H22.163ZM22.163 41.766C22.163 40.2639 20.945 39.0459 19.4429 39.0459V43.0459C18.7358 43.0459 18.163 42.4731 18.163 41.766H22.163ZM18.7228 44.8068H14.4021V48.8068H18.7228V44.8068ZM16.4021 46.8068V42.4861H12.4021V46.8068H16.4021ZM14.4021 44.4861H18.7228V40.4861H14.4021V44.4861ZM16.7228 42.4861V46.8068H20.7228V42.4861H16.7228Z" fill="#2D73C3" mask="url(#path-11-inside-6)"/>
<mask id="path-13-inside-7" fill="white">
<path d="M32.4048 3.59961H26.6439C26.2464 3.59961 25.9238 3.92222 25.9238 4.31972V10.0806C25.9238 10.4781 26.2464 10.8007 26.6439 10.8007H32.4048C32.8023 10.8007 33.1249 10.4781 33.1249 10.0806V4.31972C33.1249 3.92222 32.8023 3.59961 32.4048 3.59961ZM31.6847 9.36048H27.364V5.03983H31.6847V9.36048Z"/>
</mask>
<path d="M32.4048 3.59961H26.6439C26.2464 3.59961 25.9238 3.92222 25.9238 4.31972V10.0806C25.9238 10.4781 26.2464 10.8007 26.6439 10.8007H32.4048C32.8023 10.8007 33.1249 10.4781 33.1249 10.0806V4.31972C33.1249 3.92222 32.8023 3.59961 32.4048 3.59961ZM31.6847 9.36048H27.364V5.03983H31.6847V9.36048Z" fill="#2D73C3"/>
<path d="M31.6847 9.36048V11.3605H33.6847V9.36048H31.6847ZM27.364 9.36048H25.364V11.3605H27.364V9.36048ZM27.364 5.03983V3.03983H25.364V5.03983H27.364ZM31.6847 5.03983H33.6847V3.03983H31.6847V5.03983ZM32.4048 1.59961H26.6439V5.59961H32.4048V1.59961ZM26.6439 1.59961C25.1419 1.59961 23.9238 2.81765 23.9238 4.31972H27.9238C27.9238 5.02679 27.351 5.59961 26.6439 5.59961V1.59961ZM23.9238 4.31972V10.0806H27.9238V4.31972H23.9238ZM23.9238 10.0806C23.9238 11.5827 25.1419 12.8007 26.6439 12.8007V8.8007C27.351 8.8007 27.9238 9.37352 27.9238 10.0806H23.9238ZM26.6439 12.8007H32.4048V8.8007H26.6439V12.8007ZM32.4048 12.8007C33.9069 12.8007 35.1249 11.5827 35.1249 10.0806H31.1249C31.1249 9.37352 31.6977 8.8007 32.4048 8.8007V12.8007ZM35.1249 10.0806V4.31972H31.1249V10.0806H35.1249ZM35.1249 4.31972C35.1249 2.81765 33.9069 1.59961 32.4048 1.59961V5.59961C31.6977 5.59961 31.1249 5.02679 31.1249 4.31972H35.1249ZM31.6847 7.36048H27.364V11.3605H31.6847V7.36048ZM29.364 9.36048V5.03983H25.364V9.36048H29.364ZM27.364 7.03983H31.6847V3.03983H27.364V7.03983ZM29.6847 5.03983V9.36048H33.6847V5.03983H29.6847Z" fill="#2D73C3" mask="url(#path-13-inside-7)"/>
<mask id="path-15-inside-8" fill="white">
<path d="M36.0058 10.8007H41.7666C42.1641 10.8007 42.4867 10.4781 42.4867 10.0806V4.31972C42.4867 3.92222 42.1641 3.59961 41.7666 3.59961H36.0058C35.6083 3.59961 35.2856 3.92222 35.2856 4.31972V10.0806C35.2856 10.4781 35.6083 10.8007 36.0058 10.8007ZM36.7259 5.03983H41.0465V9.36048H36.7259V5.03983Z"/>
</mask>
<path d="M36.0058 10.8007H41.7666C42.1641 10.8007 42.4867 10.4781 42.4867 10.0806V4.31972C42.4867 3.92222 42.1641 3.59961 41.7666 3.59961H36.0058C35.6083 3.59961 35.2856 3.92222 35.2856 4.31972V10.0806C35.2856 10.4781 35.6083 10.8007 36.0058 10.8007ZM36.7259 5.03983H41.0465V9.36048H36.7259V5.03983Z" fill="#2D73C3"/>
<path d="M36.7259 5.03983V3.03983H34.7259V5.03983H36.7259ZM41.0465 5.03983H43.0465V3.03983H41.0465V5.03983ZM41.0465 9.36048V11.3605H43.0465V9.36048H41.0465ZM36.7259 9.36048H34.7259V11.3605H36.7259V9.36048ZM36.0058 12.8007H41.7666V8.8007H36.0058V12.8007ZM41.7666 12.8007C43.2687 12.8007 44.4867 11.5827 44.4867 10.0806H40.4867C40.4867 9.37352 41.0596 8.8007 41.7666 8.8007V12.8007ZM44.4867 10.0806V4.31972H40.4867V10.0806H44.4867ZM44.4867 4.31972C44.4867 2.81765 43.2687 1.59961 41.7666 1.59961V5.59961C41.0596 5.59961 40.4867 5.02679 40.4867 4.31972H44.4867ZM41.7666 1.59961H36.0058V5.59961H41.7666V1.59961ZM36.0058 1.59961C34.5037 1.59961 33.2856 2.81765 33.2856 4.31972H37.2856C37.2856 5.02679 36.7128 5.59961 36.0058 5.59961V1.59961ZM33.2856 4.31972V10.0806H37.2856V4.31972H33.2856ZM33.2856 10.0806C33.2856 11.5827 34.5037 12.8007 36.0058 12.8007V8.8007C36.7128 8.8007 37.2856 9.37352 37.2856 10.0806H33.2856ZM36.7259 7.03983H41.0465V3.03983H36.7259V7.03983ZM39.0465 5.03983V9.36048H43.0465V5.03983H39.0465ZM41.0465 7.36048H36.7259V11.3605H41.0465V7.36048ZM38.7259 9.36048V5.03983H34.7259V9.36048H38.7259Z" fill="#2D73C3" mask="url(#path-15-inside-8)"/>
<mask id="path-17-inside-9" fill="white">
<path d="M45.3671 10.8007H51.128C51.5255 10.8007 51.8481 10.4781 51.8481 10.0806V4.31972C51.8481 3.92222 51.5255 3.59961 51.128 3.59961H45.3671C44.9696 3.59961 44.647 3.92222 44.647 4.31972V10.0806C44.647 10.4781 44.9696 10.8007 45.3671 10.8007ZM46.0872 5.03983H50.4078V9.36048H46.0872V5.03983Z"/>
</mask>
<path d="M45.3671 10.8007H51.128C51.5255 10.8007 51.8481 10.4781 51.8481 10.0806V4.31972C51.8481 3.92222 51.5255 3.59961 51.128 3.59961H45.3671C44.9696 3.59961 44.647 3.92222 44.647 4.31972V10.0806C44.647 10.4781 44.9696 10.8007 45.3671 10.8007ZM46.0872 5.03983H50.4078V9.36048H46.0872V5.03983Z" fill="#2D73C3"/>
<path d="M46.0872 5.03983V3.03983H44.0872V5.03983H46.0872ZM50.4078 5.03983H52.4078V3.03983H50.4078V5.03983ZM50.4078 9.36048V11.3605H52.4078V9.36048H50.4078ZM46.0872 9.36048H44.0872V11.3605H46.0872V9.36048ZM45.3671 12.8007H51.128V8.8007H45.3671V12.8007ZM51.128 12.8007C52.63 12.8007 53.8481 11.5827 53.8481 10.0806H49.8481C49.8481 9.37352 50.4209 8.8007 51.128 8.8007V12.8007ZM53.8481 10.0806V4.31972H49.8481V10.0806H53.8481ZM53.8481 4.31972C53.8481 2.81765 52.63 1.59961 51.128 1.59961V5.59961C50.4209 5.59961 49.8481 5.02679 49.8481 4.31972H53.8481ZM51.128 1.59961H45.3671V5.59961H51.128V1.59961ZM45.3671 1.59961C43.865 1.59961 42.647 2.81765 42.647 4.31972H46.647C46.647 5.02679 46.0742 5.59961 45.3671 5.59961V1.59961ZM42.647 4.31972V10.0806H46.647V4.31972H42.647ZM42.647 10.0806C42.647 11.5827 43.865 12.8007 45.3671 12.8007V8.8007C46.0742 8.8007 46.647 9.37352 46.647 10.0806H42.647ZM46.0872 7.03983H50.4078V3.03983H46.0872V7.03983ZM48.4078 5.03983V9.36048H52.4078V5.03983H48.4078ZM50.4078 7.36048H46.0872V11.3605H50.4078V7.36048ZM48.0872 9.36048V5.03983H44.0872V9.36048H48.0872Z" fill="#2D73C3" mask="url(#path-17-inside-9)"/>
<mask id="path-19-inside-10" fill="white">
<path d="M32.4048 12.9629H26.6439C26.2464 12.9629 25.9238 13.2855 25.9238 13.683V19.4439C25.9238 19.8414 26.2464 20.164 26.6439 20.164H32.4048C32.8023 20.164 33.1249 19.8414 33.1249 19.4439V13.683C33.1249 13.2855 32.8023 12.9629 32.4048 12.9629ZM31.6847 18.7238H27.364V14.4031H31.6847V18.7238Z"/>
</mask>
<path d="M32.4048 12.9629H26.6439C26.2464 12.9629 25.9238 13.2855 25.9238 13.683V19.4439C25.9238 19.8414 26.2464 20.164 26.6439 20.164H32.4048C32.8023 20.164 33.1249 19.8414 33.1249 19.4439V13.683C33.1249 13.2855 32.8023 12.9629 32.4048 12.9629ZM31.6847 18.7238H27.364V14.4031H31.6847V18.7238Z" fill="#2D73C3"/>
<path d="M31.6847 18.7238V20.7238H33.6847V18.7238H31.6847ZM27.364 18.7238H25.364V20.7238H27.364V18.7238ZM27.364 14.4031V12.4031H25.364V14.4031H27.364ZM31.6847 14.4031H33.6847V12.4031H31.6847V14.4031ZM32.4048 10.9629H26.6439V14.9629H32.4048V10.9629ZM26.6439 10.9629C25.1419 10.9629 23.9238 12.1809 23.9238 13.683H27.9238C27.9238 14.3901 27.351 14.9629 26.6439 14.9629V10.9629ZM23.9238 13.683V19.4439H27.9238V13.683H23.9238ZM23.9238 19.4439C23.9238 20.9459 25.1419 22.164 26.6439 22.164V18.164C27.351 18.164 27.9238 18.7368 27.9238 19.4439H23.9238ZM26.6439 22.164H32.4048V18.164H26.6439V22.164ZM32.4048 22.164C33.9069 22.164 35.1249 20.9459 35.1249 19.4439H31.1249C31.1249 18.7368 31.6977 18.164 32.4048 18.164V22.164ZM35.1249 19.4439V13.683H31.1249V19.4439H35.1249ZM35.1249 13.683C35.1249 12.1809 33.9069 10.9629 32.4048 10.9629V14.9629C31.6977 14.9629 31.1249 14.3901 31.1249 13.683H35.1249ZM31.6847 16.7238H27.364V20.7238H31.6847V16.7238ZM29.364 18.7238V14.4031H25.364V18.7238H29.364ZM27.364 16.4031H31.6847V12.4031H27.364V16.4031ZM29.6847 14.4031V18.7238H33.6847V14.4031H29.6847Z" fill="#2D73C3" mask="url(#path-19-inside-10)"/>
<mask id="path-21-inside-11" fill="white">
<path d="M36.0058 20.164H41.7666C42.1641 20.164 42.4867 19.8414 42.4867 19.4439V13.683C42.4867 13.2855 42.1641 12.9629 41.7666 12.9629H36.0058C35.6083 12.9629 35.2856 13.2855 35.2856 13.683V19.4439C35.2856 19.8414 35.6083 20.164 36.0058 20.164ZM36.7259 14.4031H41.0465V18.7238H36.7259V14.4031Z"/>
</mask>
<path d="M36.0058 20.164H41.7666C42.1641 20.164 42.4867 19.8414 42.4867 19.4439V13.683C42.4867 13.2855 42.1641 12.9629 41.7666 12.9629H36.0058C35.6083 12.9629 35.2856 13.2855 35.2856 13.683V19.4439C35.2856 19.8414 35.6083 20.164 36.0058 20.164ZM36.7259 14.4031H41.0465V18.7238H36.7259V14.4031Z" fill="#2D73C3"/>
<path d="M36.7259 14.4031V12.4031H34.7259V14.4031H36.7259ZM41.0465 14.4031H43.0465V12.4031H41.0465V14.4031ZM41.0465 18.7238V20.7238H43.0465V18.7238H41.0465ZM36.7259 18.7238H34.7259V20.7238H36.7259V18.7238ZM36.0058 22.164H41.7666V18.164H36.0058V22.164ZM41.7666 22.164C43.2687 22.164 44.4867 20.9459 44.4867 19.4439H40.4867C40.4867 18.7368 41.0596 18.164 41.7666 18.164V22.164ZM44.4867 19.4439V13.683H40.4867V19.4439H44.4867ZM44.4867 13.683C44.4867 12.1809 43.2687 10.9629 41.7666 10.9629V14.9629C41.0596 14.9629 40.4867 14.3901 40.4867 13.683H44.4867ZM41.7666 10.9629H36.0058V14.9629H41.7666V10.9629ZM36.0058 10.9629C34.5037 10.9629 33.2856 12.1809 33.2856 13.683H37.2856C37.2856 14.3901 36.7128 14.9629 36.0058 14.9629V10.9629ZM33.2856 13.683V19.4439H37.2856V13.683H33.2856ZM33.2856 19.4439C33.2856 20.9459 34.5037 22.164 36.0058 22.164V18.164C36.7128 18.164 37.2856 18.7368 37.2856 19.4439H33.2856ZM36.7259 16.4031H41.0465V12.4031H36.7259V16.4031ZM39.0465 14.4031V18.7238H43.0465V14.4031H39.0465ZM41.0465 16.7238H36.7259V20.7238H41.0465V16.7238ZM38.7259 18.7238V14.4031H34.7259V18.7238H38.7259Z" fill="#2D73C3" mask="url(#path-21-inside-11)"/>
<mask id="path-23-inside-12" fill="white">
<path d="M45.3671 20.164H51.128C51.5255 20.164 51.8481 19.8414 51.8481 19.4439V13.683C51.8481 13.2855 51.5255 12.9629 51.128 12.9629H45.3671C44.9696 12.9629 44.647 13.2855 44.647 13.683V19.4439C44.647 19.8414 44.9696 20.164 45.3671 20.164ZM46.0872 14.4031H50.4078V18.7238H46.0872V14.4031Z"/>
</mask>
<path d="M45.3671 20.164H51.128C51.5255 20.164 51.8481 19.8414 51.8481 19.4439V13.683C51.8481 13.2855 51.5255 12.9629 51.128 12.9629H45.3671C44.9696 12.9629 44.647 13.2855 44.647 13.683V19.4439C44.647 19.8414 44.9696 20.164 45.3671 20.164ZM46.0872 14.4031H50.4078V18.7238H46.0872V14.4031Z" fill="#2D73C3"/>
<path d="M46.0872 14.4031V12.4031H44.0872V14.4031H46.0872ZM50.4078 14.4031H52.4078V12.4031H50.4078V14.4031ZM50.4078 18.7238V20.7238H52.4078V18.7238H50.4078ZM46.0872 18.7238H44.0872V20.7238H46.0872V18.7238ZM45.3671 22.164H51.128V18.164H45.3671V22.164ZM51.128 22.164C52.63 22.164 53.8481 20.9459 53.8481 19.4439H49.8481C49.8481 18.7368 50.4209 18.164 51.128 18.164V22.164ZM53.8481 19.4439V13.683H49.8481V19.4439H53.8481ZM53.8481 13.683C53.8481 12.1809 52.63 10.9629 51.128 10.9629V14.9629C50.4209 14.9629 49.8481 14.3901 49.8481 13.683H53.8481ZM51.128 10.9629H45.3671V14.9629H51.128V10.9629ZM45.3671 10.9629C43.865 10.9629 42.647 12.1809 42.647 13.683H46.647C46.647 14.3901 46.0742 14.9629 45.3671 14.9629V10.9629ZM42.647 13.683V19.4439H46.647V13.683H42.647ZM42.647 19.4439C42.647 20.9459 43.865 22.164 45.3671 22.164V18.164C46.0742 18.164 46.647 18.7368 46.647 19.4439H42.647ZM46.0872 16.4031H50.4078V12.4031H46.0872V16.4031ZM48.4078 14.4031V18.7238H52.4078V14.4031H48.4078ZM50.4078 16.7238H46.0872V20.7238H50.4078V16.7238ZM48.0872 18.7238V14.4031H44.0872V18.7238H48.0872Z" fill="#2D73C3" mask="url(#path-23-inside-12)"/>
<mask id="path-25-inside-13" fill="white">
<path d="M32.4048 22.3242H26.6439C26.2464 22.3242 25.9238 22.6468 25.9238 23.0443V28.8052C25.9238 29.2027 26.2464 29.5253 26.6439 29.5253H32.4048C32.8023 29.5253 33.1249 29.2027 33.1249 28.8052V23.0443C33.1249 22.6468 32.8023 22.3242 32.4048 22.3242ZM31.6847 28.0851H27.364V23.7644H31.6847V28.0851Z"/>
</mask>
<path d="M32.4048 22.3242H26.6439C26.2464 22.3242 25.9238 22.6468 25.9238 23.0443V28.8052C25.9238 29.2027 26.2464 29.5253 26.6439 29.5253H32.4048C32.8023 29.5253 33.1249 29.2027 33.1249 28.8052V23.0443C33.1249 22.6468 32.8023 22.3242 32.4048 22.3242ZM31.6847 28.0851H27.364V23.7644H31.6847V28.0851Z" fill="#2D73C3"/>
<path d="M31.6847 28.0851V30.0851H33.6847V28.0851H31.6847ZM27.364 28.0851H25.364V30.0851H27.364V28.0851ZM27.364 23.7644V21.7644H25.364V23.7644H27.364ZM31.6847 23.7644H33.6847V21.7644H31.6847V23.7644ZM32.4048 20.3242H26.6439V24.3242H32.4048V20.3242ZM26.6439 20.3242C25.1419 20.3242 23.9238 21.5423 23.9238 23.0443H27.9238C27.9238 23.7514 27.351 24.3242 26.6439 24.3242V20.3242ZM23.9238 23.0443V28.8052H27.9238V23.0443H23.9238ZM23.9238 28.8052C23.9238 30.3073 25.1419 31.5253 26.6439 31.5253V27.5253C27.351 27.5253 27.9238 28.0981 27.9238 28.8052H23.9238ZM26.6439 31.5253H32.4048V27.5253H26.6439V31.5253ZM32.4048 31.5253C33.9069 31.5253 35.1249 30.3073 35.1249 28.8052H31.1249C31.1249 28.0981 31.6977 27.5253 32.4048 27.5253V31.5253ZM35.1249 28.8052V23.0443H31.1249V28.8052H35.1249ZM35.1249 23.0443C35.1249 21.5423 33.9069 20.3242 32.4048 20.3242V24.3242C31.6977 24.3242 31.1249 23.7514 31.1249 23.0443H35.1249ZM31.6847 26.0851H27.364V30.0851H31.6847V26.0851ZM29.364 28.0851V23.7644H25.364V28.0851H29.364ZM27.364 25.7644H31.6847V21.7644H27.364V25.7644ZM29.6847 23.7644V28.0851H33.6847V23.7644H29.6847Z" fill="#2D73C3" mask="url(#path-25-inside-13)"/>
<mask id="path-27-inside-14" fill="white">
<path d="M36.0058 29.5253H41.7666C42.1641 29.5253 42.4867 29.2027 42.4867 28.8052V23.0443C42.4867 22.6468 42.1641 22.3242 41.7666 22.3242H36.0058C35.6083 22.3242 35.2856 22.6468 35.2856 23.0443V28.8052C35.2856 29.2027 35.6083 29.5253 36.0058 29.5253ZM36.7259 23.7644H41.0465V28.0851H36.7259V23.7644Z"/>
</mask>
<path d="M36.0058 29.5253H41.7666C42.1641 29.5253 42.4867 29.2027 42.4867 28.8052V23.0443C42.4867 22.6468 42.1641 22.3242 41.7666 22.3242H36.0058C35.6083 22.3242 35.2856 22.6468 35.2856 23.0443V28.8052C35.2856 29.2027 35.6083 29.5253 36.0058 29.5253ZM36.7259 23.7644H41.0465V28.0851H36.7259V23.7644Z" fill="#2D73C3"/>
<path d="M36.7259 23.7644V21.7644H34.7259V23.7644H36.7259ZM41.0465 23.7644H43.0465V21.7644H41.0465V23.7644ZM41.0465 28.0851V30.0851H43.0465V28.0851H41.0465ZM36.7259 28.0851H34.7259V30.0851H36.7259V28.0851ZM36.0058 31.5253H41.7666V27.5253H36.0058V31.5253ZM41.7666 31.5253C43.2687 31.5253 44.4867 30.3073 44.4867 28.8052H40.4867C40.4867 28.0981 41.0596 27.5253 41.7666 27.5253V31.5253ZM44.4867 28.8052V23.0443H40.4867V28.8052H44.4867ZM44.4867 23.0443C44.4867 21.5423 43.2687 20.3242 41.7666 20.3242V24.3242C41.0596 24.3242 40.4867 23.7514 40.4867 23.0443H44.4867ZM41.7666 20.3242H36.0058V24.3242H41.7666V20.3242ZM36.0058 20.3242C34.5037 20.3242 33.2856 21.5423 33.2856 23.0443H37.2856C37.2856 23.7514 36.7128 24.3242 36.0058 24.3242V20.3242ZM33.2856 23.0443V28.8052H37.2856V23.0443H33.2856ZM33.2856 28.8052C33.2856 30.3073 34.5037 31.5253 36.0058 31.5253V27.5253C36.7128 27.5253 37.2856 28.0981 37.2856 28.8052H33.2856ZM36.7259 25.7644H41.0465V21.7644H36.7259V25.7644ZM39.0465 23.7644V28.0851H43.0465V23.7644H39.0465ZM41.0465 26.0851H36.7259V30.0851H41.0465V26.0851ZM38.7259 28.0851V23.7644H34.7259V28.0851H38.7259Z" fill="#2D73C3" mask="url(#path-27-inside-14)"/>
<mask id="path-29-inside-15" fill="white">
<path d="M45.3671 29.5253H51.128C51.5255 29.5253 51.8481 29.2027 51.8481 28.8052V23.0443C51.8481 22.6468 51.5255 22.3242 51.128 22.3242H45.3671C44.9696 22.3242 44.647 22.6468 44.647 23.0443V28.8052C44.647 29.2027 44.9696 29.5253 45.3671 29.5253ZM46.0872 23.7644H50.4078V28.0851H46.0872V23.7644Z"/>
</mask>
<path d="M45.3671 29.5253H51.128C51.5255 29.5253 51.8481 29.2027 51.8481 28.8052V23.0443C51.8481 22.6468 51.5255 22.3242 51.128 22.3242H45.3671C44.9696 22.3242 44.647 22.6468 44.647 23.0443V28.8052C44.647 29.2027 44.9696 29.5253 45.3671 29.5253ZM46.0872 23.7644H50.4078V28.0851H46.0872V23.7644Z" fill="#2D73C3"/>
<path d="M46.0872 23.7644V21.7644H44.0872V23.7644H46.0872ZM50.4078 23.7644H52.4078V21.7644H50.4078V23.7644ZM50.4078 28.0851V30.0851H52.4078V28.0851H50.4078ZM46.0872 28.0851H44.0872V30.0851H46.0872V28.0851ZM45.3671 31.5253H51.128V27.5253H45.3671V31.5253ZM51.128 31.5253C52.63 31.5253 53.8481 30.3073 53.8481 28.8052H49.8481C49.8481 28.0981 50.4209 27.5253 51.128 27.5253V31.5253ZM53.8481 28.8052V23.0443H49.8481V28.8052H53.8481ZM53.8481 23.0443C53.8481 21.5423 52.63 20.3242 51.128 20.3242V24.3242C50.4209 24.3242 49.8481 23.7514 49.8481 23.0443H53.8481ZM51.128 20.3242H45.3671V24.3242H51.128V20.3242ZM45.3671 20.3242C43.865 20.3242 42.647 21.5423 42.647 23.0443H46.647C46.647 23.7514 46.0742 24.3242 45.3671 24.3242V20.3242ZM42.647 23.0443V28.8052H46.647V23.0443H42.647ZM42.647 28.8052C42.647 30.3073 43.865 31.5253 45.3671 31.5253V27.5253C46.0742 27.5253 46.647 28.0981 46.647 28.8052H42.647ZM46.0872 25.7644H50.4078V21.7644H46.0872V25.7644ZM48.4078 23.7644V28.0851H52.4078V23.7644H48.4078ZM50.4078 26.0851H46.0872V30.0851H50.4078V26.0851ZM48.0872 28.0851V23.7644H44.0872V28.0851H48.0872Z" fill="#2D73C3" mask="url(#path-29-inside-15)"/>
<mask id="path-31-inside-16" fill="white">
<path d="M32.4048 31.6855H26.6439C26.2464 31.6855 25.9238 32.0082 25.9238 32.4057V38.1665C25.9238 38.564 26.2464 38.8866 26.6439 38.8866H32.4048C32.8023 38.8866 33.1249 38.564 33.1249 38.1665V32.4057C33.1249 32.0082 32.8023 31.6855 32.4048 31.6855ZM31.6847 37.4464H27.364V33.1258H31.6847V37.4464Z"/>
</mask>
<path d="M32.4048 31.6855H26.6439C26.2464 31.6855 25.9238 32.0082 25.9238 32.4057V38.1665C25.9238 38.564 26.2464 38.8866 26.6439 38.8866H32.4048C32.8023 38.8866 33.1249 38.564 33.1249 38.1665V32.4057C33.1249 32.0082 32.8023 31.6855 32.4048 31.6855ZM31.6847 37.4464H27.364V33.1258H31.6847V37.4464Z" fill="#2D73C3"/>
<path d="M31.6847 37.4464V39.4464H33.6847V37.4464H31.6847ZM27.364 37.4464H25.364V39.4464H27.364V37.4464ZM27.364 33.1258V31.1258H25.364V33.1258H27.364ZM31.6847 33.1258H33.6847V31.1258H31.6847V33.1258ZM32.4048 29.6855H26.6439V33.6855H32.4048V29.6855ZM26.6439 29.6855C25.1419 29.6855 23.9238 30.9036 23.9238 32.4057H27.9238C27.9238 33.1127 27.351 33.6855 26.6439 33.6855V29.6855ZM23.9238 32.4057V38.1665H27.9238V32.4057H23.9238ZM23.9238 38.1665C23.9238 39.6686 25.1419 40.8866 26.6439 40.8866V36.8866C27.351 36.8866 27.9238 37.4595 27.9238 38.1665H23.9238ZM26.6439 40.8866H32.4048V36.8866H26.6439V40.8866ZM32.4048 40.8866C33.9069 40.8866 35.1249 39.6686 35.1249 38.1665H31.1249C31.1249 37.4595 31.6977 36.8866 32.4048 36.8866V40.8866ZM35.1249 38.1665V32.4057H31.1249V38.1665H35.1249ZM35.1249 32.4057C35.1249 30.9036 33.9069 29.6855 32.4048 29.6855V33.6855C31.6977 33.6855 31.1249 33.1127 31.1249 32.4057H35.1249ZM31.6847 35.4464H27.364V39.4464H31.6847V35.4464ZM29.364 37.4464V33.1258H25.364V37.4464H29.364ZM27.364 35.1258H31.6847V31.1258H27.364V35.1258ZM29.6847 33.1258V37.4464H33.6847V33.1258H29.6847Z" fill="#2D73C3" mask="url(#path-31-inside-16)"/>
<mask id="path-33-inside-17" fill="white">
<path d="M42.4867 38.1665V32.4057C42.4867 32.0082 42.1641 31.6855 41.7666 31.6855H36.0058C35.6083 31.6855 35.2856 32.0082 35.2856 32.4057V38.1665C35.2856 38.564 35.6083 38.8866 36.0058 38.8866H41.7666C42.1641 38.8866 42.4867 38.564 42.4867 38.1665ZM41.0465 37.4464H36.7259V33.1258H41.0465V37.4464Z"/>
</mask>
<path d="M42.4867 38.1665V32.4057C42.4867 32.0082 42.1641 31.6855 41.7666 31.6855H36.0058C35.6083 31.6855 35.2856 32.0082 35.2856 32.4057V38.1665C35.2856 38.564 35.6083 38.8866 36.0058 38.8866H41.7666C42.1641 38.8866 42.4867 38.564 42.4867 38.1665ZM41.0465 37.4464H36.7259V33.1258H41.0465V37.4464Z" fill="#2D73C3"/>
<path d="M41.0465 37.4464V39.4464H43.0465V37.4464H41.0465ZM36.7259 37.4464H34.7259V39.4464H36.7259V37.4464ZM36.7259 33.1258V31.1258H34.7259V33.1258H36.7259ZM41.0465 33.1258H43.0465V31.1258H41.0465V33.1258ZM44.4867 38.1665V32.4057H40.4867V38.1665H44.4867ZM44.4867 32.4057C44.4867 30.9036 43.2687 29.6855 41.7666 29.6855V33.6855C41.0596 33.6855 40.4867 33.1127 40.4867 32.4057H44.4867ZM41.7666 29.6855H36.0058V33.6855H41.7666V29.6855ZM36.0058 29.6855C34.5037 29.6855 33.2856 30.9036 33.2856 32.4057H37.2856C37.2856 33.1127 36.7128 33.6855 36.0058 33.6855V29.6855ZM33.2856 32.4057V38.1665H37.2856V32.4057H33.2856ZM33.2856 38.1665C33.2856 39.6686 34.5037 40.8866 36.0058 40.8866V36.8866C36.7128 36.8866 37.2856 37.4595 37.2856 38.1665H33.2856ZM36.0058 40.8866H41.7666V36.8866H36.0058V40.8866ZM41.7666 40.8866C43.2687 40.8866 44.4867 39.6686 44.4867 38.1665H40.4867C40.4867 37.4595 41.0596 36.8866 41.7666 36.8866V40.8866ZM41.0465 35.4464H36.7259V39.4464H41.0465V35.4464ZM38.7259 37.4464V33.1258H34.7259V37.4464H38.7259ZM36.7259 35.1258H41.0465V31.1258H36.7259V35.1258ZM39.0465 33.1258V37.4464H43.0465V33.1258H39.0465Z" fill="#2D73C3" mask="url(#path-33-inside-17)"/>
<mask id="path-35-inside-18" fill="white">
<path d="M45.3671 38.8866H51.128C51.5255 38.8866 51.8481 38.564 51.8481 38.1665V32.4057C51.8481 32.0082 51.5255 31.6855 51.128 31.6855H45.3671C44.9696 31.6855 44.647 32.0082 44.647 32.4057V38.1665C44.647 38.564 44.9696 38.8866 45.3671 38.8866ZM46.0872 33.1258H50.4078V37.4464H46.0872V33.1258Z"/>
</mask>
<path d="M45.3671 38.8866H51.128C51.5255 38.8866 51.8481 38.564 51.8481 38.1665V32.4057C51.8481 32.0082 51.5255 31.6855 51.128 31.6855H45.3671C44.9696 31.6855 44.647 32.0082 44.647 32.4057V38.1665C44.647 38.564 44.9696 38.8866 45.3671 38.8866ZM46.0872 33.1258H50.4078V37.4464H46.0872V33.1258Z" fill="#2D73C3"/>
<path d="M46.0872 33.1258V31.1258H44.0872V33.1258H46.0872ZM50.4078 33.1258H52.4078V31.1258H50.4078V33.1258ZM50.4078 37.4464V39.4464H52.4078V37.4464H50.4078ZM46.0872 37.4464H44.0872V39.4464H46.0872V37.4464ZM45.3671 40.8866H51.128V36.8866H45.3671V40.8866ZM51.128 40.8866C52.63 40.8866 53.8481 39.6686 53.8481 38.1665H49.8481C49.8481 37.4595 50.4209 36.8866 51.128 36.8866V40.8866ZM53.8481 38.1665V32.4057H49.8481V38.1665H53.8481ZM53.8481 32.4057C53.8481 30.9036 52.63 29.6855 51.128 29.6855V33.6855C50.4209 33.6855 49.8481 33.1127 49.8481 32.4057H53.8481ZM51.128 29.6855H45.3671V33.6855H51.128V29.6855ZM45.3671 29.6855C43.865 29.6855 42.647 30.9036 42.647 32.4057H46.647C46.647 33.1127 46.0742 33.6855 45.3671 33.6855V29.6855ZM42.647 32.4057V38.1665H46.647V32.4057H42.647ZM42.647 38.1665C42.647 39.6686 43.865 40.8866 45.3671 40.8866V36.8866C46.0742 36.8866 46.647 37.4595 46.647 38.1665H42.647ZM46.0872 35.1258H50.4078V31.1258H46.0872V35.1258ZM48.4078 33.1258V37.4464H52.4078V33.1258H48.4078ZM50.4078 35.4464H46.0872V39.4464H50.4078V35.4464ZM48.0872 37.4464V33.1258H44.0872V37.4464H48.0872Z" fill="#2D73C3" mask="url(#path-35-inside-18)"/>
<mask id="path-37-inside-19" fill="white">
<path d="M64.0897 47.5272H58.3288V46.087C58.3288 45.454 58.1625 44.8311 57.8471 44.2867C57.6476 43.9418 57.2062 43.8244 56.8634 44.0238C56.5184 44.2233 56.4011 44.6633 56.6005 45.0075C56.7885 45.3337 56.8886 45.7075 56.8886 46.087V47.5272H48.2473V46.087C48.2473 44.8959 49.2165 43.9266 50.4076 43.9266H54.7283C55.1258 43.9266 55.4484 43.604 55.4484 43.2065V0.720109C55.4484 0.322609 55.1258 0 54.7283 0H23.0435C22.646 0 22.3234 0.322609 22.3234 0.720109V18.7228H14.4022C14.0047 18.7228 13.6821 19.0454 13.6821 19.4429C13.6821 19.8404 14.0047 20.163 14.4022 20.163H22.3234V64.8098H1.44022V20.163H11.5217C11.9192 20.163 12.2418 19.8404 12.2418 19.4429V12.962C12.2418 12.9223 12.2253 12.8878 12.2195 12.8503C14.6304 10.0239 14.5066 5.76303 11.835 3.09143C11.5534 2.80986 11.0983 2.80986 10.8168 3.09143L1.65121 12.257C1.36965 12.5385 1.36965 12.9936 1.65121 13.2752C3.0547 14.6794 4.8989 15.3808 6.7431 15.3808C8.16387 15.3808 9.58249 14.9595 10.8016 14.1264V18.7228H0.720109C0.322609 18.7228 0 19.0454 0 19.4429V65.5299C0 65.9274 0.322609 66.25 0.720109 66.25H27.3641C27.7616 66.25 28.0842 65.9274 28.0842 65.5299V50.4076H35.2853V64.8098H30.2446C29.8471 64.8098 29.5245 65.1324 29.5245 65.5299C29.5245 65.9274 29.8471 66.25 30.2446 66.25H64.0897C65.2807 66.25 66.25 65.2807 66.25 64.0897V49.6875C66.25 48.4964 65.2807 47.5272 64.0897 47.5272ZM3.21024 12.7344L11.2942 4.65046C13.0498 6.90872 12.8907 10.1831 10.8168 12.257C8.74356 14.3309 5.46779 14.4893 3.21024 12.7344ZM39.0184 64.8098H36.7255V49.6875C36.7255 49.29 36.4029 48.9674 36.0054 48.9674H27.3641C26.9666 48.9674 26.644 49.29 26.644 49.6875V64.8098H23.7636V1.44022H54.0082V42.4864H50.4076C48.4223 42.4864 46.8071 44.1016 46.8071 46.087V47.5272H41.0462C39.8551 47.5272 38.8859 48.4964 38.8859 49.6875V64.0897C38.8859 64.3432 38.9377 64.5837 39.0184 64.8098ZM41.0462 64.8098C40.6494 64.8098 40.3261 64.4865 40.3261 64.0897V62.0021C41.7346 62.2894 42.8465 63.4012 43.1338 64.8098H41.0462ZM64.8098 64.0897C64.8098 64.4865 64.4865 64.8098 64.0897 64.8098H62.0021C62.2894 63.4012 63.4012 62.2894 64.8098 62.0021V64.0897ZM64.8098 60.5467C62.607 60.8643 60.8636 62.607 60.5467 64.8098H44.5891C44.2716 62.607 42.5289 60.8636 40.3261 60.5467V56.8886H43.9266V57.6087C43.9266 58.0062 44.2492 58.3288 44.6467 58.3288H45.3668V59.769C45.3668 60.1665 45.6895 60.4891 46.087 60.4891C46.4845 60.4891 46.8071 60.1665 46.8071 59.769V58.3288H47.5272C47.9247 58.3288 48.2473 58.0062 48.2473 57.6087V56.8886H56.8886V57.6087C56.8886 58.0062 57.2112 58.3288 57.6087 58.3288H58.3288V59.769C58.3288 60.1665 58.6514 60.4891 59.0489 60.4891C59.4464 60.4891 59.769 60.1665 59.769 59.769V58.3288H60.4891C60.8866 58.3288 61.2092 58.0062 61.2092 57.6087V56.8886H64.8098V60.5467ZM45.3668 56.8886V54.7283H46.8071V56.8886H45.3668ZM58.3288 56.8886V54.7283H59.769V56.8886H58.3288ZM64.8098 55.4484H61.2092V54.0082C61.2092 53.6107 60.8866 53.288 60.4891 53.288H57.6087C57.2112 53.288 56.8886 53.6107 56.8886 54.0082V55.4484H48.2473V54.0082C48.2473 53.6107 47.9247 53.288 47.5272 53.288H44.6467C44.2492 53.288 43.9266 53.6107 43.9266 54.0082V55.4484H40.3261V49.6875C40.3261 49.2907 40.6494 48.9674 41.0462 48.9674H64.0897C64.4865 48.9674 64.8098 49.2907 64.8098 49.6875V55.4484Z"/>
</mask>
<path d="M64.0897 47.5272H58.3288V46.087C58.3288 45.454 58.1625 44.8311 57.8471 44.2867C57.6476 43.9418 57.2062 43.8244 56.8634 44.0238C56.5184 44.2233 56.4011 44.6633 56.6005 45.0075C56.7885 45.3337 56.8886 45.7075 56.8886 46.087V47.5272H48.2473V46.087C48.2473 44.8959 49.2165 43.9266 50.4076 43.9266H54.7283C55.1258 43.9266 55.4484 43.604 55.4484 43.2065V0.720109C55.4484 0.322609 55.1258 0 54.7283 0H23.0435C22.646 0 22.3234 0.322609 22.3234 0.720109V18.7228H14.4022C14.0047 18.7228 13.6821 19.0454 13.6821 19.4429C13.6821 19.8404 14.0047 20.163 14.4022 20.163H22.3234V64.8098H1.44022V20.163H11.5217C11.9192 20.163 12.2418 19.8404 12.2418 19.4429V12.962C12.2418 12.9223 12.2253 12.8878 12.2195 12.8503C14.6304 10.0239 14.5066 5.76303 11.835 3.09143C11.5534 2.80986 11.0983 2.80986 10.8168 3.09143L1.65121 12.257C1.36965 12.5385 1.36965 12.9936 1.65121 13.2752C3.0547 14.6794 4.8989 15.3808 6.7431 15.3808C8.16387 15.3808 9.58249 14.9595 10.8016 14.1264V18.7228H0.720109C0.322609 18.7228 0 19.0454 0 19.4429V65.5299C0 65.9274 0.322609 66.25 0.720109 66.25H27.3641C27.7616 66.25 28.0842 65.9274 28.0842 65.5299V50.4076H35.2853V64.8098H30.2446C29.8471 64.8098 29.5245 65.1324 29.5245 65.5299C29.5245 65.9274 29.8471 66.25 30.2446 66.25H64.0897C65.2807 66.25 66.25 65.2807 66.25 64.0897V49.6875C66.25 48.4964 65.2807 47.5272 64.0897 47.5272ZM3.21024 12.7344L11.2942 4.65046C13.0498 6.90872 12.8907 10.1831 10.8168 12.257C8.74356 14.3309 5.46779 14.4893 3.21024 12.7344ZM39.0184 64.8098H36.7255V49.6875C36.7255 49.29 36.4029 48.9674 36.0054 48.9674H27.3641C26.9666 48.9674 26.644 49.29 26.644 49.6875V64.8098H23.7636V1.44022H54.0082V42.4864H50.4076C48.4223 42.4864 46.8071 44.1016 46.8071 46.087V47.5272H41.0462C39.8551 47.5272 38.8859 48.4964 38.8859 49.6875V64.0897C38.8859 64.3432 38.9377 64.5837 39.0184 64.8098ZM41.0462 64.8098C40.6494 64.8098 40.3261 64.4865 40.3261 64.0897V62.0021C41.7346 62.2894 42.8465 63.4012 43.1338 64.8098H41.0462ZM64.8098 64.0897C64.8098 64.4865 64.4865 64.8098 64.0897 64.8098H62.0021C62.2894 63.4012 63.4012 62.2894 64.8098 62.0021V64.0897ZM64.8098 60.5467C62.607 60.8643 60.8636 62.607 60.5467 64.8098H44.5891C44.2716 62.607 42.5289 60.8636 40.3261 60.5467V56.8886H43.9266V57.6087C43.9266 58.0062 44.2492 58.3288 44.6467 58.3288H45.3668V59.769C45.3668 60.1665 45.6895 60.4891 46.087 60.4891C46.4845 60.4891 46.8071 60.1665 46.8071 59.769V58.3288H47.5272C47.9247 58.3288 48.2473 58.0062 48.2473 57.6087V56.8886H56.8886V57.6087C56.8886 58.0062 57.2112 58.3288 57.6087 58.3288H58.3288V59.769C58.3288 60.1665 58.6514 60.4891 59.0489 60.4891C59.4464 60.4891 59.769 60.1665 59.769 59.769V58.3288H60.4891C60.8866 58.3288 61.2092 58.0062 61.2092 57.6087V56.8886H64.8098V60.5467ZM45.3668 56.8886V54.7283H46.8071V56.8886H45.3668ZM58.3288 56.8886V54.7283H59.769V56.8886H58.3288ZM64.8098 55.4484H61.2092V54.0082C61.2092 53.6107 60.8866 53.288 60.4891 53.288H57.6087C57.2112 53.288 56.8886 53.6107 56.8886 54.0082V55.4484H48.2473V54.0082C48.2473 53.6107 47.9247 53.288 47.5272 53.288H44.6467C44.2492 53.288 43.9266 53.6107 43.9266 54.0082V55.4484H40.3261V49.6875C40.3261 49.2907 40.6494 48.9674 41.0462 48.9674H64.0897C64.4865 48.9674 64.8098 49.2907 64.8098 49.6875V55.4484Z" fill="#2D73C3" stroke="#2D73C3" stroke-width="4" mask="url(#path-37-inside-19)"/>
<path d="M28.5247 46.807C28.5247 46.6524 28.65 46.5271 28.8046 46.5271C28.9592 46.5271 29.0845 46.6524 29.0845 46.807C29.0845 46.9616 28.9592 47.0869 28.8046 47.0869C28.65 47.0869 28.5247 46.9616 28.5247 46.807Z" fill="#2D73C3" stroke="#2D73C3" stroke-width="2"/>
<path d="M31.4048 46.807C31.4048 46.6524 31.5301 46.5271 31.6847 46.5271C31.8393 46.5271 31.9646 46.6524 31.9646 46.807C31.9646 46.9616 31.8393 47.0869 31.6847 47.0869C31.5301 47.0869 31.4048 46.9616 31.4048 46.807Z" fill="#2D73C3" stroke="#2D73C3" stroke-width="2"/>
<path d="M34.2854 46.807C34.2854 46.6524 34.4107 46.5271 34.5653 46.5271C34.7199 46.5271 34.8452 46.6524 34.8452 46.807C34.8452 46.9616 34.7199 47.0869 34.5653 47.0869C34.4107 47.0869 34.2854 46.9616 34.2854 46.807Z" fill="#2D73C3" stroke="#2D73C3" stroke-width="2"/>
</svg>
