<svg width="67" height="67" viewBox="0 0 67 67" fill="none" xmlns="http://www.w3.org/2000/svg">
<path d="M16.537 26.5584H40.7912V49.7102H42.9961V25.456C42.9961 25.1636 42.88 24.8832 42.6732 24.6764C42.4664 24.4697 42.186 24.3535 41.8936 24.3535H15.4345C15.1421 24.3535 14.8617 24.4697 14.6549 24.6764C14.4482 24.8832 14.332 25.1636 14.332 25.456V44.1979H16.537V26.5584Z" fill="#2D73C3"/>
<path d="M36.3815 38.6859H34.1766V35.3785C34.1766 35.0861 34.0604 34.8057 33.8537 34.599C33.6469 34.3922 33.3665 34.2761 33.0741 34.2761H29.7667V30.9687C29.7667 30.6763 29.6506 30.3959 29.4438 30.1891C29.2371 29.9824 28.9567 29.8662 28.6643 29.8662H24.2544C23.962 29.8662 23.6816 29.9824 23.4749 30.1891C23.2681 30.3959 23.152 30.6763 23.152 30.9687V38.6859H20.947V40.8909H36.3815V38.6859ZM31.9717 36.481V38.6859H29.7667V36.481H31.9717ZM25.3569 32.0711H27.5618V38.6859H25.3569V32.0711Z" fill="#2D73C3"/>
<path d="M47.1321 50.9334C46.6429 50.7261 46.1168 50.6197 45.5855 50.6206C45.0541 50.6215 44.5284 50.7297 44.0399 50.9386L36.9123 53.965C36.9676 53.4278 36.9095 52.8849 36.7417 52.3714C36.574 51.858 36.3005 51.3855 35.9387 50.9844C35.5769 50.5834 35.135 50.2627 34.6416 50.0431C34.1481 49.8235 33.614 49.7099 33.0739 49.7097H24.5221C23.6572 49.7086 22.8043 49.5072 22.0303 49.1214C18.4522 47.3377 14.5097 46.407 10.5117 46.4023H7.71725C7.71725 46.1099 7.6011 45.8295 7.39435 45.6227C7.18759 45.416 6.90718 45.2998 6.61479 45.2998H0V47.5047H5.51232V60.7343H0V62.9392H6.61479C6.90718 62.9392 7.18759 62.8231 7.39435 62.6163C7.6011 62.4096 7.71725 62.1292 7.71725 61.8368V61.4165L15.9482 64.8341C20.4353 66.666 25.4515 66.7215 29.9779 64.9891L47.0085 58.4952C47.5078 58.3055 47.9642 58.018 48.3509 57.6495C48.7375 57.281 49.0467 56.839 49.2602 56.3494C49.4812 55.8528 49.6008 55.3171 49.6119 54.7737C49.623 54.2303 49.5254 53.6901 49.3249 53.1849C49.1298 52.6814 48.835 52.2224 48.4582 51.8355C48.0814 51.4486 47.6304 51.1418 47.1321 50.9334ZM47.2431 55.459C47.1467 55.6815 47.0068 55.8824 46.8317 56.0501C46.6566 56.2178 46.4497 56.3488 46.2233 56.4355L29.1923 62.9294C25.19 64.4618 20.7546 64.4138 16.7864 62.7951L7.71725 59.0288V48.6072H10.5117C14.1674 48.6115 17.7724 49.4625 21.0441 51.0935C22.1245 51.632 23.3149 51.9131 24.5221 51.9146H33.0739C33.5062 51.9152 33.9211 52.0851 34.2296 52.388C34.538 52.6908 34.7156 53.1025 34.7241 53.5347C34.7326 53.9669 34.5715 54.3853 34.2752 54.7001C33.9789 55.0149 33.571 55.201 33.1391 55.2187C33.0947 55.2199 33.0505 55.222 33.006 55.222H19.8444V57.4269H33.006C33.0287 57.4269 33.0512 57.4254 33.0739 57.4253V57.4269C33.1508 57.4269 33.227 57.424 33.3028 57.4196C34.1226 57.3854 34.9295 57.2033 35.6846 56.8822L44.9008 52.9684C45.1184 52.8754 45.3526 52.8272 45.5892 52.8269C45.8259 52.8265 46.0602 52.8739 46.2781 52.9663C46.5045 53.0616 46.7093 53.2016 46.8803 53.3779C47.0513 53.5542 47.1849 53.7633 47.2731 53.9925C47.366 54.2266 47.4112 54.4769 47.4061 54.7288C47.4009 54.9806 47.3455 55.2289 47.2431 55.459Z" fill="#2D73C3"/>
<path d="M64.7099 25.0119L57.3283 13.017V9.28664L60.4152 5.17072C60.5583 4.97989 60.6357 4.74778 60.6357 4.50924C60.6357 3.74061 60.4392 2.98475 60.0649 2.31341C59.6906 1.64208 59.1509 1.07756 58.4971 0.673469C57.8432 0.269376 57.0969 0.0391188 56.3291 0.0045607C55.5612 -0.0299974 54.7973 0.132291 54.1098 0.476016L50.7135 2.17422L47.3173 0.476016C46.6298 0.132291 45.8658 -0.0299974 45.098 0.0045607C44.3301 0.0391188 43.5838 0.269376 42.93 0.673469C42.2762 1.07756 41.7365 1.64208 41.3622 2.31341C40.9879 2.98475 40.7914 3.74061 40.7913 4.50924C40.7913 4.74778 40.8687 4.97989 41.0118 5.17072L44.0987 9.28664V13.017L38.75 21.7088L40.6278 22.8642L45.8172 14.4314H55.6098L62.8321 26.1674C63.5305 27.3024 63.9134 28.6031 63.9414 29.9354C63.9695 31.2677 63.6415 32.5834 62.9915 33.7467C62.3414 34.91 61.3928 35.8788 60.2434 36.5532C59.094 37.2276 57.7856 37.5831 56.453 37.5832H45.2012V39.7881H56.453C58.1779 39.7881 59.8715 39.3279 61.3592 38.455C62.847 37.5821 64.0749 36.3281 64.9163 34.8223C65.7577 33.3166 66.1822 31.6136 66.1459 29.8891C66.1096 28.1646 65.6139 26.4809 64.7099 25.0119ZM44.0892 2.5492C44.4228 2.34139 44.8043 2.22294 45.197 2.20528C45.5896 2.18761 45.9802 2.27131 46.3311 2.44832L50.2205 4.39293C50.3735 4.46949 50.5424 4.50934 50.7135 4.50934C50.8847 4.50934 51.0535 4.46949 51.2066 4.39293L55.0958 2.44819C55.4217 2.28534 55.7816 2.20205 56.1458 2.20514C56.5101 2.20824 56.8685 2.29764 57.1916 2.46602C57.5147 2.63439 57.7932 2.87693 58.0044 3.17377C58.2156 3.4706 58.3535 3.81327 58.4067 4.17368L55.6746 7.81664H45.7524L43.0203 4.17368C43.0681 3.84098 43.1887 3.52292 43.3735 3.24212C43.5583 2.96133 43.8026 2.72469 44.0892 2.54906V2.5492ZM55.1234 12.2265H46.3037V10.0216H55.1234V12.2265Z" fill="#2D73C3"/>
<path d="M47.4058 28.7631V28.9239C47.4066 29.5937 47.6208 30.2458 48.0173 30.7857C48.4138 31.3256 48.9719 31.7251 49.6107 31.9265V33.1729H51.8156V31.9265C52.414 31.7388 52.9426 31.3766 53.3337 30.8863C53.7248 30.3961 53.9605 29.8002 54.0105 29.1751C54.0606 28.55 53.9227 27.9242 53.6146 27.378C53.3064 26.8318 52.8422 26.3901 52.2813 26.1096L50.1315 25.0347C49.9417 24.9398 49.7896 24.7837 49.6996 24.5916C49.6097 24.3995 49.5873 24.1826 49.636 23.9762C49.6847 23.7697 49.8017 23.5858 49.968 23.4541C50.1343 23.3224 50.3402 23.2508 50.5523 23.2508H50.874C51.1236 23.251 51.363 23.3503 51.5395 23.5268C51.7161 23.7034 51.8154 23.9427 51.8156 24.1924V24.3532H54.0205V24.1924C54.0197 23.5226 53.8055 22.8705 53.409 22.3306C53.0126 21.7907 52.4545 21.3912 51.8156 21.1898V19.9434H49.6107V21.1898C49.0123 21.3775 48.4837 21.7397 48.0926 22.23C47.7015 22.7202 47.4658 23.3161 47.4158 23.9412C47.3658 24.5663 47.5036 25.1921 47.8118 25.7383C48.1199 26.2845 48.5841 26.7262 49.145 27.0067L51.2948 28.0816C51.4846 28.1765 51.6367 28.3326 51.7267 28.5247C51.8166 28.7168 51.839 28.9337 51.7903 29.1401C51.7416 29.3466 51.6246 29.5305 51.4583 29.6622C51.292 29.7939 51.0861 29.8655 50.874 29.8655H50.5523C50.3027 29.8653 50.0633 29.766 49.8868 29.5895C49.7102 29.4129 49.6109 29.1736 49.6107 28.9239V28.7631H47.4058Z" fill="#2D73C3"/>
<path d="M58.431 25.4561H56.2261V27.661H58.431V25.4561Z" fill="#2D73C3"/>
<path d="M22.0494 44.1982H19.8445V46.4032H22.0494V44.1982Z" fill="#2D73C3"/>
<path d="M37.484 44.1982H24.2544V46.4032H37.484V44.1982Z" fill="#2D73C3"/>
<path d="M35.6987 6.26424L34.346 10.3224L36.4379 11.0194L38.5297 4.74408C38.5755 4.60672 38.5937 4.46169 38.5835 4.31728C38.5732 4.17286 38.5346 4.03188 38.4698 3.90239C38.405 3.7729 38.3154 3.65743 38.206 3.56258C38.0966 3.46774 37.9696 3.39536 37.8323 3.3496L31.5569 1.25781L30.8599 3.34974L34.2787 4.48927C28.8022 7.0746 24.5446 11.6869 22.4048 17.3524L24.4703 18.1241C25.4609 15.5009 26.964 13.1012 28.8918 11.065C30.8196 9.02876 33.1336 7.39678 35.6987 6.26424Z" fill="#2D73C3"/>
<path d="M23.8117 20.2198L21.6765 19.6699C21.4801 20.4334 21.3229 21.2064 21.2056 21.9859L23.386 22.3136C23.4922 21.6089 23.6343 20.91 23.8117 20.2198Z" fill="#2D73C3"/>
<path d="M44.9817 45.9838L45.4205 48.1446C49.3867 47.3353 53.0711 45.4991 56.1054 42.8197L54.6463 41.166C51.9019 43.5901 48.5693 45.2513 44.9817 45.9838Z" fill="#2D73C3"/>
</svg>
