<svg width="66" height="66" viewBox="0 0 66 66" fill="none" xmlns="http://www.w3.org/2000/svg">
<path d="M29.442 37.6194C29.442 38.2216 29.9302 38.7098 30.5324 38.7098C31.1347 38.7098 31.6229 38.2216 31.6229 37.6194C31.6229 34.0122 28.2861 31.0309 23.9898 30.5925V29.441C23.9898 28.8388 23.5016 28.3506 22.8993 28.3506C22.2971 28.3506 21.8089 28.8388 21.8089 29.441V30.5925C17.5125 31.0287 14.1758 34.0122 14.1758 37.6194C14.1758 41.2265 17.5125 44.2078 21.8089 44.6462V54.4471C18.7197 54.0567 16.3567 52.0405 16.3567 49.6142C16.3567 49.012 15.8685 48.5238 15.2662 48.5238C14.664 48.5238 14.1758 49.012 14.1758 49.6142C14.1758 53.2214 17.5125 56.2027 21.8089 56.641V57.7925C21.8089 58.3948 22.2971 58.883 22.8993 58.883C23.5016 58.883 23.9898 58.3948 23.9898 57.7925V56.641C28.2861 56.2049 31.6229 53.2214 31.6229 49.6142C31.6229 46.007 28.2861 43.0258 23.9898 42.5874V32.7865C27.079 33.1769 29.442 35.1931 29.442 37.6194ZM16.3567 37.6194C16.3567 35.1931 18.7197 33.1769 21.8089 32.7865V42.4522C18.7197 42.0618 16.3567 40.0456 16.3567 37.6194ZM29.442 49.6142C29.442 52.0405 27.079 54.0567 23.9898 54.4471V44.7814C27.079 45.1718 29.442 47.188 29.442 49.6142Z" fill="#2D73C3"/>
<path d="M3.92567 32.9004C3.37944 32.6469 2.73113 32.8842 2.47757 33.4304C0.836361 36.9625 -0.00937602 40.8119 7.84015e-05 44.7066C7.84015e-05 58.4539 7.70406 65.4251 22.8994 65.4251C25.9698 65.4733 29.0333 65.1203 32.0122 64.375C32.5943 64.2202 32.9407 63.6229 32.7859 63.0408C32.6311 62.4587 32.0338 62.1124 31.4517 62.2671C28.6546 62.9579 25.7803 63.2863 22.8994 63.2442C8.95807 63.2442 2.18096 57.1802 2.18096 44.7066C2.16135 41.1275 2.93873 37.5888 4.45672 34.3474C4.70935 33.8012 4.47167 33.1536 3.92567 32.9004Z" fill="#2D73C3"/>
<path d="M62.1556 27.2598H38.1659C36.3592 27.2598 34.8945 28.7244 34.8945 30.5311V62.1539C34.8945 63.9606 36.3592 65.4253 38.1659 65.4253H62.1556C63.9623 65.4253 65.4269 63.9606 65.4269 62.1539V30.5311C65.4269 28.7244 63.9623 27.2598 62.1556 27.2598ZM63.246 62.1539C63.246 62.7562 62.7578 63.2444 62.1556 63.2444H38.1659C37.5636 63.2444 37.0754 62.7562 37.0754 62.1539V30.5311C37.0754 29.9289 37.5636 29.4407 38.1659 29.4407H62.1556C62.7578 29.4407 63.246 29.9289 63.246 30.5311V62.1539Z" fill="#2D73C3"/>
<path d="M42.5271 41.4355H57.7933C58.9977 41.4355 59.9742 40.459 59.9742 39.2546V34.8928C59.9742 33.6883 58.9977 32.7119 57.7933 32.7119H42.5271C41.3226 32.7119 40.3462 33.6883 40.3462 34.8928V39.2546C40.3462 40.459 41.3226 41.4355 42.5271 41.4355ZM42.5271 34.8928H57.7933V39.2546H42.5271V34.8928Z" fill="#2D73C3"/>
<path d="M44.708 44.707H41.4366C40.8344 44.707 40.3462 45.1952 40.3462 45.7975C40.3462 46.3997 40.8344 46.8879 41.4366 46.8879H44.708C45.3102 46.8879 45.7984 46.3997 45.7984 45.7975C45.7984 45.1952 45.3102 44.707 44.708 44.707Z" fill="#2D73C3"/>
<path d="M44.708 49.0684H41.4366C40.8344 49.0684 40.3462 49.5566 40.3462 50.1588C40.3462 50.761 40.8344 51.2492 41.4366 51.2492H44.708C45.3102 51.2492 45.7984 50.761 45.7984 50.1588C45.7984 49.5566 45.3102 49.0684 44.708 49.0684Z" fill="#2D73C3"/>
<path d="M44.708 53.4307H41.4366C40.8344 53.4307 40.3462 53.9189 40.3462 54.5211C40.3462 55.1233 40.8344 55.6115 41.4366 55.6115H44.708C45.3102 55.6115 45.7984 55.1233 45.7984 54.5211C45.7984 53.9189 45.3102 53.4307 44.708 53.4307Z" fill="#2D73C3"/>
<path d="M44.708 57.792H41.4366C40.8344 57.792 40.3462 58.2802 40.3462 58.8824C40.3462 59.4847 40.8344 59.9729 41.4366 59.9729H44.708C45.3102 59.9729 45.7984 59.4847 45.7984 58.8824C45.7984 58.2802 45.3102 57.792 44.708 57.792Z" fill="#2D73C3"/>
<path d="M52.3413 44.707H49.0699C48.4677 44.707 47.9795 45.1952 47.9795 45.7975C47.9795 46.3997 48.4677 46.8879 49.0699 46.8879H52.3413C52.9435 46.8879 53.4317 46.3997 53.4317 45.7975C53.4317 45.1952 52.9435 44.707 52.3413 44.707Z" fill="#2D73C3"/>
<path d="M52.3413 49.0684H49.0699C48.4677 49.0684 47.9795 49.5566 47.9795 50.1588C47.9795 50.761 48.4677 51.2492 49.0699 51.2492H52.3413C52.9435 51.2492 53.4317 50.761 53.4317 50.1588C53.4317 49.5566 52.9435 49.0684 52.3413 49.0684Z" fill="#2D73C3"/>
<path d="M52.3413 53.4307H49.0699C48.4677 53.4307 47.9795 53.9189 47.9795 54.5211C47.9795 55.1233 48.4677 55.6115 49.0699 55.6115H52.3413C52.9435 55.6115 53.4317 55.1233 53.4317 54.5211C53.4317 53.9189 52.9435 53.4307 52.3413 53.4307Z" fill="#2D73C3"/>
<path d="M52.3413 57.792H49.0699C48.4677 57.792 47.9795 58.2802 47.9795 58.8824C47.9795 59.4847 48.4677 59.9729 49.0699 59.9729H52.3413C52.9435 59.9729 53.4317 59.4847 53.4317 58.8824C53.4317 58.2802 52.9435 57.792 52.3413 57.792Z" fill="#2D73C3"/>
<path d="M59.9746 44.707H56.7032C56.101 44.707 55.6128 45.1952 55.6128 45.7975C55.6128 46.3997 56.101 46.8879 56.7032 46.8879H59.9746C60.5768 46.8879 61.065 46.3997 61.065 45.7975C61.065 45.1952 60.5768 44.707 59.9746 44.707Z" fill="#2D73C3"/>
<path d="M59.9746 49.0684H56.7032C56.101 49.0684 55.6128 49.5566 55.6128 50.1588C55.6128 50.761 56.101 51.2492 56.7032 51.2492H59.9746C60.5768 51.2492 61.065 50.761 61.065 50.1588C61.065 49.5566 60.5768 49.0684 59.9746 49.0684Z" fill="#2D73C3"/>
<path d="M59.9746 53.4307H56.7032C56.101 53.4307 55.6128 53.9189 55.6128 54.5211C55.6128 55.1233 56.101 55.6115 56.7032 55.6115H59.9746C60.5768 55.6115 61.065 55.1233 61.065 54.5211C61.065 53.9189 60.5768 53.4307 59.9746 53.4307Z" fill="#2D73C3"/>
<path d="M59.9746 57.792H56.7032C56.101 57.792 55.6128 58.2802 55.6128 58.8824C55.6128 59.4847 56.101 59.9729 56.7032 59.9729H59.9746C60.5768 59.9729 61.065 59.4847 61.065 58.8824C61.065 58.2802 60.5768 57.792 59.9746 57.792Z" fill="#2D73C3"/>
<path d="M6.89723 1.3763C4.02609 4.00644 9.07048 12.1193 12.043 16.3557H11.4498C10.4369 16.352 9.46444 16.7532 8.7488 17.4701C8.0356 18.1888 7.63473 19.1598 7.63327 20.1723C7.63796 21.5311 8.367 22.7842 9.54591 23.4599C8.27307 24.8062 7.07401 26.2204 5.95399 27.6963C5.59265 28.1781 5.69029 28.8616 6.17208 29.2229C6.65387 29.5843 7.33736 29.4866 7.6987 29.0049C9.04561 27.2427 10.5024 25.5674 12.0605 23.9888H34.3491C35.7127 23.9888 36.9726 23.2614 37.6544 22.0805C38.3361 20.8997 38.3361 19.4448 37.6544 18.264C36.9726 17.0831 35.7127 16.3557 34.3491 16.3557H33.7559C36.7274 12.1193 41.7718 4.00754 38.9028 1.3763C37.5834 0.168086 36.0459 1.04916 34.6904 1.82011C33.4579 2.66422 32.0227 3.16481 30.5326 3.2704C29.3496 3.2679 28.2219 2.76951 27.4237 1.89644C26.2305 0.683258 24.6001 0 22.8984 0C21.1967 0 19.5663 0.683258 18.373 1.89644C17.5736 2.77091 16.4436 3.26942 15.2587 3.2704C13.7694 3.1659 12.335 2.66519 11.1042 1.82011C9.74982 1.04698 8.21339 0.169177 6.89723 1.3763ZM35.5083 19.0142C35.9774 19.4822 36.1179 20.187 35.8639 20.7991C35.61 21.4112 35.0118 21.8096 34.3491 21.8079H11.4498C10.5465 21.8079 9.81416 21.0756 9.81416 20.1723C9.81416 19.2689 10.5465 18.5366 11.4498 18.5366H34.3491C34.7834 18.5367 35.2 18.7084 35.5083 19.0142ZM15.2587 5.45128C16.9611 5.45104 18.592 4.76701 19.7852 3.55282C20.5816 2.67795 21.7099 2.17928 22.8929 2.17928C24.076 2.17928 25.2043 2.67795 26.0007 3.55282C27.1955 4.76795 28.8284 5.45201 30.5326 5.45128C32.4049 5.35291 34.2162 4.75253 35.7765 3.71312C36.2744 3.36172 36.8376 3.11367 37.4329 2.98361C38.5517 4.00863 35.5944 10.1903 31.0734 16.3557H28.3517V10.9035C28.3517 10.3013 27.8635 9.81305 27.2612 9.81305C26.659 9.81305 26.1708 10.3013 26.1708 10.9035V16.3557H19.6281V10.9035C19.6281 10.3013 19.1399 9.81305 18.5377 9.81305C17.9355 9.81305 17.4473 10.3013 17.4473 10.9035V16.3557H14.7299C10.2089 10.1903 7.25162 4.00863 8.38568 2.96725C8.96866 3.12297 9.52151 3.37506 10.0213 3.71312C11.5793 4.7524 13.3885 5.35282 15.2587 5.45128Z" fill="#2D73C3"/>
</svg>
