<svg width="94" height="94" viewBox="0 0 94 94" fill="none" xmlns="http://www.w3.org/2000/svg">
<circle cx="47" cy="46" r="41" fill="#009944"/>
<circle cx="47" cy="47" r="46.5" stroke="#009944" stroke-dasharray="3 3"/>
<path d="M49.378 37.8452V29.5199C51.3258 29.0194 52.7696 27.2485 52.7696 25.1465C52.7696 22.6571 50.7443 20.6318 48.2548 20.6318C45.7655 20.6318 43.7403 22.6571 43.7403 25.1465C43.7403 27.2485 45.184 29.0193 47.1317 29.5197V37.845C44.7694 38.2005 42.7636 39.6593 41.6574 41.6782L36.7171 37.8377C36.838 37.4976 36.9043 37.1318 36.9043 36.7508C36.9043 34.9553 35.4435 33.4944 33.6479 33.4944C31.8524 33.4944 30.3916 34.9553 30.3916 36.7508C30.3916 38.5463 31.8524 40.0071 33.6479 40.0071C34.2428 40.0071 34.8003 39.846 35.2807 39.5664L40.8649 43.9076C40.7826 44.3525 40.7373 44.8101 40.7373 45.2785C40.7373 46.9468 41.2842 48.4892 42.2071 49.7377L35.8932 56.0517C35.4545 56.4903 35.4545 57.2015 35.8932 57.6399C36.1126 57.8592 36.4001 57.9689 36.6875 57.9689C36.9748 57.9689 37.2623 57.8593 37.4817 57.6399L43.7957 51.326C44.7585 52.0377 45.8961 52.5258 47.1317 52.7118V61.0556C45.8879 61.5142 44.9985 62.7113 44.9985 64.1122C44.9985 65.9077 46.4593 67.3685 48.2548 67.3685C50.0504 67.3685 51.5112 65.9077 51.5112 64.1122C51.5112 62.7111 50.6218 61.514 49.378 61.0556V52.7119C52.9924 52.1682 55.7724 49.0421 55.7724 45.2787C55.7724 41.515 52.9922 38.3889 49.378 37.8452ZM33.6479 37.761C33.0909 37.761 32.6379 37.3079 32.6379 36.7509C32.6379 36.194 33.0909 35.7409 33.6479 35.7409C34.205 35.7409 34.658 36.194 34.658 36.7509C34.658 37.3079 34.2049 37.761 33.6479 37.761ZM45.9864 25.1465C45.9864 23.8957 47.004 22.8781 48.2547 22.8781C49.5054 22.8781 50.5231 23.8957 50.5231 25.1465C50.5231 26.3974 49.5054 27.415 48.2547 27.415C47.004 27.415 45.9864 26.3974 45.9864 25.1465ZM48.2548 65.1223C47.6978 65.1223 47.2448 64.6691 47.2448 64.1122C47.2448 63.6247 47.5917 63.2168 48.0518 63.1226C48.1177 63.1348 48.1854 63.1419 48.2548 63.1419C48.3243 63.1419 48.392 63.1348 48.4579 63.1226C48.9179 63.2168 49.2649 63.6247 49.2649 64.1122C49.2649 64.6691 48.8118 65.1223 48.2548 65.1223ZM48.2548 50.5496C45.3483 50.5496 42.9837 48.1849 42.9837 45.2784C42.9837 44.7655 43.0588 44.27 43.1959 43.8008C43.2033 43.7776 43.2102 43.7545 43.2159 43.731C43.8785 41.5773 45.8865 40.0071 48.2548 40.0071C51.1614 40.0071 53.5261 42.3719 53.5261 45.2784C53.5261 48.1851 51.1614 50.5496 48.2548 50.5496Z" fill="white"/>
<path d="M70.4855 34.3689C67.9961 34.3689 65.9708 36.3941 65.9708 38.8836C65.9708 38.9997 65.9767 39.1142 65.9854 39.228L57.8631 41.9974C57.276 42.1975 56.9622 42.8359 57.1625 43.4229C57.3216 43.89 57.758 44.1839 58.2254 44.1839C58.3456 44.1839 58.4678 44.1645 58.5879 44.1236L66.7099 41.3544C67.5173 42.5841 68.9078 43.3985 70.4857 43.3985C72.975 43.3985 75.0002 41.3732 75.0002 38.8838C75.0001 36.3943 72.9749 34.3689 70.4855 34.3689ZM70.4855 41.1522C69.2347 41.1522 68.2171 40.1346 68.2171 38.8838C68.2171 37.6329 69.2348 36.6153 70.4855 36.6153C71.7363 36.6153 72.7538 37.6329 72.7538 38.8838C72.7538 40.1345 71.7363 41.1522 70.4855 41.1522Z" fill="white"/>
<path d="M31.5147 57.5042C29.0252 57.5042 27 59.5295 27 62.0189C27 64.5083 29.0252 66.5336 31.5147 66.5336C34.004 66.5336 36.0293 64.5083 36.0293 62.0189C36.0294 59.5295 34.004 57.5042 31.5147 57.5042ZM31.5147 64.2874C30.2638 64.2874 29.2463 63.2699 29.2463 62.019C29.2463 60.7681 30.264 59.7506 31.5147 59.7506C32.7654 59.7506 33.783 60.7681 33.783 62.019C33.7831 63.2697 32.7656 64.2874 31.5147 64.2874Z" fill="white"/>
</svg>
