<svg width="81" height="67" viewBox="0 0 81 67" fill="none" xmlns="http://www.w3.org/2000/svg">
<path d="M76.3722 58.2343H73.5985V33.5101C73.5985 31.0988 71.6373 29.1371 69.2267 29.1371H56.5055L56.5092 20.1187C56.5098 19.4625 55.9788 18.9309 55.3232 18.9302C54.6683 18.9302 54.1366 19.4619 54.1366 20.1175L54.1329 29.1371H43.4441C42.1887 29.1371 41.0567 29.6694 40.2583 30.5199C39.4604 29.6694 38.3278 29.1371 37.0731 29.1371H24.3513V4.37304C24.3513 3.27166 25.2479 2.37571 26.3505 2.37571H31.7268V6.72545C31.7268 8.21563 32.9373 9.42802 34.4257 9.42802H43.6661C45.1519 9.42802 46.3613 8.21563 46.3613 6.72545V2.37571H52.1331C53.2351 2.37571 54.1323 3.27166 54.1323 4.37366V14.54C54.1323 15.1962 54.6634 15.7279 55.3189 15.7279C55.9739 15.7279 56.5049 15.1962 56.5049 14.54V4.37304C56.5049 1.96177 54.5438 0 52.1331 0H26.3505C23.9398 0 21.9787 1.96177 21.9787 4.37304V29.1371H11.2898C8.87978 29.1371 6.91801 31.0988 6.91801 33.5101V58.2343H4.00265C1.79558 58.2343 0 60.0323 0 62.2425C0 64.452 1.79558 66.25 4.00265 66.25H76.3722C78.5817 66.25 80.3791 64.452 80.3791 62.2425C80.3791 60.0323 78.5817 58.2343 76.3722 58.2343ZM43.988 6.72545C43.988 6.90268 43.8408 7.05292 43.6661 7.05292H34.4257C34.2485 7.05292 34.0994 6.90268 34.0994 6.72545V2.37571H43.988V6.72545ZM51.193 31.5128H61.0816V35.8625C61.0816 36.0373 60.9326 36.1851 60.7559 36.1851H51.5193C51.342 36.1851 51.193 36.0373 51.193 35.8625V31.5128ZM43.4441 31.5128H48.8198V35.8625C48.8198 37.3503 50.0309 38.5608 51.5193 38.5608H60.7553C62.2437 38.5608 63.4542 37.3503 63.4542 35.8625V31.5128H69.2267C70.3287 31.5128 71.2259 32.4087 71.2259 33.5101V58.2343H41.4449V33.5101C41.4449 32.4087 42.3421 31.5128 43.4441 31.5128ZM19.0437 31.5128H28.928V35.8625C28.928 36.0373 28.7808 36.1851 28.606 36.1851H19.3656C19.1878 36.1851 19.0437 36.0404 19.0437 35.8625V31.5128ZM76.3722 63.8743H4.00265C3.10363 63.8743 2.37264 63.1421 2.37264 62.2425C2.37264 61.3422 3.10363 60.61 4.00265 60.61H20.7086C21.3642 60.61 21.8953 60.0783 21.8953 59.4221C21.8953 58.766 21.3642 58.2343 20.7086 58.2343H9.29126V33.5101C9.29126 32.4087 10.1878 31.5128 11.2898 31.5128H16.6704V35.8625C16.6704 37.3503 17.8791 38.5608 19.365 38.5608H28.606C30.0919 38.5608 31.3006 37.3503 31.3006 35.8625V31.5128H37.0731C38.1751 31.5128 39.0722 32.4087 39.0722 33.5101V58.2343H26.1457C25.4907 58.2343 24.9597 58.766 24.9597 59.4221C24.9597 60.0783 25.4907 60.61 26.1457 60.61H76.3716C77.2731 60.61 78.0065 61.3422 78.0065 62.2418C78.0065 63.1421 77.2731 63.8743 76.3722 63.8743Z" fill="#D14F16"/>
</svg>
