<svg width="94" height="94" viewBox="0 0 94 94" fill="none" xmlns="http://www.w3.org/2000/svg">
<circle cx="47" cy="47" r="41" fill="#009944"/>
<circle cx="47" cy="47" r="46.5" stroke="#009944" stroke-dasharray="3 3"/>
<path d="M62.25 38.311L68.0302 32.5307L66.9697 31.4702L62.25 36.19L60.5302 34.4702L59.4697 35.5307L62.25 38.311Z" fill="white"/>
<path d="M39.75 35.75H41.25V37.25H39.75V35.75Z" fill="white"/>
<path d="M36.75 35.75H38.25V37.25H36.75V35.75Z" fill="white"/>
<path d="M33.75 35.75H35.25V37.25H33.75V35.75Z" fill="white"/>
<path d="M45.75 35.75H47.25V37.25H45.75V35.75Z" fill="white"/>
<path d="M51.75 35.75H53.25V37.25H51.75V35.75Z" fill="white"/>
<path d="M30.75 35.75H32.25V37.25H30.75V35.75Z" fill="white"/>
<path d="M42.75 35.75H44.25V37.25H42.75V35.75Z" fill="white"/>
<path d="M48.75 35.75H50.25V37.25H48.75V35.75Z" fill="white"/>
<path d="M71.25 34.25C71.25 30.1145 67.8855 26.75 63.75 26.75C61.3035 26.75 59.1345 27.9327 57.7643 29.75H27C25.7595 29.75 24.75 30.7595 24.75 32V57.5C24.75 58.7405 25.7595 59.75 27 59.75H40.8015L40.8307 59.8085C41.1052 60.3567 41.25 60.9695 41.25 61.5815V64.6625C41.25 65.468 41.439 66.2757 41.7975 66.9972L43.5 70.4255V73.2163L57 73.2515V70.4998L58.2 68.9C58.8772 67.997 59.25 66.878 59.25 65.75V59.75H66C67.2405 59.75 68.25 58.7405 68.25 57.5V40.2358C70.0673 38.8655 71.25 36.6965 71.25 34.25V34.25ZM63.75 28.25C67.0582 28.25 69.75 30.9418 69.75 34.25C69.75 37.5582 67.0582 40.25 63.75 40.25C60.4418 40.25 57.75 37.5582 57.75 34.25C57.75 30.9418 60.4418 28.25 63.75 28.25ZM57.7643 38.75H29.25V34.25H56.25C56.25 35.9398 56.8185 37.4945 57.7643 38.75ZM57.75 65.75C57.75 66.5563 57.4837 67.355 57 68L55.5 70.0002V71.7485L45 71.72V70.0737L43.1407 66.3297C42.885 65.8145 42.75 65.2385 42.75 64.6625V61.5815C42.75 60.7378 42.5505 59.8925 42.1725 59.1372L41.2988 57.3898C41.2673 57.326 41.25 57.2533 41.25 57.182C41.25 56.9263 41.4585 56.7185 41.7855 56.7185C43.9718 56.7185 45.75 58.4975 45.75 60.6837V61.9685V63.4685H47.25V61.9685V60.6837V49.25C47.25 48.8368 47.5868 48.5 48 48.5C48.4132 48.5 48.75 48.8368 48.75 49.25V56V59H50.25V56C50.25 55.5868 50.5868 55.25 51 55.25C51.4132 55.25 51.75 55.5868 51.75 56V59H53.25V56C53.25 55.5868 53.5868 55.25 54 55.25C54.4132 55.25 54.75 55.5868 54.75 56V57.5V59H56.25V57.5C56.25 57.0868 56.5868 56.75 57 56.75C57.4132 56.75 57.75 57.0868 57.75 57.5V65.75ZM66.75 57.5C66.75 57.9132 66.4132 58.25 66 58.25H59.25V57.5C59.25 56.2595 58.2405 55.25 57 55.25C56.7037 55.25 56.4225 55.3108 56.163 55.415C55.9042 54.4588 55.0373 53.75 54 53.75C53.4217 53.75 52.899 53.9757 52.5 54.335C52.101 53.975 51.5783 53.75 51 53.75C50.736 53.75 50.4855 53.804 50.25 53.888V49.25C50.25 48.0095 49.2405 47 48 47C46.7595 47 45.75 48.0095 45.75 49.25V56.9427C44.7443 55.8845 43.3162 55.2185 41.7142 55.2185C40.632 55.2185 39.7508 56.099 39.75 57.182C39.75 57.485 39.822 57.7888 39.957 58.061L40.0522 58.25H27C26.5868 58.25 26.25 57.9132 26.25 57.5V32C26.25 31.5868 26.5868 31.25 27 31.25H56.8807C56.6715 31.727 56.508 32.228 56.4015 32.75H27.75V40.25H59.2688C60.5205 41.1875 62.0685 41.75 63.75 41.75C64.8165 41.75 65.8305 41.5228 66.75 41.1193V57.5Z" fill="white"/>
<path d="M32.25 41.75C29.7682 41.75 27.75 43.7682 27.75 46.25C27.75 48.7318 29.7682 50.75 32.25 50.75C34.7318 50.75 36.75 48.7318 36.75 46.25C36.75 43.7682 34.7318 41.75 32.25 41.75ZM32.25 49.25C30.5955 49.25 29.25 47.9045 29.25 46.25C29.25 44.5955 30.5955 43.25 32.25 43.25C33.9045 43.25 35.25 44.5955 35.25 46.25C35.25 47.9045 33.9045 49.25 32.25 49.25Z" fill="white"/>
<path d="M39.75 46.25H44.25V41.75H39.75V46.25ZM41.25 43.25H42.75V44.75H41.25V43.25Z" fill="white"/>
<path d="M39.75 52.25H44.25V47.75H39.75V52.25ZM41.25 49.25H42.75V50.75H41.25V49.25Z" fill="white"/>
<path d="M45.75 46.25H50.25V41.75H45.75V46.25ZM47.25 43.25H48.75V44.75H47.25V43.25Z" fill="white"/>
<path d="M51.75 46.25H56.25V41.75H51.75V46.25ZM53.25 43.25H54.75V44.75H53.25V43.25Z" fill="white"/>
<path d="M51.75 52.25H56.25V47.75H51.75V52.25ZM53.25 49.25H54.75V50.75H53.25V49.25Z" fill="white"/>
<path d="M57.75 53.75H65.25V43.25H57.75V53.75ZM59.25 44.75H63.75V52.25H59.25V44.75Z" fill="white"/>
<path d="M27.75 56.75H36.75V52.25H27.75V56.75ZM29.25 53.75H35.25V55.25H29.25V53.75Z" fill="white"/>
</svg>
