<svg width="67" height="67" viewBox="0 0 67 67" fill="none" xmlns="http://www.w3.org/2000/svg">
<path d="M48.3441 2.56522L10.0675 0.00502891C8.81978 -0.077629 7.73758 0.868532 7.65402 2.11591L7.35461 6.59304H2.26726C1.01716 6.59304 0 7.6102 0 8.8603V63.9827C0 65.2328 1.01716 66.25 2.26726 66.25H31.5656C31.8195 66.25 32.0711 66.1462 32.2512 65.9669L36.6741 61.5636C36.719 61.5732 36.7649 61.5809 36.812 61.584L44.3629 62.089C45.5681 62.1685 46.6956 61.1883 46.7765 59.9781L50.455 4.97888C50.5378 3.74446 49.5784 2.64775 48.3441 2.56522ZM32.5373 62.9265V56.1765C32.5373 55.998 32.6826 55.8526 32.8612 55.8526H39.5852L32.5373 62.9265ZM44.8374 59.8485C44.8057 60.0442 44.6908 60.1447 44.4927 60.15L38.4968 59.7489L42.6105 55.6535C42.7937 55.4712 42.8967 55.2233 42.8967 54.9649V8.86043C42.8967 7.61033 41.8796 6.59317 40.6295 6.59317H30.5249C29.2685 6.59317 29.2685 8.53654 30.5249 8.53654H40.6295C40.8081 8.53654 40.9534 8.6819 40.9534 8.86043V53.9092H32.8612C31.6111 53.9092 30.5939 54.9264 30.5939 56.1765V64.3066H2.26726C2.08873 64.3066 1.94337 64.1613 1.94337 63.9827V8.86043C1.94337 8.6819 2.08873 8.53654 2.26726 8.53654H25.3503C26.6066 8.53654 26.6066 6.59317 25.3503 6.59317H9.30225L9.59298 2.24573C9.62459 2.04997 9.73951 1.94956 9.93773 1.94425L48.2143 4.50431C48.41 4.53592 48.5106 4.65084 48.5159 4.84906L44.8374 59.8485Z" fill="#2D73C3"/>
<path d="M34.699 30.6699H8.19751C7.66089 30.6699 7.22583 31.105 7.22583 31.6416C7.22583 32.1782 7.66089 32.6133 8.19751 32.6133H34.699C35.2357 32.6133 35.6706 32.1782 35.6706 31.6416C35.6706 31.105 35.2357 30.6699 34.699 30.6699Z" fill="#2D73C3"/>
<path d="M34.699 37.4443H8.19751C7.66089 37.4443 7.22583 37.8794 7.22583 38.416C7.22583 38.9526 7.66089 39.3877 8.19751 39.3877H34.699C35.2357 39.3877 35.6706 38.9526 35.6706 38.416C35.6706 37.8794 35.2357 37.4443 34.699 37.4443Z" fill="#2D73C3"/>
<path d="M7.22583 24.8682C7.22583 25.4048 7.66089 25.8399 8.19751 25.8399H34.699C35.2357 25.8399 35.6706 25.4048 35.6706 24.8682C35.6706 24.3315 35.2357 23.8965 34.699 23.8965H8.19751C7.66089 23.8965 7.22583 24.3315 7.22583 24.8682Z" fill="#2D73C3"/>
<path d="M11.8943 18.0938C11.8943 18.6304 12.3293 19.0654 12.866 19.0654H30.0307C30.5673 19.0654 31.0024 18.6304 31.0024 18.0938C31.0024 17.5571 30.5673 17.1221 30.0307 17.1221H12.866C12.3293 17.1221 11.8943 17.5571 11.8943 18.0938Z" fill="#2D73C3"/>
<path d="M25.232 56.8062C23.4844 56.8109 21.7368 56.8146 19.9892 56.8174C19.4018 56.8183 18.8145 56.8191 18.2272 56.8194C17.1629 56.8202 16.4458 56.6066 16.2074 55.4359C16.0058 54.4461 14.6056 54.5791 14.3335 55.4359C13.6611 57.5525 12.549 56.7232 11.9261 55.2995C11.3046 53.8791 11.1452 52.2895 10.8738 50.7779C10.6743 49.6672 8.99442 49.9785 8.96514 51.0362C8.92653 52.4291 8.79645 53.7998 8.44289 55.1507C8.07819 56.5445 7.53158 57.884 6.98899 59.2157C6.51598 60.3767 8.3969 60.8761 8.86292 59.7324C9.34371 58.5524 9.82514 57.3659 10.1835 56.1419C10.8494 57.7432 12.2271 59.5544 14.1903 58.487C14.5556 58.2884 14.8967 58.0061 15.1961 57.6769C16.217 58.8566 17.7366 58.7636 19.1585 58.7619C21.1831 58.7593 23.2077 58.7549 25.2323 58.7496C26.4824 58.7463 26.4847 56.803 25.232 56.8062Z" fill="#2D73C3"/>
<path d="M65.5473 31.8862C65.0424 31.3838 64.3482 31.1261 63.6434 31.1071L62.9091 31.1107V29.722C62.9091 28.8761 62.4067 27.9824 61.687 27.5374V25.5813C61.687 21.5561 55.42 21.5736 55.42 25.6002V27.5565C54.6868 28.0097 54.195 28.8186 54.195 29.7398V31.1627C50.9605 31.3829 50.9513 36.3119 54.1986 36.5046C54.2194 40.8545 54.2183 45.1331 54.195 49.5558C54.1887 50.7755 56.1318 50.847 56.1384 49.5661C56.1617 45.1396 56.1627 40.8572 56.1421 36.5037L60.9631 36.4797C60.9631 36.4797 60.9569 50.8409 60.9569 57.3105C60.9569 60.4637 56.1349 60.4847 56.1349 57.2777L56.1366 55.5058C56.2124 54.2517 54.2726 54.1347 54.1967 55.3887V57.0514C54.1967 58.4765 54.6375 59.6835 55.4907 60.5325C55.5667 62.5656 56.4233 64.533 57.8706 65.9682C58.2858 66.3802 58.8607 66.2543 59.2626 65.9446C60.735 64.4696 61.5647 62.5251 61.6165 60.4496C62.2579 59.8107 62.9002 59.1675 62.9002 56.965L62.9009 48.1096C64.5813 48.5875 66.3334 47.2872 66.3334 45.5254V33.7782C66.3334 33.0626 66.0542 32.3907 65.5473 31.8862ZM56.1384 31.1443V29.7397C56.1384 29.4522 56.3357 29.2111 56.6013 29.1395L60.4913 29.1202C60.6001 29.1471 60.7005 29.1986 60.7819 29.2797C60.9004 29.3977 60.9657 29.5547 60.9657 29.722V31.1204L56.1384 31.1443ZM58.5574 24.4073C59.1539 24.4073 59.7435 24.9921 59.7435 25.5813V27.1575L57.3632 27.1693V25.6002C57.3634 24.9456 57.8987 24.4105 58.5574 24.4073ZM58.5559 63.78C58.1042 63.1397 57.7774 62.4156 57.595 61.6545C57.8958 61.7196 58.2006 61.7536 58.5054 61.7536C58.8458 61.7536 59.186 61.7113 59.521 61.6296C59.343 62.4023 59.0168 63.1308 58.5559 63.78ZM64.3901 45.5254C64.3901 46.4454 62.9064 46.5178 62.9064 45.5424C62.9064 45.5424 62.9081 36.3472 62.9091 35.5043C62.9097 34.9606 62.4578 34.5314 61.9299 34.5314L54.3651 34.569C53.4269 34.569 53.4488 33.101 54.3747 33.0964L63.653 33.0504C64.1017 33.0887 64.3473 33.3313 64.3899 33.7782V45.5254H64.3901Z" fill="#2D73C3"/>
</svg>
