<svg width="67" height="67" viewBox="0 0 67 67" fill="none" xmlns="http://www.w3.org/2000/svg">
<mask id="path-1-inside-1" fill="white">
<path d="M10.8017 23.0438C10.8017 22.6463 10.4791 22.3237 10.0816 22.3237H4.32069C3.92319 22.3237 3.60059 22.6463 3.60059 23.0438V28.8047C3.60059 29.2022 3.92319 29.5248 4.32069 29.5248H10.0816C10.4791 29.5248 10.8017 29.2022 10.8017 28.8047V23.0438ZM9.36146 28.0846H5.0408V23.7639H9.36146V28.0846Z"/>
</mask>
<path d="M10.8017 23.0438C10.8017 22.6463 10.4791 22.3237 10.0816 22.3237H4.32069C3.92319 22.3237 3.60059 22.6463 3.60059 23.0438V28.8047C3.60059 29.2022 3.92319 29.5248 4.32069 29.5248H10.0816C10.4791 29.5248 10.8017 29.2022 10.8017 28.8047V23.0438ZM9.36146 28.0846H5.0408V23.7639H9.36146V28.0846Z" fill="#009944"/>
<path d="M9.36146 28.0846V30.0846H11.3615V28.0846H9.36146ZM5.0408 28.0846H3.0408V30.0846H5.0408V28.0846ZM5.0408 23.7639V21.7639H3.0408V23.7639H5.0408ZM9.36146 23.7639H11.3615V21.7639H9.36146V23.7639ZM12.8017 23.0438C12.8017 21.5418 11.5836 20.3237 10.0816 20.3237V24.3237C9.37449 24.3237 8.80167 23.7509 8.80167 23.0438H12.8017ZM10.0816 20.3237H4.32069V24.3237H10.0816V20.3237ZM4.32069 20.3237C2.81863 20.3237 1.60059 21.5418 1.60059 23.0438H5.60059C5.60059 23.7509 5.02776 24.3237 4.32069 24.3237V20.3237ZM1.60059 23.0438V28.8047H5.60059V23.0438H1.60059ZM1.60059 28.8047C1.60059 30.3068 2.81863 31.5248 4.32069 31.5248V27.5248C5.02776 27.5248 5.60059 28.0976 5.60059 28.8047H1.60059ZM4.32069 31.5248H10.0816V27.5248H4.32069V31.5248ZM10.0816 31.5248C11.5836 31.5248 12.8017 30.3068 12.8017 28.8047H8.80167C8.80167 28.0976 9.37449 27.5248 10.0816 27.5248V31.5248ZM12.8017 28.8047V23.0438H8.80167V28.8047H12.8017ZM9.36146 26.0846H5.0408V30.0846H9.36146V26.0846ZM7.0408 28.0846V23.7639H3.0408V28.0846H7.0408ZM5.0408 25.7639H9.36146V21.7639H5.0408V25.7639ZM7.36146 23.7639V28.0846H11.3615V23.7639H7.36146Z" fill="#D14F16" mask="url(#path-1-inside-1)"/>
<mask id="path-3-inside-2" fill="white">
<path d="M20.163 23.0438C20.163 22.6463 19.8404 22.3237 19.4429 22.3237H13.682C13.2845 22.3237 12.9619 22.6463 12.9619 23.0438V28.8047C12.9619 29.2022 13.2845 29.5248 13.682 29.5248H19.4429C19.8404 29.5248 20.163 29.2022 20.163 28.8047V23.0438ZM18.7228 28.0846H14.4021V23.7639H18.7228V28.0846Z"/>
</mask>
<path d="M20.163 23.0438C20.163 22.6463 19.8404 22.3237 19.4429 22.3237H13.682C13.2845 22.3237 12.9619 22.6463 12.9619 23.0438V28.8047C12.9619 29.2022 13.2845 29.5248 13.682 29.5248H19.4429C19.8404 29.5248 20.163 29.2022 20.163 28.8047V23.0438ZM18.7228 28.0846H14.4021V23.7639H18.7228V28.0846Z" fill="#009944"/>
<path d="M18.7228 28.0846V30.0846H20.7228V28.0846H18.7228ZM14.4021 28.0846H12.4021V30.0846H14.4021V28.0846ZM14.4021 23.7639V21.7639H12.4021V23.7639H14.4021ZM18.7228 23.7639H20.7228V21.7639H18.7228V23.7639ZM22.163 23.0438C22.163 21.5418 20.945 20.3237 19.4429 20.3237V24.3237C18.7358 24.3237 18.163 23.7509 18.163 23.0438H22.163ZM19.4429 20.3237H13.682V24.3237H19.4429V20.3237ZM13.682 20.3237C12.18 20.3237 10.9619 21.5418 10.9619 23.0438H14.9619C14.9619 23.7509 14.3891 24.3237 13.682 24.3237V20.3237ZM10.9619 23.0438V28.8047H14.9619V23.0438H10.9619ZM10.9619 28.8047C10.9619 30.3068 12.18 31.5248 13.682 31.5248V27.5248C14.3891 27.5248 14.9619 28.0976 14.9619 28.8047H10.9619ZM13.682 31.5248H19.4429V27.5248H13.682V31.5248ZM19.4429 31.5248C20.945 31.5248 22.163 30.3068 22.163 28.8047H18.163C18.163 28.0976 18.7358 27.5248 19.4429 27.5248V31.5248ZM22.163 28.8047V23.0438H18.163V28.8047H22.163ZM18.7228 26.0846H14.4021V30.0846H18.7228V26.0846ZM16.4021 28.0846V23.7639H12.4021V28.0846H16.4021ZM14.4021 25.7639H18.7228V21.7639H14.4021V25.7639ZM16.7228 23.7639V28.0846H20.7228V23.7639H16.7228Z" fill="#D14F16" mask="url(#path-3-inside-2)"/>
<mask id="path-5-inside-3" fill="white">
<path d="M10.8017 32.4052C10.8017 32.0077 10.4791 31.6851 10.0816 31.6851H4.32069C3.92319 31.6851 3.60059 32.0077 3.60059 32.4052V38.166C3.60059 38.5635 3.92319 38.8861 4.32069 38.8861H10.0816C10.4791 38.8861 10.8017 38.5635 10.8017 38.166V32.4052ZM9.36146 37.4459H5.0408V33.1253H9.36146V37.4459Z"/>
</mask>
<path d="M10.8017 32.4052C10.8017 32.0077 10.4791 31.6851 10.0816 31.6851H4.32069C3.92319 31.6851 3.60059 32.0077 3.60059 32.4052V38.166C3.60059 38.5635 3.92319 38.8861 4.32069 38.8861H10.0816C10.4791 38.8861 10.8017 38.5635 10.8017 38.166V32.4052ZM9.36146 37.4459H5.0408V33.1253H9.36146V37.4459Z" fill="#009944"/>
<path d="M9.36146 37.4459V39.4459H11.3615V37.4459H9.36146ZM5.0408 37.4459H3.0408V39.4459H5.0408V37.4459ZM5.0408 33.1253V31.1253H3.0408V33.1253H5.0408ZM9.36146 33.1253H11.3615V31.1253H9.36146V33.1253ZM12.8017 32.4052C12.8017 30.9031 11.5836 29.6851 10.0816 29.6851V33.6851C9.37449 33.6851 8.80167 33.1122 8.80167 32.4052H12.8017ZM10.0816 29.6851H4.32069V33.6851H10.0816V29.6851ZM4.32069 29.6851C2.81863 29.6851 1.60059 30.9031 1.60059 32.4052H5.60059C5.60059 33.1122 5.02776 33.6851 4.32069 33.6851V29.6851ZM1.60059 32.4052V38.166H5.60059V32.4052H1.60059ZM1.60059 38.166C1.60059 39.6681 2.81863 40.8861 4.32069 40.8861V36.8861C5.02776 36.8861 5.60059 37.459 5.60059 38.166H1.60059ZM4.32069 40.8861H10.0816V36.8861H4.32069V40.8861ZM10.0816 40.8861C11.5836 40.8861 12.8017 39.6681 12.8017 38.166H8.80167C8.80167 37.459 9.37449 36.8861 10.0816 36.8861V40.8861ZM12.8017 38.166V32.4052H8.80167V38.166H12.8017ZM9.36146 35.4459H5.0408V39.4459H9.36146V35.4459ZM7.0408 37.4459V33.1253H3.0408V37.4459H7.0408ZM5.0408 35.1253H9.36146V31.1253H5.0408V35.1253ZM7.36146 33.1253V37.4459H11.3615V33.1253H7.36146Z" fill="#D14F16" mask="url(#path-5-inside-3)"/>
<mask id="path-7-inside-4" fill="white">
<path d="M20.163 32.4052C20.163 32.0077 19.8404 31.6851 19.4429 31.6851H13.682C13.2845 31.6851 12.9619 32.0077 12.9619 32.4052V38.166C12.9619 38.5635 13.2845 38.8861 13.682 38.8861H19.4429C19.8404 38.8861 20.163 38.5635 20.163 38.166V32.4052ZM18.7228 37.4459H14.4021V33.1253H18.7228V37.4459Z"/>
</mask>
<path d="M20.163 32.4052C20.163 32.0077 19.8404 31.6851 19.4429 31.6851H13.682C13.2845 31.6851 12.9619 32.0077 12.9619 32.4052V38.166C12.9619 38.5635 13.2845 38.8861 13.682 38.8861H19.4429C19.8404 38.8861 20.163 38.5635 20.163 38.166V32.4052ZM18.7228 37.4459H14.4021V33.1253H18.7228V37.4459Z" fill="#009944"/>
<path d="M18.7228 37.4459V39.4459H20.7228V37.4459H18.7228ZM14.4021 37.4459H12.4021V39.4459H14.4021V37.4459ZM14.4021 33.1253V31.1253H12.4021V33.1253H14.4021ZM18.7228 33.1253H20.7228V31.1253H18.7228V33.1253ZM22.163 32.4052C22.163 30.9031 20.945 29.6851 19.4429 29.6851V33.6851C18.7358 33.6851 18.163 33.1122 18.163 32.4052H22.163ZM19.4429 29.6851H13.682V33.6851H19.4429V29.6851ZM13.682 29.6851C12.18 29.6851 10.9619 30.9031 10.9619 32.4052H14.9619C14.9619 33.1122 14.3891 33.6851 13.682 33.6851V29.6851ZM10.9619 32.4052V38.166H14.9619V32.4052H10.9619ZM10.9619 38.166C10.9619 39.6681 12.18 40.8861 13.682 40.8861V36.8861C14.3891 36.8861 14.9619 37.459 14.9619 38.166H10.9619ZM13.682 40.8861H19.4429V36.8861H13.682V40.8861ZM19.4429 40.8861C20.945 40.8861 22.163 39.6681 22.163 38.166H18.163C18.163 37.459 18.7358 36.8861 19.4429 36.8861V40.8861ZM22.163 38.166V32.4052H18.163V38.166H22.163ZM18.7228 35.4459H14.4021V39.4459H18.7228V35.4459ZM16.4021 37.4459V33.1253H12.4021V37.4459H16.4021ZM14.4021 35.1253H18.7228V31.1253H14.4021V35.1253ZM16.7228 33.1253V37.4459H20.7228V33.1253H16.7228Z" fill="#D14F16" mask="url(#path-7-inside-4)"/>
<mask id="path-9-inside-5" fill="white">
<path d="M10.0816 41.0464H4.32069C3.92319 41.0464 3.60059 41.369 3.60059 41.7665V47.5274C3.60059 47.9249 3.92319 48.2475 4.32069 48.2475H10.0816C10.4791 48.2475 10.8017 47.9249 10.8017 47.5274V41.7665C10.8017 41.369 10.4791 41.0464 10.0816 41.0464ZM9.36146 46.8073H5.0408V42.4866H9.36146V46.8073Z"/>
</mask>
<path d="M10.0816 41.0464H4.32069C3.92319 41.0464 3.60059 41.369 3.60059 41.7665V47.5274C3.60059 47.9249 3.92319 48.2475 4.32069 48.2475H10.0816C10.4791 48.2475 10.8017 47.9249 10.8017 47.5274V41.7665C10.8017 41.369 10.4791 41.0464 10.0816 41.0464ZM9.36146 46.8073H5.0408V42.4866H9.36146V46.8073Z" fill="#009944"/>
<path d="M9.36146 46.8073V48.8073H11.3615V46.8073H9.36146ZM5.0408 46.8073H3.0408V48.8073H5.0408V46.8073ZM5.0408 42.4866V40.4866H3.0408V42.4866H5.0408ZM9.36146 42.4866H11.3615V40.4866H9.36146V42.4866ZM10.0816 39.0464H4.32069V43.0464H10.0816V39.0464ZM4.32069 39.0464C2.81863 39.0464 1.60059 40.2644 1.60059 41.7665H5.60059C5.60059 42.4736 5.02776 43.0464 4.32069 43.0464V39.0464ZM1.60059 41.7665V47.5274H5.60059V41.7665H1.60059ZM1.60059 47.5274C1.60059 49.0294 2.81863 50.2475 4.32069 50.2475V46.2475C5.02776 46.2475 5.60059 46.8203 5.60059 47.5274H1.60059ZM4.32069 50.2475H10.0816V46.2475H4.32069V50.2475ZM10.0816 50.2475C11.5836 50.2475 12.8017 49.0294 12.8017 47.5274H8.80167C8.80167 46.8203 9.37449 46.2475 10.0816 46.2475V50.2475ZM12.8017 47.5274V41.7665H8.80167V47.5274H12.8017ZM12.8017 41.7665C12.8017 40.2644 11.5836 39.0464 10.0816 39.0464V43.0464C9.37449 43.0464 8.80167 42.4736 8.80167 41.7665H12.8017ZM9.36146 44.8073H5.0408V48.8073H9.36146V44.8073ZM7.0408 46.8073V42.4866H3.0408V46.8073H7.0408ZM5.0408 44.4866H9.36146V40.4866H5.0408V44.4866ZM7.36146 42.4866V46.8073H11.3615V42.4866H7.36146Z" fill="#D14F16" mask="url(#path-9-inside-5)"/>
<mask id="path-11-inside-6" fill="white">
<path d="M19.4429 41.0464H13.682C13.2845 41.0464 12.9619 41.369 12.9619 41.7665V47.5274C12.9619 47.9249 13.2845 48.2475 13.682 48.2475H19.4429C19.8404 48.2475 20.163 47.9249 20.163 47.5274V41.7665C20.163 41.369 19.8404 41.0464 19.4429 41.0464ZM18.7228 46.8073H14.4021V42.4866H18.7228V46.8073Z"/>
</mask>
<path d="M19.4429 41.0464H13.682C13.2845 41.0464 12.9619 41.369 12.9619 41.7665V47.5274C12.9619 47.9249 13.2845 48.2475 13.682 48.2475H19.4429C19.8404 48.2475 20.163 47.9249 20.163 47.5274V41.7665C20.163 41.369 19.8404 41.0464 19.4429 41.0464ZM18.7228 46.8073H14.4021V42.4866H18.7228V46.8073Z" fill="#009944"/>
<path d="M18.7228 46.8073V48.8073H20.7228V46.8073H18.7228ZM14.4021 46.8073H12.4021V48.8073H14.4021V46.8073ZM14.4021 42.4866V40.4866H12.4021V42.4866H14.4021ZM18.7228 42.4866H20.7228V40.4866H18.7228V42.4866ZM19.4429 39.0464H13.682V43.0464H19.4429V39.0464ZM13.682 39.0464C12.18 39.0464 10.9619 40.2644 10.9619 41.7665H14.9619C14.9619 42.4736 14.3891 43.0464 13.682 43.0464V39.0464ZM10.9619 41.7665V47.5274H14.9619V41.7665H10.9619ZM10.9619 47.5274C10.9619 49.0294 12.18 50.2475 13.682 50.2475V46.2475C14.3891 46.2475 14.9619 46.8203 14.9619 47.5274H10.9619ZM13.682 50.2475H19.4429V46.2475H13.682V50.2475ZM19.4429 50.2475C20.945 50.2475 22.163 49.0294 22.163 47.5274H18.163C18.163 46.8203 18.7358 46.2475 19.4429 46.2475V50.2475ZM22.163 47.5274V41.7665H18.163V47.5274H22.163ZM22.163 41.7665C22.163 40.2644 20.945 39.0464 19.4429 39.0464V43.0464C18.7358 43.0464 18.163 42.4736 18.163 41.7665H22.163ZM18.7228 44.8073H14.4021V48.8073H18.7228V44.8073ZM16.4021 46.8073V42.4866H12.4021V46.8073H16.4021ZM14.4021 44.4866H18.7228V40.4866H14.4021V44.4866ZM16.7228 42.4866V46.8073H20.7228V42.4866H16.7228Z" fill="#D14F16" mask="url(#path-11-inside-6)"/>
<mask id="path-13-inside-7" fill="white">
<path d="M32.4048 3.59985H26.6439C26.2464 3.59985 25.9238 3.92246 25.9238 4.31996V10.0808C25.9238 10.4783 26.2464 10.8009 26.6439 10.8009H32.4048C32.8023 10.8009 33.1249 10.4783 33.1249 10.0808V4.31996C33.1249 3.92246 32.8023 3.59985 32.4048 3.59985ZM31.6847 9.36072H27.364V5.04007H31.6847V9.36072Z"/>
</mask>
<path d="M32.4048 3.59985H26.6439C26.2464 3.59985 25.9238 3.92246 25.9238 4.31996V10.0808C25.9238 10.4783 26.2464 10.8009 26.6439 10.8009H32.4048C32.8023 10.8009 33.1249 10.4783 33.1249 10.0808V4.31996C33.1249 3.92246 32.8023 3.59985 32.4048 3.59985ZM31.6847 9.36072H27.364V5.04007H31.6847V9.36072Z" fill="#009944"/>
<path d="M31.6847 9.36072V11.3607H33.6847V9.36072H31.6847ZM27.364 9.36072H25.364V11.3607H27.364V9.36072ZM27.364 5.04007V3.04007H25.364V5.04007H27.364ZM31.6847 5.04007H33.6847V3.04007H31.6847V5.04007ZM32.4048 1.59985H26.6439V5.59985H32.4048V1.59985ZM26.6439 1.59985C25.1419 1.59985 23.9238 2.81789 23.9238 4.31996H27.9238C27.9238 5.02703 27.351 5.59985 26.6439 5.59985V1.59985ZM23.9238 4.31996V10.0808H27.9238V4.31996H23.9238ZM23.9238 10.0808C23.9238 11.5829 25.1419 12.8009 26.6439 12.8009V8.80094C27.351 8.80094 27.9238 9.37376 27.9238 10.0808H23.9238ZM26.6439 12.8009H32.4048V8.80094H26.6439V12.8009ZM32.4048 12.8009C33.9069 12.8009 35.1249 11.5829 35.1249 10.0808H31.1249C31.1249 9.37376 31.6977 8.80094 32.4048 8.80094V12.8009ZM35.1249 10.0808V4.31996H31.1249V10.0808H35.1249ZM35.1249 4.31996C35.1249 2.81789 33.9069 1.59985 32.4048 1.59985V5.59985C31.6977 5.59985 31.1249 5.02703 31.1249 4.31996H35.1249ZM31.6847 7.36072H27.364V11.3607H31.6847V7.36072ZM29.364 9.36072V5.04007H25.364V9.36072H29.364ZM27.364 7.04007H31.6847V3.04007H27.364V7.04007ZM29.6847 5.04007V9.36072H33.6847V5.04007H29.6847Z" fill="#D14F16" mask="url(#path-13-inside-7)"/>
<mask id="path-15-inside-8" fill="white">
<path d="M36.0058 10.8009H41.7666C42.1641 10.8009 42.4867 10.4783 42.4867 10.0808V4.31996C42.4867 3.92246 42.1641 3.59985 41.7666 3.59985H36.0058C35.6083 3.59985 35.2856 3.92246 35.2856 4.31996V10.0808C35.2856 10.4783 35.6083 10.8009 36.0058 10.8009ZM36.7259 5.04007H41.0465V9.36072H36.7259V5.04007Z"/>
</mask>
<path d="M36.0058 10.8009H41.7666C42.1641 10.8009 42.4867 10.4783 42.4867 10.0808V4.31996C42.4867 3.92246 42.1641 3.59985 41.7666 3.59985H36.0058C35.6083 3.59985 35.2856 3.92246 35.2856 4.31996V10.0808C35.2856 10.4783 35.6083 10.8009 36.0058 10.8009ZM36.7259 5.04007H41.0465V9.36072H36.7259V5.04007Z" fill="#009944"/>
<path d="M36.7259 5.04007V3.04007H34.7259V5.04007H36.7259ZM41.0465 5.04007H43.0465V3.04007H41.0465V5.04007ZM41.0465 9.36072V11.3607H43.0465V9.36072H41.0465ZM36.7259 9.36072H34.7259V11.3607H36.7259V9.36072ZM36.0058 12.8009H41.7666V8.80094H36.0058V12.8009ZM41.7666 12.8009C43.2687 12.8009 44.4867 11.5829 44.4867 10.0808H40.4867C40.4867 9.37376 41.0596 8.80094 41.7666 8.80094V12.8009ZM44.4867 10.0808V4.31996H40.4867V10.0808H44.4867ZM44.4867 4.31996C44.4867 2.81789 43.2687 1.59985 41.7666 1.59985V5.59985C41.0596 5.59985 40.4867 5.02703 40.4867 4.31996H44.4867ZM41.7666 1.59985H36.0058V5.59985H41.7666V1.59985ZM36.0058 1.59985C34.5037 1.59985 33.2856 2.81789 33.2856 4.31996H37.2856C37.2856 5.02703 36.7128 5.59985 36.0058 5.59985V1.59985ZM33.2856 4.31996V10.0808H37.2856V4.31996H33.2856ZM33.2856 10.0808C33.2856 11.5829 34.5037 12.8009 36.0058 12.8009V8.80094C36.7128 8.80094 37.2856 9.37376 37.2856 10.0808H33.2856ZM36.7259 7.04007H41.0465V3.04007H36.7259V7.04007ZM39.0465 5.04007V9.36072H43.0465V5.04007H39.0465ZM41.0465 7.36072H36.7259V11.3607H41.0465V7.36072ZM38.7259 9.36072V5.04007H34.7259V9.36072H38.7259Z" fill="#D14F16" mask="url(#path-15-inside-8)"/>
<mask id="path-17-inside-9" fill="white">
<path d="M45.3671 10.8009H51.128C51.5255 10.8009 51.8481 10.4783 51.8481 10.0808V4.31996C51.8481 3.92246 51.5255 3.59985 51.128 3.59985H45.3671C44.9696 3.59985 44.647 3.92246 44.647 4.31996V10.0808C44.647 10.4783 44.9696 10.8009 45.3671 10.8009ZM46.0872 5.04007H50.4078V9.36072H46.0872V5.04007Z"/>
</mask>
<path d="M45.3671 10.8009H51.128C51.5255 10.8009 51.8481 10.4783 51.8481 10.0808V4.31996C51.8481 3.92246 51.5255 3.59985 51.128 3.59985H45.3671C44.9696 3.59985 44.647 3.92246 44.647 4.31996V10.0808C44.647 10.4783 44.9696 10.8009 45.3671 10.8009ZM46.0872 5.04007H50.4078V9.36072H46.0872V5.04007Z" fill="#009944"/>
<path d="M46.0872 5.04007V3.04007H44.0872V5.04007H46.0872ZM50.4078 5.04007H52.4078V3.04007H50.4078V5.04007ZM50.4078 9.36072V11.3607H52.4078V9.36072H50.4078ZM46.0872 9.36072H44.0872V11.3607H46.0872V9.36072ZM45.3671 12.8009H51.128V8.80094H45.3671V12.8009ZM51.128 12.8009C52.63 12.8009 53.8481 11.5829 53.8481 10.0808H49.8481C49.8481 9.37376 50.4209 8.80094 51.128 8.80094V12.8009ZM53.8481 10.0808V4.31996H49.8481V10.0808H53.8481ZM53.8481 4.31996C53.8481 2.81789 52.63 1.59985 51.128 1.59985V5.59985C50.4209 5.59985 49.8481 5.02703 49.8481 4.31996H53.8481ZM51.128 1.59985H45.3671V5.59985H51.128V1.59985ZM45.3671 1.59985C43.865 1.59985 42.647 2.81789 42.647 4.31996H46.647C46.647 5.02703 46.0742 5.59985 45.3671 5.59985V1.59985ZM42.647 4.31996V10.0808H46.647V4.31996H42.647ZM42.647 10.0808C42.647 11.5829 43.865 12.8009 45.3671 12.8009V8.80094C46.0742 8.80094 46.647 9.37376 46.647 10.0808H42.647ZM46.0872 7.04007H50.4078V3.04007H46.0872V7.04007ZM48.4078 5.04007V9.36072H52.4078V5.04007H48.4078ZM50.4078 7.36072H46.0872V11.3607H50.4078V7.36072ZM48.0872 9.36072V5.04007H44.0872V9.36072H48.0872Z" fill="#D14F16" mask="url(#path-17-inside-9)"/>
<mask id="path-19-inside-10" fill="white">
<path d="M32.4048 12.9624H26.6439C26.2464 12.9624 25.9238 13.285 25.9238 13.6825V19.4434C25.9238 19.8409 26.2464 20.1635 26.6439 20.1635H32.4048C32.8023 20.1635 33.1249 19.8409 33.1249 19.4434V13.6825C33.1249 13.285 32.8023 12.9624 32.4048 12.9624ZM31.6847 18.7233H27.364V14.4026H31.6847V18.7233Z"/>
</mask>
<path d="M32.4048 12.9624H26.6439C26.2464 12.9624 25.9238 13.285 25.9238 13.6825V19.4434C25.9238 19.8409 26.2464 20.1635 26.6439 20.1635H32.4048C32.8023 20.1635 33.1249 19.8409 33.1249 19.4434V13.6825C33.1249 13.285 32.8023 12.9624 32.4048 12.9624ZM31.6847 18.7233H27.364V14.4026H31.6847V18.7233Z" fill="#009944"/>
<path d="M31.6847 18.7233V20.7233H33.6847V18.7233H31.6847ZM27.364 18.7233H25.364V20.7233H27.364V18.7233ZM27.364 14.4026V12.4026H25.364V14.4026H27.364ZM31.6847 14.4026H33.6847V12.4026H31.6847V14.4026ZM32.4048 10.9624H26.6439V14.9624H32.4048V10.9624ZM26.6439 10.9624C25.1419 10.9624 23.9238 12.1804 23.9238 13.6825H27.9238C27.9238 14.3896 27.351 14.9624 26.6439 14.9624V10.9624ZM23.9238 13.6825V19.4434H27.9238V13.6825H23.9238ZM23.9238 19.4434C23.9238 20.9454 25.1419 22.1635 26.6439 22.1635V18.1635C27.351 18.1635 27.9238 18.7363 27.9238 19.4434H23.9238ZM26.6439 22.1635H32.4048V18.1635H26.6439V22.1635ZM32.4048 22.1635C33.9069 22.1635 35.1249 20.9454 35.1249 19.4434H31.1249C31.1249 18.7363 31.6977 18.1635 32.4048 18.1635V22.1635ZM35.1249 19.4434V13.6825H31.1249V19.4434H35.1249ZM35.1249 13.6825C35.1249 12.1804 33.9069 10.9624 32.4048 10.9624V14.9624C31.6977 14.9624 31.1249 14.3896 31.1249 13.6825H35.1249ZM31.6847 16.7233H27.364V20.7233H31.6847V16.7233ZM29.364 18.7233V14.4026H25.364V18.7233H29.364ZM27.364 16.4026H31.6847V12.4026H27.364V16.4026ZM29.6847 14.4026V18.7233H33.6847V14.4026H29.6847Z" fill="#D14F16" mask="url(#path-19-inside-10)"/>
<mask id="path-21-inside-11" fill="white">
<path d="M36.0058 20.1635H41.7666C42.1641 20.1635 42.4867 19.8409 42.4867 19.4434V13.6825C42.4867 13.285 42.1641 12.9624 41.7666 12.9624H36.0058C35.6083 12.9624 35.2856 13.285 35.2856 13.6825V19.4434C35.2856 19.8409 35.6083 20.1635 36.0058 20.1635ZM36.7259 14.4026H41.0465V18.7233H36.7259V14.4026Z"/>
</mask>
<path d="M36.0058 20.1635H41.7666C42.1641 20.1635 42.4867 19.8409 42.4867 19.4434V13.6825C42.4867 13.285 42.1641 12.9624 41.7666 12.9624H36.0058C35.6083 12.9624 35.2856 13.285 35.2856 13.6825V19.4434C35.2856 19.8409 35.6083 20.1635 36.0058 20.1635ZM36.7259 14.4026H41.0465V18.7233H36.7259V14.4026Z" fill="#009944"/>
<path d="M36.7259 14.4026V12.4026H34.7259V14.4026H36.7259ZM41.0465 14.4026H43.0465V12.4026H41.0465V14.4026ZM41.0465 18.7233V20.7233H43.0465V18.7233H41.0465ZM36.7259 18.7233H34.7259V20.7233H36.7259V18.7233ZM36.0058 22.1635H41.7666V18.1635H36.0058V22.1635ZM41.7666 22.1635C43.2687 22.1635 44.4867 20.9454 44.4867 19.4434H40.4867C40.4867 18.7363 41.0596 18.1635 41.7666 18.1635V22.1635ZM44.4867 19.4434V13.6825H40.4867V19.4434H44.4867ZM44.4867 13.6825C44.4867 12.1804 43.2687 10.9624 41.7666 10.9624V14.9624C41.0596 14.9624 40.4867 14.3896 40.4867 13.6825H44.4867ZM41.7666 10.9624H36.0058V14.9624H41.7666V10.9624ZM36.0058 10.9624C34.5037 10.9624 33.2856 12.1804 33.2856 13.6825H37.2856C37.2856 14.3896 36.7128 14.9624 36.0058 14.9624V10.9624ZM33.2856 13.6825V19.4434H37.2856V13.6825H33.2856ZM33.2856 19.4434C33.2856 20.9454 34.5037 22.1635 36.0058 22.1635V18.1635C36.7128 18.1635 37.2856 18.7363 37.2856 19.4434H33.2856ZM36.7259 16.4026H41.0465V12.4026H36.7259V16.4026ZM39.0465 14.4026V18.7233H43.0465V14.4026H39.0465ZM41.0465 16.7233H36.7259V20.7233H41.0465V16.7233ZM38.7259 18.7233V14.4026H34.7259V18.7233H38.7259Z" fill="#D14F16" mask="url(#path-21-inside-11)"/>
<mask id="path-23-inside-12" fill="white">
<path d="M45.3671 20.1635H51.128C51.5255 20.1635 51.8481 19.8409 51.8481 19.4434V13.6825C51.8481 13.285 51.5255 12.9624 51.128 12.9624H45.3671C44.9696 12.9624 44.647 13.285 44.647 13.6825V19.4434C44.647 19.8409 44.9696 20.1635 45.3671 20.1635ZM46.0872 14.4026H50.4078V18.7233H46.0872V14.4026Z"/>
</mask>
<path d="M45.3671 20.1635H51.128C51.5255 20.1635 51.8481 19.8409 51.8481 19.4434V13.6825C51.8481 13.285 51.5255 12.9624 51.128 12.9624H45.3671C44.9696 12.9624 44.647 13.285 44.647 13.6825V19.4434C44.647 19.8409 44.9696 20.1635 45.3671 20.1635ZM46.0872 14.4026H50.4078V18.7233H46.0872V14.4026Z" fill="#009944"/>
<path d="M46.0872 14.4026V12.4026H44.0872V14.4026H46.0872ZM50.4078 14.4026H52.4078V12.4026H50.4078V14.4026ZM50.4078 18.7233V20.7233H52.4078V18.7233H50.4078ZM46.0872 18.7233H44.0872V20.7233H46.0872V18.7233ZM45.3671 22.1635H51.128V18.1635H45.3671V22.1635ZM51.128 22.1635C52.63 22.1635 53.8481 20.9454 53.8481 19.4434H49.8481C49.8481 18.7363 50.4209 18.1635 51.128 18.1635V22.1635ZM53.8481 19.4434V13.6825H49.8481V19.4434H53.8481ZM53.8481 13.6825C53.8481 12.1804 52.63 10.9624 51.128 10.9624V14.9624C50.4209 14.9624 49.8481 14.3896 49.8481 13.6825H53.8481ZM51.128 10.9624H45.3671V14.9624H51.128V10.9624ZM45.3671 10.9624C43.865 10.9624 42.647 12.1804 42.647 13.6825H46.647C46.647 14.3896 46.0742 14.9624 45.3671 14.9624V10.9624ZM42.647 13.6825V19.4434H46.647V13.6825H42.647ZM42.647 19.4434C42.647 20.9454 43.865 22.1635 45.3671 22.1635V18.1635C46.0742 18.1635 46.647 18.7363 46.647 19.4434H42.647ZM46.0872 16.4026H50.4078V12.4026H46.0872V16.4026ZM48.4078 14.4026V18.7233H52.4078V14.4026H48.4078ZM50.4078 16.7233H46.0872V20.7233H50.4078V16.7233ZM48.0872 18.7233V14.4026H44.0872V18.7233H48.0872Z" fill="#D14F16" mask="url(#path-23-inside-12)"/>
<mask id="path-25-inside-13" fill="white">
<path d="M32.4048 22.3237H26.6439C26.2464 22.3237 25.9238 22.6463 25.9238 23.0438V28.8047C25.9238 29.2022 26.2464 29.5248 26.6439 29.5248H32.4048C32.8023 29.5248 33.1249 29.2022 33.1249 28.8047V23.0438C33.1249 22.6463 32.8023 22.3237 32.4048 22.3237ZM31.6847 28.0846H27.364V23.7639H31.6847V28.0846Z"/>
</mask>
<path d="M32.4048 22.3237H26.6439C26.2464 22.3237 25.9238 22.6463 25.9238 23.0438V28.8047C25.9238 29.2022 26.2464 29.5248 26.6439 29.5248H32.4048C32.8023 29.5248 33.1249 29.2022 33.1249 28.8047V23.0438C33.1249 22.6463 32.8023 22.3237 32.4048 22.3237ZM31.6847 28.0846H27.364V23.7639H31.6847V28.0846Z" fill="#009944"/>
<path d="M31.6847 28.0846V30.0846H33.6847V28.0846H31.6847ZM27.364 28.0846H25.364V30.0846H27.364V28.0846ZM27.364 23.7639V21.7639H25.364V23.7639H27.364ZM31.6847 23.7639H33.6847V21.7639H31.6847V23.7639ZM32.4048 20.3237H26.6439V24.3237H32.4048V20.3237ZM26.6439 20.3237C25.1419 20.3237 23.9238 21.5418 23.9238 23.0438H27.9238C27.9238 23.7509 27.351 24.3237 26.6439 24.3237V20.3237ZM23.9238 23.0438V28.8047H27.9238V23.0438H23.9238ZM23.9238 28.8047C23.9238 30.3068 25.1419 31.5248 26.6439 31.5248V27.5248C27.351 27.5248 27.9238 28.0976 27.9238 28.8047H23.9238ZM26.6439 31.5248H32.4048V27.5248H26.6439V31.5248ZM32.4048 31.5248C33.9069 31.5248 35.1249 30.3068 35.1249 28.8047H31.1249C31.1249 28.0976 31.6977 27.5248 32.4048 27.5248V31.5248ZM35.1249 28.8047V23.0438H31.1249V28.8047H35.1249ZM35.1249 23.0438C35.1249 21.5418 33.9069 20.3237 32.4048 20.3237V24.3237C31.6977 24.3237 31.1249 23.7509 31.1249 23.0438H35.1249ZM31.6847 26.0846H27.364V30.0846H31.6847V26.0846ZM29.364 28.0846V23.7639H25.364V28.0846H29.364ZM27.364 25.7639H31.6847V21.7639H27.364V25.7639ZM29.6847 23.7639V28.0846H33.6847V23.7639H29.6847Z" fill="#D14F16" mask="url(#path-25-inside-13)"/>
<mask id="path-27-inside-14" fill="white">
<path d="M36.0058 29.5248H41.7666C42.1641 29.5248 42.4867 29.2022 42.4867 28.8047V23.0438C42.4867 22.6463 42.1641 22.3237 41.7666 22.3237H36.0058C35.6083 22.3237 35.2856 22.6463 35.2856 23.0438V28.8047C35.2856 29.2022 35.6083 29.5248 36.0058 29.5248ZM36.7259 23.7639H41.0465V28.0846H36.7259V23.7639Z"/>
</mask>
<path d="M36.0058 29.5248H41.7666C42.1641 29.5248 42.4867 29.2022 42.4867 28.8047V23.0438C42.4867 22.6463 42.1641 22.3237 41.7666 22.3237H36.0058C35.6083 22.3237 35.2856 22.6463 35.2856 23.0438V28.8047C35.2856 29.2022 35.6083 29.5248 36.0058 29.5248ZM36.7259 23.7639H41.0465V28.0846H36.7259V23.7639Z" fill="#009944"/>
<path d="M36.7259 23.7639V21.7639H34.7259V23.7639H36.7259ZM41.0465 23.7639H43.0465V21.7639H41.0465V23.7639ZM41.0465 28.0846V30.0846H43.0465V28.0846H41.0465ZM36.7259 28.0846H34.7259V30.0846H36.7259V28.0846ZM36.0058 31.5248H41.7666V27.5248H36.0058V31.5248ZM41.7666 31.5248C43.2687 31.5248 44.4867 30.3068 44.4867 28.8047H40.4867C40.4867 28.0976 41.0596 27.5248 41.7666 27.5248V31.5248ZM44.4867 28.8047V23.0438H40.4867V28.8047H44.4867ZM44.4867 23.0438C44.4867 21.5418 43.2687 20.3237 41.7666 20.3237V24.3237C41.0596 24.3237 40.4867 23.7509 40.4867 23.0438H44.4867ZM41.7666 20.3237H36.0058V24.3237H41.7666V20.3237ZM36.0058 20.3237C34.5037 20.3237 33.2856 21.5418 33.2856 23.0438H37.2856C37.2856 23.7509 36.7128 24.3237 36.0058 24.3237V20.3237ZM33.2856 23.0438V28.8047H37.2856V23.0438H33.2856ZM33.2856 28.8047C33.2856 30.3068 34.5037 31.5248 36.0058 31.5248V27.5248C36.7128 27.5248 37.2856 28.0976 37.2856 28.8047H33.2856ZM36.7259 25.7639H41.0465V21.7639H36.7259V25.7639ZM39.0465 23.7639V28.0846H43.0465V23.7639H39.0465ZM41.0465 26.0846H36.7259V30.0846H41.0465V26.0846ZM38.7259 28.0846V23.7639H34.7259V28.0846H38.7259Z" fill="#D14F16" mask="url(#path-27-inside-14)"/>
<mask id="path-29-inside-15" fill="white">
<path d="M45.3671 29.5248H51.128C51.5255 29.5248 51.8481 29.2022 51.8481 28.8047V23.0438C51.8481 22.6463 51.5255 22.3237 51.128 22.3237H45.3671C44.9696 22.3237 44.647 22.6463 44.647 23.0438V28.8047C44.647 29.2022 44.9696 29.5248 45.3671 29.5248ZM46.0872 23.7639H50.4078V28.0846H46.0872V23.7639Z"/>
</mask>
<path d="M45.3671 29.5248H51.128C51.5255 29.5248 51.8481 29.2022 51.8481 28.8047V23.0438C51.8481 22.6463 51.5255 22.3237 51.128 22.3237H45.3671C44.9696 22.3237 44.647 22.6463 44.647 23.0438V28.8047C44.647 29.2022 44.9696 29.5248 45.3671 29.5248ZM46.0872 23.7639H50.4078V28.0846H46.0872V23.7639Z" fill="#009944"/>
<path d="M46.0872 23.7639V21.7639H44.0872V23.7639H46.0872ZM50.4078 23.7639H52.4078V21.7639H50.4078V23.7639ZM50.4078 28.0846V30.0846H52.4078V28.0846H50.4078ZM46.0872 28.0846H44.0872V30.0846H46.0872V28.0846ZM45.3671 31.5248H51.128V27.5248H45.3671V31.5248ZM51.128 31.5248C52.63 31.5248 53.8481 30.3068 53.8481 28.8047H49.8481C49.8481 28.0976 50.4209 27.5248 51.128 27.5248V31.5248ZM53.8481 28.8047V23.0438H49.8481V28.8047H53.8481ZM53.8481 23.0438C53.8481 21.5418 52.63 20.3237 51.128 20.3237V24.3237C50.4209 24.3237 49.8481 23.7509 49.8481 23.0438H53.8481ZM51.128 20.3237H45.3671V24.3237H51.128V20.3237ZM45.3671 20.3237C43.865 20.3237 42.647 21.5418 42.647 23.0438H46.647C46.647 23.7509 46.0742 24.3237 45.3671 24.3237V20.3237ZM42.647 23.0438V28.8047H46.647V23.0438H42.647ZM42.647 28.8047C42.647 30.3068 43.865 31.5248 45.3671 31.5248V27.5248C46.0742 27.5248 46.647 28.0976 46.647 28.8047H42.647ZM46.0872 25.7639H50.4078V21.7639H46.0872V25.7639ZM48.4078 23.7639V28.0846H52.4078V23.7639H48.4078ZM50.4078 26.0846H46.0872V30.0846H50.4078V26.0846ZM48.0872 28.0846V23.7639H44.0872V28.0846H48.0872Z" fill="#D14F16" mask="url(#path-29-inside-15)"/>
<mask id="path-31-inside-16" fill="white">
<path d="M32.4048 31.6851H26.6439C26.2464 31.6851 25.9238 32.0077 25.9238 32.4052V38.166C25.9238 38.5635 26.2464 38.8861 26.6439 38.8861H32.4048C32.8023 38.8861 33.1249 38.5635 33.1249 38.166V32.4052C33.1249 32.0077 32.8023 31.6851 32.4048 31.6851ZM31.6847 37.4459H27.364V33.1253H31.6847V37.4459Z"/>
</mask>
<path d="M32.4048 31.6851H26.6439C26.2464 31.6851 25.9238 32.0077 25.9238 32.4052V38.166C25.9238 38.5635 26.2464 38.8861 26.6439 38.8861H32.4048C32.8023 38.8861 33.1249 38.5635 33.1249 38.166V32.4052C33.1249 32.0077 32.8023 31.6851 32.4048 31.6851ZM31.6847 37.4459H27.364V33.1253H31.6847V37.4459Z" fill="#009944"/>
<path d="M31.6847 37.4459V39.4459H33.6847V37.4459H31.6847ZM27.364 37.4459H25.364V39.4459H27.364V37.4459ZM27.364 33.1253V31.1253H25.364V33.1253H27.364ZM31.6847 33.1253H33.6847V31.1253H31.6847V33.1253ZM32.4048 29.6851H26.6439V33.6851H32.4048V29.6851ZM26.6439 29.6851C25.1419 29.6851 23.9238 30.9031 23.9238 32.4052H27.9238C27.9238 33.1122 27.351 33.6851 26.6439 33.6851V29.6851ZM23.9238 32.4052V38.166H27.9238V32.4052H23.9238ZM23.9238 38.166C23.9238 39.6681 25.1419 40.8861 26.6439 40.8861V36.8861C27.351 36.8861 27.9238 37.459 27.9238 38.166H23.9238ZM26.6439 40.8861H32.4048V36.8861H26.6439V40.8861ZM32.4048 40.8861C33.9069 40.8861 35.1249 39.6681 35.1249 38.166H31.1249C31.1249 37.459 31.6977 36.8861 32.4048 36.8861V40.8861ZM35.1249 38.166V32.4052H31.1249V38.166H35.1249ZM35.1249 32.4052C35.1249 30.9031 33.9069 29.6851 32.4048 29.6851V33.6851C31.6977 33.6851 31.1249 33.1122 31.1249 32.4052H35.1249ZM31.6847 35.4459H27.364V39.4459H31.6847V35.4459ZM29.364 37.4459V33.1253H25.364V37.4459H29.364ZM27.364 35.1253H31.6847V31.1253H27.364V35.1253ZM29.6847 33.1253V37.4459H33.6847V33.1253H29.6847Z" fill="#D14F16" mask="url(#path-31-inside-16)"/>
<mask id="path-33-inside-17" fill="white">
<path d="M42.4867 38.166V32.4052C42.4867 32.0077 42.1641 31.6851 41.7666 31.6851H36.0058C35.6083 31.6851 35.2856 32.0077 35.2856 32.4052V38.166C35.2856 38.5635 35.6083 38.8861 36.0058 38.8861H41.7666C42.1641 38.8861 42.4867 38.5635 42.4867 38.166ZM41.0465 37.4459H36.7259V33.1253H41.0465V37.4459Z"/>
</mask>
<path d="M42.4867 38.166V32.4052C42.4867 32.0077 42.1641 31.6851 41.7666 31.6851H36.0058C35.6083 31.6851 35.2856 32.0077 35.2856 32.4052V38.166C35.2856 38.5635 35.6083 38.8861 36.0058 38.8861H41.7666C42.1641 38.8861 42.4867 38.5635 42.4867 38.166ZM41.0465 37.4459H36.7259V33.1253H41.0465V37.4459Z" fill="#009944"/>
<path d="M41.0465 37.4459V39.4459H43.0465V37.4459H41.0465ZM36.7259 37.4459H34.7259V39.4459H36.7259V37.4459ZM36.7259 33.1253V31.1253H34.7259V33.1253H36.7259ZM41.0465 33.1253H43.0465V31.1253H41.0465V33.1253ZM44.4867 38.166V32.4052H40.4867V38.166H44.4867ZM44.4867 32.4052C44.4867 30.9031 43.2687 29.6851 41.7666 29.6851V33.6851C41.0596 33.6851 40.4867 33.1122 40.4867 32.4052H44.4867ZM41.7666 29.6851H36.0058V33.6851H41.7666V29.6851ZM36.0058 29.6851C34.5037 29.6851 33.2856 30.9031 33.2856 32.4052H37.2856C37.2856 33.1122 36.7128 33.6851 36.0058 33.6851V29.6851ZM33.2856 32.4052V38.166H37.2856V32.4052H33.2856ZM33.2856 38.166C33.2856 39.6681 34.5037 40.8861 36.0058 40.8861V36.8861C36.7128 36.8861 37.2856 37.459 37.2856 38.166H33.2856ZM36.0058 40.8861H41.7666V36.8861H36.0058V40.8861ZM41.7666 40.8861C43.2687 40.8861 44.4867 39.6681 44.4867 38.166H40.4867C40.4867 37.459 41.0596 36.8861 41.7666 36.8861V40.8861ZM41.0465 35.4459H36.7259V39.4459H41.0465V35.4459ZM38.7259 37.4459V33.1253H34.7259V37.4459H38.7259ZM36.7259 35.1253H41.0465V31.1253H36.7259V35.1253ZM39.0465 33.1253V37.4459H43.0465V33.1253H39.0465Z" fill="#D14F16" mask="url(#path-33-inside-17)"/>
<mask id="path-35-inside-18" fill="white">
<path d="M45.3671 38.8861H51.128C51.5255 38.8861 51.8481 38.5635 51.8481 38.166V32.4052C51.8481 32.0077 51.5255 31.6851 51.128 31.6851H45.3671C44.9696 31.6851 44.647 32.0077 44.647 32.4052V38.166C44.647 38.5635 44.9696 38.8861 45.3671 38.8861ZM46.0872 33.1253H50.4078V37.4459H46.0872V33.1253Z"/>
</mask>
<path d="M45.3671 38.8861H51.128C51.5255 38.8861 51.8481 38.5635 51.8481 38.166V32.4052C51.8481 32.0077 51.5255 31.6851 51.128 31.6851H45.3671C44.9696 31.6851 44.647 32.0077 44.647 32.4052V38.166C44.647 38.5635 44.9696 38.8861 45.3671 38.8861ZM46.0872 33.1253H50.4078V37.4459H46.0872V33.1253Z" fill="#009944"/>
<path d="M46.0872 33.1253V31.1253H44.0872V33.1253H46.0872ZM50.4078 33.1253H52.4078V31.1253H50.4078V33.1253ZM50.4078 37.4459V39.4459H52.4078V37.4459H50.4078ZM46.0872 37.4459H44.0872V39.4459H46.0872V37.4459ZM45.3671 40.8861H51.128V36.8861H45.3671V40.8861ZM51.128 40.8861C52.63 40.8861 53.8481 39.6681 53.8481 38.166H49.8481C49.8481 37.459 50.4209 36.8861 51.128 36.8861V40.8861ZM53.8481 38.166V32.4052H49.8481V38.166H53.8481ZM53.8481 32.4052C53.8481 30.9031 52.63 29.6851 51.128 29.6851V33.6851C50.4209 33.6851 49.8481 33.1122 49.8481 32.4052H53.8481ZM51.128 29.6851H45.3671V33.6851H51.128V29.6851ZM45.3671 29.6851C43.865 29.6851 42.647 30.9031 42.647 32.4052H46.647C46.647 33.1122 46.0742 33.6851 45.3671 33.6851V29.6851ZM42.647 32.4052V38.166H46.647V32.4052H42.647ZM42.647 38.166C42.647 39.6681 43.865 40.8861 45.3671 40.8861V36.8861C46.0742 36.8861 46.647 37.459 46.647 38.166H42.647ZM46.0872 35.1253H50.4078V31.1253H46.0872V35.1253ZM48.4078 33.1253V37.4459H52.4078V33.1253H48.4078ZM50.4078 35.4459H46.0872V39.4459H50.4078V35.4459ZM48.0872 37.4459V33.1253H44.0872V37.4459H48.0872Z" fill="#D14F16" mask="url(#path-35-inside-18)"/>
<mask id="path-37-inside-19" fill="white">
<path d="M64.0897 47.5272H58.3288V46.087C58.3288 45.454 58.1625 44.8311 57.8471 44.2867C57.6476 43.9418 57.2062 43.8244 56.8634 44.0238C56.5184 44.2233 56.4011 44.6633 56.6005 45.0075C56.7885 45.3337 56.8886 45.7075 56.8886 46.087V47.5272H48.2473V46.087C48.2473 44.8959 49.2165 43.9266 50.4076 43.9266H54.7283C55.1258 43.9266 55.4484 43.604 55.4484 43.2065V0.720109C55.4484 0.322609 55.1258 0 54.7283 0H23.0435C22.646 0 22.3234 0.322609 22.3234 0.720109V18.7228H14.4022C14.0047 18.7228 13.6821 19.0454 13.6821 19.4429C13.6821 19.8404 14.0047 20.163 14.4022 20.163H22.3234V64.8098H1.44022V20.163H11.5217C11.9192 20.163 12.2418 19.8404 12.2418 19.4429V12.962C12.2418 12.9223 12.2253 12.8878 12.2195 12.8503C14.6304 10.0239 14.5066 5.76303 11.835 3.09143C11.5534 2.80986 11.0983 2.80986 10.8168 3.09143L1.65121 12.257C1.36965 12.5385 1.36965 12.9936 1.65121 13.2752C3.0547 14.6794 4.8989 15.3808 6.7431 15.3808C8.16387 15.3808 9.58249 14.9595 10.8016 14.1264V18.7228H0.720109C0.322609 18.7228 0 19.0454 0 19.4429V65.5299C0 65.9274 0.322609 66.25 0.720109 66.25H27.3641C27.7616 66.25 28.0842 65.9274 28.0842 65.5299V50.4076H35.2853V64.8098H30.2446C29.8471 64.8098 29.5245 65.1324 29.5245 65.5299C29.5245 65.9274 29.8471 66.25 30.2446 66.25H64.0897C65.2807 66.25 66.25 65.2807 66.25 64.0897V49.6875C66.25 48.4964 65.2807 47.5272 64.0897 47.5272ZM3.21024 12.7344L11.2942 4.65046C13.0498 6.90872 12.8907 10.1831 10.8168 12.257C8.74356 14.3309 5.46779 14.4893 3.21024 12.7344ZM39.0184 64.8098H36.7255V49.6875C36.7255 49.29 36.4029 48.9674 36.0054 48.9674H27.3641C26.9666 48.9674 26.644 49.29 26.644 49.6875V64.8098H23.7636V1.44022H54.0082V42.4864H50.4076C48.4223 42.4864 46.8071 44.1016 46.8071 46.087V47.5272H41.0462C39.8551 47.5272 38.8859 48.4964 38.8859 49.6875V64.0897C38.8859 64.3432 38.9377 64.5837 39.0184 64.8098ZM41.0462 64.8098C40.6494 64.8098 40.3261 64.4865 40.3261 64.0897V62.0021C41.7346 62.2894 42.8465 63.4012 43.1338 64.8098H41.0462ZM64.8098 64.0897C64.8098 64.4865 64.4865 64.8098 64.0897 64.8098H62.0021C62.2894 63.4012 63.4012 62.2894 64.8098 62.0021V64.0897ZM64.8098 60.5467C62.607 60.8643 60.8636 62.607 60.5467 64.8098H44.5891C44.2716 62.607 42.5289 60.8636 40.3261 60.5467V56.8886H43.9266V57.6087C43.9266 58.0062 44.2492 58.3288 44.6467 58.3288H45.3668V59.769C45.3668 60.1665 45.6895 60.4891 46.087 60.4891C46.4845 60.4891 46.8071 60.1665 46.8071 59.769V58.3288H47.5272C47.9247 58.3288 48.2473 58.0062 48.2473 57.6087V56.8886H56.8886V57.6087C56.8886 58.0062 57.2112 58.3288 57.6087 58.3288H58.3288V59.769C58.3288 60.1665 58.6514 60.4891 59.0489 60.4891C59.4464 60.4891 59.769 60.1665 59.769 59.769V58.3288H60.4891C60.8866 58.3288 61.2092 58.0062 61.2092 57.6087V56.8886H64.8098V60.5467ZM45.3668 56.8886V54.7283H46.8071V56.8886H45.3668ZM58.3288 56.8886V54.7283H59.769V56.8886H58.3288ZM64.8098 55.4484H61.2092V54.0082C61.2092 53.6107 60.8866 53.288 60.4891 53.288H57.6087C57.2112 53.288 56.8886 53.6107 56.8886 54.0082V55.4484H48.2473V54.0082C48.2473 53.6107 47.9247 53.288 47.5272 53.288H44.6467C44.2492 53.288 43.9266 53.6107 43.9266 54.0082V55.4484H40.3261V49.6875C40.3261 49.2907 40.6494 48.9674 41.0462 48.9674H64.0897C64.4865 48.9674 64.8098 49.2907 64.8098 49.6875V55.4484Z"/>
</mask>
<path d="M64.0897 47.5272H58.3288V46.087C58.3288 45.454 58.1625 44.8311 57.8471 44.2867C57.6476 43.9418 57.2062 43.8244 56.8634 44.0238C56.5184 44.2233 56.4011 44.6633 56.6005 45.0075C56.7885 45.3337 56.8886 45.7075 56.8886 46.087V47.5272H48.2473V46.087C48.2473 44.8959 49.2165 43.9266 50.4076 43.9266H54.7283C55.1258 43.9266 55.4484 43.604 55.4484 43.2065V0.720109C55.4484 0.322609 55.1258 0 54.7283 0H23.0435C22.646 0 22.3234 0.322609 22.3234 0.720109V18.7228H14.4022C14.0047 18.7228 13.6821 19.0454 13.6821 19.4429C13.6821 19.8404 14.0047 20.163 14.4022 20.163H22.3234V64.8098H1.44022V20.163H11.5217C11.9192 20.163 12.2418 19.8404 12.2418 19.4429V12.962C12.2418 12.9223 12.2253 12.8878 12.2195 12.8503C14.6304 10.0239 14.5066 5.76303 11.835 3.09143C11.5534 2.80986 11.0983 2.80986 10.8168 3.09143L1.65121 12.257C1.36965 12.5385 1.36965 12.9936 1.65121 13.2752C3.0547 14.6794 4.8989 15.3808 6.7431 15.3808C8.16387 15.3808 9.58249 14.9595 10.8016 14.1264V18.7228H0.720109C0.322609 18.7228 0 19.0454 0 19.4429V65.5299C0 65.9274 0.322609 66.25 0.720109 66.25H27.3641C27.7616 66.25 28.0842 65.9274 28.0842 65.5299V50.4076H35.2853V64.8098H30.2446C29.8471 64.8098 29.5245 65.1324 29.5245 65.5299C29.5245 65.9274 29.8471 66.25 30.2446 66.25H64.0897C65.2807 66.25 66.25 65.2807 66.25 64.0897V49.6875C66.25 48.4964 65.2807 47.5272 64.0897 47.5272ZM3.21024 12.7344L11.2942 4.65046C13.0498 6.90872 12.8907 10.1831 10.8168 12.257C8.74356 14.3309 5.46779 14.4893 3.21024 12.7344ZM39.0184 64.8098H36.7255V49.6875C36.7255 49.29 36.4029 48.9674 36.0054 48.9674H27.3641C26.9666 48.9674 26.644 49.29 26.644 49.6875V64.8098H23.7636V1.44022H54.0082V42.4864H50.4076C48.4223 42.4864 46.8071 44.1016 46.8071 46.087V47.5272H41.0462C39.8551 47.5272 38.8859 48.4964 38.8859 49.6875V64.0897C38.8859 64.3432 38.9377 64.5837 39.0184 64.8098ZM41.0462 64.8098C40.6494 64.8098 40.3261 64.4865 40.3261 64.0897V62.0021C41.7346 62.2894 42.8465 63.4012 43.1338 64.8098H41.0462ZM64.8098 64.0897C64.8098 64.4865 64.4865 64.8098 64.0897 64.8098H62.0021C62.2894 63.4012 63.4012 62.2894 64.8098 62.0021V64.0897ZM64.8098 60.5467C62.607 60.8643 60.8636 62.607 60.5467 64.8098H44.5891C44.2716 62.607 42.5289 60.8636 40.3261 60.5467V56.8886H43.9266V57.6087C43.9266 58.0062 44.2492 58.3288 44.6467 58.3288H45.3668V59.769C45.3668 60.1665 45.6895 60.4891 46.087 60.4891C46.4845 60.4891 46.8071 60.1665 46.8071 59.769V58.3288H47.5272C47.9247 58.3288 48.2473 58.0062 48.2473 57.6087V56.8886H56.8886V57.6087C56.8886 58.0062 57.2112 58.3288 57.6087 58.3288H58.3288V59.769C58.3288 60.1665 58.6514 60.4891 59.0489 60.4891C59.4464 60.4891 59.769 60.1665 59.769 59.769V58.3288H60.4891C60.8866 58.3288 61.2092 58.0062 61.2092 57.6087V56.8886H64.8098V60.5467ZM45.3668 56.8886V54.7283H46.8071V56.8886H45.3668ZM58.3288 56.8886V54.7283H59.769V56.8886H58.3288ZM64.8098 55.4484H61.2092V54.0082C61.2092 53.6107 60.8866 53.288 60.4891 53.288H57.6087C57.2112 53.288 56.8886 53.6107 56.8886 54.0082V55.4484H48.2473V54.0082C48.2473 53.6107 47.9247 53.288 47.5272 53.288H44.6467C44.2492 53.288 43.9266 53.6107 43.9266 54.0082V55.4484H40.3261V49.6875C40.3261 49.2907 40.6494 48.9674 41.0462 48.9674H64.0897C64.4865 48.9674 64.8098 49.2907 64.8098 49.6875V55.4484Z" fill="#009944" stroke="#D14F16" stroke-width="4" mask="url(#path-37-inside-19)"/>
<path d="M28.5247 46.8073C28.5247 46.6527 28.65 46.5274 28.8046 46.5274C28.9592 46.5274 29.0845 46.6527 29.0845 46.8073C29.0845 46.9618 28.9592 47.0872 28.8046 47.0872C28.65 47.0872 28.5247 46.9618 28.5247 46.8073Z" fill="#009944" stroke="#D14F16" stroke-width="2"/>
<path d="M31.4048 46.8073C31.4048 46.6527 31.5301 46.5274 31.6847 46.5274C31.8393 46.5274 31.9646 46.6527 31.9646 46.8073C31.9646 46.9618 31.8393 47.0872 31.6847 47.0872C31.5301 47.0872 31.4048 46.9618 31.4048 46.8073Z" fill="#009944" stroke="#D14F16" stroke-width="2"/>
<path d="M34.2854 46.8073C34.2854 46.6527 34.4107 46.5274 34.5653 46.5274C34.7199 46.5274 34.8452 46.6527 34.8452 46.8073C34.8452 46.9618 34.7199 47.0872 34.5653 47.0872C34.4107 47.0872 34.2854 46.9618 34.2854 46.8073Z" fill="#009944" stroke="#D14F16" stroke-width="2"/>
</svg>
