<svg width="94" height="94" viewBox="0 0 94 94" fill="none" xmlns="http://www.w3.org/2000/svg">
<circle cx="47" cy="47" r="41" fill="#009944"/>
<circle cx="47" cy="47" r="46.5" stroke="#009944" stroke-dasharray="3 3"/>
<path d="M57.0581 57.7833C55.9208 57.7833 54.9956 56.9825 54.9956 55.9982C54.9956 55.0138 55.9208 54.213 57.0581 54.213C58.1954 54.213 59.1206 55.0138 59.1206 55.9982C59.1206 56.5159 59.5404 56.9357 60.0581 56.9357C60.5758 56.9357 60.9956 56.5159 60.9956 55.9982C60.9956 54.2802 59.7155 52.8357 57.9956 52.4436V51.9561C57.9956 51.4384 57.5758 51.0186 57.0581 51.0186C56.5404 51.0186 56.1206 51.4384 56.1206 51.9561V52.4436C54.4007 52.8357 53.1206 54.2802 53.1206 55.9982C53.1206 58.0163 54.8869 59.6583 57.0581 59.6583C58.1954 59.6583 59.1206 60.4591 59.1206 61.4434C59.1206 62.4278 58.1954 63.2286 57.0581 63.2286C55.9208 63.2286 54.9956 62.4278 54.9956 61.4434C54.9956 60.9258 54.5758 60.5059 54.0581 60.5059C53.5404 60.5059 53.1206 60.9258 53.1206 61.4434C53.1206 63.1614 54.4007 64.6059 56.1206 64.998V65.403C56.1206 65.9207 56.5404 66.3405 57.0581 66.3405C57.5758 66.3405 57.9956 65.9207 57.9956 65.403V64.998C59.7155 64.6059 60.9956 63.1614 60.9956 61.4434C60.9956 59.4252 59.2293 57.7833 57.0581 57.7833Z" fill="white"/>
<path d="M67.3262 52.207C66.1016 50.2988 64.3762 48.7718 62.3367 47.7913C61.8699 47.5669 61.3097 47.7634 61.0855 48.2301C60.8611 48.6968 61.0575 49.2568 61.5242 49.4812C65.0784 51.1897 67.3748 54.8402 67.3748 58.7812C67.3748 60.4676 66.9591 62.14 66.1728 63.6179C65.9296 64.0749 66.103 64.6427 66.5601 64.8859C66.7003 64.9605 66.8511 64.9959 66.9996 64.9959C67.335 64.9959 67.6595 64.8154 67.8281 64.4986C68.7581 62.7507 69.2498 60.7736 69.2498 58.7812C69.2498 56.4412 68.5846 54.1679 67.3262 52.207Z" fill="white"/>
<path d="M58.5318 46.5938L58.4688 46.5938C57.9511 46.5938 57.5312 47.0135 57.5312 47.5312C57.5312 48.049 57.9511 48.4687 58.4688 48.4687L58.523 48.4688C58.5245 48.4688 58.5259 48.4688 58.5275 48.4688C59.0433 48.4688 59.4625 48.052 59.4649 47.5357C59.4673 47.018 59.0495 46.5963 58.5318 46.5938Z" fill="white"/>
<path d="M52.6007 68.0816C49.0466 66.373 46.7502 62.7225 46.7502 58.7816C46.7502 57.0952 47.1659 55.4228 47.9522 53.9449C48.1954 53.4879 48.022 52.9201 47.5649 52.6769C47.108 52.4338 46.5401 52.6071 46.297 53.0642C45.3669 54.8122 44.8752 56.7892 44.8752 58.7816C44.8752 61.1215 45.5404 63.3948 46.7988 65.3558C48.0235 67.264 49.7488 68.791 51.7884 69.7716C51.9193 69.8346 52.0577 69.8643 52.1939 69.8643C52.543 69.8643 52.8781 69.6684 53.0395 69.3328C53.2637 68.8661 53.0674 68.306 52.6007 68.0816Z" fill="white"/>
<path d="M55.6564 69.0937L55.6021 69.0935C55.082 69.0926 54.6628 69.5087 54.6604 70.0266C54.658 70.5444 55.0759 70.9661 55.5936 70.9685L55.6564 70.9687C56.1741 70.9687 56.5939 70.5489 56.5939 70.0312C56.5939 69.5135 56.1741 69.0937 55.6564 69.0937Z" fill="white"/>
<path d="M61.3195 43.422C61.2054 43.1501 61.0657 42.8939 60.903 42.6562H63.3437C65.7215 42.6562 67.6562 40.7216 67.6562 38.3437C67.6562 35.9659 65.7215 34.0312 63.3437 34.0312H55.8362C56.3135 33.3373 56.5937 32.4978 56.5937 31.5937C56.5937 29.2159 54.6591 27.2812 52.2812 27.2812H29.3125C26.9346 27.2812 25 29.2159 25 31.5937C25 33.9716 26.9346 35.9062 29.3125 35.9062H36.82C36.3427 36.6002 36.0625 37.4397 36.0625 38.3437C36.0625 39.2478 36.3426 40.0873 36.82 40.7812H34.375C31.9971 40.7812 30.0625 42.7158 30.0625 45.0937C30.0625 46.4594 30.7013 47.678 31.6951 48.4687C30.7013 49.2594 30.0625 50.4781 30.0625 51.8437C30.0625 53.2094 30.7013 54.428 31.6951 55.2187C30.7013 56.0094 30.0625 57.228 30.0625 58.5937C30.0625 59.9593 30.7013 61.178 31.6951 61.9687C30.7013 62.7594 30.0625 63.978 30.0625 65.3437C30.0625 67.7216 31.9971 69.6562 34.375 69.6562H45.4234C48.334 72.7693 52.4745 74.7188 57.0625 74.7188C65.8505 74.7188 73 67.5692 73 58.7813C73 51.4672 68.0472 45.289 61.3195 43.422ZM63.3437 35.9062C64.6878 35.9062 65.7812 36.9997 65.7812 38.3437C65.7812 39.6877 64.6878 40.7812 63.3437 40.7812H57.3437H40.375C39.0309 40.7812 37.9375 39.6877 37.9375 38.3437C37.9375 36.9997 39.0309 35.9062 40.375 35.9062H63.3437ZM29.3125 34.0312C27.9684 34.0312 26.875 32.9377 26.875 31.5937C26.875 30.2497 27.9684 29.1562 29.3125 29.1562H52.2812C53.6253 29.1562 54.7187 30.2497 54.7187 31.5937C54.7187 32.9377 53.6253 34.0312 52.2812 34.0312H29.3125ZM34.375 42.6562H57.3437C57.7213 42.6562 58.0829 42.744 58.4073 42.9011C57.9638 42.8639 57.5155 42.8438 57.0625 42.8438C52.6614 42.8438 48.6715 44.6372 45.7845 47.5312H34.375C33.031 47.5312 31.9375 46.4377 31.9375 45.0937C31.9375 43.7497 33.031 42.6562 34.375 42.6562ZM34.375 49.4062H44.1826C43.1184 50.8643 42.2955 52.5089 41.773 54.2812H34.375C33.0309 54.2812 31.9375 53.1878 31.9375 51.8437C31.9375 50.4997 33.0309 49.4062 34.375 49.4062ZM34.375 56.1562H41.3425C41.2003 57.0105 41.1251 57.8872 41.1251 58.7813C41.1251 59.545 41.1803 60.2959 41.2846 61.0312H34.375C33.0309 61.0312 31.9375 59.9378 31.9375 58.5937C31.9375 57.2496 33.0309 56.1562 34.375 56.1562ZM34.375 67.7812C33.0309 67.7812 31.9375 66.6878 31.9375 65.3437C31.9375 63.9996 33.0309 62.9062 34.375 62.9062H41.6674C42.1405 64.6699 42.9089 66.3136 43.9167 67.7812H34.375ZM57.0625 72.8438C49.3085 72.8438 43.0001 66.5353 43.0001 58.7813C43.0001 51.0272 49.3085 44.7188 57.0625 44.7188C64.8166 44.7188 71.125 51.0272 71.125 58.7813C71.125 66.5353 64.8166 72.8438 57.0625 72.8438Z" fill="white"/>
</svg>
