<svg width="65" height="67" viewBox="0 0 65 67" fill="none" xmlns="http://www.w3.org/2000/svg">
<path d="M60.4431 32.7288H39.9874C39.7774 32.7288 39.576 32.8122 39.4275 32.9607C39.279 33.1092 39.1956 33.3106 39.1956 33.5206V38.1396C39.1956 38.3496 39.279 38.551 39.4275 38.6995C39.576 38.848 39.7774 38.9314 39.9874 38.9314H60.4431C60.6531 38.9314 60.8545 38.848 61.003 38.6995C61.1515 38.551 61.2349 38.3496 61.2349 38.1396V33.5206C61.2349 33.3106 61.1515 33.1092 61.003 32.9607C60.8545 32.8122 60.6531 32.7288 60.4431 32.7288ZM59.5193 37.3478H40.7792V34.3124H59.5193V37.3478Z" fill="#D14F16"/>
<path d="M42.7016 63.003C43.3282 63.003 43.9407 62.8172 44.4617 62.4691C44.9827 62.1209 45.3888 61.6261 45.6285 61.0472C45.8683 60.4683 45.9311 59.8313 45.8088 59.2168C45.6866 58.6022 45.3848 58.0377 44.9417 57.5946C44.4986 57.1516 43.9341 56.8498 43.3196 56.7276C42.705 56.6054 42.068 56.6681 41.4891 56.9079C40.9102 57.1478 40.4154 57.5538 40.0673 58.0749C39.7192 58.5959 39.5334 59.2084 39.5334 59.835C39.5344 60.6749 39.8685 61.4802 40.4625 62.0741C41.0564 62.668 41.8616 63.002 42.7016 63.003ZM42.7016 58.2505C43.0149 58.2505 43.3213 58.3435 43.5818 58.5176C43.8424 58.6917 44.0455 58.9391 44.1654 59.2287C44.2853 59.5182 44.3167 59.8368 44.2556 60.1441C44.1944 60.4515 44.0435 60.7338 43.8219 60.9554C43.6004 61.177 43.318 61.3279 43.0107 61.389C42.7033 61.4502 42.3847 61.4188 42.0952 61.2989C41.8057 61.1789 41.5582 60.9758 41.3841 60.7153C41.21 60.4547 41.1171 60.1484 41.1171 59.835C41.1175 59.4149 41.2845 59.0121 41.5816 58.715C41.8786 58.4179 42.2814 58.2507 42.7016 58.2503V58.2505Z" fill="#D14F16"/>
<path d="M50.2167 63.003C50.8433 63.003 51.4558 62.8172 51.9768 62.4691C52.4978 62.1209 52.9039 61.6261 53.1437 61.0472C53.3835 60.4683 53.4462 59.8313 53.3239 59.2168C53.2017 58.6022 52.8999 58.0377 52.4569 57.5946C52.0138 57.1516 51.4493 56.8498 50.8347 56.7276C50.2201 56.6054 49.5831 56.6681 49.0042 56.9079C48.4253 57.1478 47.9305 57.5538 47.5824 58.0749C47.2343 58.5959 47.0486 59.2084 47.0486 59.835C47.0496 60.6749 47.3837 61.4802 47.9776 62.0741C48.5715 62.668 49.3768 63.002 50.2167 63.003ZM50.2167 58.2505C50.5301 58.2505 50.8364 58.3435 51.097 58.5176C51.3575 58.6917 51.5606 58.9391 51.6806 59.2287C51.8005 59.5182 51.8319 59.8368 51.7707 60.1441C51.7096 60.4515 51.5587 60.7338 51.3371 60.9554C51.1155 61.177 50.8332 61.3279 50.5258 61.389C50.2185 61.4502 49.8999 61.4188 49.6104 61.2989C49.3208 61.1789 49.0734 60.9758 48.8993 60.7153C48.7252 60.4547 48.6322 60.1484 48.6322 59.835C48.6326 59.4149 48.7997 59.0121 49.0967 58.715C49.3938 58.4179 49.7966 58.2507 50.2167 58.2503V58.2505Z" fill="#D14F16"/>
<path d="M57.7328 63.003C58.3594 63.003 58.9719 62.8172 59.4929 62.4691C60.0139 62.1209 60.42 61.6261 60.6598 61.0472C60.8996 60.4683 60.9623 59.8313 60.8401 59.2168C60.7178 58.6022 60.4161 58.0377 59.973 57.5946C59.5299 57.1516 58.9654 56.8498 58.3508 56.7276C57.7362 56.6054 57.0992 56.6681 56.5203 56.9079C55.9414 57.1478 55.4467 57.5538 55.0986 58.0749C54.7505 58.5959 54.5647 59.2084 54.5647 59.835C54.5657 60.6749 54.8998 61.4802 55.4937 62.0741C56.0876 62.668 56.8929 63.002 57.7328 63.003ZM57.7328 58.2505C58.0462 58.2505 58.3525 58.3435 58.6131 58.5176C58.8737 58.6917 59.0767 58.9391 59.1967 59.2287C59.3166 59.5182 59.348 59.8368 59.2868 60.1441C59.2257 60.4515 59.0748 60.7338 58.8532 60.9554C58.6316 61.177 58.3493 61.3279 58.0419 61.389C57.7346 61.4502 57.416 61.4188 57.1265 61.2989C56.837 61.1789 56.5895 60.9758 56.4154 60.7153C56.2413 60.4547 56.1484 60.1484 56.1484 59.835C56.1487 59.4149 56.3157 59.012 56.6128 58.7149C56.9099 58.4178 57.3127 58.2507 57.7328 58.2503V58.2505Z" fill="#D14F16"/>
<path d="M42.7016 56.0125C43.3282 56.0125 43.9407 55.8267 44.4617 55.4786C44.9827 55.1305 45.3887 54.6357 45.6285 54.0568C45.8683 53.4779 45.9311 52.8409 45.8088 52.2263C45.6866 51.6118 45.3848 51.0473 44.9418 50.6042C44.4987 50.1611 43.9342 49.8594 43.3196 49.7371C42.7051 49.6149 42.0681 49.6776 41.4892 49.9174C40.9103 50.1572 40.4155 50.5633 40.0674 51.0843C39.7193 51.6053 39.5334 52.2178 39.5334 52.8444C39.5344 53.6843 39.8685 54.4896 40.4624 55.0836C41.0563 55.6775 41.8616 56.0116 42.7016 56.0125ZM42.7016 51.2601C43.015 51.2601 43.3213 51.353 43.5819 51.5272C43.8425 51.7013 44.0456 51.9488 44.1655 52.2384C44.2854 52.5279 44.3167 52.8466 44.2555 53.1539C44.1943 53.4613 44.0433 53.7436 43.8217 53.9652C43.6 54.1867 43.3176 54.3376 43.0102 54.3986C42.7028 54.4597 42.3842 54.4282 42.0947 54.3081C41.8052 54.1881 41.5578 53.9849 41.3838 53.7242C41.2097 53.4636 41.117 53.1571 41.1171 52.8437C41.1178 52.4238 41.2849 52.0212 41.582 51.7244C41.879 51.4275 42.2816 51.2605 42.7016 51.2601Z" fill="#D14F16"/>
<path d="M50.2167 56.0125C50.8433 56.0125 51.4558 55.8267 51.9768 55.4786C52.4978 55.1305 52.9039 54.6357 53.1437 54.0568C53.3835 53.4779 53.4462 52.8409 53.324 52.2263C53.2017 51.6118 52.9 51.0473 52.4569 50.6042C52.0138 50.1611 51.4493 49.8594 50.8348 49.7371C50.2202 49.6149 49.5832 49.6776 49.0043 49.9174C48.4254 50.1572 47.9306 50.5633 47.5825 51.0843C47.2344 51.6053 47.0486 52.2178 47.0486 52.8444C47.0495 53.6843 47.3836 54.4896 47.9775 55.0836C48.5715 55.6775 49.3768 56.0116 50.2167 56.0125ZM50.2167 51.2601C50.5301 51.2601 50.8365 51.353 51.0971 51.5272C51.3576 51.7013 51.5607 51.9488 51.6806 52.2384C51.8005 52.5279 51.8319 52.8466 51.7707 53.1539C51.7095 53.4613 51.5585 53.7436 51.3368 53.9652C51.1151 54.1867 50.8327 54.3376 50.5253 54.3986C50.2179 54.4597 49.8993 54.4282 49.6098 54.3081C49.3203 54.1881 49.0729 53.9849 48.8989 53.7242C48.7249 53.4636 48.6321 53.1571 48.6322 52.8437C48.6329 52.4238 48.8001 52.0212 49.0971 51.7244C49.3941 51.4275 49.7968 51.2605 50.2167 51.2601Z" fill="#D14F16"/>
<path d="M57.7328 56.0125C58.3594 56.0125 58.9719 55.8267 59.4929 55.4786C60.0139 55.1305 60.42 54.6357 60.6598 54.0568C60.8996 53.4779 60.9623 52.8409 60.8401 52.2263C60.7178 51.6118 60.4161 51.0473 59.973 50.6042C59.53 50.1611 58.9654 49.8594 58.3509 49.7371C57.7363 49.6149 57.0993 49.6776 56.5204 49.9174C55.9415 50.1572 55.4467 50.5633 55.0986 51.0843C54.7505 51.6053 54.5647 52.2178 54.5647 52.8444C54.5656 53.6843 54.8997 54.4896 55.4937 55.0836C56.0876 55.6775 56.8929 56.0116 57.7328 56.0125ZM57.7328 51.2601C58.0462 51.2601 58.3526 51.353 58.6132 51.5272C58.8738 51.7013 59.0768 51.9488 59.1967 52.2384C59.3166 52.5279 59.348 52.8466 59.2868 53.1539C59.2256 53.4613 59.0746 53.7436 58.8529 53.9652C58.6312 54.1867 58.3489 54.3376 58.0414 54.3986C57.734 54.4597 57.4154 54.4282 57.1259 54.3081C56.8364 54.1881 56.589 53.9849 56.415 53.7242C56.241 53.4636 56.1482 53.1571 56.1484 52.8437C56.149 52.4238 56.3162 52.0212 56.6132 51.7243C56.9102 51.4274 57.3129 51.2605 57.7328 51.2601Z" fill="#D14F16"/>
<path d="M42.7016 49.0211C43.3282 49.0211 43.9407 48.8353 44.4617 48.4871C44.9827 48.139 45.3887 47.6442 45.6285 47.0653C45.8683 46.4864 45.9311 45.8494 45.8088 45.2349C45.6866 44.6203 45.3848 44.0558 44.9418 43.6127C44.4987 43.1697 43.9342 42.8679 43.3196 42.7457C42.7051 42.6234 42.0681 42.6862 41.4892 42.926C40.9103 43.1658 40.4155 43.5718 40.0674 44.0928C39.7193 44.6138 39.5334 45.2263 39.5334 45.8529C39.5344 46.6929 39.8685 47.4982 40.4624 48.0921C41.0563 48.686 41.8616 49.0201 42.7016 49.0211ZM42.7016 44.2685C43.0149 44.2685 43.3213 44.3614 43.5818 44.5355C43.8424 44.7096 44.0455 44.9571 44.1654 45.2466C44.2853 45.5361 44.3167 45.8547 44.2556 46.162C44.1944 46.4694 44.0435 46.7517 43.8219 46.9733C43.6004 47.1949 43.318 47.3458 43.0107 47.407C42.7033 47.4681 42.3847 47.4367 42.0952 47.3168C41.8057 47.1969 41.5582 46.9938 41.3841 46.7332C41.21 46.4727 41.1171 46.1663 41.1171 45.8529C41.1176 45.4329 41.2847 45.0301 41.5817 44.7331C41.8788 44.4361 42.2815 44.269 42.7016 44.2685Z" fill="#D14F16"/>
<path d="M50.2167 49.0211C50.8433 49.0211 51.4558 48.8353 51.9768 48.4871C52.4978 48.139 52.9039 47.6442 53.1437 47.0653C53.3835 46.4864 53.4462 45.8494 53.324 45.2349C53.2017 44.6203 52.9 44.0558 52.4569 43.6127C52.0138 43.1697 51.4493 42.8679 50.8348 42.7457C50.2202 42.6234 49.5832 42.6862 49.0043 42.926C48.4254 43.1658 47.9306 43.5718 47.5825 44.0928C47.2344 44.6138 47.0486 45.2263 47.0486 45.8529C47.0495 46.6929 47.3836 47.4982 47.9775 48.0921C48.5715 48.686 49.3768 49.0201 50.2167 49.0211ZM50.2167 44.2685C50.5301 44.2685 50.8364 44.3614 51.097 44.5355C51.3575 44.7096 51.5606 44.9571 51.6806 45.2466C51.8005 45.5361 51.8319 45.8547 51.7707 46.162C51.7096 46.4694 51.5587 46.7517 51.3371 46.9733C51.1155 47.1949 50.8332 47.3458 50.5258 47.407C50.2185 47.4681 49.8999 47.4367 49.6104 47.3168C49.3208 47.1969 49.0734 46.9938 48.8993 46.7332C48.7252 46.4727 48.6322 46.1663 48.6322 45.8529C48.6327 45.4329 48.7998 45.0301 49.0969 44.7331C49.3939 44.4361 49.7966 44.269 50.2167 44.2685Z" fill="#D14F16"/>
<path d="M57.7328 49.0211C58.3594 49.0211 58.9719 48.8353 59.4929 48.4871C60.0139 48.139 60.42 47.6442 60.6598 47.0653C60.8996 46.4864 60.9623 45.8494 60.8401 45.2349C60.7178 44.6203 60.4161 44.0558 59.973 43.6127C59.53 43.1697 58.9654 42.8679 58.3509 42.7457C57.7363 42.6234 57.0993 42.6862 56.5204 42.926C55.9415 43.1658 55.4467 43.5718 55.0986 44.0928C54.7505 44.6138 54.5647 45.2263 54.5647 45.8529C54.5656 46.6929 54.8997 47.4982 55.4937 48.0921C56.0876 48.686 56.8929 49.0201 57.7328 49.0211ZM57.7328 44.2685C58.0462 44.2685 58.3525 44.3614 58.6131 44.5355C58.8737 44.7096 59.0767 44.9571 59.1967 45.2466C59.3166 45.5361 59.348 45.8547 59.2868 46.162C59.2257 46.4694 59.0748 46.7517 58.8532 46.9733C58.6316 47.1949 58.3493 47.3458 58.0419 47.407C57.7346 47.4681 57.416 47.4367 57.1265 47.3168C56.837 47.1969 56.5895 46.9938 56.4154 46.7332C56.2413 46.4727 56.1484 46.1663 56.1484 45.8529C56.1488 45.4329 56.3159 45.0301 56.6129 44.7331C56.91 44.436 57.3127 44.2689 57.7328 44.2685Z" fill="#D14F16"/>
<path d="M27.9849 40.1201H19.7367C19.5266 40.1201 19.3252 40.2035 19.1767 40.352C19.0283 40.5005 18.9448 40.7019 18.9448 40.9119C18.9448 41.122 19.0283 41.3234 19.1767 41.4719C19.3252 41.6204 19.5266 41.7038 19.7367 41.7038H27.9849C28.1949 41.7038 28.3963 41.6204 28.5448 41.4719C28.6933 41.3234 28.7767 41.122 28.7767 40.9119C28.7767 40.7019 28.6933 40.5005 28.5448 40.352C28.3963 40.2035 28.1949 40.1201 27.9849 40.1201Z" fill="#D14F16"/>
<path d="M15.9666 41.7038H16.7717C16.9817 41.7038 17.1831 41.6204 17.3316 41.4719C17.4801 41.3234 17.5635 41.122 17.5635 40.9119C17.5635 40.7019 17.4801 40.5005 17.3316 40.352C17.1831 40.2035 16.9817 40.1201 16.7717 40.1201H15.9666C15.7566 40.1201 15.5552 40.2035 15.4067 40.352C15.2582 40.5005 15.1748 40.7019 15.1748 40.9119C15.1748 41.122 15.2582 41.3234 15.4067 41.4719C15.5552 41.6204 15.7566 41.7038 15.9666 41.7038Z" fill="#D14F16"/>
<path d="M26.8096 46.8501H22.5023C22.2923 46.8501 22.0909 46.9335 21.9424 47.082C21.7939 47.2305 21.7104 47.4319 21.7104 47.6419C21.7104 47.8519 21.7939 48.0533 21.9424 48.2018C22.0909 48.3503 22.2923 48.4338 22.5023 48.4338H26.8096C27.0196 48.4338 27.221 48.3503 27.3695 48.2018C27.518 48.0533 27.6014 47.8519 27.6014 47.6419C27.6014 47.4319 27.518 47.2305 27.3695 47.082C27.221 46.9335 27.0196 46.8501 26.8096 46.8501Z" fill="#D14F16"/>
<path d="M19.4086 46.8501H15.9666C15.7566 46.8501 15.5552 46.9335 15.4067 47.082C15.2582 47.2305 15.1748 47.4319 15.1748 47.6419C15.1748 47.8519 15.2582 48.0533 15.4067 48.2018C15.5552 48.3503 15.7566 48.4338 15.9666 48.4338H19.4086C19.6186 48.4338 19.82 48.3503 19.9685 48.2018C20.117 48.0533 20.2004 47.8519 20.2004 47.6419C20.2004 47.4319 20.117 47.2305 19.9685 47.082C19.82 46.9335 19.6186 46.8501 19.4086 46.8501Z" fill="#D14F16"/>
<path d="M12.8014 5.51685C12.5913 5.51685 12.3899 5.60027 12.2414 5.74877C12.0929 5.89727 12.0095 6.09867 12.0095 6.30868V6.62713C12.0095 6.83713 12.0929 7.03854 12.2414 7.18704C12.3899 7.33553 12.5913 7.41896 12.8014 7.41896C13.0114 7.41896 13.2128 7.33553 13.3613 7.18704C13.5098 7.03854 13.5932 6.83713 13.5932 6.62713V6.30868C13.5932 6.09867 13.5098 5.89727 13.3613 5.74877C13.2128 5.60027 13.0114 5.51685 12.8014 5.51685Z" fill="#D14F16"/>
<path d="M12.8014 8.92773C12.5913 8.92773 12.3899 9.01116 12.2414 9.15966C12.0929 9.30815 12.0095 9.50956 12.0095 9.71957V20.2084C12.0095 20.4185 12.0929 20.6199 12.2414 20.7684C12.3899 20.9169 12.5913 21.0003 12.8014 21.0003C13.0114 21.0003 13.2128 20.9169 13.3613 20.7684C13.5098 20.6199 13.5932 20.4185 13.5932 20.2084V9.71957C13.5932 9.50956 13.5098 9.30815 13.3613 9.15966C13.2128 9.01116 13.0114 8.92773 12.8014 8.92773Z" fill="#D14F16"/>
<path d="M29.113 7.89868C26.8021 7.89868 24.543 8.58395 22.6216 9.86784C20.7001 11.1517 19.2025 12.9766 18.3181 15.1116C17.4338 17.2466 17.2024 19.5959 17.6532 21.8625C18.1041 24.129 19.2169 26.2109 20.851 27.845C22.485 29.4791 24.567 30.5919 26.8335 31.0427C29.1 31.4936 31.4494 31.2622 33.5844 30.3778C35.7194 29.4935 37.5442 27.9959 38.8281 26.0744C40.112 24.1529 40.7973 21.8939 40.7973 19.583C40.7938 16.4852 39.5616 13.5153 37.3712 11.3248C35.1807 9.13432 32.2108 7.90217 29.113 7.89868ZM39.1957 19.0036H30.8121L36.7881 13.0276C38.2245 14.7016 39.0705 16.8014 39.1957 19.0036ZM29.113 9.48235C31.5179 9.48086 33.8436 10.3414 35.6683 11.9079L29.1168 18.4594L23.9609 10.9005C25.5186 9.97094 27.299 9.48084 29.113 9.48235ZM29.113 29.6835C27.0353 29.6845 25.0079 29.0444 23.3074 27.8507C21.6069 26.6569 20.3161 24.9676 19.6111 23.0132C18.9061 21.0588 18.8213 18.9344 19.3682 16.93C19.9152 14.9256 21.0672 13.1388 22.6671 11.8132L28.4154 20.2416C28.4881 20.3482 28.5856 20.4353 28.6996 20.4956C28.8136 20.5558 28.9406 20.5873 29.0696 20.5873H39.1635C38.9114 23.0786 37.7441 25.3879 35.8875 27.0682C34.0309 28.7485 31.6171 29.6803 29.113 29.6835Z" fill="#D14F16"/>
<path d="M60.7875 29.4298H50.1494V12.3709C50.1534 11.7924 49.9294 11.2355 49.526 10.8208L39.6253 0.669627C39.4193 0.458475 39.1733 0.290501 38.9017 0.175525C38.63 0.0605495 38.3382 0.00087829 38.0432 0H10.3482C10.0598 0.00171694 9.77461 0.060662 9.50916 0.173418C9.24371 0.286175 9.00328 0.450499 8.80181 0.656867C8.60034 0.863234 8.44184 1.10754 8.33549 1.37562C8.22914 1.6437 8.17706 1.93023 8.18227 2.21858V4.35508H6.07573C5.78379 4.34905 5.49354 4.40089 5.22174 4.50759C4.94993 4.6143 4.70194 4.77377 4.49207 4.9768C4.28412 5.17577 4.11815 5.41439 4.00395 5.67857C3.88976 5.94275 3.82965 6.22714 3.82719 6.51494V7.78635H2.23033C1.93953 7.78084 1.65053 7.83322 1.38017 7.94046C1.1098 8.04769 0.863469 8.20764 0.655506 8.41098C0.448777 8.61096 0.284252 8.85036 0.17166 9.11503C0.0590689 9.3797 0.00069795 9.66426 0 9.95188V62.5529C0.0021241 63.1455 0.237529 63.7133 0.655253 64.1336C1.07298 64.5538 1.63941 64.7926 2.23191 64.7983H36.2911C36.6671 65.2529 37.1389 65.6188 37.6728 65.8697C38.2066 66.1207 38.7894 66.2505 39.3793 66.25H60.7875C61.8513 66.25 62.8714 65.8274 63.6235 65.0752C64.3757 64.3231 64.7983 63.3029 64.7983 62.2392V33.4405C64.7983 32.3768 64.3757 31.3567 63.6235 30.6045C62.8714 29.8524 61.8513 29.4298 60.7875 29.4298ZM39.1957 2.49546L47.5222 11.0857H43.2044C42.6755 11.0815 42.1528 10.9727 41.6661 10.7657C41.1795 10.5587 40.7386 10.2575 40.3688 9.87943C39.614 9.11667 39.1922 8.08593 39.1957 7.01287V2.49546ZM5.41086 6.51401C5.41394 6.43409 5.43348 6.35567 5.46824 6.28364C5.50301 6.21161 5.55225 6.14753 5.61291 6.0954C5.74094 5.98398 5.90782 5.92768 6.07718 5.93874H8.18227V54.9627C8.17735 55.2493 8.22995 55.534 8.33696 55.8C8.44397 56.066 8.60322 56.3078 8.8053 56.5111C9.00737 56.7145 9.24817 56.8753 9.51345 56.984C9.77873 57.0926 10.0631 57.147 10.3498 57.1439H35.3685V59.6514H6.07771C5.90166 59.6424 5.73542 59.5676 5.61191 59.4418C5.48841 59.316 5.41665 59.1484 5.41086 58.9723V6.51401ZM2.23231 63.2146C2.0603 63.21 1.89687 63.1385 1.77674 63.0154C1.65486 62.8919 1.58565 62.726 1.58367 62.5525V9.9507C1.58502 9.87094 1.60284 9.79233 1.63602 9.71979C1.6692 9.64725 1.71702 9.58236 1.77648 9.52918C1.83804 9.47377 1.91001 9.43116 1.9882 9.40383C2.06639 9.37651 2.14924 9.36501 2.23191 9.37002H3.82719V58.9725C3.83348 59.5685 4.07216 60.1384 4.49241 60.561C4.91266 60.9836 5.48128 61.2255 6.07718 61.2351H35.3685V62.2392C35.3685 62.5681 35.4088 62.8956 35.4886 63.2146H2.23231ZM35.3685 33.4405V40.483C35.297 40.3715 35.1985 40.2798 35.0823 40.2163C34.966 40.1528 34.8357 40.1195 34.7033 40.1195H31.7402C31.5302 40.1195 31.3288 40.2029 31.1803 40.3514C31.0318 40.4999 30.9484 40.7013 30.9484 40.9114C30.9484 41.1214 31.0318 41.3228 31.1803 41.4713C31.3288 41.6198 31.5302 41.7032 31.7402 41.7032H34.7033C34.8357 41.7032 34.966 41.6699 35.0823 41.6064C35.1985 41.5429 35.297 41.4512 35.3685 41.3397V46.8501H29.8542C29.6442 46.8501 29.4428 46.9335 29.2943 47.082C29.1458 47.2305 29.0624 47.4319 29.0624 47.6419C29.0624 47.8519 29.1458 48.0533 29.2943 48.2018C29.4428 48.3503 29.6442 48.4338 29.8542 48.4338H35.3685V55.5603H10.3502C10.2718 55.5637 10.1936 55.5506 10.1207 55.5218C10.0477 55.493 9.98165 55.4491 9.92681 55.393C9.87144 55.3365 9.82852 55.2689 9.80082 55.1948C9.77311 55.1206 9.76123 55.0415 9.76594 54.9624V2.21713C9.76067 2.13674 9.77179 2.05612 9.79863 1.98016C9.82547 1.90419 9.86746 1.83448 9.92206 1.77524C9.97666 1.716 10.0427 1.66847 10.1163 1.63554C10.1898 1.60261 10.2692 1.58496 10.3498 1.58367H37.6121V7.01247C37.609 8.5024 38.1951 9.93312 39.2425 10.9928C40.2899 12.0524 41.7137 12.655 43.2036 12.6693H48.5657V29.4298H39.3793C38.3156 29.4298 37.2954 29.8524 36.5433 30.6045C35.7911 31.3567 35.3686 32.3768 35.3685 33.4405ZM63.3466 62.2392C63.3423 62.8843 63.083 63.5016 62.6254 63.9563C62.1677 64.411 61.5488 64.6662 60.9037 64.6663H39.443C38.1047 64.6663 36.9522 63.5776 36.9522 62.2392V41.7032H63.3466V62.2392ZM63.3466 40.1195H36.9522V33.4433C36.9522 32.105 38.1047 31.0134 39.443 31.0134H60.9037C61.5491 31.0142 62.1681 31.27 62.6257 31.7252C63.0833 32.1803 63.3424 32.7979 63.3466 33.4433V40.1195Z" fill="#D14F16"/>
</svg>
