<svg width="94" height="94" viewBox="0 0 94 94" fill="none" xmlns="http://www.w3.org/2000/svg">
<circle cx="47" cy="46" r="41" fill="#009944"/>
<circle cx="47" cy="47" r="46.5" stroke="#009944" stroke-dasharray="3 3"/>
<path d="M59.0426 34.3873L68.4299 29.6936L59.0426 25V26.8567H45.5673V28.2752H60.4611V27.295L65.2582 29.6936L60.4611 32.0922V31.1121H39.8936V32.5305H59.0426V34.3873Z" fill="white"/>
<path d="M42.731 26.8564H44.1494V28.2749H42.731V26.8564Z" fill="white"/>
<path d="M39.8936 26.8564H41.312V28.2749H39.8936V26.8564Z" fill="white"/>
<path d="M49.8228 59.043L40.4355 63.7366L49.8228 68.4303V66.5735H63.2981V65.1551H48.4044V66.1352L43.6072 63.7366L48.4044 61.338V62.3182H68.9719V60.8997H49.8228V59.043Z" fill="white"/>
<path d="M64.7168 65.1543H66.1352V66.5727H64.7168V65.1543Z" fill="white"/>
<path d="M67.5532 65.1543H68.9717V66.5727H67.5532V65.1543Z" fill="white"/>
<path d="M64.7168 52.3887H66.1352V53.8071H64.7168V52.3887Z" fill="white"/>
<path d="M61.8799 52.3887H63.2983V53.8071H61.8799V52.3887Z" fill="white"/>
<path d="M59.043 52.3887H60.4614V53.8071H59.043V52.3887Z" fill="white"/>
<path d="M59.043 49.5522H66.1352V50.9707H59.043V49.5522Z" fill="white"/>
<path d="M66.8442 38.2038H61.8797H54.7874H49.9512C47.2469 35.0464 43.3462 33.2393 39.1845 33.2393C31.3632 33.2393 25 39.6024 25 47.4237C25 55.2451 31.3632 61.6082 39.1845 61.6082C43.3462 61.6082 47.2469 59.8011 49.9512 56.6437H66.8442C68.0173 56.6437 68.9719 55.689 68.9719 54.516V40.3315C68.9719 39.1584 68.0173 38.2038 66.8442 38.2038ZM60.4612 39.6223V42.4592H56.2059V39.6223H60.4612ZM48.4852 38.6904C48.1874 38.9336 47.9576 39.2528 47.8257 39.6223H43.9618C43.4902 37.7407 42.8363 36.113 42.0086 34.9719C44.476 35.5293 46.7264 36.8152 48.4852 38.6904ZM47.6952 53.8068H44.2753C44.6186 52.016 44.8122 50.0684 44.8505 48.133H47.6952V53.8068ZM39.1845 60.1898C37.9859 60.1898 36.7086 58.3195 35.8696 55.2252H42.5001C41.6604 58.3195 40.3831 60.1898 39.1845 60.1898ZM35.5306 53.8068C35.1944 52.1571 34.983 50.2401 34.9426 48.133H43.4271C43.3866 50.2401 43.1746 52.1571 42.8391 53.8068H35.5306ZM26.4546 48.133H33.5185C33.5568 50.0684 33.7504 52.016 34.0937 53.8068H28.1461C27.1667 52.1202 26.5681 50.1918 26.4546 48.133ZM39.1845 34.6577C40.3831 34.6577 41.6604 36.5279 42.4994 39.6223H35.8689C36.7086 36.5279 37.9859 34.6577 39.1845 34.6577ZM42.8384 41.0407C43.1746 42.6904 43.3859 44.6074 43.4263 46.7145H34.9426C34.983 44.6074 35.1951 42.6904 35.5306 41.0407H42.8384ZM33.5185 46.7145H26.4546C26.5688 44.6556 27.1667 42.7273 28.1461 41.0407H34.0937C33.7504 42.8315 33.5568 44.779 33.5185 46.7145ZM47.6952 46.7145H44.8505C44.8122 44.779 44.6186 42.8315 44.2753 41.0407H47.6952V46.7145ZM36.3504 34.9854C35.5277 36.1258 34.8767 37.7478 34.4071 39.6223H29.1022C30.8837 37.3251 33.4242 35.6527 36.3504 34.9854ZM29.1022 55.2252H34.4071C34.8767 57.0997 35.527 58.7217 36.3504 59.8614C33.4242 59.1947 30.8837 57.5224 29.1022 55.2252ZM42.0086 59.8756C42.8363 58.7344 43.4902 57.1068 43.9618 55.2252H47.8257C47.9576 55.5947 48.1867 55.9139 48.4852 56.1571C46.7264 58.0323 44.476 59.3181 42.0086 59.8756ZM67.5534 54.516C67.5534 54.9075 67.235 55.2252 66.8442 55.2252H49.8228C49.4321 55.2252 49.1136 54.9075 49.1136 54.516V40.3315C49.1136 39.9407 49.4321 39.6223 49.8228 39.6223H54.7874V43.8776H61.8797V39.6223H66.8442C67.235 39.6223 67.5534 39.9407 67.5534 40.3315V54.516Z" fill="white"/>
<path d="M36.3477 49.5522H37.7661V50.9707H36.3477V49.5522Z" fill="white"/>
<path d="M39.1846 49.5522H40.603V50.9707H39.1846V49.5522Z" fill="white"/>
<path d="M40.603 43.8779H42.0215V45.2964H40.603V43.8779Z" fill="white"/>
<path d="M37.7661 43.8779H39.1846V45.2964H37.7661V43.8779Z" fill="white"/>
</svg>
