<svg width="94" height="94" viewBox="0 0 94 94" fill="none" xmlns="http://www.w3.org/2000/svg">
<circle cx="47" cy="46" r="41" fill="#009944"/>
<circle cx="47" cy="47" r="46.5" stroke="#009944" stroke-dasharray="3 3"/>
<path d="M68.6089 42.7139C68.44 42.1494 68.0538 41.6751 67.5352 41.3953C67.0165 41.1155 66.408 41.0532 65.8435 41.2221L45.9762 47.1663C45.8661 47.1993 45.7652 47.2575 45.6814 47.3362L43.2677 49.6043C43.1674 49.6985 43.0954 49.8187 43.0596 49.9515C43.0239 50.0844 43.0258 50.2245 43.0652 50.3563C43.1046 50.4881 43.18 50.6063 43.2828 50.6976C43.3856 50.789 43.5118 50.85 43.6473 50.8737L46.91 51.4436C47.0233 51.4633 47.1396 51.4565 47.2498 51.4236L63.3702 46.6003L63.44 48.1255L58.3176 49.658L58.7422 51.0772L64.4185 49.3788C64.5768 49.3315 64.7147 49.2326 64.8103 49.0979C64.9059 48.9633 64.9538 48.8005 64.9462 48.6355L64.833 46.1633L67.1172 45.4799C67.6817 45.3109 68.156 44.9247 68.4358 44.4061C68.7155 43.8874 68.7778 43.2789 68.6089 42.7144V42.7139ZM46.9928 49.9544L45.3614 49.6695L46.5683 48.5353L49.9485 47.5242L50.3731 48.9432L46.9928 49.9544ZM51.7921 48.5185L51.3675 47.0994L63.2307 43.5499L63.3005 45.0752L51.7921 48.5185ZM67.1323 43.7023C67.0863 43.788 67.0238 43.8638 66.9483 43.9253C66.8729 43.9867 66.786 44.0326 66.6927 44.0603L64.7633 44.6375L64.6935 43.1123L66.2682 42.6411C66.4085 42.5992 66.5581 42.5997 66.6981 42.6428C66.8381 42.6858 66.9622 42.7695 67.0547 42.883C67.1472 42.9966 67.2039 43.1351 67.2178 43.2809C67.2316 43.4267 67.2018 43.5734 67.1323 43.7023Z" fill="white"/>
<path d="M53.4031 53.1063H40.8125V41.997C40.8125 41.8005 40.7345 41.6122 40.5956 41.4733C40.4567 41.3344 40.2683 41.2563 40.0719 41.2563H26.7406C26.5442 41.2563 26.3558 41.3344 26.2169 41.4733C26.078 41.6122 26 41.8005 26 41.997V65.697C26 65.8934 26.078 66.0818 26.2169 66.2207C26.3558 66.3596 26.5442 66.4376 26.7406 66.4376H53.4031C53.5996 66.4376 53.7879 66.3596 53.9268 66.2207C54.0657 66.0818 54.1437 65.8934 54.1437 65.697V53.847C54.1437 53.6505 54.0657 53.4622 53.9268 53.3233C53.7879 53.1844 53.5996 53.1063 53.4031 53.1063ZM45.2562 54.5876H48.2187V57.5501H45.2562V54.5876ZM31.925 42.7376H34.8875V45.7001H31.925V42.7376ZM27.4812 42.7376H30.4437V46.4407C30.4437 46.6371 30.5218 46.8255 30.6607 46.9644C30.7996 47.1033 30.9879 47.1813 31.1844 47.1813H35.6281C35.8246 47.1813 36.0129 47.1033 36.1518 46.9644C36.2907 46.8255 36.3687 46.6371 36.3687 46.4407V42.7376H39.3312V53.1063H27.4812V42.7376ZM31.925 54.5876H34.8875V57.5501H31.925V54.5876ZM27.4812 54.5876H30.4437V58.2907C30.4437 58.4871 30.5218 58.6755 30.6607 58.8144C30.7996 58.9533 30.9879 59.0313 31.1844 59.0313H35.6281C35.8246 59.0313 36.0129 58.9533 36.1518 58.8144C36.2907 58.6755 36.3687 58.4871 36.3687 58.2907V54.5876H39.3312V64.9563H27.4812V54.5876ZM52.6625 64.9563H40.8125V54.5876H43.775V58.2907C43.775 58.4871 43.853 58.6755 43.9919 58.8144C44.1308 58.9533 44.3192 59.0313 44.5156 59.0313H48.9594C49.1558 59.0313 49.3442 58.9533 49.4831 58.8144C49.622 58.6755 49.7 58.4871 49.7 58.2907V54.5876H52.6625V64.9563Z" fill="white"/>
<path d="M49.7002 61.9937H51.1814V63.4749H49.7002V61.9937Z" fill="white"/>
<path d="M36.3687 61.9937H37.8499V63.4749H36.3687V61.9937Z" fill="white"/>
<path d="M36.3687 50.1436H37.8499V51.6248H36.3687V50.1436Z" fill="white"/>
<path d="M37.8499 27.925C37.8504 27.5323 38.0066 27.1558 38.2843 26.8781C38.562 26.6004 38.9384 26.4442 39.3312 26.4438H43.7749V27.925H40.0718C39.8754 27.925 39.687 28.003 39.5481 28.1419C39.4092 28.2808 39.3312 28.4692 39.3312 28.6656V39.775H40.8124V29.4062H58.5874V41.2563H60.0687V28.6656C60.0687 28.4692 59.9906 28.2808 59.8517 28.1419C59.7128 28.003 59.5245 27.925 59.328 27.925H55.6249V26.4438H60.0687C60.4614 26.4442 60.8379 26.6004 61.1155 26.8781C61.3932 27.1558 61.5494 27.5323 61.5499 27.925V40.5156H63.0312V27.925C63.0303 27.1396 62.7179 26.3866 62.1625 25.8312C61.6071 25.2758 60.8541 24.9634 60.0687 24.9625H52.8703L53.3809 22.9202C53.4082 22.811 53.4102 22.6971 53.3869 22.587C53.3635 22.4769 53.3154 22.3735 53.2461 22.2848C53.1769 22.1961 53.0883 22.1244 52.9872 22.075C52.886 22.0257 52.775 22 52.6624 22H46.7374C46.6249 22 46.5138 22.0257 46.4126 22.075C46.3115 22.1244 46.2229 22.1961 46.1537 22.2848C46.0844 22.3735 46.0363 22.4769 46.0129 22.587C45.9896 22.6971 45.9916 22.811 46.0189 22.9202L46.5295 24.9625H39.3312C38.5457 24.9634 37.7927 25.2758 37.2373 25.8312C36.6819 26.3866 36.3695 27.1396 36.3687 27.925V39.775H37.8499V27.925ZM45.2562 26.4438H47.478C47.5906 26.4437 47.7016 26.4181 47.8028 26.3687C47.9039 26.3194 47.9925 26.2476 48.0618 26.1589C48.131 26.0702 48.1792 25.9669 48.2025 25.8568C48.2259 25.7467 48.2238 25.6327 48.1965 25.5235L47.686 23.4813H51.7138L51.2033 25.5235C51.176 25.6327 51.1739 25.7467 51.1973 25.8568C51.2206 25.9669 51.2688 26.0702 51.338 26.1589C51.4073 26.2476 51.4959 26.3194 51.597 26.3687C51.6982 26.4181 51.8092 26.4437 51.9218 26.4438H54.1437V27.925H45.2562V26.4438Z" fill="white"/>
<path d="M61.55 58.2906C61.5495 58.6833 61.3933 59.0598 61.1156 59.3375C60.838 59.6152 60.4615 59.7714 60.0688 59.7719H55.625V61.2531H60.0688C60.8542 61.2522 61.6072 60.9398 62.1626 60.3845C62.718 59.8291 63.0304 59.0761 63.0312 58.2906V51.625H61.55V58.2906Z" fill="white"/>
<path d="M60.0687 57.5501V52.3657H58.5875V56.8095H55.625V58.2907H59.3281C59.5246 58.2907 59.7129 58.2127 59.8518 58.0738C59.9907 57.9349 60.0687 57.7465 60.0687 57.5501Z" fill="white"/>
<path d="M46.7377 31.6283C46.7377 31.4319 46.6597 31.2435 46.5208 31.1046C46.3819 30.9657 46.1935 30.8877 45.9971 30.8877H43.0346C42.8381 30.8877 42.6498 30.9657 42.5109 31.1046C42.372 31.2435 42.2939 31.4319 42.2939 31.6283V34.5908C42.2939 34.7872 42.372 34.9756 42.5109 35.1145C42.6498 35.2534 42.8381 35.3314 43.0346 35.3314H45.9971C46.1935 35.3314 46.3819 35.2534 46.5208 35.1145C46.6597 34.9756 46.7377 34.7872 46.7377 34.5908V31.6283ZM45.2564 33.8502H43.7752V32.3689H45.2564V33.8502Z" fill="white"/>
<path d="M45.9971 37.5532H43.0346C42.8381 37.5532 42.6498 37.6313 42.5109 37.7701C42.372 37.909 42.2939 38.0974 42.2939 38.2938V41.2563C42.2939 41.4528 42.372 41.6412 42.5109 41.78C42.6498 41.9189 42.8381 41.997 43.0346 41.997H45.9971C46.1935 41.997 46.3819 41.9189 46.5208 41.78C46.6597 41.6412 46.7377 41.4528 46.7377 41.2563V38.2938C46.7377 38.0974 46.6597 37.909 46.5208 37.7701C46.3819 37.6313 46.1935 37.5532 45.9971 37.5532ZM45.2564 40.5157H43.7752V39.0345H45.2564V40.5157Z" fill="white"/>
<path d="M48.2188 30.8877H49.7V32.3689H48.2188V30.8877Z" fill="white"/>
<path d="M48.2188 33.8501H57.1062V35.3313H48.2188V33.8501Z" fill="white"/>
<path d="M51.1812 30.8877H57.1062V32.3689H51.1812V30.8877Z" fill="white"/>
<path d="M48.2188 37.5532H49.7V39.0345H48.2188V37.5532Z" fill="white"/>
<path d="M48.2188 40.5156H57.1062V41.9969H48.2188V40.5156Z" fill="white"/>
<path d="M51.1812 37.5532H57.1062V39.0345H51.1812V37.5532Z" fill="white"/>
</svg>
