<svg width="65" height="67" viewBox="0 0 65 67" fill="none" xmlns="http://www.w3.org/2000/svg">
<path d="M60.4431 32.7285H39.9874C39.7774 32.7285 39.576 32.8119 39.4275 32.9604C39.279 33.1089 39.1956 33.3103 39.1956 33.5203V38.1394C39.1956 38.3494 39.279 38.5508 39.4275 38.6993C39.576 38.8478 39.7774 38.9312 39.9874 38.9312H60.4431C60.6531 38.9312 60.8545 38.8478 61.003 38.6993C61.1515 38.5508 61.2349 38.3494 61.2349 38.1394V33.5203C61.2349 33.3103 61.1515 33.1089 61.003 32.9604C60.8545 32.8119 60.6531 32.7285 60.4431 32.7285ZM59.5193 37.3475H40.7792V34.3122H59.5193V37.3475Z" fill="#2D73C3"/>
<path d="M42.7016 63.0032C43.3282 63.0032 43.9407 62.8174 44.4617 62.4693C44.9827 62.1212 45.3888 61.6264 45.6285 61.0475C45.8683 60.4686 45.9311 59.8316 45.8088 59.217C45.6866 58.6024 45.3848 58.0379 44.9417 57.5949C44.4986 57.1518 43.9341 56.8501 43.3196 56.7279C42.705 56.6056 42.068 56.6684 41.4891 56.9082C40.9102 57.148 40.4154 57.5541 40.0673 58.0751C39.7192 58.5961 39.5334 59.2086 39.5334 59.8352C39.5344 60.6752 39.8685 61.4804 40.4625 62.0743C41.0564 62.6682 41.8616 63.0023 42.7016 63.0032ZM42.7016 58.2508C43.0149 58.2508 43.3213 58.3437 43.5818 58.5178C43.8424 58.6919 44.0455 58.9394 44.1654 59.2289C44.2853 59.5184 44.3167 59.837 44.2556 60.1444C44.1944 60.4517 44.0435 60.734 43.8219 60.9556C43.6004 61.1772 43.318 61.3281 43.0107 61.3893C42.7033 61.4504 42.3847 61.419 42.0952 61.2991C41.8057 61.1792 41.5582 60.9761 41.3841 60.7155C41.21 60.455 41.1171 60.1486 41.1171 59.8352C41.1175 59.4151 41.2845 59.0123 41.5816 58.7152C41.8786 58.4181 42.2814 58.251 42.7016 58.2505V58.2508Z" fill="#2D73C3"/>
<path d="M50.2167 63.0032C50.8433 63.0032 51.4558 62.8174 51.9768 62.4693C52.4978 62.1212 52.9039 61.6264 53.1437 61.0475C53.3835 60.4686 53.4462 59.8316 53.3239 59.217C53.2017 58.6024 52.8999 58.0379 52.4569 57.5949C52.0138 57.1518 51.4493 56.8501 50.8347 56.7279C50.2201 56.6056 49.5831 56.6684 49.0042 56.9082C48.4253 57.148 47.9305 57.5541 47.5824 58.0751C47.2343 58.5961 47.0486 59.2086 47.0486 59.8352C47.0496 60.6752 47.3837 61.4804 47.9776 62.0743C48.5715 62.6682 49.3768 63.0023 50.2167 63.0032ZM50.2167 58.2508C50.5301 58.2508 50.8364 58.3437 51.097 58.5178C51.3575 58.6919 51.5606 58.9394 51.6806 59.2289C51.8005 59.5184 51.8319 59.837 51.7707 60.1444C51.7096 60.4517 51.5587 60.734 51.3371 60.9556C51.1155 61.1772 50.8332 61.3281 50.5258 61.3893C50.2185 61.4504 49.8999 61.419 49.6104 61.2991C49.3208 61.1792 49.0734 60.9761 48.8993 60.7155C48.7252 60.455 48.6322 60.1486 48.6322 59.8352C48.6326 59.4151 48.7997 59.0123 49.0967 58.7152C49.3938 58.4181 49.7966 58.251 50.2167 58.2505V58.2508Z" fill="#2D73C3"/>
<path d="M57.7328 63.0032C58.3594 63.0032 58.9719 62.8174 59.4929 62.4693C60.0139 62.1212 60.42 61.6264 60.6598 61.0475C60.8996 60.4686 60.9623 59.8316 60.8401 59.217C60.7178 58.6024 60.4161 58.0379 59.973 57.5949C59.5299 57.1518 58.9654 56.8501 58.3508 56.7279C57.7362 56.6056 57.0992 56.6684 56.5203 56.9082C55.9414 57.148 55.4467 57.5541 55.0986 58.0751C54.7505 58.5961 54.5647 59.2086 54.5647 59.8352C54.5657 60.6752 54.8998 61.4804 55.4937 62.0743C56.0876 62.6682 56.8929 63.0023 57.7328 63.0032ZM57.7328 58.2508C58.0462 58.2508 58.3525 58.3437 58.6131 58.5178C58.8737 58.6919 59.0767 58.9394 59.1967 59.2289C59.3166 59.5184 59.348 59.837 59.2868 60.1444C59.2257 60.4517 59.0748 60.734 58.8532 60.9556C58.6316 61.1772 58.3493 61.3281 58.0419 61.3893C57.7346 61.4504 57.416 61.419 57.1265 61.2991C56.837 61.1792 56.5895 60.9761 56.4154 60.7155C56.2413 60.455 56.1484 60.1486 56.1484 59.8352C56.1487 59.4151 56.3157 59.0123 56.6128 58.7152C56.9099 58.418 57.3127 58.2509 57.7328 58.2505V58.2508Z" fill="#2D73C3"/>
<path d="M42.7016 56.013C43.3282 56.013 43.9407 55.8272 44.4617 55.4791C44.9827 55.131 45.3887 54.6362 45.6285 54.0573C45.8683 53.4784 45.9311 52.8414 45.8088 52.2268C45.6866 51.6123 45.3848 51.0477 44.9418 50.6047C44.4987 50.1616 43.9342 49.8599 43.3196 49.7376C42.7051 49.6154 42.0681 49.6781 41.4892 49.9179C40.9103 50.1577 40.4155 50.5638 40.0674 51.0848C39.7193 51.6058 39.5334 52.2183 39.5334 52.8449C39.5344 53.6848 39.8685 54.4901 40.4624 55.084C41.0563 55.678 41.8616 56.0121 42.7016 56.013ZM42.7016 51.2606C43.015 51.2606 43.3213 51.3535 43.5819 51.5276C43.8425 51.7018 44.0456 51.9493 44.1655 52.2389C44.2854 52.5284 44.3167 52.847 44.2555 53.1544C44.1943 53.4618 44.0433 53.7441 43.8217 53.9657C43.6 54.1872 43.3176 54.3381 43.0102 54.3991C42.7028 54.4602 42.3842 54.4287 42.0947 54.3086C41.8052 54.1886 41.5578 53.9854 41.3838 53.7247C41.2097 53.464 41.117 53.1576 41.1171 52.8442C41.1178 52.4243 41.2849 52.0217 41.582 51.7249C41.879 51.428 42.2816 51.261 42.7016 51.2606Z" fill="#2D73C3"/>
<path d="M50.2167 56.013C50.8433 56.013 51.4558 55.8272 51.9768 55.4791C52.4978 55.131 52.9039 54.6362 53.1437 54.0573C53.3835 53.4784 53.4462 52.8414 53.324 52.2268C53.2017 51.6123 52.9 51.0477 52.4569 50.6047C52.0138 50.1616 51.4493 49.8599 50.8348 49.7376C50.2202 49.6154 49.5832 49.6781 49.0043 49.9179C48.4254 50.1577 47.9306 50.5638 47.5825 51.0848C47.2344 51.6058 47.0486 52.2183 47.0486 52.8449C47.0495 53.6848 47.3836 54.4901 47.9775 55.084C48.5715 55.678 49.3768 56.0121 50.2167 56.013ZM50.2167 51.2606C50.5301 51.2606 50.8365 51.3535 51.0971 51.5276C51.3576 51.7018 51.5607 51.9493 51.6806 52.2389C51.8005 52.5284 51.8319 52.847 51.7707 53.1544C51.7095 53.4618 51.5585 53.7441 51.3368 53.9657C51.1151 54.1872 50.8327 54.3381 50.5253 54.3991C50.2179 54.4602 49.8993 54.4287 49.6098 54.3086C49.3203 54.1886 49.0729 53.9854 48.8989 53.7247C48.7249 53.464 48.6321 53.1576 48.6322 52.8442C48.6329 52.4243 48.8001 52.0217 49.0971 51.7249C49.3941 51.428 49.7968 51.261 50.2167 51.2606Z" fill="#2D73C3"/>
<path d="M57.7328 56.013C58.3594 56.013 58.9719 55.8272 59.4929 55.4791C60.0139 55.131 60.42 54.6362 60.6598 54.0573C60.8996 53.4784 60.9623 52.8414 60.8401 52.2268C60.7178 51.6123 60.4161 51.0477 59.973 50.6047C59.53 50.1616 58.9654 49.8599 58.3509 49.7376C57.7363 49.6154 57.0993 49.6781 56.5204 49.9179C55.9415 50.1577 55.4467 50.5638 55.0986 51.0848C54.7505 51.6058 54.5647 52.2183 54.5647 52.8449C54.5656 53.6848 54.8997 54.4901 55.4937 55.084C56.0876 55.678 56.8929 56.0121 57.7328 56.013ZM57.7328 51.2606C58.0462 51.2606 58.3526 51.3535 58.6132 51.5276C58.8738 51.7018 59.0768 51.9493 59.1967 52.2389C59.3166 52.5284 59.348 52.847 59.2868 53.1544C59.2256 53.4618 59.0746 53.7441 58.8529 53.9657C58.6312 54.1872 58.3489 54.3381 58.0414 54.3991C57.734 54.4602 57.4154 54.4287 57.1259 54.3086C56.8364 54.1886 56.589 53.9854 56.415 53.7247C56.241 53.464 56.1482 53.1576 56.1484 52.8442C56.149 52.4243 56.3162 52.0217 56.6132 51.7248C56.9102 51.4279 57.3129 51.261 57.7328 51.2606Z" fill="#2D73C3"/>
<path d="M42.7016 49.0208C43.3282 49.0208 43.9407 48.835 44.4617 48.4869C44.9827 48.1388 45.3887 47.644 45.6285 47.0651C45.8683 46.4862 45.9311 45.8492 45.8088 45.2346C45.6866 44.6201 45.3848 44.0556 44.9418 43.6125C44.4987 43.1694 43.9342 42.8677 43.3196 42.7454C42.7051 42.6232 42.0681 42.6859 41.4892 42.9257C40.9103 43.1655 40.4155 43.5716 40.0674 44.0926C39.7193 44.6136 39.5334 45.2261 39.5334 45.8527C39.5344 46.6926 39.8685 47.4979 40.4624 48.0919C41.0563 48.6858 41.8616 49.0199 42.7016 49.0208ZM42.7016 44.2682C43.0149 44.2682 43.3213 44.3612 43.5818 44.5353C43.8424 44.7094 44.0455 44.9568 44.1654 45.2463C44.2853 45.5359 44.3167 45.8544 44.2556 46.1618C44.1944 46.4692 44.0435 46.7515 43.8219 46.9731C43.6004 47.1947 43.318 47.3456 43.0107 47.4067C42.7033 47.4678 42.3847 47.4365 42.0952 47.3165C41.8057 47.1966 41.5582 46.9935 41.3841 46.733C41.21 46.4724 41.1171 46.1661 41.1171 45.8527C41.1176 45.4326 41.2847 45.0299 41.5817 44.7329C41.8788 44.4358 42.2815 44.2687 42.7016 44.2682Z" fill="#2D73C3"/>
<path d="M50.2167 49.0208C50.8433 49.0208 51.4558 48.835 51.9768 48.4869C52.4978 48.1388 52.9039 47.644 53.1437 47.0651C53.3835 46.4862 53.4462 45.8492 53.324 45.2346C53.2017 44.6201 52.9 44.0556 52.4569 43.6125C52.0138 43.1694 51.4493 42.8677 50.8348 42.7454C50.2202 42.6232 49.5832 42.6859 49.0043 42.9257C48.4254 43.1655 47.9306 43.5716 47.5825 44.0926C47.2344 44.6136 47.0486 45.2261 47.0486 45.8527C47.0495 46.6926 47.3836 47.4979 47.9775 48.0919C48.5715 48.6858 49.3768 49.0199 50.2167 49.0208ZM50.2167 44.2682C50.5301 44.2682 50.8364 44.3612 51.097 44.5353C51.3575 44.7094 51.5606 44.9568 51.6806 45.2463C51.8005 45.5359 51.8319 45.8544 51.7707 46.1618C51.7096 46.4692 51.5587 46.7515 51.3371 46.9731C51.1155 47.1947 50.8332 47.3456 50.5258 47.4067C50.2185 47.4678 49.8999 47.4365 49.6104 47.3165C49.3208 47.1966 49.0734 46.9935 48.8993 46.733C48.7252 46.4724 48.6322 46.1661 48.6322 45.8527C48.6327 45.4326 48.7998 45.0299 49.0969 44.7329C49.3939 44.4358 49.7966 44.2687 50.2167 44.2682Z" fill="#2D73C3"/>
<path d="M57.7328 49.0208C58.3594 49.0208 58.9719 48.835 59.4929 48.4869C60.0139 48.1388 60.42 47.644 60.6598 47.0651C60.8996 46.4862 60.9623 45.8492 60.8401 45.2346C60.7178 44.6201 60.4161 44.0556 59.973 43.6125C59.53 43.1694 58.9654 42.8677 58.3509 42.7454C57.7363 42.6232 57.0993 42.6859 56.5204 42.9257C55.9415 43.1655 55.4467 43.5716 55.0986 44.0926C54.7505 44.6136 54.5647 45.2261 54.5647 45.8527C54.5656 46.6926 54.8997 47.4979 55.4937 48.0919C56.0876 48.6858 56.8929 49.0199 57.7328 49.0208ZM57.7328 44.2682C58.0462 44.2682 58.3525 44.3612 58.6131 44.5353C58.8737 44.7094 59.0767 44.9568 59.1967 45.2463C59.3166 45.5359 59.348 45.8544 59.2868 46.1618C59.2257 46.4692 59.0748 46.7515 58.8532 46.9731C58.6316 47.1947 58.3493 47.3456 58.0419 47.4067C57.7346 47.4678 57.416 47.4365 57.1265 47.3165C56.837 47.1966 56.5895 46.9935 56.4154 46.733C56.2413 46.4724 56.1484 46.1661 56.1484 45.8527C56.1488 45.4326 56.3159 45.0299 56.6129 44.7328C56.91 44.4358 57.3127 44.2687 57.7328 44.2682Z" fill="#2D73C3"/>
<path d="M27.9849 40.1201H19.7367C19.5266 40.1201 19.3252 40.2035 19.1767 40.352C19.0283 40.5005 18.9448 40.7019 18.9448 40.9119C18.9448 41.122 19.0283 41.3234 19.1767 41.4719C19.3252 41.6204 19.5266 41.7038 19.7367 41.7038H27.9849C28.1949 41.7038 28.3963 41.6204 28.5448 41.4719C28.6933 41.3234 28.7767 41.122 28.7767 40.9119C28.7767 40.7019 28.6933 40.5005 28.5448 40.352C28.3963 40.2035 28.1949 40.1201 27.9849 40.1201Z" fill="#2D73C3"/>
<path d="M15.9666 41.7038H16.7717C16.9817 41.7038 17.1831 41.6204 17.3316 41.4719C17.4801 41.3234 17.5635 41.122 17.5635 40.9119C17.5635 40.7019 17.4801 40.5005 17.3316 40.352C17.1831 40.2035 16.9817 40.1201 16.7717 40.1201H15.9666C15.7566 40.1201 15.5552 40.2035 15.4067 40.352C15.2582 40.5005 15.1748 40.7019 15.1748 40.9119C15.1748 41.122 15.2582 41.3234 15.4067 41.4719C15.5552 41.6204 15.7566 41.7038 15.9666 41.7038Z" fill="#2D73C3"/>
<path d="M26.8096 46.8506H22.5023C22.2923 46.8506 22.0909 46.934 21.9424 47.0825C21.7939 47.231 21.7104 47.4324 21.7104 47.6424C21.7104 47.8524 21.7939 48.0538 21.9424 48.2023C22.0909 48.3508 22.2923 48.4343 22.5023 48.4343H26.8096C27.0196 48.4343 27.221 48.3508 27.3695 48.2023C27.518 48.0538 27.6014 47.8524 27.6014 47.6424C27.6014 47.4324 27.518 47.231 27.3695 47.0825C27.221 46.934 27.0196 46.8506 26.8096 46.8506Z" fill="#2D73C3"/>
<path d="M19.4086 46.8506H15.9666C15.7566 46.8506 15.5552 46.934 15.4067 47.0825C15.2582 47.231 15.1748 47.4324 15.1748 47.6424C15.1748 47.8524 15.2582 48.0538 15.4067 48.2023C15.5552 48.3508 15.7566 48.4343 15.9666 48.4343H19.4086C19.6186 48.4343 19.82 48.3508 19.9685 48.2023C20.117 48.0538 20.2004 47.8524 20.2004 47.6424C20.2004 47.4324 20.117 47.231 19.9685 47.0825C19.82 46.934 19.6186 46.8506 19.4086 46.8506Z" fill="#2D73C3"/>
<path d="M12.8014 5.5166C12.5913 5.5166 12.3899 5.60003 12.2414 5.74852C12.0929 5.89702 12.0095 6.09843 12.0095 6.30843V6.62688C12.0095 6.83689 12.0929 7.0383 12.2414 7.18679C12.3899 7.33529 12.5913 7.41872 12.8014 7.41872C13.0114 7.41872 13.2128 7.33529 13.3613 7.18679C13.5098 7.0383 13.5932 6.83689 13.5932 6.62688V6.30843C13.5932 6.09843 13.5098 5.89702 13.3613 5.74852C13.2128 5.60003 13.0114 5.5166 12.8014 5.5166Z" fill="#2D73C3"/>
<path d="M12.8014 8.92773C12.5913 8.92773 12.3899 9.01116 12.2414 9.15966C12.0929 9.30815 12.0095 9.50956 12.0095 9.71957V20.2084C12.0095 20.4185 12.0929 20.6199 12.2414 20.7684C12.3899 20.9169 12.5913 21.0003 12.8014 21.0003C13.0114 21.0003 13.2128 20.9169 13.3613 20.7684C13.5098 20.6199 13.5932 20.4185 13.5932 20.2084V9.71957C13.5932 9.50956 13.5098 9.30815 13.3613 9.15966C13.2128 9.01116 13.0114 8.92773 12.8014 8.92773Z" fill="#2D73C3"/>
<path d="M29.113 7.89844C26.8021 7.89844 24.543 8.58371 22.6216 9.86759C20.7001 11.1515 19.2025 12.9763 18.3181 15.1113C17.4338 17.2464 17.2024 19.5957 17.6532 21.8622C18.1041 24.1287 19.2169 26.2107 20.851 27.8448C22.485 29.4788 24.567 30.5917 26.8335 31.0425C29.1 31.4933 31.4494 31.2619 33.5844 30.3776C35.7194 29.4932 37.5442 27.9956 38.8281 26.0742C40.112 24.1527 40.7973 21.8937 40.7973 19.5827C40.7938 16.4849 39.5616 13.515 37.3712 11.3245C35.1807 9.13407 32.2108 7.90193 29.113 7.89844ZM39.1957 19.0034H30.8121L36.7881 13.0274C38.2245 14.7013 39.0705 16.8012 39.1957 19.0034ZM29.113 9.4821C31.5179 9.48061 33.8436 10.3412 35.6683 11.9076L29.1168 18.4591L23.9609 10.9003C25.5186 9.97069 27.299 9.4806 29.113 9.4821ZM29.113 29.6832C27.0353 29.6842 25.0079 29.0442 23.3074 27.8505C21.6069 26.6567 20.3161 24.9674 19.6111 23.013C18.9061 21.0585 18.8213 18.9342 19.3682 16.9298C19.9152 14.9254 21.0672 13.1385 22.6671 11.813L28.4154 20.2414C28.4881 20.3479 28.5856 20.4351 28.6996 20.4953C28.8136 20.5556 28.9406 20.587 29.0696 20.587H39.1635C38.9114 23.0784 37.7441 25.3876 35.8875 27.0679C34.0309 28.7482 31.6171 29.6801 29.113 29.6832Z" fill="#2D73C3"/>
<path d="M60.7875 29.4298H50.1494V12.3709C50.1534 11.7924 49.9294 11.2355 49.526 10.8208L39.6253 0.669627C39.4193 0.458475 39.1733 0.290501 38.9017 0.175525C38.63 0.0605495 38.3382 0.00087829 38.0432 0H10.3482C10.0598 0.00171694 9.77461 0.060662 9.50916 0.173418C9.24371 0.286175 9.00328 0.450499 8.80181 0.656867C8.60034 0.863234 8.44184 1.10754 8.33549 1.37562C8.22914 1.6437 8.17706 1.93023 8.18227 2.21858V4.35508H6.07573C5.78379 4.34905 5.49354 4.40089 5.22174 4.50759C4.94993 4.6143 4.70194 4.77377 4.49207 4.9768C4.28412 5.17577 4.11815 5.41439 4.00395 5.67857C3.88976 5.94275 3.82965 6.22714 3.82719 6.51494V7.78635H2.23033C1.93953 7.78084 1.65053 7.83322 1.38017 7.94046C1.1098 8.04769 0.863469 8.20764 0.655506 8.41098C0.448777 8.61096 0.284252 8.85036 0.17166 9.11503C0.0590689 9.3797 0.00069795 9.66426 0 9.95188V62.5529C0.0021241 63.1455 0.237529 63.7133 0.655253 64.1336C1.07298 64.5538 1.63941 64.7926 2.23191 64.7983H36.2911C36.6671 65.2529 37.1389 65.6188 37.6728 65.8697C38.2066 66.1207 38.7894 66.2505 39.3793 66.25H60.7875C61.8513 66.25 62.8714 65.8274 63.6235 65.0752C64.3757 64.3231 64.7983 63.3029 64.7983 62.2392V33.4405C64.7983 32.3768 64.3757 31.3567 63.6235 30.6045C62.8714 29.8524 61.8513 29.4298 60.7875 29.4298ZM39.1957 2.49546L47.5222 11.0857H43.2044C42.6755 11.0815 42.1528 10.9727 41.6661 10.7657C41.1795 10.5587 40.7386 10.2575 40.3688 9.87943C39.614 9.11667 39.1922 8.08593 39.1957 7.01287V2.49546ZM5.41086 6.51401C5.41394 6.43409 5.43348 6.35567 5.46824 6.28364C5.50301 6.21161 5.55225 6.14753 5.61291 6.0954C5.74094 5.98398 5.90782 5.92768 6.07718 5.93874H8.18227V54.9627C8.17735 55.2493 8.22995 55.534 8.33696 55.8C8.44397 56.066 8.60322 56.3078 8.8053 56.5111C9.00737 56.7145 9.24817 56.8753 9.51345 56.984C9.77873 57.0926 10.0631 57.147 10.3498 57.1439H35.3685V59.6514H6.07771C5.90166 59.6424 5.73542 59.5676 5.61191 59.4418C5.48841 59.316 5.41665 59.1484 5.41086 58.9723V6.51401ZM2.23231 63.2146C2.0603 63.21 1.89687 63.1385 1.77674 63.0154C1.65486 62.8919 1.58565 62.726 1.58367 62.5525V9.9507C1.58502 9.87094 1.60284 9.79233 1.63602 9.71979C1.6692 9.64725 1.71702 9.58236 1.77648 9.52918C1.83804 9.47377 1.91001 9.43116 1.9882 9.40383C2.06639 9.37651 2.14924 9.36501 2.23191 9.37002H3.82719V58.9725C3.83348 59.5685 4.07216 60.1384 4.49241 60.561C4.91266 60.9836 5.48128 61.2255 6.07718 61.2351H35.3685V62.2392C35.3685 62.5681 35.4088 62.8956 35.4886 63.2146H2.23231ZM35.3685 33.4405V40.483C35.297 40.3715 35.1985 40.2798 35.0823 40.2163C34.966 40.1528 34.8357 40.1195 34.7033 40.1195H31.7402C31.5302 40.1195 31.3288 40.2029 31.1803 40.3514C31.0318 40.4999 30.9484 40.7013 30.9484 40.9114C30.9484 41.1214 31.0318 41.3228 31.1803 41.4713C31.3288 41.6198 31.5302 41.7032 31.7402 41.7032H34.7033C34.8357 41.7032 34.966 41.6699 35.0823 41.6064C35.1985 41.5429 35.297 41.4512 35.3685 41.3397V46.8501H29.8542C29.6442 46.8501 29.4428 46.9335 29.2943 47.082C29.1458 47.2305 29.0624 47.4319 29.0624 47.6419C29.0624 47.8519 29.1458 48.0533 29.2943 48.2018C29.4428 48.3503 29.6442 48.4338 29.8542 48.4338H35.3685V55.5603H10.3502C10.2718 55.5637 10.1936 55.5506 10.1207 55.5218C10.0477 55.493 9.98165 55.4491 9.92681 55.393C9.87144 55.3365 9.82852 55.2689 9.80082 55.1948C9.77311 55.1206 9.76123 55.0415 9.76594 54.9624V2.21713C9.76067 2.13674 9.77179 2.05612 9.79863 1.98016C9.82547 1.90419 9.86746 1.83448 9.92206 1.77524C9.97666 1.716 10.0427 1.66847 10.1163 1.63554C10.1898 1.60261 10.2692 1.58496 10.3498 1.58367H37.6121V7.01247C37.609 8.5024 38.1951 9.93312 39.2425 10.9928C40.2899 12.0524 41.7137 12.655 43.2036 12.6693H48.5657V29.4298H39.3793C38.3156 29.4298 37.2954 29.8524 36.5433 30.6045C35.7911 31.3567 35.3686 32.3768 35.3685 33.4405ZM63.3466 62.2392C63.3423 62.8843 63.083 63.5016 62.6254 63.9563C62.1677 64.411 61.5488 64.6662 60.9037 64.6663H39.443C38.1047 64.6663 36.9522 63.5776 36.9522 62.2392V41.7032H63.3466V62.2392ZM63.3466 40.1195H36.9522V33.4433C36.9522 32.105 38.1047 31.0134 39.443 31.0134H60.9037C61.5491 31.0142 62.1681 31.27 62.6257 31.7252C63.0833 32.1803 63.3424 32.7979 63.3466 33.4433V40.1195Z" fill="#2D73C3"/>
</svg>
