<svg width="78" height="78" viewBox="0 0 78 78" fill="none" xmlns="http://www.w3.org/2000/svg">
<circle cx="39.0213" cy="39.0213" r="34.0213" fill="#009944"/>
<path d="M31.6774 56.4207H39.1113C39.605 57.1611 40.2624 57.778 41.0326 58.2238C41.8028 58.6695 42.6652 58.9322 43.5532 58.9915C44.4411 59.0507 45.3308 58.905 46.1534 58.5655C46.976 58.226 47.7096 57.7019 48.2973 57.0337C48.885 56.3655 49.3112 55.571 49.5429 54.7118C49.7746 53.8526 49.8056 52.9516 49.6335 52.0785C49.4613 51.2053 49.0907 50.3835 48.5503 49.6765C48.0099 48.9695 47.3141 48.3962 46.5167 48.001V46.7429C46.5153 45.5455 46.0391 44.3976 45.1924 43.5509C44.3457 42.7042 43.1978 42.228 42.0004 42.2266H41.0887C41.9377 41.72 42.597 40.9489 42.9654 40.0314C43.3339 39.114 43.3911 38.1011 43.1283 37.148C42.8656 36.195 42.2974 35.3544 41.5109 34.7554C40.7244 34.1564 39.7631 33.832 38.7745 33.832C37.7858 33.832 36.8245 34.1564 36.038 34.7554C35.2515 35.3544 34.6833 36.195 34.4206 37.148C34.1578 38.1011 34.2151 39.114 34.5835 40.0314C34.9519 40.9489 35.6112 41.72 36.4602 42.2266H35.5485C34.3512 42.228 33.2032 42.7042 32.3565 43.5509C31.5099 44.3976 31.0336 45.5455 31.0322 46.7429V55.7755C31.0322 55.9466 31.1002 56.1107 31.2212 56.2317C31.3422 56.3527 31.5063 56.4207 31.6774 56.4207ZM48.4523 53.1948C48.4523 54.088 48.1874 54.9612 47.6911 55.7039C47.1949 56.4466 46.4895 57.0255 45.6643 57.3673C44.839 57.7091 43.9309 57.7986 43.0549 57.6243C42.1788 57.45 41.3741 57.0199 40.7424 56.3883C40.1108 55.7567 39.6807 54.9519 39.5064 54.0759C39.3322 53.1998 39.4216 52.2917 39.7634 51.4665C40.1053 50.6412 40.6841 49.9359 41.4268 49.4396C42.1695 48.9434 43.0427 48.6785 43.936 48.6785C45.1333 48.6798 46.2813 49.1561 47.128 50.0028C47.9746 50.8495 48.4509 51.9974 48.4523 53.1948ZM35.5485 38.3555C35.5485 37.7175 35.7377 37.0938 36.0922 36.5633C36.4467 36.0328 36.9505 35.6193 37.54 35.3751C38.1294 35.131 38.778 35.0671 39.4038 35.1916C40.0296 35.316 40.6044 35.6233 41.0555 36.0744C41.5067 36.5256 41.8139 37.1004 41.9384 37.7262C42.0629 38.3519 41.999 39.0005 41.7548 39.59C41.5107 40.1795 41.0972 40.6833 40.5667 41.0378C40.0362 41.3922 39.4125 41.5814 38.7745 41.5814C37.9192 41.5804 37.0993 41.2402 36.4945 40.6354C35.8898 40.0307 35.5496 39.2108 35.5485 38.3555ZM32.3226 46.7429C32.3236 45.8877 32.6638 45.0677 33.2686 44.463C33.8733 43.8582 34.6933 43.518 35.5485 43.517H42.0004C42.8557 43.518 43.6756 43.8582 44.2803 44.463C44.8851 45.0677 45.2253 45.8877 45.2263 46.7429V47.5378C44.2133 47.3032 43.1557 47.3457 42.1648 47.6609C41.1738 47.9761 40.286 48.5523 39.5946 49.329C38.9032 50.1057 38.4338 51.0543 38.2355 52.0751C38.0373 53.0959 38.1176 54.1513 38.468 55.1303H32.3226V46.7429Z" fill="white"/>
<path d="M44.5814 49.9688H43.291V53.8399H44.5814V49.9688Z" fill="white"/>
<path d="M44.5814 55.1304H43.291V56.4207H44.5814V55.1304Z" fill="white"/>
<path d="M38.2792 29.7359C38.3397 29.8085 38.4155 29.8669 38.5011 29.907C38.5867 29.9471 38.6801 29.9679 38.7747 29.9679C38.8692 29.9679 38.9626 29.9471 39.0482 29.907C39.1339 29.8669 39.2096 29.8085 39.2702 29.7359L42.4961 25.8648C42.5746 25.7706 42.6246 25.656 42.6403 25.5344C42.6559 25.4128 42.6367 25.2893 42.5847 25.1782C42.5327 25.0672 42.4501 24.9733 42.3467 24.9075C42.2433 24.8417 42.1232 24.8067 42.0006 24.8067H40.7102V19.6452C40.7102 19.4741 40.6423 19.31 40.5213 19.189C40.4003 19.068 40.2362 19 40.0651 19H37.4843C37.3132 19 37.1491 19.068 37.0281 19.189C36.9071 19.31 36.8391 19.4741 36.8391 19.6452V24.8067H35.5488C35.4262 24.8067 35.3061 24.8417 35.2027 24.9075C35.0992 24.9733 35.0167 25.0672 34.9647 25.1782C34.9127 25.2893 34.8934 25.4128 34.9091 25.5344C34.9248 25.656 34.9748 25.7706 35.0533 25.8648L38.2792 29.7359ZM37.4843 26.097C37.6554 26.097 37.8195 26.0291 37.9405 25.9081C38.0615 25.7871 38.1295 25.623 38.1295 25.4519V20.2904H39.4199V25.4519C39.4199 25.623 39.4878 25.7871 39.6088 25.9081C39.7298 26.0291 39.8939 26.097 40.0651 26.097H40.6231L38.7747 28.3152L36.9262 26.097H37.4843Z" fill="white"/>
<path d="M51.183 34.252C51.2435 34.3246 51.3193 34.383 51.4049 34.4231C51.4906 34.4632 51.5839 34.484 51.6785 34.484C51.773 34.484 51.8664 34.4632 51.952 34.4231C52.0377 34.383 52.1134 34.3246 52.174 34.252L55.3999 30.3809C55.4784 30.2867 55.5284 30.1721 55.5441 30.0505C55.5597 29.9289 55.5405 29.8054 55.4885 29.6944C55.4365 29.5833 55.3539 29.4894 55.2505 29.4236C55.1471 29.3578 55.027 29.3228 54.9044 29.3228H53.614V24.1613C53.614 23.9902 53.5461 23.8261 53.4251 23.7051C53.3041 23.5841 53.14 23.5161 52.9689 23.5161H50.3881C50.217 23.5161 50.0529 23.5841 49.9319 23.7051C49.8109 23.8261 49.7429 23.9902 49.7429 24.1613V29.3228H48.4526C48.33 29.3228 48.2099 29.3578 48.1065 29.4236C48.003 29.4894 47.9205 29.5833 47.8685 29.6944C47.8165 29.8054 47.7972 29.9289 47.8129 30.0505C47.8286 30.1721 47.8786 30.2867 47.9571 30.3809L51.183 34.252ZM50.3881 30.6132C50.5592 30.6132 50.7233 30.5452 50.8443 30.4242C50.9653 30.3032 51.0333 30.1391 51.0333 29.968V24.8065H52.3237V29.968C52.3237 30.1391 52.3916 30.3032 52.5126 30.4242C52.6336 30.5452 52.7977 30.6132 52.9689 30.6132H53.5269L51.6785 32.8313L49.83 30.6132H50.3881Z" fill="white"/>
<path d="M25.3754 34.252C25.4359 34.3246 25.5117 34.383 25.5973 34.4231C25.6829 34.4632 25.7763 34.484 25.8709 34.484C25.9654 34.484 26.0588 34.4632 26.1444 34.4231C26.2301 34.383 26.3058 34.3246 26.3664 34.252L29.5923 30.3809C29.6708 30.2867 29.7208 30.1721 29.7364 30.0505C29.7521 29.9289 29.7328 29.8054 29.6809 29.6944C29.6289 29.5833 29.5463 29.4894 29.4429 29.4236C29.3394 29.3578 29.2194 29.3228 29.0968 29.3228H27.8064V24.1613C27.8064 23.9902 27.7385 23.8261 27.6175 23.7051C27.4965 23.5841 27.3324 23.5161 27.1612 23.5161H24.5805C24.4094 23.5161 24.2453 23.5841 24.1243 23.7051C24.0033 23.8261 23.9353 23.9902 23.9353 24.1613V29.3228H22.6449C22.5224 29.3228 22.4023 29.3578 22.2989 29.4236C22.1954 29.4894 22.1129 29.5833 22.0609 29.6944C22.0089 29.8054 21.9896 29.9289 22.0053 30.0505C22.021 30.1721 22.071 30.2867 22.1494 30.3809L25.3754 34.252ZM24.5805 30.6132C24.7516 30.6132 24.9157 30.5452 25.0367 30.4242C25.1577 30.3032 25.2257 30.1391 25.2257 29.968V24.8065H26.5161V29.968C26.5161 30.1391 26.584 30.3032 26.705 30.4242C26.826 30.5452 26.9901 30.6132 27.1612 30.6132H27.7193L25.8709 32.8313L24.0224 30.6132H24.5805Z" fill="white"/>
<circle cx="39" cy="39" r="38.5" stroke="#009944" stroke-dasharray="3 3"/>
</svg>
