<svg width="52" height="52" viewBox="0 0 52 52" fill="none" xmlns="http://www.w3.org/2000/svg">
<g clip-path="url(#clip0_437_1396)">
<path d="M21.6667 51.9998C9.75 51.9998 0 42.2498 0 30.3332C0 18.4165 9.75 8.6665 21.6667 8.6665C33.5833 8.6665 43.3333 18.4165 43.3333 30.3332C43.3333 42.2498 33.5833 51.9998 21.6667 51.9998ZM21.6667 10.8332C10.8333 10.8332 2.16667 19.4998 2.16667 30.3332C2.16667 41.1665 10.8333 49.8332 21.6667 49.8332C32.5 49.8332 41.1667 41.1665 41.1667 30.3332C41.1667 19.4998 32.5 10.8332 21.6667 10.8332Z" fill="white"/>
<path d="M21.6668 44.4167C13.8668 44.4167 7.5835 38.1333 7.5835 30.3333C7.5835 22.5333 13.8668 16.25 21.6668 16.25C29.4668 16.25 35.7502 22.5333 35.7502 30.3333C35.7502 38.1333 29.4668 44.4167 21.6668 44.4167ZM21.6668 18.4167C15.1668 18.4167 9.75016 23.8333 9.75016 30.3333C9.75016 36.8333 15.1668 42.25 21.6668 42.25C28.1668 42.25 33.5835 36.8333 33.5835 30.3333C33.5835 23.8333 28.1668 18.4167 21.6668 18.4167Z" fill="white"/>
<path d="M21.6665 36.8335C17.9832 36.8335 15.1665 34.0168 15.1665 30.3335C15.1665 26.6502 17.9832 23.8335 21.6665 23.8335C25.3498 23.8335 28.1665 26.6502 28.1665 30.3335C28.1665 34.0168 25.3498 36.8335 21.6665 36.8335ZM21.6665 26.0002C19.2832 26.0002 17.3332 27.9502 17.3332 30.3335C17.3332 32.7168 19.2832 34.6668 21.6665 34.6668C24.0498 34.6668 25.9998 32.7168 25.9998 30.3335C25.9998 27.9502 24.0498 26.0002 21.6665 26.0002Z" fill="white"/>
<path d="M21.6668 31.4167C21.4501 31.4167 21.0168 31.4167 20.8001 31.2C20.3668 30.7667 20.3668 30.1167 20.8001 29.6833L37.0501 13.4333C37.4834 13 38.1334 13 38.5668 13.4333C39.0001 13.8667 39.0001 14.5167 38.5668 14.95L22.3168 31.2C22.3168 31.4167 21.8834 31.4167 21.6668 31.4167Z" fill="white"/>
<path d="M43.3335 15.1667H37.9168C37.2668 15.1667 36.8335 14.7333 36.8335 14.0833V8.66667C36.8335 8.45 37.0502 8.01667 37.0502 7.8L44.6335 0.216667C45.0668 0 45.5002 0 45.9335 0C46.3668 0.216667 46.5835 0.65 46.5835 1.08333V5.41667H50.9168C51.3502 5.41667 51.7835 5.63333 52.0002 6.06667C52.0002 6.5 52.0002 6.93333 51.7835 7.36667L44.2002 14.95C43.9835 14.95 43.5502 15.1667 43.3335 15.1667ZM39.0002 13H42.9002L48.3168 7.58333H45.5002C44.8502 7.58333 44.4168 7.15 44.4168 6.5V3.68333L39.0002 9.1V13Z" fill="white"/>
</g>
<defs>
<clipPath id="clip0_437_1396">
<rect width="52" height="52" fill="white"/>
</clipPath>
</defs>
</svg>
