<svg width="78" height="78" viewBox="0 0 78 78" fill="none" xmlns="http://www.w3.org/2000/svg">
<circle cx="38.9993" cy="39.0007" r="34.0213" fill="#009944"/>
<g clip-path="url(#clip0_445_1593)">
<path d="M29.2694 53.4867C29.1218 53.4867 28.8264 53.339 28.6788 53.1913C28.3834 52.896 28.3834 52.453 28.6788 52.1577C29.2694 51.567 29.5648 50.9763 29.5648 50.238C29.5648 49.4997 29.2694 48.7613 28.6788 48.3183C28.3834 48.023 28.3834 47.58 28.6788 47.2847L31.6321 43.4453C31.9274 43.0023 32.0751 42.4117 31.7798 41.821C31.7798 41.6733 31.7798 41.6733 31.6321 41.6733C31.6321 41.6733 31.4844 41.6733 31.3368 41.821L25.8731 47.137C25.5778 47.4323 25.1348 47.4323 24.8394 47.137C24.5441 46.8417 24.5441 46.3987 24.8394 46.1033L30.3031 40.7873C30.7461 40.3443 31.3368 40.1967 31.9274 40.1967C32.5181 40.3443 32.9611 40.6397 33.2564 41.0827C33.8471 42.1163 33.6994 43.2977 32.9611 44.1837L30.3031 47.58C30.8938 48.3183 31.1891 49.2043 31.1891 50.0903C31.1891 51.2717 30.7461 52.3053 29.8601 53.1913C29.7124 53.4867 29.5648 53.4867 29.2694 53.4867Z" fill="white"/>
<path d="M33.5517 56.44H21.7383C21.2953 56.44 21 56.1447 21 55.7017V48.466C21 45.9557 22.0337 43.593 23.8057 41.6733L26.6113 38.8677C26.9067 38.5723 27.3497 38.5723 27.645 38.8677C27.9403 39.163 27.9403 39.606 27.645 39.9013L24.8393 42.707C23.3627 44.1837 22.4767 46.251 22.4767 48.466V54.9633H32.8133V53.6343C32.8133 53.339 32.961 53.1913 33.1087 53.0437C34.29 52.3053 34.8807 51.124 35.0283 49.795C35.0283 49.352 35.3237 49.0567 35.7667 49.0567C36.2097 49.0567 36.505 49.352 36.505 49.795C36.505 51.4193 35.619 53.0437 34.29 54.0773V55.7017C34.29 56.1447 33.9947 56.44 33.5517 56.44Z" fill="white"/>
<path d="M45.8079 37.2433C45.6602 37.2433 45.6602 37.2433 45.5126 37.2433C44.9219 37.0957 44.4789 36.8003 44.1836 36.3573C43.5929 35.3237 43.7406 34.1423 44.4789 33.2563L47.1369 29.86C46.5462 29.1217 46.2509 28.2357 46.2509 27.3497C46.2509 26.1683 46.6939 25.1347 47.5799 24.2487C47.8752 23.9533 48.3182 23.9533 48.6136 24.2487C48.9089 24.544 48.9089 24.987 48.6136 25.2823C48.0229 25.873 47.7276 26.4637 47.7276 27.202C47.7276 27.9403 48.0229 28.6787 48.6136 29.1217C48.9089 29.417 48.9089 29.86 48.6136 30.1553L45.6602 33.9947C45.3649 34.4377 45.2172 35.0283 45.5126 35.619C45.5126 35.7667 45.6602 35.7667 45.8079 35.7667C45.8079 35.7667 45.9556 35.7667 46.1032 35.619L51.5669 30.303C51.8622 30.0077 52.3052 30.0077 52.6006 30.303C52.8959 30.5983 52.8959 31.0413 52.6006 31.3367L47.1369 36.6527C46.6939 37.0957 46.2509 37.2433 45.8079 37.2433Z" fill="white"/>
<path d="M50.3857 38.72C50.2381 38.72 49.9427 38.72 49.9427 38.5723C49.6474 38.277 49.6474 37.834 49.9427 37.5387L52.7484 34.733C54.2251 33.2563 55.1111 31.189 55.1111 28.974V22.4767H44.7744V23.8057C44.7744 24.101 44.6267 24.2487 44.4791 24.3963C43.2977 25.1347 42.7071 26.316 42.5594 27.645C42.4117 28.088 42.1164 28.3833 41.6734 28.3833C41.2304 28.3833 40.9351 28.088 40.9351 27.645C40.9351 26.0207 41.8211 24.3963 43.1501 23.3627V21.7383C43.1501 21.2953 43.4454 21 43.8884 21H55.7017C56.1447 21 56.4401 21.2953 56.4401 21.7383V28.974C56.4401 31.4843 55.4064 33.847 53.6344 35.7667L50.8287 38.5723C50.8287 38.5723 50.5334 38.72 50.3857 38.72Z" fill="white"/>
<path d="M27.6451 45.0697C27.2021 45.0697 26.9067 44.7743 26.9067 44.3313V27.645C26.9067 27.202 27.2021 26.9067 27.6451 26.9067H46.9894C47.4324 26.9067 47.7277 27.202 47.7277 27.645C47.7277 28.088 47.4324 28.3833 46.9894 28.3833H28.3834V44.3313C28.3834 44.7743 28.0881 45.0697 27.6451 45.0697Z" fill="white"/>
<path d="M49.795 50.5333H30.5984C30.4507 50.5333 30.303 50.5333 30.1554 50.5333C29.7124 50.3857 29.5647 50.0903 29.5647 49.6473C29.5647 49.2043 30.0077 49.0567 30.4507 49.0567H49.0567V33.1087C49.0567 32.6657 49.352 32.3703 49.795 32.3703C50.238 32.3703 50.5334 32.6657 50.5334 33.1087V49.795C50.5334 50.238 50.238 50.5333 49.795 50.5333Z" fill="white"/>
</g>
<circle cx="39" cy="39" r="38.5" stroke="#009944" stroke-dasharray="3 3"/>
<defs>
<clipPath id="clip0_445_1593">
<rect width="35.44" height="35.44" fill="white" transform="translate(21 21)"/>
</clipPath>
</defs>
</svg>
