<svg width="71" height="62" viewBox="0 0 71 62" fill="none" xmlns="http://www.w3.org/2000/svg">
<path d="M67.2318 30.7739H66.0523V5.91805C66.0485 2.65129 63.4102 0.00384673 60.1548 0H10.6156C7.36012 0.00384673 4.72186 2.65129 4.71802 5.91805V23.6722H3.53852C1.58422 23.6722 0 25.2619 0 27.223V57.9969C0 59.958 1.58422 61.5477 3.53852 61.5477H48.3597C49.0111 61.5477 49.5392 61.0177 49.5392 60.3641C49.5354 57.0973 46.8972 54.4499 43.6417 54.4461H40.1032V47.3444H54.2573V57.9969C54.2573 59.958 55.8415 61.5477 57.7958 61.5477H67.2318C69.1861 61.5477 70.7703 59.958 70.7703 57.9969V34.3247C70.7703 32.3636 69.1861 30.7739 67.2318 30.7739ZM25.9491 57.9969C25.9491 58.6505 25.421 59.1805 24.7696 59.1805H3.53852C2.88714 59.1805 2.35901 58.6505 2.35901 57.9969V56.8133H25.9491V57.9969ZM25.9491 54.4461H2.35901V27.223C2.35901 26.5694 2.88714 26.0394 3.53852 26.0394H24.7696C25.421 26.0394 25.9491 26.5694 25.9491 27.223V54.4461ZM43.6417 56.8133C45.1409 56.815 46.4768 57.7628 46.9785 59.1805H28.0911C28.2309 58.8014 28.3042 58.4011 28.3081 57.9969V56.8133H43.6417ZM28.3081 54.4461V47.3444H30.6672V54.4461H28.3081ZM33.0262 54.4461V47.3444H37.7442V54.4461H33.0262ZM54.2573 44.9772H28.3081V37.8755H54.2573V44.9772ZM54.2573 34.3247V35.5083H28.3081V27.223C28.3042 26.6614 28.1657 26.109 27.9048 25.6121C27.9224 25.5956 27.946 25.5908 27.9625 25.5731L39.6397 13.8553C40.0923 13.3851 40.0793 12.6358 39.6108 12.1817C39.1537 11.7387 38.429 11.7387 37.9718 12.1817L26.2947 23.8994C26.2664 23.929 26.2546 23.9669 26.2299 23.9977C25.7722 23.7846 25.274 23.6737 24.7696 23.6722H7.07703V5.91805C7.07703 3.95696 8.66126 2.36722 10.6156 2.36722H60.1548C62.1091 2.36722 63.6933 3.95696 63.6933 5.91805V30.7739H57.7958C55.8415 30.7739 54.2573 32.3636 54.2573 34.3247ZM68.4113 57.9969C68.4113 58.6505 67.8832 59.1805 67.2318 59.1805H57.7958C57.1444 59.1805 56.6163 58.6505 56.6163 57.9969V56.8133H68.4113V57.9969ZM68.4113 54.4461H56.6163V34.3247C56.6163 33.671 57.1444 33.1411 57.7958 33.1411H67.2318C67.8832 33.1411 68.4113 33.671 68.4113 34.3247V54.4461Z" fill="white"/>
<path d="M14.0939 38.0787C13.6333 37.6167 12.8867 37.6167 12.4261 38.0787L7.42264 43.0996C6.95408 43.5538 6.9411 44.303 7.39374 44.7732C7.84637 45.2434 8.593 45.2564 9.06156 44.8022C9.07144 44.7927 9.08102 44.7829 9.09046 44.7732L14.0939 39.7523C14.3045 39.3861 13.8813 38.69 14.0939 38.0787Z" fill="white"/>
<path d="M21.142 38.0781C20.6849 37.6351 19.9603 37.6351 19.5031 38.0781L14.4996 43.099C14.031 43.553 14.0181 44.3024 14.4707 44.7726C14.9232 45.2428 15.67 45.2558 16.1385 44.8016C16.1484 44.7921 16.158 44.7823 16.1674 44.7726L21.1709 39.7517C21.6234 39.2815 21.6105 38.5321 21.142 38.0781Z" fill="white"/>
<path d="M46.8061 12.1828C46.3491 11.7398 45.6244 11.7398 45.1672 12.1828L33.4901 23.9005C33.0215 24.3546 33.0086 25.104 33.4611 25.5742C33.9135 26.0443 34.6603 26.0574 35.1289 25.6033C35.1388 25.5938 35.1483 25.5841 35.1579 25.5742L46.835 13.8564C47.2876 13.3862 47.2747 12.6369 46.8061 12.1828Z" fill="white"/>
<path d="M64.9865 41.2828C64.5294 40.8397 63.8046 40.8397 63.3476 41.2828L60.0119 44.63C59.5434 45.0842 59.5304 45.8334 59.983 46.3036C60.4357 46.7738 61.1823 46.7868 61.6508 46.3326C61.6606 46.3232 61.6703 46.3134 61.6797 46.3036L65.0154 42.9564C65.468 42.4862 65.455 41.737 64.9865 41.2828Z" fill="white"/>
<path d="M35.4087 40.2422H35.3969C34.7455 40.2454 34.22 40.7781 34.2233 41.4317C34.2265 42.0854 34.7573 42.6127 35.4087 42.6094C36.0601 42.6094 36.5882 42.0795 36.5882 41.4258C36.5882 40.7722 36.0601 40.2422 35.4087 40.2422Z" fill="white"/>
<path d="M37.7445 4.73389H33.0265C32.3751 4.73389 31.847 5.26385 31.847 5.9175C31.847 6.57115 32.3751 7.10111 33.0265 7.10111H37.7445C38.3959 7.10111 38.924 6.57115 38.924 5.9175C38.924 5.26385 38.3959 4.73389 37.7445 4.73389Z" fill="white"/>
</svg>
