<svg width="108" height="108" viewBox="0 0 108 108" fill="none" xmlns="http://www.w3.org/2000/svg">
<path d="M101.25 20.25H27C23.2721 20.25 20.25 23.2721 20.25 27V101.25C20.25 104.978 23.2721 108 27 108H101.25C104.978 108 108 104.978 108 101.25V27C108 23.2721 104.978 20.25 101.25 20.25ZM101.25 101.25H27V27H101.25V101.25Z" fill="#009944"/>
<path d="M6.75 6.75H81V13.5H87.75V6.75C87.75 3.0221 84.7279 0 81 0H6.75C3.0221 0 0 3.0221 0 6.75V81C0 84.7279 3.0221 87.75 6.75 87.75H13.5V81H6.75V6.75Z" fill="#009944"/>
<path d="M37.125 84.375H91.125C92.9888 84.3858 94.5086 82.8837 94.5196 81.0196C94.5249 80.1128 94.165 79.2423 93.5212 78.6038L80.0212 65.1038C78.7048 63.7951 76.579 63.7951 75.2625 65.1038L70.875 69.4913L59.7712 58.3875C58.4548 57.0788 56.329 57.0788 55.0125 58.3875L34.7625 78.6375C33.4576 79.9685 33.4785 82.1053 34.8095 83.4102C35.4288 84.0173 36.2578 84.3628 37.125 84.375Z" fill="#009944"/>
<path d="M81 57.375C84.7279 57.375 87.75 54.3529 87.75 50.625C87.75 46.8971 84.7279 43.875 81 43.875C77.2721 43.875 74.25 46.8971 74.25 50.625C74.25 54.3529 77.2721 57.375 81 57.375Z" fill="#009944"/>
</svg>
