<?xml version="1.0" encoding="UTF-8" standalone="no"?>
<svg
   xmlns:dc="http://purl.org/dc/elements/1.1/"
   xmlns:cc="http://creativecommons.org/ns#"
   xmlns:rdf="http://www.w3.org/1999/02/22-rdf-syntax-ns#"
   xmlns:svg="http://www.w3.org/2000/svg"
   xmlns="http://www.w3.org/2000/svg"
   id="svg4"
   version="1.1"
   fill="none"
   viewBox="0 0 20 20"
   height="20"
   width="20">
  <metadata
     id="metadata10">
    <rdf:RDF>
      <cc:Work
         rdf:about="">
        <dc:format>image/svg+xml</dc:format>
        <dc:type
           rdf:resource="http://purl.org/dc/dcmitype/StillImage" />
        <dc:title></dc:title>
      </cc:Work>
    </rdf:RDF>
  </metadata>
  <defs
     id="defs8" />
  <circle
     r="10"
     cy="10"
     cx="10"
     id="path836"
     style="opacity:1;vector-effect:none;fill:#009944;fill-opacity:1;stroke:none;stroke-width:4.02519703;stroke-linecap:butt;stroke-linejoin:miter;stroke-miterlimit:3.79999995;stroke-dasharray:none;stroke-dashoffset:0;stroke-opacity:1" />
  <path
     id="path849"
     d="m 6.8802709,15.603117 c -0.09562,-0.02634 -0.173168,-0.105579 -0.195473,-0.199722 l -0.01221,-0.05138 -0.884362,-0.0026 c -0.867318,-0.0026 -0.885025,-0.0031 -0.918747,-0.02253 -0.02033,-0.01177 -0.04358,-0.03786 -0.05688,-0.06386 l -0.02249,-0.04398 0.0038,-0.903833 c 0.0026,-0.610975 0.0075,-0.930889 0.01524,-0.987337 0.06748,-0.494089 0.188039,-0.883069 0.418663,-1.350836 0.133673,-0.271121 0.07862,-0.180834 1.819513,-2.9838624 0.153443,-0.24706 0.285443,-0.4646479 0.293332,-0.4835279 0.01206,-0.028814 0.01441,-0.130304 0.01441,-0.6324701 v -0.598199 l 0.02211,-0.032478 c 0.01221,-0.017862 0.03458,-0.041727 0.04985,-0.053031 0.02752,-0.020394 0.03302,-0.020552 0.71717,-0.020552 h 0.689435 l 0.03307,0.023588 c 0.06764,0.048243 0.06963,0.061401 0.06987,0.4637155 2.13e-4,0.3565624 4.03e-4,0.3598616 0.02233,0.3920662 0.01221,0.017856 0.03458,0.041728 0.04985,0.053025 0.0277,0.020518 0.02914,0.020548 0.982426,0.020548 h 0.9546891 l 0.03308,-0.023593 c 0.06764,-0.048244 0.06963,-0.061409 0.06987,-0.4637146 2.14e-4,-0.3565618 4.03e-4,-0.3598622 0.02231,-0.3920672 0.01221,-0.017862 0.03458,-0.041727 0.04983,-0.053031 0.02742,-0.020324 0.03527,-0.02058 0.705445,-0.023206 0.755512,-0.00296 0.719024,-0.00602 0.772946,0.064662 l 0.02646,0.034683 0.0049,0.6203245 0.0049,0.620324 0.156569,0.2498986 c 0.0861,0.137452 0.521078,0.831191 0.966591,1.5416614 0.891819,1.422203 0.914446,1.45901 1.035955,1.685033 0.261209,0.485886 0.349808,0.809231 0.380626,1.389124 0.005,0.09509 0.0093,0.548376 0.0094,1.007305 2.36e-4,0.824108 0,0.834935 -0.02011,0.876445 -0.01191,0.02467 -0.03527,0.0513 -0.0565,0.0645 l -0.03614,0.02248 -0.884362,0.0026 -0.884362,0.0026 -0.01162,0.04891 c -0.02403,0.101196 -0.111051,0.184759 -0.214808,0.206298 -0.03296,0.0069 -0.135761,0.0099 -0.271702,0.0079 -0.20584,-0.0029 -0.221734,-0.0046 -0.270554,-0.02656 -0.07247,-0.03274 -0.135864,-0.105476 -0.156431,-0.179431 l -0.01599,-0.05747 H 9.9870889 7.6120099 l -0.0069,0.03193 c -0.01912,0.08847 -0.08294,0.167314 -0.166581,0.205806 -0.04633,0.02133 -0.06223,0.02272 -0.279993,0.02473 -0.167525,0.0015 -0.243883,-0.0015 -0.278298,-0.01088 z m 1.918931,-3.6163 c 0.01566,-0.0081 0.04086,-0.03096 0.056,-0.0508 l 0.02752,-0.03608 V 11.697014 11.49409 L 8.8552019,11.458 c -0.05117,-0.0671 -0.04795,-0.06662 -0.417254,-0.06347 -0.329044,0.0028 -0.331561,0.0029 -0.363416,0.02571 -0.05625,0.04011 -0.06489,0.06889 -0.06929,0.230505 -0.0063,0.232537 0.009,0.291441 0.08647,0.332618 0.03131,0.01664 0.06172,0.01819 0.356617,0.01819 0.267249,0 0.327256,-0.0025 0.350864,-0.01472 z m 1.4976191,-3.78e-4 c 0.01752,-0.0082 0.04249,-0.02932 0.05553,-0.04667 0.02297,-0.03062 0.02375,-0.03754 0.02646,-0.232953 0.0032,-0.229737 -0.0024,-0.251818 -0.07259,-0.292109 -0.03748,-0.02149 -0.04507,-0.02195 -0.3634791,-0.02211 -0.322118,-1.61e-4 -0.325519,5e-5 -0.358351,0.02218 -0.01822,0.01235 -0.0432,0.03726 -0.05548,0.05548 -0.02136,0.0317 -0.02234,0.04164 -0.02234,0.226728 0,0.185081 9.83e-4,0.195034 0.02234,0.226727 0.01235,0.01822 0.03726,0.0432 0.05548,0.05548 0.03281,0.02211 0.03642,0.02234 0.356867,0.02234 0.2709591,0 0.3289091,-0.0025 0.3555611,-0.01511 z m 1.509628,-0.0071 c 0.01836,-0.01221 0.04333,-0.04187 0.05548,-0.06594 0.02043,-0.04043 0.02211,-0.05688 0.02211,-0.216429 0,-0.159555 -0.0016,-0.175998 -0.02211,-0.216429 -0.01221,-0.02406 -0.03736,-0.05391 -0.05602,-0.06629 l -0.03392,-0.02255 -0.334492,0.0028 -0.334494,0.0028 -0.03308,0.02359 c -0.05967,0.04257 -0.06962,0.08155 -0.06987,0.27391 -2.24e-4,0.176253 0.0069,0.216206 0.04682,0.261012 0.03773,0.04237 0.05995,0.04489 0.400968,0.0453 0.3215,3.78e-4 0.325583,1.33e-4 0.358585,-0.0218 z M 8.7996139,10.927691 c 0.02924,-0.01546 0.04994,-0.03617 0.06541,-0.0654 0.02119,-0.04008 0.02262,-0.05395 0.02262,-0.219882 0,-0.203496 -0.01059,-0.242411 -0.07684,-0.283633 -0.03523,-0.02192 -0.04357,-0.02255 -0.330871,-0.02558 -0.162101,-0.0018 -0.313496,-3.28e-4 -0.336434,0.0031 -0.04691,0.0069 -0.0933,0.04121 -0.117949,0.08718 -0.02111,0.03936 -0.03027,0.317696 -0.01294,0.394842 0.01191,0.05319 0.05223,0.10252 0.09898,0.121053 0.01427,0.0057 0.15442,0.01 0.334935,0.0103 0.305633,6.04e-4 0.311029,2.78e-4 0.353155,-0.022 z m 1.5157921,-0.0099 c 0.06223,-0.04749 0.06553,-0.06153 0.06553,-0.279998 0,-0.186565 -10e-4,-0.197051 -0.02218,-0.228904 -0.01221,-0.01836 -0.04188,-0.04333 -0.06594,-0.05548 -0.04261,-0.02152 -0.05176,-0.02209 -0.3486821,-0.02189 -0.341544,2.41e-4 -0.361873,0.0037 -0.409052,0.06987 -0.02311,0.03239 -0.02359,0.03732 -0.02359,0.239383 0,0.202065 4.78e-4,0.206991 0.02359,0.239384 0.01294,0.01819 0.04171,0.04139 0.06386,0.05157 0.0372,0.01708 0.06472,0.0183 0.360339,0.01605 l 0.3200691,-0.0025 z m 1.480607,0.0099 c 0.02924,-0.01546 0.04994,-0.03617 0.06541,-0.0654 0.02117,-0.04002 0.02262,-0.05405 0.02262,-0.217432 0,-0.09924 -0.0046,-0.186594 -0.01044,-0.202309 -0.0155,-0.04113 -0.06753,-0.0904 -0.107035,-0.101387 -0.04542,-0.01265 -0.604321,-0.0128 -0.648265,-1.22e-4 -0.04454,0.0128 -0.09664,0.06445 -0.108682,0.1078 -0.0125,0.04517 -0.01265,0.339276 -1.52e-4,0.382908 0.01147,0.0402 0.05294,0.08653 0.09352,0.104637 0.02255,0.01 0.102446,0.01324 0.339848,0.01353 0.305408,3.78e-4 0.31106,1.9e-5 0.353155,-0.02224 z M 8.8091449,9.8672276 c 0.07109,-0.04838 0.07329,-0.05622 0.07619,-0.270855 0.0025,-0.185496 0.0018,-0.194897 -0.01965,-0.231715 -0.01221,-0.02111 -0.03473,-0.04763 -0.04998,-0.05894 -0.02664,-0.01977 -0.04051,-0.02068 -0.356305,-0.0234 -0.371785,-0.0032 -0.377048,-0.0024 -0.424897,0.06997 -0.02606,0.03939 -0.02614,0.04002 -0.02614,0.231791 0,0.215245 0.0059,0.23771 0.07321,0.283132 0.03246,0.02189 0.03671,0.02214 0.363969,0.02214 0.32721,0 0.331503,-2.53e-4 0.363598,-0.02211 z m 1.4894411,0.0062 c 0.01849,-0.0088 0.04346,-0.02977 0.05553,-0.04667 0.02068,-0.02899 0.02208,-0.04204 0.0249,-0.232329 0.0029,-0.19724 0.0025,-0.202345 -0.01989,-0.235547 -0.01265,-0.01867 -0.03779,-0.04399 -0.05602,-0.05627 -0.03283,-0.02212 -0.03632,-0.02234 -0.3593551,-0.02234 -0.322116,0 -0.326614,2.77e-4 -0.358685,0.02211 -0.07126,0.0485 -0.07325,0.05569 -0.07657,0.275967 -0.0029,0.193967 -0.0025,0.199218 0.01989,0.232403 0.01265,0.01868 0.0378,0.04401 0.05602,0.05629 0.03281,0.02211 0.03642,0.02234 0.356867,0.02234 0.2783251,0 0.3284311,-0.0022 0.3573251,-0.01594 z m 1.497015,0.0012 c 0.01567,-0.0081 0.04086,-0.03095 0.056,-0.05079 0.02752,-0.03605 0.02752,-0.03608 0.03079,-0.217545 0.0038,-0.209363 -0.0049,-0.248611 -0.06478,-0.294288 l -0.0352,-0.02684 h -0.3397 -0.339703 l -0.03308,0.02359 c -0.05986,0.0427 -0.06962,0.08131 -0.06987,0.276426 -2e-4,0.159403 0.0014,0.175573 0.02189,0.216054 0.01221,0.02406 0.03712,0.05374 0.05548,0.06594 0.03299,0.02192 0.03729,0.02218 0.36153,0.02218 0.27237,0 0.332988,-0.0025 0.356625,-0.01472 z m 3.394302,-0.995992 C 14.356153,8.6219973 13.302628,8.2897067 13.268376,8.2725358 13.174638,8.2255416 13.11873,8.130259 13.118663,8.0173465 c -7e-5,-0.1198756 0.06047,-0.2174609 0.165128,-0.2662011 0.09902,-0.04611 0.08029,-0.050015 1.157983,0.2414946 0.538132,0.1455613 0.994983,0.2725165 1.015224,0.2821212 0.09303,0.044141 0.153661,0.1440566 0.154361,0.2543583 5.05e-4,0.061291 -0.0041,0.078824 -0.03968,0.1528411 -0.04966,0.103475 -0.0879,0.147927 -0.155938,0.181212 -0.06951,0.03402 -0.148028,0.03937 -0.225839,0.01543 z M 4.5060199,8.7110666 c -0.08215,-0.02508 -0.148605,-0.081147 -0.187075,-0.1578249 -0.03018,-0.060173 -0.03677,-0.1583578 -0.01502,-0.2238628 0.01975,-0.059482 0.08175,-0.132981 0.135158,-0.1602185 0.02131,-0.010884 0.5144,-0.1433064 1.095766,-0.2943169 0.826735,-0.214738 1.070068,-0.2745343 1.116874,-0.2744592 0.106681,1.71e-4 0.204032,0.063968 0.252122,0.1652222 0.02998,0.063102 0.03782,0.211126 0.01531,0.2885719 -0.02002,0.068881 -0.0841,0.1425858 -0.150061,0.172587 -0.02624,0.011914 -0.197915,0.055157 -0.381509,0.096033 -0.420219,0.093576 -1.323846,0.2960177 -1.57882,0.3537022 -0.188392,0.04263 -0.252409,0.04994 -0.302742,0.03457 z M 15.543576,8.1144869 C 15.516346,8.1070669 14.488996,7.835133 14.065025,7.7231174 13.32866,7.5285659 13.202827,7.4937988 13.164754,7.4743755 c -0.04823,-0.024602 -0.101034,-0.08201 -0.1237,-0.1344445 -0.0093,-0.021614 -0.04595,-0.1697141 -0.08137,-0.3291127 -0.03542,-0.1593986 -0.06903,-0.3042468 -0.07471,-0.3218849 -0.01828,-0.056864 -0.08151,-0.1257502 -0.143218,-0.1560519 l -0.05705,-0.028013 H 9.9339149 7.1831219 l -0.04149,0.02217 c -0.05811,0.031056 -0.109418,0.08536 -0.136011,0.1439919 -0.0199,0.04386 -0.02442,0.078944 -0.03698,0.2868835 -0.01603,0.2655688 -0.02371,0.2960009 -0.09187,0.3641585 -0.0682,0.068207 0.07957,0.030253 -1.776401,0.4562009 -0.754293,0.1731102 -0.74229,0.1713581 -0.838164,0.1223554 -0.05525,-0.028238 -0.09962,-0.073498 -0.13076,-0.1333428 -0.01871,-0.035969 -0.0229,-0.05886 -0.02246,-0.1228026 l 5.3e-4,-0.078594 0.410257,-1.0069868 c 0.225641,-0.5538426 0.423918,-1.0398614 0.440614,-1.0800419 0.03433,-0.08263 0.08129,-0.1402088 0.137923,-0.1690953 0.109094,-0.055659 0.668801,-0.2546873 1.013957,-0.3605618 1.03583,-0.3177335 2.03716,-0.4948143 3.129028,-0.553354 0.287608,-0.015419 0.9666041,-0.015238 1.2476811,3.274e-4 1.130217,0.062615 2.146469,0.2436802 3.187972,0.5680004 0.418351,0.1302731 0.925329,0.3258612 1.254204,0.4838622 0.09003,0.043251 0.1555,0.1018722 0.179774,0.1609532 0.01147,0.027896 0.110624,0.3035805 0.622884,1.7316091 0.07572,0.2111026 0.142953,0.4047634 0.149398,0.4303575 0.04161,0.1652287 -0.08787,0.3369361 -0.260767,0.3458275 -0.03258,0.00162 -0.06807,6.295e-4 -0.07888,-0.00235 z"
     style="fill:#ffffff;stroke-width:1" />
</svg>
