<svg width="97" height="97" viewBox="0 0 97 97" fill="none" xmlns="http://www.w3.org/2000/svg">
<circle cx="48.5" cy="48.5" r="48.5" fill="#7DB015"/>
<path d="M28.0867 46.1016H31.9454C32.1737 46.9246 32.5024 47.7164 32.9252 48.4584L30.194 51.1885C30.0636 51.3189 29.9903 51.4958 29.9903 51.6806C29.9903 51.8653 30.0636 52.0422 30.194 52.1726L33.1447 55.1241C33.4165 55.3953 33.8566 55.3953 34.1283 55.1241L36.8598 52.3924C37.6018 52.8149 38.3927 53.144 39.2157 53.3719V57.2307C39.2157 57.6149 39.5271 57.9262 39.9113 57.9262H44.0847C44.4689 57.9262 44.7802 57.6149 44.7802 57.2307V53.3719C45.6032 53.144 46.3942 52.8149 47.1362 52.3924L49.8676 55.1241C50.1437 55.385 50.5754 55.385 50.8512 55.1241L53.8025 52.1726C53.9329 52.0422 54.0062 51.8653 54.0062 51.6806C54.0062 51.4958 53.9329 51.3189 53.8025 51.1885L51.0707 48.4584C51.4935 47.7164 51.8223 46.9246 52.0505 46.1016H55.9093C56.2935 46.1016 56.6048 45.7903 56.6048 45.4061V41.2327C56.6048 40.8488 56.2935 40.5371 55.9093 40.5371H52.0505C51.8223 39.7144 51.4935 38.9227 51.0707 38.1806L53.8019 35.4505C53.9323 35.3201 54.0057 35.1432 54.0057 34.9585C54.0057 34.7737 53.9323 34.5968 53.8019 34.4664L50.8512 31.5149C50.5795 31.2435 50.1393 31.2435 49.8676 31.5149L47.1362 34.2466C46.3942 33.8244 45.603 33.4953 44.7802 33.2671V29.4081C44.7802 29.0242 44.4689 28.7125 44.0847 28.7125H39.9113C39.5271 28.7125 39.2157 29.0242 39.2157 29.4081V33.2671C38.393 33.4953 37.6018 33.8244 36.8598 34.2466L34.1283 31.5149C33.8523 31.2541 33.4205 31.2541 33.1447 31.5149L30.1935 34.4664C30.0631 34.5968 29.9897 34.7737 29.9897 34.9585C29.9897 35.1432 30.0631 35.3201 30.1935 35.4505L32.9252 38.1806C32.5024 38.9227 32.1737 39.7144 31.9454 40.5371H28.0867C27.7025 40.5371 27.3911 40.8488 27.3911 41.2327V45.4061C27.3911 45.7903 27.7025 46.1016 28.0867 46.1016ZM28.7823 41.9283H32.4897C32.8165 41.9283 33.0994 41.7008 33.1692 41.3816C33.3974 40.3399 33.8102 39.3471 34.3878 38.4504C34.5641 38.1755 34.525 37.8144 34.2938 37.5831L31.6688 34.9582L33.6365 32.9902L36.2609 35.6152C36.4922 35.847 36.8535 35.8861 37.129 35.7095C38.0259 35.1321 39.0185 34.7194 40.0602 34.4909C40.3792 34.4208 40.6069 34.1379 40.6069 33.8111V30.1037H43.3891V33.8111C43.3891 34.1379 43.6168 34.4208 43.9358 34.4909C44.9775 34.7194 45.97 35.1321 46.8669 35.7095C47.1424 35.8861 47.5038 35.847 47.735 35.6152L50.3594 32.9902L52.3266 34.9582L49.7022 37.5823C49.4704 37.8138 49.4316 38.1752 49.6082 38.4504C50.1858 39.3476 50.598 40.3401 50.8259 41.3821C50.896 41.7014 51.1789 41.9291 51.5055 41.9291H55.2137V44.7113H51.5055C51.1789 44.7113 50.896 44.9387 50.8259 45.258C50.598 46.2997 50.1855 47.2922 49.6082 48.1883C49.4318 48.4636 49.471 48.8247 49.7022 49.0559L52.3271 51.6803L50.3594 53.6488L47.735 51.0236C47.5038 50.7921 47.1424 50.753 46.8669 50.9296C45.9706 51.5072 44.9783 51.9199 43.9366 52.1482C43.6171 52.2177 43.3891 52.5008 43.3891 52.8277V56.5351H40.6069V52.8277C40.6069 52.5008 40.3789 52.2177 40.0594 52.1482C39.0176 51.9199 38.0254 51.5072 37.129 50.9296C36.8535 50.753 36.4922 50.7921 36.2609 51.0236L33.6365 53.6488L31.6694 51.6808L34.2938 49.0564C34.5256 48.8252 34.5644 48.4638 34.3878 48.1883C33.8102 47.2914 33.3974 46.2986 33.1692 45.2566C33.0991 44.9374 32.8165 44.7105 32.4897 44.7105H28.7823V41.9283Z" fill="white"/>
<path d="M41.9981 48.8839C45.0713 48.8839 47.5626 46.3929 47.5626 43.3194C47.5626 40.2461 45.0713 37.7549 41.9981 37.7549C38.9248 37.7549 36.4336 40.2461 36.4336 43.3194C36.4368 46.391 38.9265 48.8807 41.9981 48.8839ZM41.9981 39.146C44.3027 39.146 46.1715 41.0148 46.1715 43.3194C46.1715 45.6243 44.3027 47.4928 41.9981 47.4928C39.6935 47.4928 37.8247 45.6243 37.8247 43.3194C37.8271 41.0153 39.694 39.1485 41.9981 39.146Z" fill="white"/>
<path d="M41.9981 50.9707C46.2236 50.9707 49.6493 47.5454 49.6493 43.3195C49.6493 39.094 46.2236 35.6683 41.9981 35.6683C37.7725 35.6683 34.3469 39.094 34.3469 43.3195C34.352 47.5432 37.7744 50.9659 41.9981 50.9707ZM41.9981 37.0595C45.4555 37.0595 48.2582 39.8621 48.2582 43.3195C48.2582 46.777 45.4555 49.5796 41.9981 49.5796C38.5406 49.5796 35.738 46.777 35.738 43.3195C35.7418 39.864 38.5423 37.0633 41.9981 37.0595Z" fill="white"/>
<path d="M67.0383 60.7086V55.1441C67.0383 54.7601 66.7269 54.4485 66.3427 54.4485H64.9516V48.884C64.9516 48.5001 64.6402 48.1884 64.256 48.1884H57.996C57.6118 48.1884 57.3004 48.5001 57.3004 48.884V54.4485H53.8226C53.4384 54.4485 53.127 54.7601 53.127 55.1441V60.7086H30.8689C28.9491 60.711 27.3936 62.2665 27.3911 64.1864V65.5775C27.3936 67.4977 28.9491 69.0532 30.8689 69.0553H67.0383C68.9582 69.0532 70.5137 67.4977 70.5161 65.5775V64.1864C70.5137 62.2665 68.9582 60.711 67.0383 60.7086ZM65.6472 60.7086H60.7782V55.8396H65.6472V60.7086ZM58.6915 49.5795H63.5605V54.4485H58.6915V49.5795ZM54.5181 55.8396H59.3871V60.7086H54.5181V55.8396ZM69.125 65.5775C69.125 66.7301 68.1906 67.6642 67.0383 67.6642H30.8689C29.7166 67.6642 28.7823 66.7301 28.7823 65.5775V64.1864C28.7823 63.0341 29.7166 62.0997 30.8689 62.0997H67.0383C68.1906 62.0997 69.125 63.0341 69.125 64.1864V65.5775Z" fill="white"/>
<path d="M48.9536 62.7953C47.8013 62.7953 46.8669 63.7297 46.8669 64.882C46.8669 66.0346 47.8013 66.9687 48.9536 66.9687C50.1059 66.9687 51.0403 66.0346 51.0403 64.882C51.0403 63.7297 50.1059 62.7953 48.9536 62.7953ZM48.9536 65.5776C48.5694 65.5776 48.2581 65.2662 48.2581 64.882C48.2581 64.4981 48.5694 64.1865 48.9536 64.1865C49.3378 64.1865 49.6492 64.4981 49.6492 64.882C49.6492 65.2662 49.3378 65.5776 48.9536 65.5776Z" fill="white"/>
<path d="M41.9981 62.7953C40.8458 62.7953 39.9114 63.7297 39.9114 64.882C39.9114 66.0346 40.8458 66.9687 41.9981 66.9687C43.1504 66.9687 44.0848 66.0346 44.0848 64.882C44.0848 63.7297 43.1504 62.7953 41.9981 62.7953ZM41.9981 65.5776C41.6139 65.5776 41.3025 65.2662 41.3025 64.882C41.3025 64.4981 41.6139 64.1865 41.9981 64.1865C42.3823 64.1865 42.6937 64.4981 42.6937 64.882C42.6937 65.2662 42.3823 65.5776 41.9981 65.5776Z" fill="white"/>
<path d="M55.9094 62.7953C54.7571 62.7953 53.8227 63.7297 53.8227 64.882C53.8227 66.0346 54.7571 66.9687 55.9094 66.9687C57.0617 66.9687 57.9961 66.0346 57.9961 64.882C57.9961 63.7297 57.0617 62.7953 55.9094 62.7953ZM55.9094 65.5776C55.5252 65.5776 55.2138 65.2662 55.2138 64.882C55.2138 64.4981 55.5252 64.1865 55.9094 64.1865C56.2936 64.1865 56.6049 64.4981 56.6049 64.882C56.6049 65.2662 56.2936 65.5776 55.9094 65.5776Z" fill="white"/>
<path d="M35.0422 62.7953C33.8899 62.7953 32.9555 63.7297 32.9555 64.882C32.9555 66.0346 33.8899 66.9687 35.0422 66.9687C36.1945 66.9687 37.1289 66.0346 37.1289 64.882C37.1289 63.7297 36.1945 62.7953 35.0422 62.7953ZM35.0422 65.5776C34.658 65.5776 34.3467 65.2662 34.3467 64.882C34.3467 64.4981 34.658 64.1865 35.0422 64.1865C35.4264 64.1865 35.7378 64.4981 35.7378 64.882C35.7378 65.2662 35.4264 65.5776 35.0422 65.5776Z" fill="white"/>
<path d="M62.8648 62.7953C61.7125 62.7953 60.7781 63.7297 60.7781 64.882C60.7781 66.0346 61.7125 66.9687 62.8648 66.9687C64.0171 66.9687 64.9515 66.0346 64.9515 64.882C64.9515 63.7297 64.0171 62.7953 62.8648 62.7953ZM62.8648 65.5776C62.4806 65.5776 62.1693 65.2662 62.1693 64.882C62.1693 64.4981 62.4806 64.1865 62.8648 64.1865C63.249 64.1865 63.5604 64.4981 63.5604 64.882C63.5604 65.2662 63.249 65.5776 62.8648 65.5776Z" fill="white"/>
</svg>
