<svg width="52" height="52" viewBox="0 0 52 52" fill="none" xmlns="http://www.w3.org/2000/svg">
<path d="M39.0002 32.0664C37.629 32.0664 36.2885 32.473 35.1483 33.2349C34.0081 33.9967 33.1194 35.0796 32.5947 36.3465C32.0699 37.6134 31.9326 39.0074 32.2001 40.3524C32.4676 41.6973 33.128 42.9327 34.0976 43.9023C35.0673 44.872 36.3027 45.5323 37.6476 45.7998C38.9925 46.0674 40.3866 45.9301 41.6535 45.4053C42.9204 44.8805 44.0033 43.9919 44.7651 42.8517C45.5269 41.7115 45.9336 40.371 45.9336 38.9997C45.9315 37.1615 45.2004 35.3992 43.9006 34.0994C42.6008 32.7996 40.8384 32.0685 39.0002 32.0664ZM39.0002 44.1997C37.9718 44.1997 36.9664 43.8948 36.1113 43.3234C35.2561 42.752 34.5896 41.9399 34.1961 40.9897C33.8025 40.0395 33.6995 38.994 33.9001 37.9853C34.1008 36.9766 34.596 36.05 35.3233 35.3228C36.0505 34.5956 36.9771 34.1003 37.9858 33.8997C38.9945 33.699 40.04 33.802 40.9902 34.1956C41.9404 34.5891 42.7525 35.2556 43.3239 36.1108C43.8953 36.9659 44.2002 37.9713 44.2002 38.9997C44.1989 40.3784 43.6506 41.7003 42.6757 42.6752C41.7008 43.6501 40.3789 44.1984 39.0002 44.1997Z" fill="white"/>
<path d="M38.9999 35.5332C38.3142 35.5332 37.644 35.7365 37.0739 36.1174C36.5038 36.4984 36.0595 37.0398 35.7971 37.6732C35.5347 38.3067 35.4661 39.0037 35.5998 39.6762C35.7336 40.3486 36.0637 40.9664 36.5486 41.4512C37.0334 41.936 37.6511 42.2662 38.3236 42.3999C38.996 42.5337 39.6931 42.465 40.3265 42.2027C40.96 41.9403 41.5014 41.4959 41.8823 40.9258C42.2632 40.3558 42.4665 39.6855 42.4665 38.9999C42.4665 38.0805 42.1013 37.1987 41.4512 36.5486C40.801 35.8984 39.9193 35.5332 38.9999 35.5332ZM38.9999 40.7332C38.6571 40.7332 38.3219 40.6315 38.0369 40.4411C37.7518 40.2506 37.5297 39.9799 37.3985 39.6632C37.2673 39.3465 37.233 38.9979 37.2998 38.6617C37.3667 38.3255 37.5318 38.0166 37.7742 37.7742C38.0166 37.5318 38.3255 37.3667 38.6617 37.2998C38.9979 37.233 39.3465 37.2673 39.6632 37.3985C39.9799 37.5297 40.2506 37.7518 40.4411 38.0369C40.6315 38.3219 40.7332 38.657 40.7332 38.9999C40.7332 39.4596 40.5506 39.9005 40.2255 40.2255C39.9005 40.5506 39.4596 40.7332 38.9999 40.7332Z" fill="white"/>
<path d="M50.9643 36.5733L49.4113 35.9519C49.1916 35.2043 48.8915 34.4828 48.516 33.8L49.1755 32.2608C49.2921 31.9952 49.3325 31.7024 49.2923 31.4151C49.252 31.1278 49.1327 30.8574 48.9476 30.6341C48.7101 30.3507 48.4562 30.0751 48.1919 29.8116C47.9275 29.5481 47.6528 29.2916 47.3694 29.0559C47.1465 28.8707 46.8763 28.7512 46.5893 28.711C46.3023 28.6707 46.0097 28.7112 45.7444 28.8279L44.2 29.484C43.5164 29.1084 42.794 28.8082 42.0455 28.5887L41.4267 27.04C41.3209 26.7699 41.142 26.5345 40.9102 26.3602C40.6783 26.1859 40.4025 26.0795 40.1137 26.0529C39.3719 25.9861 38.6255 25.9861 37.8837 26.0529C37.5953 26.08 37.3201 26.1866 37.0887 26.3609C36.8574 26.5352 36.6789 26.7703 36.5733 27.04L35.9519 28.5931C35.2045 28.8113 34.483 29.11 33.8 29.484L32.2608 28.8245C31.9953 28.7074 31.7024 28.6667 31.415 28.707C31.1276 28.7472 30.8572 28.8669 30.6341 29.0524C30.3507 29.2899 30.0751 29.5438 29.8116 29.8081C29.5481 30.0725 29.2916 30.3472 29.0559 30.6306C28.947 30.7654 28.862 30.9178 28.8045 31.0813C27.5923 30.5864 26.2953 30.3324 24.986 30.3333H24.7442C24.1785 29.612 23.4078 29.0788 22.5333 28.8037V27.8737C23.7547 27.0529 24.7727 25.9643 25.5099 24.6908C26.2472 23.4172 26.6842 21.9923 26.7878 20.5244C27.208 20.3878 27.5961 20.1673 27.9284 19.8762C28.2608 19.5851 28.5306 19.2295 28.7213 18.8309C29.3469 17.4349 29.6035 15.9016 29.4667 14.378V12.3665C29.4937 9.11874 28.2315 5.99289 25.9569 3.67457C23.6823 1.35625 20.581 0.034771 17.3333 0C14.0857 0.034771 10.9844 1.35625 8.7098 3.67457C6.43519 5.99289 5.17296 9.11874 5.2 12.3665V14.378C5.06319 15.9036 5.32074 17.4387 5.94793 18.8361C6.13863 19.2338 6.40811 19.5885 6.74003 19.8789C7.07195 20.1692 7.4594 20.3892 7.87887 20.5253C7.98258 21.993 8.41967 23.4178 9.15691 24.6911C9.89415 25.9645 10.9121 27.053 12.1333 27.8737V28.8037C11.2589 29.0788 10.4882 29.612 9.92247 30.3333H9.68067C4.34287 30.3333 0 34.4587 0 39.5287V50.2667C0 50.7264 0.182619 51.1673 0.507682 51.4923C0.832745 51.8174 1.27362 52 1.73333 52H32.9333C33.393 52 33.8339 51.8174 34.159 51.4923C34.4841 51.1673 34.6667 50.7264 34.6667 50.2667V48.9346C35.0844 49.1202 35.5134 49.2794 35.9511 49.4113L36.5725 50.9643C36.6783 51.2344 36.8571 51.4698 37.089 51.6441C37.3208 51.8184 37.5966 51.9248 37.8855 51.9515C38.2538 51.9844 38.6265 52 39 52C39.3735 52 39.7462 51.9844 40.1154 51.9515C40.404 51.9245 40.6794 51.818 40.9109 51.6437C41.1424 51.4694 41.321 51.2342 41.4267 50.9643L42.0481 49.4113C42.7957 49.1916 43.5172 48.8915 44.2 48.516L45.7392 49.1755C46.0048 49.2921 46.2976 49.3325 46.5849 49.2923C46.8722 49.252 47.1426 49.1327 47.3659 48.9476C47.6493 48.7101 47.9249 48.4562 48.1884 48.1919C48.4519 47.9275 48.7084 47.6528 48.9441 47.3694C49.1293 47.1465 49.2488 46.8763 49.289 46.5893C49.3293 46.3023 49.2888 46.0097 49.1721 45.7444L48.516 44.2C48.8916 43.5164 49.1918 42.794 49.4113 42.0455L50.9643 41.4241C51.2344 41.3183 51.4698 41.1394 51.6441 40.9076C51.8184 40.6757 51.9248 40.3999 51.9515 40.1111C51.9844 39.7427 52 39.3701 52 38.9965C52 38.623 51.9844 38.2503 51.9515 37.8811C51.9239 37.5932 51.8171 37.3185 51.6428 37.0877C51.4686 36.8568 51.2337 36.6787 50.9643 36.5733ZM17.3333 46.7307C16.6812 46.4322 16.0866 46.0216 15.5766 45.5173L16.38 38.1333H18.2867L19.0875 45.5208C18.578 46.0235 17.9843 46.433 17.3333 46.7307ZM17.3333 33.2401C18.081 33.3364 18.8017 33.5822 19.4523 33.9629L18.4799 36.4H16.1867L15.2143 33.9733C15.8653 33.5913 16.5855 33.3421 17.3333 33.2401ZM13.8407 35.7431C13.8677 35.6428 13.9004 35.5441 13.9386 35.4475L14.7186 37.388L14.053 43.5283C12.7634 41.0514 11.9408 38.3583 11.6263 35.5836C11.9194 35.8483 12.2372 36.0842 12.5753 36.2882C12.6916 36.3538 12.8215 36.3917 12.9548 36.3989C13.0881 36.4061 13.2213 36.3824 13.344 36.3296C13.4666 36.2769 13.5754 36.1965 13.6619 36.0947C13.7483 35.993 13.8101 35.8726 13.8424 35.7431H13.8407ZM20.618 43.5327L19.9515 37.388L20.7315 35.4475C20.7696 35.5442 20.8023 35.6428 20.8295 35.7431C20.8617 35.8726 20.9235 35.993 21.01 36.0947C21.0965 36.1965 21.2053 36.2769 21.3279 36.3296C21.4506 36.3824 21.5837 36.4061 21.7171 36.3989C21.8504 36.3917 21.9803 36.3538 22.0965 36.2882C22.4361 36.0837 22.7554 35.8472 23.0499 35.5819C22.7353 38.3592 21.9109 41.0546 20.618 43.5327ZM23.3913 31.4184C23.3064 32.4714 22.8221 33.4521 22.0376 34.1597C21.5624 33.3678 20.8737 32.7259 20.0503 32.3076C20.8642 31.8697 21.5635 31.2462 22.0913 30.4876C22.6113 30.6559 23.0663 30.981 23.3939 31.4184H23.3913ZM17.3333 1.73333C20.0699 1.76702 22.6855 2.86621 24.6247 4.79742C26.5638 6.72864 27.6737 9.33974 27.7186 12.0761C27.3832 11.9898 27.0316 11.9874 26.6951 12.0692C25.9558 9.06447 23.0031 7.52527 21.1675 7.06593C20.8673 6.9841 20.553 6.9672 20.2458 7.01636C19.9385 7.06553 19.6453 7.17964 19.3856 7.35107C16.939 9.0116 12.2651 9.79507 9.88953 9.8982C9.33725 9.92826 8.81629 10.1642 8.42947 10.5596C8.04264 10.9549 7.81805 11.4809 7.8 12.0337C7.51603 11.9874 7.22562 11.9992 6.94633 12.0683C6.99325 9.333 8.10427 6.72362 10.0436 4.79403C11.9829 2.86443 14.5978 1.76652 17.3333 1.73333ZM9.60093 20.306C9.5836 19.9839 9.46688 19.6752 9.26682 19.4222C9.06676 19.1692 8.7932 18.9844 8.4838 18.8933C8.26993 18.8366 8.07124 18.7333 7.90194 18.5908C7.73264 18.4483 7.59691 18.2702 7.50447 18.0691C6.99864 16.9087 6.80188 15.6371 6.93333 14.378C6.93191 14.2738 6.95465 14.1706 6.99976 14.0767C7.04486 13.9827 7.11112 13.9004 7.19333 13.8363C7.2697 13.7758 7.3637 13.7417 7.46113 13.7393C7.49775 13.7392 7.53419 13.7442 7.56947 13.754C7.6792 13.8043 7.76631 13.8935 7.81387 14.0045C7.852 14.2162 7.96752 14.4062 8.13797 14.5375C8.30841 14.6687 8.52159 14.7319 8.73604 14.7148C8.9505 14.6976 9.15089 14.6012 9.29825 14.4445C9.44562 14.2877 9.52941 14.0818 9.53333 13.8667V12.1247C9.52922 12.0026 9.57171 11.8835 9.65219 11.7916C9.73267 11.6997 9.8451 11.6418 9.96667 11.6298C12.6291 11.5137 17.5933 10.6609 20.3476 8.7906C20.4056 8.75726 20.4697 8.736 20.5362 8.72811C20.6026 8.72021 20.6699 8.72585 20.7341 8.74467C20.917 8.78973 25.1333 9.88607 25.1333 13.52V13.8667C25.1337 14.0843 25.2159 14.2938 25.3637 14.4536C25.5115 14.6134 25.7139 14.7117 25.9309 14.7291C26.1478 14.7464 26.3633 14.6816 26.5346 14.5473C26.7059 14.4131 26.8204 14.2193 26.8554 14.0045C26.9023 13.8939 26.9889 13.8049 27.0981 13.7549C27.163 13.7371 27.2312 13.7353 27.2969 13.7495C27.3627 13.7637 27.4241 13.7934 27.4759 13.8363C27.5581 13.9004 27.6244 13.9827 27.6695 14.0767C27.7146 14.1706 27.7374 14.2738 27.7359 14.378C27.8681 15.636 27.6722 16.9067 27.1674 18.0665C27.0732 18.2716 26.9343 18.4531 26.761 18.5976C26.5877 18.7422 26.3842 18.8462 26.1655 18.902C25.8608 18.9954 25.5921 19.1801 25.3959 19.4312C25.1996 19.6824 25.0853 19.9877 25.0683 20.306C24.9655 22.2956 24.1083 24.1712 22.6713 25.5511C21.2343 26.9309 19.3255 27.7113 17.3333 27.7333C15.3417 27.7106 13.4335 26.93 11.997 25.5502C10.5605 24.1704 9.70373 22.2951 9.60093 20.306ZM17.3333 29.4667C18.5212 29.4669 19.6981 29.2389 20.8 28.795V29.2829C20.6041 29.6677 19.7834 30.9374 17.3333 31.4791C14.8737 30.9357 14.0556 29.6591 13.8667 29.2864V28.795C14.9685 29.2389 16.1454 29.4669 17.3333 29.4667ZM12.5727 30.4841C13.1006 31.2427 13.7998 31.8663 14.6137 32.3041C13.7906 32.7224 13.1019 33.3639 12.6265 34.1553C11.8417 33.4484 11.3573 32.4678 11.2727 31.4149C11.5999 30.9782 12.0539 30.6531 12.5727 30.4841ZM1.73333 39.5287C1.80122 37.5095 2.65862 35.5975 4.12123 34.2038C5.58384 32.8101 7.53489 32.0458 9.555 32.0753C9.67893 35.1667 10.5421 45.422 16.4667 48.2369V50.2667H1.73333V39.5287ZM18.2 50.2667V48.2343C24.1228 45.4185 24.9869 35.1702 25.1117 32.0753C26.5694 32.0934 27.9963 32.4971 29.2474 33.2453L29.484 33.8C29.1084 34.4836 28.8082 35.206 28.5887 35.9545L27.04 36.5733C26.7699 36.6791 26.5345 36.858 26.3602 37.0898C26.1859 37.3217 26.0795 37.5975 26.0529 37.8863C26.0156 38.2538 26 38.6265 26 39C26 39.3735 26.0156 39.7462 26.0485 40.1154C26.0758 40.4044 26.183 40.6802 26.3581 40.9118C26.5332 41.1434 26.7693 41.3216 27.04 41.4267L28.5931 42.0481C28.8113 42.7955 29.11 43.517 29.484 44.2L28.8245 45.7392C28.7079 46.0048 28.6675 46.2976 28.7077 46.5849C28.748 46.8722 28.8673 47.1426 29.0524 47.3659C29.2899 47.6493 29.5438 47.9249 29.8081 48.1884C30.0725 48.4519 30.3472 48.7084 30.6306 48.9441C30.8535 49.1293 31.1237 49.2488 31.4107 49.289C31.6977 49.3293 31.9903 49.2888 32.2556 49.1721L32.9333 48.8861V50.2667H18.2ZM50.2346 39.8519L48.3661 40.5999C48.2384 40.6508 48.1246 40.7313 48.0342 40.8348C47.9438 40.9384 47.8793 41.0619 47.8461 41.1953C47.6273 42.0774 47.2767 42.9215 46.8061 43.6991C46.7351 43.8168 46.6931 43.9497 46.6836 44.0868C46.6741 44.2239 46.6974 44.3614 46.7515 44.4877L47.5453 46.3415C47.3616 46.5565 47.1675 46.7653 46.9655 46.9664C46.7636 47.1675 46.5556 47.3625 46.3407 47.5462L44.4869 46.7523C44.3606 46.6977 44.2231 46.6742 44.0859 46.6837C43.9487 46.6932 43.8157 46.7355 43.6982 46.8069C42.9207 47.2775 42.0766 47.6282 41.1944 47.8469C41.061 47.8802 40.9375 47.9447 40.834 48.0351C40.7304 48.1255 40.6499 48.2393 40.599 48.3669L39.8511 50.2355C39.284 50.2797 38.7143 50.2797 38.1472 50.2355L37.3993 48.3669C37.3484 48.2393 37.2678 48.1255 37.1643 48.0351C37.0608 47.9447 36.9372 47.8802 36.8039 47.8469C35.9217 47.6282 35.0776 47.2775 34.3001 46.8069C34.1825 46.7355 34.0496 46.6933 33.9124 46.6838C33.7752 46.6743 33.6377 46.6978 33.5114 46.7523L31.6576 47.5462C31.4427 47.3625 31.2338 47.1683 31.0327 46.9664C30.8317 46.7645 30.6367 46.5565 30.4529 46.3415L31.2468 44.4877C31.3009 44.3614 31.3242 44.2239 31.3147 44.0868C31.3052 43.9497 31.2632 43.8168 31.1922 43.6991C30.7216 42.9215 30.371 42.0774 30.1522 41.1953C30.1189 41.0619 30.0545 40.9384 29.964 40.8348C29.8736 40.7313 29.7599 40.6508 29.6322 40.5999L27.7637 39.8519C27.7437 39.5703 27.7333 39.2851 27.7333 39C27.7333 38.7149 27.7437 38.4297 27.7654 38.1481L29.6339 37.4001C29.7616 37.3492 29.8754 37.2687 29.9658 37.1652C30.0562 37.0616 30.1207 36.9381 30.1539 36.8047C30.3727 35.9226 30.7233 35.0785 31.1939 34.3009C31.2649 34.1832 31.3069 34.0503 31.3164 33.9132C31.3259 33.7761 31.3026 33.6386 31.2485 33.5123L30.4547 31.6585C30.6384 31.4435 30.8325 31.2347 31.0345 31.0336C31.2364 30.8325 31.4444 30.6375 31.6593 30.4538L33.5131 31.2477C33.6395 31.3018 33.7769 31.325 33.9141 31.3155C34.0512 31.306 34.1841 31.2641 34.3018 31.1931C35.0793 30.7225 35.9234 30.3719 36.8056 30.1531C36.939 30.1198 37.0625 30.0553 37.166 29.9649C37.2696 29.8745 37.3501 29.7607 37.401 29.6331L38.1489 27.7645C38.716 27.7203 39.2857 27.7203 39.8528 27.7645L40.6007 29.6331C40.6516 29.7607 40.7322 29.8745 40.8357 29.9649C40.9392 30.0553 41.0628 30.1198 41.1961 30.1531C42.0783 30.3719 42.9224 30.7225 43.6999 31.1931C43.8176 31.2641 43.9506 31.306 44.0877 31.3155C44.2248 31.325 44.3622 31.3018 44.4886 31.2477L46.3424 30.4538C46.5573 30.6375 46.7662 30.8317 46.9673 31.0336C47.1683 31.2355 47.3633 31.4435 47.5471 31.6585L46.7532 33.5123C46.6991 33.6386 46.6758 33.7761 46.6853 33.9132C46.6948 34.0503 46.7368 34.1832 46.8078 34.3009C47.2784 35.0785 47.629 35.9226 47.8478 36.8047C47.8811 36.9381 47.9455 37.0616 48.036 37.1652C48.1264 37.2687 48.2401 37.3492 48.3678 37.4001L50.2363 38.1481C50.258 38.4297 50.2684 38.7149 50.2684 39C50.2684 39.2851 50.2563 39.5703 50.2346 39.8519Z" fill="white"/>
<path d="M48.5335 5.2002H46.8002C46.3405 5.2002 45.8996 5.38281 45.5746 5.70788C45.2495 6.03294 45.0669 6.47382 45.0669 6.93353V10.4002H38.1335V6.93353C38.1335 6.47382 37.9509 6.03294 37.6259 5.70788C37.3008 5.38281 36.8599 5.2002 36.4002 5.2002H34.6669C33.7474 5.2002 32.8657 5.56543 32.2156 6.21556C31.5654 6.86568 31.2002 7.74744 31.2002 8.66686V20.7525C31.2002 20.8297 31.2002 20.9077 31.2045 20.9857C31.2716 21.8908 31.6833 22.7357 32.355 23.3462C33.0266 23.9567 33.9068 24.2862 34.8142 24.2669H48.5335C49.453 24.2669 50.3347 23.9016 50.9848 23.2515C51.635 22.6014 52.0002 21.7196 52.0002 20.8002V8.66686C52.0002 7.74744 51.635 6.86568 50.9848 6.21556C50.3347 5.56543 49.453 5.2002 48.5335 5.2002ZM32.9335 8.66686C32.9335 8.20715 33.1161 7.76627 33.4412 7.44121C33.7663 7.11615 34.2072 6.93353 34.6669 6.93353H36.4002V17.3335H34.6669C34.0582 17.3341 33.4604 17.4949 32.9335 17.7998V8.66686ZM48.5335 22.5335H34.8142C34.352 22.5473 33.9015 22.3862 33.5529 22.0824C33.2043 21.7786 32.9831 21.3544 32.9335 20.8947C32.9335 20.8626 32.9335 20.8314 32.9335 20.8002V20.7733C32.9406 20.3183 33.1263 19.8843 33.4506 19.565C33.7749 19.2457 34.2118 19.0668 34.6669 19.0669H36.4002C36.8599 19.0669 37.3008 18.8842 37.6259 18.5592C37.9509 18.2341 38.1335 17.7932 38.1335 17.3335V12.1335H45.0669V17.3335C45.0669 17.7932 45.2495 18.2341 45.5746 18.5592C45.8996 18.8842 46.3405 19.0669 46.8002 19.0669H48.5335C48.9933 19.0669 49.4341 19.2495 49.7592 19.5745C50.0843 19.8996 50.2669 20.3405 50.2669 20.8002C50.2669 21.2599 50.0843 21.7008 49.7592 22.0258C49.4341 22.3509 48.9933 22.5335 48.5335 22.5335ZM50.2669 17.7989C49.7404 17.4932 49.1423 17.3326 48.5335 17.3335H46.8002V6.93353H48.5335C48.9933 6.93353 49.4341 7.11615 49.7592 7.44121C50.0843 7.76627 50.2669 8.20715 50.2669 8.66686V17.7989Z" fill="white"/>
</svg>
