<svg width="60" height="62" viewBox="0 0 60 62" fill="none" xmlns="http://www.w3.org/2000/svg">
<rect x="0.5" y="0.5" width="59" height="61" rx="29.5" stroke="#009944"/>
<g clip-path="url(#clip0_990_2109)">
<path d="M38.2138 28.995C38.1158 28.8969 37.9798 28.8405 37.8411 28.8405C37.7024 28.8405 37.5663 28.8969 37.4682 28.995C37.3701 29.0931 37.3137 29.2291 37.3137 29.3678C37.3137 29.5065 37.3701 29.6425 37.4682 29.7406C37.5663 29.8387 37.7024 29.8951 37.8411 29.8951C37.9798 29.8951 38.1158 29.8387 38.2138 29.7406C38.3119 29.6425 38.3684 29.5065 38.3684 29.3678C38.3684 29.2291 38.312 29.0931 38.2138 28.995Z" fill="#009944"/>
<path d="M30.6165 40.0977H20.4387C20.1475 40.0977 19.9114 40.3337 19.9114 40.625C19.9114 40.9163 20.1475 41.1523 20.4387 41.1523H30.6165C30.9077 41.1523 31.1438 40.9163 31.1438 40.625C31.1438 40.3337 30.9077 40.0977 30.6165 40.0977Z" fill="#009944"/>
<path d="M30.6165 37.1445H22.6008C22.3096 37.1445 22.0735 37.3806 22.0735 37.6719C22.0735 37.9631 22.3096 38.1992 22.6008 38.1992H30.6165C30.9077 38.1992 31.1438 37.9631 31.1438 37.6719C31.1438 37.3806 30.9077 37.1445 30.6165 37.1445Z" fill="#009944"/>
<path d="M30.6165 34.1914H20.3891C20.0979 34.1914 19.8618 34.4275 19.8618 34.7188C19.8618 35.01 20.0979 35.2461 20.3891 35.2461H30.6165C30.9077 35.2461 31.1438 35.01 31.1438 34.7188C31.1438 34.4275 30.9077 34.1914 30.6165 34.1914Z" fill="#009944"/>
<path d="M20.762 31.3928C20.6639 31.2947 20.5279 31.2383 20.3892 31.2383C20.2505 31.2383 20.1144 31.2947 20.0164 31.3928C19.9183 31.4909 19.8618 31.6269 19.8618 31.7656C19.8618 31.9043 19.9182 32.0404 20.0164 32.1385C20.1144 32.2365 20.25 32.293 20.3892 32.293C20.5279 32.293 20.6639 32.2365 20.762 32.1385C20.8601 32.0404 20.9165 31.9043 20.9165 31.7656C20.9165 31.6269 20.8601 31.4909 20.762 31.3928Z" fill="#009944"/>
<path d="M20.762 37.299C20.6639 37.201 20.5279 37.1445 20.3892 37.1445C20.2505 37.1445 20.1144 37.201 20.0164 37.299C19.9183 37.3971 19.8618 37.5332 19.8618 37.6719C19.8618 37.8106 19.9182 37.9466 20.0164 38.0447C20.1144 38.1428 20.2505 38.1992 20.3892 38.1992C20.5279 38.1992 20.6639 38.1428 20.762 38.0447C20.8601 37.9466 20.9165 37.8106 20.9165 37.6719C20.9165 37.5332 20.8601 37.3971 20.762 37.299Z" fill="#009944"/>
<path d="M30.6165 31.2383H22.6008C22.3096 31.2383 22.0735 31.4744 22.0735 31.7656C22.0735 32.0569 22.3096 32.293 22.6008 32.293H30.6165C30.9077 32.293 31.1438 32.0569 31.1438 31.7656C31.1438 31.4744 30.9077 31.2383 30.6165 31.2383Z" fill="#009944"/>
<path d="M23.2079 23.3184H20.3891C20.0979 23.3184 19.8618 23.5545 19.8618 23.8457C19.8618 24.137 20.0979 24.373 20.3891 24.373H21.2712V28.3173C21.2712 28.6086 21.5073 28.8447 21.7985 28.8447C22.0897 28.8447 22.3259 28.6086 22.3259 28.3173V24.373H23.208C23.4992 24.373 23.7353 24.137 23.7353 23.8457C23.7353 23.5545 23.4992 23.3184 23.2079 23.3184Z" fill="#009944"/>
<path d="M28.4986 28.1114L26.6137 23.6734C26.5311 23.4786 26.3399 23.3522 26.1284 23.3522C25.9168 23.3522 25.7257 23.4786 25.643 23.6734L23.7581 28.1114C23.6442 28.3795 23.7693 28.6891 24.0374 28.8029C24.3053 28.9169 24.615 28.7917 24.7289 28.5237L25.0659 27.73H27.1908L27.5279 28.5237C27.6132 28.7245 27.8082 28.845 28.0135 28.845C28.0823 28.845 28.1522 28.8315 28.2194 28.8029C28.4874 28.6891 28.6125 28.3794 28.4986 28.1114ZM25.5139 26.6753L26.1284 25.2285L26.7429 26.6753H25.5139Z" fill="#009944"/>
<path d="M31.5791 26.0823L32.819 24.1273C32.9749 23.8814 32.902 23.5556 32.656 23.3996C32.4101 23.2436 32.0842 23.3166 31.9282 23.5625L30.9547 25.0976L29.9811 23.5625C29.8251 23.3166 29.4994 23.2436 29.2533 23.3996C29.0073 23.5556 28.9344 23.8814 29.0903 24.1274L30.3302 26.0824L29.0903 28.0373C28.9344 28.2832 29.0073 28.6091 29.2533 28.7651C29.3409 28.8206 29.4387 28.8472 29.5352 28.8472C29.7098 28.8472 29.8807 28.7605 29.9811 28.6022L30.9547 27.067L31.9282 28.6022C32.0287 28.7605 32.1995 28.8472 32.3741 28.8472C32.4707 28.8472 32.5684 28.8206 32.656 28.7651C32.902 28.6091 32.9749 28.2832 32.819 28.0373L31.5791 26.0823Z" fill="#009944"/>
<path d="M42.991 36.0898C42.991 35.506 42.7399 34.9799 42.3402 34.6133C42.7399 34.2467 42.991 33.7205 42.991 33.1367C42.991 32.0318 42.092 31.1328 40.9871 31.1328H36.3465C35.2415 31.1328 34.3426 32.0318 34.3426 33.1367C34.3426 33.7205 34.5936 34.2467 34.9934 34.6133C34.5936 34.9799 34.3426 35.506 34.3426 36.0898C34.3426 36.6737 34.5936 37.1998 34.9934 37.5664C34.5936 37.933 34.3426 38.4591 34.3426 39.043C34.3426 39.6268 34.5936 40.1529 34.9934 40.5195C34.5936 40.8861 34.3426 41.4123 34.3426 41.9961C34.3426 42.3393 34.4294 42.6626 34.5821 42.9453H17.5911C17.3003 42.9453 17.0638 42.7087 17.0638 42.418V18.582C17.0638 18.2913 17.3003 18.0547 17.5911 18.0547H32.5149V21.2645C32.5149 22.1443 33.2308 22.8602 34.1107 22.8602H37.3138V27.2026C37.3138 27.4939 37.5499 27.73 37.8411 27.73C38.1323 27.73 38.3685 27.4939 38.3685 27.2026V22.3329C38.368 22.333 38.3676 22.333 38.3672 22.3331C38.3672 22.1959 38.3149 22.0609 38.214 21.96L33.4152 17.1612C33.3142 17.0603 33.1793 17.008 33.042 17.008C33.0421 17.0053 33.0422 17.0027 33.0422 17H17.5911C16.7187 17 16.009 17.7097 16.009 18.582V42.418C16.009 43.2903 16.7187 44 17.5911 44H40.987C42.092 44 42.991 43.101 42.991 41.9961C42.991 41.4123 42.7399 40.8861 42.3402 40.5195C42.7399 40.1529 42.991 39.6268 42.991 39.043C42.991 38.4591 42.7399 37.933 42.3402 37.5664C42.7399 37.1998 42.991 36.6737 42.991 36.0898ZM33.5696 18.8072L36.5679 21.8055H34.1106C33.8123 21.8055 33.5696 21.5628 33.5696 21.2645V18.8072ZM40.9871 42.9453H36.7864H36.3465C35.8231 42.9453 35.3973 42.5195 35.3973 41.9961C35.3973 41.4727 35.8231 41.0469 36.3465 41.0469H40.9871C41.5104 41.0469 41.9363 41.4727 41.9363 41.9961C41.9363 42.5195 41.5105 42.9453 40.9871 42.9453ZM40.9871 39.9922H36.3465C35.8231 39.9922 35.3973 39.5664 35.3973 39.043C35.3973 38.5196 35.8231 38.0938 36.3465 38.0938H40.9871C41.5104 38.0938 41.9363 38.5196 41.9363 39.043C41.9363 39.5664 41.5105 39.9922 40.9871 39.9922ZM40.9871 37.0391H36.3465C35.8231 37.0391 35.3973 36.6132 35.3973 36.0898C35.3973 35.5665 35.8231 35.1406 36.3465 35.1406H40.9871C41.5105 35.1406 41.9363 35.5665 41.9363 36.0898C41.9363 36.6132 41.5105 37.0391 40.9871 37.0391ZM40.9871 34.0859H36.3465C35.8231 34.0859 35.3973 33.6601 35.3973 33.1367C35.3973 32.6133 35.8231 32.1875 36.3465 32.1875H40.9871C41.5105 32.1875 41.9363 32.6133 41.9363 33.1367C41.9363 33.6601 41.5105 34.0859 40.9871 34.0859Z" fill="#009944"/>
</g>
<defs>
<clipPath id="clip0_990_2109">
<rect width="27" height="27" fill="white" transform="translate(16 17)"/>
</clipPath>
</defs>
</svg>
