<svg width="54" height="54" viewBox="0 0 54 54" fill="none" xmlns="http://www.w3.org/2000/svg">
<path d="M42.7835 6.37938C43.119 5.90309 43.0047 5.24517 42.5284 4.90978C37.9672 1.69773 32.5975 0 26.9999 0C23.4958 0 20.0861 0.661711 16.8654 1.96668C16.3256 2.18542 16.0653 2.80041 16.284 3.3402C16.5027 3.87998 17.1173 4.14039 17.6575 3.92164C20.6254 2.71909 23.7685 2.10938 26.9999 2.10938C32.1604 2.10938 37.1101 3.67411 41.314 6.63441C41.4986 6.76434 41.7105 6.82689 41.9203 6.82689C42.2518 6.82689 42.5781 6.671 42.7835 6.37938Z" fill="white"/>
<path d="M54 27.0001C54 21.6038 52.413 16.3949 49.4106 11.9365C49.0851 11.4532 48.4296 11.3255 47.9465 11.6508C47.4634 11.9762 47.3355 12.6315 47.6608 13.1147C50.428 17.2238 51.8907 22.0252 51.8907 27.0001C51.8907 32.2903 50.2674 37.3055 47.1898 41.5591C46.6855 41.3298 46.1263 41.201 45.5371 41.201C43.3272 41.201 41.5293 42.9989 41.5293 45.2088C41.5293 47.4187 43.3272 49.2166 45.5371 49.2166C47.747 49.2166 49.5449 47.4187 49.5449 45.2088C49.5449 44.3535 49.2747 43.5605 48.8163 42.909C52.2096 38.2695 54 32.7862 54 27.0001ZM45.5371 47.1073C44.4903 47.1073 43.6387 46.2556 43.6387 45.2088C43.6387 44.1621 44.4903 43.3104 45.5371 43.3104C46.5839 43.3104 47.4355 44.1621 47.4355 45.2088C47.4355 46.2556 46.5839 47.1073 45.5371 47.1073Z" fill="white"/>
<path d="M36.3422 50.078C33.3745 51.2807 30.2314 51.8904 27 51.8904C13.2752 51.8904 2.10938 40.7245 2.10938 26.9998C2.10938 21.7096 3.73264 16.6943 6.81022 12.4408C7.31457 12.67 7.87377 12.7988 8.46292 12.7988C10.6728 12.7988 12.4707 11.0009 12.4707 8.79102C12.4707 6.58113 10.6728 4.7832 8.46292 4.7832C6.25303 4.7832 4.45511 6.58113 4.45511 8.79102C4.45511 9.64637 4.72532 10.4394 5.18368 11.0909C1.79044 15.7303 0 21.2137 0 26.9998C0 34.2117 2.80853 40.992 7.90805 46.0916C13.0078 51.1913 19.788 53.9998 27 53.9998C30.5041 53.9998 33.9138 53.3381 37.1345 52.0331C37.6743 51.8144 37.9346 51.1994 37.7158 50.6596C37.497 50.1196 36.8819 49.8594 36.3422 50.078ZM8.46292 6.89258C9.5097 6.89258 10.3614 7.74424 10.3614 8.79102C10.3614 9.83779 9.5097 10.6895 8.46292 10.6895C7.41614 10.6895 6.56448 9.83779 6.56448 8.79102C6.56448 7.74424 7.41614 6.89258 8.46292 6.89258Z" fill="white"/>
<path d="M27.0001 24.6555C24.7732 24.6555 22.9614 26.4673 22.9614 28.6941C22.9614 29.6174 23.2692 30.4933 23.8361 31.2048V34.3543C23.8361 36.099 25.2555 37.5184 27.0001 37.5184C28.7448 37.5184 30.1642 36.099 30.1642 34.3543V31.2048C30.7311 30.4932 31.0389 29.6174 31.0389 28.6941C31.0389 26.4673 29.2271 24.6555 27.0001 24.6555ZM28.364 30.0587C28.1661 30.2565 28.0548 30.5249 28.0548 30.8047V34.3543C28.0548 34.9359 27.5817 35.409 27.0001 35.409C26.4186 35.409 25.9455 34.9359 25.9455 34.3543V30.8047C25.9455 30.5249 25.8342 30.2564 25.6363 30.0587C25.2716 29.6942 25.0708 29.2097 25.0708 28.6941C25.0708 27.6304 25.9363 26.7649 27.0001 26.7649C28.064 26.7649 28.9295 27.6304 28.9295 28.6941C28.9295 29.2097 28.7287 29.6943 28.364 30.0587Z" fill="white"/>
<path d="M36.698 20.6318V18.4694C36.698 13.122 32.3475 8.77148 27 8.77148C21.6525 8.77148 17.302 13.122 17.302 18.4694V20.6318C15.9365 21.213 14.9766 22.5682 14.9766 24.1434V38.03C14.9766 40.1334 16.6878 41.8446 18.7911 41.8446H35.209C37.3122 41.8446 39.0234 40.1334 39.0234 38.03V24.1434C39.0234 22.5682 38.0635 21.213 36.698 20.6318ZM19.4114 18.4694C19.4114 14.2851 22.8156 10.8809 27 10.8809C31.1844 10.8809 34.5886 14.2851 34.5886 18.4694V20.329H32.3763V18.4694C32.3763 15.5049 29.9645 13.0932 26.9999 13.0932C24.0353 13.0932 21.6235 15.505 21.6235 18.4694V20.329H19.4112V18.4694H19.4114ZM23.733 20.329V18.4694C23.733 16.668 25.1986 15.2025 27 15.2025C28.8014 15.2025 30.267 16.668 30.267 18.4694V20.329H23.733ZM36.9141 38.03C36.9141 38.9702 36.1491 39.7352 35.209 39.7352H18.7911C17.8509 39.7352 17.0859 38.9702 17.0859 38.03V24.1434C17.0859 23.2032 17.8509 22.4383 18.7911 22.4383H35.209C36.1491 22.4383 36.9141 23.2033 36.9141 24.1434V38.03Z" fill="white"/>
<path d="M45.5371 9.90153C45.8145 9.90153 46.0866 9.78974 46.2828 9.59356C46.4788 9.39739 46.5918 9.12528 46.5918 8.8479C46.5918 8.56946 46.4789 8.29735 46.2828 8.10118C46.0866 7.90501 45.8144 7.79321 45.5371 7.79321C45.2597 7.79321 44.9876 7.90501 44.7914 8.10118C44.5954 8.29735 44.4824 8.56946 44.4824 8.8479C44.4824 9.12528 44.5953 9.39634 44.7914 9.59356C44.9876 9.78974 45.2597 9.90153 45.5371 9.90153Z" fill="white"/>
</svg>
