<svg width="58" height="58" viewBox="0 0 58 58" fill="none" xmlns="http://www.w3.org/2000/svg">
<g clip-path="url(#clip0_437_1478)">
<path d="M44.4417 9.61566C44.467 9.61749 44.4922 9.61933 44.5179 9.61933C44.5615 9.61933 44.6051 9.61566 44.6477 9.60969C45.7898 9.63309 46.7038 10.5645 46.7052 11.7066C46.7052 12.2255 47.1259 12.6462 47.6448 12.6462C48.1638 12.6462 48.5845 12.2255 48.5845 11.7066C48.5822 9.83865 47.2819 8.22264 45.4576 7.8207V6.91772C45.4576 6.39878 45.0368 5.97803 44.5179 5.97803C43.999 5.97803 43.5782 6.39878 43.5782 6.91772V7.86337C41.6493 8.3791 40.4012 10.2452 40.6614 12.225C40.9216 14.2049 42.6092 15.6851 44.606 15.6851C45.7655 15.6851 46.7052 16.6252 46.7052 17.7847C46.7052 18.9437 45.7655 19.8839 44.606 19.8839C43.4465 19.8839 42.5068 18.9437 42.5068 17.7847C42.5068 17.2658 42.0861 16.845 41.5671 16.845C41.0482 16.845 40.6275 17.2658 40.6275 17.7847C40.6297 19.5852 41.8392 21.1604 43.5782 21.6279V22.6575C43.5782 23.1765 43.999 23.5972 44.5179 23.5972C45.0368 23.5972 45.4576 23.1765 45.4576 22.6575V21.671C47.442 21.2365 48.7805 19.3764 48.5616 17.3566C48.3432 15.3368 46.6377 13.8062 44.606 13.8066C43.4786 13.8071 42.5523 12.917 42.5077 11.7905C42.4637 10.6641 43.3176 9.70375 44.4417 9.61611V9.61566Z" fill="white"/>
<path d="M44.6596 1.38367C38.8788 1.38367 33.9454 5.15573 32.0972 10.2066H8.77426C8.25762 10.2066 7.83824 10.6723 7.83457 11.1885L7.6125 44.1529H0.964467C0.445527 44.1529 0 44.5286 0 45.0485V49.2317C0.0119296 53.1698 3.11364 56.4051 7.04767 56.5831V56.6037H36.0606V56.5762C36.2955 56.5849 36.3923 56.6037 36.541 56.6037H36.5612C40.6329 56.5973 43.9305 53.2946 43.9305 49.223V28.0726C44.1654 28.0854 44.4141 28.0923 44.6573 28.0923C52.0138 28.0923 58.0002 22.0945 58.0002 14.7375C58.0002 7.38107 52.0165 1.38367 44.6596 1.38367ZM7.40511 54.7244H7.39914C4.35937 54.7202 1.89314 52.2623 1.87938 49.222V46.0322H29.1304V49.2087C29.1318 51.1698 29.915 53.0496 31.3062 54.4321C31.4048 54.5307 31.5273 54.6069 31.6306 54.7244H7.40511ZM42.0511 49.222C42.0516 52.2568 39.5945 54.7184 36.5603 54.7244H36.5424C33.4957 54.7189 31.0249 52.2558 31.0098 49.2096V45.0485C31.0176 44.8081 30.9258 44.5754 30.7556 44.4057C30.5853 44.2359 30.3527 44.1446 30.1127 44.1529H9.49188L9.70753 12.0859H31.5755C31.409 12.9463 31.3227 13.8199 31.3181 14.6958C31.3163 16.5481 31.7026 18.3798 32.4523 20.0733H23.5767C23.0573 20.0733 22.637 20.4941 22.637 21.013C22.637 21.5319 23.0573 21.9527 23.5767 21.9527H33.4719C35.4104 25.0012 38.5094 27.1265 42.0511 27.8377V49.222ZM44.6596 26.2134C38.3295 26.2134 33.1975 21.0818 33.1979 14.7513C33.1979 8.42079 38.3295 3.2892 44.66 3.2892C50.9901 3.2892 56.1217 8.42125 56.1217 14.7513C56.1148 21.0786 50.9874 26.2065 44.6596 26.2134Z" fill="white"/>
<path d="M17.5448 26.3274C15.8861 26.3274 14.5371 27.6337 14.5371 29.2396C14.5371 30.8455 15.8861 32.1518 17.5448 32.1518C19.2034 32.1518 20.5529 30.8455 20.5529 29.2396C20.5529 27.6337 19.2034 26.3274 17.5448 26.3274ZM17.5448 30.2724C16.9221 30.2724 16.4165 29.809 16.4165 29.2396C16.4165 28.6697 16.9226 28.2068 17.5448 28.2068C18.1669 28.2068 18.6735 28.6702 18.6735 29.2396C18.6735 29.809 18.1669 30.2724 17.5448 30.2724Z" fill="white"/>
<path d="M22.637 29.2355C22.637 29.7544 23.0573 30.1752 23.5767 30.1752H36.1046C36.6236 30.1752 37.0443 29.7544 37.0443 29.2355C37.0443 28.7165 36.6236 28.2958 36.1046 28.2958H23.5767C23.0573 28.2958 22.637 28.7165 22.637 29.2355Z" fill="white"/>
<path d="M17.5448 18.1586C15.8861 18.1586 14.5371 19.4653 14.5371 21.0712C14.5371 22.6772 15.8861 23.9835 17.5448 23.9835C19.2034 23.9835 20.5529 22.6772 20.5529 21.0712C20.5529 19.4653 19.2034 18.1586 17.5448 18.1586ZM17.5448 22.1041C16.9221 22.1041 16.4165 21.6407 16.4165 21.0712C16.4165 20.5018 16.9226 20.0379 17.5448 20.0379C18.1669 20.0379 18.6735 20.5014 18.6735 21.0712C18.6735 21.6407 18.1669 22.1045 17.5448 22.1045V22.1041Z" fill="white"/>
<path d="M17.5448 34.4949C15.8861 34.4949 14.5371 35.8012 14.5371 37.4071C14.5371 39.013 15.8861 40.3193 17.5448 40.3193C19.2034 40.3193 20.5529 39.013 20.5529 37.4071C20.5529 35.8012 19.2034 34.4949 17.5448 34.4949ZM17.5448 38.4399C16.9221 38.4399 16.4165 37.977 16.4165 37.4071C16.4165 36.8377 16.9226 36.3743 17.5448 36.3743C18.1669 36.3743 18.6735 36.8377 18.6735 37.4071C18.6735 37.9765 18.1669 38.4399 17.5448 38.4399Z" fill="white"/>
<path d="M36.1046 36.5179H23.5767C23.0573 36.5179 22.637 36.9387 22.637 37.4576C22.637 37.9766 23.0573 38.3973 23.5767 38.3973H36.1046C36.6236 38.3973 37.0443 37.9766 37.0443 37.4576C37.0443 36.9387 36.6236 36.5179 36.1046 36.5179Z" fill="white"/>
</g>
<defs>
<clipPath id="clip0_437_1478">
<rect width="58" height="58" fill="white"/>
</clipPath>
</defs>
</svg>
