<svg width="51" height="51" viewBox="0 0 51 51" fill="none" xmlns="http://www.w3.org/2000/svg">
<g clip-path="url(#clip0_437_1344)">
<path d="M41.9595 22.6572C41.7743 22.4719 41.5173 22.3653 41.2554 22.3653C40.9934 22.3653 40.7364 22.4719 40.5511 22.6572C40.3659 22.8424 40.2593 23.0994 40.2593 23.3614C40.2593 23.6234 40.3658 23.8804 40.5511 24.0656C40.7364 24.2509 40.9934 24.3575 41.2554 24.3575C41.5173 24.3575 41.7743 24.2509 41.9595 24.0656C42.1448 23.8804 42.2515 23.6234 42.2515 23.3614C42.2515 23.0994 42.1449 22.8424 41.9595 22.6572Z" fill="white"/>
<path d="M27.6089 43.6289H8.38428C7.83423 43.6289 7.38818 44.0749 7.38818 44.625C7.38818 45.1751 7.83423 45.6211 8.38428 45.6211H27.6089C28.1589 45.6211 28.605 45.1751 28.605 44.625C28.605 44.0749 28.1589 43.6289 27.6089 43.6289Z" fill="white"/>
<path d="M27.6089 38.0508H12.4683C11.9182 38.0508 11.4722 38.4967 11.4722 39.0469C11.4722 39.597 11.9182 40.043 12.4683 40.043H27.6089C28.1589 40.043 28.605 39.597 28.605 39.0469C28.605 38.4967 28.159 38.0508 27.6089 38.0508Z" fill="white"/>
<path d="M27.6089 32.4727H8.29053C7.74048 32.4727 7.29443 32.9186 7.29443 33.4688C7.29443 34.0189 7.74048 34.4648 8.29053 34.4648H27.6089C28.1589 34.4648 28.605 34.0189 28.605 33.4688C28.605 32.9186 28.159 32.4727 27.6089 32.4727Z" fill="white"/>
<path d="M8.99477 27.1864C8.80949 27.0011 8.5525 26.8945 8.29053 26.8945C8.02855 26.8945 7.77156 27.0011 7.58639 27.1864C7.40112 27.3717 7.29443 27.6287 7.29443 27.8906C7.29443 28.1526 7.40102 28.4096 7.58639 28.5949C7.77156 28.7801 8.02766 28.8867 8.29053 28.8867C8.5525 28.8867 8.80949 28.7801 8.99477 28.5949C9.18004 28.4096 9.28662 28.1526 9.28662 27.8906C9.28662 27.6287 9.18014 27.3717 8.99477 27.1864Z" fill="white"/>
<path d="M8.99477 38.3426C8.80949 38.1574 8.5525 38.0508 8.29053 38.0508C8.02855 38.0508 7.77156 38.1574 7.58639 38.3426C7.40112 38.5279 7.29443 38.7849 7.29443 39.0469C7.29443 39.3088 7.40102 39.5658 7.58639 39.7511C7.77156 39.9364 8.02855 40.043 8.29053 40.043C8.5525 40.043 8.80949 39.9364 8.99477 39.7511C9.18004 39.5658 9.28662 39.3088 9.28662 39.0469C9.28662 38.7849 9.18014 38.5279 8.99477 38.3426Z" fill="white"/>
<path d="M27.6089 26.8945H12.4683C11.9182 26.8945 11.4722 27.3405 11.4722 27.8906C11.4722 28.4408 11.9182 28.8867 12.4683 28.8867H27.6089C28.1589 28.8867 28.605 28.4408 28.605 27.8906C28.605 27.3405 28.159 26.8945 27.6089 26.8945Z" fill="white"/>
<path d="M13.6149 11.9346H8.29053C7.74048 11.9346 7.29443 12.3805 7.29443 12.9307C7.29443 13.4808 7.74048 13.9268 8.29053 13.9268H9.95669V21.377C9.95669 21.9272 10.4027 22.3731 10.9528 22.3731C11.5028 22.3731 11.9489 21.9272 11.9489 21.377V13.9268H13.615C14.1651 13.9268 14.6111 13.4808 14.6111 12.9307C14.6111 12.3805 14.1651 11.9346 13.6149 11.9346Z" fill="white"/>
<path d="M23.6086 20.9882L20.0482 12.6053C19.892 12.2374 19.531 11.9985 19.1314 11.9985C18.7318 11.9985 18.3708 12.2374 18.2146 12.6053L14.6543 20.9882C14.4391 21.4946 14.6754 22.0794 15.1817 22.2944C15.6879 22.5096 16.2728 22.2732 16.4879 21.7669L17.1246 20.2678H21.1382L21.7749 21.7669C21.936 22.1462 22.3045 22.3739 22.6922 22.3738C22.8221 22.3738 22.9541 22.3483 23.0811 22.2944C23.5874 22.0793 23.8236 21.4945 23.6086 20.9882ZM17.9708 18.2756L19.1314 15.5427L20.2922 18.2756H17.9708Z" fill="white"/>
<path d="M29.4273 17.1555L31.7692 13.4628C32.0638 12.9983 31.926 12.3828 31.4614 12.0882C30.9969 11.7934 30.3814 11.9314 30.0867 12.3959L28.2477 15.2956L26.4088 12.3959C26.1141 11.9314 25.4988 11.7935 25.034 12.0882C24.5695 12.3828 24.4317 12.9983 24.7263 13.4629L27.0682 17.1556L24.7263 20.8482C24.4317 21.3128 24.5695 21.9283 25.034 22.2229C25.1995 22.3279 25.3842 22.378 25.5666 22.378C25.8964 22.378 26.2191 22.2144 26.4088 21.9152L28.2477 19.0155L30.0867 21.9152C30.2765 22.2144 30.5991 22.378 30.9289 22.378C31.1113 22.378 31.296 22.3279 31.4614 22.2229C31.926 21.9283 32.0638 21.3128 31.7692 20.8482L29.4273 17.1555Z" fill="white"/>
<path d="M50.983 36.0586C50.983 34.9558 50.5088 33.962 49.7538 33.2695C50.5088 32.577 50.983 31.5832 50.983 30.4805C50.983 28.3934 49.285 26.6953 47.1979 26.6953H38.4323C36.3451 26.6953 34.6471 28.3934 34.6471 30.4805C34.6471 31.5832 35.1213 32.577 35.8764 33.2695C35.1213 33.962 34.6471 34.9558 34.6471 36.0586C34.6471 37.1614 35.1213 38.1552 35.8764 38.8477C35.1213 39.5401 34.6471 40.5339 34.6471 41.6367C34.6471 42.7395 35.1213 43.7333 35.8764 44.4258C35.1213 45.1183 34.6471 46.1121 34.6471 47.2148C34.6471 47.8632 34.8112 48.4738 35.0996 49.0078H3.00547C2.45623 49.0078 2.00938 48.561 2.00938 48.0117V2.98828C2.00938 2.43904 2.45623 1.99219 3.00547 1.99219H31.1949V8.05511C31.1949 9.71709 32.547 11.0693 34.2091 11.0693H40.2594V19.2716C40.2594 19.8218 40.7054 20.2677 41.2555 20.2677C41.8055 20.2677 42.2516 19.8218 42.2516 19.2716V10.0732C42.2508 10.0734 42.25 10.0735 42.2492 10.0737C42.2492 9.81441 42.1505 9.55951 41.9598 9.36886L32.8954 0.304406C32.7047 0.113854 32.4498 0.0151406 32.1905 0.0151406C32.1907 0.0100605 32.1908 0.00517969 32.1909 0H3.00537C1.35763 0 0.0170898 1.34054 0.0170898 2.98828V48.0117C0.0170898 49.6595 1.35763 51 3.00537 51H47.1978C49.2849 51 50.9829 49.302 50.9829 47.2148C50.9829 46.1121 50.5087 45.1183 49.7537 44.4258C50.5087 43.7333 50.9829 42.7395 50.9829 41.6367C50.9829 40.5339 50.5087 39.5401 49.7537 38.8477C50.5087 38.1552 50.983 37.1614 50.983 36.0586ZM33.187 3.41351L38.8505 9.0771H34.209C33.6455 9.0771 33.187 8.6186 33.187 8.05511V3.41351ZM47.1979 49.0078H39.2633H38.4323C37.4436 49.0078 36.6393 48.2035 36.6393 47.2148C36.6393 46.2262 37.4436 45.4219 38.4323 45.4219H47.1979C48.1864 45.4219 48.9908 46.2262 48.9908 47.2148C48.9908 48.2035 48.1865 49.0078 47.1979 49.0078ZM47.1979 43.4297H38.4323C37.4436 43.4297 36.6393 42.6253 36.6393 41.6367C36.6393 40.6481 37.4436 39.8438 38.4323 39.8438H47.1979C48.1864 39.8438 48.9908 40.6481 48.9908 41.6367C48.9908 42.6253 48.1865 43.4297 47.1979 43.4297ZM47.1979 37.8516H38.4323C37.4436 37.8516 36.6393 37.0472 36.6393 36.0586C36.6393 35.07 37.4436 34.2656 38.4323 34.2656H47.1979C48.1865 34.2656 48.9908 35.07 48.9908 36.0586C48.9908 37.0472 48.1865 37.8516 47.1979 37.8516ZM47.1979 32.2734H38.4323C37.4436 32.2734 36.6393 31.4691 36.6393 30.4805C36.6393 29.4918 37.4436 28.6875 38.4323 28.6875H47.1979C48.1865 28.6875 48.9908 29.4918 48.9908 30.4805C48.9908 31.4691 48.1865 32.2734 47.1979 32.2734Z" fill="white"/>
</g>
<defs>
<clipPath id="clip0_437_1344">
<rect width="51" height="51" fill="white"/>
</clipPath>
</defs>
</svg>
