<svg width="54" height="48" viewBox="0 0 54 48" fill="none" xmlns="http://www.w3.org/2000/svg">
<path d="M54 25.8446C53.982 25.614 53.9013 25.3926 53.7666 25.2045C53.6319 25.0163 53.4484 24.8686 53.2359 24.7771C52.9887 24.721 51.9999 24.721 47.2579 24.721C47.2579 6.43869 47.3928 7.53989 46.9321 7.06795C39.8641 0 40.0551 0 39.3922 0H19.1659C18.8679 0 18.5821 0.118387 18.3713 0.329118C18.1606 0.539849 18.0422 0.825662 18.0422 1.12368V3.37104H12.4238C12.1258 3.37104 11.84 3.48943 11.6293 3.70016C11.4185 3.91089 11.3001 4.1967 11.3001 4.49472V7.86576H1.18702C0.889006 7.86576 0.603193 7.98415 0.392463 8.19488C0.181732 8.40561 0.0633442 8.69142 0.0633442 8.98944C0.0633442 48.9925 -0.318707 46.7001 0.793736 47.1159C1.09713 47.2283 46.1455 47.262 46.5275 47.1159C46.7796 47.0161 46.9872 46.8285 47.1118 46.5878C47.2579 46.4192 54 26.1817 54 25.8446ZM45.3252 44.9472H2.74894L8.73816 26.9683H51.3144L45.3252 44.9472ZM40.5158 3.83175L43.4262 6.74208H40.5158V3.83175ZM20.2896 2.24736H38.2685V7.86576C38.2685 8.16378 38.3869 8.44959 38.5976 8.66032C38.8083 8.87105 39.0941 8.98944 39.3922 8.98944H45.0106V24.721H20.2896V2.24736ZM13.5475 5.6184H18.0422V24.721H13.5475V5.6184ZM11.3001 10.1131V24.721C7.79426 24.721 7.18748 24.5187 6.86161 25.4851L2.3107 39.149V10.1131H11.3001Z" fill="white"/>
<path d="M23.6608 13.4841H34.8976C35.1956 13.4841 35.4814 13.3657 35.6922 13.1549C35.9029 12.9442 36.0213 12.6584 36.0213 12.3604C36.0213 12.0624 35.9029 11.7765 35.6922 11.5658C35.4814 11.3551 35.1956 11.2367 34.8976 11.2367H23.6608C23.3628 11.2367 23.077 11.3551 22.8662 11.5658C22.6555 11.7765 22.5371 12.0624 22.5371 12.3604C22.5371 12.6584 22.6555 12.9442 22.8662 13.1549C23.077 13.3657 23.3628 13.4841 23.6608 13.4841Z" fill="white"/>
<path d="M23.6608 17.9792H30.4029C30.7009 17.9792 30.9867 17.8608 31.1974 17.6501C31.4082 17.4393 31.5266 17.1535 31.5266 16.8555C31.5266 16.5575 31.4082 16.2717 31.1974 16.0609C30.9867 15.8502 30.7009 15.7318 30.4029 15.7318H23.6608C23.3628 15.7318 23.077 15.8502 22.8662 16.0609C22.6555 16.2717 22.5371 16.5575 22.5371 16.8555C22.5371 17.1535 22.6555 17.4393 22.8662 17.6501C23.077 17.8608 23.3628 17.9792 23.6608 17.9792Z" fill="white"/>
</svg>
