<svg width="13" height="17" viewBox="0 0 13 17" fill="none" xmlns="http://www.w3.org/2000/svg">
<path d="M11.533 2.91117C10.5013 1.13068 8.66873 0.042915 6.63089 0.00134473C6.54389 -0.000448242 6.45634 -0.000448242 6.36931 0.00134473C4.3315 0.042915 2.49896 1.13068 1.4672 2.91117C0.412605 4.7311 0.383752 6.91719 1.39001 8.759L5.60558 16.475C5.60747 16.4784 5.60936 16.4818 5.61132 16.4852C5.79679 16.8076 6.12906 17 6.50017 17C6.87125 17 7.20351 16.8075 7.38895 16.4852C7.39091 16.4818 7.3928 16.4784 7.39469 16.475L11.6103 8.759C12.6164 6.91719 12.5876 4.7311 11.533 2.91117ZM6.5001 7.70314C5.1819 7.70314 4.10947 6.63071 4.10947 5.31252C4.10947 3.99432 5.1819 2.92189 6.5001 2.92189C7.8183 2.92189 8.89073 3.99432 8.89073 5.31252C8.89073 6.63071 7.81833 7.70314 6.5001 7.70314Z" fill="#009944"/>
</svg>
