<svg width="60" height="62" viewBox="0 0 60 62" fill="none" xmlns="http://www.w3.org/2000/svg">
<rect x="0.5" y="0.5" width="59" height="61" rx="29.5" stroke="#009944"/>
<path d="M37.0001 32.2665C36.2617 32.2665 35.5399 32.4854 34.9259 32.8957C34.312 33.3059 33.8335 33.8889 33.5509 34.5711C33.2683 35.2533 33.1944 36.0039 33.3385 36.7281C33.4825 37.4523 33.8381 38.1175 34.3602 38.6397C34.8823 39.1618 35.5475 39.5173 36.2717 39.6614C36.9959 39.8054 37.7466 39.7315 38.4287 39.4489C39.1109 39.1664 39.694 38.6879 40.1042 38.0739C40.5144 37.46 40.7334 36.7382 40.7334 35.9998C40.7323 35.01 40.3386 34.0611 39.6387 33.3612C38.9388 32.6613 37.9899 32.2676 37.0001 32.2665ZM37.0001 38.7998C36.4463 38.7998 35.9049 38.6356 35.4445 38.3279C34.984 38.0202 34.6251 37.5829 34.4132 37.0713C34.2013 36.5597 34.1458 35.9967 34.2539 35.4536C34.3619 34.9104 34.6286 34.4115 35.0202 34.0199C35.4117 33.6283 35.9107 33.3616 36.4538 33.2536C36.9969 33.1456 37.5599 33.201 38.0716 33.4129C38.5832 33.6249 39.0205 33.9838 39.3282 34.4442C39.6358 34.9047 39.8 35.446 39.8 35.9998C39.7993 36.7422 39.5041 37.4539 38.9791 37.9789C38.4542 38.5038 37.7424 38.7991 37.0001 38.7998Z" fill="#009944"/>
<path d="M36.9999 34.1332C36.6307 34.1332 36.2698 34.2427 35.9628 34.4478C35.6559 34.6529 35.4166 34.9444 35.2753 35.2855C35.134 35.6266 35.0971 36.0019 35.1691 36.364C35.2411 36.7261 35.4189 37.0587 35.68 37.3198C35.941 37.5808 36.2736 37.7586 36.6357 37.8306C36.9978 37.9027 37.3732 37.8657 37.7142 37.7244C38.0553 37.5831 38.3469 37.3439 38.552 37.0369C38.7571 36.7299 38.8666 36.369 38.8666 35.9998C38.8666 35.5048 38.6699 35.03 38.3198 34.6799C37.9698 34.3298 37.495 34.1332 36.9999 34.1332ZM36.9999 36.9332C36.8153 36.9332 36.6349 36.8784 36.4814 36.7759C36.3279 36.6733 36.2083 36.5276 36.1376 36.357C36.067 36.1865 36.0485 35.9988 36.0845 35.8178C36.1205 35.6367 36.2094 35.4704 36.3399 35.3399C36.4705 35.2093 36.6368 35.1205 36.8178 35.0844C36.9989 35.0484 37.1865 35.0669 37.3571 35.1376C37.5276 35.2082 37.6734 35.3278 37.7759 35.4813C37.8785 35.6348 37.9332 35.8152 37.9332 35.9998C37.9332 36.2474 37.8349 36.4848 37.6599 36.6598C37.4848 36.8348 37.2474 36.9332 36.9999 36.9332Z" fill="#009944"/>
<path d="M43.4423 34.6933L42.606 34.3587C42.4877 33.9561 42.3261 33.5676 42.1239 33.2L42.4791 32.3712C42.5418 32.2281 42.5636 32.0705 42.5419 31.9158C42.5203 31.7611 42.456 31.6155 42.3563 31.4952C42.2285 31.3426 42.0917 31.1942 41.9494 31.0524C41.8071 30.9105 41.6591 30.7724 41.5065 30.6454C41.3865 30.5457 41.241 30.4814 41.0865 30.4597C40.9319 30.438 40.7744 30.4599 40.6315 30.5227L39.7999 30.876C39.4319 30.6737 39.0429 30.5121 38.6398 30.3939L38.3066 29.56C38.2496 29.4145 38.1533 29.2878 38.0285 29.1939C37.9036 29.1001 37.7552 29.0428 37.5996 29.0284C37.2002 28.9925 36.7983 28.9925 36.3989 29.0284C36.2436 29.043 36.0954 29.1004 35.9708 29.1943C35.8462 29.2881 35.7502 29.4147 35.6933 29.56L35.3587 30.3962C34.9562 30.5137 34.5677 30.6746 34.2 30.876L33.3712 30.5208C33.2282 30.4578 33.0705 30.4359 32.9157 30.4576C32.761 30.4793 32.6154 30.5437 32.4952 30.6436C32.3426 30.7714 32.1942 30.9082 32.0524 31.0505C31.9105 31.1928 31.7724 31.3408 31.6454 31.4934C31.5868 31.566 31.5411 31.648 31.5101 31.736C30.8574 31.4696 30.159 31.3328 29.454 31.3333H29.3238C29.0192 30.9449 28.6041 30.6578 28.1333 30.5096V30.0089C28.7909 29.5669 29.3391 28.9807 29.7361 28.295C30.1331 27.6092 30.3684 26.842 30.4242 26.0516C30.6504 25.978 30.8594 25.8593 31.0384 25.7025C31.2173 25.5458 31.3626 25.3543 31.4653 25.1397C31.8021 24.388 31.9403 23.5624 31.8666 22.742V21.6589C31.8812 19.9101 31.2015 18.2269 29.9767 16.9786C28.752 15.7303 27.082 15.0187 25.3333 15C23.5846 15.0187 21.9147 15.7303 20.6899 16.9786C19.4651 18.2269 18.7854 19.9101 18.8 21.6589V22.742C18.7263 23.5634 18.865 24.3901 19.2027 25.1425C19.3054 25.3566 19.4505 25.5476 19.6292 25.704C19.808 25.8603 20.0166 25.9787 20.2425 26.052C20.2983 26.8424 20.5337 27.6095 20.9306 28.2952C21.3276 28.9809 21.8757 29.567 22.5333 30.0089V30.5096C22.0625 30.6578 21.6475 30.9449 21.3429 31.3333H21.2127C18.3385 31.3333 16 33.5546 16 36.2846V42.0666C16 42.3141 16.0983 42.5515 16.2734 42.7266C16.4484 42.9016 16.6858 42.9999 16.9333 42.9999H33.7333C33.9808 42.9999 34.2182 42.9016 34.3933 42.7266C34.5683 42.5515 34.6666 42.3141 34.6666 42.0666V41.3493C34.8916 41.4493 35.1225 41.535 35.3582 41.606L35.6928 42.4423C35.7498 42.5877 35.8461 42.7144 35.9709 42.8083C36.0958 42.9022 36.2443 42.9595 36.3998 42.9738C36.5982 42.9915 36.7988 42.9999 37 42.9999C37.2011 42.9999 37.4018 42.9915 37.6005 42.9738C37.7559 42.9593 37.9042 42.9019 38.0289 42.8081C38.1536 42.7142 38.2497 42.5876 38.3066 42.4423L38.6412 41.606C39.0438 41.4877 39.4323 41.3261 39.7999 41.1239L40.6287 41.4791C40.7718 41.5418 40.9294 41.5636 41.0841 41.5419C41.2388 41.5203 41.3844 41.456 41.5047 41.3563C41.6573 41.2285 41.8057 41.0917 41.9475 40.9494C42.0894 40.8071 42.2275 40.6591 42.3545 40.5065C42.4542 40.3865 42.5185 40.241 42.5402 40.0865C42.5619 39.9319 42.5401 39.7744 42.4772 39.6315L42.1239 38.7999C42.3262 38.4319 42.4878 38.0429 42.606 37.6398L43.4423 37.3052C43.5877 37.2482 43.7144 37.1519 43.8083 37.0271C43.9022 36.9022 43.9595 36.7538 43.9738 36.5982C43.9915 36.3999 43.9999 36.1992 43.9999 35.9981C43.9999 35.797 43.9915 35.5963 43.9738 35.3975C43.959 35.2424 43.9014 35.0945 43.8076 34.9702C43.7138 34.8459 43.5873 34.75 43.4423 34.6933ZM25.3333 40.1626C24.9822 40.0019 24.662 39.7808 24.3874 39.5093L24.82 35.5333H25.8466L26.2778 39.5111C26.0035 39.7818 25.6838 40.0023 25.3333 40.1626ZM25.3333 32.8985C25.7359 32.9503 26.124 33.0827 26.4743 33.2877L25.9507 34.6H24.7159L24.1923 33.2933C24.5428 33.0876 24.9306 32.9534 25.3333 32.8985ZM23.4526 34.2462C23.4672 34.1922 23.4848 34.1391 23.5054 34.0871L23.9254 35.132L23.567 38.4383C22.8726 37.1046 22.4297 35.6544 22.2603 34.1604C22.4181 34.3029 22.5892 34.4299 22.7713 34.5398C22.8339 34.5751 22.9039 34.5955 22.9756 34.5994C23.0474 34.6033 23.1191 34.5905 23.1852 34.5621C23.2512 34.5337 23.3098 34.4904 23.3564 34.4356C23.4029 34.3808 23.4362 34.316 23.4536 34.2462H23.4526ZM27.102 38.4406L26.7431 35.132L27.1631 34.0871C27.1836 34.1391 27.2012 34.1922 27.2158 34.2462C27.2332 34.316 27.2665 34.3808 27.313 34.4356C27.3596 34.4904 27.4182 34.5337 27.4842 34.5621C27.5503 34.5905 27.622 34.6033 27.6938 34.5994C27.7656 34.5955 27.8355 34.5751 27.8981 34.5398C28.081 34.4296 28.2529 34.3023 28.4114 34.1594C28.2421 35.6549 27.7981 37.1063 27.102 38.4406ZM28.5953 31.9176C28.5496 32.4846 28.2888 33.0126 27.8664 33.3936C27.6105 32.9672 27.2396 32.6216 26.7963 32.3964C27.2346 32.1606 27.6111 31.8248 27.8953 31.4164C28.1753 31.507 28.4203 31.6821 28.5967 31.9176H28.5953ZM25.3333 15.9333C26.8068 15.9515 28.2153 16.5433 29.2594 17.5832C30.3036 18.6231 30.9012 20.0291 30.9254 21.5025C30.7448 21.456 30.5555 21.4547 30.3742 21.4988C29.9762 19.8809 28.3862 19.0521 27.3978 18.8047C27.2362 18.7607 27.067 18.7516 26.9016 18.778C26.7361 18.8045 26.5782 18.8659 26.4384 18.9583C25.121 19.8524 22.6043 20.2743 21.3251 20.3298C21.0277 20.346 20.7472 20.473 20.5389 20.6859C20.3306 20.8988 20.2097 21.182 20.2 21.4797C20.0471 21.4547 19.8907 21.4611 19.7403 21.4983C19.7656 20.0255 20.3638 18.6204 21.4081 17.5814C22.4523 16.5424 23.8603 15.9512 25.3333 15.9333ZM21.1697 25.934C21.1604 25.7606 21.0975 25.5943 20.9898 25.4581C20.8821 25.3218 20.7348 25.2224 20.5682 25.1733C20.453 25.1427 20.346 25.0871 20.2549 25.0104C20.1637 24.9337 20.0906 24.8378 20.0409 24.7295C19.7685 24.1047 19.6625 23.4199 19.7333 22.742C19.7326 22.6859 19.7448 22.6303 19.7691 22.5797C19.7934 22.5291 19.8291 22.4848 19.8733 22.4503C19.9144 22.4177 19.9651 22.3994 20.0175 22.398C20.0372 22.398 20.0569 22.4007 20.0759 22.406C20.1349 22.433 20.1819 22.4811 20.2075 22.5408C20.228 22.6549 20.2902 22.7572 20.382 22.8278C20.4737 22.8985 20.5885 22.9326 20.704 22.9233C20.8195 22.9141 20.9274 22.8622 21.0067 22.7778C21.0861 22.6934 21.1312 22.5825 21.1333 22.4666V21.5287C21.1311 21.4629 21.154 21.3988 21.1973 21.3493C21.2407 21.2998 21.3012 21.2687 21.3667 21.2622C22.8003 21.1997 25.4733 20.7405 26.9564 19.7334C26.9876 19.7154 27.0221 19.704 27.0579 19.6997C27.0937 19.6955 27.1299 19.6985 27.1645 19.7087C27.263 19.7329 29.5333 20.3233 29.5333 22.28V22.4666C29.5335 22.5838 29.5778 22.6967 29.6573 22.7827C29.7369 22.8687 29.8459 22.9217 29.9627 22.931C30.0796 22.9404 30.1956 22.9054 30.2878 22.8331C30.3801 22.7609 30.4417 22.6565 30.4606 22.5408C30.4858 22.4813 30.5324 22.4334 30.5912 22.4064C30.6262 22.3969 30.6629 22.3959 30.6983 22.4035C30.7337 22.4112 30.7668 22.4272 30.7947 22.4503C30.839 22.4848 30.8746 22.5291 30.8989 22.5797C30.9232 22.6303 30.9355 22.6859 30.9347 22.742C31.0058 23.4194 30.9004 24.1036 30.6286 24.7281C30.5778 24.8385 30.5031 24.9363 30.4097 25.0141C30.3164 25.0919 30.2069 25.1479 30.0891 25.178C29.925 25.2282 29.7803 25.3277 29.6747 25.4629C29.569 25.5982 29.5074 25.7626 29.4983 25.934C29.4429 27.0053 28.9814 28.0152 28.2076 28.7582C27.4338 29.5012 26.406 29.9214 25.3333 29.9333C24.2609 29.9211 23.2334 29.5007 22.4599 28.7578C21.6864 28.0148 21.2251 27.005 21.1697 25.934ZM25.3333 30.8666C25.973 30.8667 26.6067 30.744 27.2 30.505V30.7677C27.0945 30.9749 26.6526 31.6586 25.3333 31.9502C24.0089 31.6576 23.5684 30.9702 23.4666 30.7696V30.505C24.06 30.744 24.6937 30.8667 25.3333 30.8666ZM22.7699 31.4145C23.0542 31.823 23.4307 32.1587 23.8689 32.3945C23.4257 32.6197 23.0549 32.9651 22.7989 33.3913C22.3763 33.0106 22.1155 32.4826 22.0699 31.9157C22.2461 31.6805 22.4905 31.5055 22.7699 31.4145ZM16.9333 36.2846C16.9699 35.1974 17.4316 34.1679 18.2191 33.4174C19.0067 32.6669 20.0572 32.2554 21.145 32.2713C21.2117 33.9359 21.6765 39.4579 24.8666 40.9737V42.0666H16.9333V36.2846ZM25.8 42.0666V40.9723C28.9892 39.4561 29.4544 33.9378 29.5216 32.2713C30.3065 32.281 31.0749 32.4984 31.7486 32.9013L31.876 33.2C31.6737 33.5681 31.5121 33.957 31.3939 34.3601L30.56 34.6933C30.4145 34.7503 30.2878 34.8466 30.1939 34.9714C30.1001 35.0963 30.0428 35.2447 30.0284 35.4003C30.0084 35.5982 30 35.7988 30 36C30 36.2011 30.0084 36.4018 30.0261 36.6005C30.0408 36.7562 30.0985 36.9047 30.1928 37.0294C30.2871 37.1541 30.4142 37.2501 30.56 37.3066L31.3962 37.6412C31.5137 38.0437 31.6746 38.4322 31.876 38.7999L31.5208 39.6287C31.4581 39.7718 31.4363 39.9294 31.458 40.0841C31.4797 40.2388 31.5439 40.3844 31.6436 40.5047C31.7714 40.6573 31.9082 40.8057 32.0505 40.9475C32.1928 41.0894 32.3408 41.2275 32.4934 41.3545C32.6134 41.4542 32.7589 41.5185 32.9134 41.5402C33.068 41.5619 33.2255 41.5401 33.3684 41.4772L33.7333 41.3232V42.0666H25.8ZM43.0493 36.4587L42.0432 36.8614C41.9745 36.8888 41.9132 36.9322 41.8645 36.9879C41.8158 37.0437 41.7811 37.1102 41.7632 37.182C41.6454 37.657 41.4566 38.1115 41.2032 38.5302C41.165 38.5936 41.1424 38.6652 41.1373 38.739C41.1322 38.8128 41.1447 38.8868 41.1738 38.9549L41.6013 39.9531C41.5023 40.0688 41.3978 40.1813 41.2891 40.2895C41.1803 40.3978 41.0683 40.5028 40.9526 40.6017L39.9544 40.1743C39.8864 40.1449 39.8124 40.1322 39.7385 40.1373C39.6646 40.1424 39.593 40.1652 39.5297 40.2037C39.1111 40.4571 38.6566 40.6459 38.1815 40.7637C38.1097 40.7816 38.0432 40.8163 37.9875 40.865C37.9317 40.9137 37.8884 40.9749 37.861 41.0437L37.4582 42.0498C37.1529 42.0736 36.8461 42.0736 36.5408 42.0498L36.138 41.0437C36.1106 40.9749 36.0672 40.9137 36.0115 40.865C35.9558 40.8163 35.8892 40.7816 35.8174 40.7637C35.3424 40.6459 34.8879 40.4571 34.4692 40.2037C34.4059 40.1652 34.3343 40.1425 34.2605 40.1374C34.1866 40.1323 34.1126 40.1449 34.0446 40.1743L33.0464 40.6017C32.9306 40.5028 32.8182 40.3983 32.7099 40.2895C32.6016 40.1808 32.4966 40.0688 32.3977 39.9531L32.8252 38.9549C32.8543 38.8868 32.8668 38.8128 32.8617 38.739C32.8566 38.6652 32.834 38.5936 32.7958 38.5302C32.5424 38.1115 32.3536 37.657 32.2358 37.182C32.2179 37.1102 32.1831 37.0437 32.1344 36.9879C32.0858 36.9322 32.0245 36.8888 31.9558 36.8614L30.9496 36.4587C30.9389 36.307 30.9333 36.1535 30.9333 36C30.9333 35.8464 30.9389 35.6929 30.9506 35.5412L31.9567 35.1385C32.0254 35.1111 32.0867 35.0677 32.1354 35.012C32.1841 34.9562 32.2188 34.8897 32.2367 34.8179C32.3545 34.3429 32.5433 33.8884 32.7967 33.4697C32.8349 33.4063 32.8575 33.3347 32.8626 33.2609C32.8677 33.1871 32.8552 33.1131 32.8261 33.045L32.3986 32.0468C32.4976 31.9311 32.6021 31.8186 32.7108 31.7104C32.8196 31.6021 32.9316 31.4971 33.0473 31.3982L34.0455 31.8256C34.1135 31.8548 34.1875 31.8673 34.2614 31.8622C34.3352 31.8571 34.4068 31.8345 34.4702 31.7962C34.8888 31.5428 35.3434 31.354 35.8184 31.2362C35.8902 31.2183 35.9567 31.1836 36.0124 31.1349C36.0682 31.0862 36.1115 31.025 36.139 30.9562L36.5417 29.9501C36.847 29.9263 37.1538 29.9263 37.4592 29.9501L37.8619 30.9562C37.8893 31.025 37.9327 31.0862 37.9884 31.1349C38.0441 31.1836 38.1107 31.2183 38.1825 31.2362C38.6575 31.354 39.112 31.5428 39.5307 31.7962C39.5941 31.8345 39.6656 31.8571 39.7395 31.8622C39.8133 31.8673 39.8873 31.8548 39.9553 31.8256L40.9535 31.3982C41.0693 31.4971 41.1817 31.6016 41.29 31.7104C41.3983 31.8191 41.5033 31.9311 41.6022 32.0468L41.1747 33.045C41.1456 33.1131 41.1331 33.1871 41.1382 33.2609C41.1433 33.3347 41.1659 33.4063 41.2041 33.4697C41.4575 33.8884 41.6463 34.3429 41.7641 34.8179C41.782 34.8897 41.8168 34.9562 41.8655 35.012C41.9141 35.0677 41.9754 35.1111 42.0441 35.1385L43.0503 35.5412C43.0619 35.6929 43.0675 35.8464 43.0675 36C43.0675 36.1535 43.061 36.307 43.0493 36.4587Z" fill="#009944"/>
<path d="M42.1334 17.8H41.2C40.9525 17.8 40.7151 17.8984 40.5401 18.0734C40.365 18.2484 40.2667 18.4858 40.2667 18.7334V20.6H36.5334V18.7334C36.5334 18.4858 36.435 18.2484 36.26 18.0734C36.085 17.8984 35.8476 17.8 35.6 17.8H34.6667C34.1716 17.8 33.6968 17.9967 33.3468 18.3468C32.9967 18.6968 32.8 19.1716 32.8 19.6667V26.1744C32.8 26.2159 32.8 26.2579 32.8024 26.2999C32.8385 26.7873 33.0602 27.2422 33.4218 27.5709C33.7835 27.8997 34.2574 28.0771 34.746 28.0667H42.1334C42.6284 28.0667 43.1032 27.87 43.4533 27.52C43.8034 27.1699 44 26.6951 44 26.2V19.6667C44 19.1716 43.8034 18.6968 43.4533 18.3468C43.1032 17.9967 42.6284 17.8 42.1334 17.8ZM33.7334 19.6667C33.7334 19.4192 33.8317 19.1818 34.0067 19.0067C34.1818 18.8317 34.4192 18.7334 34.6667 18.7334H35.6V24.3334H34.6667C34.339 24.3337 34.0171 24.4203 33.7334 24.5844V19.6667ZM42.1334 27.1334H34.746C34.4972 27.1408 34.2546 27.054 34.0669 26.8904C33.8792 26.7269 33.7601 26.4985 33.7334 26.2509C33.7334 26.2336 33.7334 26.2168 33.7334 26.2V26.1856C33.7372 25.9405 33.8372 25.7068 34.0118 25.5349C34.1864 25.363 34.4217 25.2667 34.6667 25.2667H35.6C35.8476 25.2667 36.085 25.1684 36.26 24.9933C36.435 24.8183 36.5334 24.5809 36.5334 24.3334V21.5334H40.2667V24.3334C40.2667 24.5809 40.365 24.8183 40.5401 24.9933C40.7151 25.1684 40.9525 25.2667 41.2 25.2667H42.1334C42.3809 25.2667 42.6183 25.365 42.7933 25.5401C42.9684 25.7151 43.0667 25.9525 43.0667 26.2C43.0667 26.4476 42.9684 26.685 42.7933 26.86C42.6183 27.035 42.3809 27.1334 42.1334 27.1334ZM43.0667 24.584C42.7832 24.4193 42.4612 24.3329 42.1334 24.3334H41.2V18.7334H42.1334C42.3809 18.7334 42.6183 18.8317 42.7933 19.0067C42.9684 19.1818 43.0667 19.4192 43.0667 19.6667V24.584Z" fill="#009944"/>
</svg>
