<svg width="60" height="62" viewBox="0 0 60 62" fill="none" xmlns="http://www.w3.org/2000/svg">
<rect width="60" height="62" rx="30" fill="#009944"/>
<g clip-path="url(#clip0_1303_1735)">
<path d="M33.4167 32.5834H32.9583C32.7859 32.5837 32.6317 32.4761 32.5725 32.3142C32.5217 32.1809 32.4671 32.0505 32.4083 31.9213C32.3353 31.7642 32.3686 31.5782 32.4917 31.4563L32.8183 31.1292C33.3033 30.64 33.3024 29.851 32.8162 29.363L31.6388 28.1855C31.1501 27.6996 30.3608 27.6996 29.8721 28.1855L29.5454 28.5117C29.4232 28.6343 29.2376 28.6675 29.0804 28.595C28.9513 28.5363 28.8208 28.4817 28.6871 28.4284C28.5243 28.3696 28.416 28.2148 28.4167 28.0417V27.5834C28.4167 26.893 27.857 26.3334 27.1667 26.3334H25.5C24.8096 26.3334 24.25 26.893 24.25 27.5834V28.0417C24.2503 28.2141 24.1428 28.3683 23.9808 28.4275C23.8475 28.4784 23.7171 28.533 23.5879 28.5917C23.4308 28.6644 23.2451 28.6311 23.1229 28.5084L22.7958 28.1817C22.3072 27.6962 21.5182 27.6962 21.0296 28.1817L19.8521 29.363C19.3663 29.8517 19.3663 30.6409 19.8521 31.1296L20.1783 31.4563C20.3014 31.5782 20.3347 31.7642 20.2617 31.9213C20.2029 32.0505 20.1483 32.1809 20.0971 32.3146C20.0374 32.4775 19.8818 32.5851 19.7083 32.5834H19.25C18.5596 32.5834 18 33.143 18 33.8334V35.5C18 36.1904 18.5596 36.75 19.25 36.75H19.7083C19.8807 36.7497 20.0349 36.8573 20.0942 37.0192C20.145 37.1525 20.1996 37.283 20.2583 37.4121C20.3314 37.5692 20.298 37.7552 20.175 37.8771L19.8483 38.2042C19.3628 38.6929 19.3628 39.4818 19.8483 39.9705L21.0258 41.148C21.5145 41.6338 22.3038 41.6338 22.7925 41.148L23.1192 40.8217C23.2414 40.6992 23.427 40.6659 23.5842 40.7384C23.7133 40.7971 23.8438 40.8517 23.9775 40.905C24.1411 40.9632 24.2503 41.1181 24.25 41.2917V41.75C24.25 42.4404 24.8096 43 25.5 43H27.1667C27.857 43 28.4167 42.4404 28.4167 41.75V41.2917C28.4164 41.1193 28.5239 40.9651 28.6858 40.9059C28.8192 40.855 28.9496 40.8005 29.0788 40.7417C29.2359 40.6691 29.4216 40.7023 29.5438 40.825L29.8708 41.1517C30.3602 41.6364 31.1489 41.6355 31.6371 41.1496L32.8146 39.9721C33.3004 39.4834 33.3004 38.6942 32.8146 38.2055L32.4883 37.8788C32.3653 37.7569 32.332 37.5709 32.405 37.4138C32.4637 37.2846 32.5183 37.1542 32.5717 37.0205C32.6305 36.8577 32.7853 36.7494 32.9583 36.75H33.4167C34.107 36.75 34.6667 36.1904 34.6667 35.5V33.8334C34.6667 33.143 34.107 32.5834 33.4167 32.5834ZM33.8333 35.5C33.8333 35.7301 33.6468 35.9167 33.4167 35.9167H32.9583C32.4404 35.9186 31.9768 36.2388 31.7917 36.7225C31.7475 36.8392 31.6997 36.9541 31.6483 37.0671C31.4341 37.54 31.5335 38.0961 31.8983 38.4655L32.2242 38.7917C32.387 38.9543 32.3871 39.2182 32.2245 39.381C32.2244 39.3811 32.2243 39.3812 32.2242 39.3813L31.0467 40.5588C30.884 40.7214 30.6202 40.7214 30.4575 40.5588L30.1308 40.2325C29.7616 39.8674 29.2054 39.768 28.7325 39.9825C28.6196 40.0338 28.5046 40.0817 28.3888 40.1259C27.9054 40.311 27.5854 40.7741 27.5833 41.2917V41.75C27.5833 41.9801 27.3968 42.1667 27.1667 42.1667H25.5C25.2699 42.1667 25.0833 41.9801 25.0833 41.75V41.2917C25.0814 40.7737 24.7613 40.3102 24.2775 40.125C24.1608 40.0809 24.046 40.0331 23.9329 39.9817C23.46 39.7676 22.904 39.867 22.5346 40.2317L22.2083 40.5575C22.0457 40.7204 21.7819 40.7205 21.6191 40.5579C21.619 40.5577 21.6189 40.5576 21.6188 40.5575L20.4413 39.3813C20.2786 39.2186 20.2786 38.9548 20.4413 38.7921L20.7675 38.4655C21.1323 38.0961 21.2317 37.54 21.0175 37.0671C20.9663 36.9542 20.9183 36.8392 20.8742 36.7234C20.6895 36.2395 20.2263 35.919 19.7083 35.9167H19.25C19.0199 35.9167 18.8333 35.7301 18.8333 35.5V33.8334C18.8333 33.6033 19.0199 33.4167 19.25 33.4167H19.7083C20.2263 33.4148 20.6898 33.0946 20.875 32.6109C20.9192 32.4942 20.9669 32.3794 21.0183 32.2663C21.2326 31.7934 21.1331 31.2373 20.7683 30.868L20.4408 30.5417C20.278 30.3791 20.2779 30.1152 20.4405 29.9524C20.4406 29.9523 20.4407 29.9522 20.4408 29.9521L21.6183 28.7746C21.781 28.612 22.0448 28.612 22.2075 28.7746L22.5342 29.1009C22.9034 29.466 23.4596 29.5655 23.9325 29.3509C24.0454 29.2996 24.1604 29.2517 24.2763 29.2075C24.7603 29.023 25.081 28.5597 25.0833 28.0417V27.5834C25.0833 27.3533 25.2699 27.1667 25.5 27.1667H27.1667C27.3968 27.1667 27.5833 27.3533 27.5833 27.5834V28.0417C27.5853 28.5597 27.9054 29.0232 28.3892 29.2084C28.5058 29.2525 28.6207 29.3003 28.7338 29.3517C29.2066 29.5663 29.7629 29.4669 30.1321 29.1017L30.4583 28.7759C30.6217 28.6143 30.8846 28.6143 31.0479 28.7759L32.2254 29.9534C32.3881 30.1161 32.3881 30.3798 32.2254 30.5425L31.8992 30.8692C31.5344 31.2386 31.4349 31.7946 31.6492 32.2675C31.7004 32.3805 31.7483 32.4955 31.7925 32.6113C31.9776 33.0947 32.4407 33.4146 32.9583 33.4167H33.4167C33.6468 33.4167 33.8333 33.6033 33.8333 33.8334V35.5Z" fill="white"/>
<path d="M30.075 34.5C30.0708 34.4 30.0638 34.3004 30.0517 34.2012C30.0383 34.0945 30.0225 33.9887 30.0004 33.885C29.9858 33.817 29.9667 33.75 29.9483 33.6825C29.925 33.5966 29.8988 33.512 29.8696 33.4287C29.8492 33.3708 29.8279 33.3133 29.8063 33.2562C29.7526 33.1228 29.6913 32.9925 29.6225 32.8662C29.6171 32.8566 29.6138 32.8462 29.6083 32.8366C29.5 32.6437 29.3744 32.4608 29.2333 32.2904C29.2213 32.2754 29.2075 32.2612 29.195 32.2466C29.1375 32.1787 29.0783 32.1129 29.0163 32.05C28.9838 32.0162 28.9496 31.9845 28.9154 31.952C28.8738 31.9133 28.8321 31.875 28.7904 31.8383C28.7398 31.7944 28.6883 31.7519 28.6358 31.7108L28.5675 31.66C27.9228 31.177 27.1389 30.9162 26.3333 30.9166C26.2917 30.9166 26.25 30.9229 26.2083 30.9245C26.1196 30.927 26.0304 30.932 25.9408 30.9412C25.8938 30.9462 25.8463 30.9516 25.7992 30.9583C25.6633 30.9762 25.5285 31.0014 25.3954 31.0337C23.3891 31.5521 22.183 33.5989 22.7014 35.6052C23.0431 36.9273 24.076 37.9594 25.3983 38.3C25.405 38.3 25.4121 38.302 25.4192 38.3037C25.5631 38.3396 25.7089 38.3675 25.8558 38.387C25.9529 38.3991 26.05 38.4016 26.1475 38.4062C26.2125 38.4095 26.2725 38.4191 26.3404 38.4191C26.4592 38.4191 26.5825 38.4112 26.7083 38.3987C26.7217 38.3987 26.735 38.395 26.75 38.3933C26.8513 38.382 26.9538 38.367 27.0583 38.3462C27.1 38.3383 27.1388 38.3279 27.1788 38.3187C27.2521 38.3016 27.325 38.2837 27.4 38.2616C27.4583 38.2441 27.515 38.2237 27.5721 38.2037C27.6292 38.1837 27.6883 38.162 27.7475 38.1395C27.8067 38.117 27.8563 38.0912 27.91 38.0662C27.98 38.0341 28.0496 38.0025 28.1183 37.965H28.1208C28.5097 37.7568 28.8689 37.4974 29.1888 37.1937C29.2752 37.1131 29.3503 37.0211 29.4121 36.9204C29.7373 36.399 29.9509 35.816 30.0396 35.2079C30.0513 35.1275 30.0617 35.047 30.0679 34.965C30.0738 34.8895 30.0779 34.8145 30.0796 34.7395C30.0796 34.7158 30.0829 34.6933 30.0829 34.6695C30.0833 34.6108 30.0775 34.5566 30.075 34.5ZM29.2446 34.7729C29.2446 34.8075 29.2417 34.842 29.2396 34.8762C29.2321 34.977 29.2192 35.0779 29.2021 35.1791C29.0464 36.0454 28.5085 36.7954 27.7379 37.2208C27.6863 37.2479 27.6354 37.2733 27.5846 37.2966L27.55 37.3133C27.3079 37.4232 27.0524 37.5005 26.79 37.5433C26.7717 37.5462 26.7529 37.5495 26.7342 37.552C26.6821 37.5595 26.6308 37.5658 26.58 37.5704C26.5129 37.5762 26.4454 37.5795 26.3767 37.5808C26.3475 37.5808 26.3188 37.5808 26.2896 37.5808C26.191 37.5797 26.0926 37.5736 25.9946 37.5625L25.9446 37.5566C25.83 37.5416 25.7164 37.5202 25.6042 37.4925C24.0437 37.093 23.1024 35.5042 23.5018 33.9437C23.7657 32.9125 24.5704 32.107 25.6013 31.842V31.8416C25.8406 31.7813 26.0865 31.7504 26.3333 31.75C26.4525 31.7506 26.5715 31.7587 26.6896 31.7741C26.7213 31.7779 26.7525 31.7837 26.7838 31.7883C26.8738 31.8025 26.9629 31.8204 27.0508 31.8429C27.0796 31.8504 27.1083 31.857 27.1367 31.865C27.3582 31.9289 27.5715 32.0187 27.7721 32.1325C27.8042 32.1512 27.8354 32.1708 27.8671 32.1904C27.9329 32.232 27.9967 32.2737 28.0596 32.3212C28.0933 32.3458 28.1275 32.37 28.16 32.3962C28.2418 32.4615 28.3201 32.5311 28.3946 32.6045C28.4242 32.6345 28.4513 32.6675 28.48 32.6987C28.5279 32.7508 28.5746 32.8041 28.6192 32.8604C28.65 32.8991 28.6796 32.9391 28.7088 32.9795C28.7504 33.0395 28.7921 33.102 28.8296 33.1654C28.8504 33.2 28.8713 33.2337 28.8925 33.2691C28.9463 33.368 28.9941 33.47 29.0358 33.5745C29.0525 33.6162 29.0667 33.6579 29.0817 33.6995C29.1088 33.7762 29.1321 33.8537 29.1525 33.932C29.1629 33.9737 29.1746 34.0108 29.1833 34.0512C29.2077 34.1638 29.2253 34.2778 29.2363 34.3925C29.2388 34.4229 29.2388 34.4537 29.2408 34.4841C29.2467 34.58 29.2483 34.6762 29.2446 34.7729Z" fill="white"/>
<path d="M41.7499 26.75H40.4395C40.2648 26.7518 40.1085 26.6417 40.0512 26.4767C39.9219 26.0896 39.7656 25.7121 39.5832 25.3471C39.5058 25.1894 39.5381 24.9999 39.6632 24.8767L40.5924 23.9462C41.0801 23.4582 41.0801 22.6672 40.5924 22.1792L38.8207 20.4104C38.3327 19.9227 37.5417 19.9227 37.0537 20.4104L36.1249 21.3387C36.0018 21.4639 35.8126 21.4962 35.6549 21.4192C35.2898 21.2359 34.9122 21.0787 34.5249 20.9487C34.3592 20.892 34.2483 20.7356 34.2499 20.5604V19.25C34.2499 18.5596 33.6903 18 32.9999 18H30.4999C29.8095 18 29.2499 18.5596 29.2499 19.25V20.5604C29.2517 20.7352 29.1417 20.8915 28.9766 20.9487C28.5895 21.0786 28.212 21.2357 27.847 21.4187C27.6893 21.4964 27.4997 21.4642 27.3766 21.3387L26.4462 20.4096C25.9575 19.9233 25.1677 19.9233 24.6791 20.4096L22.9107 22.1779C22.4228 22.666 22.4228 23.4573 22.9107 23.9454L24.277 25.3142C24.4423 25.4743 24.7061 25.4701 24.8662 25.3048C25.0224 25.1435 25.0227 24.8875 24.867 24.7258L23.4999 23.3575C23.3373 23.1948 23.3373 22.931 23.4999 22.7683L25.2682 21C25.431 20.8373 25.6947 20.8373 25.8574 21L26.7882 21.9292C27.1649 22.308 27.7419 22.4027 28.2199 22.1642C28.55 21.9989 28.8912 21.857 29.2412 21.7396C29.7463 21.5686 30.0854 21.0937 30.0832 20.5604V19.25C30.0832 19.0199 30.2698 18.8333 30.4999 18.8333H32.9999C33.23 18.8333 33.4166 19.0199 33.4166 19.25V20.5604C33.4144 21.0936 33.7536 21.5683 34.2587 21.7392C34.6088 21.8567 34.9502 21.9986 35.2803 22.1642C35.7584 22.4015 36.3347 22.3067 36.7116 21.9287L37.6424 21C37.8051 20.8373 38.0689 20.8373 38.2316 21L39.9999 22.7687C40.1623 22.9314 40.1623 23.1948 39.9999 23.3575L39.0707 24.2883C38.6923 24.6652 38.5976 25.242 38.8357 25.72C39.001 26.0501 39.1429 26.3913 39.2603 26.7412C39.4312 27.2465 39.9062 27.5856 40.4395 27.5833H41.7499C41.98 27.5833 42.1666 27.7699 42.1666 28V30.5C42.1666 30.7301 41.98 30.9167 41.7499 30.9167H40.4395C39.9063 30.9145 39.4316 31.2537 39.2607 31.7587C39.1433 32.1089 39.0013 32.4503 38.8357 32.7804C38.598 33.2584 38.6929 33.8349 39.0712 34.2117L40.0003 35.1425C40.163 35.3052 40.163 35.569 40.0003 35.7317L38.2312 37.5C38.0685 37.6624 37.8051 37.6624 37.6424 37.5L36.2732 36.1337C36.1131 35.9684 35.8493 35.9643 35.6841 36.1244C35.5188 36.2845 35.5146 36.5483 35.6747 36.7135C35.678 36.717 35.6815 36.7204 35.6849 36.7237L37.0537 38.09C37.5417 38.5777 38.3327 38.5777 38.8207 38.09L40.5891 36.3221C41.077 35.834 41.077 35.0427 40.5891 34.5546L39.6612 33.625C39.5362 33.5019 39.5038 33.3127 39.5807 33.155C39.764 32.7899 39.9212 32.4123 40.0512 32.025C40.1079 31.8593 40.2643 31.7484 40.4395 31.75H41.7499C42.4403 31.75 42.9999 31.1904 42.9999 30.5V28C42.9999 27.3096 42.4403 26.75 41.7499 26.75Z" fill="white"/>
<path d="M35.5799 25.42C33.4633 23.3079 30.0365 23.3079 27.9199 25.42C27.76 25.5856 27.7646 25.8494 27.9302 26.0092C28.0916 26.1651 28.3476 26.1651 28.5091 26.0092C30.2869 24.2073 33.1889 24.1879 34.9907 25.9658C36.7926 27.7436 36.812 30.6456 35.0342 32.4474C35.0198 32.462 35.0053 32.4765 34.9907 32.4909C34.8252 32.6508 34.8206 32.9145 34.9805 33.08C35.1404 33.2456 35.4042 33.2501 35.5697 33.0902C35.5731 33.0869 35.5766 33.0835 35.5799 33.08C37.692 30.9635 37.692 27.5366 35.5799 25.42Z" fill="white"/>
</g>
<defs>
<clipPath id="clip0_1303_1735">
<rect width="25" height="25" fill="white" transform="translate(18 18)"/>
</clipPath>
</defs>
</svg>
