<svg width="78" height="78" viewBox="0 0 78 78" fill="none" xmlns="http://www.w3.org/2000/svg">
<circle cx="38.9993" cy="39.0007" r="34.0213" fill="#009944"/>
<circle cx="39" cy="39" r="38.5" stroke="#009944" stroke-dasharray="3 3"/>
<path d="M59.3543 40.3137C59.3408 40.1414 59.2805 39.976 59.1799 39.8354C59.0792 39.6948 58.9421 39.5843 58.7833 39.516C58.5985 39.474 57.8596 39.474 54.3159 39.474C54.3159 25.8116 54.4167 26.6346 54.0724 26.2819C48.7905 21 48.9333 21 48.4378 21H33.3227C33.1 21 32.8864 21.0885 32.7289 21.246C32.5715 21.4034 32.483 21.617 32.483 21.8397V23.5192H28.2843C28.0616 23.5192 27.8481 23.6077 27.6906 23.7651C27.5331 23.9226 27.4446 24.1362 27.4446 24.3589V26.8781H19.8871C19.6644 26.8781 19.4508 26.9666 19.2933 27.124C19.1358 27.2815 19.0473 27.4951 19.0473 27.7178C19.0473 57.6121 18.7618 55.8991 19.5932 56.2098C19.8199 56.2938 53.4846 56.319 53.7701 56.2098C53.9585 56.1352 54.1136 55.9951 54.2068 55.8151C54.3159 55.6892 59.3543 40.5657 59.3543 40.3137ZM52.8716 54.5891H21.0543L25.53 41.1535H57.3473L52.8716 54.5891ZM49.2776 23.8635L51.4524 26.0384H49.2776V23.8635ZM34.1624 22.6795H47.5981V26.8781C47.5981 27.1008 47.6866 27.3144 47.844 27.4719C48.0015 27.6294 48.2151 27.7178 48.4378 27.7178H52.6365V39.474H34.1624V22.6795ZM29.1241 25.1986H32.483V39.474H29.1241V25.1986ZM27.4446 28.5576V39.474C24.8247 39.474 24.3712 39.3229 24.1277 40.045L20.7268 50.2561V28.5576H27.4446Z" fill="white"/>
<path d="M36.6818 31.0767H45.0791C45.3018 31.0767 45.5154 30.9882 45.6728 30.8307C45.8303 30.6732 45.9188 30.4597 45.9188 30.2369C45.9188 30.0142 45.8303 29.8006 45.6728 29.6432C45.5154 29.4857 45.3018 29.3972 45.0791 29.3972H36.6818C36.4591 29.3972 36.2455 29.4857 36.088 29.6432C35.9305 29.8006 35.842 30.0142 35.842 30.2369C35.842 30.4597 35.9305 30.6732 36.088 30.8307C36.2455 30.9882 36.4591 31.0767 36.6818 31.0767Z" fill="white"/>
<path d="M36.6818 34.4357H41.7201C41.9429 34.4357 42.1564 34.3472 42.3139 34.1897C42.4714 34.0323 42.5599 33.8187 42.5599 33.596C42.5599 33.3732 42.4714 33.1597 42.3139 33.0022C42.1564 32.8447 41.9429 32.7562 41.7201 32.7562H36.6818C36.4591 32.7562 36.2455 32.8447 36.088 33.0022C35.9305 33.1597 35.842 33.3732 35.842 33.596C35.842 33.8187 35.9305 34.0323 36.088 34.1897C36.2455 34.3472 36.4591 34.4357 36.6818 34.4357Z" fill="white"/>
</svg>
