<svg width="106" height="106" viewBox="0 0 106 106" fill="none" xmlns="http://www.w3.org/2000/svg">
<path d="M53 0C23.7295 0 0 23.7295 0 53C0 82.2705 23.7295 106 53 106C82.2705 106 106 82.2705 106 53C106 23.7295 82.2705 0 53 0ZM53 97.1666C28.608 97.1666 8.8334 77.392 8.8334 53C8.8334 28.608 28.608 8.8334 53 8.8334C77.392 8.8334 97.1666 28.608 97.1666 53C97.1666 77.392 77.392 97.1666 53 97.1666Z" fill="#009944"/>
<path d="M71.9605 41.0433L53.0002 60.0037L34.0398 41.0433C32.3151 39.3186 29.5185 39.3186 27.7937 41.0433C26.0689 42.7681 26.0689 45.5647 27.7937 47.2895L49.8771 69.3729C51.6019 71.0977 54.3985 71.0977 56.1232 69.3729L78.2066 47.2895C79.9314 45.5647 79.9314 42.7681 78.2066 41.0433C76.4817 39.3186 73.6853 39.3186 71.9605 41.0433Z" fill="#009944"/>
</svg>
