<svg width="65" height="72" viewBox="0 0 65 72" fill="none" xmlns="http://www.w3.org/2000/svg">
<path d="M59.4689 9.56005L60.6228 12.8159C60.6721 12.9552 60.77 13.0657 60.8934 13.1216L63.7759 14.4248C64.1831 14.609 64.1831 15.2601 63.7759 15.4442L60.8934 16.7474C60.77 16.8032 60.6722 16.9137 60.6228 17.0531L59.4689 20.3089C59.3059 20.7689 58.7294 20.7689 58.5664 20.3089L57.4125 17.0531C57.3632 16.9137 57.2653 16.8033 57.1419 16.7474L54.2594 15.4442C53.8522 15.2601 53.8522 14.6089 54.2594 14.4248L57.1419 13.1216C57.2653 13.0658 57.363 12.9552 57.4125 12.8159L58.5664 9.56005C58.7294 9.1001 59.3058 9.1001 59.4689 9.56005Z" fill="white"/>
<path d="M16.3406 0.255909L17.1965 2.67103C17.2331 2.77436 17.3057 2.85634 17.3972 2.89781L19.5355 3.86458C19.8377 4.0012 19.8377 4.48417 19.5355 4.62066L17.3972 5.58742C17.3057 5.62876 17.2331 5.71073 17.1965 5.81421L16.3406 8.22932C16.2197 8.57054 15.792 8.57054 15.671 8.22932L14.8152 5.81421C14.7785 5.71087 14.706 5.6289 14.6145 5.58742L12.4761 4.62066C12.1741 4.48403 12.1741 4.00106 12.4761 3.86458L14.6145 2.89781C14.706 2.85648 14.7785 2.7745 14.8152 2.67103L15.671 0.255909C15.792 -0.0853031 16.2197 -0.0853031 16.3406 0.255909Z" fill="white"/>
<path d="M51.2895 5.299C51.2895 6.23859 50.5305 7.00021 49.5941 7.00021C48.6578 7.00021 47.8987 6.23845 47.8987 5.299C47.8987 4.35942 48.6577 3.59766 49.5941 3.59766C50.5305 3.59766 51.2895 4.35928 51.2895 5.299Z" fill="white"/>
<path d="M5.00866 14.7753C5.00866 16.1631 3.88739 17.2883 2.50433 17.2883C1.12127 17.2883 0 16.1631 0 14.7753C0 13.3874 1.12127 12.2622 2.50433 12.2622C3.88739 12.2623 5.00866 13.3874 5.00866 14.7753Z" fill="white"/>
<path d="M30.8672 71.0164C15.0796 71.0164 2.2356 58.1275 2.2356 42.2852C2.2356 26.4428 15.0796 13.554 30.8672 13.554C46.6548 13.554 59.4988 26.4428 59.4988 42.2852C59.4986 58.1275 46.6546 71.0164 30.8672 71.0164ZM30.8672 16.3436C16.6125 16.3436 5.01568 27.9809 5.01568 42.285C5.01568 56.5892 16.6126 68.2266 30.8672 68.2266C45.1217 68.2266 56.7187 56.5893 56.7187 42.2852C56.7187 27.981 45.1217 16.3436 30.8672 16.3436Z" fill="white"/>
<path d="M24.4276 35.8534C23.6601 35.8534 23.0376 35.2289 23.0376 34.4586C23.0376 32.3178 21.3021 30.5762 19.1689 30.5762C17.0356 30.5762 15.3 32.3178 15.3 34.4586C15.3 35.2289 14.6776 35.8534 13.9101 35.8534C13.1425 35.8534 12.5201 35.2289 12.5201 34.4586C12.5201 30.7796 15.5028 27.7866 19.169 27.7866C22.8351 27.7866 25.8179 30.7797 25.8179 34.4586C25.8176 35.2289 25.1952 35.8534 24.4276 35.8534Z" fill="white"/>
<path d="M47.8246 35.8534C47.057 35.8534 46.4346 35.2289 46.4346 34.4586C46.4346 32.3178 44.6991 30.5762 42.5657 30.5762C40.4325 30.5762 38.697 32.3178 38.697 34.4586C38.697 35.2289 38.0746 35.8534 37.307 35.8534C36.5395 35.8534 35.9171 35.2289 35.9171 34.4586C35.9171 30.7796 38.8998 27.7866 42.5659 27.7866C46.2321 27.7866 49.2148 30.7797 49.2148 34.4586C49.2146 35.2289 48.5921 35.8534 47.8246 35.8534Z" fill="white"/>
<path d="M49.3663 41.408H12.3683C11.6008 41.408 10.9783 42.0324 10.9783 42.8028C10.9783 53.8077 19.9005 62.7609 30.8673 62.7609C41.8341 62.7609 50.7562 53.8077 50.7562 42.8028C50.7562 42.0325 50.1338 41.408 49.3663 41.408ZM20.308 56.3009C22.2051 53.2496 26.2972 51.2597 30.8673 51.2597C35.4372 51.2597 39.5293 53.2496 41.4266 56.3009C38.5164 58.5984 34.8488 59.9713 30.8673 59.9713C26.8858 59.9713 23.2181 58.5984 20.308 56.3009ZM43.4878 54.381C40.9827 50.7842 36.1648 48.4701 30.8671 48.4701C25.5693 48.4701 20.751 50.784 18.2463 54.3807C15.7541 51.6474 14.1287 48.1056 13.814 44.1977H47.9202C47.6056 48.1057 45.9802 51.6477 43.4878 54.381Z" fill="white"/>
</svg>
