<svg width="60" height="62" viewBox="0 0 60 62" fill="none" xmlns="http://www.w3.org/2000/svg">
<rect x="0.5" y="0.5" width="59" height="61" rx="29.5" stroke="#009944"/>
<g clip-path="url(#clip0_990_2089)">
<path d="M30.0833 44.9999C23.4375 44.9999 18 39.5624 18 32.9166C18 26.2708 23.4375 20.8333 30.0833 20.8333C36.7292 20.8333 42.1667 26.2708 42.1667 32.9166C42.1667 39.5624 36.7292 44.9999 30.0833 44.9999ZM30.0833 22.0416C24.0417 22.0416 19.2083 26.8749 19.2083 32.9166C19.2083 38.9583 24.0417 43.7916 30.0833 43.7916C36.125 43.7916 40.9583 38.9583 40.9583 32.9166C40.9583 26.8749 36.125 22.0416 30.0833 22.0416Z" fill="#009944"/>
<path d="M30.0834 40.7708C25.7334 40.7708 22.2292 37.2667 22.2292 32.9167C22.2292 28.5667 25.7334 25.0625 30.0834 25.0625C34.4334 25.0625 37.9376 28.5667 37.9376 32.9167C37.9376 37.2667 34.4334 40.7708 30.0834 40.7708ZM30.0834 26.2708C26.4584 26.2708 23.4376 29.2917 23.4376 32.9167C23.4376 36.5417 26.4584 39.5625 30.0834 39.5625C33.7084 39.5625 36.7292 36.5417 36.7292 32.9167C36.7292 29.2917 33.7084 26.2708 30.0834 26.2708Z" fill="#009944"/>
<path d="M30.0833 36.5417C28.0291 36.5417 26.4583 34.9709 26.4583 32.9167C26.4583 30.8626 28.0291 29.2917 30.0833 29.2917C32.1374 29.2917 33.7083 30.8626 33.7083 32.9167C33.7083 34.9709 32.1374 36.5417 30.0833 36.5417ZM30.0833 30.5001C28.7541 30.5001 27.6666 31.5876 27.6666 32.9167C27.6666 34.2459 28.7541 35.3334 30.0833 35.3334C31.4124 35.3334 32.4999 34.2459 32.4999 32.9167C32.4999 31.5876 31.4124 30.5001 30.0833 30.5001Z" fill="#009944"/>
<path d="M30.0833 33.5208C29.9625 33.5208 29.7208 33.5208 29.6 33.4C29.3583 33.1583 29.3583 32.7958 29.6 32.5542L38.6625 23.4917C38.9042 23.25 39.2667 23.25 39.5083 23.4917C39.75 23.7333 39.75 24.0958 39.5083 24.3375L30.4458 33.4C30.4458 33.5208 30.2042 33.5208 30.0833 33.5208Z" fill="#009944"/>
<path d="M42.1667 24.4583H39.1459C38.7834 24.4583 38.5417 24.2167 38.5417 23.8542V20.8333C38.5417 20.7125 38.6626 20.4708 38.6626 20.35L42.8918 16.1208C43.1334 16 43.3751 16 43.6168 16C43.8584 16.1208 43.9793 16.3625 43.9793 16.6042V19.0208H46.3959C46.6376 19.0208 46.8793 19.1417 47.0001 19.3833C47.0001 19.625 47.0001 19.8667 46.8793 20.1083L42.6501 24.3375C42.5292 24.3375 42.2876 24.4583 42.1667 24.4583ZM39.7501 23.25H41.9251L44.9459 20.2292H43.3751C43.0126 20.2292 42.7709 19.9875 42.7709 19.625V18.0542L39.7501 21.075V23.25Z" fill="#009944"/>
</g>
<defs>
<clipPath id="clip0_990_2089">
<rect width="29" height="29" fill="white" transform="translate(18 16)"/>
</clipPath>
</defs>
</svg>
