<svg width="60" height="62" viewBox="0 0 60 62" fill="none" xmlns="http://www.w3.org/2000/svg">
<rect width="60" height="62" rx="30" fill="#009944"/>
<path d="M38.0002 32.2665C37.2618 32.2665 36.54 32.4854 35.926 32.8957C35.3121 33.3059 34.8336 33.8889 34.551 34.5711C34.2685 35.2533 34.1945 36.0039 34.3386 36.7281C34.4826 37.4523 34.8382 38.1175 35.3603 38.6397C35.8824 39.1618 36.5476 39.5173 37.2718 39.6614C37.996 39.8054 38.7467 39.7315 39.4289 39.4489C40.111 39.1664 40.6941 38.6879 41.1043 38.0739C41.5145 37.46 41.7335 36.7382 41.7335 35.9998C41.7324 35.01 41.3387 34.0611 40.6388 33.3612C39.9389 32.6613 38.99 32.2676 38.0002 32.2665ZM38.0002 38.7998C37.4464 38.7998 36.905 38.6356 36.4446 38.3279C35.9841 38.0202 35.6252 37.5829 35.4133 37.0713C35.2014 36.5597 35.1459 35.9967 35.254 35.4536C35.362 34.9104 35.6287 34.4115 36.0203 34.0199C36.4119 33.6283 36.9108 33.3616 37.4539 33.2536C37.9971 33.1456 38.5601 33.201 39.0717 33.4129C39.5833 33.6249 40.0206 33.9838 40.3283 34.4442C40.636 34.9047 40.8002 35.446 40.8002 35.9998C40.7994 36.7422 40.5042 37.4539 39.9793 37.9789C39.4543 38.5038 38.7426 38.7991 38.0002 38.7998Z" fill="white"/>
<path d="M38 34.1332C37.6308 34.1332 37.2699 34.2427 36.9629 34.4478C36.6559 34.6529 36.4167 34.9444 36.2754 35.2855C36.1341 35.6266 36.0971 36.0019 36.1692 36.364C36.2412 36.7261 36.419 37.0587 36.68 37.3198C36.9411 37.5808 37.2737 37.7586 37.6358 37.8306C37.9979 37.9027 38.3732 37.8657 38.7143 37.7244C39.0554 37.5831 39.3469 37.3439 39.552 37.0369C39.7571 36.7299 39.8666 36.369 39.8666 35.9998C39.8666 35.5048 39.67 35.03 39.3199 34.6799C38.9698 34.3298 38.495 34.1332 38 34.1332ZM38 36.9332C37.8154 36.9332 37.6349 36.8784 37.4814 36.7759C37.3279 36.6733 37.2083 36.5276 37.1377 36.357C37.067 36.1865 37.0486 35.9988 37.0846 35.8178C37.1206 35.6367 37.2095 35.4704 37.34 35.3399C37.4705 35.2093 37.6368 35.1205 37.8179 35.0844C37.9989 35.0484 38.1866 35.0669 38.3571 35.1376C38.5277 35.2082 38.6734 35.3278 38.776 35.4813C38.8786 35.6348 38.9333 35.8152 38.9333 35.9998C38.9333 36.2474 38.835 36.4848 38.6599 36.6598C38.4849 36.8348 38.2475 36.9332 38 36.9332Z" fill="white"/>
<path d="M44.4423 34.6933L43.606 34.3587C43.4877 33.9561 43.3261 33.5676 43.1239 33.2L43.4791 32.3712C43.5418 32.2281 43.5636 32.0705 43.5419 31.9158C43.5203 31.7611 43.456 31.6155 43.3563 31.4952C43.2285 31.3426 43.0917 31.1942 42.9494 31.0524C42.8071 30.9105 42.6591 30.7724 42.5065 30.6454C42.3865 30.5457 42.241 30.4814 42.0865 30.4597C41.9319 30.438 41.7744 30.4599 41.6315 30.5227L40.7999 30.876C40.4319 30.6737 40.0429 30.5121 39.6398 30.3939L39.3066 29.56C39.2496 29.4145 39.1533 29.2878 39.0285 29.1939C38.9036 29.1001 38.7552 29.0428 38.5996 29.0284C38.2002 28.9925 37.7983 28.9925 37.3989 29.0284C37.2436 29.043 37.0954 29.1004 36.9708 29.1943C36.8462 29.2881 36.7502 29.4147 36.6933 29.56L36.3587 30.3962C35.9562 30.5137 35.5677 30.6746 35.2 30.876L34.3712 30.5208C34.2282 30.4578 34.0705 30.4359 33.9157 30.4576C33.761 30.4793 33.6154 30.5437 33.4952 30.6436C33.3426 30.7714 33.1942 30.9082 33.0524 31.0505C32.9105 31.1928 32.7724 31.3408 32.6454 31.4934C32.5868 31.566 32.5411 31.648 32.5101 31.736C31.8574 31.4696 31.159 31.3328 30.454 31.3333H30.3238C30.0192 30.9449 29.6041 30.6578 29.1333 30.5096V30.0089C29.7909 29.5669 30.3391 28.9807 30.7361 28.295C31.1331 27.6092 31.3684 26.842 31.4242 26.0516C31.6504 25.978 31.8594 25.8593 32.0384 25.7025C32.2173 25.5458 32.3626 25.3543 32.4653 25.1397C32.8021 24.388 32.9403 23.5624 32.8666 22.742V21.6589C32.8812 19.9101 32.2015 18.2269 30.9767 16.9786C29.752 15.7303 28.082 15.0187 26.3333 15C24.5846 15.0187 22.9147 15.7303 21.6899 16.9786C20.4651 18.2269 19.7854 19.9101 19.8 21.6589V22.742C19.7263 23.5634 19.865 24.3901 20.2027 25.1425C20.3054 25.3566 20.4505 25.5476 20.6292 25.704C20.808 25.8603 21.0166 25.9787 21.2425 26.052C21.2983 26.8424 21.5337 27.6095 21.9306 28.2952C22.3276 28.9809 22.8757 29.567 23.5333 30.0089V30.5096C23.0625 30.6578 22.6475 30.9449 22.3429 31.3333H22.2127C19.3385 31.3333 17 33.5546 17 36.2846V42.0666C17 42.3141 17.0983 42.5515 17.2734 42.7266C17.4484 42.9016 17.6858 42.9999 17.9333 42.9999H34.7333C34.9808 42.9999 35.2182 42.9016 35.3933 42.7266C35.5683 42.5515 35.6666 42.3141 35.6666 42.0666V41.3493C35.8916 41.4493 36.1225 41.535 36.3582 41.606L36.6928 42.4423C36.7498 42.5877 36.8461 42.7144 36.9709 42.8083C37.0958 42.9022 37.2443 42.9595 37.3998 42.9738C37.5982 42.9915 37.7988 42.9999 38 42.9999C38.2011 42.9999 38.4018 42.9915 38.6005 42.9738C38.7559 42.9593 38.9042 42.9019 39.0289 42.8081C39.1536 42.7142 39.2497 42.5876 39.3066 42.4423L39.6412 41.606C40.0438 41.4877 40.4323 41.3261 40.7999 41.1239L41.6287 41.4791C41.7718 41.5418 41.9294 41.5636 42.0841 41.5419C42.2388 41.5203 42.3844 41.456 42.5047 41.3563C42.6573 41.2285 42.8057 41.0917 42.9475 40.9494C43.0894 40.8071 43.2275 40.6591 43.3545 40.5065C43.4542 40.3865 43.5185 40.241 43.5402 40.0865C43.5619 39.9319 43.5401 39.7744 43.4772 39.6315L43.1239 38.7999C43.3262 38.4319 43.4878 38.0429 43.606 37.6398L44.4423 37.3052C44.5877 37.2482 44.7144 37.1519 44.8083 37.0271C44.9022 36.9022 44.9595 36.7538 44.9738 36.5982C44.9915 36.3999 44.9999 36.1992 44.9999 35.9981C44.9999 35.797 44.9915 35.5963 44.9738 35.3975C44.959 35.2424 44.9014 35.0945 44.8076 34.9702C44.7138 34.8459 44.5873 34.75 44.4423 34.6933ZM26.3333 40.1626C25.9822 40.0019 25.662 39.7808 25.3874 39.5093L25.82 35.5333H26.8466L27.2778 39.5111C27.0035 39.7818 26.6838 40.0023 26.3333 40.1626ZM26.3333 32.8985C26.7359 32.9503 27.124 33.0827 27.4743 33.2877L26.9507 34.6H25.7159L25.1923 33.2933C25.5428 33.0876 25.9306 32.9534 26.3333 32.8985ZM24.4526 34.2462C24.4672 34.1922 24.4848 34.1391 24.5054 34.0871L24.9254 35.132L24.567 38.4383C23.8726 37.1046 23.4297 35.6544 23.2603 34.1604C23.4181 34.3029 23.5892 34.4299 23.7713 34.5398C23.8339 34.5751 23.9039 34.5955 23.9756 34.5994C24.0474 34.6033 24.1191 34.5905 24.1852 34.5621C24.2512 34.5337 24.3098 34.4904 24.3564 34.4356C24.4029 34.3808 24.4362 34.316 24.4536 34.2462H24.4526ZM28.102 38.4406L27.7431 35.132L28.1631 34.0871C28.1836 34.1391 28.2012 34.1922 28.2158 34.2462C28.2332 34.316 28.2665 34.3808 28.313 34.4356C28.3596 34.4904 28.4182 34.5337 28.4842 34.5621C28.5503 34.5905 28.622 34.6033 28.6938 34.5994C28.7656 34.5955 28.8355 34.5751 28.8981 34.5398C29.081 34.4296 29.2529 34.3023 29.4114 34.1594C29.2421 35.6549 28.7981 37.1063 28.102 38.4406ZM29.5953 31.9176C29.5496 32.4846 29.2888 33.0126 28.8664 33.3936C28.6105 32.9672 28.2396 32.6216 27.7963 32.3964C28.2346 32.1606 28.6111 31.8248 28.8953 31.4164C29.1753 31.507 29.4203 31.6821 29.5967 31.9176H29.5953ZM26.3333 15.9333C27.8068 15.9515 29.2153 16.5433 30.2594 17.5832C31.3036 18.6231 31.9012 20.0291 31.9254 21.5025C31.7448 21.456 31.5555 21.4547 31.3742 21.4988C30.9762 19.8809 29.3862 19.0521 28.3978 18.8047C28.2362 18.7607 28.067 18.7516 27.9016 18.778C27.7361 18.8045 27.5782 18.8659 27.4384 18.9583C26.121 19.8524 23.6043 20.2743 22.3251 20.3298C22.0277 20.346 21.7472 20.473 21.5389 20.6859C21.3306 20.8988 21.2097 21.182 21.2 21.4797C21.0471 21.4547 20.8907 21.4611 20.7403 21.4983C20.7656 20.0255 21.3638 18.6204 22.4081 17.5814C23.4523 16.5424 24.8603 15.9512 26.3333 15.9333ZM22.1697 25.934C22.1604 25.7606 22.0975 25.5943 21.9898 25.4581C21.8821 25.3218 21.7348 25.2224 21.5682 25.1733C21.453 25.1427 21.346 25.0871 21.2549 25.0104C21.1637 24.9337 21.0906 24.8378 21.0409 24.7295C20.7685 24.1047 20.6625 23.4199 20.7333 22.742C20.7326 22.6859 20.7448 22.6303 20.7691 22.5797C20.7934 22.5291 20.8291 22.4848 20.8733 22.4503C20.9144 22.4177 20.9651 22.3994 21.0175 22.398C21.0372 22.398 21.0569 22.4007 21.0759 22.406C21.1349 22.433 21.1819 22.4811 21.2075 22.5408C21.228 22.6549 21.2902 22.7572 21.382 22.8278C21.4737 22.8985 21.5885 22.9326 21.704 22.9233C21.8195 22.9141 21.9274 22.8622 22.0067 22.7778C22.0861 22.6934 22.1312 22.5825 22.1333 22.4666V21.5287C22.1311 21.4629 22.154 21.3988 22.1973 21.3493C22.2407 21.2998 22.3012 21.2687 22.3667 21.2622C23.8003 21.1997 26.4733 20.7405 27.9564 19.7334C27.9876 19.7154 28.0221 19.704 28.0579 19.6997C28.0937 19.6955 28.1299 19.6985 28.1645 19.7087C28.263 19.7329 30.5333 20.3233 30.5333 22.28V22.4666C30.5335 22.5838 30.5778 22.6967 30.6573 22.7827C30.7369 22.8687 30.8459 22.9217 30.9627 22.931C31.0796 22.9404 31.1956 22.9054 31.2878 22.8331C31.3801 22.7609 31.4417 22.6565 31.4606 22.5408C31.4858 22.4813 31.5324 22.4334 31.5912 22.4064C31.6262 22.3969 31.6629 22.3959 31.6983 22.4035C31.7337 22.4112 31.7668 22.4272 31.7947 22.4503C31.839 22.4848 31.8746 22.5291 31.8989 22.5797C31.9232 22.6303 31.9355 22.6859 31.9347 22.742C32.0058 23.4194 31.9004 24.1036 31.6286 24.7281C31.5778 24.8385 31.5031 24.9363 31.4097 25.0141C31.3164 25.0919 31.2069 25.1479 31.0891 25.178C30.925 25.2282 30.7803 25.3277 30.6747 25.4629C30.569 25.5982 30.5074 25.7626 30.4983 25.934C30.4429 27.0053 29.9814 28.0152 29.2076 28.7582C28.4338 29.5012 27.406 29.9214 26.3333 29.9333C25.2609 29.9211 24.2334 29.5007 23.4599 28.7578C22.6864 28.0148 22.2251 27.005 22.1697 25.934ZM26.3333 30.8666C26.973 30.8667 27.6067 30.744 28.2 30.505V30.7677C28.0945 30.9749 27.6526 31.6586 26.3333 31.9502C25.0089 31.6576 24.5684 30.9702 24.4666 30.7696V30.505C25.06 30.744 25.6937 30.8667 26.3333 30.8666ZM23.7699 31.4145C24.0542 31.823 24.4307 32.1587 24.8689 32.3945C24.4257 32.6197 24.0549 32.9651 23.7989 33.3913C23.3763 33.0106 23.1155 32.4826 23.0699 31.9157C23.2461 31.6805 23.4905 31.5055 23.7699 31.4145ZM17.9333 36.2846C17.9699 35.1974 18.4316 34.1679 19.2191 33.4174C20.0067 32.6669 21.0572 32.2554 22.145 32.2713C22.2117 33.9359 22.6765 39.4579 25.8666 40.9737V42.0666H17.9333V36.2846ZM26.8 42.0666V40.9723C29.9892 39.4561 30.4544 33.9378 30.5216 32.2713C31.3065 32.281 32.0749 32.4984 32.7486 32.9013L32.876 33.2C32.6737 33.5681 32.5121 33.957 32.3939 34.3601L31.56 34.6933C31.4145 34.7503 31.2878 34.8466 31.1939 34.9714C31.1001 35.0963 31.0428 35.2447 31.0284 35.4003C31.0084 35.5982 31 35.7988 31 36C31 36.2011 31.0084 36.4018 31.0261 36.6005C31.0408 36.7562 31.0985 36.9047 31.1928 37.0294C31.2871 37.1541 31.4142 37.2501 31.56 37.3066L32.3962 37.6412C32.5137 38.0437 32.6746 38.4322 32.876 38.7999L32.5208 39.6287C32.4581 39.7718 32.4363 39.9294 32.458 40.0841C32.4797 40.2388 32.5439 40.3844 32.6436 40.5047C32.7714 40.6573 32.9082 40.8057 33.0505 40.9475C33.1928 41.0894 33.3408 41.2275 33.4934 41.3545C33.6134 41.4542 33.7589 41.5185 33.9134 41.5402C34.068 41.5619 34.2255 41.5401 34.3684 41.4772L34.7333 41.3232V42.0666H26.8ZM44.0493 36.4587L43.0432 36.8614C42.9745 36.8888 42.9132 36.9322 42.8645 36.9879C42.8158 37.0437 42.7811 37.1102 42.7632 37.182C42.6454 37.657 42.4566 38.1115 42.2032 38.5302C42.165 38.5936 42.1424 38.6652 42.1373 38.739C42.1322 38.8128 42.1447 38.8868 42.1738 38.9549L42.6013 39.9531C42.5023 40.0688 42.3978 40.1813 42.2891 40.2895C42.1803 40.3978 42.0683 40.5028 41.9526 40.6017L40.9544 40.1743C40.8864 40.1449 40.8124 40.1322 40.7385 40.1373C40.6646 40.1424 40.593 40.1652 40.5297 40.2037C40.1111 40.4571 39.6566 40.6459 39.1815 40.7637C39.1097 40.7816 39.0432 40.8163 38.9875 40.865C38.9317 40.9137 38.8884 40.9749 38.861 41.0437L38.4582 42.0498C38.1529 42.0736 37.8461 42.0736 37.5408 42.0498L37.138 41.0437C37.1106 40.9749 37.0672 40.9137 37.0115 40.865C36.9558 40.8163 36.8892 40.7816 36.8174 40.7637C36.3424 40.6459 35.8879 40.4571 35.4692 40.2037C35.4059 40.1652 35.3343 40.1425 35.2605 40.1374C35.1866 40.1323 35.1126 40.1449 35.0446 40.1743L34.0464 40.6017C33.9306 40.5028 33.8182 40.3983 33.7099 40.2895C33.6016 40.1808 33.4966 40.0688 33.3977 39.9531L33.8252 38.9549C33.8543 38.8868 33.8668 38.8128 33.8617 38.739C33.8566 38.6652 33.834 38.5936 33.7958 38.5302C33.5424 38.1115 33.3536 37.657 33.2358 37.182C33.2179 37.1102 33.1831 37.0437 33.1344 36.9879C33.0858 36.9322 33.0245 36.8888 32.9558 36.8614L31.9496 36.4587C31.9389 36.307 31.9333 36.1535 31.9333 36C31.9333 35.8464 31.9389 35.6929 31.9506 35.5412L32.9567 35.1385C33.0254 35.1111 33.0867 35.0677 33.1354 35.012C33.1841 34.9562 33.2188 34.8897 33.2367 34.8179C33.3545 34.3429 33.5433 33.8884 33.7967 33.4697C33.8349 33.4063 33.8575 33.3347 33.8626 33.2609C33.8677 33.1871 33.8552 33.1131 33.8261 33.045L33.3986 32.0468C33.4976 31.9311 33.6021 31.8186 33.7108 31.7104C33.8196 31.6021 33.9316 31.4971 34.0473 31.3982L35.0455 31.8256C35.1135 31.8548 35.1875 31.8673 35.2614 31.8622C35.3352 31.8571 35.4068 31.8345 35.4702 31.7962C35.8888 31.5428 36.3434 31.354 36.8184 31.2362C36.8902 31.2183 36.9567 31.1836 37.0124 31.1349C37.0682 31.0862 37.1115 31.025 37.139 30.9562L37.5417 29.9501C37.847 29.9263 38.1538 29.9263 38.4592 29.9501L38.8619 30.9562C38.8893 31.025 38.9327 31.0862 38.9884 31.1349C39.0441 31.1836 39.1107 31.2183 39.1825 31.2362C39.6575 31.354 40.112 31.5428 40.5307 31.7962C40.5941 31.8345 40.6656 31.8571 40.7395 31.8622C40.8133 31.8673 40.8873 31.8548 40.9553 31.8256L41.9535 31.3982C42.0693 31.4971 42.1817 31.6016 42.29 31.7104C42.3983 31.8191 42.5033 31.9311 42.6022 32.0468L42.1747 33.045C42.1456 33.1131 42.1331 33.1871 42.1382 33.2609C42.1433 33.3347 42.1659 33.4063 42.2041 33.4697C42.4575 33.8884 42.6463 34.3429 42.7641 34.8179C42.782 34.8897 42.8168 34.9562 42.8655 35.012C42.9141 35.0677 42.9754 35.1111 43.0441 35.1385L44.0503 35.5412C44.0619 35.6929 44.0675 35.8464 44.0675 36C44.0675 36.1535 44.061 36.307 44.0493 36.4587Z" fill="white"/>
<path d="M43.1334 17.8H42.2C41.9525 17.8 41.7151 17.8984 41.5401 18.0734C41.365 18.2484 41.2667 18.4858 41.2667 18.7334V20.6H37.5334V18.7334C37.5334 18.4858 37.435 18.2484 37.26 18.0734C37.085 17.8984 36.8476 17.8 36.6 17.8H35.6667C35.1716 17.8 34.6968 17.9967 34.3468 18.3468C33.9967 18.6968 33.8 19.1716 33.8 19.6667V26.1744C33.8 26.2159 33.8 26.2579 33.8024 26.2999C33.8385 26.7873 34.0602 27.2422 34.4218 27.5709C34.7835 27.8997 35.2574 28.0771 35.746 28.0667H43.1334C43.6284 28.0667 44.1032 27.87 44.4533 27.52C44.8034 27.1699 45 26.6951 45 26.2V19.6667C45 19.1716 44.8034 18.6968 44.4533 18.3468C44.1032 17.9967 43.6284 17.8 43.1334 17.8ZM34.7334 19.6667C34.7334 19.4192 34.8317 19.1818 35.0067 19.0067C35.1818 18.8317 35.4192 18.7334 35.6667 18.7334H36.6V24.3334H35.6667C35.339 24.3337 35.0171 24.4203 34.7334 24.5844V19.6667ZM43.1334 27.1334H35.746C35.4972 27.1408 35.2546 27.054 35.0669 26.8904C34.8792 26.7269 34.7601 26.4985 34.7334 26.2509C34.7334 26.2336 34.7334 26.2168 34.7334 26.2V26.1856C34.7372 25.9405 34.8372 25.7068 35.0118 25.5349C35.1864 25.363 35.4217 25.2667 35.6667 25.2667H36.6C36.8476 25.2667 37.085 25.1684 37.26 24.9933C37.435 24.8183 37.5334 24.5809 37.5334 24.3334V21.5334H41.2667V24.3334C41.2667 24.5809 41.365 24.8183 41.5401 24.9933C41.7151 25.1684 41.9525 25.2667 42.2 25.2667H43.1334C43.3809 25.2667 43.6183 25.365 43.7933 25.5401C43.9684 25.7151 44.0667 25.9525 44.0667 26.2C44.0667 26.4476 43.9684 26.685 43.7933 26.86C43.6183 27.035 43.3809 27.1334 43.1334 27.1334ZM44.0667 24.584C43.7832 24.4193 43.4612 24.3329 43.1334 24.3334H42.2V18.7334H43.1334C43.3809 18.7334 43.6183 18.8317 43.7933 19.0067C43.9684 19.1818 44.0667 19.4192 44.0667 19.6667V24.584Z" fill="white"/>
</svg>
