<svg width="78" height="78" viewBox="0 0 78 78" fill="none" xmlns="http://www.w3.org/2000/svg">
<circle cx="39.0208" cy="39.0212" r="34.0213" fill="#009944"/>
<circle cx="39" cy="39" r="38.5" stroke="#009944" stroke-dasharray="3 3"/>
<path d="M52.0364 29.5053L44.7447 22.2136C44.608 22.0769 44.4228 22 44.2291 22H28.9166C27.3088 22 26 23.3081 26 24.9167V54.0834C26 55.6919 27.3088 57 28.9167 57H49.3334C50.9412 57 52.25 55.6919 52.25 54.0833V30.0208C52.25 29.8271 52.1731 29.642 52.0364 29.5053ZM44.9583 24.4894L49.7606 29.2917H46.4166C45.612 29.2917 44.9583 28.6373 44.9583 27.8334V24.4894ZM50.7917 54.0833C50.7917 54.8872 50.138 55.5416 49.3334 55.5416H28.9167C28.112 55.5416 27.4584 54.8872 27.4584 54.0833V24.9167C27.4584 24.1128 28.1121 23.4584 28.9167 23.4584H43.5V27.8334C43.5 29.4419 44.8088 30.75 46.4167 30.75H50.7917V54.0833Z" fill="white"/>
<path d="M47.1458 42.4166H31.1042C30.7011 42.4166 30.375 42.7428 30.375 43.1458C30.375 43.5489 30.7011 43.875 31.1042 43.875H47.1459C47.5489 43.875 47.8751 43.5489 47.8751 43.1458C47.875 42.7428 47.5489 42.4166 47.1458 42.4166Z" fill="white"/>
<path d="M47.1458 38.0416H31.1042C30.7011 38.0416 30.375 38.3678 30.375 38.7708C30.375 39.1739 30.7011 39.5 31.1042 39.5H47.1459C47.5489 39.5 47.8751 39.1739 47.8751 38.7708C47.875 38.3678 47.5489 38.0416 47.1458 38.0416Z" fill="white"/>
<path d="M47.1458 46.7916H31.1042C30.7011 46.7916 30.375 47.1178 30.375 47.5208C30.375 47.9239 30.7011 48.25 31.1042 48.25H47.1459C47.5489 48.25 47.8751 47.9239 47.8751 47.5208C47.875 47.1178 47.5489 46.7916 47.1458 46.7916Z" fill="white"/>
<path d="M39.8542 51.1666H31.1042C30.7011 51.1666 30.375 51.4928 30.375 51.8958C30.375 52.2989 30.7011 52.625 31.1042 52.625H39.8542C40.2572 52.625 40.5834 52.2989 40.5834 51.8958C40.5833 51.4928 40.2572 51.1666 39.8542 51.1666Z" fill="white"/>
<path d="M37.6672 34.3958C37.6672 34.7989 37.9934 35.125 38.3964 35.125H47.1464C47.5495 35.125 47.8756 34.7989 47.8756 34.3958C47.8756 33.9928 47.5495 33.6666 47.1464 33.6666H38.3964C37.9934 33.6667 37.6672 33.9928 37.6672 34.3958Z" fill="white"/>
<path d="M32.5625 33.6668H31.1042C30.7011 33.6668 30.375 33.9929 30.375 34.396C30.375 34.799 30.7011 35.1251 31.1042 35.1251H31.8334C31.8334 35.5282 32.1595 35.8543 32.5626 35.8543C32.9656 35.8543 33.2918 35.5282 33.2918 35.1251V34.9908C34.1386 34.6887 34.75 33.8869 34.75 32.9376C34.75 31.7313 33.7688 30.7501 32.5625 30.7501C32.1609 30.7501 31.8333 30.4232 31.8333 30.0209C31.8333 29.6186 32.1609 29.2917 32.5625 29.2917H34.0208C34.4239 29.2917 34.75 28.9656 34.75 28.5625C34.75 28.1595 34.4239 27.8333 34.0208 27.8333H33.2916C33.2916 27.4303 32.9655 27.1041 32.5624 27.1041C32.1594 27.1041 31.8332 27.4303 31.8332 27.8333V27.9676C30.9864 28.2697 30.375 29.0715 30.375 30.0209C30.375 31.2272 31.3562 32.2084 32.5625 32.2084C32.9641 32.2084 33.2917 32.5352 33.2917 32.9376C33.2917 33.3399 32.9641 33.6668 32.5625 33.6668Z" fill="white"/>
</svg>
