<svg width="78" height="78" viewBox="0 0 78 78" fill="none" xmlns="http://www.w3.org/2000/svg">
<circle cx="38.9993" cy="39.0007" r="34.0213" fill="#009944"/>
<circle cx="39" cy="39" r="38.5" stroke="#009944" stroke-dasharray="3 3"/>
<path d="M31.6651 24.9857C31.5377 24.801 31.3051 24.7209 31.0906 24.7876C30.8764 24.8543 30.7305 25.0527 30.7305 25.277V28.1595C30.7305 28.4427 30.96 28.6722 31.2432 28.6722C31.5264 28.6722 31.7559 28.4427 31.7559 28.1595V26.9216L32.7703 28.3906C32.9127 28.5965 33.1624 28.6866 33.3911 28.6152C33.627 28.5416 33.7795 28.3244 33.7795 28.0571L33.7525 25.2666C33.7498 24.9852 33.5208 24.7589 33.2399 24.7589C33.2383 24.7589 33.2365 24.7589 33.2349 24.7589C32.9517 24.7616 32.7244 24.9934 32.7271 25.2765L32.7394 26.5413L31.6651 24.9857Z" fill="white"/>
<path d="M29.8086 28.1595V25.2715C29.8086 24.9883 29.5791 24.7589 29.2959 24.7589C29.0127 24.7589 28.7832 24.9883 28.7832 25.2715V28.1594C28.7832 28.4426 29.0127 28.6721 29.2959 28.6721C29.5791 28.6721 29.8086 28.4426 29.8086 28.1595Z" fill="white"/>
<path d="M42.5676 24.7589C42.2844 24.7589 42.0549 24.9883 42.0549 25.2715V28.1594C42.0549 28.4426 42.2844 28.6721 42.5676 28.6721C42.8508 28.6721 43.0803 28.4426 43.0803 28.1594V25.2715C43.0803 24.9884 42.8508 24.7589 42.5676 24.7589Z" fill="white"/>
<path d="M49.704 25.7975C49.9872 25.7975 50.2167 25.568 50.2167 25.2848C50.2167 25.0016 49.9872 24.7721 49.704 24.7721H48.4983C48.2151 24.7721 47.9856 25.0016 47.9856 25.2848V28.1462C47.9856 28.4294 48.2151 28.6589 48.4983 28.6589H49.704C49.9872 28.6589 50.2167 28.4294 50.2167 28.1462C50.2167 27.863 49.9872 27.6335 49.704 27.6335H49.011V27.2282H49.6151C49.8983 27.2282 50.1278 26.9987 50.1278 26.7155C50.1278 26.4323 49.8983 26.2028 49.6151 26.2028H49.011V25.7974H49.704V25.7975Z" fill="white"/>
<path d="M45.8622 25.7842C46.0489 25.7842 46.2288 25.8391 46.3825 25.943C46.6172 26.1014 46.9359 26.0398 47.0943 25.8051C47.2528 25.5704 47.1911 25.2517 46.9565 25.0933C46.6326 24.8745 46.2542 24.7588 45.8622 24.7588C44.7833 24.7588 43.9055 25.6365 43.9055 26.7154C43.9055 27.7943 44.7833 28.672 45.8622 28.672C46.2978 28.672 46.6897 28.528 46.9954 28.2556C47.0556 28.2021 47.1125 28.1433 47.1648 28.081C47.3467 27.8639 47.3182 27.5406 47.1011 27.3587C46.8839 27.1769 46.5607 27.2055 46.3788 27.4224C46.3586 27.4466 46.3367 27.4692 46.3135 27.4898C46.1968 27.5939 46.0449 27.6466 45.8622 27.6466C45.3487 27.6466 44.9309 27.229 44.9309 26.7154C44.9309 26.2019 45.3488 25.7842 45.8622 25.7842Z" fill="white"/>
<path d="M35.7829 28.6722H35.7868C36.0326 28.6705 36.2509 28.5131 36.3312 28.2769L37.2741 25.4386C37.3635 25.1698 37.218 24.8796 36.9492 24.7904C36.6807 24.7012 36.3903 24.8466 36.3011 25.1153L35.7737 26.7028L35.2186 25.1035C35.1257 24.836 34.8334 24.6942 34.5661 24.7873C34.2987 24.8801 34.1571 25.1722 34.2499 25.4397L35.2385 28.2876C35.3201 28.5181 35.5387 28.6722 35.7829 28.6722Z" fill="white"/>
<path d="M41.2235 26.7155C41.2235 25.6366 40.3457 24.7589 39.2669 24.7589C38.188 24.7589 37.3103 25.6366 37.3103 26.7155C37.3103 27.7943 38.188 28.6721 39.2669 28.6721C40.3457 28.6721 41.2235 27.7944 41.2235 26.7155ZM38.3357 26.7155C38.3357 26.202 38.7534 25.7842 39.2669 25.7842C39.7804 25.7842 40.1981 26.202 40.1981 26.7155C40.1981 27.229 39.7804 27.6467 39.2669 27.6467C38.7534 27.6467 38.3357 27.229 38.3357 26.7155Z" fill="white"/>
<path d="M43.0234 31.3106C43.0234 31.5938 43.2529 31.8233 43.5361 31.8233H49.7041C49.9873 31.8233 50.2168 31.5938 50.2168 31.3106C50.2168 31.0274 49.9873 30.7979 49.7041 30.7979H43.5361C43.2529 30.7979 43.0234 31.0275 43.0234 31.3106Z" fill="white"/>
<path d="M49.7039 33.0631H47.0698C46.7866 33.0631 46.5571 33.2926 46.5571 33.5758C46.5571 33.859 46.7866 34.0885 47.0698 34.0885H49.7039C49.9872 34.0885 50.2166 33.859 50.2166 33.5758C50.2166 33.2926 49.9872 33.0631 49.7039 33.0631Z" fill="white"/>
<path d="M49.0203 53.0195C48.8676 53.0195 48.7718 52.9118 48.5427 52.5656C48.302 52.2019 47.9381 51.6523 47.2101 51.6523C46.4822 51.6523 46.1183 52.2019 45.8775 52.5656C45.6484 52.9117 45.5526 53.0195 45.4 53.0195C45.2472 53.0195 45.1514 52.9117 44.9221 52.5655C44.6815 52.2019 44.3175 51.6523 43.5895 51.6523C42.8615 51.6523 42.4975 52.2019 42.2567 52.5655C42.0275 52.9116 41.9318 53.0195 41.7791 53.0195C41.4958 53.0195 41.2664 53.249 41.2664 53.5322C41.2664 53.8154 41.4958 54.0449 41.7791 54.0449C42.5071 54.0449 42.871 53.4953 43.1118 53.1317C43.341 52.7856 43.4368 52.6777 43.5895 52.6777C43.7422 52.6777 43.838 52.7854 44.0672 53.1317C44.308 53.4953 44.672 54.0449 45.4 54.0449C46.1279 54.0449 46.4918 53.4953 46.7326 53.1316C46.9617 52.7855 47.0575 52.6777 47.2101 52.6777C47.3628 52.6777 47.4586 52.7854 47.6877 53.1316C47.9285 53.4953 48.2923 54.0449 49.0203 54.0449C49.3035 54.0449 49.533 53.8154 49.533 53.5322C49.533 53.249 49.3035 53.0195 49.0203 53.0195Z" fill="white"/>
<path d="M52.7759 47.978C52.4927 47.978 52.2632 48.2075 52.2632 48.4907V54.7968C52.2632 55.4463 51.7348 55.9746 51.0854 55.9746H27.9143C27.2649 55.9746 26.7366 55.4463 26.7366 54.7968V24.2032C26.7366 23.5537 27.2649 23.0254 27.9143 23.0254H31.491C31.7742 23.0254 32.0037 22.7959 32.0037 22.5127C32.0037 22.2295 31.7742 22 31.491 22H27.9143C26.6995 22 25.7112 22.9883 25.7112 24.2032V54.7969C25.7112 56.0117 26.6995 57 27.9143 57H51.0854C52.3002 57 53.2886 56.0117 53.2886 54.7968V48.4907C53.2886 48.2075 53.0591 47.978 52.7759 47.978Z" fill="white"/>
<path d="M51.0853 22H33.5408C33.2576 22 33.0281 22.2295 33.0281 22.5127C33.0281 22.7959 33.2576 23.0254 33.5408 23.0254H51.0853C51.7348 23.0254 52.2631 23.5537 52.2631 24.2032V46.4409C52.2631 46.7241 52.4926 46.9536 52.7758 46.9536C53.059 46.9536 53.2885 46.7241 53.2885 46.4409V24.2032C53.2885 22.9883 52.3002 22 51.0853 22V22Z" fill="white"/>
<path d="M29.5132 37.1317V47.7806C29.5132 48.4446 30.0534 48.9848 30.7174 48.9848H35.7627C36.0459 48.9848 36.2754 48.7553 36.2754 48.4721C36.2754 48.1889 36.0459 47.9594 35.7627 47.9594H30.7174C30.6188 47.9594 30.5386 47.8791 30.5386 47.7806V45.1258H43.4933V47.9594H37.8126C37.5293 47.9594 37.2999 48.1889 37.2999 48.4721C37.2999 48.7553 37.5293 48.9848 37.8126 48.9848H48.2825C48.9465 48.9848 49.4867 48.4446 49.4867 47.7806V37.1317C49.4867 36.4676 48.9465 35.9275 48.2825 35.9275H30.7174C30.0534 35.9275 29.5132 36.4677 29.5132 37.1317ZM30.7174 36.9529H43.4933V39.7866H30.5386V37.1317C30.5386 37.0331 30.6188 36.9529 30.7174 36.9529ZM30.5386 44.1004V40.812H43.4933V44.1004H30.5386ZM48.4614 44.1004H44.5187V40.812H48.4614V44.1004ZM48.2826 47.9595H44.5187V45.1258H48.4614V47.7806C48.4614 47.8792 48.3811 47.9595 48.2826 47.9595ZM48.4614 37.1317V39.7866H44.5187V36.9529H48.2826C48.3811 36.9529 48.4614 37.0331 48.4614 37.1317Z" fill="white"/>
</svg>
