<svg width="52" height="52" viewBox="0 0 52 52" fill="none" xmlns="http://www.w3.org/2000/svg">
<path d="M21.7988 11.7437H30.1856V13.421H21.7988V11.7437Z" fill="white"/>
<path d="M20.1211 15.0981H31.8626V16.7755H20.1211V15.0981Z" fill="white"/>
<path d="M13.4121 26.8398H38.5724V28.5172H13.4121V26.8398Z" fill="white"/>
<path d="M13.4121 30.1943H38.5724V31.8717H13.4121V30.1943Z" fill="white"/>
<path d="M13.4121 23.4849H38.5724V25.1622H13.4121V23.4849Z" fill="white"/>
<path d="M13.4121 20.1304H38.5724V21.8077H13.4121V20.1304Z" fill="white"/>
<path d="M50.4814 25.6077C50.3929 25.4438 50.2524 25.314 50.082 25.2388C49.9116 25.1635 49.7211 25.1472 49.5403 25.1923C49.3596 25.2374 49.1991 25.3413 49.084 25.4878C48.9689 25.6342 48.9058 25.8148 48.9047 26.001V26.8397C48.8963 28.6489 48.3994 30.4222 47.4664 31.9723C46.5335 33.5223 45.199 34.7915 43.6042 35.6458V9.2275C43.6042 9.00508 43.5158 8.7918 43.3585 8.63455L36.6491 1.92514C36.4919 1.76785 36.2786 1.67946 36.0562 1.67941H15.5992L13.9755 0.217596C13.8551 0.108337 13.7055 0.0364309 13.545 0.0106287C13.3845 -0.0151734 13.2199 0.00624094 13.0713 0.0722658C12.9227 0.138291 12.7966 0.246079 12.7081 0.382514C12.6197 0.518948 12.5728 0.678146 12.5732 0.840733V1.67941H9.21851C8.99608 1.67941 8.78276 1.76777 8.62548 1.92505C8.46819 2.08233 8.37983 2.29566 8.37983 2.51809V5.03831C5.64387 6.06486 3.33746 7.98983 1.83816 10.4981C0.69541 12.3785 0.0633576 14.5247 0.0045203 16.7243C-0.054317 18.924 0.462099 21.1008 1.50269 23.0397C1.59115 23.2036 1.73165 23.3334 1.90205 23.4086C2.07244 23.4838 2.26302 23.5002 2.44374 23.4551C2.62446 23.41 2.78503 23.306 2.90012 23.1596C3.01522 23.0132 3.07829 22.8326 3.0794 22.6463V21.8076C3.08773 19.9985 3.58464 18.2252 4.51763 16.6751C5.45062 15.125 6.78503 13.8558 8.37983 13.0015V51.1613C8.37983 51.3838 8.46819 51.5971 8.62548 51.7544C8.78276 51.9116 8.99608 52 9.21851 52H42.7656C42.988 52 43.2013 51.9116 43.3586 51.7544C43.5159 51.5971 43.6042 51.3838 43.6042 51.1613V43.6132C46.3418 42.5875 48.6497 40.6624 50.1501 38.1535C51.293 36.2722 51.9247 34.125 51.9828 31.9246C52.0409 29.7241 51.5234 27.5467 50.4814 25.6077ZM36.8948 4.54265L40.741 8.38882H36.8948V4.54265ZM10.0572 3.35676H12.5732V4.20383C11.7261 4.23276 10.8836 4.34228 10.0572 4.53091V3.35676ZM1.80964 18.7565C1.40967 16.1964 1.92743 13.5773 3.27146 11.3619C4.28213 9.67561 5.71539 8.28224 7.42956 7.31954C9.14372 6.35685 11.0794 5.85817 13.0454 5.87279H13.4119C13.6343 5.87279 13.8476 5.78443 14.0049 5.62715C14.1622 5.46987 14.2506 5.25655 14.2506 5.03412V2.72356L20.5029 8.35108L14.2506 13.3538V10.9049C14.2506 10.6824 14.1622 10.4691 14.0049 10.3118C13.8476 10.1545 13.6343 10.0662 13.4119 10.0662H13.2978C10.6958 10.0581 8.16304 10.9038 6.08789 12.4736C4.01274 14.0434 2.50982 16.2505 1.80964 18.7565ZM41.9269 50.3226H10.0572V12.2727C10.8714 12 11.7167 11.8309 12.5732 11.7695V15.0982C12.5732 15.2563 12.6177 15.4111 12.7019 15.5449C12.786 15.6787 12.9062 15.786 13.0486 15.8545C13.191 15.9229 13.3499 15.9497 13.5069 15.9318C13.6639 15.9139 13.8127 15.852 13.9361 15.7532L22.3228 9.04383C22.4178 8.9678 22.4951 8.87203 22.5493 8.76315C22.6036 8.65427 22.6335 8.53489 22.637 8.4133C22.6405 8.2917 22.6176 8.17079 22.5697 8.05896C22.5218 7.94713 22.4502 7.84706 22.3597 7.76568L17.4627 3.35676H35.2175V9.2275C35.2175 9.44993 35.3058 9.66325 35.4631 9.82053C35.6204 9.97781 35.8337 10.0662 36.0562 10.0662H41.9269V36.3746C41.1127 36.6474 40.2673 36.8164 39.4109 36.8778V33.5491C39.4109 33.3911 39.3663 33.2363 39.2822 33.1025C39.1981 32.9687 39.0779 32.8614 38.9355 32.7929C38.793 32.7244 38.6342 32.6976 38.4771 32.7155C38.3201 32.7334 38.1714 32.7953 38.048 32.8941L29.6612 39.6035C29.5663 39.6795 29.489 39.7753 29.4347 39.8842C29.3805 39.9931 29.3505 40.1125 29.347 40.2341C29.3435 40.3557 29.3665 40.4766 29.4144 40.5884C29.4623 40.7002 29.5339 40.8003 29.6243 40.8817L38.0111 48.4298C38.1316 48.5382 38.2809 48.6094 38.441 48.6348C38.6012 48.6601 38.7652 48.6385 38.9133 48.5726C39.0614 48.5067 39.1872 48.3992 39.2755 48.2633C39.3638 48.1273 39.4108 47.9687 39.4109 47.8066V44.4435C40.258 44.4143 41.1005 44.3045 41.9269 44.1156V50.3226ZM48.7126 37.2854C47.7019 38.9717 46.2687 40.3651 44.5545 41.3278C42.8404 42.2905 40.9046 42.7892 38.9387 42.7746H38.5722C38.3498 42.7746 38.1364 42.8629 37.9791 43.0202C37.8219 43.1775 37.7335 43.3908 37.7335 43.6132V45.9238L31.4812 40.2963L37.7335 35.2936V37.7425C37.7335 37.9649 37.8219 38.1783 37.9791 38.3355C38.1364 38.4928 38.3498 38.5812 38.5722 38.5812H38.6862C41.2885 38.5896 43.8217 37.7441 45.8972 36.1743C47.9727 34.6045 49.4758 32.3971 50.1761 29.8908C50.5756 32.4511 50.0572 35.0703 48.7126 37.2854Z" fill="white"/>
</svg>
