<svg width="52" height="52" viewBox="0 0 52 52" fill="none" xmlns="http://www.w3.org/2000/svg">
<g clip-path="url(#clip0_437_1383)">
<path d="M32.0667 30.3335H31.1133C30.7548 30.3341 30.434 30.1104 30.3108 29.7736C30.2051 29.4963 30.0915 29.225 29.9693 28.9564C29.8175 28.6296 29.8868 28.2428 30.1427 27.9892L30.8221 27.3088C31.8308 26.2913 31.829 24.6502 30.8178 23.635L28.3686 21.1858C27.3521 20.1753 25.7104 20.1753 24.6939 21.1858L24.0145 21.8644C23.7603 22.1193 23.3741 22.1886 23.0473 22.0378C22.7786 21.9156 22.5073 21.802 22.2291 21.6911C21.8906 21.5688 21.6654 21.2468 21.6667 20.8868V19.9335C21.6667 18.4975 20.5026 17.3335 19.0667 17.3335H15.6C14.164 17.3335 13 18.4975 13 19.9335V20.8868C13.0007 21.2454 12.7769 21.5662 12.4401 21.6894C12.1628 21.7951 11.8915 21.9086 11.6229 22.0308C11.296 22.182 10.9097 22.1127 10.6557 21.8575L9.97533 21.178C8.95895 20.1681 7.31792 20.1681 6.30153 21.178L3.85233 23.635C2.8418 24.6515 2.8418 26.2932 3.85233 27.3097L4.53093 27.9892C4.78682 28.2428 4.85615 28.6296 4.70427 28.9564C4.58207 29.225 4.46853 29.4963 4.36193 29.7745C4.23789 30.1133 3.91408 30.3372 3.55333 30.3335H2.6C1.16404 30.3335 0 31.4975 0 32.9335V36.4002C0 37.8361 1.16404 39.0002 2.6 39.0002H3.55333C3.91192 38.9995 4.23269 39.2232 4.35587 39.56C4.4616 39.8374 4.57513 40.1086 4.69733 40.3773C4.84922 40.704 4.77988 41.0909 4.524 41.3445L3.84453 42.0248C2.83465 43.0412 2.83465 44.6822 3.84453 45.6986L6.29373 48.1478C7.31023 49.1584 8.95191 49.1584 9.9684 48.1478L10.6479 47.4692C10.902 47.2143 11.2882 47.1451 11.6151 47.2959C11.8837 47.4181 12.155 47.5316 12.4332 47.6426C12.7735 47.7635 13.0007 48.0858 13 48.4468V49.4002C13 50.8361 14.164 52.0002 15.6 52.0002H19.0667C20.5026 52.0002 21.6667 50.8361 21.6667 49.4002V48.4468C21.666 48.0882 21.8897 47.7675 22.2265 47.6443C22.5039 47.5386 22.7751 47.425 23.0438 47.3028C23.3706 47.1517 23.757 47.2209 24.011 47.4762L24.6913 48.1556C25.7091 49.1639 27.3497 49.1619 28.3651 48.1513L30.8143 45.7021C31.8249 44.6856 31.8249 43.0439 30.8143 42.0274L30.1357 41.348C29.8799 41.0944 29.8105 40.7075 29.9624 40.3808C30.0846 40.1121 30.1981 39.8408 30.3091 39.5626C30.4314 39.2241 30.7533 38.9989 31.1133 39.0002H32.0667C33.5026 39.0002 34.6667 37.8361 34.6667 36.4002V32.9335C34.6667 31.4975 33.5026 30.3335 32.0667 30.3335ZM32.9333 36.4002C32.9333 36.8788 32.5453 37.2668 32.0667 37.2668H31.1133C30.036 37.2708 29.0718 37.9368 28.6867 38.943C28.5948 39.1856 28.4955 39.4245 28.3885 39.6597C27.943 40.6434 28.1497 41.7999 28.9085 42.5682L29.5863 43.2468C29.9249 43.585 29.9252 44.1339 29.5869 44.4725C29.5867 44.4727 29.5865 44.4729 29.5863 44.4732L27.1371 46.9224C26.7986 47.2607 26.25 47.2607 25.9116 46.9224L25.2321 46.2438C24.4642 45.4842 23.3072 45.2774 22.3236 45.7238C22.0887 45.8304 21.8495 45.93 21.6086 46.0219C20.6032 46.4069 19.9377 47.3702 19.9333 48.4468V49.4002C19.9333 49.8788 19.5453 50.2668 19.0667 50.2668H15.6C15.1214 50.2668 14.7333 49.8788 14.7333 49.4002V48.4468C14.7293 47.3695 14.0634 46.4053 13.0572 46.0202C12.8145 45.9283 12.5757 45.829 12.3405 45.722C11.3568 45.2767 10.2003 45.4835 9.43193 46.242L8.75333 46.9198C8.41512 47.2584 7.8663 47.2587 7.52765 46.9204C7.52743 46.9202 7.52722 46.92 7.527 46.9198L5.0778 44.4732C4.73948 44.1347 4.73948 43.5861 5.0778 43.2477L5.7564 42.5682C6.51528 41.7999 6.72198 40.6434 6.2764 39.6597C6.1698 39.4248 6.07013 39.1856 5.97827 38.9447C5.59412 37.9382 4.6306 37.2716 3.55333 37.2668H2.6C2.12138 37.2668 1.73333 36.8788 1.73333 36.4002V32.9335C1.73333 32.4549 2.12138 32.0668 2.6 32.0668H3.55333C4.63071 32.0628 5.59488 31.3969 5.98 30.3907C6.07187 30.148 6.17121 29.9092 6.27813 29.674C6.72371 28.6903 6.5169 27.5337 5.75813 26.7654L5.07693 26.0868C4.73828 25.7486 4.73796 25.1998 5.07628 24.8611C5.0765 24.8609 5.07672 24.8607 5.07693 24.8605L7.52613 22.4113C7.86457 22.073 8.41317 22.073 8.7516 22.4113L9.43107 23.0899C10.199 23.8494 11.356 24.0562 12.3396 23.6099C12.5745 23.5033 12.8137 23.4036 13.0546 23.3118C14.0615 22.9279 14.7285 21.9643 14.7333 20.8868V19.9335C14.7333 19.4549 15.1214 19.0668 15.6 19.0668H19.0667C19.5453 19.0668 19.9333 19.4549 19.9333 19.9335V20.8868C19.9373 21.9642 20.6033 22.9284 21.6095 23.3135C21.8521 23.4054 22.091 23.5047 22.3262 23.6116C23.3098 24.058 24.4668 23.8512 25.2347 23.0916L25.9133 22.4139C26.2531 22.0778 26.7999 22.0778 27.1397 22.4139L29.5889 24.8631C29.9272 25.2015 29.9272 25.7501 29.5889 26.0886L28.9103 26.768C28.1515 27.5363 27.9447 28.6929 28.3903 29.6766C28.4969 29.9114 28.5965 30.1506 28.6884 30.3916C29.0734 31.397 30.0367 32.0625 31.1133 32.0668H32.0667C32.5453 32.0668 32.9333 32.4549 32.9333 32.9335V36.4002Z" fill="white"/>
<path d="M25.116 34.32C25.1073 34.112 25.0926 33.9048 25.0674 33.6986C25.0397 33.4767 25.0068 33.2566 24.9608 33.0408C24.9305 32.8995 24.8906 32.76 24.8525 32.6196C24.804 32.441 24.7494 32.2651 24.6887 32.0918C24.6462 31.9713 24.602 31.8517 24.557 31.733C24.4454 31.4554 24.3178 31.1845 24.1748 30.9218C24.1635 30.9018 24.1566 30.8802 24.1453 30.8602C23.9199 30.459 23.6588 30.0786 23.3653 29.724C23.3402 29.6928 23.3116 29.6634 23.2856 29.633C23.166 29.4918 23.0429 29.3548 22.9138 29.224C22.8462 29.1538 22.7751 29.0879 22.704 29.0203C22.6174 28.9397 22.5307 28.86 22.444 28.7837C22.3388 28.6924 22.2317 28.604 22.1225 28.5185L21.9804 28.4128C20.6393 27.4083 19.0088 26.8658 17.3333 26.8666C17.2466 26.8666 17.16 26.8796 17.0733 26.8831C16.8887 26.8883 16.7032 26.8987 16.5169 26.9178C16.419 26.9282 16.3202 26.9394 16.2222 26.9533C15.9397 26.9905 15.6593 27.0429 15.3824 27.1102C11.2093 28.1885 8.70054 32.4458 9.77889 36.6189C10.4896 39.3689 12.638 41.5156 15.3885 42.224C15.4024 42.224 15.4171 42.2283 15.4318 42.2318C15.7312 42.3064 16.0344 42.3644 16.3401 42.4051C16.542 42.4303 16.744 42.4354 16.9468 42.445C17.082 42.4519 17.2068 42.4719 17.348 42.4719C17.595 42.4719 17.8516 42.4554 18.1133 42.4294C18.141 42.4294 18.1688 42.4216 18.2 42.4181C18.4106 42.3947 18.6238 42.3635 18.8413 42.3202C18.928 42.3037 19.0086 42.2821 19.0918 42.263C19.2443 42.2275 19.396 42.1902 19.552 42.1442C19.6733 42.1078 19.7912 42.0654 19.9099 42.0238C20.0286 41.9822 20.1517 41.9371 20.2748 41.8903C20.3978 41.8435 20.501 41.7898 20.6128 41.7378C20.7584 41.6711 20.9031 41.6052 21.0461 41.5272H21.0513C21.8601 41.0942 22.6072 40.5547 23.2726 39.923C23.4523 39.7553 23.6086 39.564 23.7371 39.3544C24.4135 38.27 24.8579 37.0572 25.0423 35.7924C25.0666 35.6252 25.0882 35.4579 25.1012 35.2872C25.1134 35.1303 25.122 34.9743 25.1255 34.8183C25.1255 34.7689 25.1324 34.7221 25.1324 34.6727C25.1333 34.5505 25.1212 34.4378 25.116 34.32ZM23.3887 34.8876C23.3887 34.9596 23.3826 35.0315 23.3783 35.1026C23.3627 35.3123 23.3358 35.522 23.3003 35.7326C22.9764 37.5346 21.8576 39.0946 20.2548 39.9793C20.1474 40.0356 20.0416 40.0885 19.9359 40.137L19.864 40.1717C19.3604 40.4003 18.829 40.5612 18.2832 40.6501C18.245 40.6562 18.206 40.6631 18.167 40.6683C18.0587 40.6839 17.9521 40.6969 17.8464 40.7065C17.7068 40.7186 17.5664 40.7255 17.4234 40.7281C17.3628 40.7281 17.303 40.7281 17.2423 40.7281C17.0372 40.7257 16.8325 40.7131 16.6287 40.69L16.5247 40.6778C16.2864 40.6466 16.05 40.6021 15.8166 40.5444C12.5708 39.7136 10.613 36.4088 11.4437 33.1629C11.9926 31.0181 13.6663 29.3426 15.8106 28.7915V28.7906C16.3085 28.6651 16.8198 28.6009 17.3333 28.6C17.5811 28.6014 17.8286 28.6182 18.0743 28.6502C18.1402 28.658 18.2052 28.6702 18.2702 28.6797C18.4574 28.7092 18.6428 28.7464 18.8257 28.7932C18.8855 28.8088 18.9453 28.8227 19.0042 28.8392C19.4651 28.9722 19.9087 29.159 20.3259 29.3956C20.3926 29.4346 20.4576 29.4753 20.5235 29.516C20.6604 29.6027 20.793 29.6894 20.9239 29.7882C20.9941 29.8393 21.0652 29.8896 21.1328 29.9442C21.3029 30.08 21.4657 30.2246 21.6207 30.3775C21.6822 30.4399 21.7386 30.5084 21.7984 30.5734C21.898 30.6817 21.9951 30.7926 22.0878 30.9096C22.152 30.9902 22.2135 31.0734 22.2742 31.1575C22.3608 31.2823 22.4475 31.4123 22.5255 31.544C22.5688 31.616 22.6122 31.6862 22.6564 31.7598C22.7682 31.9656 22.8677 32.1777 22.9545 32.3951C22.9892 32.4818 23.0186 32.5684 23.0498 32.6551C23.1062 32.8146 23.1547 32.9758 23.1972 33.1387C23.2188 33.2254 23.2431 33.3025 23.2613 33.3866C23.3119 33.6208 23.3486 33.8578 23.3714 34.0964C23.3766 34.1596 23.3766 34.2238 23.3809 34.287C23.393 34.4864 23.3965 34.6866 23.3887 34.8876Z" fill="white"/>
<path d="M49.3998 18.2H46.6741C46.3107 18.2037 45.9856 17.9748 45.8664 17.6315C45.5976 16.8264 45.2724 16.0412 44.8932 15.2819C44.7322 14.954 44.7992 14.5598 45.0596 14.3035L46.9922 12.3682C48.0066 11.353 48.0066 9.70786 46.9922 8.69267L43.3072 5.01367C42.292 3.99923 40.6468 3.99923 39.6316 5.01367L37.6998 6.9446C37.4438 7.20482 37.0501 7.2722 36.7222 7.11187C35.9628 6.73064 35.1774 6.40369 34.3718 6.1334C34.0271 6.01542 33.7966 5.68999 33.7998 5.32567V2.6C33.7998 1.16404 32.6358 0 31.1998 0H25.9998C24.5639 0 23.3998 1.16404 23.3998 2.6V5.32567C23.4035 5.68912 23.1747 6.01423 22.8313 6.1334C22.0262 6.40358 21.241 6.73032 20.4818 7.111C20.1538 7.27252 19.7594 7.20547 19.5033 6.9446L17.568 5.01193C16.5516 4.00042 14.9089 4.00042 13.8925 5.01193L10.2144 8.69007C9.19938 9.70537 9.19938 11.3512 10.2144 12.3665L13.0562 15.2135C13.3999 15.5465 13.9486 15.5378 14.2816 15.194C14.6065 14.8586 14.6073 14.326 14.2834 13.9897L11.4398 11.1436C11.1015 10.8052 11.1015 10.2566 11.4398 9.91813L15.118 6.24C15.4564 5.90167 16.005 5.90167 16.3434 6.24L18.2796 8.17267C19.0629 8.96068 20.2632 9.15763 21.2574 8.66147C21.9439 8.31773 22.6537 8.02262 23.3816 7.77833C24.4322 7.42267 25.1377 6.43489 25.1332 5.32567V2.6C25.1332 2.12138 25.5212 1.73333 25.9998 1.73333H31.1998C31.6784 1.73333 32.0665 2.12138 32.0665 2.6V5.32567C32.062 6.43467 32.7675 7.42213 33.818 7.77747C34.5462 8.02187 35.2564 8.31718 35.9431 8.66147C36.9375 9.15503 38.1362 8.95787 38.9201 8.1718L40.8562 6.24C41.1946 5.90167 41.7433 5.90167 42.0817 6.24L45.7598 9.919C46.0976 10.2573 46.0976 10.8053 45.7598 11.1436L43.8272 13.0797C43.0399 13.8635 42.8431 15.0633 43.3384 16.0576C43.6821 16.7441 43.9772 17.4539 44.2215 18.1818C44.5769 19.2326 45.5648 19.9381 46.6741 19.9333H49.3998C49.8784 19.9333 50.2665 20.3214 50.2665 20.8V26C50.2665 26.4786 49.8784 26.8667 49.3998 26.8667H46.6741C45.5651 26.8622 44.5777 27.5677 44.2224 28.6182C43.9781 29.3464 43.6826 30.0565 43.3384 30.7433C42.8439 31.7375 43.0412 32.9367 43.828 33.7203L45.7607 35.6564C46.099 35.9948 46.099 36.5434 45.7607 36.8819L42.0808 40.56C41.7425 40.8978 41.1945 40.8978 40.8562 40.56L38.0084 37.7182C37.6753 37.3743 37.1266 37.3657 36.7829 37.6987C36.439 38.0317 36.4304 38.5804 36.7634 38.9242C36.7703 38.9313 36.7775 38.9385 36.7846 38.9454L39.6316 41.7872C40.6468 42.8016 42.292 42.8016 43.3072 41.7872L46.9853 38.1099C48.0003 37.0946 48.0003 35.4488 46.9853 34.4335L45.0552 32.5C44.7952 32.2439 44.7279 31.8503 44.888 31.5224C45.2692 30.763 45.5961 29.9776 45.8664 29.172C45.9844 28.8273 46.3098 28.5967 46.6741 28.6H49.3998C50.8358 28.6 51.9998 27.436 51.9998 26V20.8C51.9998 19.364 50.8358 18.2 49.3998 18.2Z" fill="white"/>
<path d="M36.5662 15.4336C32.1637 11.0404 25.0358 11.0404 20.6334 15.4336C20.3009 15.7779 20.3104 16.3266 20.6547 16.6591C20.9906 16.9834 21.523 16.9834 21.8588 16.6591C25.5568 12.9112 31.5928 12.8708 35.3407 16.5687C39.0886 20.2667 39.129 26.3027 35.4311 30.0506C35.4012 30.0809 35.3711 30.111 35.3407 30.1409C34.9964 30.4735 34.9869 31.0221 35.3195 31.3664C35.6521 31.7107 36.2007 31.7202 36.545 31.3876C36.5521 31.3807 36.5593 31.3736 36.5662 31.3664C40.9594 26.964 40.9594 19.8361 36.5662 15.4336Z" fill="white"/>
</g>
<defs>
<clipPath id="clip0_437_1383">
<rect width="52" height="52" fill="white"/>
</clipPath>
</defs>
</svg>
