<svg width="20" height="21" viewBox="0 0 20 21" fill="none" xmlns="http://www.w3.org/2000/svg">
<g clip-path="url(#clip0)">
<path d="M17.0676 2.97807C13.1616 -0.927944 6.8395 -0.92853 2.93294 2.97807C-0.208072 6.11904 -0.801614 10.7894 1.05536 14.5088L0.0258584 19.0373C-0.107956 19.6258 0.41956 20.1536 1.00837 20.0198L5.53682 18.9903C12.1211 22.2776 19.9951 17.5183 19.9951 10.0454C19.9951 7.37579 18.9554 4.86589 17.0676 2.97807ZM12.0852 12.5343H5.83036C5.37697 12.5343 5.00942 12.1667 5.00942 11.7133C5.00942 11.26 5.37697 10.8924 5.83036 10.8924H12.0852C12.5386 10.8924 12.9061 11.26 12.9061 11.7133C12.9061 12.1667 12.5386 12.5343 12.0852 12.5343ZM14.1701 9.1984H5.83036C5.37697 9.1984 5.00942 8.83086 5.00942 8.37746C5.00942 7.92406 5.37697 7.55652 5.83036 7.55652H14.1701C14.6235 7.55652 14.9911 7.92406 14.9911 8.37746C14.9911 8.83086 14.6235 9.1984 14.1701 9.1984Z" fill="#009944"/>
</g>
<defs>
<clipPath id="clip0">
<rect width="20" height="20" fill="white" transform="translate(0 0.0483398)"/>
</clipPath>
</defs>
</svg>
