<svg width="18" height="18" viewBox="0 0 18 18" fill="none" xmlns="http://www.w3.org/2000/svg">
<path d="M8.40345 13.5341C8.4818 13.6125 8.57482 13.6746 8.67719 13.717C8.77956 13.7594 8.88928 13.7812 9.00009 13.7812C9.11089 13.7812 9.22061 13.7594 9.32299 13.717C9.42536 13.6746 9.51837 13.6125 9.59672 13.5341L12.7787 10.3521C12.9369 10.1939 13.0258 9.9793 13.0258 9.75553C13.0258 9.53175 12.9369 9.31714 12.7787 9.15891C12.6204 9.00067 12.4058 8.91178 12.1821 8.91178C11.9583 8.91178 11.7437 9.00067 11.5854 9.15891L9.84384 10.9005V1.6875C9.84384 1.46372 9.75494 1.24911 9.59671 1.09088C9.43847 0.932645 9.22386 0.84375 9.00009 0.84375C8.77631 0.84375 8.5617 0.932645 8.40346 1.09088C8.24523 1.24911 8.15634 1.46372 8.15634 1.6875V10.9005L6.41473 9.15891C6.2565 9.00067 6.04189 8.91178 5.81811 8.91178C5.59434 8.91178 5.37973 9.00067 5.22149 9.15891C5.06326 9.31714 4.97437 9.53175 4.97437 9.75553C4.97437 9.9793 5.06326 10.1939 5.22149 10.3521L8.40345 13.5341Z" fill="white"/>
<path d="M16.3125 8.15625C16.0887 8.15625 15.8741 8.24514 15.7159 8.40338C15.5576 8.56161 15.4688 8.77622 15.4688 9V15.4688H2.53125V9C2.53125 8.77622 2.44236 8.56161 2.28412 8.40338C2.12589 8.24514 1.91128 8.15625 1.6875 8.15625C1.46372 8.15625 1.24911 8.24514 1.09088 8.40338C0.932645 8.56161 0.84375 8.77622 0.84375 9V15.75C0.84375 16.123 0.991908 16.4806 1.25563 16.7444C1.51935 17.0081 1.87704 17.1562 2.25 17.1562H15.75C16.123 17.1562 16.4806 17.0081 16.7444 16.7444C17.0081 16.4806 17.1562 16.123 17.1562 15.75V9C17.1562 8.77622 17.0674 8.56161 16.9091 8.40338C16.7509 8.24514 16.5363 8.15625 16.3125 8.15625Z" fill="white"/>
</svg>
