<svg width="97" height="97" viewBox="0 0 97 97" fill="none" xmlns="http://www.w3.org/2000/svg">
<circle cx="48.5" cy="48.5" r="48.5" fill="#7DB015"/>
<path d="M71.2263 65.8568H69.6932V64.3237H68.1601V65.8568H66.627V64.3237H65.0939V65.8568H53.6863C52.8681 65.8527 52.1191 66.3146 51.7561 67.0474C51.6524 67.2582 51.4368 67.3914 51.2018 67.3899H46.7874C46.5519 67.3914 46.3367 67.2582 46.233 67.0474C45.8704 66.3157 45.1233 65.8538 44.3066 65.8568H32.8989V52.059H31.3658V65.8568H29.8327V52.059H28.2996V65.8568H26.7665C26.3432 65.8568 26 66.2001 26 66.6234V68.923C26 70.6163 27.3729 71.9892 29.0662 71.9892H68.9267C70.62 71.9892 71.9929 70.6163 71.9929 68.923V66.6234C71.9929 66.2001 71.6496 65.8568 71.2263 65.8568ZM70.4598 68.923C70.4598 69.7697 69.7733 70.4561 68.9267 70.4561H29.0662C28.2195 70.4561 27.5331 69.7697 27.5331 68.923V67.3899H44.3066C44.542 67.3884 44.7572 67.5217 44.8609 67.7324C45.2236 68.4641 45.9707 68.926 46.7874 68.923H51.2055C52.0237 68.9275 52.7727 68.4653 53.1357 67.7324C53.239 67.5228 53.4524 67.3899 53.6863 67.3899H70.4598V68.923Z" fill="white"/>
<path d="M45.9302 38.2612V36.7281H32.1323C30.0164 36.7307 28.3022 38.445 28.2996 40.5608V41.3274H29.8327V40.5608C29.8327 39.2909 30.8623 38.2612 32.1323 38.2612H45.9302Z" fill="white"/>
<path d="M31.3661 41.3274H47.4636V39.7943H32.8992C32.0525 39.7943 31.3661 40.4808 31.3661 41.3274Z" fill="white"/>
<path d="M69.4922 35.6449L70.4122 32.7453C70.4777 32.5398 70.4537 32.316 70.3463 32.1292C70.2385 31.9424 70.057 31.8096 69.8466 31.7632L66.8729 31.113L66.2261 28.1427C66.1805 27.9323 66.0487 27.7504 65.8623 27.6422C65.6759 27.5337 65.4528 27.5086 65.2473 27.5734L62.3473 28.493L60.2944 26.2465C60.1458 26.0934 59.9414 26.0073 59.728 26.0073C59.5147 26.0073 59.3103 26.0934 59.1617 26.2465L57.1118 28.4971L54.2088 27.5734C54.0033 27.5075 53.7798 27.5318 53.5927 27.6396C53.4059 27.7474 53.273 27.9289 53.227 28.1397L52.5768 31.113L49.6095 31.7632C49.3987 31.8092 49.2172 31.9421 49.1094 32.1288C49.0016 32.316 48.9777 32.5394 49.0432 32.7453L49.9632 35.6449L47.7126 37.6949C47.5531 37.8401 47.4622 38.0456 47.4622 38.2612C47.4622 38.4768 47.5531 38.6823 47.7126 38.8275L49.9632 40.8775L49.0432 43.7771C48.9777 43.983 49.0016 44.2065 49.1094 44.3936C49.2172 44.5804 49.3987 44.7132 49.6095 44.7593L52.5832 45.4094L53.233 48.3828C53.279 48.5935 53.4119 48.775 53.599 48.8828C53.7858 48.9906 54.0096 49.015 54.2151 48.9491L57.1147 48.0253L59.1647 50.2759C59.31 50.4354 59.5155 50.5264 59.731 50.5264C59.9466 50.5264 60.1525 50.4354 60.2977 50.2759L62.3473 48.0253L65.2473 48.9491C65.4528 49.015 65.6763 48.9906 65.8634 48.8828C66.0502 48.775 66.1831 48.5935 66.2291 48.3828L66.8793 45.4094L69.8526 44.7593C70.0633 44.7132 70.2449 44.5804 70.3527 44.3936C70.4605 44.2065 70.4848 43.983 70.4189 43.7771L69.4993 40.8775L71.7499 38.8275C71.909 38.6823 71.9999 38.4768 71.9999 38.2612C71.9999 38.0456 71.909 37.8401 71.7499 37.6949L69.4922 35.6449ZM68.0964 40.075C67.8752 40.2768 67.7914 40.5889 67.8827 40.8745L68.6968 43.4414L66.0652 44.0171C65.7732 44.0814 65.5453 44.3094 65.4809 44.6013L64.9082 47.23L62.3413 46.4125C62.0558 46.3227 61.744 46.4062 61.5419 46.6266L59.728 48.6212L57.9142 46.6281C57.769 46.4687 57.5635 46.3781 57.3479 46.3781C57.2697 46.3785 57.1922 46.3904 57.1181 46.4144L54.5479 47.23L53.9722 44.5983C53.9078 44.3064 53.6799 44.0784 53.3879 44.0141L50.7593 43.4414L51.5767 40.8745C51.6677 40.5889 51.5842 40.2768 51.3626 40.075L49.368 38.2612L51.3611 36.4474C51.5827 36.2457 51.6662 35.9335 51.5749 35.6479L50.7593 33.081L53.3909 32.5054C53.6829 32.441 53.9108 32.2131 53.9752 31.9211L54.5479 29.2925L57.1147 30.1099C57.4003 30.2009 57.7125 30.1174 57.9142 29.8958L59.728 27.9012L61.5419 29.8943C61.7436 30.1159 62.0558 30.1994 62.3413 30.1081L64.9082 29.2925L65.4839 31.9241C65.5483 32.2161 65.7762 32.444 66.0682 32.5084L68.6998 33.084L67.8827 35.6513C67.7914 35.9365 67.8752 36.2487 68.0964 36.4508L70.088 38.2612L68.0964 40.075Z" fill="white"/>
<path d="M55.3532 41.5521L63.0184 33.8866L64.1027 34.9705L56.4372 42.636L55.3532 41.5521Z" fill="white"/>
<path d="M58.1951 35.9616C58.1951 34.6917 57.1654 33.662 55.8955 33.662C54.6255 33.662 53.5958 34.6917 53.5958 35.9616C53.5958 37.2316 54.6255 38.2613 55.8955 38.2613C57.1654 38.2613 58.1951 37.2316 58.1951 35.9616ZM55.1289 35.9616C55.1289 35.5383 55.4721 35.1951 55.8955 35.1951C56.3188 35.1951 56.662 35.5383 56.662 35.9616C56.662 36.385 56.3188 36.7282 55.8955 36.7282C55.4721 36.7282 55.1289 36.385 55.1289 35.9616Z" fill="white"/>
<path d="M63.5611 38.2612C62.2911 38.2612 61.2614 39.2909 61.2614 40.5609C61.2614 41.8309 62.2911 42.8605 63.5611 42.8605C64.831 42.8605 65.8607 41.8309 65.8607 40.5609C65.8607 39.2909 64.831 38.2612 63.5611 38.2612ZM63.5611 41.3274C63.1377 41.3274 62.7945 40.9842 62.7945 40.5609C62.7945 40.1376 63.1377 39.7943 63.5611 39.7943C63.9844 39.7943 64.3276 40.1376 64.3276 40.5609C64.3276 40.9842 63.9844 41.3274 63.5611 41.3274Z" fill="white"/>
<path d="M45.9024 46.5147C45.6461 46.4533 45.3758 46.5293 45.189 46.7153L37.7073 54.1196L35.8883 55.202C34.6808 55.9042 34.1359 57.3602 34.5854 58.6829C34.9372 59.7553 35.8774 60.5274 36.9977 60.6652L38.5944 63.896C38.7239 64.1584 38.9915 64.3242 39.2842 64.3231H42.2999C42.5585 64.3235 42.7999 64.1932 42.9418 63.9769C43.0837 63.7606 43.1069 63.4869 43.0036 63.25L41.4166 59.5865L49.7498 59.7246H49.7629C50.0107 59.7246 50.2431 59.6048 50.3868 59.4031C50.5306 59.2013 50.568 58.9423 50.4871 58.708L46.453 47.0107C46.3669 46.7618 46.1592 46.5746 45.9024 46.5147ZM36.0418 58.1915C35.8262 57.5544 36.0893 56.8541 36.6709 56.5165L37.8683 55.8061L39.209 58.4576L38.0738 59.0194C37.6931 59.2084 37.2488 59.2226 36.8566 59.0591C36.4711 58.903 36.1731 58.586 36.0418 58.1915ZM39.7611 62.7908L38.6019 60.4496C38.6502 60.4282 38.7022 60.42 38.7505 60.3961L39.8562 59.8488L41.1299 62.7908H39.7611ZM40.7178 58.0451L39.1203 54.8824L45.4058 48.6624L48.6861 58.1739L40.7178 58.0451Z" fill="white"/>
<path d="M49.8858 52.2545L52.4209 51.3735L52.9235 52.8208L50.3888 53.7019L49.8858 52.2545Z" fill="white"/>
<path d="M47.8938 47.1585L49.5845 45.3963L50.6909 46.4578L48.9998 48.2199L47.8938 47.1585Z" fill="white"/>
<path d="M52.0628 57.425H54.3625V58.9581H52.0628V57.425Z" fill="white"/>
<path d="M71.2264 52.0591H69.6933V46.6932H68.1602V52.0591H66.6271V50.526H65.094V52.0591H56.662C56.2387 52.0591 55.8954 52.4023 55.8954 52.8256V62.0242C55.8954 62.4475 56.2387 62.7907 56.662 62.7907H71.2264C71.6497 62.7907 71.9929 62.4475 71.9929 62.0242V52.8256C71.9929 52.4023 71.6497 52.0591 71.2264 52.0591ZM70.4598 61.2576H57.4285V53.5922H70.4598V61.2576Z" fill="white"/>
<path d="M58.9614 55.1253H62.0276V56.6584H58.9614V55.1253Z" fill="white"/>
<path d="M63.5609 55.1253H68.9268V56.6584H63.5609V55.1253Z" fill="white"/>
<path d="M58.9614 58.1915H68.9266V59.7247H58.9614V58.1915Z" fill="white"/>
<path d="M26.7665 50.526H38.2648C38.6881 50.526 39.0313 50.1827 39.0313 49.7594V43.627C39.0313 43.2037 38.6881 42.8605 38.2648 42.8605H26.7665C26.3432 42.8605 26 43.2037 26 43.627V49.7594C26 50.1827 26.3432 50.526 26.7665 50.526ZM27.5331 44.3936H37.4982V48.9929H27.5331V44.3936Z" fill="white"/>
<path d="M29.066 45.9266H30.5991V47.4597H29.066V45.9266Z" fill="white"/>
<path d="M32.1326 45.9266H35.9653V47.4597H32.1326V45.9266Z" fill="white"/>
</svg>
