<svg width="60" height="62" viewBox="0 0 60 62" fill="none" xmlns="http://www.w3.org/2000/svg">
<rect x="0.5" y="0.5" width="59" height="61" rx="29.5" fill="#009944" stroke="#009944"/>
<path d="M28.3214 23.0991H32.6771V23.9703H28.3214V23.0991Z" fill="white"/>
<path d="M27.4501 24.8413H33.5481V25.7125H27.4501V24.8413Z" fill="white"/>
<path d="M23.9657 30.9395H37.0329V31.8106H23.9657V30.9395Z" fill="white"/>
<path d="M23.9657 32.6814H37.0329V33.5525H23.9657V32.6814Z" fill="white"/>
<path d="M23.9657 29.1968H37.0329V30.0679H23.9657V29.1968Z" fill="white"/>
<path d="M23.9657 27.4548H37.0329V28.326H23.9657V27.4548Z" fill="white"/>
<path d="M43.2179 30.2996C43.172 30.2144 43.099 30.147 43.0105 30.108C42.922 30.0689 42.823 30.0604 42.7292 30.0838C42.6353 30.1072 42.5519 30.1612 42.4922 30.2373C42.4324 30.3133 42.3996 30.4071 42.399 30.5038V30.9394C42.3947 31.879 42.1366 32.8 41.6521 33.6051C41.1675 34.4101 40.4745 35.0693 39.6462 35.5129V21.7924C39.6462 21.6769 39.6003 21.5661 39.5186 21.4844L36.034 17.9998C35.9523 17.9181 35.8416 17.8722 35.7261 17.8722H25.1016L24.2583 17.113C24.1957 17.0563 24.1181 17.0189 24.0347 17.0055C23.9513 16.9921 23.8659 17.0032 23.7887 17.0375C23.7115 17.0718 23.646 17.1278 23.6001 17.1987C23.5541 17.2695 23.5298 17.3522 23.53 17.4366V17.8722H21.7877C21.6722 17.8722 21.5614 17.9181 21.4797 17.9998C21.398 18.0815 21.3521 18.1923 21.3521 18.3078V19.6167C19.9312 20.1498 18.7333 21.1496 17.9547 22.4523C17.3612 23.4289 17.0329 24.5435 17.0023 25.6859C16.9718 26.8283 17.24 27.9589 17.7804 28.9658C17.8264 29.051 17.8993 29.1184 17.9878 29.1574C18.0763 29.1965 18.1753 29.205 18.2692 29.1816C18.363 29.1582 18.4464 29.1042 18.5062 29.0281C18.566 28.9521 18.5987 28.8583 18.5993 28.7616V28.326C18.6036 27.3864 18.8617 26.4654 19.3463 25.6603C19.8308 24.8553 20.5239 24.1961 21.3521 23.7525V43.5711C21.3521 43.6866 21.398 43.7974 21.4797 43.8791C21.5614 43.9607 21.6722 44.0066 21.7877 44.0066H39.2106C39.3262 44.0066 39.437 43.9607 39.5186 43.8791C39.6003 43.7974 39.6462 43.6866 39.6462 43.5711V39.6509C41.068 39.1182 42.2666 38.1184 43.0459 36.8153C43.6394 35.8383 43.9675 34.7231 43.9977 33.5803C44.0279 32.4375 43.7591 31.3066 43.2179 30.2996ZM36.1616 19.3593L38.1592 21.3568H36.1616V19.3593ZM22.2233 18.7434H23.53V19.1833C23.09 19.1983 22.6525 19.2552 22.2233 19.3532V18.7434ZM17.9399 26.7414C17.7321 25.4117 18.001 24.0515 18.6991 22.9009C19.224 22.0251 19.9683 21.3014 20.8586 20.8015C21.7489 20.3015 22.7542 20.0425 23.7752 20.0501H23.9656C24.0811 20.0501 24.1919 20.0042 24.2736 19.9225C24.3553 19.8408 24.4011 19.73 24.4011 19.6145V18.4145L27.6483 21.3372L24.4011 23.9354V22.6635C24.4011 22.548 24.3553 22.4372 24.2736 22.3555C24.1919 22.2738 24.0811 22.228 23.9656 22.228H23.9063C22.555 22.2238 21.2395 22.663 20.1618 23.4783C19.0841 24.2935 18.3035 25.4398 17.9399 26.7414ZM38.7751 43.1355H22.2233V23.3739C22.6461 23.2323 23.0852 23.1445 23.53 23.1126V24.8414C23.53 24.9235 23.5531 25.0039 23.5968 25.0734C23.6405 25.1429 23.7029 25.1986 23.7769 25.2341C23.8509 25.2697 23.9334 25.2836 24.0149 25.2743C24.0965 25.265 24.1737 25.2329 24.2378 25.1816L28.5935 21.697C28.6429 21.6575 28.683 21.6078 28.7112 21.5512C28.7394 21.4947 28.7549 21.4327 28.7567 21.3695C28.7586 21.3064 28.7466 21.2436 28.7217 21.1855C28.6969 21.1274 28.6597 21.0754 28.6127 21.0332L26.0694 18.7434H35.2905V21.7924C35.2905 21.9079 35.3364 22.0187 35.4181 22.1004C35.4997 22.1821 35.6105 22.228 35.7261 22.228H38.7751V35.8915C38.3522 36.0331 37.9132 36.1209 37.4684 36.1528V34.424C37.4684 34.3419 37.4452 34.2615 37.4015 34.192C37.3579 34.1225 37.2954 34.0668 37.2215 34.0313C37.1475 33.9957 37.065 33.9818 36.9834 33.9911C36.9019 34.0004 36.8246 34.0325 36.7605 34.0838L32.4048 37.5684C32.3555 37.6079 32.3153 37.6576 32.2872 37.7142C32.259 37.7707 32.2434 37.8327 32.2416 37.8959C32.2398 37.959 32.2517 38.0218 32.2766 38.0799C32.3015 38.138 32.3387 38.19 32.3856 38.2322L36.7414 42.1524C36.804 42.2087 36.8815 42.2457 36.9647 42.2589C37.0478 42.272 37.133 42.2608 37.2099 42.2266C37.2868 42.1923 37.3522 42.1365 37.398 42.0659C37.4439 41.9953 37.4683 41.913 37.4684 41.8288V40.0821C37.9083 40.0669 38.3459 40.0099 38.7751 39.9118V43.1355ZM42.2993 36.3645C41.7744 37.2403 41.03 37.964 40.1398 38.4639C39.2495 38.9639 38.2442 39.2229 37.2231 39.2153H37.0328C36.9173 39.2153 36.8065 39.2612 36.7248 39.3429C36.6431 39.4246 36.5972 39.5354 36.5972 39.6509V40.8509L33.35 37.9282L36.5972 35.33V36.6019C36.5972 36.7174 36.6431 36.8282 36.7248 36.9099C36.8065 36.9916 36.9173 37.0375 37.0328 37.0375H37.092C38.4435 37.0418 39.7592 36.6027 40.8371 35.7874C41.915 34.9721 42.6957 33.8257 43.0594 32.524C43.2668 33.8538 42.9976 35.214 42.2993 36.3645Z" fill="white"/>
</svg>
