<svg width="106" height="106" viewBox="0 0 106 106" fill="none" xmlns="http://www.w3.org/2000/svg">
<g clip-path="url(#clip0)">
<path d="M77.2918 106C61.4625 106 48.5835 93.1207 48.5835 77.2914C48.5835 61.4621 61.4625 48.5831 77.2918 48.5831C93.1211 48.5831 106 61.4621 106 77.2914C106 93.1207 93.1211 106 77.2918 106ZM77.2918 55.2081C65.115 55.2081 55.2085 65.1146 55.2085 77.2914C55.2085 89.4681 65.115 99.3747 77.2918 99.3747C89.4686 99.3747 99.3751 89.4681 99.3751 77.2914C99.3751 65.1146 89.4686 55.2081 77.2918 55.2081Z" fill="#009944"/>
<path d="M77.2915 92.7497C75.463 92.7497 73.979 91.2657 73.979 89.4372V65.1456C73.979 63.3171 75.463 61.8331 77.2915 61.8331C79.12 61.8331 80.604 63.3171 80.604 65.1456V89.4372C80.604 91.2657 79.12 92.7497 77.2915 92.7497Z" fill="#009944"/>
<path d="M89.4376 80.6044H65.146C63.3175 80.6044 61.8335 79.1204 61.8335 77.2919C61.8335 75.4634 63.3175 73.9794 65.146 73.9794H89.4376C91.2661 73.9794 92.7501 75.4634 92.7501 77.2919C92.7501 79.1204 91.2661 80.6044 89.4376 80.6044Z" fill="#009944"/>
<path d="M40.5892 92.75H12.1458C5.44575 92.75 0 87.3042 0 80.6042V12.1458C0 5.44575 5.44575 0 12.1458 0H62.9375C69.6376 0 75.0833 5.44575 75.0833 12.1458V39.0433C75.0833 40.8718 73.5993 42.3558 71.7708 42.3558C69.9423 42.3558 68.4583 40.8718 68.4583 39.0433V12.1458C68.4583 9.10275 65.9806 6.625 62.9375 6.625H12.1458C9.10275 6.625 6.625 9.10275 6.625 12.1458V80.6042C6.625 83.6472 9.10275 86.125 12.1458 86.125H40.5892C42.4177 86.125 43.9017 87.609 43.9017 89.4375C43.9017 91.266 42.4177 92.75 40.5892 92.75Z" fill="#009944"/>
<path d="M58.5208 41.9581H16.5625C14.734 41.9581 13.25 40.4741 13.25 38.6456C13.25 36.8171 14.734 35.3331 16.5625 35.3331H58.5208C60.3493 35.3331 61.8333 36.8171 61.8333 38.6456C61.8333 40.4741 60.3493 41.9581 58.5208 41.9581Z" fill="#009944"/>
<path d="M40.8542 59.625H16.5625C14.734 59.625 13.25 58.141 13.25 56.3125C13.25 54.484 14.734 53 16.5625 53H40.8542C42.6827 53 44.1667 54.484 44.1667 56.3125C44.1667 58.141 42.6827 59.625 40.8542 59.625Z" fill="#009944"/>
<path d="M36.4375 24.2919H16.5625C14.734 24.2919 13.25 22.8079 13.25 20.9794C13.25 19.1509 14.734 17.6669 16.5625 17.6669H36.4375C38.266 17.6669 39.75 19.1509 39.75 20.9794C39.75 22.8079 38.266 24.2919 36.4375 24.2919Z" fill="#009944"/>
</g>
<defs>
<clipPath id="clip0">
<rect width="106" height="106" fill="white"/>
</clipPath>
</defs>
</svg>
