<svg width="50" height="50" viewBox="0 0 50 50" fill="none" xmlns="http://www.w3.org/2000/svg">
<path d="M23.5001 7.99653C23.0804 7.99653 22.7401 8.33677 22.7401 8.75649C22.7401 9.17632 23.0804 9.51646 23.5001 9.51646H26.9229C27.6577 9.51646 28.2556 8.9186 28.2556 8.18384V5.55024C28.2556 4.81538 27.6577 4.21753 26.9229 4.21753H11.2043C10.4694 4.21753 9.87158 4.81538 9.87158 5.55024V8.18394C9.87158 8.9187 10.4694 9.51655 11.2043 9.51655H19.928C20.3478 9.51655 20.688 9.17632 20.688 8.75659C20.688 8.33677 20.3478 7.99663 19.928 7.99663H11.3916V5.73755H26.7356V7.99644H23.5001V7.99653Z" fill="white"/>
<path d="M6.47485 13.4183C6.47485 13.8381 6.81509 14.1782 7.23481 14.1782H31.0534C31.4732 14.1782 31.8133 13.838 31.8133 13.4183C31.8133 12.9985 31.4731 12.6583 31.0534 12.6583H7.23481C6.81509 12.6582 6.47485 12.9985 6.47485 13.4183Z" fill="white"/>
<path d="M7.23481 18.9601H31.0534C31.4732 18.9601 31.8133 18.6199 31.8133 18.2001C31.8133 17.7803 31.4731 17.4402 31.0534 17.4402H7.23481C6.81509 17.4402 6.47485 17.7804 6.47485 18.2001C6.47485 18.62 6.81509 18.9601 7.23481 18.9601Z" fill="white"/>
<path d="M26.3552 22.9821C26.3552 22.5623 26.015 22.2222 25.5953 22.2222H7.23481C6.81509 22.2222 6.47485 22.5624 6.47485 22.9821C6.47485 23.4019 6.81509 23.7421 7.23481 23.7421H25.5952C26.0149 23.7421 26.3552 23.4019 26.3552 22.9821Z" fill="white"/>
<path d="M16.7277 28.524C17.1474 28.524 17.4876 28.1837 17.4876 27.764C17.4876 27.3442 17.1474 27.004 16.7277 27.004H7.23481C6.81509 27.004 6.47485 27.3443 6.47485 27.764C6.47485 28.1838 6.81509 28.524 7.23481 28.524H16.7277Z" fill="white"/>
<path d="M6.3186 43.3017C6.72251 43.4174 7.14272 43.1827 7.25776 42.779C7.26264 42.7621 7.76118 41.0903 9.702 41.0903C10.66 41.0903 11.1147 41.4667 11.7441 41.9877C12.4672 42.5863 13.3673 43.3312 15.1064 43.3312C17.2748 43.3312 18.4405 41.0386 18.4891 40.941C18.6756 40.5663 18.5232 40.1125 18.1492 39.9247C17.7751 39.7368 17.3189 39.8881 17.1295 40.2613C17.1216 40.2769 16.3294 41.8112 15.1064 41.8112C13.9148 41.8112 13.3845 41.3724 12.7132 40.8167C12.0074 40.2324 11.2075 39.5703 9.7019 39.5703C7.24136 39.5703 6.07095 41.3968 5.79585 42.3625C5.68091 42.7662 5.91499 43.1867 6.3186 43.3017Z" fill="white"/>
<path d="M49.6003 7.80352C49.5251 7.61592 49.3784 7.46611 49.1924 7.38691L47.4265 6.63555C47.5746 6.26113 47.3884 5.8167 47.0218 5.6583L46.6698 5.50625L47.2411 4.1832C47.8864 2.68584 47.1726 0.890918 45.6768 0.244727C44.1821 -0.400977 42.3855 0.312988 41.7396 1.80723L41.1509 3.17002C40.4775 3.05264 39.7963 3.42266 39.526 4.04863L37.9429 7.71455V3.82393C37.9429 1.71533 36.2275 0 34.119 0H4.16831C2.0604 0 0.345459 1.71494 0.345459 3.82285V46.1771C0.345459 48.2851 2.0604 50 4.16831 50H34.1201C36.228 50 37.9428 48.2851 37.9428 46.1771V35.5367C37.9428 35.1169 37.6026 34.7768 37.1829 34.7768C36.7631 34.7768 36.4229 35.117 36.4229 35.5367V46.1771C36.4229 47.447 35.3899 48.48 34.1202 48.48H4.16831C2.89849 48.48 1.86548 47.447 1.86548 46.1771V3.82285C1.86548 2.55303 2.89858 1.52002 4.16831 1.52002H34.119C35.3893 1.52002 36.4229 2.55352 36.4229 3.82393V11.2343L24.7739 38.214C24.7333 38.3079 24.7108 38.4133 24.711 38.5157L24.7199 44.9177C24.721 46.3462 26.4875 47.1154 27.5331 46.1323L32.198 41.7488C32.2624 41.689 32.3164 41.6144 32.3558 41.5359C32.3599 41.5278 32.364 41.5198 32.3678 41.5115C32.3703 41.5063 32.3731 41.5014 32.3753 41.4961L46.8249 8.03144L47.8953 8.48682L42.2425 21.6315C42.0767 22.0171 42.2548 22.4642 42.6405 22.63C42.7383 22.6722 42.8402 22.692 42.9403 22.692C43.2348 22.692 43.5151 22.5197 43.6388 22.232L49.5929 8.38652C49.6728 8.20078 49.6754 7.99102 49.6003 7.80352ZM44.5763 1.52266C45.5843 1.57441 46.2413 2.66289 45.8453 3.58096L45.2744 4.90342L42.5634 3.73311L43.1349 2.41016C43.3796 1.84395 43.9578 1.48848 44.5763 1.52266ZM40.9111 4.67539L45.7216 6.75244L39.6093 20.9082L34.798 18.8307L40.9111 4.67539ZM31.2812 40.196L26.4707 38.1187L34.1955 20.2263L39.0069 22.3038L31.2812 40.196ZM26.492 45.0247C26.3984 45.1126 26.2398 45.0452 26.2398 44.9162L26.2327 39.6716L30.3135 41.4337L26.492 45.0247Z" fill="white"/>
</svg>
