<svg width="71" height="67" viewBox="0 0 71 67" fill="none" xmlns="http://www.w3.org/2000/svg">
<path d="M4.71802 56.8133H7.07703V54.446H4.71802C3.41496 54.446 2.35901 53.3864 2.35901 52.0788V4.73444C2.35901 3.42685 3.41496 2.36722 4.71802 2.36722H56.6163C57.9193 2.36722 58.9753 3.42685 58.9753 4.73444V7.10166H61.3343V4.73444C61.3343 2.11984 59.2218 0 56.6163 0H4.71802C2.11249 0 0 2.11984 0 4.73444V52.0788C0 54.6934 2.11249 56.8133 4.71802 56.8133Z" fill="white"/>
<path d="M4.71759 4.73486H7.07661V7.10209H4.71759V4.73486Z" fill="white"/>
<path d="M9.43591 4.73486H11.7949V7.10209H9.43591V4.73486Z" fill="white"/>
<path d="M14.1545 4.73486H16.5135V7.10209H14.1545V4.73486Z" fill="white"/>
<path d="M9.43591 61.5478C9.43591 64.1624 11.5484 66.2823 14.1539 66.2823H66.0522C68.6577 66.2823 70.7702 64.1624 70.7702 61.5478V14.2034C70.7702 11.5888 68.6577 9.46899 66.0522 9.46899H14.1539C11.5484 9.46899 9.43591 11.5888 9.43591 14.2034V61.5478ZM11.7949 14.2034C11.7949 12.8958 12.8509 11.8362 14.1539 11.8362H66.0522C67.3553 11.8362 68.4112 12.8958 68.4112 14.2034V61.5478C68.4112 62.8554 67.3553 63.915 66.0522 63.915H14.1539C12.8509 63.915 11.7949 62.8554 11.7949 61.5478V14.2034Z" fill="white"/>
<path d="M14.1545 14.2036H16.5135V16.5708H14.1545V14.2036Z" fill="white"/>
<path d="M18.8718 14.2036H21.2308V16.5708H18.8718V14.2036Z" fill="white"/>
<path d="M23.5904 14.2036H25.9494V16.5708H23.5904V14.2036Z" fill="white"/>
<path d="M14.1545 18.9377H66.0527V21.305H14.1545V18.9377Z" fill="white"/>
<path d="M14.1545 24.856H23.5905V27.2232H14.1545V24.856Z" fill="white"/>
<path d="M14.1545 29.5901H21.2315V31.9573H14.1545V29.5901Z" fill="white"/>
<path d="M40.1035 34.3247C35.5433 34.3247 31.847 38.0338 31.847 42.61C31.847 47.1861 35.5433 50.8952 40.1035 50.8952C44.6638 50.8952 48.36 47.1861 48.36 42.61C48.3547 38.0365 44.6611 34.33 40.1035 34.3247ZM40.1035 48.528C36.8466 48.528 34.206 45.8782 34.206 42.61C34.206 39.3417 36.8466 36.6919 40.1035 36.6919C43.3604 36.6919 46.001 39.3417 46.001 42.61C45.9969 45.8767 43.3589 48.5238 40.1035 48.528Z" fill="white"/>
<path d="M58.975 39.0593C58.975 38.4053 58.4471 37.8757 57.7955 37.8757H54.678C54.4283 37.098 54.1169 36.3414 53.745 35.615L55.9495 33.4043C56.4095 32.9418 56.4095 32.1929 55.9495 31.7304L50.9449 26.7083C50.484 26.2467 49.7377 26.2467 49.2768 26.7083L47.0737 28.9193C46.3486 28.5476 45.5952 28.2352 44.8209 27.9842V24.856C44.8209 24.202 44.2931 23.6724 43.6414 23.6724H36.5643C35.9127 23.6724 35.3848 24.202 35.3848 24.856V27.9842C34.6105 28.2352 33.8571 28.5476 33.132 28.9193L30.929 26.7083C30.4681 26.2467 29.7217 26.2467 29.2608 26.7083L24.2562 31.7304C23.7962 32.1929 23.7962 32.9418 24.2562 33.4043L26.4595 35.615C26.361 35.8088 26.2661 36.0032 26.1764 36.1997C25.9276 36.7453 25.7111 37.3046 25.5277 37.8757H22.4103C21.7586 37.8757 21.2308 38.4053 21.2308 39.0593V46.1609C21.2308 46.8149 21.7586 47.3445 22.4103 47.3445H25.5277C25.7775 48.1222 26.0889 48.8788 26.4607 49.6052L24.2562 51.8159C23.7962 52.2784 23.7962 53.0273 24.2562 53.4898L29.2608 58.5119C29.7217 58.9735 30.4681 58.9735 30.929 58.5119L33.132 56.3009C33.8571 56.6726 34.6105 56.985 35.3848 57.2359V60.3642C35.3848 61.0182 35.9127 61.5478 36.5643 61.5478H43.6414C44.2931 61.5478 44.8209 61.0182 44.8209 60.3642V57.2359C45.5952 56.985 46.3486 56.6726 47.0737 56.3009L49.2768 58.5119C49.7377 58.9735 50.484 58.9735 50.9449 58.5119L55.9495 53.4898C56.4095 53.0273 56.4095 52.2784 55.9495 51.8159L53.745 49.6052C54.1169 48.8788 54.4283 48.1222 54.678 47.3445H57.7955C58.4471 47.3445 58.975 46.8149 58.975 46.1609V39.0593ZM56.6159 44.9773H53.7922C53.2544 44.9773 52.7849 45.3428 52.6504 45.865C52.3491 47.0398 51.8847 48.1671 51.2704 49.2123C50.9971 49.6768 51.0723 50.2686 51.4521 50.6504L53.4463 52.6527L50.1107 56.0014L48.1152 53.9988C47.7346 53.6171 47.1448 53.5419 46.6816 53.8165C45.6401 54.4329 44.5172 54.8992 43.3465 55.2013C42.826 55.3363 42.4619 55.8073 42.4619 56.3471V59.1806H37.7439V56.3471C37.7439 55.8073 37.3797 55.3363 36.8592 55.2013C35.6886 54.8992 34.5657 54.4329 33.5242 53.8165C33.0609 53.5419 32.4712 53.6171 32.0905 53.9988L30.0951 56.0014L26.7594 52.6527L28.7537 50.6504C29.1335 50.2686 29.2087 49.6768 28.9353 49.2123C28.3211 48.1671 27.8566 47.0398 27.5553 45.865C27.4208 45.3428 26.9514 44.9773 26.4135 44.9773H23.5898V40.2429H26.4135C26.9514 40.2429 27.4208 39.8774 27.5553 39.3552C27.7458 38.6101 28.0026 37.8845 28.3223 37.1859C28.5066 36.7808 28.7112 36.3858 28.9353 36.0023C29.2078 35.5374 29.1332 34.9465 28.7537 34.5651L26.7594 32.5627L30.0951 29.214L32.0905 31.2173C32.4712 31.599 33.0609 31.6736 33.5242 31.3987C34.5657 30.7829 35.6886 30.316 36.8592 30.0138C37.3797 29.8792 37.7439 29.4075 37.7439 28.8687V26.0396H42.4619V28.8731C42.4619 29.4129 42.826 29.8839 43.3465 30.0189C44.5172 30.321 45.6401 30.7873 46.6816 31.4037C47.1448 31.6783 47.7346 31.6031 48.1152 31.2214L50.1107 29.2188L53.4463 32.5675L51.4521 34.5698C51.0723 34.9516 50.9971 35.5434 51.2704 36.0079C51.8847 37.0531 52.3491 38.1804 52.6504 39.3552C52.7849 39.8774 53.2544 40.2429 53.7922 40.2429H56.6159V44.9773Z" fill="white"/>
<path d="M58.9753 59.1807H66.0524V61.5479H58.9753V59.1807Z" fill="white"/>
</svg>
