<svg width="60" height="62" viewBox="0 0 60 62" fill="none" xmlns="http://www.w3.org/2000/svg">
<rect x="0.5" y="0.5" width="59" height="61" rx="29.5" fill="#009944" stroke="#009944"/>
<g clip-path="url(#clip0_990_2171)">
<path d="M29.0833 43.9999C22.4375 43.9999 17 38.5624 17 31.9166C17 25.2708 22.4375 19.8333 29.0833 19.8333C35.7292 19.8333 41.1667 25.2708 41.1667 31.9166C41.1667 38.5624 35.7292 43.9999 29.0833 43.9999ZM29.0833 21.0416C23.0417 21.0416 18.2083 25.8749 18.2083 31.9166C18.2083 37.9583 23.0417 42.7916 29.0833 42.7916C35.125 42.7916 39.9583 37.9583 39.9583 31.9166C39.9583 25.8749 35.125 21.0416 29.0833 21.0416Z" fill="white"/>
<path d="M29.0834 39.7708C24.7334 39.7708 21.2292 36.2667 21.2292 31.9167C21.2292 27.5667 24.7334 24.0625 29.0834 24.0625C33.4334 24.0625 36.9376 27.5667 36.9376 31.9167C36.9376 36.2667 33.4334 39.7708 29.0834 39.7708ZM29.0834 25.2708C25.4584 25.2708 22.4376 28.2917 22.4376 31.9167C22.4376 35.5417 25.4584 38.5625 29.0834 38.5625C32.7084 38.5625 35.7292 35.5417 35.7292 31.9167C35.7292 28.2917 32.7084 25.2708 29.0834 25.2708Z" fill="white"/>
<path d="M29.0833 35.5417C27.0291 35.5417 25.4583 33.9709 25.4583 31.9167C25.4583 29.8626 27.0291 28.2917 29.0833 28.2917C31.1374 28.2917 32.7083 29.8626 32.7083 31.9167C32.7083 33.9709 31.1374 35.5417 29.0833 35.5417ZM29.0833 29.5001C27.7541 29.5001 26.6666 30.5876 26.6666 31.9167C26.6666 33.2459 27.7541 34.3334 29.0833 34.3334C30.4124 34.3334 31.4999 33.2459 31.4999 31.9167C31.4999 30.5876 30.4124 29.5001 29.0833 29.5001Z" fill="white"/>
<path d="M29.0833 32.5208C28.9625 32.5208 28.7208 32.5208 28.6 32.4C28.3583 32.1583 28.3583 31.7958 28.6 31.5542L37.6624 22.4917C37.9041 22.25 38.2666 22.25 38.5083 22.4917C38.7499 22.7333 38.7499 23.0958 38.5083 23.3375L29.4458 32.4C29.4458 32.5208 29.2041 32.5208 29.0833 32.5208Z" fill="white"/>
<path d="M41.1667 23.4583H38.1459C37.7834 23.4583 37.5417 23.2167 37.5417 22.8542V19.8333C37.5417 19.7125 37.6626 19.4708 37.6626 19.35L41.8918 15.1208C42.1334 15 42.3751 15 42.6168 15C42.8584 15.1208 42.9793 15.3625 42.9793 15.6042V18.0208H45.3959C45.6376 18.0208 45.8793 18.1417 46.0001 18.3833C46.0001 18.625 46.0001 18.8667 45.8793 19.1083L41.6501 23.3375C41.5292 23.3375 41.2876 23.4583 41.1667 23.4583ZM38.7501 22.25H40.9251L43.9459 19.2292H42.3751C42.0126 19.2292 41.7709 18.9875 41.7709 18.625V17.0542L38.7501 20.075V22.25Z" fill="white"/>
</g>
<defs>
<clipPath id="clip0_990_2171">
<rect width="29" height="29" fill="white" transform="translate(17 15)"/>
</clipPath>
</defs>
</svg>
