<svg width="78" height="78" viewBox="0 0 78 78" fill="none" xmlns="http://www.w3.org/2000/svg">
<circle cx="38.9993" cy="39.0007" r="34.0213" fill="#009944"/>
<circle cx="39" cy="39" r="38.5" stroke="#009944" stroke-dasharray="3 3"/>
<path d="M37.584 46.5208H27.3757C27.1823 46.5208 26.9968 46.5976 26.8601 46.7343C26.7233 46.8711 26.6465 47.0565 26.6465 47.2499C26.6465 47.4433 26.7233 47.6288 26.8601 47.7655C26.9968 47.9023 27.1823 47.9791 27.3757 47.9791H37.584C37.7774 47.9791 37.9628 47.9023 38.0996 47.7655C38.2363 47.6288 38.3132 47.4433 38.3132 47.2499C38.3132 47.0565 38.2363 46.8711 38.0996 46.7343C37.9628 46.5976 37.7774 46.5208 37.584 46.5208Z" fill="white"/>
<path d="M37.584 50.1667H27.3757C27.1823 50.1667 26.9968 50.2436 26.8601 50.3803C26.7233 50.5171 26.6465 50.7025 26.6465 50.8959C26.6465 51.0893 26.7233 51.2748 26.8601 51.4115C26.9968 51.5483 27.1823 51.6251 27.3757 51.6251H37.584C37.7774 51.6251 37.9628 51.5483 38.0996 51.4115C38.2363 51.2748 38.3132 51.0893 38.3132 50.8959C38.3132 50.7025 38.2363 50.5171 38.0996 50.3803C37.9628 50.2436 37.7774 50.1667 37.584 50.1667Z" fill="white"/>
<path d="M37.584 42.875H27.3757C27.1823 42.875 26.9968 42.9518 26.8601 43.0886C26.7233 43.2253 26.6465 43.4108 26.6465 43.6042C26.6465 43.7976 26.7233 43.983 26.8601 44.1198C26.9968 44.2565 27.1823 44.3333 27.3757 44.3333H37.584C37.7774 44.3333 37.9628 44.2565 38.0996 44.1198C38.2363 43.983 38.3132 43.7976 38.3132 43.6042C38.3132 43.4108 38.2363 43.2253 38.0996 43.0886C37.9628 42.9518 37.7774 42.875 37.584 42.875Z" fill="white"/>
<path d="M27.3757 40.6876H33.209C33.4024 40.6876 33.5878 40.6108 33.7246 40.474C33.8613 40.3373 33.9382 40.1518 33.9382 39.9584C33.9382 39.765 33.8613 39.5796 33.7246 39.4428C33.5878 39.3061 33.4024 39.2292 33.209 39.2292H27.3757C27.1823 39.2292 26.9968 39.3061 26.8601 39.4428C26.7233 39.5796 26.6465 39.765 26.6465 39.9584C26.6465 40.1518 26.7233 40.3373 26.8601 40.474C26.9968 40.6108 27.1823 40.6876 27.3757 40.6876Z" fill="white"/>
<path d="M55.0833 45.7917C55.0834 43.984 54.4119 42.2408 53.1993 40.9002C51.9867 39.5596 50.3194 38.7172 48.5208 38.5365V28.2917H53.625C53.8184 28.2917 54.0039 28.2148 54.1406 28.0781C54.2773 27.9414 54.3542 27.7559 54.3542 27.5625V24.6458C54.3542 23.6789 53.9701 22.7516 53.2863 22.0678C52.6026 21.3841 51.6753 21 50.7083 21H26.6458C25.6789 21 24.7516 21.3841 24.0678 22.0678C23.3841 22.7516 23 23.6789 23 24.6458V55.2708C23 55.4642 23.0768 55.6497 23.2136 55.7864C23.3503 55.9232 23.5358 56 23.7292 56H47.7917C47.9851 56 48.1705 55.9232 48.3073 55.7864C48.444 55.6497 48.5208 55.4642 48.5208 55.2708V53.0833C50.3257 52.902 51.9981 52.0544 53.2116 50.7061C54.4251 49.3578 55.0924 47.6056 55.0833 45.7917ZM52.8958 24.6458V26.8333H48.5208V24.6458C48.5208 24.0657 48.7513 23.5093 49.1615 23.099C49.5718 22.6888 50.1282 22.4583 50.7083 22.4583C51.2885 22.4583 51.8449 22.6888 52.2551 23.099C52.6654 23.5093 52.8958 24.0657 52.8958 24.6458ZM24.4583 54.5417V24.6458C24.4583 24.0657 24.6888 23.5093 25.099 23.099C25.5093 22.6888 26.0657 22.4583 26.6458 22.4583H47.7917C46.7927 23.7781 47.0625 23.1875 47.0625 38.5365C45.2224 38.6668 43.5002 39.4897 42.2427 40.8394C40.9853 42.1891 40.2861 43.9652 40.2861 45.8099C40.2861 47.6546 40.9853 49.4307 42.2427 50.7804C43.5002 52.1301 45.2224 52.953 47.0625 53.0833V54.5417H24.4583ZM47.7917 51.625C46.6379 51.625 45.5101 51.2829 44.5508 50.6419C43.5916 50.0009 42.8439 49.0899 42.4024 48.024C41.9609 46.9581 41.8453 45.7852 42.0704 44.6536C42.2955 43.5221 42.8511 42.4827 43.6669 41.6669C44.4827 40.8511 45.5221 40.2955 46.6536 40.0704C47.7852 39.8453 48.9581 39.9609 50.024 40.4024C51.0899 40.8439 52.0009 41.5916 52.6419 42.5508C53.2829 43.5101 53.625 44.6379 53.625 45.7917C53.625 47.3388 53.0104 48.8225 51.9165 49.9165C50.8225 51.0104 49.3388 51.625 47.7917 51.625Z" fill="white"/>
<path d="M28.1042 29.0208H29.5625V34.125C29.5625 34.3184 29.6393 34.5039 29.7761 34.6406C29.9128 34.7773 30.0983 34.8542 30.2917 34.8542C30.4851 34.8542 30.6705 34.7773 30.8073 34.6406C30.944 34.5039 31.0208 34.3184 31.0208 34.125V29.0208H32.4792C32.6726 29.0208 32.858 28.944 32.9948 28.8073C33.1315 28.6705 33.2083 28.4851 33.2083 28.2917C33.2083 28.0983 33.1315 27.9128 32.9948 27.7761C32.858 27.6393 32.6726 27.5625 32.4792 27.5625H28.1042C27.9108 27.5625 27.7253 27.6393 27.5886 27.7761C27.4518 27.9128 27.375 28.0983 27.375 28.2917C27.375 28.4851 27.4518 28.6705 27.5886 28.8073C27.7253 28.944 27.9108 29.0208 28.1042 29.0208Z" fill="white"/>
<path d="M36.8096 28.0366C36.7585 27.8958 36.6653 27.7742 36.5427 27.6883C36.4201 27.6023 36.274 27.5562 36.1242 27.5562C35.9745 27.5562 35.8283 27.6023 35.7057 27.6883C35.5831 27.7742 35.4899 27.8958 35.4388 28.0366L33.2513 33.8699C33.1836 34.0517 33.1909 34.253 33.2716 34.4294C33.3523 34.6058 33.4997 34.7429 33.6815 34.8106C33.8633 34.8783 34.0645 34.871 34.2409 34.7903C34.4173 34.7096 34.5544 34.5621 34.6221 34.3804L34.9867 33.396H37.2617L37.6263 34.3804C37.694 34.5621 37.8311 34.7096 38.0075 34.7903C38.1839 34.871 38.3851 34.8783 38.5669 34.8106C38.7487 34.7429 38.8962 34.6058 38.9768 34.4294C39.0575 34.253 39.0648 34.0517 38.9971 33.8699L36.8096 28.0366ZM35.5336 31.9376L36.1242 30.3699L36.7148 31.9376H35.5336Z" fill="white"/>
<path d="M41.1489 34.4532L41.9582 32.8417L42.7676 34.4532C42.8625 34.6109 43.0136 34.727 43.1905 34.7779C43.3675 34.8289 43.5571 34.811 43.7214 34.728C43.8857 34.6449 44.0125 34.5027 44.0763 34.33C44.1402 34.1574 44.1363 33.9669 44.0655 33.7969L42.7749 31.2084L44.0655 28.6199C44.1363 28.4499 44.1402 28.2594 44.0763 28.0868C44.0125 27.9141 43.8857 27.7719 43.7214 27.6888C43.5571 27.6058 43.3675 27.5879 43.1905 27.6389C43.0136 27.6898 42.8625 27.8059 42.7676 27.9636L41.9582 29.5751L41.1489 27.9636C41.0539 27.8059 40.9029 27.6898 40.7259 27.6389C40.549 27.5879 40.3594 27.6058 40.1951 27.6888C40.0308 27.7719 39.904 27.9141 39.8401 28.0868C39.7763 28.2594 39.7802 28.4499 39.851 28.6199L41.1416 31.2084L39.851 33.7969C39.7802 33.9669 39.7763 34.1574 39.8401 34.33C39.904 34.5027 40.0308 34.6449 40.1951 34.728C40.3594 34.811 40.549 34.8289 40.7259 34.7779C40.9029 34.727 41.0539 34.6109 41.1489 34.4532Z" fill="white"/>
<path d="M45.6048 45.0624C46.4102 45.0624 47.0632 44.4095 47.0632 43.6041C47.0632 42.7987 46.4102 42.1458 45.6048 42.1458C44.7994 42.1458 44.1465 42.7987 44.1465 43.6041C44.1465 44.4095 44.7994 45.0624 45.6048 45.0624Z" fill="white"/>
<path d="M49.9798 49.4374C50.7852 49.4374 51.4382 48.7845 51.4382 47.9791C51.4382 47.1737 50.7852 46.5208 49.9798 46.5208C49.1744 46.5208 48.5215 47.1737 48.5215 47.9791C48.5215 48.7845 49.1744 49.4374 49.9798 49.4374Z" fill="white"/>
<path d="M49.5566 42.4228L44.89 48.2561C44.8052 48.3634 44.7523 48.4923 44.7373 48.6282C44.7223 48.764 44.7458 48.9014 44.8051 49.0245C44.8644 49.1477 44.9571 49.2517 45.0727 49.3247C45.1883 49.3977 45.322 49.4367 45.4587 49.4374C45.9619 49.4374 45.7212 49.554 50.6941 43.3342C50.8079 43.1828 50.8583 42.993 50.8346 42.805C50.8109 42.6171 50.7149 42.4457 50.5671 42.3273C50.4193 42.2088 50.2311 42.1525 50.0425 42.1704C49.8539 42.1882 49.6797 42.2787 49.5566 42.4228Z" fill="white"/>
</svg>
