<svg width="16" height="16" viewBox="0 0 16 16" fill="none" xmlns="http://www.w3.org/2000/svg">
<path fill-rule="evenodd" clip-rule="evenodd" d="M13.6034 2.3252C12.1065 0.826563 10.1158 0.000878905 7.99502 0C3.6249 0 0.0682617 3.55654 0.0665039 7.92783C0.065918 9.3252 0.430957 10.6893 1.1248 11.8916L0 16L4.20303 14.8975C5.36113 15.5292 6.66494 15.8621 7.9918 15.8625H7.99512C12.3647 15.8625 15.9218 12.3057 15.9234 7.93418C15.9243 5.81563 15.1004 3.82373 13.6034 2.3252ZM7.99502 14.5235H7.99229C6.80986 14.523 5.6502 14.2053 4.63828 13.605L4.39775 13.4621L1.90361 14.1164L2.56934 11.6847L2.4126 11.4354C1.75293 10.3861 1.40459 9.17344 1.40518 7.92832C1.40654 4.29502 4.36279 1.33906 7.99766 1.33906C9.75781 1.33965 11.4124 2.02598 12.6565 3.27158C13.9007 4.51719 14.5854 6.17285 14.5849 7.93369C14.5833 11.5673 11.6272 14.5235 7.99502 14.5235ZM11.6097 9.58809C11.4116 9.48887 10.4376 9.00977 10.256 8.94355C10.0745 8.87744 9.94229 8.84453 9.81035 9.04277C9.67822 9.24102 9.29863 9.6873 9.18301 9.81943C9.06738 9.95166 8.95195 9.96826 8.75381 9.86904C8.55566 9.76992 7.91738 9.56065 7.16064 8.88574C6.57178 8.36045 6.17422 7.71172 6.05859 7.51348C5.94316 7.31504 6.05762 7.21816 6.14551 7.10918C6.35996 6.84287 6.57471 6.56367 6.64072 6.43154C6.70684 6.29932 6.67373 6.18359 6.62412 6.08447C6.57471 5.98535 6.17852 5.01025 6.01348 4.61348C5.85254 4.22734 5.68936 4.27949 5.56768 4.27344C5.45225 4.26768 5.32012 4.2665 5.18799 4.2665C5.05596 4.2665 4.84131 4.31602 4.65967 4.51445C4.47813 4.71279 3.96641 5.19199 3.96641 6.16709C3.96641 7.14219 4.67627 8.08418 4.77529 8.21641C4.87432 8.34863 6.17227 10.3496 8.15947 11.2076C8.63213 11.4119 9.00107 11.5337 9.28887 11.625C9.76348 11.7758 10.1952 11.7545 10.5366 11.7035C10.9173 11.6466 11.7086 11.2242 11.8738 10.7615C12.0389 10.2987 12.0389 9.90215 11.9893 9.81943C11.9398 9.73682 11.8077 9.6873 11.6097 9.58809Z" fill="#009944"/>
</svg>
