<svg width="98" height="97" viewBox="0 0 98 97" fill="none" xmlns="http://www.w3.org/2000/svg">
<circle cx="49.2478" cy="48.5" r="48.5" fill="#7DB015"/>
<g clip-path="url(#clip0)">
<path d="M44.3812 53.6C40.147 53.6 36.7146 57.0324 36.7146 61.2667C36.7146 65.5009 40.147 68.9333 44.3812 68.9333C48.6155 68.9333 52.0479 65.5009 52.0479 61.2667C52.0434 57.0343 48.6136 53.6045 44.3812 53.6ZM44.3812 67.4C40.9938 67.4 38.2479 64.6542 38.2479 61.2667C38.2479 57.8792 40.9938 55.1333 44.3812 55.1333C47.7687 55.1333 50.5146 57.8792 50.5146 61.2667C50.5108 64.6523 47.7668 67.3963 44.3812 67.4Z" fill="white"/>
<path d="M44.3812 58.9667C45.3175 58.9667 45.9145 59.4204 45.9145 59.7334H47.4479C47.4479 58.644 46.4828 57.7617 45.1479 57.5101V56.6667H43.6145V57.5101C42.2796 57.7598 41.3145 58.6425 41.3145 59.7334C41.3145 61.0237 42.6615 62.0334 44.3812 62.0334C45.3175 62.0334 45.9145 62.4871 45.9145 62.8C45.9145 63.113 45.3175 63.5667 44.3812 63.5667C43.445 63.5667 42.8479 63.113 42.8479 62.8H41.3145C41.3145 63.8894 42.2796 64.7717 43.6145 65.0233V65.8667H45.1479V65.0233C46.4828 64.7736 47.4479 63.8909 47.4479 62.8C47.4479 61.5096 46.101 60.5 44.3812 60.5C43.445 60.5 42.8479 60.0463 42.8479 59.7334C42.8479 59.4204 43.445 58.9667 44.3812 58.9667Z" fill="white"/>
<path d="M65.8478 70.4667H33.6478V52.0667H45.9145C47.1846 52.0667 48.2145 51.0368 48.2145 49.7667V30.6H56.6478V39.8H65.8478V50.5333H67.3811V38.7159L57.7319 29.0667H48.2145V28.3C48.2145 27.0298 47.1846 26 45.9145 26H29.0478C27.7776 26 26.7478 27.0298 26.7478 28.3V49.7667C26.7478 51.0368 27.7776 52.0667 29.0478 52.0667H32.1145V72H67.3811V61.2667H65.8478V70.4667ZM58.1811 31.6841L64.7637 38.2667H58.1811V31.6841ZM28.2811 49.7667V28.3C28.2811 27.8766 28.6244 27.5333 29.0478 27.5333H45.9145C46.3379 27.5333 46.6811 27.8766 46.6811 28.3V49.7667C46.6811 50.1901 46.3379 50.5333 45.9145 50.5333H29.0478C28.6244 50.5333 28.2811 50.1901 28.2811 49.7667Z" fill="white"/>
<path d="M51.2811 45.1667H52.8144V46.7H51.2811V45.1667Z" fill="white"/>
<path d="M54.3478 45.1667H63.5478V46.7H54.3478V45.1667Z" fill="white"/>
<path d="M51.2811 42.1H52.8144V43.6333H51.2811V42.1Z" fill="white"/>
<path d="M54.3478 42.1H63.5478V43.6333H54.3478V42.1Z" fill="white"/>
<path d="M51.2811 48.2333H52.8144V49.7666H51.2811V48.2333Z" fill="white"/>
<path d="M54.3478 48.2333H63.5478V49.7666H54.3478V48.2333Z" fill="white"/>
<path d="M51.2811 51.3H52.8144V52.8333H51.2811V51.3Z" fill="white"/>
<path d="M54.3478 51.3H63.5478V52.8333H54.3478V51.3Z" fill="white"/>
<path d="M45.9145 28.3H29.0479V33.6667H45.9145V28.3ZM44.3812 32.1333H30.5812V29.8333H44.3812V32.1333Z" fill="white"/>
<path d="M32.8812 34.4333H31.3479C30.5011 34.4333 29.8145 35.1199 29.8145 35.9667V37.5C29.8145 38.3468 30.5011 39.0333 31.3479 39.0333H32.8812C33.728 39.0333 34.4145 38.3468 34.4145 37.5V35.9667C34.4145 35.1199 33.728 34.4333 32.8812 34.4333ZM31.3479 37.5V35.9667H32.8812V37.5H31.3479Z" fill="white"/>
<path d="M38.2477 34.4333H36.7144C35.8676 34.4333 35.1811 35.1199 35.1811 35.9667V37.5C35.1811 38.3468 35.8676 39.0333 36.7144 39.0333H38.2477C39.0945 39.0333 39.7811 38.3468 39.7811 37.5V35.9667C39.7811 35.1199 39.0945 34.4333 38.2477 34.4333ZM36.7144 37.5V35.9667H38.2477V37.5H36.7144Z" fill="white"/>
<path d="M43.6145 34.4333H42.0812C41.2344 34.4333 40.5479 35.1199 40.5479 35.9667V37.5C40.5479 38.3468 41.2344 39.0333 42.0812 39.0333H43.6145C44.4613 39.0333 45.1479 38.3468 45.1479 37.5V35.9667C45.1479 35.1199 44.4613 34.4333 43.6145 34.4333ZM42.0812 37.5V35.9667H43.6145V37.5H42.0812Z" fill="white"/>
<path d="M32.8812 39.8H31.3479C30.5011 39.8 29.8145 40.4865 29.8145 41.3333V42.8667C29.8145 43.7134 30.5011 44.4 31.3479 44.4H32.8812C33.728 44.4 34.4145 43.7134 34.4145 42.8667V41.3333C34.4145 40.4865 33.728 39.8 32.8812 39.8ZM31.3479 42.8667V41.3333H32.8812V42.8667H31.3479Z" fill="white"/>
<path d="M38.2477 39.8H36.7144C35.8676 39.8 35.1811 40.4865 35.1811 41.3333V42.8667C35.1811 43.7134 35.8676 44.4 36.7144 44.4H38.2477C39.0945 44.4 39.7811 43.7134 39.7811 42.8667V41.3333C39.7811 40.4865 39.0945 39.8 38.2477 39.8ZM36.7144 42.8667V41.3333H38.2477V42.8667H36.7144Z" fill="white"/>
<path d="M43.6145 39.8H42.0812C41.2344 39.8 40.5479 40.4865 40.5479 41.3333V42.8667C40.5479 43.7134 41.2344 44.4 42.0812 44.4H43.6145C44.4613 44.4 45.1479 43.7134 45.1479 42.8667V41.3333C45.1479 40.4865 44.4613 39.8 43.6145 39.8ZM42.0812 42.8667V41.3333H43.6145V42.8667H42.0812Z" fill="white"/>
<path d="M32.8812 45.1667H31.3479C30.5011 45.1667 29.8145 45.8532 29.8145 46.7V48.2334C29.8145 49.0801 30.5011 49.7667 31.3479 49.7667H32.8812C33.728 49.7667 34.4145 49.0801 34.4145 48.2334V46.7C34.4145 45.8532 33.728 45.1667 32.8812 45.1667ZM31.3479 48.2334V46.7H32.8812V48.2334H31.3479Z" fill="white"/>
<path d="M38.2477 45.1667H36.7144C35.8676 45.1667 35.1811 45.8532 35.1811 46.7V48.2334C35.1811 49.0801 35.8676 49.7667 36.7144 49.7667H38.2477C39.0945 49.7667 39.7811 49.0801 39.7811 48.2334V46.7C39.7811 45.8532 39.0945 45.1667 38.2477 45.1667ZM36.7144 48.2334V46.7H38.2477V48.2334H36.7144Z" fill="white"/>
<path d="M43.6145 45.1667H42.0812C41.2344 45.1667 40.5479 45.8532 40.5479 46.7V48.2334C40.5479 49.0801 41.2344 49.7667 42.0812 49.7667H43.6145C44.4613 49.7667 45.1479 49.0801 45.1479 48.2334V46.7C45.1479 45.8532 44.4613 45.1667 43.6145 45.1667ZM42.0812 48.2334V46.7H43.6145V48.2334H42.0812Z" fill="white"/>
<path d="M72.0514 50.463C71.1414 49.5941 69.7095 49.5941 68.7995 50.463L55.6564 63.6056C55.5928 63.67 55.5408 63.7449 55.503 63.8272L53.6522 67.8462C53.5185 68.1375 53.5803 68.4815 53.8072 68.708C54.0336 68.9348 54.3777 68.9966 54.6689 68.863L58.6879 67.0122C58.7703 66.9744 58.8451 66.9227 58.9095 66.8587L72.0514 53.7157C72.9499 52.8176 72.9499 51.361 72.0514 50.463ZM57.9213 65.6765L55.9125 66.6019L56.8379 64.5931L66.6372 54.7931L67.7213 55.8772L57.9213 65.6765ZM68.8077 54.7897L67.7236 53.7059L68.2604 53.1691L69.3445 54.2532L68.8077 54.7897ZM70.9699 52.6278L70.4279 53.1699L69.3438 52.0858L69.8866 51.5437C70.1894 51.254 70.6667 51.254 70.9699 51.5437C71.269 51.8432 71.269 52.3283 70.9699 52.6278Z" fill="white"/>
</g>
<defs>
<clipPath id="clip0">
<rect width="46" height="46" fill="white" transform="translate(26.7478 26)"/>
</clipPath>
</defs>
</svg>
