<svg width="20" height="22" viewBox="0 0 20 22" fill="none" xmlns="http://www.w3.org/2000/svg">
<path d="M17.0203 6.01076C16.0361 6.01076 15.1663 5.53112 14.6215 4.7904L5.82995 9.91169C5.91422 10.191 5.95937 10.4854 5.95937 10.7951C5.95937 11.2049 5.8781 11.5935 5.73363 11.9487L14.6667 17.1519C15.2114 16.4446 16.0632 15.9892 17.0203 15.9892C18.6667 15.9892 20 17.3341 20 18.9946C20 20.6552 18.6667 22 17.0203 22C15.374 22 14.0406 20.6552 14.0406 18.9946C14.0406 18.8064 14.0587 18.6243 14.0888 18.4482L4.89992 13.0901C4.38224 13.5303 3.71106 13.7974 2.97968 13.7974C1.33333 13.7974 0 12.4526 0 10.7921C0 9.1315 1.33333 7.78667 2.97968 7.78667C3.8164 7.78667 4.57186 8.13578 5.11362 8.69436L14.0767 3.47592C14.0527 3.3211 14.0406 3.16628 14.0406 3.00538C14.0406 1.34483 15.374 0 17.0203 0C18.6667 0 20 1.34483 20 3.00538C20 4.66593 18.6637 6.01076 17.0203 6.01076Z" fill="#878787"/>
</svg>
