<svg width="78" height="78" viewBox="0 0 78 78" fill="none" xmlns="http://www.w3.org/2000/svg">
<circle cx="38.9993" cy="39.0007" r="34.0213" fill="#009944"/>
<circle cx="39" cy="39" r="38.5" stroke="#009944" stroke-dasharray="3 3"/>
<path d="M49.0071 45.006C46.8008 45.006 45.0061 46.8008 45.0061 49.0071C45.0061 51.2133 46.8008 53.0081 49.0071 53.0081C51.2134 53.0081 53.0081 51.2133 53.0081 49.0071C53.0081 46.8008 51.2134 45.006 49.0071 45.006ZM49.0071 51.8649C47.4313 51.8649 46.1492 50.5829 46.1492 49.0071C46.1492 47.4312 47.4313 46.1492 49.0071 46.1492C50.5829 46.1492 51.865 47.4312 51.865 49.0071C51.865 50.5829 50.5829 51.8649 49.0071 51.8649Z" fill="white"/>
<path d="M49.007 47.2924C48.0616 47.2924 47.2922 48.0617 47.2922 49.0071C47.2922 49.9525 48.0616 50.7218 49.007 50.7218C49.9523 50.7218 50.7217 49.9525 50.7217 49.0071C50.7217 48.0617 49.9523 47.2924 49.007 47.2924ZM49.007 49.5786C48.692 49.5786 48.4354 49.322 48.4354 49.0071C48.4354 48.6921 48.692 48.4355 49.007 48.4355C49.3219 48.4355 49.5785 48.6921 49.5785 49.0071C49.5785 49.322 49.3219 49.5786 49.007 49.5786Z" fill="white"/>
<path d="M22.4964 35.2893H22.7147V43.8629H23.8579V34.1461H22.4964C22.3015 34.1461 22.1431 33.9878 22.1431 33.7929C22.1431 33.7386 22.1557 33.6837 22.1803 33.6352L24.1134 29.769C24.234 29.5284 24.6249 29.5284 24.7449 29.769L26.678 33.6352C26.7032 33.6837 26.7157 33.7386 26.7157 33.7929C26.7157 33.9878 26.5574 34.1461 26.3625 34.1461H25.001V43.8629H26.1442V35.2893H26.3625C27.1878 35.2893 27.8589 34.6183 27.8589 33.7929C27.8589 33.562 27.804 33.3305 27.7011 33.1236L25.7681 29.2581C25.5131 28.7476 25.0004 28.4304 24.4294 28.4304C23.8584 28.4304 23.3457 28.7476 23.0908 29.2575L21.1578 33.1236C21.0549 33.3305 21 33.562 21 33.7929C21 34.6183 21.671 35.2893 22.4964 35.2893Z" fill="white"/>
<path d="M31.0928 36.748C31.3477 37.2584 31.8604 37.5756 32.4314 37.5756C33.0024 37.5756 33.5151 37.2584 33.77 36.7485L35.7031 32.8824C35.806 32.6755 35.8608 32.444 35.8608 32.2131C35.8608 31.3877 35.1898 30.7167 34.3644 30.7167H34.1461V22.1431H33.003V31.8599H34.3644C34.5594 31.8599 34.7177 32.0182 34.7177 32.2131C34.7177 32.2674 34.7051 32.3223 34.6805 32.3708L32.7475 36.237C32.6269 36.4776 32.2359 36.4776 32.1159 36.237L30.1828 32.3708C30.1577 32.3223 30.1451 32.2674 30.1451 32.2131C30.1451 32.0182 30.3034 31.8599 30.4983 31.8599H31.8598V22.1431H30.7167V30.7167H30.4983C29.673 30.7167 29.002 31.3877 29.002 32.2131C29.002 32.444 29.0568 32.6755 29.1597 32.8824L31.0928 36.748Z" fill="white"/>
<path d="M53.5796 21H39.8619C38.2861 21 37.004 22.282 37.004 23.8579V39.3149C34.6897 39.4949 32.5738 40.7587 31.3163 42.7215C31.3072 42.7215 31.298 42.7198 31.2883 42.7198C28.9643 42.7198 26.8678 44.155 25.9995 46.2755C25.6749 46.1915 25.3411 46.1492 25.001 46.1492C22.7947 46.1492 21 47.9439 21 50.1502C21 52.3565 22.7947 54.1512 25.001 54.1512H43.6434L43.9544 54.4621C44.4928 55 45.3107 55.1315 45.9897 54.7879C46.1503 54.7056 46.3321 54.6982 46.4893 54.7662C46.563 54.7982 46.6379 54.8291 46.7122 54.8582C46.8722 54.92 46.9963 55.0554 47.0529 55.2286C47.2906 55.9517 47.9617 56.4375 48.7224 56.4375H49.2917C50.0525 56.4375 50.7235 55.9517 50.9613 55.2281C51.0178 55.0554 51.1419 54.9205 51.3008 54.8588C51.3762 54.8297 51.4511 54.7994 51.5254 54.7668C51.6809 54.6988 51.8632 54.7074 52.0244 54.7885C52.704 55.132 53.5213 55.0006 54.0598 54.4627L54.4627 54.0603C55.0011 53.5225 55.132 52.704 54.7885 52.025C54.7068 51.8638 54.6993 51.682 54.7668 51.5254C54.7988 51.4517 54.8297 51.3768 54.8588 51.3025C54.9205 51.1425 55.056 51.0184 55.2292 50.9618C55.9517 50.7235 56.4375 50.0525 56.4375 49.2917V49.0071V48.7224V23.8579C56.4375 22.282 55.1555 21 53.5796 21ZM39.8619 22.1431H53.5796C54.525 22.1431 55.2944 22.9125 55.2944 23.8579V47.0803C55.2715 47.0717 55.2509 47.0603 55.2281 47.0523C55.0554 46.9957 54.9205 46.8717 54.8588 46.7128C54.8297 46.6373 54.7994 46.5624 54.7668 46.4881C54.6993 46.3321 54.7074 46.1503 54.7885 45.9892C55.132 45.3101 55.0011 44.4916 54.4627 43.9538L54.1512 43.6428V24.4294C54.1512 23.799 53.6385 23.2863 53.0081 23.2863H40.4335C39.803 23.2863 39.2903 23.799 39.2903 24.4294V39.4938C38.9171 39.4046 38.5353 39.3429 38.1472 39.3126V23.8579C38.1472 22.9125 38.9165 22.1431 39.8619 22.1431ZM44.1944 43.3531C43.3868 41.7715 42.0396 40.5449 40.4335 39.8705V38.1472H53.0081V43.0507C52.6777 43.0147 52.337 43.0678 52.0244 43.2256C51.8638 43.3073 51.682 43.3153 51.5248 43.2473C51.4517 43.2153 51.3768 43.185 51.3019 43.1553C51.1425 43.0936 51.0178 42.9581 50.9613 42.7849C50.7235 42.0624 50.0525 41.5766 49.2917 41.5766H48.7224C47.9617 41.5766 47.2906 42.0625 47.0529 42.7861C46.9963 42.9587 46.8722 43.0936 46.7122 43.1553C46.6373 43.1844 46.563 43.2147 46.4887 43.2473C46.3327 43.3148 46.1509 43.3073 45.9897 43.2256C45.4044 42.9301 44.718 42.9878 44.1944 43.3531ZM53.0081 27.8589H40.4335V24.4294H53.0081V27.8589ZM40.4335 29.002H53.0081V32.4315H40.4335V29.002ZM40.4335 33.5746H53.0081V37.004H40.4335V33.5746ZM22.1431 50.1502C22.1431 48.5744 23.4252 47.2923 25.001 47.2923C25.3902 47.2923 25.7692 47.3701 26.1264 47.5233L26.7203 47.7776L26.9009 47.1574C27.4645 45.2175 29.2689 43.8629 31.2883 43.8629C32.8173 43.8629 34.2393 44.6231 35.091 45.8954L36.0409 45.2598C35.2259 44.0424 33.9924 43.205 32.6018 42.8769C33.7838 41.3526 35.6208 40.4335 37.5756 40.4335C40.0751 40.4335 42.3494 41.9418 43.3399 44.2161C42.9878 44.7368 42.9341 45.4124 43.2262 45.9892C43.3079 46.1503 43.3153 46.3321 43.2479 46.4887C43.2159 46.5624 43.185 46.6373 43.1559 46.7116C43.0941 46.8717 42.9587 46.9957 42.7855 47.0523C42.0625 47.2906 41.5766 47.9617 41.5766 48.7224V49.2917C41.5766 50.0525 42.0625 50.7235 42.7861 50.9613C42.9587 51.0178 43.0936 51.1419 43.1553 51.3008C43.1844 51.3762 43.2147 51.4511 43.2473 51.5254C43.3148 51.6814 43.3068 51.8632 43.2256 52.0244C43.0678 52.3365 43.0147 52.6777 43.0507 53.0081H25.001C23.4252 53.0081 22.1431 51.726 22.1431 50.1502ZM55.2944 49.2917C55.2944 49.5575 55.1246 49.7918 54.8714 49.8753C54.373 50.0387 53.9797 50.408 53.7934 50.8881C53.7694 50.9493 53.7443 51.0104 53.7185 51.0699C53.515 51.5386 53.5328 52.0741 53.7683 52.5399C53.8883 52.7772 53.8426 53.0629 53.6545 53.251L53.2516 53.6539C53.0635 53.842 52.7777 53.8877 52.5405 53.7677C52.0753 53.5322 51.5386 53.5145 51.071 53.718C51.011 53.7437 50.9498 53.7688 50.8875 53.7934C50.408 53.9797 50.0393 54.373 49.8753 54.872C49.7924 55.1246 49.5575 55.2944 49.2917 55.2944H48.7224C48.4566 55.2944 48.2223 55.1246 48.1388 54.8714C47.9754 54.373 47.6061 53.9797 47.126 53.7934C47.0649 53.7694 47.0037 53.7443 46.9443 53.7185C46.7282 53.6242 46.4979 53.5774 46.2664 53.5774C45.996 53.5774 45.7251 53.6414 45.4742 53.7677C45.2364 53.8871 44.9506 53.842 44.7631 53.6539L44.3602 53.251C44.1721 53.0629 44.1264 52.7772 44.2464 52.5399C44.4819 52.0741 44.4996 51.5386 44.2962 51.0704C44.2704 51.0104 44.2453 50.9493 44.2207 50.887C44.0344 50.4074 43.6411 50.0387 43.1422 49.8747C42.8895 49.7924 42.7198 49.5575 42.7198 49.2917V48.7224C42.7198 48.4566 42.8895 48.2223 43.1422 48.1388C43.6411 47.9754 44.0344 47.6061 44.2207 47.126C44.2447 47.0649 44.2699 47.0037 44.2956 46.9443C44.4991 46.4756 44.4813 45.94 44.2459 45.4742C44.1258 45.237 44.1716 44.9506 44.3596 44.7626L44.762 44.3602C44.95 44.1716 45.2358 44.1253 45.4736 44.2464C45.9394 44.4819 46.4756 44.4996 46.9431 44.2962C47.0037 44.2699 47.0649 44.2447 47.126 44.2213C47.6056 44.0344 47.9748 43.6411 48.1388 43.1427C48.2217 42.8895 48.4566 42.7198 48.7224 42.7198H49.2917C49.5575 42.7198 49.7918 42.8895 49.8753 43.1427C50.0393 43.6411 50.408 44.0344 50.8875 44.2207C50.9487 44.2447 51.0098 44.2699 51.0699 44.2956C51.538 44.4991 52.0741 44.4808 52.5399 44.2459C52.7772 44.1253 53.0629 44.1716 53.2516 44.3596L53.6539 44.762C53.842 44.95 53.8877 45.2364 53.7677 45.4736C53.5322 45.9394 53.5145 46.475 53.718 46.9431C53.7437 47.0031 53.7688 47.0643 53.7934 47.1266C53.9797 47.6061 54.373 47.9748 54.872 48.1388C55.1246 48.2217 55.2944 48.4566 55.2944 48.7224V49.0071V49.2917Z" fill="white"/>
<path d="M41.5767 25.5726H42.7198V26.7157H41.5767V25.5726Z" fill="white"/>
<path d="M43.8628 25.5726H45.0059V26.7157H43.8628V25.5726Z" fill="white"/>
<path d="M41.5767 34.7177H42.7198V35.8609H41.5767V34.7177Z" fill="white"/>
<path d="M43.8628 34.7177H45.0059V35.8609H43.8628V34.7177Z" fill="white"/>
<path d="M50.7217 30.1451H51.8648V31.2883H50.7217V30.1451Z" fill="white"/>
<path d="M48.4355 30.1451H49.5787V31.2883H48.4355V30.1451Z" fill="white"/>
<path d="M50.7217 39.2903H51.8648V40.4335H50.7217V39.2903Z" fill="white"/>
<path d="M48.4355 39.2903H49.5787V40.4335H48.4355V39.2903Z" fill="white"/>
<path d="M37.5756 41.5766C37.1401 41.5766 36.7074 41.6309 36.2896 41.7389L36.5748 42.8461C36.8994 42.762 37.2361 42.7197 37.5756 42.7197C39.4023 42.7197 40.9959 43.9538 41.4509 45.7205L42.558 45.4353C41.9727 43.1633 39.9242 41.5766 37.5756 41.5766Z" fill="white"/>
<path d="M31.2886 45.006C29.6642 45.006 28.2507 46.16 27.9277 47.7502L29.048 47.9776C29.2635 46.918 30.2055 46.1492 31.2886 46.1492C32.0145 46.1492 32.6815 46.4824 33.1182 47.0643L34.0321 46.3778C33.3771 45.5062 32.3774 45.006 31.2886 45.006Z" fill="white"/>
</svg>
