<svg width="94" height="94" viewBox="0 0 94 94" fill="none" xmlns="http://www.w3.org/2000/svg">
<mask id="mask0" mask-type="alpha" maskUnits="userSpaceOnUse" x="0" y="0" width="94" height="94">
<g clip-path="url(#clip0)">
<path d="M4.70008 50.1333C5.94679 50.1353 7.14302 49.6409 8.02455 48.7594C8.14675 48.6372 15.6667 41.1313 15.6667 41.1313L19.5254 44.9931C20.9947 46.4635 22.9881 47.2897 25.0667 47.2897C27.1454 47.2897 29.1388 46.4635 30.608 44.9931L53.5942 21.9991L60.5846 28.9927C63.647 32.0499 68.6065 32.0499 71.6688 28.9927L85.6623 14.9805L86.8247 16.1429C87.86 17.1771 89.4027 17.5138 90.7747 17.0049C92.1468 16.4961 93.0968 15.2348 93.2074 13.7757L93.9907 3.68478V3.66912C94.0586 2.67979 93.6953 1.70945 92.9944 1.00794C92.2935 0.30644 91.3235 -0.0576662 90.3341 0.00938304L80.2338 0.792716C78.7751 0.897043 77.5116 1.84347 77.0013 3.21401C76.4911 4.58455 76.8281 6.1268 77.8634 7.15965L79.0259 8.32525L66.1244 21.233L59.1355 14.2394C57.6663 12.769 55.6728 11.9428 53.5942 11.9428C51.5155 11.9428 49.5221 12.769 48.0529 14.2394L25.0667 37.235L21.2112 33.37C18.1492 30.312 13.189 30.312 10.127 33.37L1.39284 42.1277C0.0505589 43.467 -0.352612 45.4831 0.371378 47.2356C1.09537 48.9881 2.80389 50.1318 4.70008 50.1333ZM3.60341 44.3367L12.3438 35.5774C13.2254 34.6949 14.4217 34.199 15.6691 34.199C16.9165 34.199 18.1128 34.6949 18.9943 35.5774L23.9591 40.5453C24.253 40.8395 24.6517 41.0048 25.0675 41.0048C25.4833 41.0048 25.8821 40.8395 26.1759 40.5453L50.2681 16.45C52.129 14.6718 55.0593 14.6718 56.9202 16.45L63.9107 23.4436C65.1507 24.6279 67.1028 24.6279 68.3428 23.4436L82.3503 9.42818C82.9609 8.81658 82.9609 7.82609 82.3503 7.21448L80.074 4.93812C79.9018 4.77837 79.8474 4.52827 79.9377 4.31145C80.0167 4.08111 80.2286 3.92261 80.4719 3.91195L90.5659 3.13332C90.6449 3.12976 90.7215 3.16063 90.7759 3.21792C90.8379 3.27736 90.8711 3.36083 90.8667 3.44665L90.0834 13.536C90.0663 13.775 89.9114 13.982 89.6869 14.066C89.4625 14.1499 89.2097 14.0952 89.04 13.9261L86.7699 11.6529C86.1479 11.065 85.1751 11.065 84.5531 11.6529L69.452 26.7759C67.5897 28.5491 64.6637 28.5491 62.8015 26.7759L55.811 19.7823C55.2246 19.1919 54.4263 18.8607 53.5942 18.8627C52.7635 18.8617 51.9667 19.1921 51.3805 19.7807L28.3943 42.7778C26.5332 44.5552 23.6035 44.5552 21.7423 42.7778L17.8836 38.916C16.6602 37.6938 14.678 37.6938 13.4546 38.916L5.80458 46.5535C5.19075 47.1542 4.20941 47.1542 3.59558 46.5535C3.29925 46.2656 3.13205 45.87 3.13205 45.4568C3.13205 45.0437 3.29925 44.6481 3.59558 44.3602L3.60341 44.3367Z" fill="white"/>
<path d="M62.6668 59.5333C62.6806 52.1562 57.5459 45.7689 50.3381 44.1971C43.1303 42.6253 35.8026 46.2949 32.7437 53.0081C29.6849 59.7212 31.7238 67.6588 37.6393 72.0667H37.6002C35.7427 72.0584 34.0562 73.1496 33.3024 74.8473C32.5487 76.5449 32.8704 78.5277 34.1222 79.9C32.4928 81.6711 32.4928 84.3955 34.1222 86.1667C32.8704 87.539 32.5487 89.5217 33.3024 91.2194C34.0562 92.9171 35.7427 94.0082 37.6002 94H56.4002C58.2576 94.0082 59.9441 92.9171 60.6979 91.2194C61.4516 89.5217 61.13 87.539 59.8782 86.1667C61.5076 84.3955 61.5076 81.6711 59.8782 79.9C61.13 78.5277 61.4516 76.5449 60.6979 74.8473C59.9441 73.1496 58.2576 72.0584 56.4002 72.0667H56.361C60.3242 69.1191 62.6621 64.4725 62.6668 59.5333ZM57.9668 83.0333C57.9668 83.8986 57.2654 84.6 56.4002 84.6H37.6002C36.7349 84.6 36.0335 83.8986 36.0335 83.0333C36.0335 82.1681 36.7349 81.4667 37.6002 81.4667H56.4002C57.2654 81.4667 57.9668 82.1681 57.9668 83.0333ZM56.4002 90.8667H37.6002C36.7349 90.8667 36.0335 90.1652 36.0335 89.3C36.0335 88.4348 36.7349 87.7333 37.6002 87.7333H56.4002C57.2654 87.7333 57.9668 88.4348 57.9668 89.3C57.9668 90.1652 57.2654 90.8667 56.4002 90.8667ZM56.4002 75.2C57.2654 75.2 57.9668 75.9014 57.9668 76.7667C57.9668 77.6319 57.2654 78.3333 56.4002 78.3333H37.6002C36.7349 78.3333 36.0335 77.6319 36.0335 76.7667C36.0335 75.9014 36.7349 75.2 37.6002 75.2H56.4002ZM34.4668 59.5333C34.4668 52.6113 40.0782 47 47.0002 47C53.9221 47 59.5335 52.6113 59.5335 59.5333C59.5335 66.4553 53.9221 72.0667 47.0002 72.0667C40.0814 72.0589 34.4746 66.4521 34.4668 59.5333Z" fill="white"/>
<path fill-rule="evenodd" clip-rule="evenodd" d="M46.9999 57.9667C46.2398 57.9659 45.5899 57.4197 45.4584 56.6711C45.3269 55.9224 45.7517 55.1874 46.466 54.9276C47.1804 54.6679 47.9781 54.9584 48.3582 55.6167C48.6287 56.1195 49.1515 56.4353 49.7224 56.4409C50.2934 56.4464 50.8222 56.141 51.1025 55.6436C51.3829 55.1461 51.3705 54.5356 51.0701 54.05C50.5021 53.0969 49.6153 52.3755 48.5665 52.0133V51.7C48.5665 50.8348 47.8651 50.1333 46.9999 50.1333C46.1346 50.1333 45.4332 50.8348 45.4332 51.7V51.9883C43.2766 52.7479 41.9823 54.9522 42.3698 57.2056C42.7572 59.4589 44.7134 61.1043 46.9999 61.1C47.76 61.1007 48.4099 61.647 48.5414 62.3956C48.6729 63.1443 48.248 63.8793 47.5337 64.139C46.8193 64.3988 46.0216 64.1083 45.6416 63.45C45.196 62.7298 44.2588 62.4941 43.5256 62.9177C42.7923 63.3413 42.5284 64.2709 42.9297 65.0167C43.4984 65.9703 44.3864 66.6919 45.4363 67.0533V67.3667C45.4363 68.2319 46.1378 68.9333 47.003 68.9333C47.8682 68.9333 48.5697 68.2319 48.5697 67.3667V67.0784C50.7268 66.3186 52.0212 64.1134 51.6329 61.8596C51.2446 59.6057 49.2869 57.9608 46.9999 57.9667Z" fill="white"/>
<path d="M78.3335 31.3333C71.5846 31.3258 65.5913 35.6462 63.4651 42.0514C61.3389 48.4567 63.559 55.5035 68.9727 59.5333H68.9335C67.0761 59.5251 65.3896 60.6162 64.6358 62.3139C63.8821 64.0116 64.2037 65.9943 65.4555 67.3666C63.8261 69.1378 63.8261 71.8622 65.4555 73.6333C63.8261 75.4044 63.8261 78.1288 65.4555 79.9C63.8261 81.6711 63.8261 84.3955 65.4555 86.1666C64.2037 87.5389 63.8821 89.5217 64.6358 91.2194C65.3896 92.917 67.0761 94.0082 68.9335 94H87.7335C89.591 94.0082 91.2775 92.917 92.0312 91.2194C92.785 89.5217 92.4633 87.5389 91.2115 86.1666C92.8409 84.3955 92.8409 81.6711 91.2115 79.9C92.8409 78.1288 92.8409 75.4044 91.2115 73.6333C92.8409 71.8622 92.8409 69.1378 91.2115 67.3666C92.4633 65.9943 92.785 64.0116 92.0312 62.3139C91.2775 60.6162 89.591 59.5251 87.7335 59.5333H87.6928C93.1084 55.5047 95.33 48.4572 93.2039 42.0511C91.0778 35.645 85.0832 31.3244 78.3335 31.3333ZM89.3002 70.5C89.3002 71.3652 88.5988 72.0666 87.7335 72.0666H68.9335C68.0683 72.0666 67.3669 71.3652 67.3669 70.5C67.3669 69.6347 68.0683 68.9333 68.9335 68.9333H87.7335C88.5988 68.9333 89.3002 69.6347 89.3002 70.5ZM89.3002 76.7666C89.3002 77.6319 88.5988 78.3333 87.7335 78.3333H68.9335C68.0683 78.3333 67.3669 77.6319 67.3669 76.7666C67.3669 75.9014 68.0683 75.2 68.9335 75.2H87.7335C88.5988 75.2 89.3002 75.9014 89.3002 76.7666ZM89.3002 83.0333C89.3002 83.8985 88.5988 84.6 87.7335 84.6H68.9335C68.0683 84.6 67.3669 83.8985 67.3669 83.0333C67.3669 82.168 68.0683 81.4666 68.9335 81.4666H87.7335C88.5988 81.4666 89.3002 82.168 89.3002 83.0333ZM87.7335 90.8666H68.9335C68.0683 90.8666 67.3669 90.1652 67.3669 89.3C67.3669 88.4347 68.0683 87.7333 68.9335 87.7333H87.7335C88.5988 87.7333 89.3002 88.4347 89.3002 89.3C89.3002 90.1652 88.5988 90.8666 87.7335 90.8666ZM87.7335 62.6666C88.5988 62.6666 89.3002 63.368 89.3002 64.2333C89.3002 65.0985 88.5988 65.8 87.7335 65.8H68.9335C68.0683 65.8 67.3669 65.0985 67.3669 64.2333C67.3669 63.368 68.0683 62.6666 68.9335 62.6666H87.7335ZM78.3335 59.5333C71.4116 59.5333 65.8002 53.9219 65.8002 47C65.8002 40.078 71.4116 34.4666 78.3335 34.4666C85.2555 34.4666 90.8669 40.078 90.8669 47C90.8591 53.9187 85.2523 59.5255 78.3335 59.5333Z" fill="white"/>
<path fill-rule="evenodd" clip-rule="evenodd" d="M78.3334 45.4333C77.5733 45.4325 76.9234 44.8863 76.7919 44.1377C76.6604 43.389 77.0852 42.654 77.7995 42.3943C78.5139 42.1345 79.3116 42.425 79.6917 43.0833C80.1372 43.8035 81.0744 44.0392 81.8077 43.6156C82.5409 43.192 82.8049 42.2623 82.4036 41.5166C81.8363 40.5629 80.9492 39.8412 79.9 39.48V39.1666C79.9 38.3014 79.1986 37.6 78.3334 37.6C77.4681 37.6 76.7667 38.3014 76.7667 39.1666V39.4549C74.6101 40.2145 73.3158 42.4188 73.7033 44.6722C74.0907 46.9256 76.0469 48.571 78.3334 48.5666C79.0935 48.5674 79.7434 49.1136 79.8749 49.8622C80.0064 50.6109 79.5815 51.3459 78.8672 51.6056C78.1528 51.8654 77.3551 51.5749 76.9751 50.9166C76.5295 50.1965 75.5923 49.9607 74.8591 50.3843C74.1258 50.8079 73.8619 51.7376 74.2632 52.4833C74.8312 53.4376 75.7195 54.1593 76.7698 54.5199V54.8333C76.7698 55.6985 77.4713 56.3999 78.3365 56.3999C79.2017 56.3999 79.9032 55.6985 79.9032 54.8333V54.545C82.0603 53.7852 83.3547 51.58 82.9664 49.3262C82.5781 47.0723 80.6204 45.4274 78.3334 45.4333Z" fill="white"/>
<path d="M6.30588 84.6H6.26671C3.67097 84.6 1.56671 86.7043 1.56671 89.3C1.56671 91.8958 3.67097 94 6.26671 94H25.0667C27.6625 94 29.7667 91.8958 29.7667 89.3C29.7667 86.7043 27.6625 84.6 25.0667 84.6H25.0275C30.4421 80.5654 32.6624 73.5156 30.5371 67.1064C28.4118 60.6971 22.4191 56.3707 15.6667 56.3707C8.9143 56.3707 2.92159 60.6971 0.796293 67.1064C-1.32901 73.5156 0.89133 80.5654 6.30588 84.6ZM25.0667 87.7333C25.932 87.7333 26.6334 88.4348 26.6334 89.3C26.6334 90.1653 25.932 90.8667 25.0667 90.8667H6.26671C5.40147 90.8667 4.70005 90.1653 4.70005 89.3C4.70005 88.4348 5.40147 87.7333 6.26671 87.7333H25.0667ZM15.6667 59.5333C22.5887 59.5333 28.2 65.1447 28.2 72.0667C28.2 78.9886 22.5887 84.6 15.6667 84.6C8.74474 84.6 3.13338 78.9886 3.13338 72.0667C3.14115 65.1479 8.74796 59.5411 15.6667 59.5333Z" fill="white"/>
<path fill-rule="evenodd" clip-rule="evenodd" d="M15.6666 73.6333C16.4267 73.634 17.0766 74.1803 17.2081 74.9289C17.3396 75.6775 16.9148 76.4126 16.2004 76.6723C15.4861 76.932 14.6884 76.6415 14.3083 75.9833C14.0377 75.4805 13.515 75.1647 12.9441 75.1591C12.3731 75.1535 11.8443 75.459 11.564 75.9564C11.2836 76.4538 11.296 77.0644 11.5964 77.5499C12.1652 78.5036 13.0532 79.2251 14.1031 79.5866V79.8999C14.1031 80.7652 14.8045 81.4666 15.6698 81.4666C16.535 81.4666 17.2364 80.7652 17.2364 79.8999V79.6117C19.3936 78.8519 20.6879 76.6467 20.2996 74.3929C19.9113 72.139 17.9537 70.4941 15.6666 70.5C14.9065 70.4992 14.2566 69.953 14.1251 69.2043C13.9936 68.4557 14.4184 67.7207 15.1328 67.4609C15.8471 67.2012 16.6449 67.4917 17.0249 68.15C17.2955 68.6528 17.8182 68.9685 18.3892 68.9741C18.9601 68.9797 19.4889 68.6742 19.7693 68.1768C20.0497 67.6794 20.0372 67.0689 19.7368 66.5833C19.1689 65.6302 18.282 64.9087 17.2333 64.5466V64.2333C17.2333 63.368 16.5319 62.6666 15.6666 62.6666C14.8014 62.6666 14.1 63.368 14.1 64.2333V64.5216C11.9434 65.2812 10.6491 67.4854 11.0365 69.7388C11.424 71.9922 13.3802 73.6376 15.6666 73.6333Z" fill="white"/>
</g>
</mask>
<g mask="url(#mask0)">
<rect x="-41" y="-27" width="235" height="185" fill="#009944"/>
</g>
<defs>
<clipPath id="clip0">
<rect width="94" height="94" fill="white"/>
</clipPath>
</defs>
</svg>
