<svg width="94" height="94" viewBox="0 0 94 94" fill="none" xmlns="http://www.w3.org/2000/svg">
<mask id="mask0" mask-type="alpha" maskUnits="userSpaceOnUse" x="0" y="0" width="94" height="94">
<path fill-rule="evenodd" clip-rule="evenodd" d="M93.8997 13.5974L93.8845 13.5515C93.8738 13.5179 93.863 13.4851 93.8477 13.4513C93.772 13.2807 93.6658 13.1254 93.5349 12.9923L81.0015 0.458984C80.9863 0.44397 80.9707 0.42926 80.9548 0.414856C80.936 0.397583 80.9167 0.380798 80.897 0.364502C80.863 0.336548 80.8279 0.310059 80.7917 0.285095C80.7139 0.231201 80.6309 0.184387 80.5442 0.145325C80.4937 0.123901 80.4453 0.110901 80.395 0.0941162C80.2656 0.0489502 80.1311 0.0221558 79.9941 0.0137939C79.9792 0.0158081 79.9634 0.0118408 79.9465 0.00762939C79.9316 0.00390625 79.916 0 79.8999 0H32.8999C32.0349 0 31.3333 0.701477 31.3333 1.56665V6.26666H29.7666C28.9014 6.26666 28.2 6.96814 28.2 7.83331V13.8085L26.6333 13.9508C26.5898 11.3553 24.4509 9.28601 21.8552 9.32965C19.259 9.37244 17.1897 11.5121 17.2334 14.1077V23.5076C17.1921 26.1032 19.2629 28.2413 21.8591 28.2826C24.4546 28.3232 26.592 26.2524 26.6333 23.6568L28.2 23.7991V29.7667C28.2 30.6318 28.9014 31.3333 29.7666 31.3333H31.3333V34.4667H34.4666V31.3333H37.6001V34.4667H40.7334V31.3333H42.3C43.1653 31.3333 43.8667 30.6318 43.8667 29.7667V7.83331C43.8667 6.96814 43.1653 6.26666 42.3 6.26666H40.7334V3.13336H59.5334V47H48.5667V50.1334H61.1001C61.9651 50.1334 62.6667 49.4318 62.6667 48.5667V3.13336H78.3333V14.1C78.3333 14.9652 79.0349 15.6667 79.8999 15.6667H90.8667V87.7333H92.4333C93.2986 87.7333 94 87.0319 94 86.1667V14.1C94 14.0671 93.9824 14.0373 93.981 14.0044C93.9724 13.8659 93.9448 13.729 93.8997 13.5974ZM31.3333 9.40002H40.7334V12.6695L31.3333 13.5232V9.40002ZM40.7334 15.8235V21.7926L31.3333 20.9366V16.6711L40.7334 15.8235ZM25.209 20.3666C24.7705 20.3292 24.3362 20.4761 24.0095 20.7706C23.6829 21.0689 23.4985 21.4911 23.5 21.9333V23.5C23.5 24.3652 22.7986 25.0667 21.9333 25.0667C21.0681 25.0667 20.3667 24.3652 20.3667 23.5V14.1C20.3667 13.2348 21.0681 12.5333 21.9333 12.5333C22.7986 12.5333 23.5 13.2348 23.5 14.1V15.6667C23.4985 16.108 23.6829 16.5295 24.0081 16.8279C24.3337 17.1262 24.7698 17.2739 25.209 17.2333L28.2 16.9564V20.6436L25.209 20.3666ZM31.3333 28.2V24.0768L40.7334 24.9305V28.2H31.3333ZM37.6001 6.26666H34.4666V3.13336H37.6001V6.26666ZM81.4666 12.5333V5.34869L88.6514 12.5333H81.4666ZM47 6.26666H56.3999V9.40002H47V6.26666ZM47 12.5333H56.3999V15.6667H47V12.5333ZM56.3999 18.8H47V21.9333H56.3999V18.8ZM47 25.0667H56.3999V28.2H47V25.0667ZM56.3999 31.3333H48.5667V34.4667H56.3999V31.3333ZM50.1333 37.6H56.3999V40.7333H50.1333V37.6ZM50.3811 86.7021C49.2437 85.8875 48.5681 84.5748 48.5667 83.1756C48.5627 81.534 49.4915 80.0323 50.9619 79.3033L51.208 79.1809C52.5315 78.5139 54.105 78.5728 55.3757 79.3378L59.5334 81.8331V62.6666C59.5325 61.2828 60.1423 59.9694 61.1987 59.0759C62.2559 58.1824 63.6519 57.7999 65.0166 58.0309C67.3132 58.4723 68.9631 60.4957 68.9333 62.8342V70.7662C70.5552 70.233 72.3374 70.5872 73.6333 71.6987C75.4158 70.0984 78.1177 70.0984 79.8999 71.6987L79.9956 71.6184C81.0527 70.7234 82.4497 70.3378 83.8167 70.5643C86.113 71.0056 87.7632 73.029 87.7334 75.3676V92.4333C87.7334 93.2985 87.032 94 86.1667 94H61.1001C60.8953 94 60.6936 93.96 60.5063 93.8834C60.395 93.8378 60.2888 93.7793 60.1897 93.7086L50.3811 86.7021ZM52.6089 81.9807L52.364 82.1024C51.9563 82.3043 51.6985 82.7205 51.7 83.1756C51.7007 83.5635 51.8875 83.9268 52.2012 84.1533L61.6011 90.8666H84.6001V75.3676C84.6292 74.5635 84.0906 73.8491 83.3088 73.6555C82.8521 73.5737 82.3823 73.6984 82.0266 73.9967C81.6709 74.295 81.4658 74.7357 81.4668 75.2C81.4668 76.0652 80.7651 76.7667 79.8999 76.7667C79.0349 76.7667 78.3333 76.0652 78.3333 75.2C78.3333 74.3348 77.6318 73.6333 76.7666 73.6333C75.9014 73.6333 75.2 74.3348 75.2 75.2C75.2 76.0652 74.4985 76.7667 73.6333 76.7667C72.7681 76.7667 72.0667 76.0652 72.0667 75.2C72.0667 74.3348 71.3652 73.6333 70.5 73.6333C69.6348 73.6333 68.9333 74.3348 68.9333 75.2C68.9333 76.0652 68.2319 76.7667 67.3667 76.7667C66.5015 76.7667 65.8 76.0652 65.8 75.2V62.8342C65.8291 62.0294 65.2898 61.3142 64.5071 61.1222C64.0505 61.0411 63.5815 61.1658 63.2266 61.4641C62.8708 61.7625 62.666 62.2031 62.6667 62.6666V84.6C62.666 85.1646 62.3623 85.6848 61.8704 85.9624C61.3792 86.2393 60.7771 86.2317 60.293 85.941L53.7617 82.0244C53.4111 81.8109 52.9744 81.7941 52.6089 81.9807ZM6.2666 94H40.7334C44.1941 94 47 91.194 47 87.7333V43.8666C47 40.4059 44.1941 37.6 40.7334 37.6H6.2666C2.80591 37.6 0 40.4059 0 43.8666V87.7333C0 91.194 2.80591 94 6.2666 94ZM3.1333 43.8666C3.1333 42.1363 4.53638 40.7333 6.2666 40.7333H40.7334C42.4636 40.7333 43.8667 42.1363 43.8667 43.8666V87.7333C43.8667 89.4637 42.4636 90.8666 40.7334 90.8666H6.2666C4.53638 90.8666 3.1333 89.4637 3.1333 87.7333V43.8666ZM7.83325 62.6667C6.96802 62.6667 6.2666 61.9652 6.2666 61.1V48.5667C6.2666 47.7015 6.96802 47 7.83325 47H39.1665C40.0317 47 40.7332 47.7015 40.7332 48.5667V61.1C40.7332 61.9652 40.0317 62.6667 39.1665 62.6667H7.83325ZM9.3999 50.1334V59.5333H37.5999V50.1334H9.3999ZM7.83325 75.2H14.0999C14.9651 75.2 15.6665 74.4985 15.6665 73.6333V67.3666C15.6665 66.5015 14.9651 65.8 14.0999 65.8H7.83325C6.96802 65.8 6.2666 66.5015 6.2666 67.3666V73.6333C6.2666 74.4985 6.96802 75.2 7.83325 75.2ZM9.3999 68.9333H12.5332V72.0667H9.3999V68.9333ZM26.6333 65.8C27.4985 65.8 28.2 66.5015 28.2 67.3666V73.6333C28.2 74.4985 27.4985 75.2 26.6333 75.2H20.3667C19.5015 75.2 18.8 74.4985 18.8 73.6333V67.3666C18.8 66.5015 19.5015 65.8 20.3667 65.8H26.6333ZM25.0667 72.0667V68.9333H21.9333V72.0667H25.0667ZM7.83325 87.7333H14.0999C14.9651 87.7333 15.6665 87.0319 15.6665 86.1666V79.9C15.6665 79.0348 14.9651 78.3333 14.0999 78.3333H7.83325C6.96802 78.3333 6.2666 79.0348 6.2666 79.9V86.1666C6.2666 87.0319 6.96802 87.7333 7.83325 87.7333ZM9.3999 81.4667H12.5332V84.6H9.3999V81.4667ZM20.3667 78.3333H26.6333C27.4985 78.3333 28.2 79.0348 28.2 79.9V86.1666C28.2 87.0319 27.4985 87.7333 26.6333 87.7333H20.3667C19.5015 87.7333 18.8 87.0319 18.8 86.1666V79.9C18.8 79.0348 19.5015 78.3333 20.3667 78.3333ZM25.0667 84.6V81.4667H21.9333V84.6H25.0667ZM39.1665 65.8H32.8999C32.0347 65.8 31.3333 66.5015 31.3333 67.3666V73.6333C31.3333 74.4985 32.0347 75.2 32.8999 75.2H39.1665C40.0317 75.2 40.7332 74.4985 40.7332 73.6333V67.3666C40.7332 66.5015 40.0317 65.8 39.1665 65.8ZM37.5999 72.0667H34.4666V68.9333H37.5999V72.0667ZM32.8999 78.3333H39.1665C40.0317 78.3333 40.7332 79.0348 40.7332 79.9V86.1666C40.7332 87.0319 40.0317 87.7333 39.1665 87.7333H32.8999C32.0347 87.7333 31.3333 87.0319 31.3333 86.1666V79.9C31.3333 79.0348 32.0347 78.3333 32.8999 78.3333ZM34.4666 84.6H37.5999V81.4667H34.4666V84.6ZM34.4666 53.2667V56.4H31.3333V53.2667H34.4666ZM28.2 53.2667H25.0667V56.4H28.2V53.2667ZM18.8 53.2667H21.9333V56.4H18.8V53.2667ZM70.5 15.6667V12.5333H73.6333V15.6667H74.0098C76.3965 15.6689 78.3311 17.6036 78.3335 19.9903V20.3666H75.2V19.9903C75.1992 19.3332 74.6667 18.8008 74.0098 18.8H70.0381C69.4207 18.8008 68.9204 19.3003 68.918 19.9169C68.8936 20.424 69.2048 20.8868 69.6838 21.0544L75.4258 22.9676C77.1829 23.5513 78.3594 25.2067 78.3335 27.0579V27.1459C78.2607 29.4698 76.3628 31.3203 74.0374 31.3333H73.6333V34.4667H70.5V31.3333H70.1238C67.7371 31.3311 65.8022 29.3964 65.8 27.0097V26.6333H68.9243V27.0097C68.925 27.6668 69.4573 28.1992 70.1145 28.2H74.0312C74.6714 28.1931 75.1877 27.6744 75.1924 27.0342V26.986C75.1848 26.5102 74.8779 26.0909 74.4258 25.941L68.6855 24.0263C66.7034 23.3524 65.4956 21.3466 65.8284 19.2789C66.1611 17.2111 67.9358 15.685 70.0303 15.6667H70.5ZM87.7334 37.6H65.8V40.7333H87.7334V37.6ZM65.8 43.8666H87.7334V47H65.8V43.8666ZM87.7334 50.1334H65.8V53.2667H87.7334V50.1334ZM87.7334 56.4V59.5334H72.0667V56.4H87.7334ZM87.7334 65.8V62.6667H72.0667V65.8H87.7334ZM81.4666 31.3333H87.7332V34.4667H81.4666V31.3333ZM57.9666 56.4H50.1333V59.5334H57.9666V56.4ZM50.1333 62.6667H56.3999V65.8H50.1333V62.6667ZM56.3999 68.9333H50.1333V72.0667H56.3999V68.9333Z" fill="white"/>
</mask>
<g mask="url(#mask0)">
<rect x="-48" y="-61" width="235" height="185" fill="#009944"/>
</g>
</svg>
