<svg width="102" height="102" viewBox="0 0 102 102" fill="none" xmlns="http://www.w3.org/2000/svg">
<mask id="mask0" mask-type="alpha" maskUnits="userSpaceOnUse" x="0" y="0" width="102" height="102">
<path fill-rule="evenodd" clip-rule="evenodd" d="M101.617 14.715C101.612 14.6981 101.606 14.6816 101.601 14.6653L101.601 14.6652C101.589 14.6288 101.578 14.5935 101.561 14.5569C101.479 14.3723 101.364 14.2042 101.223 14.0602L87.659 0.49671C87.5158 0.355147 87.3478 0.240076 87.164 0.157292C87.1251 0.140774 87.0874 0.12888 87.0492 0.116818C87.0338 0.111953 87.0183 0.10706 87.0026 0.101826C86.8627 0.0529824 86.717 0.0240076 86.5688 0.0149013C86.5526 0.0170914 86.5354 0.0127922 86.5174 0.00825767L86.5173 0.00825253C86.5013 0.00421846 86.4845 0 86.4669 0H35.6039C34.6676 0 33.9084 0.759138 33.9084 1.69544V6.78174H32.213C31.2767 6.78174 30.5176 7.54088 30.5176 8.47718V14.9435L28.8221 15.0975C28.775 12.2886 26.4603 10.0493 23.6514 10.0965C20.8417 10.1428 18.6023 12.4583 18.6495 15.2672V25.4398C18.6048 28.2487 20.8458 30.5626 23.6555 30.6073C26.4644 30.6511 28.7774 28.4101 28.8221 25.6013L30.5176 25.7552V32.2133C30.5176 33.1496 31.2767 33.9087 32.213 33.9087H33.9084V37.2996H37.2993V33.9087H40.6902V37.2996H44.0811V33.9087H45.7765C46.7128 33.9087 47.4719 33.1496 47.4719 32.2133V8.47718C47.4719 7.54088 46.7128 6.78174 45.7765 6.78174H44.0811V3.39087H64.4263V50.8631H52.5582V54.254H66.1217C67.058 54.254 67.8172 53.4948 67.8172 52.5585V3.39087H84.7715V15.2589C84.7715 16.1952 85.5306 16.9544 86.4669 16.9544H98.335V94.9444H100.03C100.967 94.9444 101.726 94.1853 101.726 93.249V15.2589C101.726 15.2404 101.721 15.2227 101.715 15.205C101.711 15.1887 101.706 15.1725 101.705 15.1554C101.696 15.0056 101.666 14.8574 101.617 14.715ZM33.9084 10.1726H44.0811V13.7108L33.9084 14.6347V10.1726ZM44.0811 17.1241V23.5838L33.9084 22.6574V18.0413L44.0811 17.1241ZM27.2807 22.0407C26.8063 22.0001 26.3361 22.1591 25.9826 22.4778C25.6291 22.8006 25.4296 23.2576 25.4313 23.7361V25.4315C25.4313 26.3678 24.6721 27.127 23.7358 27.127C22.7995 27.127 22.0404 26.3678 22.0404 25.4315V15.2589C22.0404 14.3226 22.7995 13.5635 23.7358 13.5635C24.6721 13.5635 25.4313 14.3226 25.4313 15.2589V16.9544C25.4296 17.432 25.6291 17.8882 25.981 18.211C26.3336 18.5339 26.8055 18.6937 27.2807 18.6498L30.5176 18.3501V22.3404L27.2807 22.0407ZM33.9084 30.5179V26.0557L44.0811 26.9796V30.5179H33.9084ZM40.6902 6.78174H37.2993V3.39087H40.6902V6.78174ZM88.1624 13.5635V5.78833L95.9375 13.5635H88.1624ZM50.863 6.78168H61.0357V10.1725H50.863V6.78168ZM50.863 13.5634H61.0357V16.9542H50.863V13.5634ZM61.0357 20.345H50.863V23.7359H61.0357V20.345ZM50.863 27.1267H61.0357V30.5176H50.863V27.1267ZM61.0354 33.9084H52.5582V37.2993H61.0354V33.9084ZM54.2539 40.6901H61.0356V44.0809H54.2539V40.6901ZM54.5219 93.8283C53.2909 92.9466 52.5599 91.526 52.5582 90.0119C52.5541 88.2353 53.5591 86.6103 55.1502 85.8213L55.4168 85.6889C56.849 84.967 58.5519 85.0307 59.9269 85.8586L64.4263 88.559V67.8172C64.4255 66.3197 65.0853 64.8982 66.2285 63.9313C67.3726 62.9644 68.8834 62.5505 70.3603 62.8005C72.8455 63.2781 74.6312 65.4678 74.5989 67.9985V76.5825C76.354 76.0055 78.2829 76.3888 79.6852 77.5917C81.6141 75.8598 84.5381 75.8598 86.467 77.5917L86.5705 77.5047C87.7145 76.5362 89.2262 76.1189 90.7056 76.364C93.1908 76.8416 94.9764 79.0313 94.9442 81.562V100.031C94.9442 100.967 94.185 101.726 93.2487 101.726H66.1217C65.7682 101.726 65.4239 101.616 65.1366 101.411L54.5219 93.8283ZM56.9326 88.7188L56.6677 88.8504C56.2264 89.069 55.9475 89.5193 55.9491 90.0119C55.9499 90.4316 56.1519 90.8249 56.4914 91.0699L66.664 98.3351H91.5533V81.562C91.5847 80.692 91.0019 79.9188 90.1559 79.7093C89.6617 79.6207 89.1534 79.7557 88.7684 80.0785C88.3835 80.4014 88.1616 80.8782 88.1624 81.3807C88.1624 82.317 87.4033 83.0762 86.467 83.0762C85.5307 83.0762 84.7715 82.317 84.7715 81.3807C84.7715 80.4444 84.0124 79.6853 83.0761 79.6853C82.1398 79.6853 81.3807 80.4444 81.3807 81.3807C81.3807 82.317 80.6215 83.0762 79.6852 83.0762C78.7489 83.0762 77.9898 82.317 77.9898 81.3807C77.9898 80.4444 77.2307 79.6853 76.2944 79.6853C75.3581 79.6853 74.5989 80.4444 74.5989 81.3807C74.5989 82.317 73.8398 83.0762 72.9035 83.0762C71.9672 83.0762 71.208 82.317 71.208 81.3807V67.9985C71.2395 67.1276 70.6559 66.3536 69.809 66.1458C69.3148 66.0581 68.8073 66.193 68.4232 66.5159C68.0382 66.8387 67.8163 67.3156 67.8172 67.8172V91.5534C67.8163 92.1643 67.4877 92.7272 66.9554 93.0278C66.4239 93.3274 65.7724 93.3192 65.2484 93.0046L58.1802 88.766C57.801 88.535 57.3283 88.5168 56.9326 88.7188ZM6.78174 101.726H44.0813C47.8265 101.726 50.8631 98.6892 50.8631 94.944V47.4718C50.8631 43.7266 47.8265 40.6901 44.0813 40.6901H6.78174C3.03655 40.6901 0 43.7266 0 47.4718V94.944C0 98.6892 3.03655 101.726 6.78174 101.726ZM3.39087 47.4718C3.39087 45.5992 4.90915 44.0809 6.78174 44.0809H44.0813C45.9539 44.0809 47.4722 45.5992 47.4722 47.4718V94.944C47.4722 96.8166 45.9539 98.3349 44.0813 98.3349H6.78174C4.90915 98.3349 3.39087 96.8166 3.39087 94.944V47.4718ZM42.3858 67.8174H8.47704C7.54074 67.8174 6.7816 67.0583 6.7816 66.122V52.5585C6.7816 51.6222 7.54074 50.863 8.47704 50.863H42.3858C43.3221 50.863 44.0812 51.6222 44.0812 52.5585V66.122C44.0812 67.0583 43.3221 67.8174 42.3858 67.8174ZM40.6903 54.2539H10.1725V64.4265H40.6903V54.2539ZM8.47704 81.3807H15.2588C16.1951 81.3807 16.9542 80.6216 16.9542 79.6853V72.9035C16.9542 71.9672 16.1951 71.2081 15.2588 71.2081H8.47704C7.54074 71.2081 6.7816 71.9672 6.7816 72.9035V79.6853C6.7816 80.6216 7.54074 81.3807 8.47704 81.3807ZM10.1725 74.5989H13.5633V77.9898H10.1725V74.5989ZM22.0405 71.2081H28.8222C29.7585 71.2081 30.5177 71.9672 30.5177 72.9035V79.6853C30.5177 80.6216 29.7585 81.3807 28.8222 81.3807H22.0405C21.1042 81.3807 20.345 80.6216 20.345 79.6853V72.9035C20.345 71.9672 21.1042 71.2081 22.0405 71.2081ZM23.7359 77.9898H27.1268V74.5989H23.7359V77.9898ZM8.47704 94.944H15.2588C16.1951 94.944 16.9542 94.1849 16.9542 93.2486V86.4669C16.9542 85.5306 16.1951 84.7714 15.2588 84.7714H8.47704C7.54074 84.7714 6.7816 85.5306 6.7816 86.4669V93.2486C6.7816 94.1849 7.54074 94.944 8.47704 94.944ZM10.1725 88.1623H13.5633V91.5532H10.1725V88.1623ZM22.0405 84.7714H28.8222C29.7585 84.7714 30.5177 85.5306 30.5177 86.4669V93.2486C30.5177 94.1849 29.7585 94.944 28.8222 94.944H22.0405C21.1042 94.944 20.345 94.1849 20.345 93.2486V86.4669C20.345 85.5306 21.1042 84.7714 22.0405 84.7714ZM23.7359 91.5532H27.1268V88.1623H23.7359V91.5532ZM42.3856 71.2081H35.6038C34.6675 71.2081 33.9084 71.9672 33.9084 72.9035V79.6853C33.9084 80.6216 34.6675 81.3807 35.6038 81.3807H42.3856C43.3219 81.3807 44.081 80.6216 44.081 79.6853V72.9035C44.081 71.9672 43.3219 71.2081 42.3856 71.2081ZM40.6901 77.9898H37.2993V74.5989H40.6901V77.9898ZM35.6038 84.7714H42.3856C43.3219 84.7714 44.081 85.5306 44.081 86.4669V93.2486C44.081 94.1849 43.3219 94.944 42.3856 94.944H35.6038C34.6675 94.944 33.9084 94.1849 33.9084 93.2486V86.4669C33.9084 85.5306 34.6675 84.7714 35.6038 84.7714ZM37.2993 91.5532H40.6901V88.1623H37.2993V91.5532ZM33.9084 57.6447H37.2993V61.0356H33.9084V57.6447ZM30.5175 57.6447H27.1266V61.0356H30.5175V57.6447ZM20.345 57.6447H23.7359V61.0356H20.345V57.6447ZM76.2947 16.9542V13.5634H79.6855V16.9542H80.0928C82.6757 16.9567 84.7693 19.0503 84.7718 21.6332V22.0405H81.381V21.6332C81.3801 20.9221 80.8039 20.3459 80.0928 20.3451H75.7946C75.1266 20.3459 74.5851 20.8865 74.5827 21.5538C74.5562 22.1026 74.8931 22.6035 75.4113 22.7848L81.6252 24.8552C83.5267 25.4869 84.8 27.2783 84.7718 29.2817V29.3769C84.6932 31.8919 82.6393 33.8945 80.1226 33.9086H79.6855V37.2995H76.2947V33.9086H75.8874C73.3045 33.9061 71.2108 31.8125 71.2083 29.2296V28.8223H74.5893V29.2296C74.5901 29.9407 75.1663 30.5169 75.8774 30.5177H80.116C80.8089 30.5103 81.3677 29.949 81.3727 29.2561V29.2039C81.3644 28.689 81.0324 28.2353 80.5432 28.0731L74.331 26.001C72.186 25.2716 70.8789 23.101 71.239 20.8633C71.5991 18.6257 73.5197 16.9741 75.7864 16.9542H76.2947ZM94.9442 40.6901H71.2081V44.0809H94.9442V40.6901ZM71.2081 47.4717H94.9442V50.8626H71.2081V47.4717ZM94.9442 54.2545H71.2081V57.6453H94.9442V54.2545ZM77.9897 61.0362H94.9441V64.427H77.9897V61.0362ZM94.9441 67.8178H77.9897V71.2087H94.9441V67.8178ZM88.1627 33.9084H94.9445V37.2993H88.1627V33.9084ZM62.7311 61.0362H54.2539V64.427H62.7311V61.0362ZM54.2539 67.8178H61.0356V71.2087H54.2539V67.8178ZM61.0356 74.5995H54.2539V77.9904H61.0356V74.5995Z" fill="white"/>
</mask>
<g mask="url(#mask0)">
<rect x="-51.9453" y="-66.0138" width="254.315" height="200.206" fill="#878787"/>
</g>
</svg>
