<svg width="92" height="92" viewBox="0 0 92 92" fill="none" xmlns="http://www.w3.org/2000/svg">
<mask id="mask0" mask-type="alpha" maskUnits="userSpaceOnUse" x="0" y="0" width="92" height="92">
<path d="M29.375 76.375H32.3125V79.3125H29.375V76.375Z" fill="white"/>
<path d="M29.375 82.25H32.3125V85.1875H29.375V82.25Z" fill="white"/>
<path d="M63.2194 47C64.5501 47 65.8029 46.414 66.6533 45.3917L72.6576 38.1875H83.7188C87.7681 38.1875 91.0625 34.8931 91.0625 30.8438V16.1562C91.0625 12.1069 87.7681 8.8125 83.7188 8.8125H76.375C76.375 3.95241 72.4226 0 67.5625 0C62.7024 0 58.75 3.95241 58.75 8.8125H51.4062C47.3569 8.8125 44.0625 12.1069 44.0625 16.1562V24.2652C41.2675 21.9534 37.6837 20.5625 33.7812 20.5625H32.3125C27.4421 20.5625 22.7803 22.8023 19.7312 26.5829C15.0826 27.705 11.75 31.9027 11.75 36.7188C11.75 41.7889 13.9237 46.5418 17.7043 49.892C18.1963 54.4598 21.0266 58.3255 24.9688 60.2922V63.4618L14.7198 65.8734C6.05272 67.9121 0 75.5554 0 84.459V91.0625H61.6875V84.459C61.6875 81.5817 61.0471 78.841 59.9 76.375H65.4049L71.4092 83.5778C72.2596 84.6015 73.5124 85.1875 74.8431 85.1875C77.3077 85.1875 79.3125 83.1827 79.3125 80.7181V76.375H83.7188C87.7681 76.375 91.0625 73.0806 91.0625 69.0312V57.2812C91.0625 53.2319 87.7681 49.9375 83.7188 49.9375H54.3438C50.2944 49.9375 47 53.2319 47 57.2812V65.8822C46.9883 65.8793 46.978 65.8749 46.9677 65.8734L36.7188 63.4618V60.2922C40.6609 58.3255 43.4912 54.4583 43.9832 49.892C47.3951 46.8678 49.4822 42.701 49.8567 38.1875H58.75V42.5306C58.75 44.9952 60.7548 47 63.2194 47ZM67.5625 2.9375C70.8026 2.9375 73.4375 5.57244 73.4375 8.8125C73.4375 12.0526 70.8026 14.6875 67.5625 14.6875C64.3224 14.6875 61.6875 12.0526 61.6875 8.8125C61.6875 5.57244 64.3224 2.9375 67.5625 2.9375ZM25.8397 66.2744L29.0078 70.5L25.5871 75.0605L22.629 67.0293L25.8397 66.2744ZM30.8438 72.9469L34.8916 78.3431L31.2888 88.125H30.4002L26.7973 78.3431L30.8438 72.9469ZM2.9375 84.459C2.9375 76.9243 8.05903 70.4574 15.394 68.7316L19.7459 67.7079L27.2688 88.125H14.6875V79.3125H11.75V88.125H2.9375V84.459ZM49.9375 57.2812C49.9375 54.8519 51.9144 52.875 54.3438 52.875H83.7188C86.1481 52.875 88.125 54.8519 88.125 57.2812V69.0312C88.125 71.4606 86.1481 73.4375 83.7188 73.4375H76.375V80.7181C76.375 81.5626 75.6876 82.25 74.8431 82.25C74.3863 82.25 73.9574 82.0488 73.6666 81.6992L66.7826 73.4375H58.1919C56.1518 70.547 53.3186 68.2352 49.9375 66.8355V57.2812ZM58.75 84.459V88.125H49.9375V79.3125H47V88.125H34.4187L41.9402 67.7079L46.2921 68.7316C53.6285 70.4589 58.75 76.9258 58.75 84.459ZM39.0599 67.0308L36.1019 75.0619L32.6797 70.5L35.8478 66.2744L39.0599 67.0308ZM33.7812 64.1359L30.8438 68.0531L27.9062 64.1359V61.3468C28.8521 61.5627 29.8333 61.6875 30.8438 61.6875C31.8542 61.6875 32.8354 61.5627 33.7812 61.3468V64.1359ZM41.125 48.4688C41.125 54.1381 36.5117 58.75 30.8438 58.75C25.1758 58.75 20.5625 54.1381 20.5625 48.4688V41.57C20.5625 40.514 21.4202 39.6562 22.4763 39.6562C22.8552 39.6562 23.2224 39.7679 23.5382 39.9779L27.4612 42.5938H36.7188C39.1481 42.5938 41.125 44.5707 41.125 47V48.4688ZM43.9318 45.7016C43.3134 42.2721 40.3231 39.6562 36.7188 39.6562H28.3513L25.167 37.5339C24.368 37.0008 23.4368 36.7188 22.4763 36.7188C19.8002 36.7188 17.625 38.894 17.625 41.57V45.5122C15.7391 42.9977 14.6875 39.9338 14.6875 36.7188C14.6875 33.1614 17.2196 30.0727 20.7094 29.375L21.4026 29.2355L21.7375 28.7875C24.2212 25.4769 28.175 23.5 32.3125 23.5H33.7812C41.0707 23.5 47 29.4308 47 36.7188C47 40.0132 45.9058 43.1533 43.9318 45.7016ZM49.8626 35.25C49.6012 32.3683 48.5789 29.7055 47 27.4583V16.1562C47 13.7269 48.9769 11.75 51.4062 11.75H59.2641C59.8281 13.3392 60.8312 14.7169 62.134 15.7406C56.7173 17.9041 52.875 23.1945 52.875 29.375V32.3125H82.25V29.375C82.25 23.1945 78.4077 17.9041 72.991 15.7406C74.2938 14.7169 75.2969 13.3392 75.8609 11.75H83.7188C86.1481 11.75 88.125 13.7269 88.125 16.1562V30.8438C88.125 33.2731 86.1481 35.25 83.7188 35.25H71.2799L64.3944 43.5117C64.1051 43.8613 63.6762 44.0625 63.2194 44.0625C62.3749 44.0625 61.6875 43.3751 61.6875 42.5306V35.25H49.8626ZM67.5625 17.625C74.0412 17.625 79.3125 22.8963 79.3125 29.375H55.8125C55.8125 22.8963 61.0838 17.625 67.5625 17.625Z" fill="white"/>
<path d="M52.875 55.8125H85.1875V58.75H52.875V55.8125Z" fill="white"/>
<path d="M52.875 61.6875H85.1875V64.625H52.875V61.6875Z" fill="white"/>
<path d="M58.75 67.5625H79.3125V70.5H58.75V67.5625Z" fill="white"/>
<path d="M82.25 67.5625H85.1875V70.5H82.25V67.5625Z" fill="white"/>
</mask>
<g mask="url(#mask0)">
<rect x="-88.4688" y="-73.4688" width="235" height="185" fill="#009944"/>
</g>
</svg>
