<svg width="35" height="34" viewBox="0 0 35 34" fill="none" xmlns="http://www.w3.org/2000/svg">
<circle cx="17.1379" cy="17" r="17" fill="#009944"/>
<path fill-rule="evenodd" clip-rule="evenodd" d="M8.34482 13.4573C8.34482 10.5577 10.6969 8.20703 13.5951 8.20703H21.8532C24.7528 8.20703 27.1034 10.5591 27.1034 13.4573V21.7154C27.1034 24.615 24.7514 26.9657 21.8532 26.9657H13.5951C10.6954 26.9657 8.34482 24.6136 8.34482 21.7154V13.4573ZM23.1641 13.4594C23.8893 13.4594 24.4772 12.8715 24.4772 12.1463C24.4772 11.4211 23.8893 10.8332 23.1641 10.8332C22.4389 10.8332 21.851 11.4211 21.851 12.1463C21.851 12.8715 22.4389 13.4594 23.1641 13.4594ZM21.1007 17.5863C21.1007 19.4512 19.5889 20.9629 17.7241 20.9629C15.8593 20.9629 14.3476 19.4512 14.3476 17.5863C14.3476 15.7215 15.8593 14.2098 17.7241 14.2098C19.5889 14.2098 21.1007 15.7215 21.1007 17.5863ZM12.8469 17.5863C12.8469 20.28 15.0305 22.4636 17.7241 22.4636C20.4178 22.4636 22.6014 20.28 22.6014 17.5863C22.6014 14.8927 20.4178 12.7091 17.7241 12.7091C15.0305 12.7091 12.8469 14.8927 12.8469 17.5863Z" fill="white"/>
</svg>
