<svg width="78" height="78" viewBox="0 0 78 78" fill="none" xmlns="http://www.w3.org/2000/svg">
<circle cx="38.9993" cy="39.0008" r="34.0213" fill="#009944"/>
<circle cx="39" cy="39" r="38.5" stroke="#009944" stroke-dasharray="3 3"/>
<g clip-path="url(#clip0_437_1619)">
<path d="M54.0995 27.0571H55.2532C55.6557 27.0571 55.982 26.7308 55.982 26.3283C55.982 25.9258 55.6557 25.5995 55.2532 25.5995H52.4837C52.0812 25.5995 51.7548 25.9258 51.7548 26.3283V29.0978C51.7548 29.5003 52.0812 29.8267 52.4837 29.8267C52.8861 29.8267 53.2125 29.5003 53.2125 29.0978V28.2959C55.4239 31.2565 56.6259 34.8487 56.6259 38.5848C56.6259 48.0758 48.9045 55.7973 39.4134 55.7973C29.9223 55.7973 22.2008 48.0758 22.2008 38.5848C22.2008 29.0937 29.9223 21.3722 39.4134 21.3722C40.1153 21.3722 40.8218 21.4148 41.5133 21.4989C41.9123 21.5471 42.2762 21.263 42.3248 20.8633C42.3734 20.4638 42.0888 20.1004 41.6892 20.0519C40.9395 19.9608 40.1739 19.9146 39.4134 19.9146C34.4264 19.9146 29.7378 21.8566 26.2116 25.3829C22.6852 28.9092 20.7432 33.5978 20.7432 38.5848C20.7432 43.5718 22.6852 48.2603 26.2116 51.7866C29.7378 55.313 34.4264 57.255 39.4134 57.255C44.4004 57.255 49.0889 55.313 52.6152 51.7866C56.1416 48.2603 58.0836 43.5718 58.0836 38.5848C58.0836 34.3764 56.6777 30.3364 54.0995 27.0571Z" fill="white"/>
<path d="M28.649 30.9208C28.3089 30.7055 27.8587 30.8068 27.6433 31.1467C25.9794 33.7746 25.2429 36.9349 25.5693 40.0456C25.9006 43.2025 27.3214 46.1795 29.5702 48.4282C32.284 51.142 35.8487 52.499 39.4136 52.499C42.9784 52.499 46.5431 51.1421 49.257 48.4282C54.6846 43.0006 54.6846 34.1691 49.257 28.7415C47.0117 26.4963 44.0396 25.076 40.888 24.7422C37.783 24.4131 34.6261 25.1439 31.9993 26.7996C31.6588 27.0142 31.5568 27.4643 31.7714 27.8048C31.986 28.1454 32.4361 28.2473 32.7766 28.0328C37.7281 24.9119 44.081 25.6271 48.2262 29.7722C53.0855 34.6316 53.0855 42.5382 48.2262 47.3975C43.3669 52.2568 35.4602 52.2568 30.6009 47.3975C26.5131 43.3096 25.7872 36.8032 28.8749 31.9266C29.0902 31.5864 28.9891 31.1362 28.649 30.9208Z" fill="white"/>
<path d="M48.888 39.3253H49.7868C50.1893 39.3253 50.5156 38.999 50.5156 38.5965C50.5156 38.194 50.1893 37.8677 49.7868 37.8677H48.888C48.4855 37.8677 48.1592 38.194 48.1592 38.5965C48.1592 38.999 48.4855 39.3253 48.888 39.3253Z" fill="white"/>
<path d="M28.311 38.5731C28.311 38.9755 28.6374 39.3019 29.0399 39.3019H29.9386C30.3411 39.3019 30.6675 38.9755 30.6675 38.5731C30.6675 38.1706 30.3411 37.8442 29.9386 37.8442H29.0399C28.6374 37.8442 28.311 38.1705 28.311 38.5731Z" fill="white"/>
<path d="M40.1539 29.11V28.2112C40.1539 27.8088 39.8276 27.4824 39.4251 27.4824C39.0227 27.4824 38.6963 27.8088 38.6963 28.2112V29.11C38.6963 29.5125 39.0227 29.8389 39.4251 29.8389C39.8276 29.8389 40.1539 29.5125 40.1539 29.11Z" fill="white"/>
<path d="M38.6729 48.0594V48.9582C38.6729 49.3606 38.9992 49.687 39.4017 49.687C39.8041 49.687 40.1305 49.3606 40.1305 48.9582V48.0594C40.1305 47.6569 39.8041 47.3306 39.4017 47.3306C38.9992 47.3306 38.6729 47.6569 38.6729 48.0594Z" fill="white"/>
<path d="M35.7603 33.9006C35.4757 33.6161 35.0143 33.6161 34.7296 33.9006C34.445 34.1852 34.445 34.6467 34.7296 34.9314L37.1996 37.4015C37.0104 37.7542 36.9027 38.157 36.9027 38.5846C36.9027 39.969 38.029 41.0954 39.4135 41.0954C40.798 41.0954 41.9243 39.969 41.9243 38.5846C41.9243 38.157 41.8166 37.7542 41.6274 37.4015L46.6114 32.4175C46.896 32.1329 46.896 31.6714 46.6114 31.3867C46.3267 31.1022 45.8653 31.1022 45.5806 31.3867L40.5966 36.3707C40.2439 36.1814 39.8411 36.0738 39.4135 36.0738C38.986 36.0738 38.5832 36.1815 38.2304 36.3707L35.7603 33.9006ZM40.4667 38.5846C40.4667 39.1653 39.9943 39.6377 39.4135 39.6377C38.8328 39.6377 38.3604 39.1653 38.3604 38.5846C38.3604 38.0038 38.8328 37.5314 39.4135 37.5314C39.9943 37.5314 40.4667 38.0038 40.4667 38.5846Z" fill="white"/>
<path d="M30.6006 29.7719C30.7368 29.6364 30.8148 29.4483 30.8148 29.2567C30.8148 29.065 30.7368 28.8777 30.6006 28.7414C30.465 28.6059 30.2776 28.5278 30.0853 28.5278C29.8936 28.5278 29.7056 28.6058 29.57 28.7414C29.4345 28.8769 29.3564 29.065 29.3564 29.2567C29.3564 29.4491 29.4344 29.6364 29.57 29.7719C29.7056 29.9074 29.8936 29.9855 30.0853 29.9855C30.2776 29.9855 30.465 29.9074 30.6006 29.7719Z" fill="white"/>
<path d="M44.4617 22.0919C44.6542 22.0919 44.8423 22.0146 44.9777 21.8784C45.1133 21.7428 45.1914 21.5554 45.1914 21.3631C45.1914 21.1714 45.1134 20.9834 44.9777 20.8478C44.8423 20.7123 44.6542 20.6343 44.4617 20.6343C44.2701 20.6343 44.082 20.7123 43.9465 20.8478C43.811 20.9834 43.7329 21.1714 43.7329 21.3631C43.7329 21.5555 43.8109 21.7428 43.9465 21.8784C44.082 22.0146 44.2701 22.0919 44.4617 22.0919Z" fill="white"/>
</g>
<defs>
<clipPath id="clip0_437_1619">
<rect width="37.3404" height="37.3404" fill="white" transform="translate(20.7432 19.9146)"/>
</clipPath>
</defs>
</svg>
