<svg width="34" height="34" viewBox="0 0 34 34" fill="none" xmlns="http://www.w3.org/2000/svg">
<circle cx="17" cy="17" r="17" fill="#009944"/>
<path d="M26.0956 26.4931V26.4923H26.1001V19.786C26.1001 16.5052 25.409 13.9779 21.6559 13.9779C19.8517 13.9779 18.6409 14.9897 18.1466 15.949H18.0944V14.2842H14.5359V26.4923H18.2413V20.4473C18.2413 18.8557 18.5365 17.3166 20.4653 17.3166C22.3657 17.3166 22.394 19.133 22.394 20.5494V26.4931H26.0956Z" fill="white"/>
<path d="M8.50214 14.285H12.212V26.4932H8.50214V14.285Z" fill="white"/>
<path d="M10.3556 8.20703C9.16941 8.20703 8.20691 9.19066 8.20691 10.4029C8.20691 11.6151 9.16941 12.6193 10.3556 12.6193C11.5417 12.6193 12.5042 11.6151 12.5042 10.4029C12.5035 9.19066 11.541 8.20703 10.3556 8.20703V8.20703Z" fill="white"/>
</svg>
