<svg width="42" height="46" viewBox="0 0 42 46" fill="none" xmlns="http://www.w3.org/2000/svg">
<path d="M37.0483 30.09C36.3907 30.09 35.8556 29.5549 35.8556 28.8972V20.4717C35.8556 13.8196 31.4607 8.17484 25.4221 6.28804C25.6037 5.7825 25.6996 5.2458 25.6996 4.69971C25.6996 2.10833 23.5913 0 20.9998 0C18.4082 0 16.3 2.10833 16.3 4.6998C16.3 5.25013 16.394 5.78602 16.5743 6.28913C10.5373 8.17683 6.14394 13.8208 6.14394 20.4718V28.8973C6.14394 29.555 5.60887 30.0901 4.95125 30.0901C2.32121 30.0901 0.181641 32.2298 0.181641 34.8597C0.181641 37.4897 2.32121 39.6293 4.95125 39.6293H16.0779C15.9704 40.0439 15.9142 40.4748 15.9142 40.9145C15.9142 43.7187 18.1956 46.0001 20.9998 46.0001C23.8039 46.0001 26.0854 43.7187 26.0854 40.9145C26.0854 40.4749 26.0291 40.044 25.9215 39.6293H37.0482C39.6782 39.6293 41.8178 37.4897 41.8178 34.8597C41.818 32.2297 39.6783 30.09 37.0483 30.09ZM19.0092 4.6998C19.0092 3.6022 19.9022 2.70923 20.9998 2.70923C22.0974 2.70923 22.9903 3.6022 22.9903 4.6998C22.9903 5.05968 22.893 5.40998 22.7119 5.71522C22.1499 5.65047 21.5788 5.61597 20.9998 5.61597C20.4213 5.61597 19.8509 5.65038 19.2894 5.71504C19.1081 5.4107 19.0092 5.0632 19.0092 4.6998ZM23.3762 40.9144C23.3762 42.2248 22.3101 43.2908 20.9998 43.2908C19.6896 43.2908 18.6235 42.2248 18.6235 40.9144C18.6235 40.4515 18.7555 40.0091 19.0007 39.6292H22.9989C23.2442 40.0091 23.3762 40.4515 23.3762 40.9144ZM37.0483 36.92H4.95125C3.81518 36.92 2.89088 35.9957 2.89088 34.8596C2.89088 33.7236 3.81518 32.7993 4.95125 32.7993C7.10274 32.7993 8.85318 31.0488 8.85318 28.8972V20.4717C8.85318 13.774 14.3021 8.32512 20.9998 8.32512C27.6974 8.32512 33.1463 13.774 33.1463 20.4717V28.8972C33.1463 31.0488 34.8968 32.7993 37.0483 32.7993C38.1843 32.7993 39.1086 33.7236 39.1086 34.8596C39.1087 35.9957 38.1843 36.92 37.0483 36.92Z" fill="white"/>
</svg>
