<svg width="78" height="78" viewBox="0 0 78 78" fill="none" xmlns="http://www.w3.org/2000/svg">
<circle cx="38.9993" cy="39.0008" r="34.0213" fill="#009944"/>
<g clip-path="url(#clip0_437_1650)">
<path d="M30.8277 42.769C31.1359 42.5913 31.2414 42.1968 31.0636 41.8886C30.8856 41.5807 30.4914 41.4749 30.1832 41.6527C29.875 41.8307 29.7693 42.2252 29.9473 42.5331C30.125 42.8413 30.5196 42.947 30.8277 42.769Z" fill="white"/>
<path d="M28.1865 47.2176L31.4323 52.8399C32.1327 54.0544 33.7083 54.5041 34.9543 53.7837C36.1872 53.0712 36.611 51.4959 35.8977 50.262L33.9641 46.9124L35.6386 45.9456C35.9468 45.7674 36.0525 45.3734 35.8745 45.0652L35.0364 43.6135C35.1363 43.5941 35.7935 43.4652 47.3817 41.192C48.8143 41.1142 49.6725 39.5474 48.949 38.2948L46.8069 34.5848L48.1758 32.5114C48.3102 32.3075 48.3183 32.0454 48.1962 31.8339L46.9071 29.6012C46.785 29.3897 46.5531 29.2659 46.3102 29.2802L43.8305 29.429L41.4525 25.3101C41.1081 24.7134 40.491 24.3521 39.8021 24.3435C39.7938 24.3433 39.7858 24.3433 39.7775 24.3433C39.1118 24.3433 38.5075 24.6746 38.1495 25.2348L29.7298 35.9607L24.2561 39.1209C22.1032 40.3634 21.3575 43.1253 22.6047 45.284C23.7443 47.2579 26.1466 48.0343 28.1865 47.2176ZM34.7816 50.9068C35.1376 51.5226 34.9269 52.3106 34.3093 52.6674C33.6897 53.0257 32.9006 52.8056 32.5487 52.1956L29.326 46.6131L31.5587 45.324C35.2884 51.7849 34.7217 50.8033 34.7816 50.9068ZM33.3196 45.7958L32.675 44.6795L33.7914 44.035L34.4359 45.1513L33.3196 45.7958ZM45.9899 30.5907L46.8807 32.1335L46.0863 33.3365L44.551 30.677L45.9899 30.5907ZM39.2276 25.9415C39.4006 25.6585 39.675 25.6293 39.7863 25.6323C39.8963 25.6336 40.1705 25.6678 40.3359 25.9543L47.8326 38.9394C48.0768 39.3621 47.78 39.8936 47.2903 39.9057C47.2024 39.9077 47.1619 39.9235 46.9368 39.9656L39.0068 26.2303C39.1732 26.0163 39.1946 25.9956 39.2276 25.9415ZM38.149 27.323L45.5997 40.2279L34.3551 42.4334L30.9361 36.5116L38.149 27.323ZM23.7211 44.6395C23.4381 44.1498 23.2885 43.5939 23.2885 43.0314C23.2885 41.8818 23.9064 40.8113 24.9006 40.2373L29.9242 37.3369L33.1469 42.9186L28.1233 45.8192C26.5842 46.7075 24.6096 46.1783 23.7211 44.6395Z" fill="white"/>
<path d="M28.831 43.1778C28.653 42.8697 28.2587 42.7639 27.9506 42.9419L26.8342 43.5864C26.5265 43.7642 26.1315 43.6582 25.9538 43.3505C25.7758 43.0424 25.3815 42.9366 25.0733 43.1146C24.7652 43.2926 24.6594 43.6869 24.8374 43.9951C25.3679 44.914 26.5512 45.238 27.4787 44.7028L28.5951 44.0583C28.9033 43.8803 29.009 43.4862 28.831 43.1778Z" fill="white"/>
<path d="M54.0421 25.7217L50.4506 27.7202C50.1397 27.8934 50.0277 28.286 50.2009 28.5969C50.3736 28.9076 50.7658 29.0201 51.0775 28.8466L54.6688 26.8481C54.98 26.6749 55.0918 26.2824 54.9185 25.9714C54.7456 25.6602 54.3531 25.5485 54.0421 25.7217Z" fill="white"/>
<path d="M53.6655 32.3973L51.1752 31.7301C50.8313 31.638 50.4778 31.8419 50.3856 32.1858C50.2935 32.5298 50.4977 32.883 50.8416 32.9751L53.3321 33.6423C53.678 33.7352 54.0298 33.528 54.1214 33.1866C54.2136 32.8427 54.0094 32.4892 53.6655 32.3973Z" fill="white"/>
<path d="M47.4074 23.3802L46.7394 25.8707C46.6473 26.2146 46.8512 26.5678 47.1951 26.6602C47.5388 26.7521 47.8923 26.5487 47.9847 26.2045L48.6524 23.714C48.7445 23.3701 48.5406 23.0166 48.1967 22.9245C47.853 22.8323 47.4995 23.0363 47.4074 23.3802Z" fill="white"/>
</g>
<circle cx="39" cy="39" r="38.5" stroke="#009944" stroke-dasharray="3 3"/>
<defs>
<clipPath id="clip0_437_1650">
<rect width="33" height="33" fill="white" transform="translate(22 22)"/>
</clipPath>
</defs>
</svg>
