<svg width="118" height="102" viewBox="0 0 118 102" fill="none" xmlns="http://www.w3.org/2000/svg">
<path d="M75.3824 0.811523H49.6421C48.6254 0.811523 47.8035 1.63521 47.8035 2.65012C47.8035 3.66502 48.6254 4.48871 49.6421 4.48871H75.3824C76.3992 4.48871 77.221 3.66502 77.221 2.65012C77.221 1.63521 76.3992 0.811523 75.3824 0.811523Z" fill="#878787"/>
<path d="M66.1894 0.811523C65.1726 0.811523 64.3508 1.63521 64.3508 2.65012V11.8431C64.3508 12.858 65.1726 13.6817 66.1894 13.6817C67.2061 13.6817 68.028 12.858 68.028 11.8431V2.65012C68.028 1.63521 67.2061 0.811523 66.1894 0.811523Z" fill="#878787"/>
<path d="M66.1894 10.0045H58.8351C57.8183 10.0045 56.9965 10.8282 56.9965 11.8431C56.9965 12.858 57.8183 13.6817 58.8351 13.6817H66.1894C67.2062 13.6817 68.028 12.858 68.028 11.8431C68.028 10.8282 67.2062 10.0045 66.1894 10.0045Z" fill="#878787"/>
<path d="M58.8351 0.811523C57.8183 0.811523 56.9965 1.63521 56.9965 2.65012V11.8431C56.9965 12.858 57.8183 13.6817 58.8351 13.6817C59.8518 13.6817 60.6736 12.858 60.6736 11.8431V2.65012C60.6736 1.63521 59.8518 0.811523 58.8351 0.811523Z" fill="#878787"/>
<path d="M49.6421 37.5835H27.5789C26.5622 37.5835 25.7404 38.4072 25.7404 39.4221C25.7404 40.437 26.5622 41.2607 27.5789 41.2607H49.6421C50.6588 41.2607 51.4807 40.437 51.4807 39.4221C51.4807 38.4072 50.6588 37.5835 49.6421 37.5835Z" fill="#878787"/>
<path d="M75.3823 33.9062C74.3656 33.9062 73.5437 34.7299 73.5437 35.7448V67.0009C73.5437 68.0177 74.3656 68.8395 75.3823 68.8395C76.399 68.8395 77.2209 68.0177 77.2209 67.0009V35.7448C77.2209 34.7299 76.399 33.9062 75.3823 33.9062Z" fill="#878787"/>
<path d="M115.831 79.8711H110.354C109.338 79.8711 108.516 80.6929 108.516 81.7097C108.516 82.7264 109.338 83.5483 110.354 83.5483H115.831C116.848 83.5483 117.67 82.7264 117.67 81.7097C117.67 80.6929 116.848 79.8711 115.831 79.8711Z" fill="#878787"/>
<path d="M115.831 79.8711C114.815 79.8711 113.993 80.6929 113.993 81.7097V89.0641C113.993 90.0808 114.815 90.9027 115.831 90.9027C116.848 90.9027 117.67 90.0808 117.67 89.0641V81.7097C117.67 80.6929 116.848 79.8711 115.831 79.8711Z" fill="#878787"/>
<path d="M18.386 87.2255C18.3842 87.2255 18.3823 87.2255 18.3805 87.2255L5.51034 87.2641C4.49359 87.2678 3.67358 88.0914 3.67726 89.1082C3.68094 90.1231 4.50279 90.9413 5.51585 90.9413C5.51769 90.9413 5.51953 90.9413 5.52137 90.9413L18.3915 90.9027C19.4083 90.899 20.2283 90.0753 20.2246 89.0585C20.2209 88.0436 19.3991 87.2255 18.386 87.2255Z" fill="#878787"/>
<path d="M113.993 70.678H112.154C111.138 70.678 110.316 71.4998 110.316 72.5166C110.316 73.5333 111.138 74.3552 112.154 74.3552H113.993C115.01 74.3552 115.831 73.5333 115.831 72.5166C115.831 71.4998 115.01 70.678 113.993 70.678Z" fill="#878787"/>
<path d="M113.993 57.808C112.976 57.808 112.154 58.6298 112.154 59.6466V81.7097C112.154 82.7264 112.976 83.5483 113.993 83.5483C115.01 83.5483 115.831 82.7264 115.831 81.7097V59.6466C115.831 58.6298 115.01 57.808 113.993 57.808Z" fill="#878787"/>
<path d="M102.961 33.9062H75.3823C74.3656 33.9062 73.5437 34.7299 73.5437 35.7448C73.5437 36.7597 74.3656 37.5834 75.3823 37.5834H102.961C103.978 37.5834 104.8 36.7597 104.8 35.7448C104.8 34.7299 103.978 33.9062 102.961 33.9062Z" fill="#878787"/>
<path d="M115.663 58.8762L104.631 34.9745C104.206 34.0533 103.118 33.6507 102.191 34.0754C101.268 34.5001 100.867 35.5941 101.292 36.5152L112.324 60.4169C112.634 61.0899 113.3 61.4852 113.995 61.4852C114.252 61.4852 114.514 61.4318 114.764 61.316C115.687 60.8913 116.087 59.7973 115.663 58.8762Z" fill="#878787"/>
<path d="M5.51584 79.8711C4.4991 79.8711 3.67725 80.6929 3.67725 81.7097V89.1799C3.67725 90.1966 4.4991 91.0185 5.51584 91.0185C6.53258 91.0185 7.35443 90.1948 7.35443 89.1799V81.7097C7.35443 80.6929 6.53258 79.8711 5.51584 79.8711Z" fill="#878787"/>
<path d="M1.83859 55.9694C0.821851 55.9694 0 56.7912 0 57.808V81.7097C0 82.7264 0.821851 83.5483 1.83859 83.5483C2.85534 83.5483 3.67719 82.7264 3.67719 81.7097V57.808C3.67719 56.7912 2.85534 55.9694 1.83859 55.9694Z" fill="#878787"/>
<path d="M75.3823 55.9694H1.83859C0.821851 55.9694 0 56.7912 0 57.808C0 58.8247 0.821851 59.6465 1.83859 59.6465H75.3823C76.3991 59.6465 77.2209 58.8247 77.2209 57.808C77.2209 56.7912 76.3991 55.9694 75.3823 55.9694Z" fill="#878787"/>
<path d="M11.0316 79.8711H1.83859C0.821851 79.8711 0 80.6929 0 81.7097C0 82.7264 0.821851 83.5483 1.83859 83.5483H11.0316C12.0483 83.5483 12.8702 82.7264 12.8702 81.7097C12.8702 80.6929 12.0483 79.8711 11.0316 79.8711Z" fill="#878787"/>
<path d="M29.4176 76.1938C22.3224 76.1938 16.5474 81.9689 16.5474 89.064C16.5474 96.1591 22.3224 101.934 29.4176 101.934C36.5127 101.934 42.2877 96.1591 42.2877 89.064C42.2877 81.9689 36.5127 76.1938 29.4176 76.1938ZM29.4176 98.257C24.3486 98.257 20.2246 94.133 20.2246 89.064C20.2246 83.995 24.3486 79.871 29.4176 79.871C34.4866 79.871 38.6105 83.995 38.6105 89.064C38.6105 94.133 34.4866 98.257 29.4176 98.257Z" fill="#878787"/>
<path d="M29.4174 83.5482C26.3764 83.5482 23.9016 86.023 23.9016 89.064C23.9016 92.105 26.3764 94.5798 29.4174 94.5798C32.4584 94.5798 34.9332 92.105 34.9332 89.064C34.9332 86.023 32.4584 83.5482 29.4174 83.5482ZM29.4174 90.9026C28.4025 90.9026 27.5788 90.0789 27.5788 89.064C27.5788 88.0491 28.4025 87.2254 29.4174 87.2254C30.4323 87.2254 31.256 88.0491 31.256 89.064C31.256 90.0789 30.4323 90.9026 29.4174 90.9026Z" fill="#878787"/>
<path d="M90.0911 83.5482C87.0501 83.5482 84.5753 86.023 84.5753 89.064C84.5753 92.105 87.0501 94.5798 90.0911 94.5798C93.1321 94.5798 95.6069 92.105 95.6069 89.064C95.6069 86.023 93.1321 83.5482 90.0911 83.5482ZM90.0911 90.9026C89.0762 90.9026 88.2525 90.0789 88.2525 89.064C88.2525 88.0491 89.0762 87.2254 90.0911 87.2254C91.106 87.2254 91.9297 88.0491 91.9297 89.064C91.9297 90.0789 91.106 90.9026 90.0911 90.9026Z" fill="#878787"/>
<path d="M90.091 76.1938C82.9958 76.1938 77.2208 81.9689 77.2208 89.064C77.2208 96.1591 82.9958 101.934 90.091 101.934C97.1861 101.934 102.961 96.1591 102.961 89.064C102.961 81.9689 97.1861 76.1938 90.091 76.1938ZM90.091 98.257C85.022 98.257 80.898 94.133 80.898 89.064C80.898 83.995 85.022 79.871 90.091 79.871C95.16 79.871 99.2839 83.995 99.2839 89.064C99.2839 94.133 95.16 98.257 90.091 98.257Z" fill="#878787"/>
<path d="M79.1056 87.2255H40.4491C39.4324 87.2255 38.6105 88.0473 38.6105 89.0641C38.6105 90.0808 39.4324 90.9027 40.4491 90.9027H79.1056C80.1223 90.9027 80.9442 90.0808 80.9442 89.0641C80.9442 88.0473 80.1223 87.2255 79.1056 87.2255Z" fill="#878787"/>
<path d="M115.831 87.2255H101.123C100.106 87.2255 99.2839 88.0473 99.2839 89.0641C99.2839 90.0808 100.106 90.9027 101.123 90.9027H115.831C116.848 90.9027 117.67 90.0808 117.67 89.0641C117.67 88.0473 116.848 87.2255 115.831 87.2255Z" fill="#878787"/>
<path d="M113.993 57.808H91.9296C90.9129 57.808 90.091 58.6298 90.091 59.6466C90.091 60.6633 90.9129 61.4852 91.9296 61.4852H113.993C115.009 61.4852 115.831 60.6633 115.831 59.6466C115.831 58.6298 115.009 57.808 113.993 57.808Z" fill="#878787"/>
<path d="M91.9297 57.8079C88.8886 57.8079 86.4139 55.3331 86.4139 52.2921C86.4139 51.2772 85.592 50.4535 84.5753 50.4535C83.5585 50.4535 82.7367 51.2772 82.7367 52.2921C82.7367 57.3611 86.8607 61.4851 91.9297 61.4851C92.9464 61.4851 93.7683 60.6632 93.7683 59.6465C93.7683 58.6297 92.9464 57.8079 91.9297 57.8079Z" fill="#878787"/>
<path d="M84.5753 33.9062C83.5585 33.9062 82.7367 34.7299 82.7367 35.7448V52.2922C82.7367 53.3089 83.5585 54.1308 84.5753 54.1308C85.592 54.1308 86.4139 53.3089 86.4139 52.2922V35.7448C86.4139 34.7299 85.592 33.9062 84.5753 33.9062Z" fill="#878787"/>
<path d="M75.3823 0.811523C74.3656 0.811523 73.5437 1.63521 73.5437 2.65012V57.8079C73.5437 58.8247 74.3656 59.6465 75.3823 59.6465C76.399 59.6465 77.2209 58.8247 77.2209 57.8079V2.65012C77.2209 1.63521 76.399 0.811523 75.3823 0.811523Z" fill="#878787"/>
<path d="M49.6421 0.811523C48.6254 0.811523 47.8035 1.63521 47.8035 2.65012V57.8079C47.8035 58.8247 48.6254 59.6465 49.6421 59.6465C50.6589 59.6465 51.4807 58.8247 51.4807 57.8079V2.65012C51.4807 1.63521 50.6589 0.811523 49.6421 0.811523Z" fill="#878787"/>
<path d="M27.5789 15.5204C26.5622 15.5204 25.7404 16.3441 25.7404 17.359V57.808C25.7404 58.8248 26.5622 59.6466 27.5789 59.6466C28.5957 59.6466 29.4175 58.8248 29.4175 57.808V17.359C29.4175 16.3441 28.5957 15.5204 27.5789 15.5204Z" fill="#878787"/>
<path d="M38.6104 37.5835C37.5936 37.5835 36.7718 38.4072 36.7718 39.4221V44.9379C36.7718 45.9528 37.5936 46.7765 38.6104 46.7765C39.6271 46.7765 40.449 45.9528 40.449 44.9379V39.4221C40.449 38.4072 39.6271 37.5835 38.6104 37.5835Z" fill="#878787"/>
<path d="M49.6421 15.5204H27.5789C26.5622 15.5204 25.7404 16.3441 25.7404 17.359C25.7404 18.3739 26.5622 19.1976 27.5789 19.1976H49.6421C50.6588 19.1976 51.4807 18.3739 51.4807 17.359C51.4807 16.3441 50.6588 15.5204 49.6421 15.5204Z" fill="#878787"/>
<path d="M38.6104 15.5204C37.5936 15.5204 36.7718 16.3441 36.7718 17.359V21.0362C36.7718 22.0511 37.5936 22.8748 38.6104 22.8748C39.6271 22.8748 40.449 22.0511 40.449 21.0362V17.359C40.449 16.3441 39.6271 15.5204 38.6104 15.5204Z" fill="#878787"/>
<path d="M5.51584 28.3904C4.4991 28.3904 3.67725 29.2141 3.67725 30.229V57.8079C3.67725 58.8246 4.4991 59.6465 5.51584 59.6465C6.53258 59.6465 7.35443 58.8246 7.35443 57.8079V30.229C7.35443 29.2141 6.53258 28.3904 5.51584 28.3904Z" fill="#878787"/>
<path d="M27.579 28.3904H5.51584C4.4991 28.3904 3.67725 29.2141 3.67725 30.229C3.67725 31.2439 4.4991 32.0676 5.51584 32.0676H27.579C28.5957 32.0676 29.4176 31.2439 29.4176 30.229C29.4176 29.2141 28.5957 28.3904 27.579 28.3904Z" fill="#878787"/>
<path d="M12.8701 28.3904C11.8534 28.3904 11.0316 29.2141 11.0316 30.229V35.7448C11.0316 36.7597 11.8534 37.5833 12.8701 37.5833C13.8869 37.5833 14.7087 36.7597 14.7087 35.7448V30.229C14.7087 29.2141 13.8869 28.3904 12.8701 28.3904Z" fill="#878787"/>
<path d="M20.2245 33.9062H12.8701C11.8534 33.9062 11.0316 34.7299 11.0316 35.7448C11.0316 36.7597 11.8534 37.5834 12.8701 37.5834H20.2245C21.2413 37.5834 22.0631 36.7597 22.0631 35.7448C22.0631 34.7299 21.2413 33.9062 20.2245 33.9062Z" fill="#878787"/>
<path d="M20.2245 28.3904C19.2077 28.3904 18.3859 29.2141 18.3859 30.229V35.7448C18.3859 36.7597 19.2077 37.5833 20.2245 37.5833C21.2412 37.5833 22.0631 36.7597 22.0631 35.7448V30.229C22.0631 29.2141 21.2412 28.3904 20.2245 28.3904Z" fill="#878787"/>
</svg>
