<svg width="94" height="81" viewBox="0 0 94 81" fill="none" xmlns="http://www.w3.org/2000/svg">
<path d="M60.215 0H39.6537C38.8416 0 38.1851 0.657961 38.1851 1.46866C38.1851 2.27937 38.8416 2.93733 39.6537 2.93733H60.215C61.0272 2.93733 61.6837 2.27937 61.6837 1.46866C61.6837 0.657961 61.0272 0 60.215 0Z" fill="#009944"/>
<path d="M52.872 0C52.0598 0 51.4033 0.657961 51.4033 1.46866V8.81198C51.4033 9.62268 52.0598 10.2806 52.872 10.2806C53.6842 10.2806 54.3406 9.62268 54.3406 8.81198V1.46866C54.3406 0.657961 53.6842 0 52.872 0Z" fill="#009944"/>
<path d="M52.8721 7.34326H46.9975C46.1853 7.34326 45.5288 8.00122 45.5288 8.81193C45.5288 9.62263 46.1853 10.2806 46.9975 10.2806H52.8721C53.6843 10.2806 54.3408 9.62263 54.3408 8.81193C54.3408 8.00122 53.6843 7.34326 52.8721 7.34326Z" fill="#009944"/>
<path d="M46.9975 0C46.1853 0 45.5288 0.657961 45.5288 1.46866V8.81198C45.5288 9.62268 46.1853 10.2806 46.9975 10.2806C47.8096 10.2806 48.4661 9.62268 48.4661 8.81198V1.46866C48.4661 0.657961 47.8096 0 46.9975 0Z" fill="#009944"/>
<path d="M39.6542 29.373H22.0302C21.218 29.373 20.5615 30.031 20.5615 30.8417C20.5615 31.6524 21.218 32.3104 22.0302 32.3104H39.6542C40.4663 32.3104 41.1228 31.6524 41.1228 30.8417C41.1228 30.031 40.4663 29.373 39.6542 29.373Z" fill="#009944"/>
<path d="M60.2152 26.436C59.4031 26.436 58.7466 27.094 58.7466 27.9047V52.872C58.7466 53.6842 59.4031 54.3406 60.2152 54.3406C61.0274 54.3406 61.6839 53.6842 61.6839 52.872V27.9047C61.6839 27.094 61.0274 26.436 60.2152 26.436Z" fill="#009944"/>
<path d="M92.5259 63.1523H88.1508C87.3386 63.1523 86.6821 63.8088 86.6821 64.621C86.6821 65.4332 87.3386 66.0897 88.1508 66.0897H92.5259C93.3381 66.0897 93.9946 65.4332 93.9946 64.621C93.9946 63.8088 93.3381 63.1523 92.5259 63.1523Z" fill="#009944"/>
<path d="M92.5258 63.1523C91.7136 63.1523 91.0571 63.8088 91.0571 64.621V70.4957C91.0571 71.3078 91.7136 71.9643 92.5258 71.9643C93.338 71.9643 93.9945 71.3078 93.9945 70.4957V64.621C93.9945 63.8088 93.338 63.1523 92.5258 63.1523Z" fill="#009944"/>
<path d="M14.6868 69.0273C14.6854 69.0273 14.6839 69.0273 14.6824 69.0273L4.40177 69.0582C3.5896 69.0611 2.93457 69.7191 2.93751 70.5313C2.94045 71.342 3.59694 71.9955 4.40617 71.9955C4.40764 71.9955 4.40911 71.9955 4.41058 71.9955L14.6912 71.9647C15.5034 71.9617 16.1584 71.3038 16.1555 70.4916C16.1525 69.6809 15.4961 69.0273 14.6868 69.0273Z" fill="#009944"/>
<path d="M91.057 55.8091H89.5883C88.7761 55.8091 88.1196 56.4656 88.1196 57.2777C88.1196 58.0899 88.7761 58.7464 89.5883 58.7464H91.057C91.8691 58.7464 92.5256 58.0899 92.5256 57.2777C92.5256 56.4656 91.8691 55.8091 91.057 55.8091Z" fill="#009944"/>
<path d="M91.057 45.5288C90.2449 45.5288 89.5884 46.1853 89.5884 46.9975V64.6214C89.5884 65.4336 90.2449 66.0901 91.057 66.0901C91.8692 66.0901 92.5257 65.4336 92.5257 64.6214V46.9975C92.5257 46.1853 91.8692 45.5288 91.057 45.5288Z" fill="#009944"/>
<path d="M82.2452 26.436H60.2152C59.4031 26.436 58.7466 27.094 58.7466 27.9047C58.7466 28.7154 59.4031 29.3734 60.2152 29.3734H82.2452C83.0574 29.3734 83.7139 28.7154 83.7139 27.9047C83.7139 27.094 83.0574 26.436 82.2452 26.436Z" fill="#009944"/>
<path d="M92.3908 46.382L83.5788 27.2893C83.2396 26.5535 82.3701 26.2319 81.6299 26.5712C80.8926 26.9104 80.5725 27.7843 80.9117 28.5201L89.7237 47.6127C89.9719 48.1502 90.5036 48.466 91.0587 48.466C91.2643 48.466 91.4729 48.4234 91.6726 48.3309C92.4099 47.9916 92.7301 47.1178 92.3908 46.382Z" fill="#009944"/>
<path d="M4.40616 63.1523C3.59399 63.1523 2.9375 63.8088 2.9375 64.621V70.5882C2.9375 71.4004 3.59399 72.0568 4.40616 72.0568C5.21833 72.0568 5.87483 71.3989 5.87483 70.5882V64.621C5.87483 63.8088 5.21833 63.1523 4.40616 63.1523Z" fill="#009944"/>
<path d="M1.46866 44.0601C0.656493 44.0601 0 44.7166 0 45.5287V64.6213C0 65.4335 0.656493 66.09 1.46866 66.09C2.28083 66.09 2.93733 65.4335 2.93733 64.6213V45.5287C2.93733 44.7166 2.28083 44.0601 1.46866 44.0601Z" fill="#009944"/>
<path d="M60.2152 44.0601H1.46866C0.656493 44.0601 0 44.7166 0 45.5287C0 46.3409 0.656493 46.9974 1.46866 46.9974H60.2152C61.0274 46.9974 61.6839 46.3409 61.6839 45.5287C61.6839 44.7166 61.0274 44.0601 60.2152 44.0601Z" fill="#009944"/>
<path d="M8.81198 63.1523H1.46866C0.656493 63.1523 0 63.8088 0 64.621C0 65.4332 0.656493 66.0897 1.46866 66.0897H8.81198C9.62415 66.0897 10.2806 65.4332 10.2806 64.621C10.2806 63.8088 9.62415 63.1523 8.81198 63.1523Z" fill="#009944"/>
<path d="M23.4984 60.2153C17.8308 60.2153 13.2178 64.8284 13.2178 70.496C13.2178 76.1635 17.8308 80.7766 23.4984 80.7766C29.166 80.7766 33.7791 76.1635 33.7791 70.496C33.7791 64.8284 29.166 60.2153 23.4984 60.2153ZM23.4984 77.8393C19.4493 77.8393 16.1551 74.5451 16.1551 70.496C16.1551 66.4469 19.4493 63.1527 23.4984 63.1527C27.5475 63.1527 30.8417 66.4469 30.8417 70.496C30.8417 74.5451 27.5475 77.8393 23.4984 77.8393Z" fill="#009944"/>
<path d="M23.4988 66.0898C21.0696 66.0898 19.0928 68.0667 19.0928 70.4958C19.0928 72.925 21.0696 74.9018 23.4988 74.9018C25.9279 74.9018 27.9048 72.925 27.9048 70.4958C27.9048 68.0667 25.9279 66.0898 23.4988 66.0898ZM23.4988 71.9645C22.6881 71.9645 22.0301 71.3065 22.0301 70.4958C22.0301 69.6851 22.6881 69.0272 23.4988 69.0272C24.3095 69.0272 24.9674 69.6851 24.9674 70.4958C24.9674 71.3065 24.3095 71.9645 23.4988 71.9645Z" fill="#009944"/>
<path d="M71.9646 66.0898C69.5354 66.0898 67.5586 68.0667 67.5586 70.4958C67.5586 72.925 69.5354 74.9018 71.9646 74.9018C74.3938 74.9018 76.3706 72.925 76.3706 70.4958C76.3706 68.0667 74.3938 66.0898 71.9646 66.0898ZM71.9646 71.9645C71.1539 71.9645 70.4959 71.3065 70.4959 70.4958C70.4959 69.6851 71.1539 69.0272 71.9646 69.0272C72.7753 69.0272 73.4332 69.6851 73.4332 70.4958C73.4332 71.3065 72.7753 71.9645 71.9646 71.9645Z" fill="#009944"/>
<path d="M71.9647 60.2153C66.2972 60.2153 61.6841 64.8284 61.6841 70.496C61.6841 76.1635 66.2972 80.7766 71.9647 80.7766C77.6323 80.7766 82.2454 76.1635 82.2454 70.496C82.2454 64.8284 77.6323 60.2153 71.9647 60.2153ZM71.9647 77.8393C67.9156 77.8393 64.6214 74.5451 64.6214 70.496C64.6214 66.4469 67.9156 63.1527 71.9647 63.1527C76.0138 63.1527 79.308 66.4469 79.308 70.496C79.308 74.5451 76.0138 77.8393 71.9647 77.8393Z" fill="#009944"/>
<path d="M63.1891 69.0273H32.3105C31.4983 69.0273 30.8418 69.6838 30.8418 70.496C30.8418 71.3082 31.4983 71.9647 32.3105 71.9647H63.1891C64.0013 71.9647 64.6578 71.3082 64.6578 70.496C64.6578 69.6838 64.0013 69.0273 63.1891 69.0273Z" fill="#009944"/>
<path d="M92.5256 69.0273H80.7763C79.9641 69.0273 79.3076 69.6838 79.3076 70.496C79.3076 71.3082 79.9641 71.9647 80.7763 71.9647H92.5256C93.3378 71.9647 93.9943 71.3082 93.9943 70.496C93.9943 69.6838 93.3378 69.0273 92.5256 69.0273Z" fill="#009944"/>
<path d="M91.057 45.5288H73.433C72.6208 45.5288 71.9644 46.1853 71.9644 46.9975C71.9644 47.8096 72.6208 48.4661 73.433 48.4661H91.057C91.8692 48.4661 92.5256 47.8096 92.5256 46.9975C92.5256 46.1853 91.8692 45.5288 91.057 45.5288Z" fill="#009944"/>
<path d="M73.4332 45.5285C71.004 45.5285 69.0272 43.5516 69.0272 41.1225C69.0272 40.3118 68.3707 39.6538 67.5585 39.6538C66.7463 39.6538 66.0898 40.3118 66.0898 41.1225C66.0898 45.1716 69.3841 48.4658 73.4332 48.4658C74.2453 48.4658 74.9018 47.8093 74.9018 46.9971C74.9018 46.185 74.2453 45.5285 73.4332 45.5285Z" fill="#009944"/>
<path d="M67.5585 26.436C66.7463 26.436 66.0898 27.094 66.0898 27.9047V41.1227C66.0898 41.9348 66.7463 42.5913 67.5585 42.5913C68.3707 42.5913 69.0272 41.9348 69.0272 41.1227V27.9047C69.0272 27.094 68.3707 26.436 67.5585 26.436Z" fill="#009944"/>
<path d="M60.2152 0C59.4031 0 58.7466 0.657961 58.7466 1.46866V45.5286C58.7466 46.3407 59.4031 46.9972 60.2152 46.9972C61.0274 46.9972 61.6839 46.3407 61.6839 45.5286V1.46866C61.6839 0.657961 61.0274 0 60.2152 0Z" fill="#009944"/>
<path d="M39.6537 0C38.8416 0 38.1851 0.657961 38.1851 1.46866V45.5286C38.1851 46.3407 38.8416 46.9972 39.6537 46.9972C40.4659 46.9972 41.1224 46.3407 41.1224 45.5286V1.46866C41.1224 0.657961 40.4659 0 39.6537 0Z" fill="#009944"/>
<path d="M22.0302 11.7495C21.218 11.7495 20.5615 12.4075 20.5615 13.2182V45.5288C20.5615 46.3409 21.218 46.9974 22.0302 46.9974C22.8424 46.9974 23.4989 46.3409 23.4989 45.5288V13.2182C23.4989 12.4075 22.8424 11.7495 22.0302 11.7495Z" fill="#009944"/>
<path d="M30.8417 29.373C30.0295 29.373 29.373 30.031 29.373 30.8417V35.2477C29.373 36.0584 30.0295 36.7164 30.8417 36.7164C31.6539 36.7164 32.3104 36.0584 32.3104 35.2477V30.8417C32.3104 30.031 31.6539 29.373 30.8417 29.373Z" fill="#009944"/>
<path d="M39.6542 11.7495H22.0302C21.218 11.7495 20.5615 12.4075 20.5615 13.2182C20.5615 14.0289 21.218 14.6868 22.0302 14.6868H39.6542C40.4663 14.6868 41.1228 14.0289 41.1228 13.2182C41.1228 12.4075 40.4663 11.7495 39.6542 11.7495Z" fill="#009944"/>
<path d="M30.8417 11.7495C30.0295 11.7495 29.373 12.4075 29.373 13.2182V16.1555C29.373 16.9662 30.0295 17.6242 30.8417 17.6242C31.6539 17.6242 32.3104 16.9662 32.3104 16.1555V13.2182C32.3104 12.4075 31.6539 11.7495 30.8417 11.7495Z" fill="#009944"/>
<path d="M4.40616 22.0298C3.59399 22.0298 2.9375 22.6877 2.9375 23.4984V45.5284C2.9375 46.3406 3.59399 46.9971 4.40616 46.9971C5.21833 46.9971 5.87483 46.3406 5.87483 45.5284V23.4984C5.87483 22.6877 5.21833 22.0298 4.40616 22.0298Z" fill="#009944"/>
<path d="M22.0301 22.0298H4.40616C3.59399 22.0298 2.9375 22.6877 2.9375 23.4984C2.9375 24.3092 3.59399 24.9671 4.40616 24.9671H22.0301C22.8423 24.9671 23.4988 24.3092 23.4988 23.4984C23.4988 22.6877 22.8423 22.0298 22.0301 22.0298Z" fill="#009944"/>
<path d="M10.2807 22.0298C9.4685 22.0298 8.81201 22.6877 8.81201 23.4984V27.9044C8.81201 28.7151 9.4685 29.3731 10.2807 29.3731C11.0928 29.3731 11.7493 28.7151 11.7493 27.9044V23.4984C11.7493 22.6877 11.0928 22.0298 10.2807 22.0298Z" fill="#009944"/>
<path d="M16.1553 26.436H10.2807C9.4685 26.436 8.81201 27.094 8.81201 27.9047C8.81201 28.7154 9.4685 29.3734 10.2807 29.3734H16.1553C16.9675 29.3734 17.624 28.7154 17.624 27.9047C17.624 27.094 16.9675 26.436 16.1553 26.436Z" fill="#009944"/>
<path d="M16.1552 22.0298C15.343 22.0298 14.6865 22.6877 14.6865 23.4984V27.9044C14.6865 28.7151 15.343 29.3731 16.1552 29.3731C16.9674 29.3731 17.6239 28.7151 17.6239 27.9044V23.4984C17.6239 22.6877 16.9674 22.0298 16.1552 22.0298Z" fill="#009944"/>
</svg>
