<svg width="48" height="48" viewBox="0 0 48 48" fill="none" xmlns="http://www.w3.org/2000/svg">
<g clip-path="url(#clip0)">
<path d="M22.378 17.8452V9.51989C24.3258 9.01942 25.7696 7.24846 25.7696 5.14654C25.7696 2.65708 23.7443 0.631836 21.2548 0.631836C18.7655 0.631836 16.7403 2.65708 16.7403 5.14654C16.7403 7.24846 18.184 9.01927 20.1317 9.51974V17.845C17.7694 18.2005 15.7636 19.6593 14.6574 21.6782L9.7171 17.8377C9.83795 17.4976 9.90429 17.1318 9.90429 16.7508C9.90429 14.9553 8.44347 13.4944 6.64795 13.4944C4.85243 13.4944 3.3916 14.9553 3.3916 16.7508C3.3916 18.5463 4.85243 20.0071 6.64795 20.0071C7.24276 20.0071 7.80028 19.846 8.28069 19.5664L13.8649 23.9076C13.7826 24.3525 13.7373 24.8101 13.7373 25.2785C13.7373 26.9468 14.2842 28.4892 15.2071 29.7377L8.89317 36.0517C8.45455 36.4903 8.45455 37.2015 8.89317 37.6399C9.11256 37.8592 9.40008 37.9689 9.68745 37.9689C9.97482 37.9689 10.2623 37.8593 10.4817 37.6399L16.7957 31.326C17.7585 32.0377 18.8961 32.5258 20.1317 32.7118V41.0556C18.8879 41.5142 17.9985 42.7113 17.9985 44.1122C17.9985 45.9077 19.4593 47.3685 21.2548 47.3685C23.0504 47.3685 24.5112 45.9077 24.5112 44.1122C24.5112 42.7111 23.6218 41.514 22.378 41.0556V32.7119C25.9924 32.1682 28.7724 29.0421 28.7724 25.2787C28.7724 21.515 25.9922 18.3889 22.378 17.8452ZM6.64795 17.761C6.09087 17.761 5.63787 17.3079 5.63787 16.7509C5.63787 16.194 6.09087 15.7409 6.64795 15.7409C7.20502 15.7409 7.65802 16.194 7.65802 16.7509C7.65802 17.3079 7.20487 17.761 6.64795 17.761ZM18.9864 5.14654C18.9864 3.89567 20.004 2.87811 21.2547 2.87811C22.5054 2.87811 23.5231 3.89567 23.5231 5.14654C23.5231 6.39742 22.5054 7.41498 21.2547 7.41498C20.004 7.41498 18.9864 6.39742 18.9864 5.14654ZM21.2548 45.1223C20.6978 45.1223 20.2448 44.6691 20.2448 44.1122C20.2448 43.6247 20.5917 43.2168 21.0518 43.1226C21.1177 43.1348 21.1854 43.1419 21.2548 43.1419C21.3243 43.1419 21.392 43.1348 21.4579 43.1226C21.9179 43.2168 22.2649 43.6247 22.2649 44.1122C22.2649 44.6691 21.8118 45.1223 21.2548 45.1223ZM21.2548 30.5496C18.3483 30.5496 15.9837 28.1849 15.9837 25.2784C15.9837 24.7655 16.0588 24.27 16.1959 23.8008C16.2033 23.7776 16.2102 23.7545 16.2159 23.731C16.8785 21.5773 18.8865 20.0071 21.2548 20.0071C24.1614 20.0071 26.5261 22.3719 26.5261 25.2784C26.5261 28.1851 24.1614 30.5496 21.2548 30.5496Z" fill="#5A8407"/>
<path d="M43.4855 14.369C40.9961 14.369 38.9708 16.3943 38.9708 18.8837C38.9708 18.9998 38.9767 19.1144 38.9854 19.2282L30.8631 21.9975C30.276 22.1976 29.9622 22.836 30.1625 23.423C30.3216 23.8901 30.758 24.184 31.2254 24.184C31.3456 24.184 31.4678 24.1646 31.5879 24.1237L39.7099 21.3545C40.5173 22.5842 41.9078 23.3986 43.4857 23.3986C45.975 23.3986 48.0002 21.3734 48.0002 18.8839C48.0001 16.3944 45.9749 14.369 43.4855 14.369ZM43.4855 21.1523C42.2347 21.1523 41.2171 20.1348 41.2171 18.8839C41.2171 17.633 42.2348 16.6154 43.4855 16.6154C44.7363 16.6154 45.7538 17.633 45.7538 18.8839C45.7538 20.1346 44.7363 21.1523 43.4855 21.1523Z" fill="#5A8407"/>
<path d="M4.51471 37.5042C2.02524 37.5042 0 39.5296 0 42.0189C0 44.5084 2.02524 46.5336 4.51471 46.5336C7.00403 46.5336 9.02927 44.5084 9.02927 42.0189C9.02942 39.5296 7.00403 37.5042 4.51471 37.5042ZM4.51471 44.2875C3.26383 44.2875 2.24627 43.2699 2.24627 42.0191C2.24627 40.7682 3.26398 39.7506 4.51471 39.7506C5.76543 39.7506 6.78299 40.7682 6.78299 42.0191C6.78314 43.2698 5.76558 44.2875 4.51471 44.2875Z" fill="#5A8407"/>
</g>
<defs>
<clipPath id="clip0">
<rect width="48" height="48" fill="white"/>
</clipPath>
</defs>
</svg>
