<svg width="48" height="48" viewBox="0 0 48 48" fill="none" xmlns="http://www.w3.org/2000/svg">
<path d="M32.0581 30.7833C30.9208 30.7833 29.9956 29.9825 29.9956 28.9982C29.9956 28.0139 30.9208 27.213 32.0581 27.213C33.1954 27.213 34.1206 28.0139 34.1206 28.9982C34.1206 29.5159 34.5404 29.9357 35.0581 29.9357C35.5758 29.9357 35.9956 29.5159 35.9956 28.9982C35.9956 27.2803 34.7155 25.8358 32.9956 25.4437V24.9561C32.9956 24.4384 32.5758 24.0186 32.0581 24.0186C31.5404 24.0186 31.1206 24.4384 31.1206 24.9561V25.4437C29.4007 25.8358 28.1206 27.2803 28.1206 28.9982C28.1206 31.0164 29.8869 32.6583 32.0581 32.6583C33.1954 32.6583 34.1206 33.4591 34.1206 34.4435C34.1206 35.4279 33.1954 36.2287 32.0581 36.2287C30.9208 36.2287 29.9956 35.4279 29.9956 34.4435C29.9956 33.9258 29.5758 33.506 29.0581 33.506C28.5404 33.506 28.1206 33.9258 28.1206 34.4435C28.1206 36.1615 29.4007 37.606 31.1206 37.998V38.403C31.1206 38.9207 31.5404 39.3405 32.0581 39.3405C32.5758 39.3405 32.9956 38.9207 32.9956 38.403V37.998C34.7155 37.606 35.9956 36.1615 35.9956 34.4435C35.9956 32.4253 34.2293 30.7833 32.0581 30.7833Z" fill="#5A8407"/>
<path d="M42.3262 25.207C41.1016 23.2987 39.3762 21.7717 37.3367 20.7913C36.8699 20.5668 36.3097 20.7633 36.0855 21.23C35.8611 21.6967 36.0575 22.2568 36.5242 22.4811C40.0784 24.1896 42.3748 27.8401 42.3748 31.7812C42.3748 33.4676 41.9591 35.14 41.1728 36.6178C40.9296 37.0749 41.103 37.6426 41.5601 37.8858C41.7003 37.9604 41.8511 37.9959 41.9996 37.9959C42.335 37.9959 42.6595 37.8153 42.8281 37.4985C43.7581 35.7506 44.2498 33.7736 44.2498 31.7812C44.2498 29.4412 43.5846 27.1678 42.3262 25.207Z" fill="#5A8407"/>
<path d="M33.5318 19.594L33.4688 19.5939C32.9511 19.5939 32.5312 20.0136 32.5312 20.5314C32.5312 21.0491 32.9511 21.4689 33.4688 21.4689L33.523 21.469C33.5245 21.469 33.5259 21.469 33.5275 21.469C34.0433 21.469 34.4625 21.0521 34.4649 20.5359C34.4673 20.0181 34.0495 19.5964 33.5318 19.594Z" fill="#5A8407"/>
<path d="M27.6005 41.0815C24.0464 39.3729 21.75 35.7224 21.75 31.7814C21.75 30.0951 22.1657 28.4227 22.952 26.9448C23.1951 26.4878 23.0218 25.92 22.5647 25.6768C22.1077 25.4336 21.5398 25.607 21.2967 26.0641C20.3666 27.8121 19.875 29.7891 19.875 31.7814C19.875 34.1214 20.5402 36.3947 21.7986 38.3556C23.0232 40.2639 24.7486 41.7909 26.7881 42.7714C26.9191 42.8344 27.0575 42.8642 27.1937 42.8642C27.5428 42.8642 27.8779 42.6683 28.0393 42.3327C28.2635 41.866 28.0671 41.3058 27.6005 41.0815Z" fill="#5A8407"/>
<path d="M30.6562 42.0936L30.6019 42.0934C30.0818 42.0925 29.6625 42.5087 29.6602 43.0265C29.6577 43.5443 30.0757 43.966 30.5933 43.9685L30.6562 43.9686C31.1738 43.9686 31.5937 43.5488 31.5937 43.0311C31.5937 42.5134 31.1738 42.0936 30.6562 42.0936Z" fill="#5A8407"/>
<path d="M36.3195 16.422C36.2054 16.1501 36.0657 15.8939 35.903 15.6562H38.3437C40.7215 15.6562 42.6562 13.7216 42.6562 11.3437C42.6562 8.96586 40.7215 7.03124 38.3437 7.03124H30.8362C31.3135 6.3373 31.5937 5.49777 31.5937 4.59374C31.5937 2.21587 29.6591 0.28125 27.2812 0.28125H4.31249C1.93462 0.28125 0 2.21587 0 4.59374C0 6.97161 1.93462 8.90623 4.31249 8.90623H11.82C11.3427 9.60017 11.0625 10.4397 11.0625 11.3437C11.0625 12.2478 11.3426 13.0873 11.82 13.7812H9.37498C6.99711 13.7812 5.06249 15.7158 5.06249 18.0937C5.06249 19.4594 5.7013 20.678 6.69514 21.4687C5.7013 22.2594 5.06249 23.4781 5.06249 24.8437C5.06249 26.2094 5.7013 27.428 6.69514 28.2187C5.7013 29.0094 5.06249 30.228 5.06249 31.5937C5.06249 32.9593 5.7013 34.178 6.69514 34.9687C5.7013 35.7594 5.06249 36.978 5.06249 38.3437C5.06249 40.7215 6.99711 42.6562 9.37498 42.6562H20.4234C23.334 45.7693 27.4745 47.7188 32.0625 47.7188C40.8505 47.7188 48 40.5692 48 31.7813C48 24.4672 43.0472 18.289 36.3195 16.422ZM38.3437 8.90623C39.6878 8.90623 40.7812 9.99973 40.7812 11.3437C40.7812 12.6877 39.6878 13.7812 38.3437 13.7812H32.3437H15.375C14.0309 13.7812 12.9375 12.6877 12.9375 11.3437C12.9375 9.99973 14.0309 8.90623 15.375 8.90623H38.3437ZM4.31249 7.03124C2.9684 7.03124 1.875 5.93774 1.875 4.59374C1.875 3.24974 2.9684 2.15625 4.31249 2.15625H27.2812C28.6253 2.15625 29.7187 3.24974 29.7187 4.59374C29.7187 5.93774 28.6253 7.03124 27.2812 7.03124H4.31249ZM9.37498 15.6562H32.3437C32.7213 15.6562 33.0829 15.744 33.4073 15.9011C32.9638 15.8639 32.5155 15.8438 32.0625 15.8438C27.6614 15.8438 23.6715 17.6372 20.7845 20.5312H9.37498C8.03098 20.5312 6.93749 19.4377 6.93749 18.0937C6.93749 16.7497 8.03098 15.6562 9.37498 15.6562ZM9.37498 22.4062H19.1826C18.1184 23.8643 17.2955 25.5089 16.773 27.2812H9.37498C8.03089 27.2812 6.93749 26.1878 6.93749 24.8437C6.93749 23.4997 8.03089 22.4062 9.37498 22.4062ZM9.37498 29.1562H16.3425C16.2003 30.0105 16.1251 30.8872 16.1251 31.7813C16.1251 32.545 16.1803 33.2959 16.2846 34.0312H9.37498C8.03089 34.0312 6.93749 32.9378 6.93749 31.5937C6.93749 30.2496 8.03089 29.1562 9.37498 29.1562ZM9.37498 40.7812C8.03089 40.7812 6.93749 39.6878 6.93749 38.3437C6.93749 36.9996 8.03089 35.9062 9.37498 35.9062H16.6674C17.1405 37.6699 17.9089 39.3136 18.9167 40.7812H9.37498ZM32.0625 45.8438C24.3085 45.8438 18.0001 39.5353 18.0001 31.7813C18.0001 24.0272 24.3085 17.7188 32.0625 17.7188C39.8166 17.7188 46.125 24.0272 46.125 31.7813C46.125 39.5353 39.8166 45.8438 32.0625 45.8438Z" fill="#5A8407"/>
</svg>
