<svg width="120" height="120" viewBox="0 0 120 120" fill="none" xmlns="http://www.w3.org/2000/svg">
<path d="M95.0747 14.1764C95.8203 13.118 95.5664 11.6559 94.508 10.9106C84.372 3.77273 72.4392 0 60 0C52.2132 0 44.636 1.47047 37.4789 4.37039C36.2794 4.85648 35.701 6.22312 36.1871 7.42266C36.6729 8.62219 38.0389 9.20086 39.2393 8.71477C45.8346 6.04242 52.8192 4.6875 60 4.6875C71.468 4.6875 82.4672 8.16469 91.8092 14.7431C92.2196 15.0319 92.6904 15.1709 93.1566 15.1709C93.8932 15.1709 94.6184 14.8245 95.0747 14.1764Z" fill="#009944"/>
<path d="M120 59.9999C120 48.0081 116.473 36.4328 109.801 26.5253C109.078 25.4514 107.621 25.1676 106.548 25.8904C105.474 26.6134 105.19 28.0698 105.913 29.1435C112.062 38.2748 115.313 48.9447 115.313 59.9999C115.313 71.7559 111.705 82.9009 104.866 92.3533C103.745 91.8438 102.503 91.5576 101.194 91.5576C96.2827 91.5576 92.2874 95.553 92.2874 100.464C92.2874 105.375 96.2827 109.37 101.194 109.37C106.104 109.37 110.1 105.375 110.1 100.464C110.1 98.5631 109.499 96.8008 108.481 95.3531C116.021 85.0431 120 72.858 120 59.9999ZM101.194 104.683C98.8674 104.683 96.9749 102.79 96.9749 100.464C96.9749 98.1377 98.8674 96.2451 101.194 96.2451C103.52 96.2451 105.412 98.1377 105.412 100.464C105.412 102.79 103.52 104.683 101.194 104.683Z" fill="#009944"/>
<path d="M80.7605 111.285C74.1656 113.958 67.1808 115.313 60 115.313C29.5005 115.313 4.6875 90.4995 4.6875 60C4.6875 48.244 8.29477 37.099 15.1338 27.6467C16.2546 28.1562 17.4973 28.4424 18.8065 28.4424C23.7173 28.4424 27.7127 24.447 27.7127 19.5361C27.7127 14.6253 23.7173 10.6299 18.8065 10.6299C13.8956 10.6299 9.90023 14.6253 9.90023 19.5361C9.90023 21.4369 10.5007 23.1992 11.5193 24.6469C3.97875 34.9568 0 47.142 0 60C0 76.0266 6.24117 91.0939 17.5734 102.426C28.9062 113.759 43.9734 120 60 120C67.7869 120 75.364 118.53 82.5211 115.63C83.7206 115.144 84.2991 113.777 83.813 112.577C83.3266 111.377 81.9598 110.799 80.7605 111.285ZM18.8065 15.3174C21.1327 15.3174 23.0252 17.21 23.0252 19.5361C23.0252 21.8623 21.1327 23.7549 18.8065 23.7549C16.4803 23.7549 14.5877 21.8623 14.5877 19.5361C14.5877 17.21 16.4803 15.3174 18.8065 15.3174Z" fill="#009944"/>
<path d="M60.0001 54.7898C55.0512 54.7898 51.0251 58.8159 51.0251 63.7645C51.0251 65.8162 51.7091 67.7627 52.9688 69.3438V76.3427C52.9688 80.2197 56.123 83.3739 60.0001 83.3739C63.8771 83.3739 67.0313 80.2197 67.0313 76.3427V69.3438C68.2911 67.7625 68.975 65.8162 68.975 63.7645C68.975 58.8159 64.9489 54.7898 60.0001 54.7898ZM63.0308 66.7968C62.5911 67.2365 62.3438 67.8328 62.3438 68.4546V76.3427C62.3438 77.635 61.2924 78.6864 60.0001 78.6864C58.7077 78.6864 57.6563 77.635 57.6563 76.3427V68.4546C57.6563 67.8328 57.4091 67.2363 56.9694 66.7968C56.1589 65.9868 55.7126 64.9101 55.7126 63.7645C55.7126 61.4006 57.6359 59.4773 60.0001 59.4773C62.3642 59.4773 64.2875 61.4006 64.2875 63.7645C64.2875 64.9101 63.8412 65.9871 63.0308 66.7968Z" fill="#009944"/>
<path d="M81.551 45.8486V41.0434C81.551 29.1602 71.8833 19.4924 60 19.4924C48.1167 19.4924 38.449 29.1602 38.449 41.0434V45.8486C35.4145 47.1402 33.2812 50.1517 33.2812 53.6524V84.5113C33.2812 89.1855 37.084 92.9882 41.7579 92.9882H78.2421C82.916 92.9882 86.7188 89.1855 86.7188 84.5113V53.6524C86.7188 50.1517 84.5855 47.1402 81.551 45.8486ZM43.1365 41.0434C43.1365 31.7449 50.7014 24.1799 60 24.1799C69.2986 24.1799 76.8635 31.7449 76.8635 41.0434V45.1757H71.9473V41.0434C71.9473 34.4556 66.5878 29.0962 59.9998 29.0962C53.4117 29.0962 48.0523 34.4559 48.0523 41.0434V45.1757H43.136V41.0434H43.1365ZM52.74 45.1757V41.0434C52.74 37.0403 55.9969 33.7837 60 33.7837C64.0031 33.7837 67.26 37.0403 67.26 41.0434V45.1757H52.74ZM82.0312 84.5113C82.0312 86.6008 80.3313 88.3007 78.2421 88.3007H41.7579C39.6687 88.3007 37.9688 86.6008 37.9688 84.5113V53.6524C37.9688 51.5629 39.6687 49.8632 41.7579 49.8632H78.2421C80.3313 49.8632 82.0312 51.5631 82.0312 53.6524V84.5113Z" fill="#009944"/>
<path d="M101.194 22.003C101.81 22.003 102.415 21.7546 102.851 21.3187C103.287 20.8827 103.538 20.278 103.538 19.6616C103.538 19.0429 103.287 18.4382 102.851 18.0022C102.415 17.5663 101.81 17.3179 101.194 17.3179C100.577 17.3179 99.9728 17.5663 99.5368 18.0022C99.1011 18.4382 98.8501 19.0429 98.8501 19.6616C98.8501 20.278 99.1009 20.8804 99.5368 21.3187C99.9728 21.7546 100.577 22.003 101.194 22.003Z" fill="#009944"/>
</svg>
