<svg width="46" height="46" viewBox="0 0 46 46" fill="none" xmlns="http://www.w3.org/2000/svg">
<g clip-path="url(#clip0)">
<path d="M35.9375 46H10.0625C7.68583 46 5.75 44.0661 5.75 41.6875V21.5625C5.75 19.1839 7.68583 17.25 10.0625 17.25H35.9375C38.3142 17.25 40.25 19.1839 40.25 21.5625V41.6875C40.25 44.0661 38.3142 46 35.9375 46ZM10.0625 20.125C9.27092 20.125 8.625 20.769 8.625 21.5625V41.6875C8.625 42.481 9.27092 43.125 10.0625 43.125H35.9375C36.7291 43.125 37.375 42.481 37.375 41.6875V21.5625C37.375 20.769 36.7291 20.125 35.9375 20.125H10.0625Z" fill="white"/>
<path d="M33.0625 20.125C32.269 20.125 31.625 19.481 31.625 18.6875V11.5C31.625 6.74475 27.7552 2.875 23 2.875C18.2448 2.875 14.375 6.74475 14.375 11.5V18.6875C14.375 19.481 13.731 20.125 12.9375 20.125C12.144 20.125 11.5 19.481 11.5 18.6875V11.5C11.5 5.15775 16.6577 0 23 0C29.3422 0 34.5 5.15775 34.5 11.5V18.6875C34.5 19.481 33.856 20.125 33.0625 20.125Z" fill="white"/>
<path d="M23.0003 32.5833C20.8862 32.5833 19.167 30.8641 19.167 28.75C19.167 26.6359 20.8862 24.9167 23.0003 24.9167C25.1144 24.9167 26.8336 26.6359 26.8336 28.75C26.8336 30.8641 25.1144 32.5833 23.0003 32.5833ZM23.0003 27.7917C22.4732 27.7917 22.042 28.221 22.042 28.75C22.042 29.279 22.4732 29.7083 23.0003 29.7083C23.5274 29.7083 23.9587 29.279 23.9587 28.75C23.9587 28.221 23.5274 27.7917 23.0003 27.7917Z" fill="white"/>
<path d="M23 38.3333C22.2065 38.3333 21.5625 37.6893 21.5625 36.8958V31.625C21.5625 30.8315 22.2065 30.1875 23 30.1875C23.7935 30.1875 24.4375 30.8315 24.4375 31.625V36.8958C24.4375 37.6893 23.7935 38.3333 23 38.3333Z" fill="white"/>
</g>
<defs>
<clipPath id="clip0">
<rect width="46" height="46" fill="white"/>
</clipPath>
</defs>
</svg>
