<svg width="18" height="18" viewBox="0 0 18 18" fill="none" xmlns="http://www.w3.org/2000/svg">
<path d="M8.99998 0C4.02943 0 0 4.02943 0 8.99998C0 13.9705 4.02943 18 8.99998 18C13.9705 18 18 13.9705 18 8.99998C17.9947 4.03165 13.9683 0.0053111 8.99998 0ZM8.99998 16.7143C4.7395 16.7143 1.2857 13.2605 1.2857 8.99998C1.2857 4.7395 4.7395 1.2857 8.99998 1.2857C13.2605 1.2857 16.7143 4.7395 16.7143 8.99998C16.7097 13.2586 13.2586 16.7097 8.99998 16.7143Z" fill="white"/>
<path d="M12.7902 8.71314C12.7279 8.58816 12.6266 8.48684 12.5016 8.42453L7.3587 5.85309C7.04109 5.6944 6.655 5.82319 6.49627 6.1408C6.45163 6.23011 6.42843 6.32861 6.42847 6.42846V11.5713C6.42832 11.9264 6.71598 12.2143 7.07104 12.2145C7.17089 12.2146 7.26939 12.1913 7.3587 12.1467L12.5016 9.57527C12.8193 9.41692 12.9486 9.0309 12.7902 8.71314ZM7.71421 10.5312V7.46861L10.7768 8.9999L7.71421 10.5312Z" fill="white"/>
</svg>
