<svg width="98" height="101" viewBox="0 0 98 101" fill="none" xmlns="http://www.w3.org/2000/svg">
<path d="M44.881 92.0352C20.1353 92.0352 0 71.4705 0 46.1969C0 20.9234 20.1353 0.358643 44.881 0.358643C69.6268 0.358643 89.7621 20.9234 89.7621 46.1969C89.7621 71.4705 69.6268 92.0352 44.881 92.0352ZM44.881 4.52576C22.3834 4.52576 4.08009 23.2194 4.08009 46.1969C4.08009 69.1744 22.3834 87.868 44.881 87.868C67.3787 87.868 85.682 69.1744 85.682 46.1969C85.682 23.2194 67.3787 4.52576 44.881 4.52576Z" fill="#878787"/>
<path d="M44.881 67.0327C33.6322 67.0327 24.4805 57.6859 24.4805 46.1971C24.4805 34.7084 33.6322 25.3616 44.881 25.3616C56.1298 25.3616 65.2815 34.7084 65.2815 46.1971C65.2815 57.6859 56.1298 67.0327 44.881 67.0327ZM44.881 29.5287C35.8803 29.5287 28.5606 37.0045 28.5606 46.1971C28.5606 55.3898 35.8803 62.8656 44.881 62.8656C53.8817 62.8656 61.2014 55.3898 61.2014 46.1971C61.2014 37.0045 53.8817 29.5287 44.881 29.5287Z" fill="#878787"/>
<path d="M35.7008 32.0414C34.9991 32.0414 34.3095 31.6706 33.9342 30.9997L21.6939 9.34723C21.1308 8.34712 21.4654 7.07614 22.4405 6.50108C23.4116 5.93018 24.6642 6.26355 25.2272 7.26366L37.4675 28.9161C38.0306 29.912 37.696 31.1872 36.7209 31.7622C36.3985 31.9539 36.0477 32.0414 35.7008 32.0414Z" fill="#878787"/>
<path d="M60.7811 38.9043C60.0793 38.9043 59.3898 38.5334 59.0144 37.8625C58.4473 36.8666 58.7818 35.5915 59.7611 35.0164L80.9612 22.5152C81.9364 21.9401 83.189 22.2735 83.7479 23.2778C84.3151 24.2737 83.9805 25.5488 83.0013 26.1239L61.8011 38.6251C61.4788 38.8168 61.1279 38.9043 60.7811 38.9043Z" fill="#878787"/>
<path d="M66.3015 86.172C65.5997 86.172 64.9102 85.8012 64.5348 85.1303L52.2945 63.4781C51.7274 62.4821 52.062 61.207 53.0412 60.632C54.0123 60.0569 55.2648 60.3944 55.8279 61.3945L68.0682 83.0467C68.6353 84.0427 68.3007 85.3178 67.3215 85.8928C66.9992 86.0845 66.6483 86.172 66.3015 86.172Z" fill="#878787"/>
<path d="M7.77662 70.158C7.07484 70.158 6.38531 69.7872 6.00994 69.1163C5.44281 68.1203 5.77737 66.8452 6.7566 66.2701L27.9568 53.7688C28.9319 53.1895 30.1804 53.5271 30.7435 54.5313C31.3106 55.5273 30.976 56.8024 29.9968 57.3775L8.79664 69.8788C8.47432 70.0705 8.12343 70.158 7.77662 70.158Z" fill="#878787"/>
<path d="M28.9809 38.9044C28.6341 38.9044 28.2832 38.8169 27.9609 38.6252L6.76075 26.1239C5.78152 25.5488 5.44696 24.2737 6.01409 23.2778C6.57714 22.2818 7.82565 21.9443 8.80079 22.5152L30.001 35.0165C30.9761 35.5916 31.3107 36.8667 30.7435 37.8626C30.3682 38.5294 29.6786 38.9044 28.9809 38.9044Z" fill="#878787"/>
<path d="M54.0613 32.0413C53.7145 32.0413 53.3636 31.9538 53.0413 31.7621C52.0662 31.1871 51.7316 29.912 52.2946 28.916L64.5349 7.2637C65.098 6.26776 66.3424 5.9344 67.3216 6.50112C68.2968 7.07618 68.6313 8.35132 68.0683 9.34726L55.828 30.9996C55.4526 31.6663 54.7631 32.0413 54.0613 32.0413Z" fill="#878787"/>
<path d="M81.9854 70.1581C81.6386 70.1581 81.2877 70.0706 80.9653 69.8789L59.7652 57.3776C58.79 56.8025 58.4555 55.5274 59.0185 54.5314C59.5816 53.5355 60.8301 53.1979 61.8052 53.7688L83.0054 66.2702C83.9805 66.8452 84.3151 68.1204 83.7521 69.1163C83.3767 69.783 82.6871 70.1581 81.9854 70.1581Z" fill="#878787"/>
<path d="M23.4606 86.1722C23.1138 86.1722 22.7629 86.0847 22.4405 85.893C21.4654 85.3179 21.1308 84.0428 21.6939 83.0468L33.9342 61.3946C34.4931 60.3986 35.7457 60.0611 36.7209 60.632C37.696 61.2071 38.0306 62.4822 37.4675 63.4781L25.2272 85.1304C24.8519 85.7971 24.1623 86.1722 23.4606 86.1722Z" fill="#878787"/>
<path d="M95.8821 100.37C87.0855 100.37 80.59 98.5277 73.7109 96.5733C65.8527 94.3439 57.721 92.0354 44.881 92.0354C43.7549 92.0354 42.8409 91.1019 42.8409 89.9518C42.8409 88.8017 43.7549 87.8683 44.881 87.8683C58.2759 87.8683 67.0604 90.3602 74.8044 92.5604C81.406 94.4314 87.6363 96.2024 95.8821 96.2024C97.0083 96.2024 97.9222 97.1359 97.9222 98.286C97.9222 99.4361 97.0083 100.37 95.8821 100.37Z" fill="#878787"/>
</svg>
