<svg width="94" height="96" viewBox="0 0 94 96" fill="none" xmlns="http://www.w3.org/2000/svg">
<path d="M43.0808 87.9993C19.3276 87.9993 0 68.2595 0 43.9996C0 19.7398 19.3276 0 43.0808 0C66.834 0 86.1616 19.7398 86.1616 43.9996C86.1616 68.2595 66.834 87.9993 43.0808 87.9993ZM43.0808 3.99997C21.4856 3.99997 3.91644 21.9438 3.91644 43.9996C3.91644 66.0555 21.4856 83.9993 43.0808 83.9993C64.676 83.9993 82.2452 66.0555 82.2452 43.9996C82.2452 21.9438 64.676 3.99997 43.0808 3.99997Z" fill="#009944"/>
<path d="M43.0807 63.9996C32.2831 63.9996 23.4985 55.0277 23.4985 43.9998C23.4985 32.9719 32.2831 24 43.0807 24C53.8783 24 62.6629 32.9719 62.6629 43.9998C62.6629 55.0277 53.8783 63.9996 43.0807 63.9996ZM43.0807 28C34.4411 28 27.415 35.1759 27.415 43.9998C27.415 52.8237 34.4411 59.9997 43.0807 59.9997C51.7204 59.9997 58.7465 52.8237 58.7465 43.9998C58.7465 35.1759 51.7204 28 43.0807 28Z" fill="#009944"/>
<path d="M34.2691 30.412C33.5955 30.412 32.9336 30.056 32.5733 29.412L20.824 8.62803C20.2835 7.66804 20.6046 6.44804 21.5407 5.89604C22.4728 5.34805 23.6751 5.66804 24.2156 6.62804L35.9649 27.412C36.5054 28.368 36.1842 29.592 35.2482 30.144C34.9388 30.328 34.602 30.412 34.2691 30.412Z" fill="#009944"/>
<path d="M58.3432 36.9996C57.6696 36.9996 57.0077 36.6436 56.6474 35.9996C56.103 35.0436 56.4241 33.8196 57.3641 33.2676L77.7139 21.2678C78.6499 20.7158 79.8523 21.0358 80.3888 21.9998C80.9332 22.9558 80.6121 24.1798 79.6721 24.7318L59.3223 36.7316C59.0129 36.9156 58.6761 36.9996 58.3432 36.9996Z" fill="#009944"/>
<path d="M63.6423 82.3715C62.9687 82.3715 62.3068 82.0155 61.9465 81.3715L50.1972 60.5878C49.6528 59.6318 49.9739 58.4078 50.9139 57.8558C51.846 57.3038 53.0483 57.6278 53.5888 58.5878L65.3381 79.3715C65.8825 80.3275 65.5613 81.5515 64.6214 82.1035C64.312 82.2875 63.9752 82.3715 63.6423 82.3715Z" fill="#009944"/>
<path d="M7.46476 66.9996C6.79113 66.9996 6.12926 66.6436 5.76894 65.9996C5.22456 65.0436 5.54571 63.8196 6.48565 63.2676L26.8355 51.2677C27.7715 50.7117 28.9699 51.0357 29.5104 51.9997C30.0548 52.9556 29.7336 54.1796 28.7937 54.7316L8.44387 66.7316C8.13447 66.9156 7.79766 66.9996 7.46476 66.9996Z" fill="#009944"/>
<path d="M27.8185 36.9996C27.4856 36.9996 27.1488 36.9156 26.8394 36.7316L6.48956 24.7317C5.54961 24.1797 5.22847 22.9557 5.77285 21.9997C6.31332 21.0437 7.51175 20.7197 8.44778 21.2677L28.7976 33.2676C29.7336 33.8196 30.0548 35.0436 29.5104 35.9996C29.1501 36.6396 28.4882 36.9996 27.8185 36.9996Z" fill="#009944"/>
<path d="M51.8928 30.4121C51.5599 30.4121 51.2231 30.3281 50.9137 30.1441C49.9777 29.5921 49.6565 28.3681 50.197 27.4121L61.9463 6.62831C62.4868 5.67232 63.6813 5.35233 64.6213 5.89632C65.5573 6.44832 65.8784 7.6723 65.338 8.6283L53.5886 29.4121C53.2283 30.0521 52.5665 30.4121 51.8928 30.4121Z" fill="#009944"/>
<path d="M78.6972 67C78.3643 67 78.0275 66.9161 77.7181 66.7321L57.3683 54.7322C56.4323 54.1802 56.1111 52.9562 56.6516 52.0002C57.1921 51.0442 58.3905 50.7202 59.3265 51.2682L79.6763 63.2681C80.6124 63.8201 80.9335 65.0441 80.393 66.0001C80.0327 66.6401 79.3709 67 78.6972 67Z" fill="#009944"/>
<path d="M22.5198 82.3713C22.1869 82.3713 21.8501 82.2873 21.5407 82.1033C20.6046 81.5513 20.2835 80.3274 20.824 79.3714L32.5733 58.5876C33.1098 57.6316 34.3122 57.3076 35.2482 57.8556C36.1842 58.4076 36.5054 59.6316 35.9649 60.5876L24.2156 81.3714C23.8553 82.0113 23.1934 82.3713 22.5198 82.3713Z" fill="#009944"/>
<path d="M92.0362 95.9993C83.5924 95.9993 77.3574 94.2313 70.7543 92.3554C63.2113 90.2154 55.4058 87.9994 43.0808 87.9994C41.9998 87.9994 41.1226 87.1035 41.1226 85.9995C41.1226 84.8955 41.9998 83.9995 43.0808 83.9995C55.9384 83.9995 64.3705 86.3915 71.8039 88.5034C78.1407 90.2994 84.1211 91.9994 92.0362 91.9994C93.1172 91.9994 93.9944 92.8954 93.9944 93.9993C93.9944 95.1033 93.1172 95.9993 92.0362 95.9993Z" fill="#009944"/>
</svg>
