<svg width="80" height="80" viewBox="0 0 80 80" fill="none" xmlns="http://www.w3.org/2000/svg">
<path d="M78.75 33.75V20C78.75 16.5538 75.9463 13.75 72.5 13.75H68.18C67.5675 11.79 66.4738 10.0025 64.9538 8.5275C62.5063 6.15375 59.295 4.8975 55.865 5.005C50.4788 5.1675 45.9175 8.83375 44.3438 13.75H40C36.9825 13.75 34.4575 15.9012 33.8763 18.75H25.3425C27.4263 16.9163 28.75 14.2375 28.75 11.25C28.75 5.73625 24.2638 1.25 18.75 1.25C13.2362 1.25 8.75 5.73625 8.75 11.25C8.75 14.3725 10.19 17.1625 12.4388 18.9988C6.07875 20.2025 1.25 25.7938 1.25 32.5V36.25C1.25 39.6963 4.05375 42.5 7.5 42.5H8.75V47.5V48.75V73.125C8.75 76.2262 11.2738 78.75 14.375 78.75C16.1512 78.75 17.7188 77.9062 18.75 76.6175C19.7812 77.9062 21.3487 78.75 23.125 78.75C26.2262 78.75 28.75 76.2262 28.75 73.125V27.5H33.75V33.75C33.75 37.1963 36.5537 40 40 40H40.68L36.9888 43.6912L38.77 46.57C38.0387 47.8888 37.46 49.285 37.0438 50.735L33.75 51.51V60.99L37.0438 61.765C37.46 63.215 38.0375 64.6112 38.77 65.93L36.9888 68.8088L43.6925 75.5125L46.57 73.73C47.8913 74.4625 49.2863 75.0413 50.735 75.4563L51.51 78.75H60.99L61.765 75.4563C63.2137 75.0413 64.6087 74.4625 65.93 73.73L68.8075 75.5125L75.5113 68.8088L73.73 65.93C74.4625 64.61 75.0413 63.215 75.4563 61.765L78.75 60.99V51.51L75.4563 50.735C75.04 49.285 74.4625 47.8888 73.73 46.57L75.5113 43.6912L71.82 40H72.5C75.9463 40 78.75 37.1963 78.75 33.75ZM55.94 7.505C58.6687 7.40375 61.255 8.4225 63.2125 10.3225C65.1712 12.2225 66.25 14.7712 66.25 17.5C66.25 20.5788 64.8575 23.4387 62.43 25.3475C61.6738 25.9425 61.0788 26.6787 60.665 27.5H57.5V22.3225C59.65 21.7638 61.25 19.8237 61.25 17.5C61.25 14.7425 59.0075 12.5 56.25 12.5C53.4925 12.5 51.25 14.7425 51.25 17.5C51.25 19.8237 52.85 21.7638 55 22.3225V27.5H51.8475C51.445 26.685 50.87 25.9637 50.15 25.41C49.9575 25.2612 49.7825 25.0913 49.6 24.9288C49.8512 24.3775 50 23.77 50 23.125C50 20.9587 48.4137 19.1687 46.345 18.8225C46.2887 18.3962 46.2513 17.9675 46.25 17.535C46.2313 12.165 50.5775 7.66625 55.94 7.505ZM52.4837 30H60.0163C60.0125 30.095 60 30.1888 60 30.285V31.25C60 31.94 59.4388 32.5 58.75 32.5H53.75C53.0612 32.5 52.5 31.94 52.5 31.25V30.285C52.5 30.1888 52.4888 30.095 52.4837 30ZM56.25 20C54.8713 20 53.75 18.8787 53.75 17.5C53.75 16.1213 54.8713 15 56.25 15C57.6287 15 58.75 16.1213 58.75 17.5C58.75 18.8787 57.6287 20 56.25 20ZM40 16.25H43.8163C43.7725 16.6763 43.7487 17.1088 43.75 17.545C43.7513 17.9487 43.7825 18.35 43.8213 18.75H36.48C36.9975 17.2987 38.3725 16.25 40 16.25ZM11.25 11.25C11.25 7.11375 14.6138 3.75 18.75 3.75C22.8862 3.75 26.25 7.11375 26.25 11.25C26.25 15.3862 22.8862 18.75 18.75 18.75C14.6138 18.75 11.25 15.3862 11.25 11.25ZM16.875 42.5C19.2875 42.5 21.25 40.5375 21.25 38.125C21.25 35.7125 19.2875 33.75 16.875 33.75H11.25V31.25H21.25V38.125V46.25H11.25V42.5H16.875ZM14.375 76.25C12.6525 76.25 11.25 74.8487 11.25 73.125V48.75H17.5V73.125C17.5 74.8487 16.0975 76.25 14.375 76.25ZM26.25 25V73.125C26.25 74.8487 24.8475 76.25 23.125 76.25C21.4025 76.25 20 74.8487 20 73.125V48.75H23.75V28.75H8.75V33.75H6.25V36.25H16.875C17.9088 36.25 18.75 37.0913 18.75 38.125C18.75 39.1587 17.9088 40 16.875 40H7.5C5.4325 40 3.75 38.3175 3.75 36.25V32.5C3.75 26.2962 8.7975 21.25 15 21.25H45.625C46.6587 21.25 47.5 22.0912 47.5 23.125C47.5 24.1588 46.6587 25 45.625 25H26.25ZM36.25 33.75V27.5H45.625C46.4825 27.5 47.2787 27.2425 47.955 26.8138C48.175 27.0088 48.3912 27.21 48.6237 27.39C49.485 28.0538 50 29.1363 50 30.285V31.25C50 33.3175 51.6825 35 53.75 35H58.75C60.8175 35 62.5 33.3175 62.5 31.25V30.285C62.5 29.1338 63.0375 28.0513 63.975 27.3137C67.01 24.9263 68.75 21.35 68.75 17.5C68.75 17.08 68.7288 16.6625 68.6888 16.25H72.5C74.5675 16.25 76.25 17.9325 76.25 20V33.75C76.25 35.8175 74.5675 37.5 72.5 37.5H60.525L56.25 44.9813L51.975 37.5H40C37.9325 37.5 36.25 35.8175 36.25 33.75ZM54.2163 46.4587C49.6738 47.4012 46.25 51.4325 46.25 56.25C46.25 61.7637 50.7363 66.25 56.25 66.25C61.7637 66.25 66.25 61.7637 66.25 56.25C66.25 51.4325 62.8262 47.4012 58.2837 46.4587L59.5725 44.2038C64.9388 45.68 68.75 50.6063 68.75 56.25C68.75 63.1425 63.1425 68.75 56.25 68.75C49.3575 68.75 43.75 63.1425 43.75 56.25C43.75 50.615 47.565 45.6812 52.9275 44.205L54.2163 46.4587ZM56.25 48.75C60.3862 48.75 63.75 52.1138 63.75 56.25C63.75 60.3862 60.3862 63.75 56.25 63.75C52.1138 63.75 48.75 60.3862 48.75 56.25C48.75 52.1138 52.1138 48.75 56.25 48.75ZM72.3438 44.06L70.8075 46.5425L71.205 47.1963C72.125 48.7125 72.8063 50.3537 73.2288 52.0762L73.4112 52.82L76.25 53.49V59.01L73.41 59.6787L73.2275 60.4225C72.8063 62.1438 72.125 63.785 71.2038 65.3025L70.8063 65.9563L72.3425 68.4388L68.4388 72.3425L65.9563 70.8063L65.3013 71.2038C63.7825 72.1237 62.1413 72.805 60.4213 73.225L59.6775 73.4075L59.01 76.25H53.49L52.8213 73.4088L52.0775 73.2262C50.3587 72.8063 48.7162 72.125 47.1975 71.205L46.5425 70.8075L44.06 72.3438L40.1562 68.44L41.6925 65.9575L41.295 65.3037C40.375 63.7875 39.6937 62.1463 39.2712 60.4238L39.0887 59.68L36.25 59.01V53.49L39.09 52.8213L39.2725 52.0775C39.695 50.355 40.375 48.7137 41.2962 47.1975L41.6937 46.5438L40.1575 44.0612L44.2163 40H50.525L51.655 41.9788C45.5413 43.9475 41.25 49.705 41.25 56.25C41.25 64.5213 47.9787 71.25 56.25 71.25C64.5213 71.25 71.25 64.5213 71.25 56.25C71.25 49.6937 66.9613 43.9475 60.8438 41.98L61.975 40H68.2838L72.3438 44.06Z" fill="#009944"/>
<path d="M71.25 32.5H73.75V35H71.25V32.5Z" fill="#009944"/>
<path d="M71.25 27.5H73.75V30H71.25V27.5Z" fill="#009944"/>
<path d="M71.25 22.5H73.75V25H71.25V22.5Z" fill="#009944"/>
<path d="M38.75 32.5H41.25V35H38.75V32.5Z" fill="#009944"/>
<path d="M43.75 32.5H46.25V35H43.75V32.5Z" fill="#009944"/>
</svg>
