<svg width="78" height="78" viewBox="0 0 78 78" fill="none" xmlns="http://www.w3.org/2000/svg">
<circle cx="39.0213" cy="39.0213" r="34.0213" fill="#009944"/>
<path d="M28.125 38.75C28.4702 38.75 28.75 38.4702 28.75 38.125C28.75 37.7798 28.4702 37.5 28.125 37.5C27.7798 37.5 27.5 37.7798 27.5 38.125C27.5 38.4702 27.7798 38.75 28.125 38.75Z" fill="white"/>
<path d="M31.875 38.75C32.2202 38.75 32.5 38.4702 32.5 38.125C32.5 37.7798 32.2202 37.5 31.875 37.5C31.5298 37.5 31.25 37.7798 31.25 38.125C31.25 38.4702 31.5298 38.75 31.875 38.75Z" fill="white"/>
<path d="M31.2499 40.4777C31.0118 40.954 30.533 41.2502 29.9999 41.2502C29.4668 41.2502 28.988 40.954 28.7499 40.4777L28.6843 40.3458L27.5662 40.9052L27.6318 41.0371C28.083 41.9396 28.9905 42.5002 29.9999 42.5002C31.0093 42.5002 31.9168 41.9396 32.368 41.0365L32.4337 40.9046L31.3155 40.3452L31.2499 40.4777Z" fill="white"/>
<path d="M28.2336 34.7183L29.2735 34.0246L30.5242 35.8995L29.4843 36.5932L28.2336 34.7183Z" fill="white"/>
<path d="M30.7336 34.7173L31.7735 34.0236L33.0242 35.8985L31.9843 36.5922L30.7336 34.7173Z" fill="white"/>
<path d="M49.5505 45.4344L50.4493 44.565C49.1618 43.2338 47.4487 42.5 45.6249 42.5C43.8012 42.5 42.088 43.2338 40.8005 44.5656L41.6993 45.435C42.7487 44.3481 44.1437 43.75 45.6249 43.75C47.1062 43.75 48.5012 44.3481 49.5505 45.4344Z" fill="white"/>
<path d="M48.6068 46.4762C47.8181 45.5244 46.7587 45 45.6249 45C44.4912 45 43.4318 45.5244 42.6431 46.4762L43.6062 47.2731C44.1537 46.6131 44.8699 46.25 45.6249 46.25C46.3799 46.25 47.0962 46.6131 47.6431 47.2738L48.6068 46.4762Z" fill="white"/>
<path d="M43.75 49.375C43.75 50.4088 44.5912 51.25 45.625 51.25C46.6588 51.25 47.5 50.4088 47.5 49.375C47.5 48.3412 46.6588 47.5 45.625 47.5C44.5912 47.5 43.75 48.3412 43.75 49.375ZM46.25 49.375C46.25 49.72 45.97 50 45.625 50C45.28 50 45 49.72 45 49.375C45 49.03 45.28 48.75 45.625 48.75C45.97 48.75 46.25 49.03 46.25 49.375Z" fill="white"/>
<path d="M49.375 53.75H48.75C48.75 53.0606 48.1894 52.5 47.5 52.5H43.75C43.0606 52.5 42.5 53.0606 42.5 53.75V55.625C42.5 57.3481 43.9019 58.75 45.625 58.75C46.6419 58.75 47.5381 58.2544 48.1087 57.5H49.375C50.4088 57.5 51.25 56.6588 51.25 55.625C51.25 54.5912 50.4088 53.75 49.375 53.75ZM47.5 55.625C47.5 56.6588 46.6588 57.5 45.625 57.5C44.5912 57.5 43.75 56.6588 43.75 55.625V53.75H47.5V55.625ZM49.375 56.25H48.6869C48.7281 56.0481 48.75 55.8387 48.75 55.625V55H49.375C49.72 55 50 55.28 50 55.625C50 55.97 49.72 56.25 49.375 56.25Z" fill="white"/>
<path d="M44.375 20C38.1313 20 32.5787 24.0912 30.6906 30H27.9644C24.9513 30 22.5 32.4513 22.5 35.4644C22.5 36.0531 22.5944 36.635 22.78 37.1925L22.8694 37.46C22.64 37.8381 22.5 38.2763 22.5 38.75C22.5 40.1287 23.6212 41.25 25 41.25H25.05C25.2506 42.6444 26.1069 43.8294 27.3 44.475L26.9825 45.7431L25.8869 46.0419C22.4206 46.9875 20 50.1575 20 53.75C20 55.8181 21.6819 57.5 23.75 57.5C23.75 58.1894 24.3106 58.75 25 58.75H35C35.6894 58.75 36.25 58.1894 36.25 57.5C38.3181 57.5 40 55.8181 40 53.75C40 50.1575 37.5794 46.9875 34.1125 46.0419L33.0175 45.7431L32.7 44.475C33.8931 43.8294 34.7487 42.6437 34.95 41.25H39.7619C39.9169 41.75 40.0831 42.245 40.2738 42.7288L41.4369 42.2712C41.305 41.9356 41.1838 41.5944 41.07 41.25H55.54C54.4156 43.0775 52.85 44.6375 50.9369 45.7444L51.5631 46.8256C55.9963 44.2619 58.75 39.4912 58.75 34.375C58.75 26.4481 52.3019 20 44.375 20ZM49.9794 33.75C49.9338 31.8906 49.695 30.2244 49.3356 28.75H56.2156C56.945 30.2788 57.3838 31.9669 57.4688 33.75H49.9794ZM37.4181 33.75L37.4356 33.7231C37.8869 33.0469 38.125 32.2594 38.125 31.4462C38.125 30.8119 37.975 30.1775 37.6919 29.61L37.2612 28.75H39.4144C39.055 30.2244 38.8162 31.8906 38.7706 33.75H37.4181ZM36.25 38.75C36.25 39.4394 35.6894 40 35 40V37.5C35.6894 37.5 36.25 38.0606 36.25 38.75ZM40.71 28.75H48.04C48.4231 30.2087 48.6794 31.8806 48.7294 33.75H40.0212C40.0706 31.8806 40.3269 30.2087 40.71 28.75ZM41.0794 27.5C42.1231 24.3612 43.645 22.3675 44.375 21.5356C45.105 22.3675 46.6269 24.3612 47.6706 27.5H41.0794ZM55.5337 27.5H48.9925C48.085 24.5563 46.7638 22.5063 45.8425 21.3375C49.94 21.7956 53.4631 24.1512 55.5337 27.5ZM42.9025 21.3438C41.9813 22.5131 40.6637 24.5612 39.7575 27.5H33.2062C35.3025 24.1119 38.8756 21.8025 42.9025 21.3438ZM32.5144 28.75H36.6856L36.5281 28.855C35.4044 29.6038 34.0969 30 32.7469 30H32.0056C32.1562 29.5731 32.3219 29.1538 32.5144 28.75ZM23.75 38.75C23.75 38.0606 24.3106 37.5 25 37.5V40C24.3106 40 23.75 39.4394 23.75 38.75ZM25 57.5V56.25H35.0013V57.5H25ZM25 55V50H35L35.0006 55H25ZM33.7838 47.2481C36.7075 48.0456 38.75 50.7194 38.75 53.75C38.75 55.1287 37.6287 56.25 36.25 56.25V53.75H37.5V52.5H36.25V50C36.25 49.3106 35.6894 48.75 35 48.75H25C24.3106 48.75 23.75 49.3106 23.75 50V52.5H22.5V53.75H23.75V56.25C22.3712 56.25 21.25 55.1287 21.25 53.75C21.25 50.7194 23.2925 48.0456 26.2156 47.2481L27.4419 46.9137C28.2381 47.2944 29.1187 47.5 30 47.5C30.8813 47.5 31.7619 47.2944 32.5575 46.9137L33.7838 47.2481ZM31.7669 45.8937C30.6469 46.3475 29.3538 46.3475 28.2331 45.8937L28.48 44.9069C28.7688 44.9675 29.0681 45 29.375 45H30.625C30.9319 45 31.2312 44.9675 31.52 44.9069L31.7669 45.8937ZM33.75 40.625C33.75 42.3481 32.3481 43.75 30.625 43.75H29.375C27.6519 43.75 26.25 42.3481 26.25 40.625V36.9762C26.25 36.0638 26.8319 35.2569 27.6975 34.9675L27.3019 33.7825C26.1619 34.1625 25.34 35.1119 25.0887 36.25H25C24.6025 36.25 24.2313 36.3519 23.8969 36.5175C23.8081 36.1731 23.75 35.8225 23.75 35.4644C23.75 33.1406 25.6406 31.25 27.9644 31.25H32.7462C34.1075 31.25 35.4319 30.91 36.6169 30.2612C36.7856 30.6319 36.875 31.0394 36.875 31.4462C36.875 32.0119 36.7094 32.5594 36.3956 33.0294L35.0819 35H36.5981C36.3781 35.4937 36.0963 35.9531 35.7662 36.3825C35.5231 36.3037 35.2688 36.25 35 36.25H33.75V40.625ZM37.1525 40C37.3675 39.6306 37.5 39.2075 37.5 38.75C37.5 38.0938 37.2406 37.5012 36.8263 37.055C37.2956 36.4275 37.6663 35.7394 37.9375 35H38.7638C38.8062 36.7294 39.0231 38.4013 39.4144 40H37.1525ZM40.0138 35H48.73C48.685 36.7319 48.4544 38.4081 48.0394 40H40.705C40.29 38.4081 40.0581 36.7356 40.0138 35ZM49.3256 40C49.7169 38.4 49.9369 36.725 49.9794 35H57.4787C57.3944 36.7537 56.9587 38.45 56.2212 40H49.3256Z" fill="white"/>
<path d="M31.875 21.25V20C27.395 20 23.75 23.645 23.75 28.125H25C25 24.3344 28.0844 21.25 31.875 21.25Z" fill="white"/>
<path d="M27.5 28.125C27.5 25.7131 29.4631 23.75 31.875 23.75V22.5C28.7731 22.5 26.25 25.0231 26.25 28.125H27.5Z" fill="white"/>
<circle cx="39" cy="39" r="38.5" stroke="#009944" stroke-dasharray="3 3"/>
</svg>
