<svg width="80" height="80" viewBox="0 0 80 80" fill="none" xmlns="http://www.w3.org/2000/svg">
<g clip-path="url(#clip0)">
<path d="M47.8075 22.4907C47.5586 23.2568 47.7622 24.0819 48.3391 24.6443L50.7197 26.9649L50.1577 30.2416C50.0214 31.0355 50.3417 31.8229 50.9935 32.2963C51.3616 32.5638 51.7925 32.6997 52.2263 32.6997C52.5602 32.6997 52.8958 32.6193 53.206 32.4561L56.1486 30.9091L59.0913 32.4561C59.8041 32.831 60.6519 32.7697 61.3035 32.2964C61.9552 31.823 62.2755 31.0358 62.1394 30.2418L61.5774 26.965L63.9582 24.6444C64.5349 24.0821 64.7386 23.2569 64.4897 22.4908C64.2408 21.7247 63.591 21.1769 62.7939 21.0611L59.5038 20.583L58.0324 17.6018C57.6758 16.8794 56.9541 16.4307 56.1485 16.4307C55.343 16.4307 54.6213 16.8794 54.2647 17.6018L52.7933 20.583L49.5033 21.0611C48.7063 21.1769 48.0564 21.7247 47.8075 22.4907ZM53.2567 22.8839C53.9411 22.7846 54.5325 22.3549 54.8386 21.7347L56.1486 19.0804L57.4586 21.7349C57.7647 22.355 58.3561 22.7846 59.0403 22.8839L61.9696 23.3096L59.8502 25.3757C59.3549 25.8583 59.1289 26.5535 59.2458 27.2352L59.7463 30.1525L57.1261 28.775C56.5141 28.4533 55.7833 28.4535 55.1711 28.775L52.5511 30.1524L53.0514 27.2352C53.1685 26.5536 52.9427 25.8585 52.4472 25.3757L50.3277 23.3096L53.2567 22.8839Z" fill="#009944"/>
<path d="M41.2574 8.29594L40.862 10.6017C40.7409 11.3078 41.0257 12.0081 41.6054 12.4292C41.9329 12.6672 42.316 12.788 42.7018 12.788C42.9988 12.788 43.2973 12.7164 43.5732 12.5714L45.6438 11.4828L47.7145 12.5714C48.3488 12.9047 49.1026 12.8505 49.6823 12.4292C50.262 12.0081 50.5468 11.3078 50.4257 10.6017L50.0303 8.29594L51.7054 6.66297C52.2185 6.16281 52.3996 5.42891 52.1782 4.7475C51.9568 4.06609 51.3788 3.57891 50.6699 3.47578L48.3548 3.13937L47.3195 1.04156C47.0023 0.399062 46.3603 0 45.6438 0C44.9274 0 44.2854 0.399062 43.9682 1.04156L42.9329 3.13953L40.6179 3.47594C39.9088 3.57891 39.3309 4.06609 39.1095 4.7475C38.8881 5.42891 39.0692 6.16281 39.5823 6.66297L41.2574 8.29594ZM45.2176 2.07891L45.2184 2.08047C45.2182 2.07984 45.2179 2.07938 45.2176 2.07891ZM43.5174 5.42297C44.126 5.33437 44.6518 4.95219 44.924 4.40078L45.6437 2.94234L46.3634 4.40078C46.6356 4.95219 47.1613 5.33437 47.7702 5.42297L49.3796 5.65687L48.2151 6.79203C47.7746 7.22141 47.5737 7.83969 47.6776 8.44594L47.9524 10.0489L46.5131 9.29203C45.9685 9.00578 45.3184 9.00578 44.774 9.29203L43.3345 10.0489L43.6093 8.44594C43.7134 7.83969 43.5123 7.22125 43.072 6.79219L41.9073 5.65703L43.5174 5.42297Z" fill="#009944"/>
<path d="M48.9684 45.0981L43.0672 50.9994L38.8246 46.7569C38.367 46.2992 37.625 46.2992 37.1675 46.7569C36.7098 47.2145 36.7098 47.9566 37.1675 48.4141L42.2387 53.4852C42.4675 53.7139 42.7675 53.8284 43.0673 53.8284C43.3672 53.8284 43.6672 53.7141 43.8959 53.4852L50.6257 46.7553C51.0834 46.2977 51.0834 45.5556 50.6257 45.0981C50.1679 44.6405 49.4259 44.6405 48.9684 45.0981Z" fill="#009944"/>
<path d="M71.339 60.12C71.2918 60.0728 71.2434 60.0275 71.1946 59.9827C71.2003 58.7533 70.7217 57.5634 69.8334 56.6752C68.9539 55.7956 67.7845 55.3113 66.5406 55.3113C65.5828 55.3113 64.6696 55.5995 63.8986 56.1333C63.1551 55.6544 62.2898 55.3967 61.3843 55.3967C60.1404 55.3967 58.9711 55.8811 58.0915 56.7606L48.2026 66.6494C47.9157 66.9361 47.5662 67.1364 47.1856 67.2416H36.7251C36.7773 67.1453 36.8428 67.0555 36.9218 66.9753C37.1439 66.7502 37.4401 66.6262 37.7564 66.6262H44.3934C46.9271 66.6262 49.0561 64.6083 49.139 62.128C49.1476 61.8706 49.1346 61.6162 49.1026 61.3664C52.8343 59.7933 55.7676 56.5741 56.869 52.493C57.0378 51.8681 56.6678 51.2248 56.0429 51.0563C55.4179 50.8873 54.7748 51.2573 54.6062 51.8823C53.6998 55.2403 51.2912 57.8922 48.2245 59.1955C48.1045 59.0345 47.9745 58.8794 47.8323 58.7323C46.9468 57.8169 45.7579 57.3127 44.4845 57.3127H36.5784C34.2659 55.2781 32.8032 52.2995 32.8032 48.9845C32.8032 42.8675 37.78 37.8908 43.897 37.8908C49.2346 37.8908 53.8192 41.6941 54.7984 46.9341C54.9173 47.5703 55.5296 47.9897 56.1656 47.8708C56.8018 47.7519 57.2212 47.1398 57.1023 46.5036C55.9161 40.1548 50.3625 35.5469 43.897 35.5469C36.4876 35.5469 30.4595 41.575 30.4595 48.9844C30.4595 52.1283 31.5478 55.0209 33.3632 57.3125H23.2217V55.393C23.2217 54.1898 22.2428 53.2109 21.0396 53.2109H9.48184C8.27871 53.2109 7.2998 54.1898 7.2998 55.393V77.757C7.2998 78.9602 8.27871 79.9391 9.48184 79.9391H21.04C22.2431 79.9391 23.222 78.9602 23.222 77.757V77.092L26.2279 78.2934C29.0611 79.4258 32.0448 80 35.0959 80H54.6761C56.8486 80 58.8909 79.1539 60.4268 77.6178L64.2378 73.8069C64.6954 73.3492 64.6954 72.6072 64.2378 72.1497C63.7803 71.692 63.0382 71.692 62.5806 72.1497L58.7696 75.9606C57.6762 77.0541 56.2225 77.6562 54.6761 77.6562H35.0959C32.3442 77.6562 29.6531 77.1384 27.0978 76.117L23.222 74.568V59.6562H44.4846C45.1171 59.6562 45.7078 59.9067 46.1478 60.3616C46.5873 60.8161 46.8178 61.4156 46.7965 62.0497C46.7553 63.2808 45.6773 64.2825 44.3934 64.2825H37.7564C36.8079 64.2825 35.9189 64.6544 35.2529 65.3298C34.587 66.0053 34.2276 66.8995 34.2411 67.8478L34.2653 69.5642C34.2923 71.4753 35.8692 73.0303 37.7806 73.0303H53.229C54.4729 73.0303 55.6423 72.5458 56.5218 71.6663L66.4107 61.7775C67.3126 60.8756 68.7803 60.8758 69.682 61.7775C70.5837 62.6794 70.5837 64.1469 69.682 65.0488L66.4478 68.283C65.9901 68.7406 65.9901 69.4827 66.4478 69.9402C66.9053 70.3978 67.6473 70.3978 68.105 69.9402L71.3392 66.7059C73.1546 64.89 73.1546 61.9356 71.339 60.12ZM20.8781 77.5952H9.64355V55.5547H20.8781V77.5952ZM66.5404 57.655C67.1582 57.655 67.739 57.8956 68.1761 58.3325C68.3132 58.4697 68.4307 58.6214 68.5275 58.7838C67.1801 58.645 65.7834 59.0898 64.7532 60.12L54.8643 70.0088C54.4275 70.4456 53.8467 70.6862 53.2289 70.6862H37.7804C37.1617 70.6862 36.6495 70.197 36.6121 69.5852H51.7231C52.9668 69.5852 54.1364 69.1008 55.0161 68.2212L64.905 58.3325C65.3418 57.8956 65.9226 57.655 66.5404 57.655ZM59.7486 58.418C60.1854 57.9811 60.7664 57.7406 61.3842 57.7406C61.6226 57.7406 61.8553 57.7773 62.0765 57.8464L53.3587 66.5641C52.9217 67.0009 52.3407 67.2416 51.7229 67.2416H50.9248L59.7486 58.418Z" fill="#009944"/>
<path d="M9.67664 26.6703H12.4388C12.6104 27.1705 12.8149 27.6631 13.0495 28.14L11.0951 30.0944C10.7115 30.4778 10.5004 30.9875 10.5004 31.53C10.5004 32.0723 10.7116 32.582 11.0951 32.9655L13.9976 35.8681C14.7891 36.6595 16.077 36.6597 16.8685 35.8681L18.823 33.9137C19.2999 34.1481 19.7926 34.353 20.2927 34.5244V37.2866C20.2927 38.4059 21.2035 39.3167 22.3229 39.3167H26.4277C27.5471 39.3167 28.4579 38.4059 28.4579 37.2866V34.5244C28.958 34.353 29.4507 34.1483 29.9276 33.9137L31.8821 35.8681C32.6735 36.6597 33.9616 36.6595 34.753 35.8681L37.6554 32.9656C38.039 32.5822 38.2501 32.0725 38.2501 31.5302C38.2501 30.9878 38.0388 30.478 37.6554 30.0947L35.701 28.1403C35.9354 27.6634 36.1402 27.1708 36.3116 26.6706H39.0738C40.1932 26.6706 41.104 25.7598 41.104 24.6405V20.5356C41.104 19.4162 40.1932 18.5055 39.0738 18.5055H36.3118C36.1402 18.0052 35.9355 17.5123 35.7012 17.0358L37.6555 15.0814C38.4471 14.2898 38.4471 13.002 37.6555 12.2105L34.753 9.30797C33.9616 8.51641 32.6737 8.51641 31.8821 9.30797L29.9276 11.2623C29.4509 11.028 28.9582 10.8233 28.4579 10.6517V7.88953C28.4579 6.77016 27.5471 5.85938 26.4277 5.85938H22.3229C21.2035 5.85938 20.2927 6.77016 20.2927 7.88953V10.6516C19.7924 10.8231 19.2998 11.0278 18.823 11.2622L16.8685 9.30781C16.0771 8.51625 14.789 8.51641 13.9976 9.30781L11.0949 12.2103C10.3034 13.0019 10.3034 14.2897 11.0949 15.0812L13.0493 17.0356C12.8149 17.5123 12.6101 18.0052 12.4387 18.5053H9.67664C8.55727 18.5053 7.64648 19.4161 7.64648 20.5355V24.6403C7.64664 25.7595 8.55727 26.6703 9.67664 26.6703ZM9.99039 20.8491H12.666C13.5493 20.8491 14.3262 20.2808 14.5996 19.4348C14.7679 18.9134 14.9812 18.4003 15.2334 17.9095C15.6402 17.1173 15.4934 16.1647 14.8677 15.5392L12.974 13.6458L15.4329 11.1869L17.3265 13.0803C17.9521 13.7059 18.9048 13.8528 19.697 13.4459C20.1877 13.1937 20.7009 12.9805 21.222 12.8122C22.0679 12.5391 22.6363 11.7622 22.6363 10.8786V8.20312H26.1138V10.8787C26.1138 11.7622 26.6823 12.5392 27.5279 12.8122C28.0491 12.9806 28.5623 13.1937 29.0532 13.4459C29.8455 13.8528 30.798 13.7061 31.4235 13.0803L33.3171 11.1869L35.776 13.6458L33.8826 15.5392C33.257 16.1648 33.1101 17.1173 33.517 17.9098C33.769 18.4005 33.9823 18.9136 34.1507 19.435C34.424 20.2808 35.2009 20.8491 36.0841 20.8491H38.7598V24.3266H36.084C35.2007 24.3266 34.4238 24.8948 34.1504 25.7408C33.9821 26.2619 33.769 26.775 33.5168 27.2661C33.1099 28.0583 33.2568 29.0109 33.8824 29.6364L35.7759 31.5298L33.3171 33.9888L31.4237 32.0953C30.798 31.4695 29.8455 31.3225 29.053 31.7295C28.5621 31.9817 28.0491 32.195 27.5279 32.3633C26.6821 32.6366 26.1138 33.4134 26.1138 34.2967V36.9725H22.6363V34.2969C22.6363 33.4136 22.068 32.6367 21.2221 32.3633C20.701 32.195 20.1879 31.9819 19.6971 31.7297C18.9046 31.3227 17.952 31.4695 17.3265 32.0953L15.4329 33.9888L12.9741 31.5298L14.8676 29.6364C15.4932 29.0108 15.6401 28.0583 15.2332 27.2659C14.981 26.775 14.7677 26.262 14.5995 25.7408C14.3262 24.895 13.5493 24.3267 12.666 24.3267H9.99039V20.8491Z" fill="#009944"/>
<path d="M24.3757 30.509C27.5102 30.509 30.3547 28.6551 31.6225 25.786C31.8841 25.194 31.6163 24.5021 31.0244 24.2404C30.4325 23.979 29.7405 24.2466 29.4788 24.8385C28.5857 26.8595 26.5825 28.1652 24.3755 28.1652C21.2999 28.1652 18.7979 25.663 18.7979 22.5876C18.7979 19.5121 21.3 17.0099 24.3755 17.0099C26.5747 17.0099 28.575 18.3095 29.4715 20.3205C29.7349 20.9118 30.4275 21.1773 31.019 20.9138C31.61 20.6502 31.8757 19.9574 31.6122 19.3663C30.3396 16.511 27.499 14.666 24.3755 14.666C20.0075 14.666 16.4541 18.2196 16.4541 22.5874C16.4541 26.9552 20.0077 30.509 24.3757 30.509Z" fill="#009944"/>
<path d="M20.9248 22.588C20.9248 24.4911 22.4731 26.0392 24.3761 26.0392C26.279 26.0392 27.8273 24.4909 27.8273 22.588C27.8273 20.685 26.279 19.1367 24.3761 19.1367C22.4731 19.1367 20.9248 20.6848 20.9248 22.588ZM25.4837 22.588C25.4837 23.1988 24.9868 23.6955 24.3762 23.6955C23.7656 23.6955 23.2687 23.1986 23.2687 22.588C23.2687 21.9773 23.7656 21.4805 24.3762 21.4805C24.9868 21.4805 25.4837 21.9772 25.4837 22.588Z" fill="#009944"/>
</g>
<defs>
<clipPath id="clip0">
<rect width="80" height="80" fill="white"/>
</clipPath>
</defs>
</svg>
