<svg width="94" height="90" viewBox="0 0 94 90" fill="none" xmlns="http://www.w3.org/2000/svg">
<path d="M25.3597 63.8034C25.1189 63.8034 24.8742 63.7568 24.6373 63.6636C12.0335 58.6221 3.88477 46.5893 3.88477 33.0145C3.88477 14.8099 18.6947 0 36.8993 0C55.1038 0 69.9138 14.8099 69.9138 33.0145C69.9138 43.9248 64.5149 54.1438 55.4767 60.3583C54.5873 60.9719 53.3832 60.7428 52.7773 59.8572C52.1714 58.9717 52.3928 57.7637 53.2783 57.1578C61.2601 51.6735 66.0297 42.6431 66.0297 33.0145C66.0297 16.95 52.9637 3.88406 36.8993 3.88406C20.8348 3.88406 7.76882 16.95 7.76882 33.0145C7.76882 44.9929 14.9582 55.6042 26.0822 60.0592C27.0804 60.4592 27.562 61.5895 27.1619 62.5799C26.859 63.3412 26.1326 63.8034 25.3597 63.8034Z" fill="#009944"/>
<path d="M38.8416 46.6088H29.1315C28.0595 46.6088 27.1895 45.7388 27.1895 44.6668C27.1895 43.5948 28.0595 42.7248 29.1315 42.7248H38.8416C40.9856 42.7248 42.7257 40.9808 42.7257 38.8407C42.7257 36.7006 40.9856 34.9566 38.8416 34.9566H34.9576C30.6735 34.9566 27.1895 31.4726 27.1895 27.1885C27.1895 22.9044 30.6735 19.4204 34.9576 19.4204H44.6677C45.7397 19.4204 46.6097 20.2904 46.6097 21.3624C46.6097 22.4344 45.7397 23.3045 44.6677 23.3045H34.9576C32.8136 23.3045 31.0735 25.0484 31.0735 27.1885C31.0735 29.3286 32.8136 31.0726 34.9576 31.0726H38.8416C43.1257 31.0726 46.6097 34.5566 46.6097 38.8407C46.6097 43.1248 43.1257 46.6088 38.8416 46.6088Z" fill="#009944"/>
<path d="M36.8991 23.3045C35.8271 23.3045 34.957 22.4345 34.957 21.3625V13.5944C34.957 12.5224 35.8271 11.6523 36.8991 11.6523C37.9711 11.6523 38.8411 12.5224 38.8411 13.5944V21.3625C38.8411 22.4345 37.9711 23.3045 36.8991 23.3045Z" fill="#009944"/>
<path d="M1.94201 89.3336C1.30114 89.3336 0.675809 89.0151 0.30294 88.4363C-0.271901 87.5314 -0.00390085 86.3312 0.897201 85.7563L43.6218 58.5679C44.3909 58.0786 45.393 58.1873 46.0377 58.8321L60.199 72.9933L89.8965 43.2958C90.6539 42.5384 91.8851 42.5384 92.6425 43.2958C93.3999 44.0532 93.3999 45.2845 92.6425 46.0419L61.5701 77.1143C60.8127 77.8717 59.5814 77.8717 58.824 77.1143L44.387 62.6773L2.98682 89.0306C2.66445 89.2365 2.30323 89.3336 1.94201 89.3336Z" fill="#009944"/>
<path d="M91.2751 62.1449C90.2031 62.1449 89.3331 61.2749 89.3331 60.2029V46.6087H75.7389C74.6669 46.6087 73.7969 45.7386 73.7969 44.6666C73.7969 43.5946 74.6669 42.7246 75.7389 42.7246H91.2751C92.3471 42.7246 93.2172 43.5946 93.2172 44.6666V60.2029C93.2172 61.2749 92.3471 62.1449 91.2751 62.1449Z" fill="#009944"/>
</svg>
