<svg width="80" height="80" viewBox="0 0 80 80" fill="none" xmlns="http://www.w3.org/2000/svg">
<path d="M53.8137 6.25H53.6863C45.45 6.25 38.75 12.95 38.75 21.1862C38.75 24.7512 40.0262 28.2025 42.3462 30.9062L46.25 35.4625V38.75C46.25 42.8862 49.6138 46.25 53.75 46.25C57.8862 46.25 61.25 42.8862 61.25 38.75V35.4625L65.1538 30.9062C67.4738 28.2025 68.75 24.7512 68.75 21.1862C68.75 12.95 62.05 6.25 53.8137 6.25ZM53.75 43.75C50.9925 43.75 48.75 41.5075 48.75 38.75V36.25H58.75V38.75C58.75 41.5075 56.5075 43.75 53.75 43.75ZM51.6687 22.5H55.8313L55.08 33.75H52.4188L51.6687 22.5ZM63.2562 29.2812L59.425 33.75H57.5863L58.3362 22.5H60C62.0675 22.5 63.75 20.8175 63.75 18.75C63.75 16.6825 62.0675 15 60 15H59.8387C57.8712 15 56.2262 16.5375 56.0975 18.5012L55.9975 20H51.5025L51.4025 18.5025C51.2738 16.5375 49.6288 15 47.6613 15H47.5C45.4325 15 43.75 16.6825 43.75 18.75C43.75 20.8175 45.4325 22.5 47.5 22.5H49.1638L49.9137 33.75H48.075L44.2438 29.2812C42.3138 27.0287 41.25 24.1537 41.25 21.1862C41.25 14.3287 46.8288 8.75 53.6863 8.75H53.8137C60.6712 8.75 66.25 14.3287 66.25 21.1862C66.25 24.1537 65.1862 27.0287 63.2562 29.2812ZM58.5038 20L58.5925 18.6662C58.635 18.0125 59.1837 17.5 59.8387 17.5H60C60.69 17.5 61.25 18.06 61.25 18.75C61.25 19.44 60.69 20 60 20H58.5038ZM48.9962 20H47.5C46.81 20 46.25 19.44 46.25 18.75C46.25 18.06 46.81 17.5 47.5 17.5H47.6613C48.3163 17.5 48.865 18.0125 48.9075 18.6675L48.9962 20Z" fill="#009944"/>
<path d="M75 1.25H32.5C30.4325 1.25 28.75 2.9325 28.75 5V38.75H5C2.9325 38.75 1.25 40.4325 1.25 42.5V75C1.25 77.0675 2.9325 78.75 5 78.75H40C42.0675 78.75 43.75 77.0675 43.75 75V51.25H75C77.0675 51.25 78.75 49.5675 78.75 47.5V5C78.75 2.9325 77.0675 1.25 75 1.25ZM41.25 75C41.25 75.69 40.69 76.25 40 76.25H5C4.31 76.25 3.75 75.69 3.75 75V42.5C3.75 41.81 4.31 41.25 5 41.25H40C40.69 41.25 41.25 41.81 41.25 42.5V75ZM76.25 47.5C76.25 48.19 75.69 48.75 75 48.75H43.75V42.5C43.75 40.4325 42.0675 38.75 40 38.75H31.25V5C31.25 4.31 31.81 3.75 32.5 3.75H75C75.69 3.75 76.25 4.31 76.25 5V47.5Z" fill="#009944"/>
<path d="M22.5 43.75C16.2963 43.75 11.25 48.7963 11.25 55V55.2413C11.25 57.7863 12.125 60.2813 13.715 62.27L16.25 65.4388V67.5C16.25 70.9463 19.0538 73.75 22.5 73.75C25.9462 73.75 28.75 70.9463 28.75 67.5V65.4388L31.285 62.2713C32.875 60.2825 33.75 57.7863 33.75 55.2413V55C33.75 48.7963 28.7038 43.75 22.5 43.75ZM22.5 71.25C20.4325 71.25 18.75 69.5675 18.75 67.5V66.25H26.25V67.5C26.25 69.5675 24.5675 71.25 22.5 71.25ZM21.25 55C21.25 54.31 21.81 53.75 22.5 53.75C23.19 53.75 23.75 54.31 23.75 55C23.75 55.69 23.19 56.25 22.5 56.25C21.81 56.25 21.25 55.69 21.25 55ZM31.25 55.2413C31.25 57.22 30.5688 59.1625 29.3325 60.7075L26.8987 63.75H23.75V58.52C25.2013 58.0025 26.25 56.6275 26.25 55C26.25 52.9325 24.5675 51.25 22.5 51.25C20.4325 51.25 18.75 52.9325 18.75 55C18.75 56.6275 19.7987 58.0025 21.25 58.52V63.75H18.1012L15.6687 60.7075C14.4312 59.1625 13.75 57.22 13.75 55.2413V55C13.75 50.1762 17.6762 46.25 22.5 46.25C27.3237 46.25 31.25 50.1762 31.25 55V55.2413Z" fill="#009944"/>
<path d="M71.2499 62.5C71.2499 64.5675 69.5674 66.25 67.4999 66.25H44.4824L52.8662 74.6338L54.6337 72.8662L50.5174 68.75H67.4999C70.9462 68.75 73.7499 65.9462 73.7499 62.5V53.75H71.2499V62.5Z" fill="#009944"/>
<path d="M46.25 61.25H48.75V63.75H46.25V61.25Z" fill="#009944"/>
<path d="M51.25 61.25H53.75V63.75H51.25V61.25Z" fill="#009944"/>
<path d="M68.75 61.25V53.75H66.25V61.25H56.25V63.75H66.25C67.6287 63.75 68.75 62.6287 68.75 61.25Z" fill="#009944"/>
<path d="M3.75 25C3.75 22.9325 5.4325 21.25 7.5 21.25H28.0175L19.6337 12.8662L17.8663 14.6337L21.9825 18.75H7.5C4.05375 18.75 1.25 21.5537 1.25 25V33.75H3.75V25Z" fill="#009944"/>
<path d="M23.75 23.75H26.25V26.25H23.75V23.75Z" fill="#009944"/>
<path d="M18.75 23.75H21.25V26.25H18.75V23.75Z" fill="#009944"/>
<path d="M6.25 26.25V33.75H8.75V26.25H16.25V23.75H8.75C7.37125 23.75 6.25 24.8712 6.25 26.25Z" fill="#009944"/>
<path d="M6.25 71.25H8.75V73.75H6.25V71.25Z" fill="#009944"/>
<path d="M6.25 66.25H8.75V68.75H6.25V66.25Z" fill="#009944"/>
<path d="M6.25 61.25H8.75V63.75H6.25V61.25Z" fill="#009944"/>
<path d="M36.25 48.75H38.75V51.25H36.25V48.75Z" fill="#009944"/>
<path d="M36.25 43.75H38.75V46.25H36.25V43.75Z" fill="#009944"/>
<path d="M36.25 53.75H38.75V56.25H36.25V53.75Z" fill="#009944"/>
<path d="M71.25 43.75H73.75V46.25H71.25V43.75Z" fill="#009944"/>
<path d="M71.25 38.75H73.75V41.25H71.25V38.75Z" fill="#009944"/>
<path d="M71.25 33.75H73.75V36.25H71.25V33.75Z" fill="#009944"/>
<path d="M33.75 16.25H36.25V18.75H33.75V16.25Z" fill="#009944"/>
<path d="M33.75 11.25H36.25V13.75H33.75V11.25Z" fill="#009944"/>
<path d="M33.75 6.25H36.25V8.75H33.75V6.25Z" fill="#009944"/>
</svg>
