<svg width="27" height="27" viewBox="0 0 27 27" fill="none" xmlns="http://www.w3.org/2000/svg">
<path d="M26.5895 24.5927L19.9335 17.9093C21.6449 15.9452 22.5826 13.4739 22.5826 10.9012C22.5826 4.89039 17.5172 0 11.2913 0C5.06537 0 0 4.89039 0 10.9012C0 16.9121 5.06537 21.8025 11.2913 21.8025C13.6286 21.8025 15.8559 21.1219 17.7602 19.8298L24.4667 26.5639C24.747 26.845 25.1241 27 25.5281 27C25.9105 27 26.2733 26.8592 26.5487 26.6033C27.1339 26.0597 27.1526 25.1582 26.5895 24.5927ZM11.2913 2.8438C15.8932 2.8438 19.637 6.45827 19.637 10.9012C19.637 15.3442 15.8932 18.9587 11.2913 18.9587C6.68935 18.9587 2.94555 15.3442 2.94555 10.9012C2.94555 6.45827 6.68935 2.8438 11.2913 2.8438Z" fill="#009944"/>
</svg>
