<svg width="56" height="56" viewBox="0 0 56 56" fill="none" xmlns="http://www.w3.org/2000/svg">
<path d="M45.6258 36.4073C44.5919 36.4073 43.6541 36.8266 42.973 37.5041L38.1773 34.921C38.226 34.6796 38.2518 34.43 38.2518 34.1745C38.2518 32.0978 36.5618 30.4081 34.4843 30.4081C32.4085 30.4081 30.7198 32.0977 30.7198 34.1745C30.7198 36.2528 32.4085 37.9438 34.4843 37.9438C35.519 37.9438 36.4574 37.5241 37.1389 36.8463L41.9354 39.4298C41.887 39.6703 41.8613 39.919 41.8613 40.1736C41.8613 40.429 41.8871 40.6786 41.9358 40.9198L37.1376 43.502C36.4562 42.8254 35.5183 42.4066 34.4842 42.4066C32.4084 42.4066 30.7197 44.0961 30.7197 46.1728C30.7197 48.2495 32.4084 49.9391 34.4842 49.9391C36.5617 49.9391 38.2517 48.2496 38.2517 46.1728C38.2517 45.9174 38.2259 45.6679 38.1771 45.4266L42.9748 42.8448C43.6556 43.5212 44.5926 43.9399 45.6257 43.9399C47.7015 43.9399 49.3901 42.2504 49.3901 40.1736C49.3903 38.0968 47.7016 36.4073 45.6258 36.4073ZM34.4843 35.7561C33.6148 35.7561 32.9073 35.0466 32.9073 34.1744C32.9073 33.3038 33.6148 32.5955 34.4843 32.5955C35.3556 32.5955 36.0643 33.3038 36.0643 34.1744C36.0643 35.0466 35.3556 35.7561 34.4843 35.7561ZM34.4843 47.7514C33.6148 47.7514 32.9073 47.0431 32.9073 46.1726C32.9073 45.3021 33.6148 44.5939 34.4843 44.5939C35.3556 44.5939 36.0643 45.3021 36.0643 46.1726C36.0643 47.0431 35.3556 47.7514 34.4843 47.7514ZM45.6258 41.7522C44.7563 41.7522 44.0488 41.0439 44.0488 40.1734C44.0488 39.9047 44.1165 39.6518 44.2353 39.4302C44.2359 39.4291 44.2366 39.4282 44.2372 39.4272C44.2387 39.4244 44.2398 39.4213 44.2413 39.4185C44.5092 38.9281 45.0293 38.5948 45.6258 38.5948C46.4953 38.5948 47.2028 39.303 47.2028 40.1735C47.2028 41.044 46.4953 41.7522 45.6258 41.7522Z" fill="#009944"/>
<path d="M45.3567 25.9208V16.8404C45.3567 15.8611 44.5602 15.0645 43.5813 15.0645H37.6079V2.21298C37.6079 0.992688 36.6156 0 35.3956 0H12.0407C11.7529 0 11.4705 0.11725 11.267 0.320688L2.01578 9.57786C1.81234 9.78119 1.69531 10.0636 1.69531 10.3514V46.5106C1.69531 47.7308 2.68767 48.7235 3.90764 48.7235H25.1863C28.0036 53.0976 32.9148 56 38.4909 56C47.2107 56 54.3047 48.9002 54.3047 40.1734C54.3047 33.9087 50.6473 28.4828 45.3567 25.9208ZM43.1692 17.2519V25.0569C41.6901 24.5977 40.1189 24.35 38.4909 24.35C38.1946 24.35 37.9003 24.359 37.6079 24.3751V17.2519H43.1692ZM10.9469 3.73548V9.22906C10.9469 9.23661 10.9336 9.25138 10.9213 9.25138L5.43047 9.25553L10.9469 3.73548ZM3.90764 46.536C3.89648 46.536 3.88281 46.522 3.88281 46.5106V11.4442L10.9221 11.4389C12.1419 11.4389 13.1344 10.4476 13.1344 9.22906V2.1875H35.3956C35.4081 2.1875 35.4204 2.20008 35.4204 2.21288V24.6503C34.3663 24.8586 33.3493 25.1716 32.3811 25.5787V17.045C32.3811 16.441 31.8913 15.9513 31.2874 15.9513H24.5547C23.9507 15.9513 23.4609 16.441 23.4609 17.045C23.4609 17.649 23.9507 18.1388 24.5547 18.1388H30.1936V26.7078C28.7956 27.5731 27.5417 28.6499 26.477 29.8935H9.10963V18.1388H14.7393C15.3432 18.1388 15.833 17.649 15.833 17.045C15.833 16.441 15.3432 15.9513 14.7393 15.9513H8.01588C7.41191 15.9513 6.92212 16.441 6.92212 17.045V30.9873C6.92212 31.5912 7.41191 32.081 8.01588 32.081H24.9041C23.4887 34.4504 22.6739 37.2183 22.6739 40.1734C22.6739 42.4355 23.1516 44.5878 24.0099 46.536H3.90764ZM38.4909 53.8125C30.9755 53.8125 24.8615 47.6941 24.8615 40.1734C24.8615 32.6546 30.9755 26.5375 38.4909 26.5375C46.0044 26.5375 52.1172 32.6546 52.1172 40.1734C52.1172 47.6941 46.0044 53.8125 38.4909 53.8125Z" fill="#009944"/>
<path d="M17.0625 7.53241H31.4944C32.0984 7.53241 32.5882 7.04263 32.5882 6.43866C32.5882 5.83469 32.0984 5.34491 31.4944 5.34491H17.0625C16.4585 5.34491 15.9688 5.83469 15.9688 6.43866C15.9688 7.04263 16.4584 7.53241 17.0625 7.53241Z" fill="#009944"/>
<path d="M17.0625 12.834H31.4944C32.0984 12.834 32.5882 12.3443 32.5882 11.7403C32.5882 11.1363 32.0984 10.6465 31.4944 10.6465H17.0625C16.4585 10.6465 15.9688 11.1363 15.9688 11.7403C15.9688 12.3443 16.4584 12.834 17.0625 12.834Z" fill="#009944"/>
<path d="M18.7794 34.9501H7.81152C7.20755 34.9501 6.71777 35.4399 6.71777 36.0439C6.71777 36.6479 7.20755 37.1376 7.81152 37.1376H18.7794C19.3834 37.1376 19.8732 36.6479 19.8732 36.0439C19.8732 35.4399 19.3835 34.9501 18.7794 34.9501Z" fill="#009944"/>
<path d="M10.3057 40.2548H7.81152C7.20755 40.2548 6.71777 40.7445 6.71777 41.3485C6.71777 41.9525 7.20755 42.4423 7.81152 42.4423H10.3057C10.9097 42.4423 11.3995 41.9525 11.3995 41.3485C11.3995 40.7445 10.9097 40.2548 10.3057 40.2548Z" fill="#009944"/>
<path d="M18.7795 40.2548H14.2529C13.649 40.2548 13.1592 40.7445 13.1592 41.3485C13.1592 41.9525 13.649 42.4423 14.2529 42.4423H18.7795C19.3835 42.4423 19.8733 41.9525 19.8733 41.3485C19.8733 40.7445 19.3836 40.2548 18.7795 40.2548Z" fill="#009944"/>
<path d="M19.6475 15.9512C19.0435 15.9512 18.5537 16.441 18.5537 17.045C18.5537 17.649 19.0435 18.1387 19.6475 18.1387H19.6537C20.2577 18.1387 20.7444 17.649 20.7444 17.045C20.7444 16.441 20.2514 15.9512 19.6475 15.9512Z" fill="#009944"/>
</svg>
