<svg width="71" height="90" viewBox="0 0 71 90" fill="none" xmlns="http://www.w3.org/2000/svg">
<path d="M9.85694 57.4737C3.6848 60.3813 0 66.1736 0 72.9685V87.9342C0 88.705 0.628103 89.33 1.4028 89.33H69.387C70.1617 89.33 70.7898 88.705 70.7898 87.9342V72.9683C70.7898 66.1735 67.105 60.381 60.9329 57.4736L44.3548 49.664L43.9306 43.496C45.2831 42.6139 46.49 41.529 47.5077 40.2845H49.6679C52.8105 40.2845 55.3673 37.7405 55.3673 34.6135V33.6978C57.52 32.2673 58.927 29.9282 58.927 27.2879C58.927 24.6476 57.52 22.3084 55.3673 20.8779V19.8724C55.3673 8.91468 46.4078 0 35.3949 0C24.3821 0 15.4226 8.91468 15.4226 19.8724V20.8695C13.2007 22.3348 11.8628 24.7025 11.8628 27.2882C11.8628 31.6328 15.6687 35.1672 20.3469 35.1672C20.3992 35.1672 20.4509 35.1637 20.5031 35.1629C21.6036 38.6321 23.8974 41.5788 26.9031 43.525L26.43 49.6666L9.85694 57.4737ZM43.2885 52.2504L48.0399 54.4887L44.8433 61.8542L37.6259 56.4726L43.2885 52.2504ZM32.9454 70.1115H37.8444L38.8667 86.5384H31.9232L32.9454 70.1115ZM39.975 61.7126L38.1439 67.3199H32.6459L30.7725 61.5829L35.2867 58.217L39.975 61.7126ZM25.7301 61.8542L22.5702 54.5733L27.3686 52.3128L32.9474 56.4726L25.7301 61.8542ZM2.8056 72.9683C2.8056 67.28 5.89035 62.4309 11.0576 59.9966L20.0332 55.7684L23.8599 64.5859C24.0301 64.9785 24.3717 65.2716 24.7871 65.3815C24.906 65.4131 25.0272 65.4285 25.1476 65.4285C25.4478 65.4285 25.7436 65.3325 25.989 65.1497L28.4002 63.3517L30.2102 68.8944L29.1121 86.5384H2.8056V72.9683ZM67.9842 72.9683V86.5384H41.6777L40.5796 68.8944L42.3474 63.4813L44.5848 65.1497C44.8301 65.3325 45.1259 65.4285 45.4261 65.4285C45.5466 65.4285 45.6678 65.4131 45.7867 65.3815C46.2019 65.2716 46.5435 64.9785 46.7139 64.5859L50.5774 55.6838L59.7326 59.9966C64.8995 62.4307 67.9842 67.28 67.9842 72.9683ZM49.6677 37.4931H49.3307C49.7098 36.7487 50.0305 35.9698 50.2865 35.1629C50.3387 35.1637 50.3905 35.1672 50.4427 35.1672C51.168 35.1672 51.872 35.0819 52.5443 34.9223C52.3891 36.3653 51.1587 37.4931 49.6677 37.4931ZM50.8943 32.3581C50.9679 31.7474 51.0068 31.1263 51.0068 30.4963V22.2259C53.8743 22.4805 56.1214 24.6533 56.1214 27.2882C56.1214 29.9571 53.8151 32.1511 50.8943 32.3581ZM35.3949 2.79156C44.7884 2.79156 52.4424 10.3377 52.5589 19.6571C52.0449 19.5341 51.5118 19.4565 50.9653 19.4254C50.3828 11.3845 43.6221 5.01923 35.3949 5.01923C27.1678 5.01923 20.4074 11.3842 19.8245 19.4247C19.2862 19.4558 18.7523 19.5364 18.231 19.6606C18.3455 10.3394 26.0002 2.79156 35.3949 2.79156ZM47.5524 16.5566C45.3197 15.764 43.2248 14.9591 41.661 13.0636C41.3955 12.7419 40.9998 12.5549 40.5816 12.5535C40.58 12.5535 40.5782 12.5535 40.5767 12.5535C40.1602 12.5535 39.7652 12.7377 39.4986 13.0561C35.955 17.2916 30.9645 17.9101 25.6812 18.5649C24.6979 18.6869 23.6929 18.8139 22.6917 18.9643C23.4806 12.6857 28.8745 7.81079 35.3949 7.81079C41.0534 7.81079 45.8633 11.4827 47.5524 16.5566ZM14.6684 27.288C14.6684 25.3962 15.8311 23.6709 17.7028 22.7853C18.3562 22.4763 19.0542 22.2906 19.7832 22.2271V30.4963C19.7832 31.1263 19.8221 31.7474 19.8957 32.3581C16.9747 32.1511 14.6684 29.9571 14.6684 27.288ZM22.5886 30.4963V21.8045C23.7241 21.622 24.8906 21.476 26.0279 21.335C31.1677 20.698 36.4682 20.0412 40.5944 15.9915C42.5197 17.7397 44.7656 18.5339 46.9491 19.3061C47.3529 19.449 47.7653 19.5955 48.1726 19.7472C48.1895 20.0139 48.2009 20.2821 48.2009 20.5531V30.4963C48.2009 33.079 47.4225 35.4832 46.0898 37.4931H36.7376C35.9629 37.4931 35.3348 38.1181 35.3348 38.8889C35.3348 39.6597 35.9629 40.2847 36.7376 40.2847H43.583C41.3615 42.1276 38.5065 43.2385 35.3947 43.2385C28.3334 43.2385 22.5886 37.5224 22.5886 30.4963ZM35.3949 46.0301C37.4514 46.0301 39.4159 45.6316 41.2156 44.9094L41.5688 50.0445L35.2869 54.7286L29.2033 50.1923L29.6091 44.9236C31.3994 45.6368 33.3517 46.0301 35.3949 46.0301ZM59.1585 70.9137C59.9332 70.9137 60.5613 71.5387 60.5613 72.3095C60.5613 73.0803 59.9332 73.7053 59.1585 73.7053H49.3389C48.5642 73.7053 47.9361 73.0803 47.9361 72.3095C47.9361 71.5387 48.5642 70.9137 49.3389 70.9137H59.1585Z" fill="#009944"/>
</svg>
