<svg width="46" height="46" viewBox="0 0 46 46" fill="none" xmlns="http://www.w3.org/2000/svg">
<path d="M30.8784 3.98969H29.8109C29.1186 3.35333 28.1958 2.96395 27.1836 2.96395H25.9664C25.0611 1.1491 23.2241 0 21.1665 0C19.109 0 17.2718 1.1491 16.3666 2.96395H15.1495C14.137 2.96395 13.214 3.35342 12.5217 3.99005H11.4554C8.25269 3.99005 5.64704 6.5957 5.64704 9.79845V10.9614C2.47735 11.299 0 13.9883 0 17.246C0 20.5036 2.47735 23.1929 5.64695 23.5303V32.947C5.64695 36.1503 8.2526 38.7563 11.4553 38.7563H22.3233C22.2988 38.9821 22.2853 39.2111 22.2853 39.4433C22.2853 42.9285 25.1208 45.7641 28.606 45.7641C32.0912 45.7641 34.9267 42.9286 34.9267 39.4433C34.9267 38.7337 34.8074 38.0519 34.5907 37.4146C35.912 36.3157 36.6867 34.6821 36.6867 32.9472V13.9857C36.6867 13.6136 36.385 13.3119 36.0129 13.3119C35.6407 13.3119 35.3391 13.6136 35.3391 13.9857V32.9472C35.3391 34.1595 34.8454 35.3066 33.9919 36.1396C32.8786 34.3312 30.881 33.1225 28.6059 33.1225C25.8324 33.1225 23.4721 34.9189 22.6231 37.4087H11.4553C8.9957 37.4087 6.99461 35.4072 6.99461 32.947V23.5303C10.1641 23.1928 12.6415 20.5035 12.6415 17.246C12.6415 13.9884 10.1642 11.2991 6.99461 10.9616V9.79863C6.99461 7.33898 8.9957 5.33789 11.4553 5.33789H11.5696C11.3724 5.80301 11.2633 6.31413 11.2633 6.85023C11.2633 8.99309 13.0066 10.7364 15.1495 10.7364H27.1837C29.3265 10.7364 31.0698 8.99309 31.0698 6.85023C31.0698 6.31386 30.9605 5.80265 30.7632 5.33744H30.8785C33.3381 5.33744 35.3392 7.33889 35.3392 9.79908V11.2922C35.3392 11.6643 35.6409 11.966 36.0131 11.966C36.3852 11.966 36.6869 11.6643 36.6869 11.2922V9.79899C36.6868 6.59579 34.0812 3.98969 30.8784 3.98969ZM28.606 34.4702C31.3481 34.4702 33.579 36.7011 33.579 39.4432C33.579 42.1853 31.3481 44.4163 28.606 44.4163C25.8639 44.4163 23.6329 42.1854 23.6329 39.4432C23.6329 36.7011 25.8639 34.4702 28.606 34.4702ZM11.2938 17.246C11.2938 19.9881 9.0629 22.2191 6.32069 22.2191C3.57857 22.219 1.34766 19.9881 1.34766 17.246C1.34766 14.5038 3.57857 12.2729 6.32069 12.2729C9.0629 12.2729 11.2938 14.5038 11.2938 17.246ZM27.1836 9.38876H15.1495C13.7497 9.38876 12.6109 8.24999 12.6109 6.85023C12.6109 5.45046 13.7497 4.31169 15.1495 4.31169H16.8029C17.0791 4.31169 17.3274 4.14314 17.4292 3.88646C18.0413 2.3442 19.5083 1.34775 21.1665 1.34775C22.8247 1.34775 24.2917 2.3442 24.9038 3.88646C25.0057 4.14314 25.2539 4.31169 25.5301 4.31169H27.1836C28.5833 4.31169 29.722 5.45046 29.722 6.85023C29.722 8.24999 28.5833 9.38876 27.1836 9.38876Z" fill="white"/>
<path d="M21.1668 2.77365C19.7361 2.77365 18.5723 3.93758 18.5723 5.36825C18.5723 6.79892 19.7362 7.96276 21.1668 7.96276C22.5974 7.96276 23.7613 6.79883 23.7613 5.36825C23.7613 3.93767 22.5974 2.77365 21.1668 2.77365ZM21.1668 6.6151C20.4792 6.6151 19.9199 6.05573 19.9199 5.36825C19.9199 4.68076 20.4793 4.12131 21.1668 4.12131C21.8543 4.12131 22.4136 4.68067 22.4136 5.36825C22.4136 6.05582 21.8543 6.6151 21.1668 6.6151Z" fill="white"/>
<path d="M4.56445 14.3344C4.56445 14.7065 4.86615 15.0082 5.23828 15.0082H5.82128V20.2146C5.82128 20.5867 6.12297 20.8884 6.49511 20.8884C6.86724 20.8884 7.16893 20.5867 7.16893 20.2146V14.3344C7.16893 13.9623 6.86724 13.6606 6.49511 13.6606H5.23828C4.86615 13.6606 4.56445 13.9623 4.56445 14.3344Z" fill="white"/>
<path d="M19.4571 27.2312C19.4748 27.1341 19.5004 26.95 19.5036 26.8516C19.5036 25.6504 18.5263 24.6731 17.3251 24.6731C16.2865 24.6731 15.3876 25.412 15.1876 26.43C15.1159 26.7952 15.3537 27.1494 15.7189 27.2211C16.0839 27.2925 16.4382 27.055 16.51 26.6898C16.5862 26.3021 16.929 26.0207 17.3251 26.0207C17.7709 26.0207 18.1359 26.3737 18.1551 26.8149L18.1369 26.9569C18.0637 27.2464 17.891 27.5868 17.6234 27.9693C16.6921 29.2999 16.1363 30.0276 15.8378 30.4186C15.4679 30.9029 15.299 31.124 15.4138 31.4971C15.4812 31.7164 15.6473 31.8846 15.8693 31.9587C15.9591 31.9886 16.0455 32.0174 17.1882 32.0174C17.637 32.0174 18.2486 32.013 19.0874 32.0024C19.4595 31.9978 19.7574 31.6923 19.7527 31.3202C19.748 30.948 19.4434 30.6495 19.0704 30.6549C18.4819 30.6623 17.8576 30.6672 17.3389 30.6682C17.6649 30.2321 18.1173 29.6138 18.7275 28.7419C19.1038 28.2043 19.3493 27.6959 19.4571 27.2312Z" fill="white"/>
<path d="M13.4391 32.3628C13.2086 32.655 13.2587 33.0787 13.5508 33.3092C14.6754 34.1962 16.0282 34.665 17.4631 34.665C20.9487 34.665 23.7845 31.8297 23.7845 28.3445C23.7845 24.8594 20.9488 22.024 17.4631 22.024C13.978 22.024 11.1426 24.8594 11.1426 28.3445C11.1426 29.2668 11.3373 30.1564 11.7211 30.9887C11.8769 31.3266 12.2771 31.4742 12.6152 31.3184C12.9531 31.1625 13.1007 30.7622 12.9448 30.4242C12.6431 29.7702 12.4901 29.0705 12.4901 28.3444C12.4901 25.6024 14.721 23.3716 17.463 23.3716C20.2055 23.3716 22.4367 25.6024 22.4367 28.3444C22.4367 31.0865 20.2056 33.3173 17.463 33.3173C16.334 33.3173 15.2697 32.9486 14.3854 32.2509C14.0932 32.0206 13.6695 32.0706 13.4391 32.3628Z" fill="white"/>
<path d="M28.6404 41.8643C28.2282 41.8643 27.8744 41.5573 27.8177 41.1503C27.8123 41.112 27.8096 41.0727 27.8096 41.0335C27.8096 40.6614 27.5079 40.3597 27.1357 40.3597C26.7636 40.3597 26.4619 40.6614 26.4619 41.0335C26.4619 41.1347 26.469 41.2367 26.4828 41.3366C26.6321 42.4057 27.5595 43.2121 28.6404 43.2121C29.8416 43.2121 30.8188 42.2348 30.8188 41.0336C30.8188 40.4506 30.5886 39.9204 30.2143 39.529C30.5886 39.1376 30.8188 38.6074 30.8188 38.0244C30.8188 36.8232 29.8416 35.8459 28.6404 35.8459C27.6017 35.8459 26.7027 36.5848 26.5028 37.6029C26.4311 37.9681 26.669 38.3222 27.0341 38.394C27.3993 38.4656 27.7535 38.2278 27.8252 37.8627C27.9013 37.475 28.2441 37.1937 28.6404 37.1937C29.0985 37.1937 29.4711 37.5664 29.4711 38.0245C29.4711 38.4826 29.0985 38.8553 28.6404 38.8553C28.2682 38.8553 27.9665 39.157 27.9665 39.5291C27.9665 39.9012 28.2682 40.2029 28.6404 40.2029C29.0985 40.2029 29.4711 40.5756 29.4711 41.0337C29.4711 41.4918 29.0984 41.8643 28.6404 41.8643Z" fill="white"/>
<path d="M26.9954 15.5429C26.9954 15.1707 26.6937 14.869 26.3215 14.869H15.8486C15.4765 14.869 15.1748 15.1707 15.1748 15.5429C15.1748 15.915 15.4765 16.2167 15.8486 16.2167H26.3215C26.6937 16.2167 26.9954 15.915 26.9954 15.5429Z" fill="white"/>
<path d="M22.837 19.6229C23.2092 19.6229 23.5109 19.3212 23.5109 18.949C23.5109 18.5769 23.2092 18.2752 22.837 18.2752H15.8486C15.4765 18.2752 15.1748 18.5769 15.1748 18.949C15.1748 19.3212 15.4765 19.6229 15.8486 19.6229H22.837Z" fill="white"/>
<path d="M34.2328 26.6415C34.2328 26.2694 33.9311 25.9677 33.5589 25.9677H25.1533C24.7812 25.9677 24.4795 26.2694 24.4795 26.6415C24.4795 27.0137 24.7812 27.3154 25.1533 27.3154H33.5589C33.9311 27.3154 34.2328 27.0137 34.2328 26.6415Z" fill="white"/>
<path d="M25.1533 29.3739C24.7812 29.3739 24.4795 29.6756 24.4795 30.0477C24.4795 30.4198 24.7812 30.7215 25.1533 30.7215H30.0744C30.4466 30.7215 30.7483 30.4198 30.7483 30.0477C30.7483 29.6756 30.4466 29.3739 30.0744 29.3739H25.1533Z" fill="white"/>
<path d="M45.3263 37.0664H37.4404C37.0683 37.0664 36.7666 37.3681 36.7666 37.7402C36.7666 38.1123 37.0683 38.414 37.4404 38.414H45.3263C45.6984 38.414 46.0001 38.1123 46.0001 37.7402C46.0001 37.3681 45.6984 37.0664 45.3263 37.0664Z" fill="white"/>
<path d="M41.8419 40.4724H37.4404C37.0683 40.4724 36.7666 40.7741 36.7666 41.1463C36.7666 41.5184 37.0683 41.8201 37.4404 41.8201H41.8419C42.214 41.8201 42.5157 41.5184 42.5157 41.1463C42.5157 40.7741 42.214 40.4724 41.8419 40.4724Z" fill="white"/>
</svg>
