<svg width="109" height="109" viewBox="0 0 109 109" fill="none" xmlns="http://www.w3.org/2000/svg">
<path d="M56.8417 93.2461H13.8357C12.6601 93.2461 11.7068 94.1992 11.7068 95.375C11.7068 96.5508 12.6601 97.5039 13.8357 97.5039H56.8417C58.0173 97.5039 58.9706 96.5508 58.9706 95.375C58.9706 94.1992 58.0173 93.2461 56.8417 93.2461Z" fill="#009944"/>
<path d="M15.3406 81.948C14.9449 81.552 14.3956 81.3242 13.8357 81.3242C13.2756 81.3242 12.7263 81.552 12.3306 81.948C11.9346 82.344 11.7068 82.8932 11.7068 83.4531C11.7068 84.013 11.9344 84.5623 12.3306 84.9583C12.7263 85.3542 13.2756 85.582 13.8357 85.582C14.3956 85.582 14.9449 85.3542 15.3406 84.9583C15.7366 84.5623 15.9646 84.013 15.9646 83.4531C15.9646 82.8932 15.7368 82.344 15.3406 81.948Z" fill="#009944"/>
<path d="M56.8418 81.3242H23.2051C22.0295 81.3242 21.0762 82.2773 21.0762 83.4531C21.0762 84.6289 22.0295 85.582 23.2051 85.582H56.8418C58.0174 85.582 58.9707 84.6289 58.9707 83.4531C58.9707 82.2773 58.0174 81.3242 56.8418 81.3242Z" fill="#009944"/>
<path d="M56.8418 69.4023H13.625C12.4494 69.4023 11.4961 70.3555 11.4961 71.5312C11.4961 72.707 12.4494 73.6602 13.625 73.6602H56.8418C58.0174 73.6602 58.9707 72.707 58.9707 71.5312C58.9707 70.3555 58.0174 69.4023 56.8418 69.4023Z" fill="#009944"/>
<path d="M15.3406 58.1042C14.9449 57.7083 14.3956 57.4805 13.8357 57.4805C13.2756 57.4805 12.7263 57.7083 12.3306 58.1042C11.9346 58.5002 11.7068 59.0495 11.7068 59.6094C11.7068 60.1693 11.9344 60.7185 12.3306 61.1145C12.7263 61.5105 13.2756 61.7383 13.8357 61.7383C14.3956 61.7383 14.9449 61.5105 15.3406 61.1145C15.7366 60.7185 15.9646 60.1714 15.9646 59.6094C15.9646 59.0495 15.7368 58.5002 15.3406 58.1042Z" fill="#009944"/>
<path d="M56.8418 57.4805H23.2051C22.0295 57.4805 21.0762 58.4336 21.0762 59.6094C21.0762 60.7852 22.0295 61.7383 23.2051 61.7383H56.8418C58.0174 61.7383 58.9707 60.7852 58.9707 59.6094C58.9707 58.4336 58.0174 57.4805 56.8418 57.4805Z" fill="#009944"/>
<path d="M25.0046 25.5068H13.625C12.4494 25.5068 11.4961 26.4599 11.4961 27.6357C11.4961 28.8115 12.4494 29.7646 13.625 29.7646H17.186V45.6878C17.186 46.8636 18.1393 47.8167 19.3149 47.8167C20.4905 47.8167 21.4438 46.8636 21.4438 45.6878V29.7646H25.0049C26.1804 29.7646 27.1338 28.8115 27.1338 27.6357C27.1338 26.4599 26.1804 25.5068 25.0046 25.5068Z" fill="#009944"/>
<path d="M46.3639 44.857L38.7545 26.9405C38.4207 26.1543 37.6492 25.6438 36.7951 25.6438C35.941 25.6438 35.1695 26.1543 34.8357 26.9405L27.2261 44.857C26.7665 45.9393 27.2712 47.1892 28.3534 47.6486C28.6248 47.764 28.9071 47.8185 29.1845 47.8185C30.0131 47.8185 30.8007 47.3318 31.145 46.5213L32.506 43.3173H41.0842L42.445 46.5213C42.9046 47.6037 44.1543 48.1084 45.2366 47.6486C46.3188 47.189 46.8235 45.9391 46.3639 44.857ZM34.3143 39.0597L36.7951 33.2187L39.2759 39.0597H34.3143Z" fill="#009944"/>
<path d="M58.7992 36.6657L63.8045 28.7734C64.434 27.7807 64.1396 26.4653 63.1467 25.8356C62.1535 25.2056 60.8381 25.5005 60.2086 26.4932L56.2782 32.6906L52.3478 26.4932C51.7181 25.5005 50.403 25.2058 49.4097 25.8356C48.4168 26.4653 48.1223 27.7807 48.7519 28.7737L53.7571 36.6659L48.7519 44.558C48.1223 45.5509 48.4168 46.8664 49.4097 47.4961C49.7633 47.7205 50.158 47.8276 50.5478 47.8276C51.2527 47.8276 51.9425 47.4778 52.3478 46.8385L56.2782 40.641L60.2086 46.8385C60.6141 47.4778 61.3037 47.8276 62.0086 47.8276C62.3984 47.8276 62.7931 47.7205 63.1467 47.4961C64.1396 46.8664 64.434 45.5509 63.8045 44.558L58.7992 36.6657Z" fill="#009944"/>
<path d="M103.252 48.5259H69.6152C66.4457 48.5259 63.8672 51.1044 63.8672 54.2739V103.252C63.8672 103.767 63.9364 104.267 64.0643 104.742H6.38672C5.21284 104.742 4.25781 103.787 4.25781 102.613V6.38672C4.25781 5.21284 5.21284 4.25781 6.38672 4.25781H66.6348V17.2158C66.6348 20.7679 69.5245 23.6579 73.0768 23.6579H86.0078V41.1884C86.0078 42.3642 86.9611 43.3173 88.1367 43.3173C89.3123 43.3173 90.2656 42.3642 90.2656 41.1884V21.529C90.2639 21.5292 90.2622 21.5292 90.2605 21.5294C90.2605 20.9755 90.0491 20.4309 89.6421 20.0236L70.269 0.650594C69.8598 0.241418 69.3119 0.0304434 68.7549 0.0325723C68.7584 0.0210762 68.7603 0.0114961 68.7637 0H6.38672C2.86508 0 0 2.86508 0 6.38672V102.613C0 106.135 2.86508 109 6.38672 109H103.252C106.421 109 109 106.421 109 103.252V54.2739C109 51.1044 106.421 48.5259 103.252 48.5259ZM70.8926 7.29555L82.9969 19.4001H73.0768C71.8725 19.4001 70.8926 18.4201 70.8926 17.2158V7.29555ZM104.742 103.252C104.742 104.074 104.074 104.742 103.252 104.742H69.6152C68.7937 104.742 68.125 104.074 68.125 103.252V54.2739C68.125 53.4522 68.7937 52.7837 69.6152 52.7837H103.252C104.074 52.7837 104.742 53.4522 104.742 54.2739V103.252Z" fill="#009944"/>
<path d="M98.3555 57.0415H74.5117C73.3361 57.0415 72.3828 57.9946 72.3828 59.1704V67.686C72.3828 68.8618 73.3361 69.8149 74.5117 69.8149H98.3555C99.5311 69.8149 100.484 68.8618 100.484 67.686V59.1704C100.484 57.9946 99.5311 57.0415 98.3555 57.0415ZM96.2266 65.5571H76.6406V61.2993H96.2266V65.5571Z" fill="#009944"/>
<path d="M77.0664 75.7759H74.5117C73.3361 75.7759 72.3828 76.729 72.3828 77.9048C72.3828 79.0806 73.3361 80.0337 74.5117 80.0337H77.0664C78.242 80.0337 79.1953 79.0806 79.1953 77.9048C79.1953 76.729 78.242 75.7759 77.0664 75.7759Z" fill="#009944"/>
<path d="M87.7109 75.7759H85.1562C83.9807 75.7759 83.0273 76.729 83.0273 77.9048C83.0273 79.0806 83.9807 80.0337 85.1562 80.0337H87.7109C88.8865 80.0337 89.8398 79.0806 89.8398 77.9048C89.8398 76.729 88.8865 75.7759 87.7109 75.7759Z" fill="#009944"/>
<path d="M98.3555 75.7759H95.8008C94.6252 75.7759 93.6719 76.729 93.6719 77.9048C93.6719 79.0806 94.6252 80.0337 95.8008 80.0337H98.3555C99.5311 80.0337 100.484 79.0806 100.484 77.9048C100.484 76.729 99.5311 75.7759 98.3555 75.7759Z" fill="#009944"/>
<path d="M77.0664 85.9946H74.5117C73.3361 85.9946 72.3828 86.9477 72.3828 88.1235C72.3828 89.2993 73.3361 90.2524 74.5117 90.2524H77.0664C78.242 90.2524 79.1953 89.2993 79.1953 88.1235C79.1953 86.9477 78.242 85.9946 77.0664 85.9946Z" fill="#009944"/>
<path d="M87.7109 85.9946H85.1562C83.9807 85.9946 83.0273 86.9477 83.0273 88.1235C83.0273 89.2993 83.9807 90.2524 85.1562 90.2524H87.7109C88.8865 90.2524 89.8398 89.2993 89.8398 88.1235C89.8398 86.9477 88.8865 85.9946 87.7109 85.9946Z" fill="#009944"/>
<path d="M98.3555 85.9946H95.8008C94.6252 85.9946 93.6719 86.9477 93.6719 88.1235C93.6719 89.2993 94.6252 90.2524 95.8008 90.2524H98.3555C99.5311 90.2524 100.484 89.2993 100.484 88.1235C100.484 86.9477 99.5311 85.9946 98.3555 85.9946Z" fill="#009944"/>
<path d="M77.0664 96.2134H74.5117C73.3361 96.2134 72.3828 97.1665 72.3828 98.3423C72.3828 99.5181 73.3361 100.471 74.5117 100.471H77.0664C78.242 100.471 79.1953 99.5181 79.1953 98.3423C79.1953 97.1665 78.242 96.2134 77.0664 96.2134Z" fill="#009944"/>
<path d="M87.7109 96.2134H85.1562C83.9807 96.2134 83.0273 97.1665 83.0273 98.3423C83.0273 99.5181 83.9807 100.471 85.1562 100.471H87.7109C88.8865 100.471 89.8398 99.5181 89.8398 98.3423C89.8398 97.1665 88.8865 96.2134 87.7109 96.2134Z" fill="#009944"/>
<path d="M98.3555 96.2134H95.8008C94.6252 96.2134 93.6719 97.1665 93.6719 98.3423C93.6719 99.5181 94.6252 100.471 95.8008 100.471H98.3555C99.5311 100.471 100.484 99.5181 100.484 98.3423C100.484 97.1665 99.5311 96.2134 98.3555 96.2134Z" fill="#009944"/>
</svg>
