<svg width="36" height="36" viewBox="0 0 36 36" fill="none" xmlns="http://www.w3.org/2000/svg">
<path d="M17.9999 0C27.9416 0 36 8.05949 36 18.0001C36 27.9417 27.9416 36 17.9999 36C8.05826 36 0 27.9416 0 18.0001C0 8.05949 8.05838 0 17.9999 0Z" fill="#26A6D1"/>
<path d="M29.2537 12.1265C28.4673 12.4662 27.6212 12.6946 26.7337 12.7981C27.6405 12.2704 28.3357 11.4368 28.6631 10.4413C27.8149 10.9306 26.8765 11.285 25.8764 11.4751C25.0765 10.6483 23.9369 10.1318 22.6747 10.1318C20.2537 10.1318 18.2895 12.0365 18.2895 14.3877C18.2895 14.7218 18.3278 15.0469 18.4031 15.3586C14.7581 15.1809 11.5248 13.4854 9.36263 10.9104C8.98461 11.5392 8.7686 12.2693 8.7686 13.0501C8.7686 14.5261 9.54256 15.831 10.7194 16.5928C9.99942 16.5703 9.32432 16.3801 8.73153 16.0595V16.1135C8.73153 18.1767 10.2435 19.8969 12.2505 20.2884C11.8826 20.3852 11.4955 20.4381 11.095 20.4381C10.8127 20.4381 10.5382 20.4122 10.2704 20.3616C10.8284 22.0536 12.4484 23.2843 14.3688 23.3181C12.867 24.4611 10.9758 25.1406 8.92048 25.1406C8.56606 25.1406 8.21733 25.1204 7.87305 25.0811C9.81591 26.2893 12.12 26.9946 14.5983 26.9946C22.6668 26.9946 27.0791 20.5057 27.0791 14.8806L27.0667 14.3293C27.9216 13.7307 28.6653 12.9815 29.2537 12.1265Z" fill="white"/>
</svg>
