<svg width="103" height="102" viewBox="0 0 103 102" fill="none" xmlns="http://www.w3.org/2000/svg">
<path d="M87.21 14.6582C77.52 5.29125 64.77 0 51.1912 0C12.2188 0 -12.2528 42.2237 7.208 75.8115L0 102L26.9237 94.979C38.6538 101.316 48.263 100.755 51.2167 101.129C96.407 101.129 118.902 46.4567 87.1462 14.824L87.21 14.6582Z" fill="#ECEFF1"/>
<path d="M51.2847 92.4419L51.2592 92.4377H51.1912C37.6677 92.4377 29.0275 86.0329 28.1775 85.6632L12.24 89.8069L16.5112 74.3157L15.4955 72.7219C11.288 66.0239 9.05249 58.3102 9.05249 50.3669C9.05249 12.9967 54.7187 -5.69059 81.1452 20.7232C107.508 46.8607 88.9992 92.4419 51.2847 92.4419Z" fill="#4CAF50"/>
<path d="M74.4049 60.8047L74.3666 61.1235C73.0874 60.486 66.8569 57.4387 65.6966 57.018C63.0914 56.0532 63.8266 56.865 58.8244 62.594C58.0806 63.4227 57.3411 63.4865 56.0789 62.9127C54.8039 62.2752 50.7111 60.9365 45.8661 56.6015C42.0921 53.2227 39.5591 49.079 38.8111 47.804C37.5658 45.6535 40.1711 45.3475 42.5426 40.8595C42.9676 39.967 42.7508 39.2657 42.4363 38.6325C42.1176 37.995 39.5803 31.7475 38.5178 29.257C37.4978 26.775 36.4481 27.0895 35.6618 27.0895C33.2138 26.877 31.4246 26.911 29.8478 28.5515C22.9883 36.091 24.7181 43.8685 30.5873 52.139C42.1219 67.235 48.2674 70.0145 59.5044 73.8735C62.5389 74.8382 65.3056 74.7022 67.4944 74.3877C69.9339 74.001 75.0041 71.3235 76.0624 68.3272C77.1461 65.331 77.1461 62.8447 76.8274 62.271C76.5129 61.6972 75.6799 61.3785 74.4049 60.8047Z" fill="#FAFAFA"/>
</svg>
