<svg width="35" height="34" viewBox="0 0 35 34" fill="none" xmlns="http://www.w3.org/2000/svg">
<circle cx="17.069" cy="17" r="17" fill="#009944"/>
<path fill-rule="evenodd" clip-rule="evenodd" d="M12.4179 10.4014C15.5139 10.1592 18.6241 10.1592 21.7202 10.4014L23.7999 10.5641C24.9583 10.6547 25.906 11.5229 26.0975 12.669C26.5766 15.5365 26.5766 18.4638 26.0975 21.3313C25.906 22.4773 24.9583 23.3455 23.7999 23.4362L21.7202 23.5989C18.6241 23.8411 15.5139 23.8411 12.4179 23.5989L10.3381 23.4362C9.17972 23.3455 8.23205 22.4773 8.04056 21.3313C7.56143 18.4638 7.56143 15.5365 8.04056 12.669C8.23205 11.5229 9.17972 10.6547 10.3381 10.5641L12.4179 10.4014ZM15.2127 19.2928V14.7074C15.2127 14.491 15.4488 14.3573 15.6343 14.4687L19.4556 16.7614C19.6358 16.8695 19.6358 17.1307 19.4556 17.2389L15.6343 19.5316C15.4488 19.643 15.2127 19.5092 15.2127 19.2928Z" fill="white"/>
</svg>
