<svg width="64" height="64" viewBox="0 0 64 64" fill="none" xmlns="http://www.w3.org/2000/svg">
<circle cx="32" cy="32" r="31.5" transform="rotate(90 32 32)" fill="white" stroke="black"/>
<g clip-path="url(#clip0_15_53857)">
<path d="M40.625 47.375H17.875C17.1846 47.375 16.625 46.8154 16.625 46.125V17.875C16.625 17.1846 17.1846 16.625 17.875 16.625H40.625C41.3154 16.625 41.875 17.1846 41.875 17.875V46.125C41.875 46.8154 41.3154 47.375 40.625 47.375Z" fill="white"/>
<path d="M29.25 30.25C32.0805 30.25 34.375 27.9555 34.375 25.125C34.375 22.2945 32.0805 20 29.25 20C26.4195 20 24.125 22.2945 24.125 25.125C24.125 27.9555 26.4195 30.25 29.25 30.25Z" fill="#009944"/>
<path d="M30.875 24.4688V24.875C30.875 25.7724 30.1474 26.5 29.25 26.5C28.3526 26.5 27.625 25.7724 27.625 24.875V24.4688C27.625 23.5713 28.3526 22.8438 29.25 22.8438C30.1474 22.8438 30.875 23.5713 30.875 24.4688Z" fill="white"/>
<path d="M29.2512 26.5C27.665 26.5 26.3097 27.4854 25.7617 28.8771C26.6767 29.7284 27.9028 30.25 29.2512 30.25C30.5997 30.25 31.8257 29.7284 32.7407 28.8771C32.1927 27.4854 30.8375 26.5 29.2512 26.5Z" fill="#D8D8E4"/>
<path d="M43.2853 26.0369L43.6424 25.4183C44.1947 24.4617 45.4178 24.134 46.3745 24.6862C47.331 25.2385 47.6588 26.4617 47.1065 27.4183L39.2415 41.041L35.7773 39.041L39.17 33.1647L43.2853 26.0369Z" fill="#009944"/>
<path d="M46.3755 24.6863C45.4189 24.134 44.1957 24.4617 43.6434 25.4183L42.7148 27.0266L46.179 29.0266L47.1075 27.4183C47.6598 26.4618 47.332 25.2386 46.3755 24.6863Z" fill="#D8D8E4"/>
<path d="M39.2424 41.041L35.2246 44L35.7782 39.041L39.2424 41.041Z" fill="white"/>
<path d="M41.875 40.8955C41.5299 40.8955 41.25 41.1753 41.25 41.5205V46.125C41.25 46.4696 40.9696 46.75 40.625 46.75H17.875C17.5304 46.75 17.25 46.4696 17.25 46.125V17.875C17.25 17.5304 17.5304 17.25 17.875 17.25H40.625C40.9696 17.25 41.25 17.5304 41.25 17.875V24.6719C41.25 25.0171 41.5299 25.2969 41.875 25.2969C42.2201 25.2969 42.5 25.0171 42.5 24.6719V17.875C42.5 16.8411 41.6589 16 40.625 16H17.875C16.8411 16 16 16.8411 16 17.875V46.125C16 47.1589 16.8411 48 17.875 48H40.625C41.6589 48 42.5 47.1589 42.5 46.125V41.5205C42.5 41.1753 42.2201 40.8955 41.875 40.8955Z" fill="black"/>
<path d="M35 25.125C35 21.9544 32.4206 19.375 29.25 19.375C26.0794 19.375 23.5 21.9544 23.5 25.125C23.5 26.7698 24.1944 28.2553 25.3051 29.3043C25.3259 29.3266 25.3481 29.3476 25.3722 29.3668C26.3954 30.303 27.7571 30.8749 29.2499 30.8749C30.7427 30.8749 32.1044 30.3029 33.1276 29.3668C33.1518 29.3476 33.1739 29.3265 33.1947 29.3043C34.3056 28.2553 35 26.7698 35 25.125ZM29.25 20.625C31.7313 20.625 33.75 22.6437 33.75 25.125C33.75 26.1229 33.4231 27.0456 32.8712 27.7927C32.4103 27.1091 31.7715 26.5774 31.0298 26.2491C31.3242 25.8687 31.5 25.3921 31.5 24.875V24.4688C31.5 23.2281 30.4907 22.2188 29.25 22.2188C28.0093 22.2188 27 23.2281 27 24.4688V24.875C27 25.3921 27.1758 25.8687 27.4702 26.2491C26.7285 26.5774 26.0897 27.1091 25.6287 27.7927C25.0769 27.0456 24.75 26.1229 24.75 25.125C24.75 22.6437 26.7687 20.625 29.25 20.625ZM28.25 24.875V24.4688C28.25 23.9174 28.6986 23.4688 29.25 23.4688C29.8014 23.4688 30.25 23.9174 30.25 24.4688V24.875C30.25 25.4264 29.8014 25.875 29.25 25.875C28.6986 25.875 28.25 25.4264 28.25 24.875ZM26.5318 28.7083C27.0811 27.7342 28.1062 27.125 29.25 27.125C30.3938 27.125 31.4189 27.7342 31.9682 28.7083C31.2124 29.283 30.2706 29.625 29.25 29.625C28.2294 29.625 27.2876 29.283 26.5318 28.7083Z" fill="black"/>
<path d="M32.625 43.375H29.25C28.9049 43.375 28.625 43.6548 28.625 44C28.625 44.3452 28.9049 44.625 29.25 44.625H32.625C32.9701 44.625 33.25 44.3452 33.25 44C33.25 43.6548 32.9701 43.375 32.625 43.375Z" fill="black"/>
<path d="M32.625 39.875H23.75C23.4049 39.875 23.125 40.1548 23.125 40.5C23.125 40.8452 23.4049 41.125 23.75 41.125H32.625C32.9701 41.125 33.25 40.8452 33.25 40.5C33.25 40.1548 32.9701 39.875 32.625 39.875Z" fill="black"/>
<path d="M32.625 36.375H23.75C23.4049 36.375 23.125 36.6548 23.125 37C23.125 37.3452 23.4049 37.625 23.75 37.625H32.625C32.9701 37.625 33.25 37.3452 33.25 37C33.25 36.6548 32.9701 36.375 32.625 36.375Z" fill="black"/>
<path d="M21.5225 33.0581C21.4063 32.9419 21.2451 32.875 21.0801 32.875C20.9156 32.875 20.7544 32.9419 20.6382 33.0581C20.522 33.1744 20.4551 33.3356 20.4551 33.5C20.4551 33.6644 20.5219 33.8256 20.6382 33.9419C20.7551 34.0581 20.9156 34.125 21.0801 34.125C21.2451 34.125 21.4057 34.0581 21.5225 33.9419C21.6388 33.8256 21.7057 33.6644 21.7057 33.5C21.7057 33.3356 21.6388 33.1744 21.5225 33.0581Z" fill="black"/>
<path d="M21.5225 36.5581C21.4057 36.4419 21.2451 36.375 21.0801 36.375C20.9156 36.375 20.7551 36.4419 20.6382 36.5581C20.522 36.6744 20.4551 36.8356 20.4551 37C20.4551 37.1644 20.5219 37.3256 20.6382 37.4419C20.7551 37.5581 20.9156 37.625 21.0801 37.625C21.2451 37.625 21.4057 37.5581 21.5225 37.4419C21.6388 37.3256 21.7057 37.1644 21.7057 37C21.7057 36.8356 21.6388 36.6744 21.5225 36.5581Z" fill="black"/>
<path d="M21.0801 39.875C20.9156 39.875 20.7551 39.9419 20.6382 40.0581C20.522 40.1744 20.4551 40.3356 20.4551 40.5C20.4551 40.6644 20.5219 40.8256 20.6382 40.9419C20.7544 41.0581 20.9156 41.125 21.0801 41.125C21.2451 41.125 21.4063 41.0581 21.5225 40.9419C21.6388 40.8256 21.7057 40.6644 21.7057 40.5C21.7057 40.3356 21.6388 40.1744 21.5225 40.0581C21.4057 39.9419 21.2451 39.875 21.0801 39.875Z" fill="black"/>
<path d="M32.625 32.875H23.75C23.4049 32.875 23.125 33.1548 23.125 33.5C23.125 33.8452 23.4049 34.125 23.75 34.125H32.625C32.9701 34.125 33.25 33.8452 33.25 33.5C33.25 33.1548 32.9701 32.875 32.625 32.875Z" fill="black"/>
<path d="M46.6879 24.145C46.0807 23.7945 45.3733 23.7013 44.696 23.8828C44.0187 24.0643 43.4526 24.4987 43.1021 25.1058L35.237 38.7285C35.1939 38.8032 35.1667 38.886 35.1571 38.9717L34.6035 43.9307C34.576 44.1775 34.6971 44.4172 34.9121 44.5414C35.0092 44.5974 35.117 44.6251 35.2245 44.6251C35.3553 44.6251 35.4855 44.5842 35.5952 44.5034L39.613 41.5444C39.6824 41.4932 39.7405 41.4283 39.7836 41.3536L47.6487 27.7309C48.3724 26.4774 47.9414 24.8688 46.6879 24.145ZM36.2933 40.0602L38.1022 41.1045L36.0042 42.6497L36.2933 40.0602ZM39.0136 40.1873L36.632 38.8123L42.9436 27.8804L45.3252 29.2554L39.0136 40.1873ZM46.5662 27.1058L45.9501 28.1729L43.5685 26.7979L44.1846 25.7308C44.3682 25.4128 44.6647 25.1853 45.0195 25.0902C45.3743 24.9951 45.7448 25.044 46.0628 25.2276C46.3809 25.4112 46.6084 25.7077 46.7035 26.0625C46.7985 26.4172 46.7498 26.7878 46.5662 27.1058Z" fill="black"/>
</g>
<defs>
<clipPath id="clip0_15_53857">
<rect width="32" height="32" fill="white" transform="translate(16 16)"/>
</clipPath>
</defs>
</svg>
