<svg width="64" height="64" viewBox="0 0 64 64" fill="none" xmlns="http://www.w3.org/2000/svg">
<circle cx="32" cy="32" r="31.5" transform="rotate(90 32 32)" fill="white" stroke="black"/>
<path d="M40.8512 15.7046C41.8242 15.7046 42.6125 16.493 42.6125 17.4659C42.6125 18.4389 41.8242 19.2273 40.8512 19.2273C39.8782 19.2273 39.0898 18.4389 39.0898 17.4659C39.0898 16.493 39.8782 15.7046 40.8512 15.7046Z" fill="#009944"/>
<path d="M19.3642 24.8636C20.1427 24.8636 20.7732 25.4942 20.7732 26.2727C20.7732 27.0512 20.1427 27.6818 19.3642 27.6818C18.5856 27.6818 17.9551 27.0512 17.9551 26.2727C17.9551 25.4942 18.5856 24.8636 19.3642 24.8636Z" fill="white"/>
<path d="M42.9305 40.0901L42.8622 40.3635V44.726V44.7366C39.1056 45.5715 38.1756 43.6452 32.0496 45.2946L32.0468 45.2847V31.0798C36.6812 29.8312 38.3425 30.948 40.5012 31.2066C41.198 31.2897 41.9455 31.2834 42.8622 31.0798V35.4317L42.7649 35.8213L41.2058 35.4317V39.6589L42.9305 40.0901Z" fill="white"/>
<path d="M32.0498 45.2847L32.0526 45.2946C32.0519 45.2946 32.0505 45.2953 32.0498 45.2953C25.921 43.6446 24.9917 45.5715 21.2344 44.7366V44.7261V40.3635L21.166 40.0901L22.8907 39.6589V35.4317L21.3316 35.8213L21.2344 35.4317V31.0798C22.151 31.2834 22.8985 31.2896 23.5953 31.2066C25.754 30.948 27.4153 29.8312 32.0498 31.0798V45.2847Z" fill="#D7DEED"/>
<path d="M22.8885 35.4316V39.6589L21.1638 40.0901L20.0703 40.3634V36.1362L21.3293 35.8213L22.8885 35.4316Z" fill="white"/>
<path d="M44.0271 36.1362V40.3634L42.9337 40.0901L41.209 39.6589V35.4316L42.7681 35.8213L44.0271 36.1362Z" fill="#D7DEED"/>
<path d="M40.5027 31.2044V31.2066C38.344 30.948 36.6827 29.8312 32.0482 31.0797C27.4138 29.8312 25.7525 30.948 23.5938 31.2066V31.2044C23.5938 28.0918 27.3792 25.5681 32.0482 25.5681C36.7172 25.5681 40.5027 28.0918 40.5027 31.2044Z" fill="#009944"/>
<path d="M32.0476 17.1135C34.3824 17.1135 36.2748 19.0059 36.2748 21.3408C36.2748 23.6756 34.3824 25.568 32.0476 25.568C29.7127 25.568 27.8203 23.6756 27.8203 21.3408C27.8203 19.0059 29.7127 17.1135 32.0476 17.1135Z" fill="white"/>
<path d="M45.5527 22.4611L46.5488 21.465L47.5449 22.4611L46.5489 23.4572L45.5527 22.4611Z" fill="black"/>
<path d="M45.5508 35.8455L46.5468 34.8494L47.5429 35.8455L46.5469 36.8415L45.5508 35.8455Z" fill="black"/>
<path d="M18.7812 20.9275L19.7773 19.9314L20.7733 20.9274L19.7773 21.9235L18.7812 20.9275Z" fill="black"/>
<path d="M15.9629 42.1821L16.959 41.1861L17.955 42.1821L16.9589 43.1782L15.9629 42.1821Z" fill="black"/>
<path d="M44.0247 41.0682C43.9676 41.0682 43.9102 41.0612 43.8537 41.0471L41.0356 40.3426C40.722 40.2642 40.502 39.9824 40.502 39.6591V35.4319C40.502 35.2149 40.6019 35.0101 40.7729 34.8765C40.944 34.743 41.167 34.6958 41.3773 34.7483L44.1956 35.4529C44.5092 35.5313 44.7292 35.8132 44.7292 36.1364V40.3636C44.7292 40.5806 44.6292 40.7855 44.4582 40.919C44.3331 41.0167 44.1801 41.0682 44.0247 41.0682ZM41.911 39.109L43.3201 39.4613V36.6864L41.911 36.3341V39.109Z" fill="black"/>
<path d="M20.0715 41.068C19.9159 41.068 19.763 41.0165 19.6378 40.9188C19.4668 40.7853 19.3669 40.5804 19.3669 40.3635V36.1363C19.3669 35.813 19.587 35.5312 19.9006 35.4528L22.7189 34.7482C22.9294 34.6959 23.1524 34.743 23.3233 34.8764C23.4943 35.01 23.5943 35.2148 23.5943 35.4317V39.659C23.5943 39.9823 23.3742 40.2641 23.0606 40.3424L20.2424 41.047C20.1859 41.0611 20.1286 41.068 20.0715 41.068ZM20.776 36.6863V39.4612L22.1851 39.1089V36.334L20.776 36.6863Z" fill="black"/>
<path d="M21.2358 36.1362C20.8467 36.1362 20.5312 35.8207 20.5312 35.4316V31.0797C20.5312 30.866 20.6282 30.6639 20.7949 30.5301C20.9616 30.3965 21.1801 30.3454 21.3885 30.3919C22.1349 30.5577 22.7903 30.5931 23.5132 30.5069C23.9982 30.4488 24.4694 30.341 24.9683 30.2269C26.6481 29.8427 28.552 29.4073 32.2344 30.3993C32.6102 30.5006 32.8327 30.8872 32.7314 31.2629C32.6303 31.6386 32.2435 31.8609 31.8679 31.76C28.5241 30.859 26.8763 31.236 25.2825 31.6006C24.7462 31.7231 24.2397 31.839 23.6805 31.906C23.0896 31.9765 22.522 31.9794 21.9403 31.9128V35.4316C21.9403 35.8207 21.6249 36.1362 21.2358 36.1362Z" fill="black"/>
<path d="M21.2358 45.4305C20.8467 45.4305 20.5312 45.115 20.5312 44.726V40.3635C20.5312 39.9744 20.8467 39.6589 21.2358 39.6589C21.6249 39.6589 21.9403 39.9744 21.9403 40.3635V44.726C21.9403 45.115 21.6249 45.4305 21.2358 45.4305Z" fill="black"/>
<path d="M32.0518 46C31.9911 46 31.9295 45.9921 31.8681 45.9756C28.4722 45.0609 26.8045 45.2795 25.1916 45.4911C23.9601 45.6525 22.7966 45.8051 21.0831 45.4243C20.7032 45.34 20.4638 44.9636 20.5482 44.5837C20.6326 44.2039 21.0089 43.9644 21.3888 44.0488C22.8598 44.3756 23.8555 44.2451 25.0084 44.0939C26.6767 43.8752 28.5675 43.6273 32.2345 44.615C32.6103 44.7162 32.8328 45.1028 32.7317 45.4785C32.647 45.7929 32.3625 45.9999 32.0518 46Z" fill="black"/>
<path d="M32.0483 45.9893C31.6592 45.9893 31.3438 45.6739 31.3438 45.2848V31.0799C31.3438 30.7613 31.5574 30.4825 31.865 30.3996C35.5477 29.4076 37.4515 29.843 39.1312 30.2272C39.6301 30.3413 40.1013 30.449 40.5865 30.5072C41.3093 30.5934 41.9645 30.5579 42.7109 30.3922C42.9191 30.3457 43.1378 30.3967 43.3045 30.5304C43.4711 30.664 43.5682 30.8662 43.5682 31.0799V35.4318C43.5682 35.8209 43.2527 36.1363 42.8636 36.1363C42.4746 36.1363 42.1591 35.8209 42.1591 35.4318V31.913C41.5774 31.9796 41.0098 31.9767 40.4193 31.9063C39.8597 31.8393 39.3532 31.7234 38.817 31.6008C37.3084 31.2558 35.7511 30.8995 32.7528 31.6267V45.2848C32.7528 45.6739 32.4374 45.9893 32.0483 45.9893Z" fill="black"/>
<path d="M42.8667 45.4305C42.4776 45.4305 42.1621 45.115 42.1621 44.726V40.3635C42.1621 39.9744 42.4776 39.6589 42.8667 39.6589C43.2557 39.6589 43.5712 39.9744 43.5712 40.3635V44.726C43.5712 45.115 43.2557 45.4305 42.8667 45.4305Z" fill="black"/>
<path d="M32.0483 45.9998C31.6592 45.9998 31.3438 45.6843 31.3438 45.2952C31.3438 44.9631 31.5735 44.6847 31.8827 44.6102C35.538 43.6281 37.4253 43.8755 39.091 44.094C40.2441 44.245 41.2399 44.3757 42.7108 44.0487C43.0911 43.9644 43.467 44.2038 43.5515 44.5836C43.6359 44.9635 43.3964 45.3398 43.0166 45.4243C41.303 45.805 40.1397 45.6526 38.9079 45.4911C37.2955 45.2796 35.6281 45.061 32.2343 45.9748C32.2284 45.9764 32.2224 45.9779 32.2164 45.9793C32.1614 45.9928 32.1046 45.9998 32.0483 45.9998Z" fill="black"/>
<path d="M19.3656 28.3863C18.2001 28.3863 17.252 27.4381 17.252 26.2727C17.252 25.1072 18.2001 24.1591 19.3656 24.1591C20.531 24.1591 21.4792 25.1072 21.4792 26.2727C21.4792 27.4381 20.531 28.3863 19.3656 28.3863ZM19.3656 25.5681C18.9771 25.5681 18.661 25.8842 18.661 26.2727C18.661 26.6612 18.9771 26.9772 19.3656 26.9772C19.7541 26.9772 20.0701 26.6612 20.0701 26.2727C20.0701 25.8842 19.7541 25.5681 19.3656 25.5681Z" fill="black"/>
<path d="M40.8565 19.9318C39.4968 19.9318 38.3906 18.8256 38.3906 17.4659C38.3906 16.1062 39.4968 15 40.8565 15C42.2162 15 43.3224 16.1062 43.3224 17.4659C43.3224 18.8256 42.2162 19.9318 40.8565 19.9318ZM40.8565 16.4091C40.2738 16.4091 39.7997 16.8832 39.7997 17.4659C39.7997 18.0486 40.2738 18.5227 40.8565 18.5227C41.4392 18.5227 41.9133 18.0486 41.9133 17.4659C41.9133 16.8832 41.4392 16.4091 40.8565 16.4091Z" fill="black"/>
<path d="M44.3783 29.0908C43.4071 29.0908 42.6169 28.3007 42.6169 27.3295C42.6169 26.3583 43.4071 25.5681 44.3783 25.5681C45.3495 25.5681 46.1396 26.3583 46.1396 27.3295C46.1396 28.3007 45.3495 29.0908 44.3783 29.0908ZM44.3783 26.9772C44.1841 26.9772 44.026 27.1352 44.026 27.3295C44.026 27.5237 44.1841 27.6817 44.3783 27.6817C44.5725 27.6817 44.7306 27.5237 44.7306 27.3295C44.7306 27.1352 44.5725 26.9772 44.3783 26.9772Z" fill="black"/>
<path d="M40.5041 31.9089C40.1151 31.9089 39.7996 31.5934 39.7996 31.2044C39.7996 29.9421 39.0316 28.7349 37.6369 27.8052C36.1545 26.8169 34.1703 26.2726 32.0497 26.2726C29.9291 26.2726 27.9448 26.8169 26.4624 27.8052C25.0677 28.7349 24.2997 29.9421 24.2997 31.2044C24.2997 31.5934 23.9843 31.9089 23.5952 31.9089C23.206 31.9089 22.8906 31.5934 22.8906 31.2044C22.8906 29.4558 23.8815 27.8322 25.6807 26.6328C27.3921 25.4918 29.6539 24.8635 32.0497 24.8635C34.4454 24.8635 36.7072 25.4918 38.4186 26.6328C40.2178 27.8322 41.2087 29.4558 41.2087 31.2044C41.2087 31.5934 40.8932 31.9089 40.5041 31.9089Z" fill="black"/>
<path d="M32.0487 26.2726C29.3293 26.2726 27.1169 24.0602 27.1169 21.3408C27.1169 18.6215 29.3293 16.4091 32.0487 16.4091C34.7681 16.4091 36.9805 18.6215 36.9805 21.3408C36.9805 24.0602 34.7681 26.2726 32.0487 26.2726ZM32.0487 17.8181C30.1063 17.8181 28.526 19.3984 28.526 21.3408C28.526 23.2833 30.1063 24.8635 32.0487 24.8635C33.9911 24.8635 35.5714 23.2833 35.5714 21.3408C35.5714 19.3984 33.9911 17.8181 32.0487 17.8181Z" fill="black"/>
</svg>
