<svg width="64" height="64" viewBox="0 0 64 64" fill="none" xmlns="http://www.w3.org/2000/svg">
<circle cx="32" cy="32" r="31.5" transform="rotate(90 32 32)" fill="white" stroke="black"/>
<g clip-path="url(#clip0_15_53859)">
<path d="M35.156 47.5618H45.5625C46.6671 47.5618 47.5625 46.6663 47.5625 45.5618V35.1553C47.5625 34.0507 46.6671 33.1553 45.5625 33.1553H35.156C34.0514 33.1553 33.156 34.0507 33.156 35.1553V45.5618C33.156 46.6663 34.0514 47.5618 35.156 47.5618Z" fill="#009944"/>
<path d="M28.844 33.1553H18.4375C17.3329 33.1553 16.4375 34.0507 16.4375 35.1553V45.5618C16.4375 46.6663 17.3329 47.5618 18.4375 47.5618H28.844C29.9486 47.5618 30.844 46.6663 30.844 45.5618V35.1553C30.844 34.0507 29.9486 33.1553 28.844 33.1553Z" fill="#D7DEED"/>
<path d="M35.156 30.8435H45.5625C46.6671 30.8435 47.5625 29.9481 47.5625 28.8435V18.437C47.5625 17.3324 46.6671 16.437 45.5625 16.437H35.156C34.0514 16.437 33.156 17.3324 33.156 18.437V28.8435C33.156 29.9481 34.0514 30.8435 35.156 30.8435Z" fill="white"/>
<path d="M28.844 16.4368H18.4375C17.3329 16.4368 16.4375 17.3322 16.4375 18.4368V28.8433C16.4375 29.9478 17.3329 30.8433 18.4375 30.8433H28.844C29.9486 30.8433 30.844 29.9478 30.844 28.8433V18.4368C30.844 17.3322 29.9486 16.4368 28.844 16.4368Z" fill="#009944"/>
<path d="M39.6062 44.5151L35.1699 40.3033L36.5467 38.8531L39.5167 41.6726L44.3129 36.5071L45.7787 37.8681L39.6062 44.5151Z" fill="#FFF5F5"/>
<path d="M24.6019 35.3813H20.1406V45.3356H24.6019C25.2749 45.3349 25.9201 45.0672 26.3961 44.5914C26.872 44.1155 27.1398 43.4704 27.1406 42.7973V41.8973C27.1402 41.3406 26.9556 40.7997 26.6156 40.3588C26.9556 39.918 27.1402 39.3771 27.1406 38.8203V37.9203C27.1399 37.2472 26.8722 36.6019 26.3963 36.1259C25.9203 35.6499 25.275 35.3821 24.6019 35.3813ZM22.1406 37.3813H24.6019C24.7447 37.3815 24.8815 37.4383 24.9825 37.5393C25.0835 37.6402 25.1404 37.7771 25.1406 37.9198V38.8198C25.1404 38.9626 25.0836 39.0995 24.9826 39.2005C24.8816 39.3014 24.7447 39.3582 24.6019 39.3583H22.1406V37.3813ZM25.1406 42.7973C25.1404 42.9401 25.0835 43.0769 24.9825 43.1778C24.8815 43.2787 24.7446 43.3355 24.6019 43.3356H22.1406V41.3586H24.6019C24.7447 41.3587 24.8816 41.4155 24.9826 41.5165C25.0836 41.6174 25.1404 41.7543 25.1406 41.8971V42.7973Z" fill="#FFF5F5"/>
<path d="M39.9109 20.6631H42.8594V18.6631H39.9109C39.1019 18.6639 38.3263 18.9857 37.7542 19.5577C37.1821 20.1297 36.8603 20.9053 36.8594 21.7143V25.5661C36.8606 26.3749 37.1826 27.1501 37.7546 27.7219C38.3267 28.2937 39.1021 28.6152 39.9109 28.6161H42.8594V26.6161H39.9109C39.6323 26.6158 39.3653 26.5052 39.1682 26.3083C38.9711 26.1115 38.86 25.8446 38.8594 25.5661V21.7143C38.8597 21.4356 38.9706 21.1684 39.1677 20.9713C39.3649 20.7742 39.6321 20.6634 39.9109 20.6631Z" fill="#FFF5F5"/>
<path d="M24.0898 18.6631H23.1926C22.3838 18.6643 21.6086 18.9863 21.0368 19.5582C20.4651 20.1302 20.1435 20.9056 20.1426 21.7143V27.6173H22.1426V25.4903H25.1426V27.6173H27.1426V21.7143C27.1417 20.9051 26.8197 20.1293 26.2473 19.5573C25.675 18.9852 24.899 18.6636 24.0898 18.6631ZM22.1413 23.4903V21.7153C22.1419 21.437 22.2527 21.1703 22.4495 20.9735C22.6463 20.7767 22.913 20.6659 23.1913 20.6653H24.0886C24.3671 20.6656 24.6342 20.7763 24.8313 20.9731C25.0284 21.1699 25.1394 21.4368 25.1401 21.7153V23.4903H22.1413Z" fill="#FFF5F5"/>
<path d="M28.8442 16H18.4375C17.7914 16.0007 17.1719 16.2577 16.715 16.7145C16.2581 17.1713 16.0009 17.7906 16 18.4367V28.8435C16.0007 29.4897 16.2578 30.1093 16.7147 30.5663C17.1717 31.0232 17.7913 31.2803 18.4375 31.281H28.8442C29.4905 31.2802 30.11 31.0231 30.5669 30.5662C31.0239 30.1092 31.281 29.4897 31.2817 28.8435V18.4367C31.2808 17.7907 31.0236 17.1713 30.5667 16.7145C30.1098 16.2578 29.4903 16.0008 28.8442 16ZM30.4067 28.8442C30.4063 29.2585 30.2415 29.6557 29.9486 29.9486C29.6557 30.2415 29.2585 30.4063 28.8442 30.4067H18.4375C18.0232 30.4063 17.6261 30.2415 17.3332 29.9486C17.0402 29.6557 16.8755 29.2585 16.875 28.8442V18.4367C16.8757 18.0226 17.0405 17.6257 17.3334 17.3329C17.6263 17.0401 18.0234 16.8755 18.4375 16.875H28.8442C29.2585 16.8755 29.6557 17.0402 29.9486 17.3332C30.2415 17.6261 30.4063 18.0232 30.4067 18.4375V28.8442Z" fill="black"/>
<path d="M45.563 16H35.1562C34.51 16.0008 33.8905 16.2579 33.4336 16.7148C32.9766 17.1718 32.7195 17.7913 32.7188 18.4375V28.8435C32.7195 29.4897 32.9766 30.1092 33.4336 30.5662C33.8905 31.0231 34.51 31.2802 35.1562 31.281H45.563C46.2092 31.2803 46.8288 31.0232 47.2858 30.5663C47.7427 30.1093 47.9998 29.4897 48.0005 28.8435V18.4367C47.9996 17.7906 47.7424 17.1713 47.2855 16.7145C46.8286 16.2577 46.2091 16.0007 45.563 16ZM47.1255 28.8442C47.125 29.2585 46.9603 29.6557 46.6673 29.9486C46.3744 30.2415 45.9773 30.4063 45.563 30.4067H35.1562C34.742 30.4063 34.3448 30.2415 34.0519 29.9486C33.759 29.6557 33.5942 29.2585 33.5938 28.8442V18.4367C33.5942 18.0225 33.759 17.6253 34.0519 17.3324C34.3448 17.0395 34.742 16.8747 35.1562 16.8742H45.563C45.9773 16.8747 46.3744 17.0395 46.6673 17.3324C46.9603 17.6253 47.125 18.0225 47.1255 18.4367V28.8442Z" fill="black"/>
<path d="M28.8442 32.7178H18.4375C17.7913 32.7185 17.1717 32.9755 16.7147 33.4325C16.2578 33.8895 16.0007 34.509 16 35.1553V45.5618C16.0005 46.2081 16.2575 46.8279 16.7145 47.285C17.1715 47.7422 17.7911 47.9993 18.4375 48H28.8442C29.4905 47.9992 30.11 47.7422 30.5669 47.2852C31.0239 46.8283 31.281 46.2087 31.2817 45.5625V44.069C31.2817 43.953 31.2357 43.8417 31.1536 43.7597C31.0716 43.6776 30.9603 43.6315 30.8442 43.6315C30.7282 43.6315 30.6169 43.6776 30.5349 43.7597C30.4528 43.8417 30.4067 43.953 30.4067 44.069V45.5625C30.4063 45.9768 30.2415 46.3739 29.9486 46.6669C29.6557 46.9598 29.2585 47.1246 28.8442 47.125H18.4375C18.0232 47.1246 17.6261 46.9598 17.3332 46.6669C17.0402 46.3739 16.8755 45.9768 16.875 45.5625V35.1553C16.8755 34.741 17.0402 34.3439 17.3332 34.0509C17.6261 33.758 18.0232 33.5932 18.4375 33.5928H28.8442C29.2585 33.5932 29.6557 33.758 29.9486 34.0509C30.2415 34.3439 30.4063 34.741 30.4067 35.1553V41.7895C30.4067 41.9056 30.4528 42.0168 30.5349 42.0989C30.6169 42.1809 30.7282 42.227 30.8442 42.227C30.9603 42.227 31.0716 42.1809 31.1536 42.0989C31.2357 42.0168 31.2817 41.9056 31.2817 41.7895V35.1553C31.281 34.5091 31.0239 33.8895 30.5669 33.4326C30.11 32.9756 29.4905 32.7186 28.8442 32.7178Z" fill="black"/>
<path d="M45.563 32.7178H35.1562C34.51 32.7186 33.8905 32.9756 33.4336 33.4326C32.9766 33.8895 32.7195 34.5091 32.7188 35.1553V45.5618C32.7195 46.208 32.9766 46.8275 33.4336 47.2845C33.8905 47.7414 34.51 47.9985 35.1562 47.9993H45.563C46.2092 47.9985 46.8288 47.7415 47.2858 47.2845C47.7427 46.8276 47.9998 46.208 48.0005 45.5618V35.1553C47.9998 34.509 47.7427 33.8895 47.2858 33.4325C46.8288 32.9755 46.2092 32.7185 45.563 32.7178ZM47.1255 45.5618C47.125 45.976 46.9603 46.3732 46.6673 46.6661C46.3744 46.959 45.9773 47.1238 45.563 47.1243H35.1562C34.742 47.1238 34.3448 46.959 34.0519 46.6661C33.759 46.3732 33.5942 45.976 33.5938 45.5618V35.1553C33.5942 34.741 33.759 34.3439 34.0519 34.0509C34.3448 33.758 34.742 33.5932 35.1562 33.5928H45.563C45.9773 33.5932 46.3744 33.758 46.6673 34.0509C46.9603 34.3439 47.125 34.741 47.1255 35.1553V45.5618Z" fill="black"/>
<path d="M44.6114 36.1865C44.5694 36.1473 44.5201 36.1168 44.4662 36.0968C44.4124 36.0767 44.3551 36.0675 44.2977 36.0696C44.2403 36.0718 44.1838 36.0852 44.1316 36.1092C44.0794 36.1332 44.0325 36.1673 43.9934 36.2095L39.4982 41.05L36.8499 38.5357C36.7658 38.4558 36.6534 38.4126 36.5374 38.4156C36.4214 38.4186 36.3113 38.4676 36.2314 38.5517L34.8547 40.0017C34.8151 40.0433 34.7841 40.0924 34.7634 40.146C34.7428 40.1996 34.7329 40.2568 34.7344 40.3143C34.7359 40.3717 34.7487 40.4283 34.7721 40.4808C34.7955 40.5333 34.829 40.5807 34.8707 40.6202L39.3059 44.8325C39.387 44.9093 39.4943 44.9522 39.6059 44.9525H39.6197C39.6775 44.9506 39.7344 44.9373 39.7871 44.9133C39.8397 44.8893 39.8871 44.8551 39.9264 44.8127L46.0999 38.1655C46.1391 38.1234 46.1695 38.0741 46.1895 38.0202C46.2096 37.9664 46.2188 37.9091 46.2167 37.8517C46.2146 37.7943 46.2012 37.7379 46.1772 37.6857C46.1533 37.6335 46.1193 37.5865 46.0772 37.5475L44.6114 36.1865ZM39.5877 43.8932L35.7894 40.287L36.5644 39.4715L39.2172 41.9897C39.2586 42.0303 39.308 42.0619 39.3622 42.0825C39.4164 42.1032 39.4743 42.1124 39.5322 42.1097C39.59 42.1079 39.6469 42.0946 39.6996 42.0706C39.7522 42.0466 39.7996 42.0124 39.8389 41.97L44.3369 37.125L45.1619 37.8907L39.5877 43.8932Z" fill="black"/>
<path d="M24.6019 40.921H22.1406C22.0832 40.921 22.0263 40.9323 21.9732 40.9543C21.9201 40.9762 21.8718 41.0085 21.8312 41.0491C21.7906 41.0897 21.7583 41.138 21.7364 41.1911C21.7144 41.2442 21.7031 41.3011 21.7031 41.3585V43.3355C21.7031 43.393 21.7144 43.4499 21.7364 43.503C21.7583 43.5561 21.7906 43.6043 21.8312 43.645C21.8718 43.6856 21.9201 43.7178 21.9732 43.7398C22.0263 43.7618 22.0832 43.7731 22.1406 43.773H24.6019C24.8605 43.7728 25.1085 43.67 25.2915 43.4872C25.4744 43.3045 25.5775 43.0566 25.5781 42.798V41.898C25.5781 41.6391 25.4752 41.3907 25.2922 41.2075C25.1091 41.0243 24.8608 40.9213 24.6019 40.921ZM24.7031 42.796C24.7031 42.8093 24.7005 42.8224 24.6954 42.8346C24.6903 42.8468 24.6828 42.8579 24.6734 42.8672C24.664 42.8765 24.6528 42.8838 24.6405 42.8888C24.6283 42.8937 24.6151 42.8962 24.6019 42.896H22.5781V41.794H24.6019C24.6284 41.7943 24.6538 41.8049 24.6727 41.8236C24.6916 41.8422 24.7025 41.8675 24.7031 41.894V42.796Z" fill="black"/>
<path d="M24.6019 36.9437H22.1406C22.0246 36.9437 21.9133 36.9898 21.8313 37.0719C21.7492 37.1539 21.7031 37.2652 21.7031 37.3812V39.3585C21.7031 39.4745 21.7492 39.5858 21.8313 39.6678C21.9133 39.7499 22.0246 39.796 22.1406 39.796H24.6019C24.8607 39.7957 25.1089 39.6928 25.2919 39.5097C25.4749 39.3267 25.5779 39.0786 25.5781 38.8197V37.9197C25.5778 37.6609 25.4748 37.4128 25.2918 37.2299C25.1088 37.0469 24.8607 36.944 24.6019 36.9437ZM24.7031 38.8187C24.7031 38.8456 24.6924 38.8713 24.6734 38.8902C24.6544 38.9092 24.6287 38.9199 24.6019 38.92H22.5781V37.8187H24.6019C24.6286 37.8191 24.6541 37.8299 24.673 37.8488C24.6919 37.8677 24.7027 37.8932 24.7031 37.92V38.8187Z" fill="black"/>
<path d="M27.5781 37.9201C27.5769 37.1314 27.2631 36.3754 26.7055 35.8177C26.1478 35.2601 25.3918 34.9463 24.6031 34.9451H20.1406C20.0246 34.9451 19.9133 34.9912 19.8313 35.0732C19.7492 35.1553 19.7031 35.2665 19.7031 35.3826V45.3368C19.7031 45.3943 19.7144 45.4512 19.7364 45.5043C19.7583 45.5574 19.7906 45.6056 19.8312 45.6463C19.8718 45.6869 19.9201 45.7191 19.9732 45.7411C20.0263 45.7631 20.0832 45.7744 20.1406 45.7743H24.6019C25.3907 45.7735 26.1471 45.4598 26.705 44.9021C27.2629 44.3444 27.5769 43.5882 27.5781 42.7993V41.8993C27.5792 41.3564 27.4296 40.8238 27.1461 40.3608C27.4297 39.8977 27.5792 39.3651 27.5781 38.8221V37.9201ZM26.7031 38.8201C26.7035 39.2806 26.5509 39.7282 26.2691 40.0926C26.2107 40.1689 26.179 40.2624 26.179 40.3586C26.179 40.4547 26.2107 40.5482 26.2691 40.6246C26.5509 40.989 26.7037 41.4367 26.7034 41.8973V42.7973C26.7024 43.3542 26.4807 43.888 26.0868 44.2817C25.6929 44.6753 25.159 44.8967 24.6021 44.8973H20.5781V35.8188H24.6031C25.1602 35.8195 25.6943 36.0411 26.0882 36.435C26.4821 36.8289 26.7037 37.363 26.7044 37.9201L26.7031 38.8201Z" fill="black"/>
<path d="M42.8594 18.225H39.9109C38.9858 18.226 38.0989 18.5939 37.4448 19.2481C36.7907 19.9022 36.4228 20.7891 36.4219 21.7142V22.0767C36.4219 22.1928 36.468 22.304 36.55 22.3861C36.6321 22.4681 36.7433 22.5142 36.8594 22.5142C36.9754 22.5142 37.0867 22.4681 37.1687 22.3861C37.2508 22.304 37.2969 22.1928 37.2969 22.0767V21.7142C37.2976 21.0212 37.5732 20.3567 38.0633 19.8666C38.5533 19.3765 39.2178 19.1008 39.9109 19.1H42.4219V20.225H39.9109C39.5162 20.2254 39.1377 20.3824 38.8586 20.6615C38.5795 20.9406 38.4224 21.319 38.4219 21.7137V25.566C38.4224 25.9607 38.5795 26.3391 38.8586 26.6182C39.1377 26.8973 39.5162 27.0543 39.9109 27.0547H42.4219V28.1797H39.9109C39.2852 28.1793 38.6805 27.9544 38.2066 27.546C38.1631 27.5082 38.1126 27.4794 38.0579 27.4611C38.0033 27.4429 37.9456 27.4357 37.8881 27.4399C37.8306 27.444 37.7746 27.4595 37.7231 27.4854C37.6716 27.5113 37.6258 27.5471 37.5882 27.5907C37.5506 27.6344 37.522 27.685 37.504 27.7398C37.486 27.7945 37.479 27.8523 37.4834 27.9097C37.4879 27.9672 37.5036 28.0232 37.5297 28.0745C37.5558 28.1259 37.5918 28.1716 37.6356 28.209C38.2682 28.7543 39.0755 29.0544 39.9106 29.0547H42.8591C42.9752 29.0547 43.0864 29.0086 43.1685 28.9266C43.2505 28.8445 43.2966 28.7333 43.2966 28.6172V26.6172C43.2967 26.5598 43.2854 26.5029 43.2634 26.4498C43.2414 26.3967 43.2092 26.3484 43.1686 26.3078C43.1279 26.2672 43.0797 26.2349 43.0266 26.213C42.9735 26.191 42.9166 26.1797 42.8591 26.1797H39.9109C39.7481 26.1795 39.5921 26.1148 39.477 25.9998C39.3619 25.8847 39.2971 25.7287 39.2969 25.566V21.7142C39.297 21.5514 39.3617 21.3953 39.4768 21.2801C39.592 21.165 39.748 21.1002 39.9109 21.1H42.8594C42.9168 21.1 42.9737 21.0887 43.0268 21.0667C43.0799 21.0448 43.1282 21.0125 43.1688 20.9719C43.2094 20.9313 43.2417 20.883 43.2636 20.8299C43.2856 20.7768 43.2969 20.7199 43.2969 20.6625V18.6625C43.2969 18.605 43.2856 18.5481 43.2636 18.495C43.2417 18.4419 43.2094 18.3937 43.1688 18.353C43.1282 18.3124 43.0799 18.2802 43.0268 18.2582C42.9737 18.2362 42.9168 18.2249 42.8594 18.225Z" fill="black"/>
<path d="M36.8594 23.9182C36.7433 23.9182 36.6321 23.9643 36.55 24.0464C36.468 24.1284 36.4219 24.2397 36.4219 24.3557V25.6032C36.4232 25.7184 36.4698 25.8283 36.5517 25.9093C36.6335 25.9903 36.744 26.0358 36.8591 26.036H36.8644C36.9804 26.0346 37.0911 25.9872 37.1722 25.9042C37.2533 25.8213 37.2981 25.7095 37.2969 25.5935V24.3557C37.2969 24.2983 37.2856 24.2413 37.2636 24.1882C37.2417 24.1352 37.2094 24.0869 37.1688 24.0463C37.1282 24.0056 37.0799 23.9734 37.0268 23.9514C36.9737 23.9295 36.9168 23.9182 36.8594 23.9182Z" fill="black"/>
<path d="M24.0891 20.225H23.1919C22.7972 20.2254 22.4188 20.3824 22.1397 20.6615C21.8606 20.9406 21.7036 21.319 21.7031 21.7137V23.4887C21.7031 23.5462 21.7144 23.6031 21.7364 23.6562C21.7583 23.7093 21.7906 23.7575 21.8312 23.7982C21.8718 23.8388 21.9201 23.871 21.9732 23.893C22.0263 23.915 22.0832 23.9263 22.1406 23.9262H25.1406C25.2567 23.9262 25.3679 23.8801 25.45 23.7981C25.532 23.716 25.5781 23.6048 25.5781 23.4887V21.7137C25.5776 21.319 25.4205 20.9406 25.1414 20.6615C24.8623 20.3824 24.4838 20.2254 24.0891 20.225ZM24.7031 23.0522H22.5781V21.7142C22.5782 21.5514 22.6429 21.3953 22.7579 21.2801C22.873 21.165 23.0291 21.1002 23.1919 21.1H24.0891C24.2519 21.1002 24.4079 21.1649 24.523 21.2799C24.6381 21.395 24.7029 21.551 24.7031 21.7137V23.0522Z" fill="black"/>
<path d="M24.0891 18.225H23.1919C22.2668 18.226 21.38 18.594 20.7259 19.2482C20.0719 19.9023 19.7041 20.7892 19.7031 21.7142V27.6172C19.7031 27.7333 19.7492 27.8445 19.8313 27.9266C19.9133 28.0086 20.0246 28.0547 20.1406 28.0547H22.1406C22.2566 28.0547 22.3679 28.0085 22.4499 27.9265C22.5319 27.8445 22.5781 27.7332 22.5781 27.6172V25.9277H24.7031V27.6172C24.7031 27.7333 24.7492 27.8445 24.8313 27.9266C24.9133 28.0086 25.0246 28.0547 25.1406 28.0547H27.1406C27.2566 28.0547 27.3679 28.0085 27.4499 27.9265C27.5319 27.8445 27.5781 27.7332 27.5781 27.6172V21.7142C27.5772 20.7891 27.2093 19.9022 26.5552 19.2481C25.9011 18.5939 25.0142 18.226 24.0891 18.225ZM26.7031 27.1797H25.5781V25.4902C25.5781 25.3742 25.532 25.2629 25.45 25.1809C25.3679 25.0988 25.2567 25.0527 25.1406 25.0527H22.1406C22.0832 25.0527 22.0263 25.064 21.9732 25.086C21.9201 25.1079 21.8718 25.1402 21.8312 25.1808C21.7906 25.2214 21.7583 25.2697 21.7364 25.3228C21.7144 25.3759 21.7031 25.4328 21.7031 25.4902V27.1797H20.5781V21.7142C20.5788 21.0212 20.8544 20.3567 21.3444 19.8666C21.8344 19.3765 22.4988 19.1008 23.1919 19.1H24.0891C24.7822 19.1008 25.4467 19.3765 25.9367 19.8666C26.4268 20.3567 26.7024 21.0212 26.7031 21.7142V27.1797Z" fill="black"/>
</g>
<defs>
<clipPath id="clip0_15_53859">
<rect width="32" height="32" fill="white" transform="translate(16 16)"/>
</clipPath>
</defs>
</svg>
