<svg width="64" height="64" viewBox="0 0 64 64" fill="none" xmlns="http://www.w3.org/2000/svg">
<circle cx="32" cy="32" r="31.5" transform="rotate(90 32 32)" fill="white" stroke="black"/>
<path d="M20.1288 17.5215C18.6896 17.5215 17.5215 18.6896 17.5215 20.1288H22.6667L22.5554 19.1832C22.1765 18.2133 21.2344 17.5215 20.1288 17.5215Z" fill="#009944"/>
<path d="M39.2498 17.5215H20.1292C21.2347 17.5215 22.1768 18.2098 22.5557 19.1832C22.6705 19.4787 22.7365 19.7951 22.7365 20.1288V43.5951C22.7365 45.0343 23.9046 46.2024 25.3439 46.2024L41.8572 43.5951V20.1288C41.8572 18.6896 40.6891 17.5215 39.2498 17.5215Z" fill="white"/>
<path d="M47.0698 43.5951C47.0698 45.0344 45.9017 46.2025 44.4624 46.2025H25.3418C26.7811 46.2025 27.9492 45.0344 27.9492 43.5951H47.0698Z" fill="#00863B"/>
<path d="M38.8361 22.4372H26.0879C25.7993 22.4372 25.5664 22.2043 25.5664 21.9158C25.5664 21.6272 25.7993 21.3943 26.0879 21.3943H38.8361C39.1247 21.3943 39.3576 21.6272 39.3576 21.9158C39.3576 22.2043 39.1247 22.4372 38.8361 22.4372Z" fill="#666666"/>
<path d="M38.8361 26.8419H26.0879C25.7993 26.8419 25.5664 26.609 25.5664 26.3204C25.5664 26.0319 25.7993 25.799 26.0879 25.799H38.8361C39.1247 25.799 39.3576 26.0319 39.3576 26.3204C39.3576 26.609 39.1247 26.8419 38.8361 26.8419Z" fill="#666666"/>
<path d="M38.8358 31.2501H30.2107C29.9221 31.2501 29.6892 31.0172 29.6892 30.7286C29.6892 30.4401 29.9221 30.2072 30.2107 30.2072H38.8358C39.1244 30.2072 39.3573 30.4401 39.3573 30.7286C39.3573 31.0172 39.1244 31.2501 38.8358 31.2501Z" fill="#666666"/>
<path d="M38.8358 35.6548H30.2107C29.9221 35.6548 29.6892 35.4218 29.6892 35.1333C29.6892 34.8447 29.9221 34.6118 30.2107 34.6118H38.8358C39.1244 34.6118 39.3573 34.8447 39.3573 35.1333C39.3573 35.4218 39.1244 35.6548 38.8358 35.6548Z" fill="#666666"/>
<path d="M38.8358 40.063H30.2107C29.9221 40.063 29.6892 39.83 29.6892 39.5415C29.6892 39.2529 29.9221 39.02 30.2107 39.02H38.8358C39.1244 39.02 39.3573 39.2529 39.3573 39.5415C39.3573 39.83 39.1244 40.063 38.8358 40.063Z" fill="#666666"/>
<path d="M22.8061 38.8045C22.2116 38.8045 21.7736 38.0188 21.2556 37.8033C21.0678 37.7268 20.8419 37.7059 20.6055 37.692V42.8546L22.8026 40.6575L24.9997 42.8546V37.692C24.7668 37.7024 24.5374 37.7233 24.3496 37.8033C23.8316 38.0188 23.3971 38.8045 22.7991 38.8045H22.8061Z" fill="white"/>
<path d="M26.1592 30.7077C25.756 30.3044 24.8903 30.5443 24.3549 30.3218C23.8369 30.1062 23.4024 29.3206 22.8044 29.3206C22.2065 29.3206 21.7719 30.1062 21.2539 30.3218C20.7151 30.5443 19.8529 30.3044 19.4496 30.7077C19.0463 31.1109 19.2862 31.9766 19.0637 32.512C18.8482 33.03 18.0625 33.4645 18.0625 34.0625C18.0625 34.6604 18.8482 35.095 19.0637 35.613C19.2862 36.1518 19.0463 37.014 19.4496 37.4173C19.7138 37.6815 20.1692 37.6711 20.6073 37.6954C20.8402 37.7058 21.0697 37.7267 21.2574 37.8066C21.7754 38.0222 22.2099 38.8079 22.8079 38.8079C23.4058 38.8079 23.8404 38.0222 24.3584 37.8066C24.5461 37.7302 24.7721 37.7093 25.0085 37.6954C25.4431 37.6745 25.902 37.6815 26.1662 37.4173C26.5694 37.014 26.3296 36.1484 26.5521 35.613C26.7676 35.095 27.5533 34.6604 27.5533 34.0625C27.5533 33.4645 26.7676 33.03 26.5521 32.512C26.3296 31.9731 26.5694 31.1109 26.1662 30.7077H26.1592ZM22.8044 36.7811C21.3061 36.7811 20.0858 35.5608 20.0858 34.0625C20.0858 32.5641 21.3061 31.3439 22.8044 31.3439C24.3028 31.3439 25.523 32.5641 25.523 34.0625C25.523 35.5608 24.3028 36.7811 22.8044 36.7811Z" fill="#009944"/>
<path d="M22.8065 31.3405C21.3081 31.3405 20.0879 32.5607 20.0879 34.0591C20.0879 35.5574 21.3081 36.7777 22.8065 36.7777C24.3049 36.7777 25.5251 35.5574 25.5251 34.0591C25.5251 32.5607 24.3049 31.3405 22.8065 31.3405Z" fill="#D7DEED"/>
<path d="M39.2495 17H20.1288C18.4045 17 17 18.4045 17 20.1288C17 20.4174 17.2329 20.6503 17.5215 20.6503H22.2147V28.9452C21.9401 29.0842 21.7141 29.2928 21.5125 29.4771C21.3491 29.6266 21.1822 29.783 21.0571 29.8352C20.918 29.8943 20.6781 29.9047 20.4487 29.9116C20.0106 29.929 19.4648 29.9534 19.0859 30.3323C18.707 30.7112 18.6826 31.257 18.6652 31.6951C18.6548 31.928 18.6444 32.1644 18.5853 32.3035C18.5331 32.4286 18.3767 32.599 18.2272 32.7589C17.9213 33.0857 17.5458 33.4959 17.5458 34.0521C17.5458 34.6084 17.9247 35.0186 18.2272 35.3454C18.3767 35.5088 18.5331 35.6757 18.5853 35.8008C18.6444 35.9399 18.6548 36.1797 18.6618 36.4092C18.6791 36.8472 18.7035 37.393 19.0824 37.772C19.3814 38.0709 19.7881 38.1474 20.1636 38.1787C20.1149 38.2587 20.0871 38.3491 20.0871 38.4464V42.8407C20.0871 43.0527 20.2157 43.2405 20.4104 43.3239C20.4765 43.3517 20.5425 43.3622 20.6086 43.3622C20.7442 43.3622 20.8763 43.31 20.9771 43.2092L22.2147 41.9716V43.5812C22.2147 45.3055 23.6192 46.71 25.3436 46.71H44.4642C46.1885 46.71 47.593 45.3055 47.593 43.5812C47.593 43.2926 47.3601 43.0597 47.0716 43.0597H42.3783V20.1288C42.3783 18.4045 40.9738 17 39.2495 17ZM18.109 19.6074C18.3419 18.7104 19.1589 18.0429 20.1288 18.0429C21.0988 18.0429 21.9123 18.7104 22.1452 19.6074H18.109ZM19.8194 37.0454C19.7256 36.955 19.7117 36.6317 19.7012 36.3744C19.6873 36.0685 19.6734 35.7208 19.5448 35.4114C19.4196 35.1125 19.2006 34.8761 18.9851 34.6466C18.7939 34.4415 18.5818 34.2121 18.5818 34.0626C18.5818 33.9131 18.7973 33.6836 18.9851 33.4785C19.1971 33.2491 19.4196 33.0092 19.5448 32.7102C19.6734 32.4008 19.6873 32.0532 19.7012 31.7472C19.7117 31.49 19.7256 31.1667 19.8194 31.0763C19.9133 30.9824 20.2331 30.9685 20.4904 30.9581C20.7963 30.9442 21.144 30.9303 21.4534 30.8016C21.7523 30.6765 21.9887 30.4575 22.2217 30.2419C22.4268 30.0542 22.6562 29.8386 22.8057 29.8386C22.9552 29.8386 23.1847 30.0542 23.3898 30.2419C23.6192 30.454 23.8591 30.6765 24.1581 30.8016C24.4675 30.9303 24.8151 30.9442 25.1211 30.9581C25.3783 30.9685 25.7016 30.9824 25.792 31.0763C25.8859 31.1701 25.8998 31.49 25.9102 31.7472C25.9241 32.0532 25.938 32.4008 26.0667 32.7102C26.1918 33.0092 26.4108 33.2456 26.6264 33.4785C26.8176 33.6836 27.0296 33.9131 27.0296 34.0626C27.0296 34.2121 26.8141 34.4415 26.6264 34.6466C26.4143 34.8761 26.1918 35.1159 26.0701 35.4149C25.9415 35.7243 25.9276 36.072 25.9137 36.3779C25.9033 36.6352 25.8894 36.9585 25.7955 37.0489C25.7016 37.1427 25.3818 37.1566 25.1245 37.1671C24.8186 37.181 24.471 37.1949 24.1616 37.3235C23.8626 37.4487 23.6262 37.6677 23.3932 37.8832C23.1881 38.0709 22.9587 38.2865 22.8092 38.2865C22.6597 38.2865 22.4303 38.0709 22.2252 37.8832C21.9957 37.6677 21.7558 37.4487 21.4568 37.3235C21.1474 37.1949 20.7998 37.181 20.4939 37.1671C20.2366 37.1566 19.9133 37.1427 19.8229 37.0489L19.8194 37.0454ZM21.1301 41.5926V38.4568C21.1301 38.4047 21.1196 38.3595 21.1057 38.3108C21.1683 38.3456 21.2344 38.3943 21.3074 38.4568C21.3734 38.5159 21.4464 38.5785 21.5159 38.6446C21.8427 38.9505 22.253 39.326 22.8092 39.326C23.3654 39.326 23.7722 38.947 24.1025 38.6446C24.172 38.5785 24.2415 38.5159 24.311 38.4568C24.384 38.3943 24.4501 38.3456 24.5127 38.3108C24.4988 38.356 24.4883 38.4047 24.4883 38.4568V41.5926L23.1812 40.2855C22.9761 40.0804 22.6458 40.0804 22.4442 40.2855L21.137 41.5926H21.1301ZM46.484 44.1131C46.2511 45.01 45.4341 45.6775 44.4642 45.6775H27.6728C28.0587 45.2464 28.3264 44.7075 28.4272 44.1131H46.484ZM27.9509 43.0701C27.6624 43.0701 27.4294 43.303 27.4294 43.5916C27.4294 44.7423 26.4943 45.6775 25.3436 45.6775C24.1928 45.6775 23.2577 44.7423 23.2577 43.5916V41.8395L24.6344 43.2161C24.7838 43.3656 25.0063 43.4108 25.201 43.3309C25.3957 43.2509 25.5243 43.0597 25.5243 42.8476V38.4534C25.5243 38.356 25.4965 38.2656 25.4478 38.1857C25.8233 38.1579 26.2266 38.0814 26.5256 37.7789C26.9045 37.4 26.9288 36.8542 26.9462 36.4161C26.9566 36.1832 26.9671 35.9468 27.0262 35.8078C27.0783 35.6826 27.2348 35.5123 27.3842 35.3523C27.6902 35.0255 28.0656 34.6153 28.0656 34.0591C28.0656 33.5029 27.6867 33.0961 27.3842 32.7658C27.2348 32.6024 27.0783 32.4356 27.0262 32.3104C26.9671 32.1714 26.9566 31.9315 26.9462 31.702C26.9288 31.264 26.9045 30.7182 26.5256 30.3393C26.1466 29.9603 25.6008 29.936 25.1628 29.9186C24.9333 29.9082 24.6935 29.8977 24.5544 29.8421C24.4292 29.79 24.2589 29.6335 24.099 29.484C23.866 29.2685 23.5949 29.0182 23.2577 28.8896V20.1323C23.2577 19.3327 22.9552 18.5992 22.4581 18.0464H39.2495C40.4002 18.0464 41.3354 18.9816 41.3354 20.1323V43.0771H27.9509V43.0701Z" fill="black"/>
<path d="M22.8065 36.7812C24.3049 36.7812 25.5251 35.561 25.5251 34.0626C25.5251 32.5642 24.3049 31.344 22.8065 31.344C21.3081 31.344 20.0879 32.5642 20.0879 34.0626C20.0879 35.561 21.3081 36.7812 22.8065 36.7812ZM22.8065 32.3869C23.7312 32.3869 24.4822 33.1379 24.4822 34.0626C24.4822 34.9873 23.7312 35.7383 22.8065 35.7383C21.8818 35.7383 21.1308 34.9873 21.1308 34.0626C21.1308 33.1379 21.8818 32.3869 22.8065 32.3869Z" fill="black"/>
<path d="M38.8361 21.3943H26.0879C25.7993 21.3943 25.5664 21.6272 25.5664 21.9158C25.5664 22.2043 25.7993 22.4372 26.0879 22.4372H38.8361C39.1247 22.4372 39.3576 22.2043 39.3576 21.9158C39.3576 21.6272 39.1247 21.3943 38.8361 21.3943Z" fill="black"/>
<path d="M38.8361 25.799H26.0879C25.7993 25.799 25.5664 26.0319 25.5664 26.3204C25.5664 26.609 25.7993 26.8419 26.0879 26.8419H38.8361C39.1247 26.8419 39.3576 26.609 39.3576 26.3204C39.3576 26.0319 39.1247 25.799 38.8361 25.799Z" fill="black"/>
<path d="M38.8361 30.207H30.2109C29.9224 30.207 29.6895 30.44 29.6895 30.7285C29.6895 31.0171 29.9224 31.25 30.2109 31.25H38.8361C39.1246 31.25 39.3575 31.0171 39.3575 30.7285C39.3575 30.44 39.1246 30.207 38.8361 30.207Z" fill="black"/>
<path d="M38.8361 34.6118H30.2109C29.9224 34.6118 29.6895 34.8447 29.6895 35.1333C29.6895 35.4218 29.9224 35.6548 30.2109 35.6548H38.8361C39.1246 35.6548 39.3575 35.4218 39.3575 35.1333C39.3575 34.8447 39.1246 34.6118 38.8361 34.6118Z" fill="black"/>
<path d="M38.8361 39.02H30.2109C29.9224 39.02 29.6895 39.2529 29.6895 39.5415C29.6895 39.83 29.9224 40.063 30.2109 40.063H38.8361C39.1246 40.063 39.3575 39.83 39.3575 39.5415C39.3575 39.2529 39.1246 39.02 38.8361 39.02Z" fill="black"/>
</svg>
