<svg width="346" height="261" viewBox="0 0 346 261" fill="none" xmlns="http://www.w3.org/2000/svg">
<g opacity="0.9">
<path d="M120.213 60.381C126.337 52.2589 133.993 45.4152 142.748 40.2368C157.287 31.5976 173.695 26.3992 190.298 23.523C242.836 14.4298 271.635 24.0507 293.357 39.688C307.744 50.0688 312.266 72.1393 316.515 88.1882C318.9 97.1969 321.027 106.301 323.993 115.14C328.6 128.862 339.066 139.945 342.554 154.094C346.248 169.024 345.958 184.751 340.844 199.327C330.738 228.121 313.565 244.809 274.158 250.35C253.048 253.326 236.08 244.603 218.564 234.106C207.767 227.636 196.573 221.804 184.181 219.165C171.093 216.384 157.63 215.999 144.505 213.413C115.146 207.634 105.726 179.848 101.91 153.529C97.2926 121.663 100.185 86.8371 120.213 60.381Z" fill="#88D99F" fill-opacity="0.37"/>
<path opacity="0.7" d="M120.213 60.381C126.337 52.2589 133.993 45.4152 142.748 40.2368C157.287 31.5976 173.695 26.3992 190.298 23.523C242.836 14.4298 271.635 24.0507 293.357 39.688C307.744 50.0688 312.266 72.1393 316.515 88.1882C318.9 97.1969 321.027 106.301 323.993 115.14C328.6 128.862 339.066 139.945 342.554 154.094C346.248 169.024 345.958 184.751 340.844 199.327C330.738 228.121 313.565 244.809 274.158 250.35C253.048 253.326 236.08 244.603 218.564 234.106C207.767 227.636 196.573 221.804 184.181 219.165C171.093 216.384 157.63 215.999 144.505 213.413C115.146 207.634 105.726 179.848 101.91 153.529C97.2926 121.663 100.185 86.8371 120.213 60.381Z" fill="white"/>
</g>
<path d="M16.4728 103.775C19.7065 103.775 19.7065 98.7709 16.4728 98.7709C13.2391 98.7709 13.2391 103.775 16.4728 103.775Z" fill="white"/>
<path d="M80.9201 198.478C84.1538 198.478 84.1538 193.474 80.9201 193.474C77.6863 193.474 77.6863 198.478 80.9201 198.478Z" fill="white"/>
<path d="M211.961 23.1629C215.195 23.1629 215.195 18.1584 211.961 18.1584C208.728 18.1584 208.728 23.1629 211.961 23.1629Z" fill="white"/>
<path d="M203.568 12.8442C205.415 12.8442 205.415 9.91845 203.568 9.91845C201.72 9.99544 201.72 12.8442 203.568 12.8442Z" fill="white"/>
<path d="M10.0083 216.649C11.8561 216.649 11.8561 213.724 10.0083 213.724C8.16044 213.801 8.16044 216.649 10.0083 216.649Z" fill="white"/>
<path d="M235.982 154.746C239.216 154.746 239.216 149.741 235.982 149.741C232.748 149.741 232.748 154.746 235.982 154.746Z" fill="white"/>
<path d="M69.6026 44.9513C71.4504 44.9513 71.4504 42.0255 69.6026 42.0255C67.6778 42.1025 67.6778 44.9513 69.6026 44.9513Z" fill="white"/>
<path d="M327.377 184.078C329.224 184.078 329.224 181.152 327.377 181.152C325.529 181.152 325.529 184.078 327.377 184.078Z" fill="white"/>
<path d="M48.0431 57.8102L49.737 56.5013L48.967 52.8056L46.8112 52.1127C46.1183 50.1878 45.1943 48.34 44.0394 46.7231L44.8864 44.7213L42.3456 41.9495L40.1898 42.4115C38.6499 41.1026 36.956 39.9477 35.1082 39.1008L34.8002 36.9449L31.1815 35.79L29.5646 37.3299C27.6398 36.9449 25.561 36.8679 23.4821 37.0219L22.1733 35.3281L18.4776 36.098L17.7846 38.2538C15.8598 38.9468 14.0119 39.8707 12.3951 41.0256L10.3932 40.1787L7.62145 42.7195L8.08342 44.8753C6.77452 46.4151 5.61962 48.109 4.77269 49.9569L2.61687 50.2648L1.46196 53.8835L3.00184 55.5004C2.61687 57.4252 2.53987 59.5041 2.69386 61.5829L1 62.8918L1.76994 66.5875L3.92576 67.2804C4.6187 69.2053 5.54263 71.0531 6.69753 72.67L5.8506 74.6718L8.39139 77.4436L10.5472 76.9816C12.0871 78.2905 13.7809 79.4454 15.6288 80.2924L15.9368 82.4482L19.5555 83.6031L21.1723 82.0632C23.0972 82.4482 25.176 82.5252 27.2548 82.3712L28.5637 84.065L32.2594 83.2951L32.9524 81.1393C34.8772 80.4463 36.725 79.5224 38.3419 78.3675L40.3437 79.2144L43.1155 76.6736L42.6536 74.5178C43.9624 72.978 45.1174 71.2841 45.9643 69.4362L48.1201 69.1283L49.275 65.5096L47.7351 63.8927C48.1201 61.8909 48.1971 59.889 48.0431 57.8102ZM25.407 71.7461C18.7085 71.7461 13.319 66.3565 13.319 59.6581C13.319 52.9596 18.7085 47.5701 25.407 47.5701C32.1054 47.5701 37.495 52.9596 37.495 59.6581C37.495 66.3565 32.1054 71.7461 25.407 71.7461ZM30.4886 59.6581C30.4886 62.5068 28.1788 64.7396 25.407 64.7396C22.5582 64.7396 20.3254 62.4298 20.3254 59.6581C20.3254 56.8093 22.6352 54.5765 25.407 54.5765C28.2558 54.5765 30.4886 56.8093 30.4886 59.6581Z" stroke="#090909" stroke-miterlimit="10"/>
<path d="M70.6014 21.3153L71.6794 20.4684L71.2174 18.1586L69.9085 17.7736C69.4465 16.5417 68.9076 15.3868 68.2146 14.3859L68.7536 13.154L67.2137 11.3832L65.8278 11.6911C64.9039 10.8442 63.826 10.1513 62.6711 9.61231L62.5171 8.30341L60.2843 7.53347L59.2834 8.4574C58.0515 8.22642 56.8196 8.14942 55.5107 8.22642L54.6638 7.14851L52.354 7.61047L51.969 8.91936C50.7371 9.38132 49.5822 9.92028 48.5813 10.6132L47.3494 10.0743L45.5785 11.6141L45.8865 13C45.0396 13.9239 44.3466 15.0019 43.8077 16.1568L42.4988 16.3108L41.7288 18.5436L42.4988 19.7755C42.2678 21.0074 42.1908 22.2393 42.2678 23.5482L41.2669 24.3951L41.7288 26.7049L43.0377 27.0899C43.4997 28.3218 44.0386 29.4767 44.7316 30.4776L44.1926 31.7095L45.7325 33.4803L47.1184 33.1724C48.0423 34.0193 49.1202 34.7122 50.2751 35.2512L50.4291 36.5601L52.6619 37.33L53.6628 36.4061C54.8947 36.6371 56.1266 36.7141 57.4355 36.6371L58.2825 37.715L60.5923 37.253L60.9772 35.9441C62.2091 35.4822 63.364 34.9432 64.365 34.2503L65.5969 34.7892L67.3677 33.2494L67.0597 31.8635C67.9067 30.9395 68.5996 29.8616 69.1386 28.7067L70.4475 28.5527L71.2174 26.3199L70.2935 25.319C70.6015 23.8561 70.6784 22.5472 70.6014 21.3153ZM56.4346 29.9386C52.277 29.9386 48.8892 26.5509 48.8892 22.3932C48.8892 18.2356 52.277 14.8479 56.4346 14.8479C60.5923 14.8479 63.98 18.2356 63.98 22.3932C63.98 26.6279 60.5923 29.9386 56.4346 29.9386Z" stroke="#090909" stroke-miterlimit="10"/>
<path d="M103.787 237.436L104.942 236.589L104.403 234.125L102.94 233.663C102.478 232.354 101.862 231.123 101.092 230.045L101.631 228.736L99.9373 226.888L98.4744 227.196C97.4735 226.349 96.3186 225.579 95.0867 224.963L94.9327 223.5L92.5459 222.73L91.468 223.731C90.1591 223.5 88.7732 223.423 87.3873 223.5L86.5404 222.345L84.0766 222.884L83.6146 224.347C82.3057 224.809 81.0738 225.425 79.9959 226.195L78.687 225.656L76.8392 227.35L77.1471 228.813C76.3002 229.814 75.5303 230.969 74.9143 232.2L73.4514 232.354L72.6815 234.741L73.6824 235.819C73.4514 237.128 73.3745 238.514 73.4514 239.9L72.2965 240.747L72.8355 243.211L74.2984 243.672C74.7603 244.981 75.3763 246.213 76.1462 247.291L75.6073 248.6L77.3011 250.448L78.764 250.14C79.7649 250.987 80.9198 251.757 82.1517 252.373L82.3057 253.836L84.6925 254.606L85.7704 253.605C87.0793 253.836 88.4652 253.913 89.8511 253.836L90.698 254.991L93.1618 254.452L93.6238 252.989C94.9327 252.527 96.1646 251.911 97.2425 251.141L98.5514 251.68L100.399 249.986L100.091 248.523C100.938 247.522 101.708 246.367 102.324 245.135L103.787 244.981L104.557 242.595L103.556 241.517C103.864 240.208 103.941 238.822 103.787 237.436ZM88.6962 246.752C84.2306 246.752 80.6119 243.134 80.6119 238.668C80.6119 234.202 84.2306 230.584 88.6962 230.584C93.1618 230.584 96.7805 234.202 96.7805 238.668C96.7805 243.134 93.1618 246.752 88.6962 246.752Z" stroke="#090909" stroke-miterlimit="10"/>
<path d="M313.903 155.054L315.289 153.976L314.673 150.973L312.979 150.435C312.44 148.818 311.67 147.355 310.746 146.046L311.439 144.429L309.36 142.119L307.589 142.504C306.358 141.426 304.972 140.502 303.509 139.809L303.278 138.116L300.352 137.192L299.043 138.424C297.426 138.116 295.809 138.039 294.116 138.193L293.038 136.807L290.035 137.423L289.496 139.116C287.879 139.655 286.416 140.425 285.107 141.349L283.49 140.656L281.181 142.735L281.566 144.506C280.488 145.738 279.564 147.124 278.871 148.587L277.177 148.818L276.253 151.743L277.485 153.052C277.177 154.669 277.1 156.286 277.254 157.98L275.868 159.058L276.484 162.061L278.178 162.6C278.717 164.216 279.487 165.679 280.411 166.988L279.718 168.605L281.797 170.915L283.567 170.53C284.799 171.608 286.185 172.532 287.648 173.225L287.879 174.918L290.805 175.842L292.114 174.611C293.731 174.918 295.347 174.995 297.041 174.841L298.119 176.227L301.122 175.611L301.661 173.918C303.278 173.379 304.741 172.609 306.05 171.685L307.666 172.378L309.976 170.299L309.591 168.528C310.669 167.296 311.593 165.91 312.286 164.447L313.98 164.216L314.904 161.291L313.672 159.982C313.98 158.365 314.057 156.748 313.903 155.054ZM295.578 166.295C290.189 166.295 285.8 161.907 285.8 156.517C285.8 151.127 290.189 146.739 295.578 146.739C300.968 146.739 305.357 151.127 305.357 156.517C305.357 161.907 300.968 166.295 295.578 166.295Z" stroke="#090909" stroke-miterlimit="10"/>
<path d="M192.435 241.071C192.435 241.071 190.819 250.464 199.057 256.239H125.913C125.913 256.239 134.998 251.311 133.381 241.071H192.435Z" fill="#080808" stroke="#090909" stroke-width="0.715855" stroke-miterlimit="10"/>
<path d="M203.369 259.781H122.372C121.294 259.781 120.447 258.934 120.447 257.856C120.447 256.778 121.294 255.931 122.372 255.931H203.369C204.447 255.931 205.294 256.778 205.294 257.856C205.294 258.934 204.447 259.781 203.369 259.781Z" fill="#FFFEFF" stroke="#090909" stroke-width="0.715855" stroke-miterlimit="10"/>
<path d="M279.439 243.843H46.3019C41.6822 243.843 37.9095 240.07 37.9095 235.45V72.0697C37.9095 67.4501 41.6822 63.6774 46.3019 63.6774H279.362C283.981 63.6774 287.754 67.4501 287.754 72.0697V235.527C287.754 240.147 283.981 243.843 279.439 243.843Z" fill="#D8D8E4" stroke="#090909" stroke-width="0.715855" stroke-miterlimit="10"/>
<path d="M37.9863 217.125V72.0693C37.9863 67.4497 41.759 63.677 46.3786 63.677H279.438C284.058 63.677 287.831 67.4497 287.831 72.0693V217.202H37.9863V217.125Z" fill="#080808" stroke="#090909" stroke-width="0.715855" stroke-miterlimit="10"/>
<path d="M278.008 206.38V73.4115L47.7204 73.4115L47.7204 206.38L278.008 206.38Z" fill="white" stroke="#090909" stroke-width="0.715855" stroke-miterlimit="10"/>
<path d="M162.872 235.679C165.807 235.679 168.185 233.3 168.185 230.366C168.185 227.432 165.807 225.054 162.872 225.054C159.938 225.054 157.56 227.432 157.56 230.366C157.56 233.3 159.938 235.679 162.872 235.679Z" fill="#090909"/>
<path d="M63.3485 120.494H73.5886C75.1285 126.885 80.0561 128.039 82.9048 128.193C83.4438 128.193 83.7518 127.501 83.2898 127.116C80.1331 124.652 81.288 120.494 81.288 120.494H86.0616C91.0662 120.494 95.1468 116.413 95.1468 111.409V102.324C95.1468 97.319 91.0662 93.2384 86.0616 93.2384H63.2715C58.2669 93.2384 54.1862 97.319 54.1862 102.324V111.409C54.2632 116.413 58.3439 120.494 63.3485 120.494Z" fill="#009944"/>
<path d="M84.2914 109.175C85.7372 109.175 86.9092 108.003 86.9092 106.558C86.9092 105.112 85.7372 103.94 84.2914 103.94C82.8457 103.94 81.6736 105.112 81.6736 106.558C81.6736 108.003 82.8457 109.175 84.2914 109.175Z" fill="#FFFEFF"/>
<path d="M74.7438 109.175C76.1896 109.175 77.3616 108.003 77.3616 106.558C77.3616 105.112 76.1896 103.94 74.7438 103.94C73.2981 103.94 72.1261 105.112 72.1261 106.558C72.1261 108.003 73.2981 109.175 74.7438 109.175Z" fill="#FFFEFF"/>
<path d="M65.1968 109.175C66.6426 109.175 67.8146 108.003 67.8146 106.558C67.8146 105.112 66.6426 103.94 65.1968 103.94C63.751 103.94 62.579 105.112 62.579 106.558C62.579 108.003 63.751 109.175 65.1968 109.175Z" fill="#FFFEFF"/>
<path d="M219.955 38.651H105.234V189.559H203.94L219.955 173.621V38.651Z" fill="#FFFEFF" stroke="#090909" stroke-miterlimit="10" stroke-linecap="round" stroke-linejoin="round"/>
<path d="M204.864 184.554H110.239V43.6559H214.951V174.083" stroke="#D8D8E4" stroke-miterlimit="10" stroke-linecap="round" stroke-linejoin="round"/>
<path d="M203.941 189.559L219.956 173.622H203.941V189.559Z" fill="#090909" stroke="#090909" stroke-miterlimit="10" stroke-linecap="round" stroke-linejoin="round"/>
<path d="M203.941 189.559L219.956 173.622H203.941V189.559Z" fill="#009944" stroke="#090909" stroke-miterlimit="10" stroke-linecap="round" stroke-linejoin="round"/>
<path d="M117.636 101.246H199.557" stroke="#090909" stroke-miterlimit="10"/>
<path d="M117.636 108.407H199.557" stroke="#090909" stroke-miterlimit="10"/>
<path d="M117.636 94.0868H199.557" stroke="#090909" stroke-miterlimit="10"/>
<path d="M117.636 115.645H199.557" stroke="#090909" stroke-miterlimit="10"/>
<path d="M117.636 122.728H199.557" stroke="#090909" stroke-miterlimit="10"/>
<path d="M129.8 129.888H187.391" stroke="#090909" stroke-miterlimit="10"/>
<path d="M117.636 55.359H156.44" stroke="#090909" stroke-width="0.715855" stroke-miterlimit="10"/>
<path d="M117.636 60.2872H148.356" stroke="#090909" stroke-width="0.715855" stroke-miterlimit="10"/>
<path d="M154.825 176.931L151.206 173.235L146.047 173.466L151.745 159.453L160.522 162.918L154.825 176.931Z" fill="#009944" stroke="#090909" stroke-width="0.715855" stroke-miterlimit="10"/>
<path d="M162.216 176.931L165.835 173.235L170.993 173.466L165.45 159.453L156.673 162.918L162.216 176.931Z" fill="#009944" stroke="#090909" stroke-width="0.715855" stroke-miterlimit="10"/>
<path d="M172.534 153.292L173.073 150.752L171.687 148.519L171.302 145.978L169.3 144.361L167.991 142.051L165.527 141.204L163.602 139.51L160.985 139.587L158.598 138.664L156.211 139.587L153.593 139.51L151.668 141.204L149.205 142.051L147.896 144.361L145.894 145.978L145.509 148.519L144.123 150.752L144.662 153.292L144.123 155.833L145.509 158.066L145.894 160.607L147.896 162.224L149.205 164.533L151.668 165.38L153.593 167.074L156.211 166.997L158.598 167.921L160.985 166.997L163.602 167.074L165.527 165.38L167.991 164.533L169.3 162.224L171.302 160.607L171.687 158.066L173.073 155.833L172.534 153.292Z" fill="#B7E4C8"/>
<path d="M172.534 153.292L173.073 150.752L171.687 148.519L171.302 145.978L169.3 144.361L167.991 142.051L165.527 141.204L163.602 139.51L160.985 139.587L158.598 138.664L156.211 139.587L153.593 139.51L151.668 141.204L149.205 142.051L147.896 144.361L145.894 145.978L145.509 148.519L144.123 150.752L144.662 153.292L144.123 155.833L145.509 158.066L145.894 160.607L147.896 162.224L149.205 164.533L151.668 165.38L153.593 167.074L156.211 166.997L158.598 167.921L160.985 166.997L163.602 167.074L165.527 165.38L167.991 164.533L169.3 162.224L171.302 160.607L171.687 158.066L173.073 155.833L172.534 153.292Z" stroke="#090909" stroke-miterlimit="10"/>
<path d="M158.596 163.149C164.039 163.149 168.451 158.736 168.451 153.293C168.451 147.851 164.039 143.438 158.596 143.438C153.153 143.438 148.741 147.851 148.741 153.293C148.741 158.736 153.153 163.149 158.596 163.149Z" stroke="#090909" stroke-width="0.75" stroke-miterlimit="10"/>
<path d="M126.162 78.636H123.358C123.338 78.404 123.285 78.1935 123.199 78.0046C123.116 77.8157 123 77.6533 122.851 77.5174C122.705 77.3782 122.528 77.2721 122.319 77.1992C122.11 77.123 121.873 77.0849 121.608 77.0849C121.144 77.0849 120.751 77.1976 120.43 77.4229C120.111 77.6483 119.869 77.9715 119.704 78.3924C119.541 78.8133 119.46 79.3188 119.46 79.9087C119.46 80.5318 119.543 81.0539 119.709 81.4748C119.878 81.8924 120.121 82.2073 120.44 82.4194C120.758 82.6282 121.141 82.7326 121.588 82.7326C121.843 82.7326 122.072 82.7011 122.274 82.6381C122.476 82.5719 122.652 82.4774 122.801 82.3548C122.95 82.2321 123.071 82.0846 123.164 81.9123C123.26 81.7366 123.325 81.5394 123.358 81.3207L126.162 81.3406C126.129 81.7714 126.008 82.2106 125.799 82.658C125.59 83.1022 125.293 83.5131 124.909 83.891C124.528 84.2655 124.056 84.5671 123.492 84.7958C122.929 85.0245 122.274 85.1389 121.528 85.1389C120.594 85.1389 119.755 84.9383 119.013 84.5373C118.274 84.1362 117.689 83.5463 117.258 82.7674C116.83 81.9885 116.616 81.0356 116.616 79.9087C116.616 78.7752 116.835 77.8207 117.273 77.0451C117.71 76.2662 118.3 75.6779 119.042 75.2802C119.785 74.8791 120.614 74.6786 121.528 74.6786C122.171 74.6786 122.763 74.7665 123.303 74.9421C123.843 75.1178 124.317 75.3746 124.725 75.7127C125.133 76.0475 125.461 76.4601 125.709 76.9506C125.958 77.4412 126.109 78.003 126.162 78.636ZM127.416 84.9996V74.8178H134.754V77.0451H130.18V78.7951H134.376V81.0224H130.18V82.7724H134.734V84.9996H127.416ZM136.125 84.9996V74.8178H140.52C141.275 74.8178 141.937 74.9554 142.503 75.2305C143.07 75.5056 143.511 75.9016 143.826 76.4187C144.141 76.9357 144.298 77.5555 144.298 78.2781C144.298 79.0072 144.136 79.622 143.811 80.1225C143.489 80.623 143.037 81.0008 142.454 81.256C141.874 81.5112 141.196 81.6389 140.42 81.6389H137.795V79.4911H139.864C140.188 79.4911 140.465 79.4514 140.694 79.3718C140.926 79.2889 141.103 79.158 141.226 78.9791C141.352 78.8001 141.415 78.5664 141.415 78.2781C141.415 77.9864 141.352 77.7494 141.226 77.5671C141.103 77.3815 140.926 77.2456 140.694 77.1594C140.465 77.07 140.188 77.0252 139.864 77.0252H138.889V84.9996H136.125ZM142.091 80.3264L144.636 84.9996H141.633L139.148 80.3264H142.091ZM145.198 77.0451V74.8178H154.047V77.0451H150.985V84.9996H148.261V77.0451H145.198ZM157.852 74.8178V84.9996H155.088V74.8178H157.852ZM159.162 84.9996V74.8178H166.321V77.0451H161.926V78.7951H165.884V81.0224H161.926V84.9996H159.162ZM170.102 74.8178V84.9996H167.338V74.8178H170.102ZM180.918 78.636H178.114C178.094 78.404 178.041 78.1935 177.955 78.0046C177.872 77.8157 177.756 77.6533 177.607 77.5174C177.461 77.3782 177.283 77.2721 177.075 77.1992C176.866 77.123 176.629 77.0849 176.364 77.0849C175.9 77.0849 175.507 77.1976 175.185 77.4229C174.867 77.6483 174.625 77.9715 174.46 78.3924C174.297 78.8133 174.216 79.3188 174.216 79.9087C174.216 80.5318 174.299 81.0539 174.465 81.4748C174.634 81.8924 174.877 82.2073 175.195 82.4194C175.514 82.6282 175.896 82.7326 176.344 82.7326C176.599 82.7326 176.828 82.7011 177.03 82.6381C177.232 82.5719 177.408 82.4774 177.557 82.3548C177.706 82.2321 177.827 82.0846 177.92 81.9123C178.016 81.7366 178.081 81.5394 178.114 81.3207L180.918 81.3406C180.885 81.7714 180.764 82.2106 180.555 82.658C180.346 83.1022 180.049 83.5131 179.665 83.891C179.284 84.2655 178.811 84.5671 178.248 84.7958C177.684 85.0245 177.03 85.1389 176.284 85.1389C175.349 85.1389 174.511 84.9383 173.769 84.5373C173.029 84.1362 172.444 83.5463 172.014 82.7674C171.586 81.9885 171.372 81.0356 171.372 79.9087C171.372 78.7752 171.591 77.8207 172.028 77.0451C172.466 76.2662 173.056 75.6779 173.798 75.2802C174.541 74.8791 175.369 74.6786 176.284 74.6786C176.927 74.6786 177.519 74.7665 178.059 74.9421C178.599 75.1178 179.073 75.3746 179.481 75.7127C179.889 76.0475 180.217 76.4601 180.465 76.9506C180.714 77.4412 180.865 78.003 180.918 78.636ZM184.502 84.9996H181.519L184.88 74.8178H188.658L192.019 84.9996H189.036L186.809 77.6218H186.729L184.502 84.9996ZM183.945 80.9826H189.553V83.0508H183.945V80.9826ZM191.436 77.0451V74.8178H200.286V77.0451H197.223V84.9996H194.499V77.0451H191.436ZM201.326 84.9996V74.8178H208.664V77.0451H204.09V78.7951H208.286V81.0224H204.09V82.7724H208.644V84.9996H201.326Z" fill="#009944"/>
<path d="M117.636 165.768H135.421" stroke="#090909" stroke-width="0.715855" stroke-miterlimit="10"/>
<path d="M182.157 165.768H199.942" stroke="#090909" stroke-width="0.715855" stroke-miterlimit="10"/>
<path d="M249.518 45.3483C261.764 45.3483 271.692 35.4206 271.692 23.1742C271.692 10.9277 261.764 1 249.518 1C237.272 1 227.344 10.9277 227.344 23.1742C227.344 35.4206 237.272 45.3483 249.518 45.3483Z" fill="#FFFEFF" stroke="#090909" stroke-miterlimit="10"/>
<path d="M240.818 29.4101L249.518 23.1736V7.46694" stroke="#090909" stroke-width="1.43171" stroke-miterlimit="10" stroke-linecap="round" stroke-linejoin="round"/>
<path d="M126.945 47.5815H90.9118C89.2179 47.5815 87.9091 46.2726 87.9091 44.5788V21.4807C87.9091 19.7868 89.2179 18.4779 90.9118 18.4779H126.945C128.639 18.4779 129.948 19.7868 129.948 21.4807V44.6557C129.948 46.2726 128.639 47.5815 126.945 47.5815Z" fill="white" stroke="#090909" stroke-miterlimit="10" stroke-linecap="round" stroke-linejoin="round"/>
<path d="M115.857 32.2597L105.617 26.3312C105.001 25.9462 104.231 26.4081 104.231 27.1011V38.9581C104.231 39.6511 105.001 40.113 105.617 39.728L115.857 33.7995C116.473 33.4916 116.473 32.5676 115.857 32.2597Z" fill="#009944" stroke="#090909" stroke-miterlimit="10"/>
<path d="M152.583 29.7186C151.043 25.2529 149.58 20.8643 148.04 16.3987" stroke="#090909" stroke-width="0.715855" stroke-miterlimit="10"/>
<path d="M172.602 29.7186C174.142 25.2529 175.605 20.8643 177.145 16.3987" stroke="#090909" stroke-width="0.715855" stroke-miterlimit="10"/>
<path d="M162.592 28.9479C162.592 24.7903 162.592 21.4796 162.592 17.3219" stroke="#090909" stroke-width="0.715855" stroke-miterlimit="10"/>
<path d="M27.1001 156.209H80.9187" stroke="#090909" stroke-width="0.715855" stroke-miterlimit="10"/>
<path d="M67.983 150.819H94.3149" stroke="#090909" stroke-width="0.715855" stroke-miterlimit="10"/>
<path d="M248.072 112.781H308.281" stroke="#090909" stroke-width="0.715855" stroke-miterlimit="10"/>
<path d="M235.521 107.391H270.322" stroke="#090909" stroke-width="0.715855" stroke-miterlimit="10"/>
<path d="M243.528 181.231H269.86" stroke="#090909" stroke-width="0.715855" stroke-miterlimit="10"/>
</svg>
