<svg width="26" height="26" viewBox="0 0 26 26" fill="none" xmlns="http://www.w3.org/2000/svg">
<path d="M25.5927 10.7501L24.9828 12.2589C24.7902 12.7725 24.7902 13.3182 24.9828 13.8318L25.5927 15.3406C25.9458 16.2394 25.6569 17.2667 24.8544 17.8445L23.5061 18.7754C23.0567 19.0964 22.7678 19.5779 22.6394 20.0916L22.3505 21.6966C22.1579 22.6597 21.3553 23.3659 20.3923 23.398L18.7551 23.4622C18.2094 23.4943 17.6958 23.719 17.3106 24.1042L16.187 25.292C15.5129 25.9982 14.4536 26.1587 13.6189 25.6772L12.2065 24.8425C11.725 24.5536 11.1793 24.4894 10.6335 24.6178L9.02847 25.0031C8.09753 25.2278 7.1024 24.7783 6.65298 23.9116L5.91465 22.435C5.65784 21.9534 5.24052 21.5682 4.7269 21.4077L3.18605 20.8941C2.25511 20.5731 1.67729 19.6742 1.77359 18.7112L1.9341 17.0741C1.9983 16.5283 1.83779 15.9826 1.48468 15.5653L0.457442 14.2812C-0.152481 13.5108 -0.152481 12.4515 0.457442 11.681L1.48468 10.397C1.83779 9.97968 1.9983 9.43396 1.9341 8.88824L1.77359 7.25108C1.67729 6.28804 2.25511 5.3892 3.18605 5.06819L4.7269 4.55457C5.24052 4.39407 5.65784 4.00885 5.91465 3.52733L6.65298 2.05068C7.1024 1.18394 8.06543 0.734526 9.02847 0.959235L10.6335 1.34445C11.1472 1.47285 11.725 1.40865 12.2065 1.11974L13.6189 0.28511C14.4536 -0.196409 15.5129 -0.0680041 16.187 0.670324L17.3106 1.85807C17.6958 2.24328 18.2094 2.50009 18.7551 2.50009L20.3923 2.5643C21.3553 2.5964 22.19 3.30262 22.3505 4.26566L22.6394 5.87072C22.7357 6.41644 23.0567 6.89796 23.5061 7.18687L24.8544 8.11781C25.6569 8.82404 25.9779 9.85127 25.5927 10.7501Z" fill="#009944"/>
<g opacity="0.15">
<path d="M7.58391 23.8153L6.84558 22.3387C6.58878 21.8571 6.17146 21.4719 5.65784 21.3114L4.11698 20.7978C3.18605 20.4768 2.60822 19.578 2.70453 18.6149L2.86503 16.9778C2.92924 16.432 2.76873 15.8863 2.41562 15.469L1.38838 14.185C0.778455 13.4145 0.778455 12.3552 1.38838 11.5848L2.41562 10.3007C2.76873 9.88339 2.92924 9.33767 2.86503 8.79195L2.70453 7.15478C2.60822 6.19175 3.18605 5.29291 4.11698 4.9719L5.65784 4.45828C6.17146 4.29777 6.58878 3.91256 6.84558 3.43104L7.58391 1.95438C7.84072 1.44076 8.29014 1.08765 8.77166 0.927146C7.90493 0.798741 7.03819 1.24816 6.65298 2.05069L5.91465 3.52734C5.65784 4.00886 5.24052 4.39408 4.7269 4.55458L3.18605 5.0682C2.25511 5.38921 1.67729 6.28805 1.77359 7.25109L1.9341 8.88825C1.9983 9.43397 1.83779 9.97969 1.48468 10.397L0.457442 11.6811C-0.152481 12.4515 -0.152481 13.5108 0.457442 14.2813L1.48468 15.5653C1.83779 15.9826 1.9983 16.5283 1.9341 17.0741L1.77359 18.7112C1.67729 19.6743 2.25511 20.5731 3.18605 20.8941L4.7269 21.4077C5.24052 21.5682 5.65784 21.9534 5.91465 22.435L6.65298 23.9116C7.1024 24.7784 8.06543 25.2278 9.02847 25.0031L9.22108 24.971C8.51485 24.8426 7.90493 24.4573 7.58391 23.8153Z" fill="black"/>
<path d="M13.105 1.02345L14.5174 0.188821C14.6458 0.124618 14.7742 0.0604158 14.9026 0.0283146C14.4532 -0.0358879 13.9717 0.0604162 13.5865 0.285125L12.174 1.11976C12.0456 1.18396 11.9172 1.24816 11.7888 1.28026C12.2382 1.34446 12.6877 1.28026 13.105 1.02345Z" fill="black"/>
<path d="M19.6547 23.3338C19.4942 23.3338 19.3337 23.3659 19.2053 23.398L20.361 23.3338C20.5215 23.3338 20.6499 23.3017 20.8104 23.2696L19.6547 23.3338Z" fill="black"/>
<path d="M14.5179 25.5488L13.1054 24.7142C12.6239 24.4253 12.0782 24.361 11.5325 24.4895L11.3398 24.5216C11.6288 24.5537 11.8856 24.65 12.1424 24.7784L13.5548 25.613C14.1005 25.934 14.7105 25.9661 15.2883 25.7735C15.0315 25.7735 14.7747 25.7093 14.5179 25.5488Z" fill="black"/>
</g>
<path d="M7.77539 11.0069L11.788 15.5974L20.006 8.98453" fill="#009944"/>
<path d="M10.8259 17.9729C10.3764 17.9729 9.92702 17.7803 9.60601 17.4272L5.59335 12.8367C5.01553 12.1626 5.07973 11.1674 5.72176 10.5575C6.39588 9.97967 7.39102 10.0439 8.00095 10.6859L11.0185 14.1207L18.0486 8.47092C18.7228 7.92519 19.75 8.0215 20.2957 8.72772C20.8414 9.43395 20.7451 10.4291 20.0389 10.9748L11.821 17.6198C11.5321 17.8445 11.179 17.9729 10.8259 17.9729Z" fill="white"/>
</svg>
