<svg width="13" height="13" viewBox="0 0 13 13" fill="none" xmlns="http://www.w3.org/2000/svg">
<path d="M11.4305 3.875C11.2951 3.73958 11.1347 3.67187 10.9495 3.67187C10.7646 3.67187 10.6044 3.73958 10.469 3.875L6.5013 7.84271L2.52005 3.86146C2.39366 3.73507 2.23568 3.67188 2.04609 3.67188C1.85651 3.67188 1.69401 3.73958 1.55859 3.875C1.42318 4.01042 1.35547 4.17075 1.35547 4.356C1.35547 4.54089 1.42318 4.70104 1.55859 4.83646L6.12214 9.38646C6.1763 9.44063 6.23498 9.47908 6.29818 9.50183C6.36137 9.52422 6.42908 9.53542 6.5013 9.53542C6.57352 9.53542 6.64123 9.52422 6.70443 9.50183C6.76762 9.47908 6.8263 9.44063 6.88047 9.38646L11.444 4.82292C11.5704 4.69653 11.6336 4.54089 11.6336 4.356C11.6336 4.17075 11.5659 4.01042 11.4305 3.875Z" fill="black"/>
</svg>
