<svg width="25" height="24" viewBox="0 0 25 24" fill="none" xmlns="http://www.w3.org/2000/svg">
<path d="M12.5016 5.84768C9.09659 5.84768 6.34859 8.59568 6.34859 12.0007C6.34859 15.4057 9.09659 18.1537 12.5016 18.1537C15.9066 18.1537 18.6546 15.4057 18.6546 12.0007C18.6546 8.59568 15.9066 5.84768 12.5016 5.84768ZM12.5016 15.9997C10.2996 15.9997 8.50259 14.2027 8.50259 12.0007C8.50259 9.79868 10.2996 8.00168 12.5016 8.00168C14.7036 8.00168 16.5006 9.79868 16.5006 12.0007C16.5006 14.2027 14.7036 15.9997 12.5016 15.9997ZM18.9066 4.16168C18.1116 4.16168 17.4696 4.80368 17.4696 5.59868C17.4696 6.39368 18.1116 7.03568 18.9066 7.03568C19.7016 7.03568 20.3436 6.39668 20.3436 5.59868C20.3438 5.4099 20.3068 5.22294 20.2347 5.04848C20.1625 4.87403 20.0567 4.71553 19.9232 4.58204C19.7897 4.44855 19.6312 4.34272 19.4568 4.27058C19.2823 4.19845 19.0954 4.16144 18.9066 4.16168ZM24.4956 12.0007C24.4956 10.3447 24.5106 8.70368 24.4176 7.05068C24.3246 5.13068 23.8866 3.42668 22.4826 2.02268C21.0756 0.615681 19.3746 0.180681 17.4546 0.0876813C15.7986 -0.00531865 14.1576 0.00968139 12.5046 0.00968139C10.8486 0.00968139 9.20759 -0.00531865 7.55459 0.0876813C5.63459 0.180681 3.93059 0.618681 2.52659 2.02268C1.11959 3.42968 0.684588 5.13068 0.591588 7.05068C0.498588 8.70668 0.513588 10.3477 0.513588 12.0007C0.513588 13.6537 0.498588 15.2977 0.591588 16.9507C0.684588 18.8707 1.12259 20.5747 2.52659 21.9787C3.93359 23.3857 5.63459 23.8207 7.55459 23.9137C9.21059 24.0067 10.8516 23.9917 12.5046 23.9917C14.1606 23.9917 15.8016 24.0067 17.4546 23.9137C19.3746 23.8207 21.0786 23.3827 22.4826 21.9787C23.8896 20.5717 24.3246 18.8707 24.4176 16.9507C24.5136 15.2977 24.4956 13.6567 24.4956 12.0007ZM21.8556 19.0747C21.6366 19.6207 21.3726 20.0287 20.9496 20.4487C20.5266 20.8717 20.1216 21.1357 19.5756 21.3547C17.9976 21.9817 14.2506 21.8407 12.5016 21.8407C10.7526 21.8407 7.00259 21.9817 5.42459 21.3577C4.87859 21.1387 4.47059 20.8747 4.05059 20.4517C3.62759 20.0287 3.36359 19.6237 3.14459 19.0777C2.52059 17.4967 2.66159 13.7497 2.66159 12.0007C2.66159 10.2517 2.52059 6.50168 3.14459 4.92368C3.36359 4.37768 3.62759 3.96968 4.05059 3.54968C4.47359 3.12968 4.87859 2.86268 5.42459 2.64368C7.00259 2.01968 10.7526 2.16068 12.5016 2.16068C14.2506 2.16068 18.0006 2.01968 19.5786 2.64368C20.1246 2.86268 20.5326 3.12668 20.9526 3.54968C21.3756 3.97268 21.6396 4.37768 21.8586 4.92368C22.4826 6.50168 22.3416 10.2517 22.3416 12.0007C22.3416 13.7497 22.4826 17.4967 21.8556 19.0747Z" fill="white"/>
</svg>
