<svg width="25" height="24" viewBox="0 0 25 24" fill="none" xmlns="http://www.w3.org/2000/svg">
<path d="M12.5 24C19.1274 24 24.5 18.6274 24.5 12C24.5 5.37258 19.1274 0 12.5 0C5.87258 0 0.5 5.37258 0.5 12C0.5 18.6274 5.87258 24 12.5 24Z" fill="white"/>
<path d="M19.67 12.9656V17.9129H16.8017V13.2971C16.8017 12.1382 16.3875 11.3467 15.349 11.3467C14.5565 11.3467 14.0856 11.8796 13.8777 12.3955C13.8022 12.5799 13.7827 12.836 13.7827 13.0946V17.9127H10.9142C10.9142 17.9127 10.9527 10.0951 10.9142 9.28588H13.783V10.5084C13.7772 10.518 13.7691 10.5274 13.7639 10.5366H13.783V10.5084C14.1641 9.92184 14.844 9.0833 16.3681 9.0833C18.2552 9.0833 19.67 10.3163 19.67 12.9656ZM7.91344 5.12744C6.93223 5.12744 6.29028 5.77153 6.29028 6.61776C6.29028 7.44603 6.91362 8.10872 7.87579 8.10872H7.8944C8.89487 8.10872 9.51692 7.44603 9.51692 6.61776C9.49788 5.77153 8.89487 5.12744 7.91344 5.12744ZM6.46077 17.9129H9.32825V9.28588H6.46077V17.9129Z" fill="#3F3F3F"/>
</svg>
