<svg width="43" height="51" viewBox="0 0 43 51" fill="none" xmlns="http://www.w3.org/2000/svg">
<path d="M21.416 16.9336C26.0921 16.9336 29.8828 13.1429 29.8828 8.4668C29.8828 3.79071 26.0921 0 21.416 0C16.7399 0 12.9492 3.79071 12.9492 8.4668C12.9492 13.1429 16.7399 16.9336 21.416 16.9336Z" fill="#009944"/>
<path d="M27.6371 18.0806C25.8444 19.2447 23.7077 19.9218 21.4156 19.9218C19.1235 19.9218 16.9868 19.2447 15.1941 18.0806C13.2124 18.8379 11.375 19.9552 9.77734 21.3892L21.4156 25.7536L33.0539 21.3892C31.4562 19.9552 29.6188 18.8378 27.6371 18.0806Z" fill="#009944"/>
<path d="M39.3457 30.8789H38.3496C37.5244 30.8789 36.8555 31.5479 36.8555 32.373V36.3574C36.8555 37.1826 37.5244 37.8516 38.3496 37.8516H39.3457C41.2712 37.8516 42.832 36.2907 42.832 34.3652C42.832 32.4398 41.2712 30.8789 39.3457 30.8789Z" fill="#009944"/>
<path d="M4.62745 23.3361C4.22463 23.6153 3.98438 24.0741 3.98438 24.5642V27.8907H4.48242C6.95403 27.8907 8.96484 29.9015 8.96484 32.3731V36.3575C8.96484 38.8291 6.95403 40.8399 4.48242 40.8399H3.98438V43.9881C3.98438 44.6109 4.37076 45.1684 4.95387 45.3871L19.9219 51.0001V28.3847L6.00316 23.1652C5.54426 22.993 5.03017 23.0568 4.62745 23.3361Z" fill="#009944"/>
<path d="M33.8672 36.3575V32.3731C33.8672 29.9015 35.878 27.8907 38.3496 27.8907H38.8477V24.5642C38.8477 24.0741 38.6074 23.6153 38.2046 23.3361C37.8018 23.0568 37.2876 22.993 36.8289 23.1652L22.9102 28.3847V51.0001L37.8782 45.3871C38.4613 45.1684 38.8477 44.6109 38.8477 43.9881V40.8399H38.3496C35.878 40.8399 33.8672 38.8291 33.8672 36.3575Z" fill="#009944"/>
<path d="M5.97656 36.3574V32.373C5.97656 31.5479 5.30759 30.8789 4.48242 30.8789H3.48633C1.56088 30.8789 0 32.4398 0 34.3652C0 36.2907 1.56088 37.8516 3.48633 37.8516H4.48242C5.30759 37.8516 5.97656 37.1826 5.97656 36.3574Z" fill="#009944"/>
</svg>
