<svg width="42" height="52" viewBox="0 0 42 52" fill="none" xmlns="http://www.w3.org/2000/svg">
<path d="M32.4989 22.7493C27.5713 22.7493 23.5617 26.7588 23.5617 31.6865C23.5617 36.6141 27.5713 40.6237 32.4989 40.6237C37.4266 40.6237 41.4361 36.6141 41.4361 31.6865C41.4361 26.7588 37.4266 22.7493 32.4989 22.7493ZM36.2881 30.2524C33.6901 34.15 34.4268 33.045 33.0382 35.1273C32.5395 35.8754 31.5297 36.0738 30.7846 35.5772L28.3472 33.9522C27.6007 33.4546 27.3996 32.4461 27.8973 31.6986C28.3949 30.9522 29.4034 30.7511 30.1509 31.2487L31.2355 31.9718C33.8271 28.0851 33.6878 28.1926 34.1239 27.944C35.6039 27.0879 37.2392 28.8239 36.2881 30.2524ZM25.1867 41.43V50.3733C25.1867 51.6184 26.5352 52.403 27.618 51.784L32.4989 48.9952L37.3799 51.784C38.4583 52.4021 39.8112 51.6218 39.8112 50.3733V41.43C35.4819 44.6872 29.5221 44.6919 25.1867 41.43ZM35.7488 19.9401V3.52918C35.7488 1.58331 34.1655 0 32.2196 0H3.52918C1.58331 0 0 1.58331 0 3.52918V41.1568C0 43.1027 1.58331 44.686 3.52918 44.686H21.9368C21.9368 37.6934 21.9259 38.1262 21.9622 37.8044C16.5225 28.4785 25.1843 17.0063 35.7488 19.9401ZM9.74968 8.12473H23.5617C24.4595 8.12473 25.1867 8.8519 25.1867 9.74968C25.1867 10.6475 24.4595 11.3746 23.5617 11.3746H9.74968C8.8519 11.3746 8.12473 10.6475 8.12473 9.74968C8.12473 8.8519 8.8519 8.12473 9.74968 8.12473ZM17.8744 24.3742H9.74968C8.8519 24.3742 8.12473 23.647 8.12473 22.7493C8.12473 21.8515 8.8519 21.1243 9.74968 21.1243H17.8744C18.7722 21.1243 19.4994 21.8515 19.4994 22.7493C19.4994 23.647 18.7722 24.3742 17.8744 24.3742ZM9.74968 17.8744C8.8519 17.8744 8.12473 17.1472 8.12473 16.2495C8.12473 15.3517 8.8519 14.6245 9.74968 14.6245H23.5617C24.4595 14.6245 25.1867 15.3517 25.1867 16.2495C25.1867 17.1472 24.4595 17.8744 23.5617 17.8744H9.74968Z" fill="#019641"/>
</svg>
