<svg width="56" height="46" viewBox="0 0 56 46" fill="none" xmlns="http://www.w3.org/2000/svg">
<path d="M51.9576 7.26305H24.9588C24.7171 7.26305 24.4742 7.14685 24.2325 7.02134L15.8852 0.726306C15.2568 0.254477 14.4921 -0.000419297 13.7063 5.17745e-07H3.65887C1.60081 5.17745e-07 0.0273438 1.57347 0.0273438 3.63153V42.3686C0.0273438 44.4267 1.60081 46.0001 3.65887 46.0001H52.0796C54.1377 46.0001 55.7111 44.4267 55.7111 42.3686V10.8946C55.5891 8.83652 54.011 7.26305 51.9576 7.26305ZM33.5583 27.8425L21.6956 33.7691C20.8485 34.2537 19.7584 33.5274 19.7584 32.5582V20.7003C19.7584 19.7323 20.8485 19.006 21.6956 19.4894L33.5583 25.416C34.5263 25.9053 34.5263 27.3579 33.5583 27.8425Z" fill="#009944"/>
<path d="M51.9572 4.84246C52.321 4.84246 52.8044 4.84246 53.1681 4.95867V4.84246C53.1681 2.78441 51.5946 1.21094 49.5366 1.21094H20.4844L25.3268 4.84246H51.9572Z" fill="#009944"/>
</svg>
