<svg width="51" height="51" viewBox="0 0 51 51" fill="none" xmlns="http://www.w3.org/2000/svg">
<path d="M17.0312 40.541C17.0312 43.0166 19.0381 45.0234 21.5137 45.0234H29.4824C31.958 45.0234 33.9648 43.0166 33.9648 40.541V37.8516H17.0312V40.541Z" fill="#019641"/>
<path d="M23.0117 51H27.9922C29.6426 51 30.9805 49.6621 30.9805 48.0117H20.0234C20.0234 49.6621 21.3613 51 23.0117 51Z" fill="#019641"/>
<path d="M49.5059 14.9414H46.5176C45.6924 14.9414 45.0234 15.6104 45.0234 16.4355C45.0234 17.2607 45.6924 17.9297 46.5176 17.9297H49.5059C50.331 17.9297 51 17.2607 51 16.4355C51 15.6104 50.331 14.9414 49.5059 14.9414Z" fill="#019641"/>
<path d="M4.48242 17.9297C5.30759 17.9297 5.97656 17.2607 5.97656 16.4355C5.97656 15.6104 5.30759 14.9414 4.48242 14.9414H1.49414C0.668977 14.9414 0 15.6104 0 16.4355C0 17.2607 0.668977 17.9297 1.49414 17.9297H4.48242Z" fill="#019641"/>
<path d="M45.7673 10.6852L48.5753 9.66312C49.3508 9.38092 49.7505 8.52349 49.4683 7.74803C49.1861 6.97257 48.3287 6.57284 47.5532 6.85503L44.7452 7.87712C43.9698 8.15932 43.57 9.01675 43.8522 9.79221C44.1344 10.5677 44.992 10.9674 45.7673 10.6852Z" fill="#019641"/>
<path d="M5.2329 22.186L2.42491 23.2081C1.64945 23.4902 1.24972 24.3477 1.53191 25.1231C1.8141 25.8986 2.67154 26.2983 3.447 26.0161L6.25499 24.9941C7.03045 24.7119 7.43018 23.8544 7.14799 23.079C6.86579 22.3035 6.00826 21.9038 5.2329 22.186Z" fill="#019641"/>
<path d="M48.5753 23.2081L45.7674 22.186C44.9919 21.9038 44.1346 22.3035 43.8523 23.079C43.57 23.8544 43.9698 24.7118 44.7453 24.9941L47.5532 26.0161C48.3287 26.2983 49.186 25.8986 49.4683 25.1231C49.7506 24.3477 49.3507 23.4902 48.5753 23.2081Z" fill="#019641"/>
<path d="M6.25503 7.87724L3.44704 6.85515C2.67158 6.57296 1.81424 6.97269 1.53195 7.74815C1.24966 8.52361 1.64949 9.38095 2.42495 9.66324L5.23294 10.6853C6.00839 10.9675 6.86573 10.5678 7.14803 9.79233C7.43032 9.01687 7.03049 8.15944 6.25503 7.87724Z" fill="#019641"/>
<path d="M25.498 0C16.4355 0 9.0625 7.37299 9.0625 16.4355C9.0625 20.6659 10.6665 24.6844 13.579 27.7509C15.4563 29.7275 16.6224 32.2109 16.9418 34.8633H34.0544C34.3737 32.2108 35.5398 29.7274 37.4172 27.7509C40.3296 24.6844 41.9336 20.6659 41.9336 16.4355C41.9336 7.37299 34.5606 0 25.498 0ZM25.498 25.8984C24.6729 25.8984 24.0039 25.2295 24.0039 24.4043C24.0039 23.5791 24.6729 22.9102 25.498 22.9102C26.3232 22.9102 26.9922 23.5791 26.9922 24.4043C26.9922 25.2295 26.3232 25.8984 25.498 25.8984ZM27.7616 16.3207C27.5303 16.4562 26.9922 16.84 26.9922 17.4758V18.4277C26.9922 19.2529 26.3232 19.9219 25.498 19.9219C24.6729 19.9219 24.0039 19.2529 24.0039 18.4277V17.4758C24.0039 15.9622 24.844 14.5665 26.2511 13.7423C26.7083 13.4746 26.9922 12.9798 26.9922 12.4513C26.9922 11.6274 26.3219 10.9571 25.498 10.9571C24.6742 10.9571 24.0039 11.6274 24.0039 12.4513C24.0039 13.2764 23.3349 13.9454 22.5098 13.9454C21.6846 13.9454 21.0156 13.2764 21.0156 12.4513C21.0156 9.97966 23.0264 7.96885 25.498 7.96885C27.9697 7.96885 29.9805 9.97966 29.9805 12.4513C29.9805 14.0363 29.1302 15.5189 27.7616 16.3207Z" fill="#019641"/>
</svg>
