<svg width="15" height="15" viewBox="0 0 15 15" fill="none" xmlns="http://www.w3.org/2000/svg">
<path d="M0.312724 2.78777C2.37142 4.53126 5.98378 7.59858 7.0455 8.55498C7.18803 8.68406 7.3409 8.74969 7.4996 8.74969C7.65798 8.74969 7.81059 8.68468 7.95279 8.55621C9.01542 7.59888 12.6278 4.53126 14.6865 2.78777C14.8147 2.67943 14.8342 2.489 14.7305 2.35655C14.4906 2.05049 14.1329 1.875 13.7496 1.875H1.24961C0.866318 1.875 0.508633 2.05049 0.268779 2.35658C0.165009 2.489 0.18455 2.67943 0.312724 2.78777Z" fill="#009944"/>
<path d="M14.8187 3.73226C14.708 3.6807 14.5777 3.69868 14.4855 3.77743C12.2024 5.71285 9.28863 8.19365 8.37188 9.01973C7.85733 9.4842 7.14322 9.4842 6.62748 9.01912C5.65031 8.13869 2.3782 5.35701 0.514512 3.77741C0.421729 3.69866 0.291123 3.68128 0.18126 3.73223C0.0708105 3.78353 0 3.89401 0 4.01576V11.8747C0 12.5641 0.560596 13.1247 1.25001 13.1247H13.75C14.4394 13.1247 15 12.5641 15 11.8747V4.01576C15 3.89401 14.9292 3.78324 14.8187 3.73226Z" fill="#009944"/>
</svg>
