<svg width="21" height="27" viewBox="0 0 21 27" fill="none" xmlns="http://www.w3.org/2000/svg">
<path d="M5.60153 16.6428C5.36003 16.6428 5.19728 16.6664 5.11328 16.69V18.2361C5.21303 18.2598 5.33772 18.2663 5.50966 18.2663C6.13834 18.2663 6.52553 17.9487 6.52553 17.4119C6.52553 16.9315 6.19216 16.6428 5.60153 16.6428ZM10.1782 16.6585C9.91569 16.6585 9.74507 16.6821 9.64401 16.7058V20.1314C9.74507 20.155 9.90782 20.155 10.0548 20.155C11.1271 20.1629 11.8254 19.5723 11.8254 18.3228C11.8333 17.2334 11.1967 16.6585 10.1782 16.6585Z" fill="#009944"/>
<path d="M13.125 0H2.625C1.92881 0 1.26113 0.276557 0.76885 0.768849C0.276557 1.26113 0 1.92881 0 2.625V23.625C0 24.3211 0.276557 24.9888 0.76885 25.4811C1.26113 25.9735 1.92881 26.25 2.625 26.25H18.375C19.0711 26.25 19.7388 25.9735 20.2311 25.4811C20.7235 24.9888 21 24.3211 21 23.625V7.875L13.125 0ZM7.21613 18.6244C6.81056 19.005 6.21206 19.1756 5.51512 19.1756C5.37999 19.1771 5.24492 19.1692 5.11088 19.152V21.0236H3.9375V15.8576C4.46703 15.7786 5.00209 15.7427 5.53744 15.75C6.2685 15.75 6.78825 15.8891 7.13869 16.1687C7.47206 16.4338 7.69781 16.8682 7.69781 17.3801C7.6965 17.8946 7.52588 18.3291 7.21613 18.6244ZM12.2128 20.4028C11.6616 20.8609 10.8229 21.0787 9.79781 21.0787C9.18356 21.0787 8.74912 21.0394 8.45381 21V15.8589C8.98354 15.7816 9.51838 15.7451 10.0538 15.75C11.0473 15.75 11.6931 15.9285 12.1971 16.3091C12.7418 16.7134 13.083 17.3578 13.083 18.2831C13.083 19.2846 12.7168 19.9762 12.2128 20.4028ZM17.0625 16.7606H15.0518V17.9563H16.9312V18.9197H15.0518V21.0249H13.8626V15.7894H17.0625V16.7606ZM13.125 9.1875H11.8125V2.625L18.375 9.1875H13.125Z" fill="#009944"/>
</svg>
