<svg width="13" height="13" viewBox="0 0 13 13" fill="none" xmlns="http://www.w3.org/2000/svg">
<path d="M11.4305 9.125C11.2951 9.26042 11.1347 9.32812 10.9495 9.32812C10.7646 9.32812 10.6044 9.26042 10.469 9.125L6.5013 5.15729L2.52005 9.13854C2.39366 9.26493 2.23568 9.32812 2.04609 9.32812C1.85651 9.32812 1.69401 9.26042 1.55859 9.125C1.42318 8.98958 1.35547 8.82925 1.35547 8.644C1.35547 8.45911 1.42318 8.29896 1.55859 8.16354L6.12214 3.61354C6.1763 3.55937 6.23498 3.52092 6.29818 3.49817C6.36137 3.47578 6.42908 3.46458 6.5013 3.46458C6.57352 3.46458 6.64123 3.47578 6.70443 3.49817C6.76762 3.52092 6.8263 3.55937 6.88047 3.61354L11.444 8.17708C11.5704 8.30347 11.6336 8.45911 11.6336 8.644C11.6336 8.82925 11.5659 8.98958 11.4305 9.125Z" fill="#009944"/>
</svg>
