<svg width="18" height="18" viewBox="0 0 18 18" fill="none" xmlns="http://www.w3.org/2000/svg">
<path fill-rule="evenodd" clip-rule="evenodd" d="M15.0257 2.96817C13.4746 1.42271 11.4118 0.571219 9.21419 0.570312C4.68584 0.570312 1.00042 4.238 0.998599 8.74589C0.997992 10.1869 1.37625 11.5936 2.09522 12.8335L0.929688 17.0703L5.2849 15.9333C6.48494 16.5848 7.83596 16.9281 9.21085 16.9285H9.2143C13.7421 16.9285 17.428 13.2605 17.4297 8.75244C17.4306 6.56768 16.5768 4.51353 15.0257 2.96817ZM9.21419 15.5477H9.21136C7.98613 15.5472 6.78447 15.2195 5.73591 14.6004L5.48668 14.4531L2.90223 15.1279L3.59206 12.6201L3.42964 12.363C2.74609 11.281 2.38514 10.0304 2.38574 8.74639C2.38716 4.99955 5.45045 1.95122 9.21693 1.95122C11.0408 1.95182 12.7553 2.6596 14.0445 3.94413C15.3337 5.22866 16.0433 6.93607 16.0426 8.75193C16.041 12.4991 12.9779 15.5477 9.21419 15.5477V15.5477ZM12.9597 10.458C12.7545 10.3557 11.7452 9.86163 11.557 9.79335C11.369 9.72517 11.232 9.69124 11.0953 9.89567C10.9583 10.1001 10.565 10.5603 10.4452 10.6966C10.3254 10.833 10.2058 10.8501 10.0005 10.7478C9.79514 10.6455 9.13375 10.4297 8.34961 9.73373C7.73942 9.19203 7.32746 8.52302 7.20765 8.31859C7.08804 8.11395 7.20664 8.01404 7.29771 7.90165C7.51993 7.62702 7.74245 7.3391 7.81086 7.20284C7.87937 7.06648 7.84506 6.94714 7.79366 6.84492C7.74245 6.74271 7.33192 5.73714 7.1609 5.32796C6.99414 4.92976 6.82505 4.98354 6.69896 4.97729C6.57935 4.97135 6.44244 4.97014 6.30552 4.97014C6.16871 4.97014 5.94629 5.0212 5.75807 5.22584C5.56996 5.43038 5.03971 5.92455 5.03971 6.93012C5.03971 7.93569 5.77528 8.90712 5.87789 9.04348C5.9805 9.17984 7.32544 11.2433 9.3846 12.1282C9.87437 12.3388 10.2567 12.4644 10.5549 12.5586C11.0467 12.7141 11.4941 12.6921 11.8478 12.6396C12.2423 12.5809 13.0622 12.1453 13.2334 11.6681C13.4045 11.1909 13.4045 10.7819 13.3531 10.6966C13.3019 10.6114 13.1649 10.5603 12.9597 10.458V10.458Z" fill="white"/>
</svg>
