<svg xmlns="http://www.w3.org/2000/svg" xmlns:xlink="http://www.w3.org/1999/xlink" width="1439" height="646" viewBox="0 0 1439 646">
    <defs>
        <path id="sqjkrw5ofa" d="M0 0H1440V646H0z"/>
    </defs>
    <g fill="none" fill-rule="evenodd">
        <g>
            <g opacity=".478" transform="translate(-1)">
                <mask id="piug11xekb" fill="#fff">
                    <use xlink:href="#sqjkrw5ofa"/>
                </mask>
                <use fill="#BFBFBF" xlink:href="#sqjkrw5ofa"/>
                <rect width="180" height="21" x="1364" y="63" fill="#ADADAD" mask="url(#piug11xekb)" rx="10.4"/>
                <rect width="138" height="16" x="1414" y="41" fill="#ADADAD" mask="url(#piug11xekb)" rx="8"/>
                <circle cx="1342" cy="73" r="11" fill="#ADADAD" mask="url(#piug11xekb)"/>
                <g fill="#ADADAD" mask="url(#piug11xekb)">
                    <g transform="matrix(-1 0 0 1 167 567)">
                        <rect width="135" height="15.6" x="25.2" y="16.8" rx="7.8"/>
                        <rect width="103.8" height="12" x="62.4" rx="6"/>
                        <circle cx="8.4" cy="24.6" r="8.4"/>
                    </g>
                </g>
                <path fill="#AAA" d="M1667 151.052c-29.509 50.517-70.216 91.329-122.123 122.428-51.902 31.105-109.195 46.653-171.875 46.653h-69.676c-11.74 0-21.782 4.154-30.12 12.454-8.342 8.304-12.511 18.172-12.511 29.603v.383c0 11.431 4.169 21.299 12.511 29.598 8.338 8.305 18.38 12.455 30.12 12.455h139.353c58.638 0 108.84 20.753 150.608 62.266 41.703 41.578 62.552 91.551 62.552 149.923s-20.849 108.312-62.552 149.824C1551.52 808.213 1501.317 829 1442.68 829L1079 826.991c29.324-50.517 69.932-91.324 121.834-122.428 51.84-31.1 109.228-46.652 172.168-46.652l1.057.956h68.62c11.545 0 21.521-4.088 29.925-12.26 8.47-8.176 12.706-18.105 12.706-29.792 0-11.43-4.235-21.365-12.706-29.792-8.404-8.432-18.38-12.649-29.925-12.649h-139.353c-58.894 0-109.129-20.72-150.703-62.17-41.637-41.385-62.457-91.387-62.457-150.014 0-58.117 20.82-108.028 62.457-149.73 41.574-41.64 91.809-62.46 150.703-62.46L1667 151.052zM324-100.085c-25.695 43.97-61.14 79.493-106.339 106.562C172.468 33.55 122.58 47.083 68.002 47.083H7.332c-10.222 0-18.967 3.616-26.227 10.84C-26.16 65.151-29.79 73.74-29.79 83.689v.334c0 9.95 3.63 18.538 10.894 25.762 7.26 7.229 16.005 10.84 26.226 10.84h121.342c51.059 0 94.772 18.065 131.142 54.197 36.312 36.19 54.466 79.686 54.466 130.493 0 50.807-18.154 94.274-54.466 130.406C223.445 471.907 179.732 490 128.673 490L-188 488.252c25.534-43.97 60.893-79.489 106.087-106.562 45.14-27.07 95.11-40.606 149.915-40.606l.92.833h59.75c10.053 0 18.74-3.558 26.058-10.671 7.376-7.117 11.064-15.76 11.064-25.931 0-9.95-3.688-18.596-11.064-25.931-7.317-7.34-16.005-11.01-26.057-11.01H7.33c-51.282 0-95.023-18.035-131.224-54.113-36.255-36.021-54.384-79.542-54.384-130.572 0-50.584 18.129-94.027 54.384-130.324C-87.693-82.878-43.951-101 7.33-101l316.669.915z" mask="url(#piug11xekb)" opacity=".549"/>
            </g>
            <g fill="#ADADAD" transform="translate(-1) translate(357 41)">
                <rect width="50" height="10" x="41" rx="5"/>
                <rect width="66" height="10" y="17" rx="5"/>
            </g>
        </g>
    </g>
</svg>
